<svg id="Calque_1" data-name="Calque 1" xmlns="http://www.w3.org/2000/svg" viewBox="0 0 86 75.92"><defs><style>.cls-1{fill:#702963;}.cls-2{fill:none;stroke:#702963;stroke-miterlimit:10;}.cls-3{fill:#fff;}</style></defs><title>ARCHITECTURE</title><path id="Tracé_46422" data-name="Tracé 46422" class="cls-1" d="M27.21,7.93a66,66,0,0,1,23.37,0,28.3,28.3,0,0,1,8.5,2.84c2.09,1.2,3.13,2.49,3.13,3.89v3.88q0,2.1-3.13,3.89a28.3,28.3,0,0,1-8.5,2.84,66,66,0,0,1-23.37,0,28.3,28.3,0,0,1-8.5-2.84q-3.13-1.79-3.13-3.89V14.66c0-1.4,1-2.69,3.13-3.89A28.3,28.3,0,0,1,27.21,7.93ZM15.58,25a26.48,26.48,0,0,0,9.87,3.86,70,70,0,0,0,26.9,0A26.5,26.5,0,0,0,62.21,25V30.2q0,2.1-3.13,3.89a28.3,28.3,0,0,1-8.5,2.84,66,66,0,0,1-23.37,0,28.3,28.3,0,0,1-8.5-2.84c-2.09-1.2-3.13-2.49-3.13-3.89V25Zm0,11.66a26.64,26.64,0,0,0,9.87,3.85,70,70,0,0,0,26.9,0,26.66,26.66,0,0,0,9.86-3.85v5.16q0,2.1-3.13,3.88a27.76,27.76,0,0,1-8.5,2.84,65.54,65.54,0,0,1-23.37,0,27.76,27.76,0,0,1-8.5-2.84Q15.58,44,15.58,41.86V36.7Zm0,11.65a26.48,26.48,0,0,0,9.87,3.86,70,70,0,0,0,26.9,0,26.66,26.66,0,0,0,9.86-3.85v5.16q0,2.1-3.13,3.88a28.3,28.3,0,0,1-8.5,2.84,65.54,65.54,0,0,1-23.37,0,28,28,0,0,1-8.5-2.84c-2.09-1.19-3.13-2.49-3.13-3.88V48.36Z"/><path id="Tracé_46423" data-name="Tracé 46423" class="cls-2" d="M27.21,7.93a66,66,0,0,1,23.37,0,28.3,28.3,0,0,1,8.5,2.84c2.09,1.2,3.13,2.49,3.13,3.89v3.88q0,2.1-3.13,3.89a28.3,28.3,0,0,1-8.5,2.84,66,66,0,0,1-23.37,0,28.3,28.3,0,0,1-8.5-2.84q-3.13-1.79-3.13-3.89V14.66c0-1.4,1-2.69,3.13-3.89A28.3,28.3,0,0,1,27.21,7.93ZM15.58,25a26.48,26.48,0,0,0,9.87,3.86,70,70,0,0,0,26.9,0A26.5,26.5,0,0,0,62.21,25V30.2q0,2.1-3.13,3.89a28.3,28.3,0,0,1-8.5,2.84,66,66,0,0,1-23.37,0,28.3,28.3,0,0,1-8.5-2.84c-2.09-1.2-3.13-2.49-3.13-3.89V25Zm0,11.66a26.64,26.64,0,0,0,9.87,3.85,70,70,0,0,0,26.9,0,26.66,26.66,0,0,0,9.86-3.85v5.16q0,2.1-3.13,3.88a27.76,27.76,0,0,1-8.5,2.84,65.54,65.54,0,0,1-23.37,0,27.76,27.76,0,0,1-8.5-2.84Q15.58,44,15.58,41.86V36.7Zm0,11.65a26.48,26.48,0,0,0,9.87,3.86,70,70,0,0,0,26.9,0,26.66,26.66,0,0,0,9.86-3.85v5.16q0,2.1-3.13,3.88a28.3,28.3,0,0,1-8.5,2.84,65.54,65.54,0,0,1-23.37,0,28,28,0,0,1-8.5-2.84c-2.09-1.19-3.13-2.49-3.13-3.88V48.36Z"/><circle id="Ellipse_2687" data-name="Ellipse 2687" class="cls-3" cx="62.21" cy="55.99" r="15.93"/><path id="Tracé_46424" data-name="Tracé 46424" class="cls-1" d="M60.8,56.88A3.74,3.74,0,0,1,60.62,58a3.8,3.8,0,1,1-3.63-5h0a3.71,3.71,0,0,1,2.24.73,3.82,3.82,0,0,1,1.56,3.08Z"/><path id="Tracé_46425" data-name="Tracé 46425" class="cls-1" d="M68.66,58.15a4.32,4.32,0,0,0-3.24,1.46l-3-1.44a5.68,5.68,0,0,0,.15-1.29,5.59,5.59,0,0,0-.92-3.08L64,51.37a3.37,3.37,0,0,0,1.25.26,3.27,3.27,0,1,0-2.94-1.9l-2.37,2.43A5.4,5.4,0,0,0,57,51.32a5.56,5.56,0,1,0-.15,11.12H57a5.54,5.54,0,0,0,4.38-2.16l3,1.46a3,3,0,0,0-.06.74,4.33,4.33,0,1,0,4.32-4.34ZM65.24,46.63a1.76,1.76,0,1,1,0,3.52,1.65,1.65,0,0,1-.86-.22,1.79,1.79,0,0,1-.66-.65,1.76,1.76,0,0,1,1.52-2.65ZM60.62,58a3.8,3.8,0,1,1,.18-1.16A3.81,3.81,0,0,1,60.62,58Zm8,7.18a2.73,2.73,0,0,1-2.73-2.73,2.82,2.82,0,0,1,.09-.71,2.63,2.63,0,0,1,.45-.9,2.69,2.69,0,0,1,2.2-1.12,2.74,2.74,0,0,1,0,5.47Z"/><path id="Tracé_46426" data-name="Tracé 46426" class="cls-1" d="M67.57,48.39a2.33,2.33,0,0,1-4.34,1.19,2.26,2.26,0,0,1-.32-1.19,2.33,2.33,0,0,1,4.66,0Z"/><path id="Tracé_46427" data-name="Tracé 46427" class="cls-1" d="M65.24,45.48a2.91,2.91,0,0,0-2.49,4.4,1,1,0,0,0,.08.11,2.76,2.76,0,0,0,.37.46l0,0a1.89,1.89,0,0,0,.47.36l.12.08a2.79,2.79,0,0,0,1.41.36,2.91,2.91,0,0,0,.11-5.81h-.12Zm0,1.15a1.76,1.76,0,1,1,0,3.52h0a1.65,1.65,0,0,1-.86-.22,2,2,0,0,1-.66-.65,1.76,1.76,0,0,1,1.52-2.65Z"/><path id="Tracé_46428" data-name="Tracé 46428" class="cls-1" d="M72,62.48a3.31,3.31,0,1,1-6.61,0,3.56,3.56,0,0,1,.11-.86,3.31,3.31,0,0,1,6.5.86Z"/><path id="Tracé_46429" data-name="Tracé 46429" class="cls-1" d="M68.66,58.6a3.91,3.91,0,0,0-3.11,1.58l-.07.1a4.8,4.8,0,0,0-.3.48l0,.07a3.16,3.16,0,0,0-.2.54l0,.1a3.47,3.47,0,0,0-.14,1,3.88,3.88,0,1,0,3.88-3.88ZM66,61.77a2.82,2.82,0,0,1,.45-.9,2.72,2.72,0,1,1-.54,1.62,3,3,0,0,1,.09-.72Z"/></svg>