<svg id="Calque_1" data-name="Calque 1" xmlns="http://www.w3.org/2000/svg" viewBox="0 0 85.11 75.13"><defs><style>.cls-1{fill:#702963;}.cls-2{fill:#fff;}</style></defs><title>ARCHITECTURE</title><g id="chaincode"><path id="Tracé_47107-3" data-name="Tracé 47107-3" class="cls-1" d="M57.12,19.66l-1.24-1.24v0l-10-10L44.42,7a2.23,2.23,0,0,0-1.58-.65H22.68a8.16,8.16,0,0,0-8.16,8.16h0v42a8.16,8.16,0,0,0,8.16,8.16H49.87A8.18,8.18,0,0,0,58,56.51V21.86A3.1,3.1,0,0,0,57.12,19.66ZM55.88,56.52a6,6,0,0,1-6,6H22.68a6,6,0,0,1-6-6v-42a6,6,0,0,1,6-6H40.54a2.26,2.26,0,0,0,0,.45l0,12.93a2.27,2.27,0,0,0,2,2l12.91-.05a1.72,1.72,0,0,0,.32,0h.16Zm.28-34.78a.57.57,0,0,1-.28.25.48.48,0,0,1-.24,0l-12.9.05a.5.5,0,0,1-.43-.43l0-12.94a.5.5,0,0,1,0-.21.53.53,0,0,1,.26-.31.6.6,0,0,1,.24,0,.45.45,0,0,1,.34.15l.21.21L55.88,21l.19.18a.52.52,0,0,1,.09.59Z"/><g id="Groupe_13107-3" data-name="Groupe 13107-3"><g id="Groupe_13102-3" data-name="Groupe 13102-3"><path id="Tracé_47108-3" data-name="Tracé 47108-3" class="cls-1" d="M49.75,42.7H33.06a1,1,0,0,1,0-2H49.75a1,1,0,0,1,0,2Z"/><path id="Tracé_47109" data-name="Tracé 47109" class="cls-1" d="M24.86,44.4l-2.67-2.67a.77.77,0,0,1,0-1.11.78.78,0,0,1,1.11,0l0,0,1.55,1.55,2.94-2.94a.79.79,0,0,1,1.12,0,.78.78,0,0,1,0,1.11Z"/></g><g id="Groupe_13103-3" data-name="Groupe 13103-3"><path id="Tracé_47110-3" data-name="Tracé 47110-3" class="cls-1" d="M49.75,53.89H33.06a1,1,0,0,1,0-2H49.75a1,1,0,0,1,.84,1.16,1,1,0,0,1-.84.83Z"/><path id="Tracé_47111" data-name="Tracé 47111" class="cls-1" d="M24.86,55.6l-2.67-2.67a.79.79,0,0,1,0-1.12.81.81,0,0,1,1.12,0l1.55,1.56,2.94-2.95a.81.81,0,0,1,1.12,0,.79.79,0,0,1,0,1.12h0Z"/></g><g id="Groupe_13104-3" data-name="Groupe 13104-3"><path id="Tracé_47112-3" data-name="Tracé 47112-3" class="cls-1" d="M49.75,30.57H33.06a1,1,0,0,1,0-2H49.75a1,1,0,0,1,0,2Z"/><path id="Tracé_47113" data-name="Tracé 47113" class="cls-1" d="M24.86,32.27,22.19,29.6a.78.78,0,0,1,0-1.11.79.79,0,0,1,1.12,0L24.86,30,27.8,27.1a.79.79,0,0,1,1.12,1.12Z"/></g><g id="Groupe_13105-3" data-name="Groupe 13105-3"><path id="Tracé_47114-3" data-name="Tracé 47114-3" class="cls-1" d="M37.83,18.44H33.06a1,1,0,0,1,0-2h4.77a1,1,0,0,1,.83,1.16A1,1,0,0,1,37.83,18.44Z"/><path id="Tracé_47115" data-name="Tracé 47115" class="cls-1" d="M24.86,20.14l-2.67-2.67a.79.79,0,0,1,1.12-1.11l1.55,1.55L27.8,15a.79.79,0,0,1,1.12,0,.78.78,0,0,1,0,1.11Z"/></g></g></g><g id="fabric"><ellipse id="Ellipse_2700-2" data-name="Ellipse 2700-2" class="cls-2" cx="56.38" cy="59.29" rx="14.17" ry="14.31"/><g id="Groupe_13088" data-name="Groupe 13088"><path id="Tracé_47085" data-name="Tracé 47085" class="cls-1" d="M66.36,61.43c-.19.14-.4.26-.59.41a.38.38,0,0,1-.55,0l-.06-.06c-.56-.71-1.11-1.44-1.66-2.16a.37.37,0,0,1,0-.51l.06-.05.73-.56a.4.4,0,0,1,.56,0,.31.31,0,0,1,.09.11c.53.68,1,1.37,1.58,2.06l.14.16Z"/><path id="Tracé_47086" data-name="Tracé 47086" class="cls-1" d="M51.15,63.05c.12.13.19.22.26.31L54,66.68c.31.4.29.53-.12.85l-.57.44a.39.39,0,0,1-.55,0l-.06-.08q-1.39-1.78-2.76-3.59a.37.37,0,0,1,0-.52.21.21,0,0,1,.08-.06,8.47,8.47,0,0,1,.76-.58A1.46,1.46,0,0,1,51.15,63.05Z"/><path id="Tracé_47087" data-name="Tracé 47087" class="cls-1" d="M53.09,63.63l.27-.23,3.44-2.65a.42.42,0,0,1,.57,0l.09.12.54.7a.38.38,0,0,1,0,.54.27.27,0,0,1-.08.07L54.34,64.9a.36.36,0,0,1-.51,0l0,0q-.33-.41-.63-.84A.91.91,0,0,1,53.09,63.63Z"/><path id="Tracé_47088" data-name="Tracé 47088" class="cls-1" d="M58.14,54.22c.29.41.56.77.79,1.15,0,.07,0,.3-.15.37q-1.78,1.4-3.59,2.77a.38.38,0,0,1-.54,0,.1.1,0,0,1,0-.06c-.2-.24-.39-.49-.58-.75a.38.38,0,0,1,0-.53l.06,0q1.78-1.38,3.58-2.73A1.32,1.32,0,0,1,58.14,54.22Z"/><path id="Tracé_47089" data-name="Tracé 47089" class="cls-1" d="M59.47,64.49c.12-.11.2-.19.29-.26l3.39-2.6c.32-.25.48-.22.72.08l.45.58c.26.35.25.51-.1.77l-2.94,2.26-.53.4a.39.39,0,0,1-.55,0l0,0a9.53,9.53,0,0,1-.61-.81A.91.91,0,0,1,59.47,64.49Z"/><path id="Tracé_47090" data-name="Tracé 47090" class="cls-1" d="M52,56.67c.12.13.2.21.27.3l2.6,3.39c.24.31.23.48-.08.72l-.65.5c-.26.19-.44.18-.63-.07q-1.38-1.77-2.74-3.57a.37.37,0,0,1,0-.53l.06,0c.26-.2.51-.41.78-.58A1.15,1.15,0,0,1,52,56.67Z"/><path id="Tracé_47091" data-name="Tracé 47091" class="cls-1" d="M59.21,51.14c.1.12.18.19.24.27.86,1.12,1.72,2.23,2.57,3.35.32.42.31.53-.11.85l-.58.45a.39.39,0,0,1-.55,0L60.72,56C59.8,54.8,58.89,53.6,58,52.41a.38.38,0,0,1,0-.53l.06-.05c.26-.21.51-.42.78-.6A1.3,1.3,0,0,1,59.21,51.14Z"/><path id="Tracé_47092" data-name="Tracé 47092" class="cls-1" d="M61.42,61.74a12.85,12.85,0,0,1-1.14.78c-.08,0-.33-.07-.42-.19C59,61.16,58.05,60,57.14,58.8c-.19-.25-.16-.42.1-.63s.47-.35.7-.54a.38.38,0,0,1,.54,0,.46.46,0,0,1,.07.07l2.75,3.6A1.22,1.22,0,0,1,61.42,61.74Z"/><path id="Tracé_47093" data-name="Tracé 47093" class="cls-1" d="M51.76,53.38c.28.4.56.75.78,1.13.05.08-.07.33-.18.42-1.16.91-2.34,1.8-3.51,2.7a.39.39,0,0,1-.55,0l-.06-.07c-.2-.24-.39-.49-.58-.74a.38.38,0,0,1,0-.53l.07-.06,3.58-2.73A1.34,1.34,0,0,1,51.76,53.38Z"/><path id="Tracé_47094" data-name="Tracé 47094" class="cls-1" d="M63.93,57.51c-.1.09-.17.16-.24.21l-2.06,1.59c-.29.22-.46.19-.69-.1s-.35-.45-.52-.68a.37.37,0,0,1,0-.52l.07-.06c.73-.57,1.47-1.14,2.21-1.69a.35.35,0,0,1,.5,0l0,0a10.19,10.19,0,0,1,.64.83A.87.87,0,0,1,63.93,57.51Z"/><path id="Tracé_47095" data-name="Tracé 47095" class="cls-1" d="M50.92,59.76c.28.39.56.74.78,1.12,0,.08-.07.33-.17.42-.71.57-1.44,1.12-2.16,1.67a.37.37,0,0,1-.51,0l0,0c-.23-.27-.45-.55-.65-.83a.39.39,0,0,1,.07-.53l0,0c.72-.55,1.44-1.11,2.17-1.65A1.28,1.28,0,0,1,50.92,59.76Z"/><path id="Tracé_47096" data-name="Tracé 47096" class="cls-1" d="M53.66,68.93l.22-.2c.69-.53,1.37-1.06,2.07-1.58.3-.23.45-.2.69.09s.35.45.53.68a.39.39,0,0,1,0,.55l-.07.06-2.16,1.65a.37.37,0,0,1-.53,0l0,0a8.36,8.36,0,0,1-.63-.84A.9.9,0,0,1,53.66,68.93Z"/><path id="Tracé_47097" data-name="Tracé 47097" class="cls-1" d="M57.56,48.93c.29.39.57.75.8,1.13,0,.08-.07.32-.17.4-.71.57-1.43,1.11-2.15,1.66a.39.39,0,0,1-.56,0l0,0c-.21-.25-.41-.52-.6-.78a.37.37,0,0,1,0-.52l0,0c.73-.56,1.46-1.13,2.2-1.67A1.16,1.16,0,0,1,57.56,48.93Z"/><path id="Tracé_47098" data-name="Tracé 47098" class="cls-1" d="M57.54,63.9a2.91,2.91,0,0,1,.2.23l1.57,2c.23.3.2.47-.09.7l-.66.5c-.25.19-.44.18-.63-.06l-1.65-2.14a.38.38,0,0,1,0-.53l.05,0a6.76,6.76,0,0,1,.8-.61C57.26,63.91,57.42,63.93,57.54,63.9Z"/><path id="Tracé_47099" data-name="Tracé 47099" class="cls-1" d="M45.35,58.08c.39-.28.75-.55,1.14-.78.08,0,.31.07.4.17.56.7,1.1,1.42,1.64,2.14a.38.38,0,0,1,0,.53l-.07,0-.75.58a.38.38,0,0,1-.54,0s0,0,0-.06c-.55-.71-1.11-1.43-1.65-2.16C45.38,58.42,45.39,58.25,45.35,58.08Z"/><path id="Tracé_47100" data-name="Tracé 47100" class="cls-1" d="M53.93,51.74a2.26,2.26,0,0,1,.23.26c.52.66,1,1.33,1.55,2,.22.29.2.45-.1.69l-.65.5c-.26.19-.44.18-.63-.07-.55-.7-1.09-1.4-1.62-2.11a.38.38,0,0,1,0-.54l.11-.08a7.74,7.74,0,0,1,.73-.55A1.19,1.19,0,0,1,53.93,51.74Z"/></g></g></svg>