<svg id="Calque_1" data-name="Calque 1" xmlns="http://www.w3.org/2000/svg" viewBox="0 0 73.78 78.95"><defs><style>.cls-1,.cls-3,.cls-4{fill:none;}.cls-2{fill:#702963;}.cls-3,.cls-4{stroke:#701663;}.cls-3{stroke-width:2px;}.cls-5{fill:#fff;}.cls-6{opacity:0.66;}</style></defs><title>ARCHITECTURE</title><g id="Groupe_14742" data-name="Groupe 14742"><g id="Groupe_13114" data-name="Groupe 13114"><path id="Tracé_47106-2" data-name="Tracé 47106-2" class="cls-1" d="M55.39,19.65v0L45.55,9.12Z"/><path id="Tracé_47107-2" data-name="Tracé 47107-2" class="cls-2" d="M55.39,20.56,54.2,19.28v0L44.64,9.05,43.21,7.51a2.16,2.16,0,0,0-1.53-.67H22.35c-4.32,0-7.83,3.76-7.83,8.41V58.51a8.13,8.13,0,0,0,7.83,8.4H48.43c4.31,0,7.83-3.78,7.83-8.41V22.82A3.29,3.29,0,0,0,55.39,20.56Zm-1.19,38a6,6,0,0,1-5.77,6.18H22.35a6,6,0,0,1-5.77-6.18V15.24a6,6,0,0,1,5.77-6.18H39.48a2.36,2.36,0,0,0,0,.46l0,13.32a2.28,2.28,0,0,0,1.88,2l12.38-.05.31,0,.15,0Zm.27-35.81a.59.59,0,0,1-.27.25A.31.31,0,0,1,54,23L41.59,23a.49.49,0,0,1-.41-.44l0-13.32a.5.5,0,0,1,0-.21.54.54,0,0,1,.25-.32.46.46,0,0,1,.23-.06.45.45,0,0,1,.33.16l.2.22,12,12.85.18.19a.55.55,0,0,1,.09.6Z"/><g id="Groupe_13107-2" data-name="Groupe 13107-2"><g id="Groupe_13102-2" data-name="Groupe 13102-2"><path id="Tracé_47108-2" data-name="Tracé 47108-2" class="cls-2" d="M48.88,45.4H33.16a1.08,1.08,0,0,1-.41-2.12,1.41,1.41,0,0,1,.41,0H48.88a1.08,1.08,0,0,1,.42,2.12A1.48,1.48,0,0,1,48.88,45.4Z"/></g><g id="Groupe_13103-2" data-name="Groupe 13103-2"><path id="Tracé_47110-2" data-name="Tracé 47110-2" class="cls-2" d="M48.88,57.27H33.16a1.07,1.07,0,1,1-.41-2.11,1,1,0,0,1,.41,0H48.88a1.07,1.07,0,0,1,.41,2.11A.94.94,0,0,1,48.88,57.27Z"/></g><g id="Groupe_13104-2" data-name="Groupe 13104-2"><path id="Tracé_47112-2" data-name="Tracé 47112-2" class="cls-2" d="M48.88,32.53H33.59a1.07,1.07,0,0,1-.41-2.11.94.94,0,0,1,.41,0H48.88a1.07,1.07,0,0,1,.41,2.11A.94.94,0,0,1,48.88,32.53Z"/></g><g id="Groupe_13105-2" data-name="Groupe 13105-2"><path id="Tracé_47114-2" data-name="Tracé 47114-2" class="cls-2" d="M36.32,19.67H23.09a1.08,1.08,0,0,1,0-2.11H36.32a1.08,1.08,0,0,1,0,2.11Z"/></g></g></g><g id="Groupe_13129" data-name="Groupe 13129"><g id="Rectangle_12980" data-name="Rectangle 12980"><path class="cls-1" d="M25.7,30.59h0a4,4,0,0,1,4,4v4a4,4,0,0,1-4,4h0a4,4,0,0,1-4-4v-4A4,4,0,0,1,25.7,30.59Z"/><path class="cls-3" d="M25.7,31.59h0a3,3,0,0,1,3,3v4a3,3,0,0,1-3,3h0a3,3,0,0,1-3-3v-4A3,3,0,0,1,25.7,31.59Z"/></g><g id="Rectangle_12981" data-name="Rectangle 12981"><path class="cls-1" d="M25.7,45.43h0a4,4,0,0,1,4,4v4a4,4,0,0,1-4,4h0a4,4,0,0,1-4-4v-4A4,4,0,0,1,25.7,45.43Z"/><path class="cls-3" d="M25.7,46.43h0a3,3,0,0,1,3,3v4a3,3,0,0,1-3,3h0a3,3,0,0,1-3-3v-4A3,3,0,0,1,25.7,46.43Z"/></g><g id="Rectangle_12982" data-name="Rectangle 12982"><path class="cls-1" d="M25.7,36.53h0a1,1,0,0,1,1,1V49.39a1,1,0,0,1-1,1h0a1,1,0,0,1-1-1V37.52A1,1,0,0,1,25.7,36.53Z"/><path class="cls-4" d="M25.7,37h0a.49.49,0,0,1,.49.49V49.39a.49.49,0,0,1-.49.49h0a.49.49,0,0,1-.49-.49V37.52A.49.49,0,0,1,25.7,37Z"/></g></g></g><g id="ethereum"><g id="Groupe_13109" data-name="Groupe 13109"><circle id="Ellipse_2701" data-name="Ellipse 2701" class="cls-5" cx="51.66" cy="58.55" r="15.14"/></g><g id="Groupe_13125" data-name="Groupe 13125"><g id="Groupe_13123" data-name="Groupe 13123"><path id="Tracé_47126" data-name="Tracé 47126" class="cls-2" d="M51.73,62.53l-7.39-4.29,7.39-12.46,7.37,12.5ZM45.32,58l6.41,3.73L58.12,58,51.73,47.17Z"/><path id="Tracé_47127" data-name="Tracé 47127" class="cls-2" d="M51.73,70.6,43.52,59l8.2,5.08,8.17-5Zm-5.61-9.15,5.61,7.92,5.58-7.9-5.59,3.44Z"/></g><g id="Groupe_13124" data-name="Groupe 13124" class="cls-6"><path id="Tracé_47128" data-name="Tracé 47128" class="cls-2" d="M51.72,46.47,58.6,58.15l-6.88,4-6.9-4Z"/><path id="Tracé_47129" data-name="Tracé 47129" class="cls-2" d="M58.59,60.26,51.72,70l-6.91-9.76,6.9,4.27Z"/></g></g></g></svg>