<svg id="Calque_1" data-name="Calque 1" xmlns="http://www.w3.org/2000/svg" viewBox="0 0 73.88 79.05"><defs><style>.cls-1{fill:none;}.cls-2{fill:#702963;}.cls-3{fill:#fff;}.cls-4{opacity:0.66;}</style></defs><title>ARCHITECTURE</title><g id="Groupe_13111" data-name="Groupe 13111"><path id="Tracé_47106" data-name="Tracé 47106" class="cls-1" d="M52.73,20.51v0l-9-9.62Z"/><path id="Tracé_47107" data-name="Tracé 47107" class="cls-2" d="M53.85,21.71l-1.11-1.2v0l-9-9.62L42.43,9.47A2,2,0,0,0,41,8.84H22.87a7.63,7.63,0,0,0-7.35,7.88V57.3a7.62,7.62,0,0,0,7.34,7.87H47.32a7.65,7.65,0,0,0,7.35-7.88V23.83A3.08,3.08,0,0,0,53.85,21.71ZM52.74,57.3a5.64,5.64,0,0,1-5.41,5.8H22.87a5.62,5.62,0,0,1-5.41-5.8V16.72a5.6,5.6,0,0,1,5.41-5.8H38.93a2.07,2.07,0,0,0,0,.43l0,12.5a2.15,2.15,0,0,0,1.76,1.89l11.62,0,.29,0h.14ZM53,23.72a.61.61,0,0,1-.25.23.42.42,0,0,1-.22,0L40.91,24a.48.48,0,0,1-.39-.42l0-12.49a.44.44,0,0,1,0-.2.47.47,0,0,1,.23-.3.79.79,0,0,1,.22-.06.46.46,0,0,1,.31.15l.18.21L52.73,23l.17.18a.52.52,0,0,1,.09.57Z"/><g id="Groupe_13107" data-name="Groupe 13107"><g id="Groupe_13102" data-name="Groupe 13102"><path id="Tracé_47108" data-name="Tracé 47108" class="cls-2" d="M46.81,44H23.73A1,1,0,0,1,23.35,42a.81.81,0,0,1,.38,0H46.81A1,1,0,0,1,47.19,44,.81.81,0,0,1,46.81,44Z"/></g><g id="Groupe_13103" data-name="Groupe 13103"><path id="Tracé_47110" data-name="Tracé 47110" class="cls-2" d="M46.81,54.76H23.73a1,1,0,1,1-.37-1.92.77.77,0,0,1,.37,0H46.81a1,1,0,0,1,.38,1.92A.81.81,0,0,1,46.81,54.76Z"/></g><g id="Groupe_13104" data-name="Groupe 13104"><path id="Tracé_47112" data-name="Tracé 47112" class="cls-2" d="M46.81,32.24H23.73a1,1,0,1,1-.37-1.93,1.15,1.15,0,0,1,.37,0H46.81a1,1,0,0,1,.38,1.93A1.21,1.21,0,0,1,46.81,32.24Z"/></g><g id="Groupe_13105" data-name="Groupe 13105"><path id="Tracé_47114" data-name="Tracé 47114" class="cls-2" d="M35.38,20.52H23.32a1,1,0,0,1-.73-1.19,1,1,0,0,1,.73-.73H35.38a1,1,0,0,1,0,1.92Z"/></g></g></g><g id="logo_bancor" data-name="logo bancor"><g id="Groupe_13116" data-name="Groupe 13116"><g id="Groupe_13113" data-name="Groupe 13113"><ellipse id="Ellipse_2700" data-name="Ellipse 2700" class="cls-3" cx="55.08" cy="59.37" rx="15.28" ry="15.43"/></g></g><g id="Groupe_13126" data-name="Groupe 13126"><g id="Groupe_13120" data-name="Groupe 13120"><path id="Tracé_47116" data-name="Tracé 47116" class="cls-2" d="M54.59,55.13l-6.05-3.58L54.59,48l6.2,3.57Zm-4.32-3.58,4.32,2.56L59,51.53,54.59,49Z"/><path id="Tracé_47117" data-name="Tracé 47117" class="cls-2" d="M55,63.39V56.26l6.18-3.57V59.8Zm.88-6.62v5.08l4.41-2.56V54.22Z"/><path id="Tracé_47118" data-name="Tracé 47118" class="cls-2" d="M55,71.66V64.54L63,60l0,7.11Zm.88-6.6v5.08l6.2-3.53V61.53Z"/><path id="Tracé_47119" data-name="Tracé 47119" class="cls-2" d="M53.77,63.41l-6.18-3.59V52.71l6.18,3.58Zm-5.29-4.1,4.41,2.57V56.79l-4.41-2.55Z"/><path id="Tracé_47120" data-name="Tracé 47120" class="cls-2" d="M53.77,71.69l-6.18-3.57V61l6.18,3.58Zm-5.29-4.08,4.41,2.55V65.08l-4.41-2.55Z"/></g><g id="Groupe_13121" data-name="Groupe 13121" class="cls-4"><path id="Tracé_47121" data-name="Tracé 47121" class="cls-2" d="M54.41,48.39l-5.18,3.08,5.18,3.07,5.32-3.09Z"/><path id="Tracé_47122" data-name="Tracé 47122" class="cls-2" d="M55.3,56.44v6.1l5.29-3.08V53.37Z"/><path id="Tracé_47123" data-name="Tracé 47123" class="cls-2" d="M55.3,64.72v6.1l7.08-4,0-6.09Z"/><path id="Tracé_47124" data-name="Tracé 47124" class="cls-2" d="M53.15,56.46v6.1l-5.3-3.08V53.4Z"/><path id="Tracé_47125" data-name="Tracé 47125" class="cls-2" d="M53.15,64.74v6.1l-5.3-3.06v-6.1Z"/></g></g></g></svg>