<svg id="Calque_1" data-name="Calque 1" xmlns="http://www.w3.org/2000/svg" viewBox="0 0 156 162"><defs><style>.cls-1,.cls-3{fill:#702963;}.cls-1{opacity:0.66;isolation:isolate;}.cls-2{fill:#fff;}</style></defs><title>ARCHITECTURE</title><path id="Tracé_47055" data-name="Tracé 47055" class="cls-1" d="M98.29,135.1V142h-3.1v-7.52a1,1,0,0,0-2.06,0V142H79.18v-7.52a1.05,1.05,0,0,0-1.05-1,1,1,0,0,0-1,1V142H74V135.1c0-5.83,5.46-10.59,12.14-10.59S98.29,129.27,98.29,135.1Z"/><path id="Tracé_47056" data-name="Tracé 47056" class="cls-2" d="M85.82,102.45a3.12,3.12,0,0,1-.15.43v0c-.08.17-.18.35-.25.52s-.08.08-.1.13-.13.26-.2.38a1.3,1.3,0,0,0-.1.15c-.08.1-.18.23-.26.35a.32.32,0,0,1-.1.1,2.86,2.86,0,0,1-.35.43l-.07.07a3.7,3.7,0,0,1-.36.33s-.07.07-.12.13-.2.17-.33.25-.07.07-.13.1-.27.17-.4.27-.05,0-.07,0l-.5.28a.24.24,0,0,0-.13,0l-.4.18a1.34,1.34,0,0,0-.18.07,2.67,2.67,0,0,0-.4.13.27.27,0,0,0-.15.05,7.62,7.62,0,0,1-1.06.2A7,7,0,0,1,85.82,102.45Z"/><path id="Tracé_47057" data-name="Tracé 47057" class="cls-2" d="M93.11,112.11a7,7,0,0,1-13.5-2.44c.15,0,.3,0,.43,0l.07,0c.25,0,.51-.05.76-.1,0,0,.1,0,.15,0a6.47,6.47,0,0,0,.73-.18l.12,0a6.28,6.28,0,0,0,.73-.25h0c.23-.1.47-.2.67-.3a.57.57,0,0,0,.13-.08c.23-.1.43-.23.66-.35a.5.5,0,0,1,.12-.08,7,7,0,0,0,.6-.4.35.35,0,0,0,.08,0c.17-.15.38-.3.55-.46s0,0,.08,0l.53-.53.09-.1a3.43,3.43,0,0,0,.43-.5.3.3,0,0,1,.05.15l.08.2.3.63a.19.19,0,0,0,0,.08,3.81,3.81,0,0,0,.38.65l.1.18a6.75,6.75,0,0,0,.41.57.08.08,0,0,0,0,.05,6.41,6.41,0,0,0,.48.58l.12.13c.18.17.33.35.51.52,0,0,0,0,0,0a5.48,5.48,0,0,0,.58.48.44.44,0,0,0,.15.12c.2.16.4.28.6.43h0a4.34,4.34,0,0,0,.66.38,1,1,0,0,0,.17.1,6.29,6.29,0,0,0,.71.3s0,0,0,0l.73.25a1.17,1.17,0,0,1,.2,0A.64.64,0,0,0,93.11,112.11Z"/><path id="Tracé_47058" data-name="Tracé 47058" class="cls-2" d="M93.66,109.41v.26h0s0,0,0,0a1.08,1.08,0,0,1-.21,0l-.4-.15-.2-.08-.35-.15-.23-.12a1.49,1.49,0,0,1-.3-.18l-.23-.12a1.49,1.49,0,0,0-.31-.2s-.12-.11-.17-.16-.2-.17-.3-.25a.79.79,0,0,0-.15-.12,4.27,4.27,0,0,1-.36-.38s0,0-.07-.05a3.48,3.48,0,0,1-.38-.48c-.05-.05-.07-.1-.12-.15s-.15-.23-.23-.32a2.39,2.39,0,0,0-.13-.21,3,3,0,0,0-.18-.32c0-.1-.07-.15-.1-.23a2.3,2.3,0,0,0-.15-.33,1.09,1.09,0,0,0-.1-.25c0-.1-.07-.23-.1-.33a1.47,1.47,0,0,0-.08-.25c0-.12-.07-.25-.09-.38a1.89,1.89,0,0,0-.05-.23c0-.12,0-.27-.06-.42s0-.13,0-.21a4.24,4.24,0,0,1,0-.62v-.26A7,7,0,0,1,93.66,109.41Z"/><path id="Tracé_47059" data-name="Tracé 47059" class="cls-1" d="M93.66,109.41v.26h0s0,0,0,0a1.08,1.08,0,0,1-.21,0l-.4-.15-.2-.08-.35-.15-.23-.12a1.49,1.49,0,0,1-.3-.18l-.23-.12a1.49,1.49,0,0,0-.31-.2s-.12-.11-.17-.16-.2-.17-.3-.25a.79.79,0,0,0-.15-.12,4.27,4.27,0,0,1-.36-.38s0,0-.07-.05a3.48,3.48,0,0,1-.38-.48c-.05-.05-.07-.1-.12-.15s-.15-.23-.23-.32a2.39,2.39,0,0,0-.13-.21,3,3,0,0,0-.18-.32c0-.1-.07-.15-.1-.23a2.3,2.3,0,0,0-.15-.33,1.09,1.09,0,0,0-.1-.25c0-.1-.07-.23-.1-.33a1.47,1.47,0,0,0-.08-.25c0-.12-.07-.25-.09-.38a1.89,1.89,0,0,0-.05-.23c0-.12,0-.27-.06-.42s0-.13,0-.21a4.24,4.24,0,0,1,0-.62v-.26A7,7,0,0,1,93.66,109.41Z"/><path id="Tracé_47060" data-name="Tracé 47060" class="cls-1" d="M85.82,102.45a3.12,3.12,0,0,1-.15.43v0c-.08.17-.18.35-.25.52s-.08.08-.1.13-.13.26-.2.38a1.3,1.3,0,0,0-.1.15c-.08.1-.18.23-.26.35a.32.32,0,0,1-.1.1,2.86,2.86,0,0,1-.35.43l-.07.07a3.7,3.7,0,0,1-.36.33s-.07.07-.12.13-.2.17-.33.25-.07.07-.13.1-.27.17-.4.27-.05,0-.07,0l-.5.28a.24.24,0,0,0-.13,0l-.4.18a1.34,1.34,0,0,0-.18.07,2.67,2.67,0,0,0-.4.13.27.27,0,0,0-.15.05,7.62,7.62,0,0,1-1.06.2A7,7,0,0,1,85.82,102.45Z"/><path id="Tracé_47061" data-name="Tracé 47061" class="cls-3" d="M86.14,122c-8.06,0-14.63,5.86-14.63,13.07v7.32a2,2,0,0,0,2,2H98.73a2,2,0,0,0,2-2V135.1C100.77,127.89,94.21,122,86.14,122ZM98.28,142H95.19v-7.52a1,1,0,0,0-2.06,0V142H79.18v-7.52a1.05,1.05,0,0,0-1.05-1,1,1,0,0,0-1,1V142H74V135.1c0-5.83,5.46-10.59,12.14-10.59s12.15,4.75,12.15,10.59Z"/><path id="Tracé_47062" data-name="Tracé 47062" class="cls-3" d="M88.89,100.19a.12.12,0,0,0-.1,0,8.06,8.06,0,0,0-1.19-.23h-.12l-.5,0c-.13,0-.23,0-.36,0s-.12,0-.2,0H86.3a9.53,9.53,0,0,0-8.87,7.14,8,8,0,0,0-.24,1.18,9.34,9.34,0,0,0-.07,1.18v.1a9.51,9.51,0,0,0,18.52,3c.1-.35.23-.73.3-1.08v0a7.68,7.68,0,0,0,.18-1.35,4.15,4.15,0,0,0,0-.61A9.45,9.45,0,0,0,88.89,100.19Zm-3.07,2.26a3.12,3.12,0,0,1-.15.43v0c-.08.17-.18.35-.25.52s-.08.08-.1.13-.13.26-.2.38a1.3,1.3,0,0,0-.1.15c-.08.1-.18.23-.26.35a.32.32,0,0,1-.1.1,2.86,2.86,0,0,1-.35.43l-.07.07a3.7,3.7,0,0,1-.36.33s-.07.07-.12.12a3.17,3.17,0,0,1-.33.26c-.05,0-.07.07-.13.1s-.27.17-.4.27-.05,0-.07,0l-.5.28a.24.24,0,0,0-.13,0l-.4.18a1.34,1.34,0,0,0-.18.07,2.67,2.67,0,0,0-.4.13.27.27,0,0,0-.15.05,7.62,7.62,0,0,1-1.06.2,7,7,0,0,1,5.81-4.68Zm.8,14a7,7,0,0,1-7-6.76c.15,0,.3,0,.43,0l.07,0c.25,0,.51-.05.76-.1,0,0,.1,0,.15,0a6.47,6.47,0,0,0,.73-.18l.12,0a6.28,6.28,0,0,0,.73-.25h0c.23-.1.47-.2.67-.3a.57.57,0,0,0,.13-.08c.23-.1.43-.23.66-.35a.5.5,0,0,1,.12-.08,7,7,0,0,0,.6-.4.35.35,0,0,0,.08,0c.17-.15.38-.3.55-.46s0,0,.08,0l.53-.53.09-.1a3.43,3.43,0,0,0,.43-.5.3.3,0,0,1,.05.15l.08.2.3.63a.19.19,0,0,0,0,.08,3.81,3.81,0,0,0,.38.65l.1.18a6.75,6.75,0,0,0,.41.57.08.08,0,0,0,0,.05,6.41,6.41,0,0,0,.48.58l.12.13c.18.17.33.35.51.52,0,0,0,0,0,0a5.48,5.48,0,0,0,.58.48.44.44,0,0,0,.15.12c.2.16.4.28.6.43h0a4.34,4.34,0,0,0,.66.38,1,1,0,0,0,.17.1,6.29,6.29,0,0,0,.71.3s0,0,0,0l.73.25a1.17,1.17,0,0,1,.2,0,.61.61,0,0,0,.18,0,7.06,7.06,0,0,1-6.49,4.33Zm7-6.76h0s0,0,0,0a1.08,1.08,0,0,1-.21,0l-.4-.15-.2-.08-.35-.15-.23-.12a1.49,1.49,0,0,1-.3-.18l-.23-.12a1.49,1.49,0,0,0-.31-.2s-.12-.11-.17-.16-.2-.17-.3-.25a.79.79,0,0,0-.15-.12,4.27,4.27,0,0,1-.36-.38s0,0-.07-.05a3.48,3.48,0,0,1-.38-.48c-.05-.05-.07-.1-.12-.15s-.15-.23-.23-.32a2.39,2.39,0,0,0-.13-.21,3,3,0,0,0-.18-.32c0-.1-.07-.15-.1-.23a2.3,2.3,0,0,0-.15-.33,1.09,1.09,0,0,0-.1-.25c0-.1-.07-.23-.1-.33a1.47,1.47,0,0,0-.08-.25c0-.12-.07-.25-.09-.38a1.89,1.89,0,0,0-.05-.23c0-.12,0-.27-.06-.42s0-.13,0-.21a4.24,4.24,0,0,1,0-.62v-.26a7,7,0,0,1,5.15,6.77Z"/><path id="Tracé_47063" data-name="Tracé 47063" class="cls-1" d="M60.9,69.52v6.86H57.81V68.87a1,1,0,0,0-2.06,0v7.51h-14V68.87a1,1,0,0,0-1-1,1,1,0,0,0-1,1v7.51h-3.1V69.52c0-5.83,5.45-10.59,12.14-10.59S60.9,63.69,60.9,69.52Z"/><path id="Tracé_47064" data-name="Tracé 47064" class="cls-2" d="M48.44,36.87a3.12,3.12,0,0,1-.15.43v0c-.08.18-.18.35-.25.53s-.08.08-.1.13-.13.25-.2.37l-.11.15c-.09.12-.17.23-.25.36a.46.46,0,0,1-.1.1,2.79,2.79,0,0,1-.35.42l-.07.08c-.12.11-.23.22-.36.32s-.07.08-.12.13l-.33.25s-.07.08-.13.1-.27.18-.4.28-.05,0-.07.05l-.51.28s-.07,0-.12.05l-.4.17-.18.08a2.64,2.64,0,0,0-.4.12l-.15.05a6.39,6.39,0,0,1-1.06.2A7,7,0,0,1,48.44,36.87Z"/><path id="Tracé_47065" data-name="Tracé 47065" class="cls-2" d="M55.74,46.51a7,7,0,0,1-13.5-2.43c.15,0,.3,0,.43,0a.07.07,0,0,0,.07,0c.25,0,.5-.05.76-.1l.15,0c.25,0,.48-.1.73-.17,0,0,.07,0,.12,0a6.28,6.28,0,0,0,.73-.25h0l.7-.3.12-.08c.23-.1.43-.23.65-.35l.13-.08a7,7,0,0,0,.6-.4s.06,0,.08-.05c.18-.15.38-.3.55-.46s.05,0,.08,0l.52-.53.11-.1a4.11,4.11,0,0,0,.42-.5.27.27,0,0,1,0,.15l.08.2c.1.2.2.43.3.63a.09.09,0,0,0,0,.07,3.58,3.58,0,0,0,.37.66l.1.17c.13.2.26.38.41.58a.08.08,0,0,0,0,.05c.15.2.3.38.48.58l.12.13c.18.17.33.35.51.52,0,0,0,0,0,0a6.57,6.57,0,0,0,.57.48,1.58,1.58,0,0,0,.15.12l.61.43h0a5.38,5.38,0,0,0,.66.38l.17.1c.23.11.47.21.71.3l0,0c.23.08.48.18.73.25l.2.05A.49.49,0,0,0,55.74,46.51Z"/><path id="Tracé_47066" data-name="Tracé 47066" class="cls-2" d="M56.28,43.83v.25h0l0,0c-.07,0-.15,0-.2-.05l-.4-.15-.2-.08-.35-.15-.23-.13a1.11,1.11,0,0,1-.3-.17l-.23-.13A3.28,3.28,0,0,0,54,43l-.17-.15c-.1-.07-.2-.18-.3-.25l-.16-.13A4.12,4.12,0,0,1,53,42.1s0,0-.07-.05a3.48,3.48,0,0,1-.38-.48,1.74,1.74,0,0,0-.13-.15c-.07-.1-.15-.23-.23-.33a1.06,1.06,0,0,0-.12-.2,2,2,0,0,0-.18-.32,2.44,2.44,0,0,0-.1-.24,2.22,2.22,0,0,0-.15-.32,1.86,1.86,0,0,0-.1-.25c0-.1-.07-.23-.1-.33a1.47,1.47,0,0,0-.08-.25c0-.13-.07-.25-.1-.38a.93.93,0,0,0,0-.23c0-.12,0-.28-.06-.43s0-.12,0-.2,0-.41,0-.62v-.25A7,7,0,0,1,56.28,43.83Z"/><path id="Tracé_47067" data-name="Tracé 47067" class="cls-1" d="M56.28,43.83v.25h0l0,0c-.07,0-.15,0-.2-.05l-.4-.15-.2-.08-.35-.15-.23-.13a1.11,1.11,0,0,1-.3-.17l-.23-.13A3.28,3.28,0,0,0,54,43l-.17-.15c-.1-.07-.2-.18-.3-.25l-.16-.13A4.12,4.12,0,0,1,53,42.1s0,0-.07-.05a3.48,3.48,0,0,1-.38-.48,1.74,1.74,0,0,0-.13-.15c-.07-.1-.15-.23-.23-.33a1.06,1.06,0,0,0-.12-.2,2,2,0,0,0-.18-.32,2.44,2.44,0,0,0-.1-.24,2.22,2.22,0,0,0-.15-.32,1.86,1.86,0,0,0-.1-.25c0-.1-.07-.23-.1-.33a1.47,1.47,0,0,0-.08-.25c0-.13-.07-.25-.1-.38a.93.93,0,0,0,0-.23c0-.12,0-.28-.06-.43s0-.12,0-.2,0-.41,0-.62v-.25A7,7,0,0,1,56.28,43.83Z"/><path id="Tracé_47068" data-name="Tracé 47068" class="cls-1" d="M48.44,36.87a3.12,3.12,0,0,1-.15.43v0c-.08.18-.18.35-.25.53s-.08.08-.1.13-.13.25-.2.37l-.11.15c-.09.12-.17.23-.25.36a.46.46,0,0,1-.1.1,2.79,2.79,0,0,1-.35.42l-.07.08c-.12.11-.23.22-.36.32s-.07.08-.12.13l-.33.25s-.07.08-.13.1-.27.18-.4.28-.05,0-.07.05l-.51.28s-.07,0-.12.05l-.4.17-.18.08a2.64,2.64,0,0,0-.4.12l-.15.05a6.39,6.39,0,0,1-1.06.2A7,7,0,0,1,48.44,36.87Z"/><path id="Tracé_47069" data-name="Tracé 47069" class="cls-3" d="M48.76,56.45c-8.06,0-14.62,5.86-14.62,13.07v7.31a2,2,0,0,0,2,2H61.36a2,2,0,0,0,2-2V69.52C63.39,62.31,56.83,56.45,48.76,56.45ZM60.9,76.38H57.81V68.87a1,1,0,0,0-2.06,0v7.51h-14V68.87a1,1,0,0,0-1-1,1,1,0,0,0-1,1v7.51h-3.1V69.52c0-5.83,5.45-10.59,12.14-10.59S60.9,63.68,60.9,69.52Z"/><path id="Tracé_47070" data-name="Tracé 47070" class="cls-3" d="M51.51,34.61a.2.2,0,0,0-.11,0,9.12,9.12,0,0,0-1.18-.23H50.1l-.51,0c-.12,0-.23,0-.35,0s-.12,0-.2,0h-.12A9.55,9.55,0,0,0,40,41.47a9.12,9.12,0,0,0-.23,1.18,9.23,9.23,0,0,0-.07,1.18v.1a9.51,9.51,0,0,0,18.52,3c.1-.35.23-.73.3-1.08v0a7.8,7.8,0,0,0,.18-1.36q0-.3,0-.6A9.45,9.45,0,0,0,51.51,34.61Zm-3.07,2.26a3.12,3.12,0,0,1-.15.43v0c-.08.18-.18.35-.25.53s-.08.08-.1.13-.13.25-.2.37l-.11.15c-.09.12-.17.23-.25.36a.46.46,0,0,1-.1.1,2.79,2.79,0,0,1-.35.42l-.07.08c-.12.11-.23.22-.36.32s-.07.08-.12.13l-.33.25s-.07.08-.13.1-.27.18-.4.28-.05,0-.07.05l-.51.28s-.07,0-.12.05l-.4.17-.18.08a2.64,2.64,0,0,0-.4.12l-.15.05a6.39,6.39,0,0,1-1.06.2A7,7,0,0,1,48.44,36.87Zm.8,14a7,7,0,0,1-7-6.76l.43,0a.11.11,0,0,0,.07,0,6.59,6.59,0,0,0,.76-.1l.15,0a6.47,6.47,0,0,0,.73-.18l.12,0c.25-.07.49-.16.73-.25h0l.69-.31a.37.37,0,0,0,.12-.07c.23-.1.43-.23.66-.35l.12-.08c.2-.12.4-.25.61-.4,0,0,0,0,.07,0,.18-.15.38-.3.55-.46s0-.05.08-.05l.52-.53.11-.1a4.84,4.84,0,0,0,.42-.5.34.34,0,0,1,.06.15c0,.07,0,.12.07.2l.3.62a.11.11,0,0,0,0,.08,4.28,4.28,0,0,0,.37.66l.1.17c.13.2.26.38.41.58a.08.08,0,0,0,0,0c.15.2.3.38.48.58l.12.12.51.53s0,0,0,0a4.41,4.41,0,0,0,.58.47.64.64,0,0,0,.15.13l.6.43h0a4.28,4.28,0,0,0,.66.37,1,1,0,0,0,.17.1,4.87,4.87,0,0,0,.71.3s0,0,0,0c.23.08.48.18.73.25l.2.05a.41.41,0,0,0,.18,0A7,7,0,0,1,49.24,50.84Zm7-6.76h0l0,0c-.07,0-.15,0-.2-.05l-.4-.15-.2-.08-.35-.15-.23-.13a1.11,1.11,0,0,1-.3-.17l-.23-.13A3.28,3.28,0,0,0,54,43l-.17-.15c-.1-.07-.2-.18-.3-.25l-.16-.13A4.12,4.12,0,0,1,53,42.1s0,0-.07-.05a3.48,3.48,0,0,1-.38-.48,1.74,1.74,0,0,0-.13-.15c-.07-.1-.15-.23-.23-.33a1.06,1.06,0,0,0-.12-.2,2,2,0,0,0-.18-.32,2.44,2.44,0,0,0-.1-.24,2.22,2.22,0,0,0-.15-.32,1.86,1.86,0,0,0-.1-.25c0-.1-.07-.23-.1-.33a1.47,1.47,0,0,0-.08-.25c0-.13-.07-.25-.1-.38a.93.93,0,0,0,0-.23c0-.12,0-.28-.06-.43s0-.12,0-.2,0-.41,0-.62v-.25a7,7,0,0,1,5.16,6.76Z"/><path id="Tracé_47071" data-name="Tracé 47071" class="cls-1" d="M134.5,69.38v6.86h-3.09V68.73a1,1,0,1,0-2.06,0h0v7.51H115.4V68.73a1,1,0,0,0-2.09,0v7.51h-3.09V69.38c0-5.83,5.46-10.59,12.14-10.59S134.5,63.56,134.5,69.38Z"/><path id="Tracé_47072" data-name="Tracé 47072" class="cls-2" d="M122,36.73a3.12,3.12,0,0,1-.15.43v0c-.08.18-.18.36-.25.53s-.08.08-.11.13a2.58,2.58,0,0,1-.19.37,1.4,1.4,0,0,0-.1.16,2.88,2.88,0,0,0-.26.35.46.46,0,0,1-.1.1,3.47,3.47,0,0,1-.35.43l-.08.07a3.68,3.68,0,0,1-.35.33c0,.05-.07.07-.12.12a3.59,3.59,0,0,1-.33.25,1.31,1.31,0,0,0-.12.11c-.13.09-.28.17-.41.27s-.05,0-.07.05l-.5.28a.21.21,0,0,0-.13.05L118,41l-.18.08a2.64,2.64,0,0,0-.4.12.39.39,0,0,0-.15.06,7.62,7.62,0,0,1-1.06.2A7,7,0,0,1,122,36.73Z"/><path id="Tracé_47073" data-name="Tracé 47073" class="cls-2" d="M129.33,46.38A7,7,0,0,1,115.83,44c.15,0,.3,0,.43,0a.08.08,0,0,0,.07,0,6.32,6.32,0,0,0,.76-.11l.15,0a6.47,6.47,0,0,0,.73-.18l.12,0a6.28,6.28,0,0,0,.73-.25h0l.68-.3.12-.08c.23-.1.43-.23.65-.35a.57.57,0,0,1,.13-.08,7,7,0,0,0,.6-.4.35.35,0,0,0,.08,0c.18-.15.38-.3.55-.46s0-.05.08-.05l.52-.53.11-.1a5,5,0,0,0,.42-.5.25.25,0,0,1,0,.15l.08.2.3.63a.11.11,0,0,0,0,.07,3.58,3.58,0,0,0,.37.66l.1.17a6.87,6.87,0,0,0,.41.58.08.08,0,0,0,0,0c.15.2.3.38.48.58l.12.13c.18.17.33.35.51.52,0,0,0,0,0,0a6.28,6.28,0,0,0,.58.47.87.87,0,0,0,.15.13l.61.43h0a5.38,5.38,0,0,0,.66.38.91.91,0,0,0,.17.09,6.36,6.36,0,0,0,.71.31l0,0c.23.08.48.18.73.25l.2,0A.32.32,0,0,0,129.33,46.38Z"/><path id="Tracé_47074" data-name="Tracé 47074" class="cls-2" d="M129.88,43.69V44h0s0,0-.05,0a1.08,1.08,0,0,1-.21-.05l-.4-.15-.2-.08-.35-.15-.23-.12a1.49,1.49,0,0,1-.3-.18l-.23-.12a2.11,2.11,0,0,0-.31-.21l-.17-.15c-.1-.07-.2-.17-.3-.25a.79.79,0,0,0-.15-.12,4.19,4.19,0,0,1-.36-.38s0,0-.07-.05a3.48,3.48,0,0,1-.38-.48c-.05,0-.07-.1-.12-.15s-.15-.23-.23-.33l-.13-.2a2,2,0,0,0-.18-.32,18.58,18.58,0,0,0-.25-.56,1.3,1.3,0,0,0-.1-.25c0-.1-.07-.23-.1-.33S125,39.12,125,39s-.08-.25-.11-.37a.69.69,0,0,0,0-.24c0-.12,0-.27,0-.42s0-.13,0-.2a4.42,4.42,0,0,1,0-.63v-.25A7,7,0,0,1,129.88,43.69Z"/><path id="Tracé_47075" data-name="Tracé 47075" class="cls-1" d="M129.88,43.69V44h0s0,0-.05,0a1.08,1.08,0,0,1-.21-.05l-.4-.15-.2-.08-.35-.15-.23-.12a1.49,1.49,0,0,1-.3-.18l-.23-.12a2.11,2.11,0,0,0-.31-.21l-.17-.15c-.1-.07-.2-.17-.3-.25a.79.79,0,0,0-.15-.12,4.19,4.19,0,0,1-.36-.38s0,0-.07-.05a3.48,3.48,0,0,1-.38-.48c-.05,0-.07-.1-.12-.15s-.15-.23-.23-.33l-.13-.2a2,2,0,0,0-.18-.32,18.58,18.58,0,0,0-.25-.56,1.3,1.3,0,0,0-.1-.25c0-.1-.07-.23-.1-.33S125,39.12,125,39s-.08-.25-.11-.37a.69.69,0,0,0,0-.24c0-.12,0-.27,0-.42s0-.13,0-.2a4.42,4.42,0,0,1,0-.63v-.25A7,7,0,0,1,129.88,43.69Z"/><path id="Tracé_47076" data-name="Tracé 47076" class="cls-1" d="M122,36.73a3.12,3.12,0,0,1-.15.43v0c-.08.18-.18.36-.25.53s-.08.08-.11.13a2.58,2.58,0,0,1-.19.37,1.4,1.4,0,0,0-.1.16,2.88,2.88,0,0,0-.26.35.46.46,0,0,1-.1.1,3.47,3.47,0,0,1-.35.43l-.08.07a3.68,3.68,0,0,1-.35.33c0,.05-.07.07-.12.12a3.59,3.59,0,0,1-.33.25,1.31,1.31,0,0,0-.12.11c-.13.09-.28.17-.41.27s-.05,0-.07.05l-.5.28a.21.21,0,0,0-.13.05L118,41l-.18.08a2.64,2.64,0,0,0-.4.12.39.39,0,0,0-.15.06,7.62,7.62,0,0,1-1.06.2A7,7,0,0,1,122,36.73Z"/><path id="Tracé_47077" data-name="Tracé 47077" class="cls-3" d="M122.37,56.31c-8.07,0-14.63,5.86-14.63,13.07v7.31a2,2,0,0,0,2,2H135a2,2,0,0,0,2-2V69.37C137,62.18,130.43,56.31,122.37,56.31Zm12.14,19.93h-3.1V68.73a1,1,0,1,0-2.06,0v7.51H115.4V68.73a1,1,0,0,0-1.05-1,1,1,0,0,0-1,1v7.51h-3.1V69.38c0-5.83,5.46-10.59,12.15-10.59s12.14,4.75,12.14,10.59Z"/><path id="Tracé_47078" data-name="Tracé 47078" class="cls-3" d="M125.11,34.47a.19.19,0,0,0-.1,0,9.61,9.61,0,0,0-1.19-.23h-.12l-.5,0c-.13,0-.24,0-.36,0s-.12,0-.2,0h-.12a9.56,9.56,0,0,0-9.11,8.32,9.34,9.34,0,0,0-.07,1.18v.1a9.51,9.51,0,0,0,18.52,3c.1-.35.23-.73.3-1.08v0a7.67,7.67,0,0,0,.18-1.36,4,4,0,0,0,0-.6A9.43,9.43,0,0,0,125.11,34.47ZM122,36.73a3.12,3.12,0,0,1-.15.43v0c-.08.18-.18.36-.25.53s-.08.08-.11.13a2.58,2.58,0,0,1-.19.37,1.4,1.4,0,0,0-.1.16,2.88,2.88,0,0,0-.26.35.46.46,0,0,1-.1.1,3.47,3.47,0,0,1-.35.43l-.08.07a3.68,3.68,0,0,1-.35.33c0,.05-.07.07-.12.12a3.59,3.59,0,0,1-.33.25,1.31,1.31,0,0,0-.12.11c-.13.09-.28.17-.41.27s-.05,0-.07.05l-.5.28a.21.21,0,0,0-.13.05L118,41l-.18.08a2.64,2.64,0,0,0-.4.12.39.39,0,0,0-.15.06,7.62,7.62,0,0,1-1.06.2A7,7,0,0,1,122,36.73Zm.8,14a7,7,0,0,1-7-6.76c.15,0,.3,0,.43,0a.08.08,0,0,0,.07,0,6.32,6.32,0,0,0,.76-.11l.15,0a6.47,6.47,0,0,0,.73-.18l.12,0a6.28,6.28,0,0,0,.73-.25h0l.68-.3.12-.08c.23-.1.43-.23.65-.35a.57.57,0,0,1,.13-.08,7,7,0,0,0,.6-.4.35.35,0,0,0,.08,0c.18-.15.38-.3.55-.46s0-.05.08-.05l.52-.53.11-.1a5,5,0,0,0,.42-.5.25.25,0,0,1,0,.15l.08.2.3.63a.11.11,0,0,0,0,.07,3.58,3.58,0,0,0,.37.66l.1.17a6.87,6.87,0,0,0,.41.58.08.08,0,0,0,0,0c.15.2.3.38.48.58l.12.13c.18.17.33.35.51.52,0,0,0,0,0,0a6.28,6.28,0,0,0,.58.47.87.87,0,0,0,.15.13l.61.43h0a5.38,5.38,0,0,0,.66.38.91.91,0,0,0,.17.09,6.36,6.36,0,0,0,.71.31l0,0c.23.08.48.18.73.25l.2,0a.41.41,0,0,0,.18,0A7.06,7.06,0,0,1,122.84,50.71Zm7-6.76h0s0,0-.05,0a1.08,1.08,0,0,1-.21-.05l-.4-.15-.2-.08-.35-.15-.23-.12a1.49,1.49,0,0,1-.3-.18l-.23-.12a2.11,2.11,0,0,0-.31-.21l-.17-.15c-.1-.07-.2-.17-.3-.25a.79.79,0,0,0-.15-.12,4.19,4.19,0,0,1-.36-.38s0,0-.07-.05a3.48,3.48,0,0,1-.38-.48c-.05,0-.07-.1-.12-.15s-.15-.23-.23-.33l-.13-.2a2,2,0,0,0-.18-.32,18.58,18.58,0,0,0-.25-.56,1.3,1.3,0,0,0-.1-.25c0-.1-.07-.23-.1-.33S125,39.12,125,39s-.08-.25-.11-.37a.69.69,0,0,0,0-.24c0-.12,0-.27,0-.42s0-.13,0-.2a4.42,4.42,0,0,1,0-.63v-.25a7,7,0,0,1,5.15,6.76Z"/></svg>