<svg xmlns="http://www.w3.org/2000/svg" width="58.206" height="58.8" viewBox="0 0 58.206 58.8">
    <defs>
        <style>
            .cls-1{fill:#fff}.cls-2{fill:#702963}
        </style>
    </defs>
    <g id="logo_fabric" data-name="logo fabric" transform="rotate(-63 33.095 15.26)">
        <path id="Tracé_47199" d="M29.1 0a29.253 29.253 0 0 1 29.1 29.4 29.253 29.253 0 0 1-29.1 29.4A29.253 29.253 0 0 1 0 29.4 29.253 29.253 0 0 1 29.1 0z" class="cls-1" data-name="Tracé 47199" transform="rotate(63 33.095 15.26)"/>
        <path id="Tracé_47085" d="M1.617 6.486c-.375-.2-.748-.42-1.134-.606A.707.707 0 0 1 .1 4.845C.78 3.366 1.486 1.892 2.2.424a.648.648 0 0 1 .949-.333q.747.342 1.49.7a.711.711 0 0 1 .389 1.112c-.659 1.407-1.335 2.808-2 4.215-.058.119-.1.242-.153.364z" class="cls-2" data-name="Tracé 47085" transform="translate(22.168 29.886)"/>
        <path id="Tracé_47086" d="M6.65 1.421c-.12.286-.192.481-.278.667q-1.614 3.4-3.231 6.787c-.389.82-.62.9-1.463.506C1.281 9.2.894 9 .5 8.815a.693.693 0 0 1-.4-1.024Q1.831 4.108 3.6.445A.666.666 0 0 1 4.592.1C5.107.345 5.64.557 6.13.84a2.434 2.434 0 0 1 .52.581z" class="cls-2" data-name="Tracé 47086" transform="translate(2.137 11.931)"/>
        <path id="Tracé_47087" d="M1.421 0c.245.1.42.17.589.25Q5.535 1.923 9.057 3.6a.718.718 0 0 1 .414 1.11c-.214.487-.45.962-.678 1.443a.7.7 0 0 1-1.026.395Q4.088 4.8.415 3.039a.645.645 0 0 1-.342-.909A18.565 18.565 0 0 1 .893.439C1 .25 1.243.142 1.421 0z" class="cls-2" data-name="Tracé 47087" transform="translate(8.016 16.916)"/>
        <path id="Tracé_47088" d="M9.713 4.221c-.417.8-.765 1.527-1.193 2.21-.081.128-.526.153-.723.061-2.461-1.148-4.91-2.325-7.36-3.5a.688.688 0 0 1-.342-1.004C.326 1.468.576.956.829.445a.679.679 0 0 1 1-.348A872.696 872.696 0 0 1 9.12 3.6c.22.112.365.376.593.621z" class="cls-2" data-name="Tracé 47088" transform="translate(18.91 13.107)"/>
        <path id="Tracé_47089" d="M1.385 0c.278.1.481.156.665.242Q5.523 1.9 8.992 3.559c.645.309.742.587.445 1.226q-.279.6-.562 1.185c-.342.706-.6.809-1.307.476Q4.557 5.015 1.551 3.573C1.193 3.4.834 3.225.47 3.058a.7.7 0 0 1-.395-.99A14.372 14.372 0 0 1 .867.428C.973.242 1.218.133 1.385 0z" class="cls-2" data-name="Tracé 47089" transform="translate(11.871 27.838)"/>
        <path id="Tracé_47090" d="M6.635 1.407c-.108.281-.172.481-.259.667Q4.725 5.545 3.07 9.012c-.306.639-.59.745-1.223.453-.45-.206-.9-.414-1.337-.637-.5-.256-.631-.57-.395-1.068q1.723-3.654 3.47-7.3a.675.675 0 0 1 .987-.37c.534.245 1.073.484 1.582.776a2.231 2.231 0 0 1 .481.541z" class="cls-2" data-name="Tracé 47090" transform="translate(13.04 8.069)"/>
        <path id="Tracé_47091" d="M6.624 1.406c-.1.262-.15.445-.231.615Q4.762 5.445 3.129 8.867c-.409.851-.592.912-1.46.509C1.274 9.189.882 9 .487 8.808A.694.694 0 0 1 .1 7.78Q1.836 4.122 3.585.469a.671.671 0 0 1 .981-.38C5.1.331 5.648.561 6.157.851c.203.116.322.378.467.555z" class="cls-2" data-name="Tracé 47091" transform="translate(27.796 15.123)"/>
        <path id="Tracé_47092" d="M2.3 9.731C1.53 9.328.79 8.989.115 8.55c-.139-.089-.15-.59-.042-.82A578.995 578.995 0 0 1 3.515.483c.245-.509.545-.595 1.074-.356.484.22.956.461 1.44.684A.694.694 0 0 1 6.41 1.84Q4.671 5.519 2.9 9.183c-.1.209-.361.34-.6.548z" class="cls-2" data-name="Tracé 47092" transform="translate(16.964 18.986)"/>
        <path id="Tracé_47093" d="M9.659 4.21c-.406.781-.734 1.507-1.162 2.166-.095.145-.592.167-.817.061C5.271 5.32 2.88 4.163.483 3.02a.7.7 0 0 1-.389-1.028q.342-.78.725-1.543A.672.672 0 0 1 1.812.1C4.242 1.257 6.678 2.409 9.1 3.588c.217.112.353.383.559.622z" class="cls-2" data-name="Tracé 47093" transform="translate(15.099 2.221)"/>
        <path id="Tracé_47094" d="M5.316 5.268c-.231-.086-.392-.136-.545-.206-1.4-.665-2.808-1.329-4.21-2-.6-.289-.69-.584-.409-1.19C.366 1.4.594.944.808.48a.668.668 0 0 1 .976-.392Q4.053 1.143 6.3 2.24a.64.64 0 0 1 .35.9c-.253.573-.506 1.148-.806 1.7-.103.183-.356.291-.528.428z" class="cls-2" data-name="Tracé 47094" transform="translate(22.768 24.016)"/>
        <path id="Tracé_47095" d="M6.822 2.848c-.406.773-.734 1.5-1.165 2.158-.092.145-.587.167-.815.064C3.354 4.4 1.889 3.686.418 2.979a.648.648 0 0 1-.35-.9C.31 1.5.58.93.869.377A.674.674 0 0 1 1.847.1c1.476.7 2.95 1.39 4.41 2.116.22.11.353.384.565.632z" class="cls-2" data-name="Tracé 47095" transform="translate(7.042 7.447)"/>
        <path id="Tracé_47096" d="M1.416 0c.228.083.373.122.509.186 1.4.67 2.811 1.34 4.21 2.021.609.3.7.564.42 1.19a40.2 40.2 0 0 1-.656 1.39.7.7 0 0 1-1.037.373Q2.65 4.114.445 3.047A.675.675 0 0 1 .073 2.1 15.529 15.529 0 0 1 .9.411C1 .225 1.255.122 1.416 0z" class="cls-2" data-name="Tracé 47096" transform="translate(0 22.163)"/>
        <path id="Tracé_47097" d="M6.8 2.843c-.4.776-.74 1.513-1.168 2.2-.083.133-.553.15-.77.053C3.378 4.423 1.912 3.711.441 3a.7.7 0 0 1-.358-1C.311 1.459.575.93.842.408A.662.662 0 0 1 1.8.093C3.3.8 4.787 1.506 6.264 2.24c.206.103.331.36.536.603z" class="cls-2" data-name="Tracé 47097" transform="translate(29.819 9.249)"/>
        <path id="Tracé_47098" d="M5.23 1.422c-.089.231-.136.375-.2.512Q4.041 4.018 3.044 6.1c-.289.6-.587.7-1.193.42q-.675-.308-1.334-.641c-.5-.253-.639-.57-.406-1.067C.792 3.349 1.5 1.894 2.191.437a.667.667 0 0 1 .948-.361 14.814 14.814 0 0 1 1.637.792c.203.117.317.381.454.554z" class="cls-2" data-name="Tracé 47098" transform="translate(7.405 22.847)"/>
        <path id="Tracé_47099" d="M2.827 0c.767.406 1.5.754 2.18 1.19.136.086.15.559.05.776A178.537 178.537 0 0 1 2.98 6.342a.672.672 0 0 1-1 .345C1.47 6.442.95 6.206.442 5.953a.684.684 0 0 1-.345-1C.792 3.473 1.484 2 2.21.531c.103-.203.373-.325.617-.531z" class="cls-2" data-name="Tracé 47099" transform="translate(9.179)"/>
        <path id="Tracé_47100" d="M5.228 1.413c-.1.264-.156.428-.228.581-.651 1.371-1.3 2.744-1.958 4.112-.286.6-.573.69-1.19.409-.45-.2-.9-.411-1.337-.631-.509-.253-.637-.562-.4-1.065Q1.124 2.65 2.169.5A.69.69 0 0 1 3.24.12c.5.231 1.007.451 1.479.728a2.45 2.45 0 0 1 .509.565z" class="cls-2" data-name="Tracé 47100" transform="translate(23.94 7.154)"/>
    </g>
</svg>
