<svg xmlns="http://www.w3.org/2000/svg" width="85.624" height="124.424" viewBox="0 0 85.624 124.424">
    <defs>
        <style>
            .cls-1{fill:#636466;opacity:.5}.cls-2,.cls-3{fill:#702963}.cls-3,.cls-4{stroke:#702963;stroke-miterlimit:10}.cls-4{fill:none;stroke-width:2px}
        </style>
    </defs>
    <g id="Groupe_13254" data-name="Groupe 13254" transform="translate(-806.541 -497.922)">
        <path id="Tracé_45495" d="M908.248 531.351l.457 11.81-4.505 12.961-3.242 5.03-5.407 7.935v-59.972l5.051 4.7 3.729 5.223 2.766 6.452z" class="cls-1" data-name="Tracé 45495" transform="translate(-17.492 -2.153)"/>
        <path id="Tracé_45496" d="M842.132 500.5l-2.157.04-10.684 3.81.378 68.347 9.025 9.688 3.438 3.671z" class="cls-1" data-name="Tracé 45496" transform="translate(-4.471 -.461)"/>
        <path id="Rectangle_12678" d="M0 0h12.682v16.283H0z" class="cls-1" data-name="Rectangle 12678" transform="translate(849.352 605.307)"/>
        <path id="Tracé_44815" d="M867.68 632.05a1.394 1.394 0 0 1 1.392 1.392v12.2a1.4 1.4 0 0 1-1.392 1.392h-22.6a1.4 1.4 0 0 1-1.392-1.392v-12.2a1.394 1.394 0 0 1 1.392-1.392h22.6m0-1.358h-22.6a2.753 2.753 0 0 0-2.752 2.752v12.2a2.752 2.752 0 0 0 2.752 2.751h22.6a2.752 2.752 0 0 0 2.752-2.751v-12.2a2.752 2.752 0 0 0-2.75-2.752z" class="cls-2" data-name="Tracé 44815" transform="translate(-7.033 -26.045)"/>
        <path id="Tracé_44816" d="M872.828 625.583l-1.33-.275c.427-2.109 4.18-20.626 4.356-21.291l1.312.346c-.146.567-3.18 15.511-4.338 21.22z" class="cls-2" data-name="Tracé 44816" transform="translate(-12.766 -20.803)"/>
        <path id="Tracé_44817" d="M845.353 625.513c-1.514-7.124-4.415-20.794-4.61-21.547l1.314-.342c.253.963 4.446 20.763 4.626 21.6z" class="cls-2" data-name="Tracé 44817" transform="translate(-6.721 -20.726)"/>
        <path id="Rectangle_12679" d="M0 0h1.358v8.285H0z" class="cls-2" data-name="Rectangle 12679" transform="translate(848.668 596.362)"/>
        <path id="Tracé_44818" d="M853.3 597.04h-7.9l-.2-.247c-.145-.178-14.633-17.829-22.489-26.637a77.8 77.8 0 0 1-9.288-12.774 70.356 70.356 0 0 1-4.026-8.072 36.418 36.418 0 0 1-.63-26.632 37.076 37.076 0 0 1 16.372-19.406l.039-.025a35.471 35.471 0 0 1 7.631-3.237l.085-.022a51.534 51.534 0 0 1 6.378-1.223 84.388 84.388 0 0 1 20.174 0 51.486 51.486 0 0 1 6.388 1.225l.079.021a35.469 35.469 0 0 1 7.63 3.236l.04.025a37.083 37.083 0 0 1 16.372 19.406 36.41 36.41 0 0 1-.631 26.63 70.019 70.019 0 0 1-4.025 8.072A77.791 77.791 0 0 1 876 570.154c-7.857 8.805-22.344 26.459-22.49 26.637zm-7.263-1.358h6.621c1.8-2.185 14.958-18.175 22.322-26.43a76.458 76.458 0 0 0 9.128-12.55 68.866 68.866 0 0 0 3.947-7.915 35.446 35.446 0 0 0-15.185-44.35l-.076-.046a34.134 34.134 0 0 0-7.274-3.075l-.031-.008a50.2 50.2 0 0 0-6.231-1.2 83.036 83.036 0 0 0-19.822 0 50.16 50.16 0 0 0-6.217 1.192l-.043.011a34.068 34.068 0 0 0-7.273 3.075l-.072.041a35.445 35.445 0 0 0-15.2 44.356 68.722 68.722 0 0 0 3.947 7.915 76.461 76.461 0 0 0 9.128 12.55c7.374 8.265 20.535 24.252 22.33 26.434z" class="cls-2" data-name="Tracé 44818"/>
        <path id="Tracé_44819" d="M869.37 626.049h-26.16a.68.68 0 0 1 0-1.358h26.162a.68.68 0 0 1 .061 1.358h-.063z" class="cls-2" data-name="Tracé 44819" transform="translate(-7.079 -24.866)"/>
        <path id="Tracé_44820" d="M856.207 596.836h-4.622l-.11-.236c-.083-.178-8.268-17.835-12.707-26.646a91.488 91.488 0 0 1-5.228-12.719 98.871 98.871 0 0 1-2.261-8.027 62.161 62.161 0 0 1-.352-26.312c1.691-8.139 4.953-14.975 9.185-19.254l.022-.024a17.375 17.375 0 0 1 4.331-3.249l.055-.027a18.57 18.57 0 0 1 3.632-1.238 27.33 27.33 0 0 1 11.477 0 18.6 18.6 0 0 1 3.641 1.238l.051.025a17.375 17.375 0 0 1 4.328 3.248l.045.047c4.222 4.28 7.475 11.107 9.161 19.231a62.147 62.147 0 0 1-.352 26.312 97.595 97.595 0 0 1-2.26 8.027 91.738 91.738 0 0 1-5.228 12.719c-4.44 8.805-12.624 26.469-12.707 26.645zm-4.1-.814h3.577c.991-2.137 8.443-18.161 12.609-26.434a90.826 90.826 0 0 0 5.177-12.6 98.001 98.001 0 0 0 2.243-7.961c3.913-16.647.2-35.908-8.634-44.822l-.047-.05a16.5 16.5 0 0 0-4.085-3.057 17.864 17.864 0 0 0-3.5-1.19 26.53 26.53 0 0 0-11.11 0 17.784 17.784 0 0 0-3.48 1.18 16.525 16.525 0 0 0-4.115 3.08l-.035.037c-8.835 8.911-12.547 28.18-8.634 44.822a100.546 100.546 0 0 0 2.242 7.961 90.677 90.677 0 0 0 5.177 12.6c4.168 8.261 11.622 24.294 12.614 26.43z" class="cls-3" data-name="Tracé 44820" transform="translate(-4.549 -.066)"/>
        <path id="Ligne_1095" d="M0 0v97.081" class="cls-4" data-name="Ligne 1095" transform="translate(849.352 499.281)"/>
    </g>
</svg>
