<svg id="Calque_1" data-name="Calque 1" xmlns="http://www.w3.org/2000/svg" viewBox="0 0 111.23 142.53"><defs><style>.cls-1,.cls-2,.cls-3{fill:#00a099;}.cls-1{opacity:0.33;}.cls-2{opacity:0.66;}.cls-4{fill:none;stroke:#702963;stroke-linecap:round;stroke-miterlimit:10;stroke-width:3px;}.cls-5{fill:#702963;}.cls-6{fill:#fff;}.cls-7,.cls-8{fill:#636466;}.cls-7{opacity:0.5;}.cls-8{opacity:0.12;}.cls-9{fill:#702a64;}</style></defs><path class="cls-1" d="M99.8,79.31a7.47,7.47,0,0,1,.91,9.73.38.38,0,0,0,0,.41,7.47,7.47,0,0,1,0,8.68.38.38,0,0,0,0,.41,7.45,7.45,0,0,1,0,8.67.36.36,0,0,0,0,.41,7.45,7.45,0,0,1,1.38,4.62A7.57,7.57,0,0,1,97.16,119v6.82a1.75,1.75,0,0,1-1.75,1.75h-.8V77.22A7.41,7.41,0,0,1,99.8,79.31Z"/><path class="cls-2" d="M89.41,79.24a7.43,7.43,0,0,0-2.29,5.4A7.51,7.51,0,0,0,88.5,89a.34.34,0,0,1,0,.41,7.5,7.5,0,0,0,0,8.67.34.34,0,0,1,0,.41,7.51,7.51,0,0,0,0,8.68.35.35,0,0,1,0,.4,7.41,7.41,0,0,0-1.39,4.62,7.57,7.57,0,0,0,4.93,6.76v6.82a1.75,1.75,0,0,0,1.75,1.75h.81V77.16A7.46,7.46,0,0,0,89.41,79.24Z"/><path class="cls-3" d="M91.42,125.82v-6.4a8.12,8.12,0,0,1-3.52-12,8.11,8.11,0,0,1,0-9.08,8.13,8.13,0,0,1,0-9.09,8.11,8.11,0,1,1,13.41,0,8.08,8.08,0,0,1,0,9.09,8.06,8.06,0,0,1,0,9.08,8.06,8.06,0,0,1,1.39,4.84,8.19,8.19,0,0,1-4.93,7.16v6.4a2.36,2.36,0,0,1-2.36,2.36H93.79A2.37,2.37,0,0,1,91.42,125.82Zm2.92-48A6.88,6.88,0,0,0,89,88.7a1,1,0,0,1,0,1.11,6.89,6.89,0,0,0,0,8,1,1,0,0,1,0,1.12,6.89,6.89,0,0,0,0,8A1,1,0,0,1,89,108a6.88,6.88,0,0,0,3.25,10.45l.4.15v7.24A1.14,1.14,0,0,0,93.79,127h1.62a1.14,1.14,0,0,0,1.14-1.14v-7.24l.4-.15a7,7,0,0,0,4.53-6.21,6.76,6.76,0,0,0-1.27-4.24,1,1,0,0,1,0-1.12,6.87,6.87,0,0,0,0-8,1,1,0,0,1,0-1.12,6.89,6.89,0,0,0,0-8,1,1,0,0,1,0-1.12,6.88,6.88,0,0,0-5.61-10.86Z"/><line id="Ligne_1096" data-name="Ligne 1096" class="cls-4" x1="1.79" y1="127.83" x2="109.28" y2="127.83"/><rect id="Rectangle_12825" data-name="Rectangle 12825" class="cls-5" x="49.95" y="127.83" width="2.5" height="14.7"/><polygon class="cls-6" points="72.06 0.16 72.06 126.71 73.8 126.71 73.8 0 70.56 0 70.56 0.95 72.06 0.16"/><polygon class="cls-6" points="70.56 0.95 70.36 126.71 72.06 126.71 72.06 0.16 70.56 0.95"/><polygon class="cls-7" points="70.56 0.95 70.36 126.71 72.06 126.71 72.06 0.16 70.56 0.95"/><polygon class="cls-5" points="68.26 127.76 68.26 128.81 75.89 128.81 75.89 0.78 74.02 0 73.8 0 73.8 126.71 72.06 126.71 72.06 127.08 69.98 127.08 70.18 1.16 70.56 0.95 70.56 0 70.41 0 68.46 1.27 68.26 127.76"/><polygon class="cls-5" points="70.56 0.95 70.18 1.16 69.98 127.08 72.06 127.08 72.06 126.71 70.36 126.71 70.56 0.95"/><polygon class="cls-7" points="17.41 60.99 10.97 75.9 1.92 75.9 2.62 74.81 11.3 60.99 17.41 60.99"/><rect class="cls-7" x="47.2" y="110.92" width="6.32" height="15.82"/><rect class="cls-7" x="1.8" y="77.7" width="9.87" height="2.19"/><path class="cls-7" d="M4.35,81.71h7.32v9.35a1.68,1.68,0,0,0-.46,1.15v19.93h-.09a.51.51,0,0,0-.52.48v.55a.52.52,0,0,0,.52.49h.55v13.09H4.35Z"/><path class="cls-8" d="M48.48,103.79v.48a.7.7,0,0,1-.67.7h-13a.71.71,0,0,1-.7-.7v-.48a.53.53,0,0,0,.52.51H48A.53.53,0,0,0,48.48,103.79Z"/><path class="cls-8" d="M24.94,113.17v.49a.67.67,0,0,1-.67.66h-13a.68.68,0,0,1-.7-.66v-.49a.52.52,0,0,0,.52.49h13.3A.49.49,0,0,0,24.94,113.17Z"/><path class="cls-9" d="M42.39,120.15H44a.45.45,0,1,0,0-.89H42.39a.45.45,0,1,0,0,.89Z"/><path class="cls-5" d="M48,102.75h-.09V92.21a1.73,1.73,0,0,0-1.73-1.73H36.48a1.75,1.75,0,0,0-1.73,1.73v10.54h-.09a.52.52,0,0,0-.52.49v.55a.53.53,0,0,0,.52.51H48a.53.53,0,0,0,.52-.51v-.55A.52.52,0,0,0,48,102.75Zm-7.2,0H35.63V97.59h5.13Zm0-6.22H35.63V92.21a.85.85,0,0,1,.85-.82h4.28ZM47,102.72H41.86V97.59H47Zm0-6.22H41.86V91.39h4.28a.85.85,0,0,1,.85.82Z"/><path class="cls-5" d="M29.83,93.94s0,0,0,.07a.1.1,0,0,1,.06,0S29.83,94,29.83,93.94Z"/><path class="cls-5" d="M29.83,93.94s0,0,0,.07a.1.1,0,0,1,.06,0S29.83,94,29.83,93.94Z"/><path class="cls-5" d="M56.28,76a1.45,1.45,0,0,0-.21-.78l-10-16H10.3l-10,16a1.86,1.86,0,0,0-.06,1.76A1.64,1.64,0,0,0,0,77.7v2.18A1.82,1.82,0,0,0,1.8,81.71h.76v46.83H55.31V81.71h.55a1.8,1.8,0,0,0,1.79-1.83V77.7A1.81,1.81,0,0,0,56.28,76ZM2.62,74.81,11.3,61H45L54.4,75.9H1.92Zm29.7,51.94h-5V123a2.4,2.4,0,0,1,.06-.55h4.92a2.4,2.4,0,0,1,.06.55Zm-2.85-8a1.94,1.94,0,0,1-1.68-.55,1.89,1.89,0,0,1-.51-1.73,2,2,0,0,1,2.19,1.28Zm0-4.68a1.92,1.92,0,0,1-2.19-2.28A2,2,0,0,1,29.47,113Zm0-4.68a2,2,0,0,1-1.68-.54,1.93,1.93,0,0,1-.51-1.73,1.92,1.92,0,0,1,1.73.54,2,2,0,0,1,.46.73Zm0-4.67a2,2,0,0,1-1.68-.55,1.93,1.93,0,0,1-.51-1.73,1.94,1.94,0,0,1,1.73.54,2.09,2.09,0,0,1,.46.73Zm0-4.68a1.92,1.92,0,0,1-2.19-2.28,1.92,1.92,0,0,1,1.73.55,1.72,1.72,0,0,1,.46.73Zm0-4.68A1.92,1.92,0,0,1,27.28,93a1.92,1.92,0,0,1,1.73.55,1.9,1.9,0,0,1,.46.76Zm16.27,31.44h-9.5v-14.4h9.5Zm7.78,0H47.2V110.92H34.81v15.83h-1.4V123c0-1-.33-1.61-.88-1.61H30.16v-2.28a.89.89,0,0,0,.28,0,2.39,2.39,0,0,0,1.7-.7,2.31,2.31,0,0,0,.61-2.3l0-.12-.12,0a2.3,2.3,0,0,0-2.3.61.44.44,0,0,0-.13.15v-2.3a.89.89,0,0,0,.28,0,2.43,2.43,0,0,0,1.7-.7,2.34,2.34,0,0,0,.61-2.31l0-.12-.12-.06a2.37,2.37,0,0,0-2.3.63.57.57,0,0,0-.13.16V109.8a.89.89,0,0,0,.28,0,2.39,2.39,0,0,0,1.7-.7,2.34,2.34,0,0,0,.61-2.31l0-.12-.12-.06a2.38,2.38,0,0,0-2.3.64.44.44,0,0,0-.13.15v-2.31a.89.89,0,0,0,.28,0,2.39,2.39,0,0,0,1.7-.7,2.31,2.31,0,0,0,.61-2.3l0-.13-.12-.06a2.38,2.38,0,0,0-2.3.64.44.44,0,0,0-.13.15v-2.31a.89.89,0,0,0,.28,0,2.42,2.42,0,0,0,1.7-.69,2.34,2.34,0,0,0,.61-2.31l0-.15-.12,0a2.37,2.37,0,0,0-2.3.63.38.38,0,0,0-.13.16V95.77a.89.89,0,0,0,.28,0,2.43,2.43,0,0,0,1.7-.7,2.34,2.34,0,0,0,.61-2.31l0-.15-.12,0a2.38,2.38,0,0,0-2.3.64,1.86,1.86,0,0,0-.46.69s0,.07,0,.1a.1.1,0,0,0-.06,0s0,0,0-.07a2.07,2.07,0,0,0-.49-.69A2.43,2.43,0,0,0,27,92.61l-.13,0,0,.15a2.38,2.38,0,0,0,2.31,3,1.12,1.12,0,0,0,.31,0v2.31a.48.48,0,0,0-.13-.16A2.43,2.43,0,0,0,27,97.29l-.13,0,0,.15a2.37,2.37,0,0,0,2.31,3,1.12,1.12,0,0,0,.31,0v2.31a.58.58,0,0,0-.13-.15A2.43,2.43,0,0,0,27,102l-.13.06,0,.13a2.46,2.46,0,0,0,.61,2.3,2.43,2.43,0,0,0,1.7.7,1.12,1.12,0,0,0,.31,0v2.31a.58.58,0,0,0-.13-.15,2.43,2.43,0,0,0-2.33-.64l-.13.06,0,.12a2.48,2.48,0,0,0,.61,2.31,2.43,2.43,0,0,0,1.7.7,1.12,1.12,0,0,0,.31,0v2.31a.83.83,0,0,0-.13-.16,2.43,2.43,0,0,0-2.33-.63l-.13.06,0,.12a2.38,2.38,0,0,0,2.31,3,1.12,1.12,0,0,0,.31,0v2.3a.58.58,0,0,0-.13-.15A2.35,2.35,0,0,0,27,116l-.13,0,0,.12a2.46,2.46,0,0,0,.61,2.3,2.43,2.43,0,0,0,1.7.7,1.12,1.12,0,0,0,.31,0v2.28h-2.4c-.55,0-.85.58-.85,1.61v3.71H4.35v-45H53.52Zm-23.36-8v-1a2.14,2.14,0,0,1,.43-.73,2,2,0,0,1,1.76-.55,2,2,0,0,1-2.19,2.28Zm0-4.68v-1a2.14,2.14,0,0,1,.43-.73,2,2,0,0,1,1.76-.55A2,2,0,0,1,30.16,114Zm0-4.68v-1a2.24,2.24,0,0,1,.43-.73,2,2,0,0,1,1.76-.54,1.95,1.95,0,0,1-2.19,2.27Zm0-4.67v-1a2.34,2.34,0,0,1,.43-.73,2,2,0,0,1,1.76-.54,2,2,0,0,1-2.19,2.28Zm0-4.68V99a1.77,1.77,0,0,1,.43-.7,2,2,0,0,1,1.76-.55A2,2,0,0,1,30.16,100Zm0-4.68v-1A1.89,1.89,0,0,1,32.35,93a2,2,0,0,1-2.19,2.28Zm25.7-15.43H1.8V77.7H55.86Z"/><path class="cls-5" d="M24.42,112.14h-.09V92.21a1.73,1.73,0,0,0-1.73-1.73H12.94a1.66,1.66,0,0,0-1.27.58,1.68,1.68,0,0,0-.46,1.15v19.93h-.09a.51.51,0,0,0-.52.48v.55a.52.52,0,0,0,.52.49h13.3a.49.49,0,0,0,.52-.49v-.55A.48.48,0,0,0,24.42,112.14Zm-10.72,0H12.12v-4.92H13.7Zm2.52,0H14.46v-4.92h1.76Zm2.55,0H17v-4.92h1.76Zm2.53,0H19.53v-4.92H21.3Zm2.15,0h-1.4v-4.92h1.4Zm0-5.68H12.12V92.21a.82.82,0,0,1,.82-.82H22.6a.84.84,0,0,1,.85.82Z"/><path class="cls-9" d="M24.06,69a4.35,4.35,0,1,1,4.35,4.34A4.35,4.35,0,0,1,24.06,69Zm1.08,0a3.27,3.27,0,1,0,3.27-3.27A3.26,3.26,0,0,0,25.14,69Z"/></svg>