<svg xmlns="http://www.w3.org/2000/svg" width="434.178" height="607.669" viewBox="0 0 434.178 607.669">
    <defs>
        <style>
            .cls-1,.cls-19{opacity:.2}.cls-12,.cls-13,.cls-2{fill:none}.cls-3,.cls-8{fill:#702963}.cls-15,.cls-4,.cls-6{fill:#636466}.cls-4,.cls-9{opacity:.33}.cls-5{fill:#702a64}.cls-18,.cls-6,.cls-8{opacity:.12}.cls-14,.cls-7{fill:#fff}.cls-10,.cls-11,.cls-9{fill:#00a099}.cls-10{opacity:.66}.cls-12,.cls-13,.cls-14{stroke:#702963;stroke-width:2px}.cls-12,.cls-14{stroke-miterlimit:10}.cls-15,.cls-17{opacity:.5}.cls-16{fill:#4e4d4d;opacity:.14}.cls-17,.cls-18,.cls-19{fill:#636566}
        </style>
    </defs>
    <g id="Groupe_14723" data-name="Groupe 14723" transform="translate(66.678 -161.982)">
        <g id="Groupe_12875" data-name="Groupe 12875" transform="translate(-551 25)">
            <g id="Groupe_12779" class="cls-1" data-name="Groupe 12779" transform="translate(551 106)">
                <g id="Groupe_12762" data-name="Groupe 12762" transform="translate(216.949 393.279)">
                    <path id="Ligne_1208" d="M9.721 0H0" class="cls-2" data-name="Ligne 1208" transform="translate(1.496 1.5)"/>
                    <path id="Tracé_45431" d="M207.732 639.259h9.724a1.5 1.5 0 0 0 0-3h-9.721a1.5 1.5 0 0 0 0 3z" class="cls-3" data-name="Tracé 45431" transform="translate(-206.235 -636.259)"/>
                </g>
                <g id="Groupe_12763" data-name="Groupe 12763" transform="translate(130.201 501.712)">
                    <path id="Ligne_1209" d="M9.721 0H0" class="cls-2" data-name="Ligne 1209" transform="translate(1.5 1.496)"/>
                    <path id="Tracé_45432" d="M267.483 628.692h9.717a1.5 1.5 0 0 0 0-3h-9.721a1.5 1.5 0 0 0 0 3z" class="cls-3" data-name="Tracé 45432" transform="translate(-265.983 -625.692)"/>
                </g>
                <g id="Groupe_12764" data-name="Groupe 12764" transform="translate(103.233 458.966)">
                    <path id="Ligne_1210" d="M9.721 0H0" class="cls-2" data-name="Ligne 1210" transform="translate(1.499 1.5)"/>
                    <path id="Tracé_45433" d="M422.452 586.946h9.72a1.5 1.5 0 0 0 0-3h-9.72a1.5 1.5 0 0 0 0 3z" class="cls-3" data-name="Tracé 45433" transform="translate(-420.952 -583.946)"/>
                </g>
                <g id="Groupe_12765" data-name="Groupe 12765" transform="translate(229.228 527.334)">
                    <path id="Ligne_1211" d="M9.721 0H0" class="cls-2" data-name="Ligne 1211" transform="translate(1.499 1.5)"/>
                    <path id="Tracé_45434" d="M237.456 595.314h9.721a1.5 1.5 0 0 0 0-3h-9.721a1.5 1.5 0 1 0 0 3z" class="cls-3" data-name="Tracé 45434" transform="translate(-235.956 -592.314)"/>
                </g>
                <g id="Groupe_12766" data-name="Groupe 12766" transform="translate(23 448.971)">
                    <path id="Ligne_1212" d="M9.721 0H0" class="cls-2" data-name="Ligne 1212" transform="translate(1.499 1.5)"/>
                    <path id="Tracé_45435" d="M445.685 506.951h9.72a1.5 1.5 0 0 0 0-3h-9.72a1.5 1.5 0 0 0 0 3z" class="cls-3" data-name="Tracé 45435" transform="translate(-444.185 -503.951)"/>
                </g>
                <g id="Groupe_12767" data-name="Groupe 12767" transform="translate(70.14 473.092)">
                    <path id="Ligne_1213" d="M9.721 0H0" class="cls-2" data-name="Ligne 1213" transform="translate(1.5 1.5)"/>
                    <path id="Tracé_45436" d="M399.544 545.072h9.721a1.5 1.5 0 0 0 0-3h-9.721a1.5 1.5 0 1 0 0 3z" class="cls-3" data-name="Tracé 45436" transform="translate(-398.044 -542.072)"/>
                </g>
                <g id="Groupe_12768" data-name="Groupe 12768" transform="translate(8.86 215.847)">
                    <path id="Ligne_1214" d="M9.721 0H0" class="cls-2" data-name="Ligne 1214" transform="translate(1.5 1.5)"/>
                    <path id="Tracé_45437" d="M440.824 356.827h9.721a1.5 1.5 0 0 0 0-3h-9.721a1.5 1.5 0 0 0 0 3z" class="cls-3" data-name="Tracé 45437" transform="translate(-439.324 -353.827)"/>
                </g>
                <g id="Groupe_12769" data-name="Groupe 12769" transform="translate(159.205 293.882)">
                    <path id="Ligne_1215" d="M9.721 0H0" class="cls-2" data-name="Ligne 1215" transform="translate(1.499 1.5)"/>
                    <path id="Tracé_45438" d="M381.479 298.862h9.721a1.5 1.5 0 0 0 0-3h-9.721a1.5 1.5 0 0 0 0 3z" class="cls-3" data-name="Tracé 45438" transform="translate(-379.979 -295.862)"/>
                </g>
                <g id="Groupe_12770" data-name="Groupe 12770" transform="translate(150.791 251.962)">
                    <path id="Ligne_1216" d="M9.721 0H0" class="cls-2" data-name="Ligne 1216" transform="translate(1.5 1.5)"/>
                    <path id="Tracé_45439" d="M308.893 274.942h9.721a1.5 1.5 0 0 0 0-3h-9.721a1.5 1.5 0 1 0 0 3z" class="cls-3" data-name="Tracé 45439" transform="translate(-307.393 -271.942)"/>
                </g>
                <g id="Groupe_12771" data-name="Groupe 12771" transform="translate(106.504 215.506)">
                    <path id="Ligne_1217" d="M9.721 0H0" class="cls-2" data-name="Ligne 1217" transform="translate(1.499 1.5)"/>
                    <path id="Tracé_45440" d="M362.181 256.486h9.72a1.5 1.5 0 0 0 0-3h-9.72a1.5 1.5 0 1 0 0 3z" class="cls-3" data-name="Tracé 45440" transform="translate(-360.681 -253.486)"/>
                </g>
                <g id="Groupe_12772" data-name="Groupe 12772" transform="translate(165.87 351.15)">
                    <path id="Ligne_1218" d="M9.721 0H0" class="cls-2" data-name="Ligne 1218" transform="translate(1.497 1.5)"/>
                    <path id="Tracé_45441" d="M254.814 375.13h9.721a1.5 1.5 0 0 0 0-3h-9.721a1.5 1.5 0 0 0 0 3z" class="cls-3" data-name="Tracé 45441" transform="translate(-253.314 -372.13)"/>
                </g>
                <g id="Groupe_12773" data-name="Groupe 12773" transform="translate(152.606 420.572)">
                    <path id="Ligne_1219" d="M9.721 0H0" class="cls-2" data-name="Ligne 1219" transform="translate(1.499 1.5)"/>
                    <path id="Tracé_45442" d="M401.078 427.552h9.722a1.5 1.5 0 0 0 0-3h-9.721a1.5 1.5 0 0 0 0 3z" class="cls-3" data-name="Tracé 45442" transform="translate(-399.578 -424.552)"/>
                </g>
                <g id="Groupe_12774" data-name="Groupe 12774" transform="translate(4.837 538.686)">
                    <path id="Ligne_1220" d="M9.721 0H0" class="cls-2" data-name="Ligne 1220" transform="translate(1.5 1.5)"/>
                    <path id="Tracé_45443" d="M194.847 492.666h9.721a1.5 1.5 0 1 0 0-3h-9.721a1.5 1.5 0 1 0 0 3z" class="cls-3" data-name="Tracé 45443" transform="translate(-193.347 -489.666)"/>
                </g>
                <g id="Groupe_12775" data-name="Groupe 12775" transform="translate(98.405 337.241)">
                    <path id="Ligne_1221" d="M9.721 0H0" class="cls-2" data-name="Ligne 1221" transform="translate(1.499 1.5)"/>
                    <path id="Tracé_45444" d="M343.279 388.221H353a1.5 1.5 0 0 0 0-3h-9.721a1.5 1.5 0 0 0 0 3z" class="cls-3" data-name="Tracé 45444" transform="translate(-341.779 -385.221)"/>
                </g>
                <g id="Groupe_12776" data-name="Groupe 12776" transform="translate(109.95 390.053)">
                    <path id="Ligne_1222" d="M9.721 0H0" class="cls-2" data-name="Ligne 1222" transform="translate(1.496 1.5)"/>
                    <path id="Tracé_45445" d="M207.732 432.033h9.723a1.5 1.5 0 0 0 0-3h-9.72a1.5 1.5 0 1 0 0 3z" class="cls-3" data-name="Tracé 45445" transform="translate(-206.235 -429.033)"/>
                </g>
                <g id="Groupe_12777" data-name="Groupe 12777" transform="translate(49.683 150)">
                    <path id="Ligne_1223" d="M9.721 0H0" class="cls-2" data-name="Ligne 1223" transform="translate(1.499 1.5)"/>
                    <path id="Tracé_45446" d="M392 39.98h9.721a1.5 1.5 0 0 0 0-3H392a1.5 1.5 0 0 0 0 3z" class="cls-3" data-name="Tracé 45446" transform="translate(-390.501 -36.98)"/>
                </g>
                <g id="Groupe_12778" data-name="Groupe 12778" transform="translate(107.329 555.157)">
                    <path id="Ligne_1224" d="M9.721 0H0" class="cls-2" data-name="Ligne 1224" transform="translate(1.499 1.5)"/>
                    <path id="Tracé_45447" d="M109.355 643.137h9.721a1.5 1.5 0 0 0 0-3h-9.721a1.5 1.5 0 0 0 0 3z" class="cls-3" data-name="Tracé 45447" transform="translate(-107.855 -640.137)"/>
                </g>
                <circle id="Ellipse_2504" cx="2.067" cy="2.067" r="2.067" class="cls-3" data-name="Ellipse 2504" transform="translate(294.871 285.682)"/>
                <circle id="Ellipse_2505" cx="2.067" cy="2.067" r="2.067" class="cls-3" data-name="Ellipse 2505" transform="translate(187.161 161.185)"/>
                <circle id="Ellipse_2506" cx="2.067" cy="2.067" r="2.067" class="cls-3" data-name="Ellipse 2506" transform="translate(161.064 213.622)"/>
                <circle id="Ellipse_2507" cx="2.067" cy="2.067" r="2.067" class="cls-3" data-name="Ellipse 2507" transform="translate(17.587 248.078)"/>
                <circle id="Ellipse_2508" cx="2.067" cy="2.067" r="2.067" class="cls-3" data-name="Ellipse 2508" transform="translate(23.087 125.602)"/>
                <circle id="Ellipse_2509" cx="2.067" cy="2.067" r="2.067" class="cls-3" data-name="Ellipse 2509" transform="translate(107.146 422.144)"/>
                <circle id="Ellipse_2510" cx="2.067" cy="2.067" r="2.067" class="cls-3" data-name="Ellipse 2510" transform="translate(27.526 584.007)"/>
                <circle id="Ellipse_2511" cx="2.067" cy="2.067" r="2.067" class="cls-3" data-name="Ellipse 2511" transform="translate(54.351 411.016)"/>
                <circle id="Ellipse_2512" cx="2.067" cy="2.067" r="2.067" class="cls-3" data-name="Ellipse 2512" transform="translate(101.131 256.583)"/>
                <circle id="Ellipse_2513" cx="2.067" cy="2.067" r="2.067" class="cls-3" data-name="Ellipse 2513" transform="translate(136.35 577.767)"/>
                <circle id="Ellipse_2514" cx="2.067" cy="2.067" r="2.067" class="cls-3" data-name="Ellipse 2514" transform="translate(272.598 401.141)"/>
                <circle id="Ellipse_2515" cx="2.067" cy="2.067" r="2.067" class="cls-3" data-name="Ellipse 2515" transform="translate(280.689 479.334)"/>
                <circle id="Ellipse_2516" cx="2.067" cy="2.067" r="2.067" class="cls-3" data-name="Ellipse 2516" transform="translate(269.251 209.275)"/>
                <circle id="Ellipse_2517" cx="2.067" cy="2.067" r="2.067" class="cls-3" data-name="Ellipse 2517" transform="translate(11.221 402.324)"/>
                <circle id="Ellipse_2518" cx="2.067" cy="2.067" r="2.067" class="cls-3" data-name="Ellipse 2518" transform="translate(169.142 471.015)"/>
                <circle id="Ellipse_2519" cx="2.067" cy="2.067" r="2.067" class="cls-3" data-name="Ellipse 2519" transform="translate(41.213 347.674)"/>
                <circle id="Ellipse_2520" cx="2.067" cy="2.067" r="2.067" class="cls-3" data-name="Ellipse 2520" transform="translate(23.293 166.24)"/>
                <circle id="Ellipse_2521" cx="2.067" cy="2.067" r="2.067" class="cls-3" data-name="Ellipse 2521" transform="translate(114.666 293.756)"/>
                <circle id="Ellipse_2522" cx="2.067" cy="2.067" r="2.067" class="cls-3" data-name="Ellipse 2522" transform="translate(217.154 209.506)"/>
            </g>
        </g>
        <g id="Groupe_14722" data-name="Groupe 14722">
            <g id="Groupe_12869" data-name="Groupe 12869" transform="translate(224.305 257.605)">
                <path id="Tracé_45575" d="M387.948 296.869h7.142l8.314-13.428h-4.371z" class="cls-4" data-name="Tracé 45575" transform="translate(-382.752 -281.585)"/>
                <path id="Tracé_45576" d="M333.867 313.982a5.286 5.286 0 0 1 .086.972v5.938a.739.739 0 0 1 .629.743v.028h6.942v-7.681z" class="cls-4" data-name="Tracé 45576" transform="translate(-266.791 -281.585)"/>
                <path id="Tracé_45577" d="M396.835 342.037v4.2h.055v-4.428a.532.532 0 0 0-.055.228z" class="cls-4" data-name="Tracé 45577" transform="translate(-385.125 -281.585)"/>
                <path id="Tracé_45578" d="M396.833 302.892v42.8h5.767v-3.657a1.638 1.638 0 0 1 1.172-1.6v-37.543z" class="cls-4" data-name="Tracé 45578" transform="translate(-392.009 -281.585)"/>
                <path id="Rectangle_12869" d="M0 0h7.571v1.143H0z" class="cls-4" data-name="Rectangle 12869" transform="translate(4.196 18.284)"/>
                <path id="Tracé_45579" d="M405.661 298.726v2.286h-1.886V298.9h-69.909v2.114h-1.885v-2.286zm-64.854 46.966v.543h-.057v-.543z" class="cls-5" data-name="Tracé 45579" transform="translate(-329.042 -281.585)"/>
                <g id="Groupe_12848" data-name="Groupe 12848" transform="translate(52.905 26.483)">
                    <g id="Groupe_12847" data-name="Groupe 12847">
                        <path id="Tracé_45580" d="M340.806 322.039v.114a1.023 1.023 0 0 0 1.02 1.028h12.839a1.023 1.023 0 0 0 1.029-1.019v-.123c0-.057 0-.115-.029-.143a.77.77 0 0 1-.743.571h-13.341a.77.77 0 0 1-.743-.571c-.032.028-.032.086-.032.143z" class="cls-6" data-name="Tracé 45580" transform="translate(-340.805 -308.068)"/>
                        <g id="Groupe_12846" data-name="Groupe 12846">
                            <path id="Tracé_45581" d="M342.381 314.382h11.713a5.884 5.884 0 0 0-11.713 0z" class="cls-7" data-name="Tracé 45581" transform="translate(-340.78 -308.068)"/>
                            <path id="Rectangle_12870" d="M0 0h11.77v5.314H0z" class="cls-7" data-name="Rectangle 12870" transform="translate(1.573 7.457)"/>
                            <path id="Tracé_45582" d="M341.439 320.892v-5.942a6.8 6.8 0 0 1 13.541-.972 5.286 5.286 0 0 1 .086.972v5.942a.739.739 0 0 1 .629.743v.028h-.086a.312.312 0 0 1 .057.229.769.769 0 0 1-.743.571h-13.341a.769.769 0 0 1-.743-.571.346.346 0 0 1-.029-.171v-.086a.739.739 0 0 1 .629-.743zm6.83-11.824a5.872 5.872 0 0 0-5.857 5.314h11.711a5.89 5.89 0 0 0-5.854-5.314zm-5.885 11.771h11.77v-5.314h-11.77z" class="cls-3" data-name="Tracé 45582" transform="translate(-340.809 -308.068)"/>
                        </g>
                        <path id="Tracé_45583" d="M340.808 321.667a.312.312 0 0 1 .057.229.346.346 0 0 0 .029-.171v-.058z" class="cls-3" data-name="Tracé 45583" transform="translate(-326.008 -308.068)"/>
                    </g>
                </g>
                <g id="Groupe_12850" data-name="Groupe 12850" transform="translate(13.763 26.537)">
                    <path id="Tracé_45584" d="M379.949 322.039v.114a1.042 1.042 0 0 0 1.028 1.028h12.858a1.018 1.018 0 0 0 1-1.028v-.114a.217.217 0 0 0-.028-.143.715.715 0 0 1-.715.571h-13.37a.772.772 0 0 1-.743-.571.217.217 0 0 0-.03.143z" class="cls-6" data-name="Tracé 45584" transform="translate(-379.947 -308.122)"/>
                    <g id="Groupe_12849" data-name="Groupe 12849" transform="translate(.003)">
                        <path id="Tracé_45585" d="M381.52 314.382h11.715a5.885 5.885 0 0 0-11.714 0z" class="cls-7" data-name="Tracé 45585" transform="translate(-379.921 -308.122)"/>
                        <path id="Rectangle_12871" d="M0 0h11.77v5.314H0z" class="cls-7" data-name="Rectangle 12871" transform="translate(1.572 7.403)"/>
                        <path id="Tracé_45586" d="M380.577 320.892v-5.942a6.828 6.828 0 1 1 13.656 0v5.942a.715.715 0 0 1 .6.743v.086a.372.372 0 0 1-.028.171.715.715 0 0 1-.715.571h-13.37a.772.772 0 0 1-.743-.571.372.372 0 0 1-.028-.171v-.086a.739.739 0 0 1 .628-.743zm6.828-11.828a5.872 5.872 0 0 0-5.857 5.314h11.714a5.871 5.871 0 0 0-5.857-5.31zm-5.885 11.771h11.77v-5.314h-11.77z" class="cls-3" data-name="Tracé 45586" transform="translate(-379.948 -308.122)"/>
                    </g>
                </g>
                <g id="Groupe_12852" data-name="Groupe 12852" transform="translate(41.559 57.546)">
                    <g id="Groupe_12851" data-name="Groupe 12851">
                        <path id="Ligne_1237" d="M1.688 0H0" class="cls-2" data-name="Ligne 1237"/>
                    </g>
                </g>
                <path id="Tracé_45587" d="M331.431 298.726h1.8l-.2.229h72.083l-.2-.229h1.8a.028.028 0 0 1 .029.027v1.63a1.772 1.772 0 0 1-.571.372 2.529 2.529 0 0 1-.458.057h-73.279a1.523 1.523 0 0 1-1.029-.429v-1.628z" class="cls-5" data-name="Tracé 45587" transform="translate(-329.549 -281.585)"/>
                <g id="Groupe_12853" data-name="Groupe 12853" transform="translate(1.853 17.141)">
                    <path id="Tracé_45588" d="M331.41 298.755v2.257h75.337v-2.257a.028.028 0 0 0-.027-.029h-75.281z" class="cls-7" data-name="Tracé 45588" transform="translate(-331.41 -298.726)"/>
                </g>
                <g id="Plante-2">
                    <path id="Tracé_45589" d="M379.52 329.038c.028.029.057.086.085.114l.115-.114-.115.057z" class="cls-3" data-name="Tracé 45589" transform="translate(-350.64 -281.585)"/>
                    <path id="Tracé_45590" d="M382.948 336.723v.629a2.06 2.06 0 0 0 .028-.4v-.06a.375.375 0 0 0-.028-.169z" class="cls-3" data-name="Tracé 45590" transform="translate(-357.325 -281.585)"/>
                    <path id="Tracé_45591" d="M392.491 329.924l.029.057c.028 0 .057-.029.085-.029z" class="cls-3" data-name="Tracé 45591" transform="translate(-376.496 -281.585)"/>
                    <path id="Tracé_45592" d="M392.6 329.809l.114.114-.057-.143z" class="cls-3" data-name="Tracé 45592" transform="translate(-376.724 -281.585)"/>
                    <path id="Tracé_45593" d="M351.066 328.524l.029.028c.057.029.086.058.143.058l.028-.029-.057-.029z" class="cls-3" data-name="Tracé 45593" transform="translate(-293.732 -281.585)"/>
                    <path id="Tracé_45594" d="M354.323 334.692v.085a.95.95 0 0 0 .029.286v-.743a1.718 1.718 0 0 0-.029.372z" class="cls-3" data-name="Tracé 45594" transform="translate(-300.074 -281.585)"/>
                    <path id="Tracé_45595" d="M361.121 323.867c.028 0 .028.029.028.057.029-.028.058-.028.086-.057z" class="cls-3" data-name="Tracé 45595" transform="translate(-313.756 -281.585)"/>
                    <path id="Tracé_45596" d="M365.294 314.292c.029 0 .029.029.057.029a.372.372 0 0 1-.028-.171.259.259 0 0 0-.029.142z" class="cls-3" data-name="Tracé 45596" transform="translate(-322.044 -281.585)"/>
                    <g id="Groupe_12856" data-name="Groupe 12856" transform="translate(15.881 48.196)">
                        <g id="Groupe_12855" data-name="Groupe 12855">
                            <g id="Groupe_12854" data-name="Groupe 12854">
                                <path id="Tracé_45597" d="M392.719 329.952c-.028 0-.057.029-.085.029l-.029-.057zm-.171-.171l.057.143-.114-.115z" class="cls-3" data-name="Tracé 45597" transform="translate(-392.491 -329.781)"/>
                            </g>
                        </g>
                    </g>
                    <g id="Groupe_12859" data-name="Groupe 12859">
                        <g id="Groupe_12858" data-name="Groupe 12858">
                            <g id="Groupe_12857" data-name="Groupe 12857">
                                <path id="Tracé_45598" d="M382.4 336.838v.114a.536.536 0 0 1-.029.228v-.514a.35.35 0 0 1 .029.172z" class="cls-3" data-name="Tracé 45598" transform="translate(-356.181 -281.585)"/>
                                <path id="Tracé_45599" d="M382.4 336.838v.114a.536.536 0 0 1-.029.228v-.514a.35.35 0 0 1 .029.172z" class="cls-3" data-name="Tracé 45599" transform="translate(-356.181 -281.585)"/>
                                <path id="Tracé_45600" d="M331.431 296.869h.883l12.63-15.284H393.2l12.628 15.284h.889a1.866 1.866 0 0 1 1.886 1.846v2.3a1.883 1.883 0 0 1-1.886 1.88h-.542v44.654h-73.68v-44.657h-1.057a1.9 1.9 0 0 1-1.886-1.885v-2.257a1.884 1.884 0 0 1 1.879-1.881zm60.909-13.427h-46.51l-11.085 13.427H403.4zm-11.74 62.25h16.916v-3.657c0-.286-.2-.543-.4-.543H381c-.228 0-.4.257-.4.543zm9.716-8.54a.95.95 0 0 0-.029-.286 1.453 1.453 0 0 0-.485-.971 1.541 1.541 0 0 0-1.457-.429 1.71 1.71 0 0 0 .457 1.457 1.75 1.75 0 0 0 1.485.429.414.414 0 0 0 .027-.2zm-6.485-2.086a1.839 1.839 0 0 0 1.685-.543 1.907 1.907 0 0 0 .486-1.685 1.863 1.863 0 0 0-2.171 1.485 1.721 1.721 0 0 0-.029.372v.085a.982.982 0 0 0 .027.286zm-19.115 10.626h9.884v-10a4.943 4.943 0 0 0-9.885-.14v.14zm-23.455.543h.055v-.543H359.8v-3.657a.533.533 0 0 0-.486-.543h-17.57a.571.571 0 0 0-.485.543zm14.484-9.057a.536.536 0 0 0 .029-.228 1.931 1.931 0 0 0 .057.4 2.34 2.34 0 0 0 2.685-2.8 2.384 2.384 0 0 0-2.085.686 2.3 2.3 0 0 0-.657 1.6.35.35 0 0 0-.029-.172zm-21.37 8.514h5.771v-3.657a1.638 1.638 0 0 1 1.172-1.6 2.214 2.214 0 0 1 .428-.057h13.428v-2.426c-.143 0-.286.028-.429.028a3.011 3.011 0 0 1-2.085-.828 2.916 2.916 0 0 1-.8-2.8l.057-.143.143-.057a2.94 2.94 0 0 1 2.828.714 3.023 3.023 0 0 1 .286.343v-3.571L351 332.866a3.816 3.816 0 0 1-1.143.172 4 4 0 0 1-3.057-1.486l-1.228-1.571c.028 0 .057-.029.085-.029l-.114-.028-.057-.143-.057.028.114.115.029.057a2.476 2.476 0 0 1-.658.086 2.864 2.864 0 0 1-2.085-.8 2.9 2.9 0 0 1-.771-2.8l.028-.171.143-.029a2.923 2.923 0 0 1 2.828.686 2.286 2.286 0 0 1 .572.828 2.849 2.849 0 0 1 .571-.828 2.916 2.916 0 0 1 2.8-.8l.171.028.029.172a2.879 2.879 0 0 1-2.743 3.685h-.143l.943 1.171a3.341 3.341 0 0 0 3.571 1.115l4.457-1.314.086-.029 2.714-2.2c-.057-.029-.086-.086-.114-.114a2.136 2.136 0 0 1-.658-1.572 2.256 2.256 0 0 1 1.115-1.942l.114-.057.114.057a2.255 2.255 0 0 1 1.114 1.942.563.563 0 0 1-.057.315 8.438 8.438 0 0 0 2.714-4.029l2.486-7.856a.709.709 0 0 1-.229.029 2.334 2.334 0 0 1-1.628-.629 2.284 2.284 0 0 1-.629-2.143l.029-.114.114-.029a2.3 2.3 0 0 1 2.2.515 1.85 1.85 0 0 1 .457.6 2.162 2.162 0 0 1 .4-.629 2.217 2.217 0 0 1 2.143-.628l.143.028.028.114a2.232 2.232 0 0 1-.514 2.172 2.3 2.3 0 0 1-1.571.714 1.365 1.365 0 0 1-.343-.029l-2.543 8.028a9.155 9.155 0 0 1-2.743 4.229.264.264 0 0 1 .143-.029 2.258 2.258 0 0 1 1.943 1.114l.057.114-.057.115a2.233 2.233 0 0 1-3.051.813 2.2 2.2 0 0 1-.463-.356 1.851 1.851 0 0 1-.286-.372l.115-.114-.115.057-.085-.057c.028.029.057.086.085.114l-2.771 2.229v3.8a3.124 3.124 0 0 1 .286-.342 2.983 2.983 0 0 1 2.8-.8l.142.057.058.143a2.941 2.941 0 0 1-.715 2.828 2.83 2.83 0 0 1-2.057.886 1.593 1.593 0 0 1-.514-.057v2.485h3.571a1.628 1.628 0 0 1 1.6 1.656v3.654h2.314v-10a6.443 6.443 0 0 1 12.885-.16v10.16h3.371v-3.657a1.6 1.6 0 0 1 1.517-1.656h2.257v-4.857a.943.943 0 0 1-.285.029 2.277 2.277 0 0 1-1.658-.629 2.425 2.425 0 0 1-.628-2.257l.028-.114.143-.028a2.283 2.283 0 0 1 2.229.542 1.3 1.3 0 0 1 .171.2v-1.428l-2.543-2.571a19.485 19.485 0 0 1-3.771-5.343c.029-.028.058-.028.086-.057h-.114c.028 0 .028.029.028.057a2.116 2.116 0 0 1-.457.172 2.195 2.195 0 0 1-1.685-.257 2.258 2.258 0 0 1-1.114-1.943v-.114l.114-.057a2.218 2.218 0 0 1 2.228 0c.029.028.057.028.086.057-.029-.029-.029-.029-.029-.057l-.628-1.915a6.547 6.547 0 0 0-1.057-2.028l-1.543-1.971a2.994 2.994 0 0 1-.571-1.229 2.222 2.222 0 0 1-.429-.057 2.311 2.311 0 0 1-1.343-1.086 2.224 2.224 0 0 1 .057-2.228l.058-.114h.142a2.262 2.262 0 0 1 1.915 1.171.465.465 0 0 1 .085.257c.029-.057.086-.085.115-.143l3.629-4.488c-.086-.029-.143-.057-.229-.086a2.223 2.223 0 0 1-1.228-3.314l.057-.114h.143a2.213 2.213 0 0 1 1.885 1.2 2.636 2.636 0 0 1 .229.771 2.114 2.114 0 0 1 .6-.514 2.274 2.274 0 0 1 2.257.086l.086.086v.114a2.213 2.213 0 0 1-1.2 1.885 2.175 2.175 0 0 1-1.686.172.549.549 0 0 1-.286-.143l-3.628 4.457a2.289 2.289 0 0 1 2.228.057l.115.085v.115a2.226 2.226 0 0 1-1.172 1.914 2.172 2.172 0 0 1-1.685.171h-.057a2.649 2.649 0 0 0 .343.629l1.542 1.971a7.113 7.113 0 0 1 1.172 2.2l.628 1.914a1.405 1.405 0 0 0 .114.314 1.833 1.833 0 0 1 .143-.342 2.255 2.255 0 0 1 1.943-1.115h.114l.086.115a2.291 2.291 0 0 1-.029 2.228 2.253 2.253 0 0 1-1.371 1.028c-.028 0-.086.029-.114.029a18.558 18.558 0 0 0 3.6 5.057l2.429 2.457 2.857-2.857c-.029 0-.057-.029-.086-.029a2.34 2.34 0 0 1-1.316-1.085 2.272 2.272 0 0 1 .086-2.257l.085-.086h.115a2.212 2.212 0 0 1 1.885 1.2 1.85 1.85 0 0 1 .229.771 2.179 2.179 0 0 1 2.857-.428l.114.057-.029.143a2.277 2.277 0 0 1-1.171 1.885 2.25 2.25 0 0 1-1.714.143 1.011 1.011 0 0 1-.4-.171l.028-.029-.057-.029-.143-.028.029.028c.057.029.086.058.143.058l-3.228 3.228v1.459a1.587 1.587 0 0 1 .171-.229 2.3 2.3 0 0 1 2.228-.628l.143.028.029.115a2.347 2.347 0 0 1-.572 2.257 2.373 2.373 0 0 1-1.628.714.841.841 0 0 1-.371-.057v4.885h6.342v-2.625c-.057 0-.143.028-.2.028a2.043 2.043 0 0 1-2-2.514l.029-.114.114-.029a2.008 2.008 0 0 1 1.971.486 1.589 1.589 0 0 1 .4.572 1.7 1.7 0 0 1 .4-.6 2.013 2.013 0 0 1 1.943-.543l.114.028.029.114a1.969 1.969 0 0 1-.514 1.943 1.936 1.936 0 0 1-1.4.629 1.071 1.071 0 0 1-.314-.029v2.657h6.371a1.6 1.6 0 0 1 1.514 1.657v3.655h5.657v-42.8h-69.909zm20.825-8.742v-.058a.374.374 0 0 0-.028-.172 2.258 2.258 0 0 0-.686-1.457 2.291 2.291 0 0 0-2.114-.6 2.385 2.385 0 0 0 .686 2.086 2.288 2.288 0 0 0 2.114.6 2.111 2.111 0 0 0 .028-.4zm-9.2-7.514a2.343 2.343 0 0 0 2.086-.657 2.431 2.431 0 0 0 .628-2.114 2.4 2.4 0 0 0-2.114.657 2.363 2.363 0 0 0-.657 1.628v.115a2.04 2.04 0 0 0 .058.373zm-.629-.4v-.028a2.18 2.18 0 0 0-.685-1.629 2.427 2.427 0 0 0-2.114-.628 2.314 2.314 0 0 0 .657 2.085 2.428 2.428 0 0 0 2.114.629 2.26 2.26 0 0 0 .029-.427zm13.743-1.083a.029.029 0 0 1 .027-.029 2.091 2.091 0 0 0 .2-.829.958.958 0 1 0-1.6 0 1.72 1.72 0 0 0 .686 1.4zm-.228 1a1.828 1.828 0 0 0 1.485.8.958.958 0 1 0 0-1.6 1.556 1.556 0 0 0-.828.2 4.11 4.11 0 0 0-.372.258c0 .028-.028.028-.057.057a2.484 2.484 0 0 0-.228.284zM365 315.069a1.85 1.85 0 0 0 .029-.4 1.77 1.77 0 0 0-.571-1.2 1.888 1.888 0 0 0-1.629-.457 1.833 1.833 0 0 0 .543 1.6 1.731 1.731 0 0 0 1.628.456zm.458-.372v.086a.986.986 0 0 0 .028.286 1.913 1.913 0 0 0 1.629-.543 1.787 1.787 0 0 0 .428-1.628 1.728 1.728 0 0 0-1.6.542 1.875 1.875 0 0 0-.485 1.252zm17.8 20.37v-.885a1.857 1.857 0 0 0-.485-.772 1.813 1.813 0 0 0-1.686-.485 1.968 1.968 0 0 0 .543 1.657 1.768 1.768 0 0 0 1.626.484zm-5.914-11.656a1.848 1.848 0 0 0 1.286-.857.963.963 0 1 0-1.371-.828 2.132 2.132 0 0 0-.257.857v.028c.113.256.226.513.34.8zm-.657.143a1.43 1.43 0 0 0-.057-.343v-.029c0-.028 0-.028-.028-.057a1.012 1.012 0 0 0-.172-.4 1.886 1.886 0 0 0-.628-.628 1.845 1.845 0 0 0-1.686-.057 1.8 1.8 0 0 0 .886 1.428 1.771 1.771 0 0 0 1.683.085zM372.8 314.3c.029 0 .029.029.057.029a1.726 1.726 0 0 0 1.628-.029 1.881 1.881 0 0 0 .915-1.428 1.85 1.85 0 0 0-1.686.029 1.718 1.718 0 0 0-.885 1.228v.029a.251.251 0 0 0-.031.137zm-.314-1.228v-.029a1.96 1.96 0 0 0-.2-.571 1.785 1.785 0 0 0-1.4-.914 1.693 1.693 0 0 0 .028 1.685 1.883 1.883 0 0 0 1.343.915 2.747 2.747 0 0 1 .227-1.087zm4.256-5.6a3.051 3.051 0 0 0 .143-.314 1.908 1.908 0 0 0-.114-1.371 1.865 1.865 0 0 0-1.4-.943 1.766 1.766 0 0 0 1.371 2.628zm.486.143a1.8 1.8 0 0 0 2.657-1.371 1.819 1.819 0 0 0-1.714 0 1.9 1.9 0 0 0-.857.914.255.255 0 0 1-.029.143 1.238 1.238 0 0 0-.059.313zm9.569 20.48a1.4 1.4 0 0 0 .114-.314 1.764 1.764 0 0 0-.114-1.371 1.848 1.848 0 0 0-1.4-.971 1.819 1.819 0 0 0 0 1.714 1.768 1.768 0 0 0 1.403.939zm.457.143a1.762 1.762 0 0 0 1.685 0 1.8 1.8 0 0 0 .972-1.4 1.85 1.85 0 0 0-1.686 0 1.948 1.948 0 0 0-.885 1.029c-.027.117-.057.228-.086.374zm3.485 9.085a1.594 1.594 0 0 0 1.857-1.942 1.673 1.673 0 0 0-1.457.485 1.622 1.622 0 0 0-.4 1.46zM331.4 301.009h75.337v-2.257a.028.028 0 0 0-.027-.029h-75.279l-.029.029z" class="cls-3" data-name="Tracé 45600" transform="translate(-329.549 -281.585)"/>
                                <path id="Tracé_45601" d="M364.893 339.123a.5.5 0 0 0 .485.486h1.686a.476.476 0 0 0 .457-.486.451.451 0 0 0-.445-.457h-1.7a.476.476 0 0 0-.483.457z" class="cls-3" data-name="Tracé 45601" transform="translate(-323.814 -281.585)"/>
                            </g>
                        </g>
                    </g>
                    <g id="Groupe_12862" data-name="Groupe 12862" transform="translate(57.334 46.939)">
                        <g id="Groupe_12861" data-name="Groupe 12861">
                            <g id="Groupe_12860" data-name="Groupe 12860">
                                <path id="Tracé_45602" d="M351.209 328.552l.057.029-.028.029c-.057 0-.086-.029-.143-.058l-.029-.028z" class="cls-3" data-name="Tracé 45602" transform="translate(-351.066 -328.524)"/>
                            </g>
                        </g>
                    </g>
                    <g id="Groupe_12865" data-name="Groupe 12865" transform="translate(47.364 42.282)">
                        <g id="Groupe_12864" data-name="Groupe 12864">
                            <g id="Groupe_12863" data-name="Groupe 12863">
                                <path id="Tracé_45603" d="M361.236 323.867c-.028.029-.057.029-.086.057 0-.028 0-.057-.028-.057z" class="cls-3" data-name="Tracé 45603" transform="translate(-361.122 -323.867)"/>
                            </g>
                        </g>
                    </g>
                    <g id="Groupe_12868" data-name="Groupe 12868" transform="translate(28.88 47.45)">
                        <g id="Groupe_12867" data-name="Groupe 12867">
                            <g id="Groupe_12866" data-name="Groupe 12866">
                                <path id="Tracé_45604" d="M379.6 329.092l.115-.057-.115.114c-.028-.028-.057-.085-.085-.114z" class="cls-3" data-name="Tracé 45604" transform="translate(-379.52 -329.035)"/>
                            </g>
                        </g>
                    </g>
                </g>
                <g id="Lucarne_haut" data-name="Lucarne haut" transform="translate(32.337 5.114)">
                    <path id="Tracé_45605" d="M370.121 286.7a6.131 6.131 0 0 1 6.142 6.122v.477h-12.284v-.457a6.132 6.132 0 0 1 6.121-6.142zm0 .914a5.242 5.242 0 0 0-5.2 4.742h10.4a5.239 5.239 0 0 0-5.2-4.743z" class="cls-3" data-name="Tracé 45605" transform="translate(-363.979 -286.699)"/>
                    <path id="Rectangle_12872" d="M0 0h11.371v.6H0z" class="cls-8" data-name="Rectangle 12872" transform="translate(.456 6.599)"/>
                </g>
            </g>
            <g id="Groupe_14688" data-name="Groupe 14688">
                <g id="Groupe_12780" data-name="Groupe 12780" transform="translate(37.577 204.235)">
                    <path id="Tracé_45448" d="M321.592 325.13a11.22 11.22 0 0 1-8.3 10.808v8.69a2.327 2.327 0 0 1-2.324 2.324h-.567v-33.007a11.2 11.2 0 0 1 11.191 11.185z" class="cls-9" data-name="Tracé 45448" transform="translate(-298.483 -313.215)"/>
                    <path id="Tracé_45449" d="M299.22 325.13a11.22 11.22 0 0 0 8.3 10.808v8.69a2.325 2.325 0 0 0 2.323 2.323h.568v-33.006a11.2 11.2 0 0 0-11.191 11.185z" class="cls-10" data-name="Tracé 45449" transform="translate(-298.483 -313.215)"/>
                    <path id="Tracé_45450" d="M306.781 344.628v-8.136a11.919 11.919 0 1 1 7.249 0v8.141a3.06 3.06 0 0 1-3.057 3.057h-1.138a3.061 3.061 0 0 1-3.054-3.062zm-6.827-19.5a10.462 10.462 0 0 0 7.75 10.1l.544.144v9.254a1.591 1.591 0 0 0 1.59 1.59h1.135a1.592 1.592 0 0 0 1.591-1.59v-9.254l.544-.144a10.453 10.453 0 1 0-13.154-10.1z" class="cls-11" data-name="Tracé 45450" transform="translate(-298.483 -313.215)"/>
                </g>
                <g id="Groupe_13403" data-name="Groupe 13403" transform="translate(196.345 751.831)">
                    <g id="Groupe_13259" data-name="Groupe 13259" transform="translate(.567 .565)">
                        <path id="Tracé_44881" d="M410.125 223.043a9.456 9.456 0 0 1 18.9-.674l.018-.011v6.525h-16.989a9.779 9.779 0 0 1-1.929-5.84z" class="cls-10" data-name="Tracé 44881" transform="translate(-410.125 -213.37)"/>
                        <path id="Tracé_44882" d="M432.4 221.357a5.8 5.8 0 0 1 5.932 5.68 5.462 5.462 0 0 1-.352 1.846h-8.935v-6.525a6.02 6.02 0 0 1 3.355-1.001z" class="cls-9" data-name="Tracé 44882" transform="translate(-410.125 -213.37)"/>
                    </g>
                    <path id="Tracé_44883" d="M411.636 229.224a10.134 10.134 0 0 1-2.078-6.185 10.223 10.223 0 0 1 20.321-1.6 6.183 6.183 0 0 1 2.765-.642 6.166 6.166 0 0 1 5.88 8.271l-.13.385h-26.588zm26.124-2.193a5.116 5.116 0 0 0-5.116-5.105 5.013 5.013 0 0 0-2.882.893l-.835.836-.082-1.25a9.087 9.087 0 1 0-16.47 5.908h25.194a4.78 4.78 0 0 0 .191-1.282z" class="cls-11" data-name="Tracé 44883" transform="translate(-409.558 -212.805)"/>
                </g>
                <g id="Groupe_13404" data-name="Groupe 13404" transform="translate(132.182 455.543)">
                    <path id="Tracé_44884" d="M264.151 513.217a7.488 7.488 0 0 1 .912 9.733.356.356 0 0 0 0 .411 7.49 7.49 0 0 1 0 8.676.356.356 0 0 0 0 .411 7.489 7.489 0 0 1 0 8.675.35.35 0 0 0 0 .4 7.427 7.427 0 0 1 1.384 4.619 7.573 7.573 0 0 1-4.928 6.762v6.818a1.754 1.754 0 0 1-1.752 1.752h-.8v-50.342a7.412 7.412 0 0 1 5.184 2.085z" class="cls-9" data-name="Tracé 44884" transform="translate(-250.858 -510.516)"/>
                    <path id="Tracé_44885" d="M253.764 513.151a7.491 7.491 0 0 0-.912 9.733.353.353 0 0 1 0 .411 7.495 7.495 0 0 0 0 8.676.353.353 0 0 1 0 .411 7.493 7.493 0 0 0 0 8.675.349.349 0 0 1 .006.4 7.421 7.421 0 0 0-1.384 4.619 7.573 7.573 0 0 0 4.928 6.762v6.818a1.754 1.754 0 0 0 1.752 1.752h.8v-50.342a7.413 7.413 0 0 0-5.19 2.085z" class="cls-10" data-name="Tracé 44885" transform="translate(-250.858 -510.516)"/>
                    <path id="Tracé_44886" d="M255.774 559.73v-6.4a8.133 8.133 0 0 1-4.916-7.449 8.043 8.043 0 0 1 1.394-4.543 8.1 8.1 0 0 1 0-9.086 8.1 8.1 0 0 1 0-9.087 8.018 8.018 0 0 1-1.388-4.84 8.1 8.1 0 0 1 13.711-5.539 8.1 8.1 0 0 1 1.089 10.379 8.106 8.106 0 0 1 0 9.087 8.1 8.1 0 0 1 0 9.086 8.039 8.039 0 0 1 1.388 4.84 8.189 8.189 0 0 1-4.928 7.153v6.4a2.365 2.365 0 0 1-2.362 2.363h-1.625a2.366 2.366 0 0 1-2.363-2.364zm2.916-47.987a6.9 6.9 0 0 0-6.606 6.621 6.816 6.816 0 0 0 1.271 4.243.96.96 0 0 1-.006 1.113 6.879 6.879 0 0 0 0 7.968.971.971 0 0 1 0 1.119 6.877 6.877 0 0 0 0 7.968.97.97 0 0 1 0 1.118 6.83 6.83 0 0 0-1.271 3.983 6.9 6.9 0 0 0 4.516 6.461l.4.147v7.246a1.143 1.143 0 0 0 1.141 1.142h1.625a1.143 1.143 0 0 0 1.141-1.142v-7.244l.4-.146a6.958 6.958 0 0 0 4.529-6.211 6.822 6.822 0 0 0-1.271-4.243.96.96 0 0 1 .005-1.113 6.881 6.881 0 0 0 0-7.966.964.964 0 0 1 0-1.12 6.882 6.882 0 0 0 0-7.968.964.964 0 0 1 0-1.119 6.879 6.879 0 0 0-5.6-10.862c-.091 0-.182.002-.274.005z" class="cls-11" data-name="Tracé 44886" transform="translate(-250.858 -510.516)"/>
                </g>
                <g id="Groupe_12761" data-name="Groupe 12761" transform="translate(192.231 277.793)">
                    <path id="Tracé_45428" d="M216.86 531.564a7.282 7.282 0 0 1 1.345 8.673 3.2 3.2 0 0 0 .79 3.933 11.147 11.147 0 0 1-3.841 19.137v6.953a2.251 2.251 0 0 1-2.247 2.247h-1.119v-42.992a7.217 7.217 0 0 1 5.072 2.049z" class="cls-9" data-name="Tracé 45428" transform="translate(-199.9 -528.773)"/>
                    <path id="Tracé_45429" d="M206.716 531.56a7.284 7.284 0 0 0-1.346 8.673 3.2 3.2 0 0 1-.789 3.933 11.147 11.147 0 0 0 3.841 19.137v6.953a2.249 2.249 0 0 0 2.246 2.247h1.12V529.51a7.222 7.222 0 0 0-5.072 2.05z" class="cls-10" data-name="Tracé 45429" transform="translate(-199.9 -528.773)"/>
                    <path id="Tracé_45430" d="M207.688 570.26v-6.424a11.886 11.886 0 0 1-3.53-20.269 2.471 2.471 0 0 0 .519-3.072 8.017 8.017 0 1 1 14.174.089 2.467 2.467 0 0 0 .618 3.026 11.88 11.88 0 0 1-3.582 20.22v6.43a2.984 2.984 0 0 1-2.98 2.98h-2.238a2.984 2.984 0 0 1-2.981-2.98zm3.9-40.017a6.551 6.551 0 0 0-5.609 9.574 3.928 3.928 0 0 1-.878 4.874 10.418 10.418 0 0 0 3.542 17.921l.513.162v7.486a1.515 1.515 0 0 0 1.514 1.513h2.238a1.515 1.515 0 0 0 1.513-1.513v-7.489l.511-.163a10.414 10.414 0 0 0 3.59-17.879 3.937 3.937 0 0 1-.962-4.839 6.552 6.552 0 0 0-5.769-9.65h-.2z" class="cls-11" data-name="Tracé 45430" transform="translate(-199.9 -528.773)"/>
                </g>
                <g id="Groupe_13364" data-name="Groupe 13364" transform="translate(0 26.931)">
                    <path id="Tracé_45331" d="M-.933 211.469h58.666a31.005 31.005 0 0 1 31.005 31.005v22.048a31 31 0 0 0 31 31h225.995" class="cls-12" data-name="Tracé 45331"/>
                    <path id="Tracé_45333" d="M0 0h367.5" class="cls-13" data-name="Tracé 45333" transform="translate(0 479.715)"/>
                    <path id="Tracé_45332" d="M0 609.908h231.067A28.938 28.938 0 0 0 260 580.971v-75.727s8.329-18.6 18.6-18.6h19.981a18.6 18.6 0 0 0 18.6-18.6V164.571" class="cls-12" data-name="Tracé 45332" transform="translate(0 131.431)"/>
                </g>
                <circle id="Ellipse_2525" cx="5.01" cy="5.01" r="5.01" class="cls-14" data-name="Ellipse 2525" transform="translate(312.095 316.998)"/>
                <circle id="Ellipse_2526" cx="5.01" cy="5.01" r="5.01" class="cls-14" data-name="Ellipse 2526" transform="translate(312.191 501.425)"/>
            </g>
            <g id="Groupe_13367" data-name="Groupe 13367" transform="translate(17.21 410.525)">
                <path id="Rectangle_12694" d="M0 0h5.301v11.059H0z" class="cls-15" data-name="Rectangle 12694" transform="translate(38.943 63.471)"/>
                <path id="Rectangle_12695" d="M0 0h6.356v93.556H0z" class="cls-15" data-name="Rectangle 12695" transform="translate(3.884 1.195)"/>
                <path id="Mur" d="M333.765 230.2h60.742v-95.186h-60.742zm59.035-1.806h-57.328V136.82H392.8z" class="cls-3" transform="translate(-331.243 -134.499)"/>
                <g id="Fenêtre_droite" data-name="Fenêtre droite" transform="translate(9.245 62.045)">
                    <rect id="Rectangle_12696" width="13.612" height="1.97" class="cls-6" data-name="Rectangle 12696" rx=".256" transform="translate(0 11.783)"/>
                    <path id="Tracé_44899" d="M374.74 209.02h12.476V198.2a1.654 1.654 0 0 0-1.652-1.652h-9.172a1.654 1.654 0 0 0-1.652 1.652zm11.623-.853h-10.77V198.2a.8.8 0 0 1 .8-.8h9.172a.8.8 0 0 1 .8.8z" class="cls-5" data-name="Tracé 44899" transform="translate(-374.172 -196.544)"/>
                    <rect id="Rectangle_12697" width="13.612" height="1.463" class="cls-3" data-name="Rectangle 12697" rx=".19" transform="translate(0 11.654)"/>
                </g>
                <g id="Fenêtre_centre" data-name="Fenêtre centre" transform="translate(26.325 62.045)">
                    <rect id="Rectangle_12698" width="13.612" height="1.97" class="cls-6" data-name="Rectangle 12698" rx=".256" transform="translate(0 11.783)"/>
                    <g id="Groupe_13272" data-name="Groupe 13272" transform="translate(.568)">
                        <path id="Tracé_44900" d="M357.66 209.02h12.476V198.2a1.654 1.654 0 0 0-1.651-1.652h-9.173a1.654 1.654 0 0 0-1.652 1.652zm11.623-.853h-10.769V198.2a.8.8 0 0 1 .8-.8h9.173a.8.8 0 0 1 .8.8z" class="cls-5" data-name="Tracé 44900" transform="translate(-357.66 -196.544)"/>
                    </g>
                    <rect id="Rectangle_12699" width="13.612" height="1.463" class="cls-3" data-name="Rectangle 12699" rx=".19" transform="translate(0 11.654)"/>
                </g>
                <g id="Fenêtre_gauche" data-name="Fenêtre gauche" transform="translate(43.405 62.045)">
                    <rect id="Rectangle_12700" width="13.612" height="1.97" class="cls-6" data-name="Rectangle 12700" rx=".256" transform="translate(0 11.783)"/>
                    <g id="Groupe_13273" data-name="Groupe 13273" transform="translate(.568)">
                        <path id="Rectangle_12701" d="M1.512 0h8.6a1.512 1.512 0 0 1 1.512 1.512v10.111H0V1.512A1.512 1.512 0 0 1 1.512 0z" class="cls-7" data-name="Rectangle 12701" transform="translate(.427 .427)"/>
                        <path id="Tracé_44901" d="M340.58 209.02h12.476V198.2a1.654 1.654 0 0 0-1.651-1.652h-9.173a1.654 1.654 0 0 0-1.652 1.652zm11.623-.853h-10.769V198.2a.8.8 0 0 1 .8-.8h9.166a.8.8 0 0 1 .8.8z" class="cls-5" data-name="Tracé 44901" transform="translate(-340.58 -196.544)"/>
                    </g>
                    <rect id="Rectangle_12702" width="13.612" height="1.463" class="cls-3" data-name="Rectangle 12702" rx=".19" transform="translate(0 11.654)"/>
                </g>
                <g id="Centre" transform="translate(.475 53.786)">
                    <path id="Rectangle_12703" d="M0 0h57.328v.964H0z" class="cls-16" data-name="Rectangle 12703" transform="translate(3.754 1.306)"/>
                    <path id="Tracé_44902" d="M332.811 189.988h62.651a.878.878 0 1 0 0-1.7h-62.651a.878.878 0 1 0 0 1.7z" class="cls-5" data-name="Tracé 44902" transform="translate(-331.718 -188.285)"/>
                </g>
                <g id="Fenêtre_haut" data-name="Fenêtre haut" transform="translate(7.824 13.144)">
                    <g id="Groupe_13274" data-name="Groupe 13274" transform="translate(11.189)">
                        <path id="Tracé_44903" d="M349.48 181.348h28.536v-19.437a14.268 14.268 0 1 0-28.536 0zm27.512-1.024H350.5v-18.413a13.244 13.244 0 0 1 26.488 0z" class="cls-5" data-name="Tracé 44903" transform="translate(-349.48 -147.643)"/>
                        <path id="Rectangle_12704" d="M0 0h27.254v.705H0z" class="cls-5" data-name="Rectangle 12704" transform="translate(.771 14.754)"/>
                        <path id="Rectangle_12705" d="M0 0h.683v18.087H0z" class="cls-3" data-name="Rectangle 12705" transform="translate(18.926 15.107)"/>
                        <path id="Rectangle_12706" d="M0 0h.683v18.087H0z" class="cls-3" data-name="Rectangle 12706" transform="translate(8.781 15.107)"/>
                        <path id="Rectangle_12707" d="M0 0h27.87v.683H0z" class="cls-3" data-name="Rectangle 12707" transform="translate(.44 23.809)"/>
                        <path id="Rectangle_12708" d="M0 0h24.809v.683H0z" class="cls-3" data-name="Rectangle 12708" transform="translate(1.864 7.974)"/>
                    </g>
                    <path id="Tracé_44904" d="M338.671 181.348h7.787v-25.469a3.894 3.894 0 0 0-7.787 0zm6.762-1.024H339.7v-24.445a2.868 2.868 0 1 1 5.737 0z" class="cls-5" data-name="Tracé 44904" transform="translate(-295.924 -147.643)"/>
                    <g id="Groupe_13275" data-name="Groupe 13275" transform="translate(0 4.343)">
                        <path id="Rectangle_12709" d="M.879 0h5a.879.879 0 0 1 .879.879v27.459H0V.879A.879.879 0 0 1 .879 0z" class="cls-7" data-name="Rectangle 12709" transform="translate(.512 .512)"/>
                        <path id="Tracé_44905" d="M381.419 181.348h7.786v-25.469a3.893 3.893 0 1 0-7.786 0zm6.762-1.024h-5.738v-24.445a2.869 2.869 0 1 1 5.738 0z" class="cls-5" data-name="Tracé 44905" transform="translate(-381.419 -151.986)"/>
                    </g>
                </g>
                <g id="Entrée" transform="translate(3.146 80.724)">
                    <path id="Tracé_44906" d="M355.19 229.923h17.477v-10.337a4.368 4.368 0 0 0-4.363-4.363h-8.751a4.368 4.368 0 0 0-4.363 4.363zm16.111-1.365h-14.745v-8.972a3 3 0 0 1 3-3h8.744a3 3 0 0 1 3 3z" class="cls-5" data-name="Tracé 44906" transform="translate(-333.974 -215.223)"/>
                    <path id="Rectangle_12710" d="M0 0h1.024v13.353H0z" class="cls-5" data-name="Rectangle 12710" transform="translate(29.443 .674)"/>
                    <g id="Groupe_13278" data-name="Groupe 13278" transform="translate(0 4.079)">
                        <g id="Groupe_13276" data-name="Groupe 13276" transform="translate(37.498)">
                            <path id="Rectangle_12711" d="M0 0h21.831v1.195H0z" class="cls-5" data-name="Rectangle 12711"/>
                        </g>
                        <g id="Groupe_13277" data-name="Groupe 13277">
                            <path id="Rectangle_12712" d="M0 0h21.387v1.195H0z" class="cls-5" data-name="Rectangle 12712"/>
                        </g>
                    </g>
                    <g id="Groupe_13281" data-name="Groupe 13281" transform="translate(0 8.003)">
                        <g id="Groupe_13279" data-name="Groupe 13279" transform="translate(37.498)">
                            <path id="Rectangle_12713" d="M0 0h21.831v1.195H0z" class="cls-5" data-name="Rectangle 12713"/>
                        </g>
                        <g id="Groupe_13280" data-name="Groupe 13280">
                            <path id="Rectangle_12714" d="M0 0h21.387v1.195H0z" class="cls-5" data-name="Rectangle 12714"/>
                        </g>
                    </g>
                </g>
                <g id="Toit">
                    <path id="Ombre_toit" d="M0 0h57.328v.964H0z" class="cls-16" data-name="Ombre toit" transform="translate(4.229 2.215)"/>
                    <path id="Tracé_44907" d="M331.509 145.723h64.837a.683.683 0 1 0 0-1.365h-64.837a.683.683 0 0 0 0 1.365z" class="cls-3" data-name="Tracé 44907" transform="translate(-330.827 -134.499)"/>
                    <g id="Groupe_13284" data-name="Groupe 13284" transform="translate(.475)">
                        <path id="Tracé_44908" d="M364.136 142.9a2.184 2.184 0 1 0-2.184-2.184 2.187 2.187 0 0 0 2.184 2.184zm0-3.685a1.5 1.5 0 1 1-1.5 1.5 1.5 1.5 0 0 1 1.5-1.505z" class="cls-3" data-name="Tracé 44908" transform="translate(-331.718 -134.499)"/>
                        <g id="Groupe_13282" data-name="Groupe 13282" transform="translate(7.087 5.87)">
                            <path id="Tracé_44909" d="M369.643 141.052h7.37a.341.341 0 0 0 0-.683h-7.37a.341.341 0 0 0 0 .683z" class="cls-3" data-name="Tracé 44909" transform="translate(-357.189 -140.369)"/>
                            <path id="Tracé_44910" d="M381.756 141.052h7.37a.341.341 0 0 0 0-.683h-7.37a.341.341 0 0 0 0 .683z" class="cls-3" data-name="Tracé 44910" transform="translate(-381.415 -140.369)"/>
                        </g>
                        <g id="Groupe_13283" data-name="Groupe 13283" transform="translate(37.584 5.87)">
                            <path id="Tracé_44911" d="M339.146 141.052h7.37a.341.341 0 0 0 0-.683h-7.37a.341.341 0 0 0 0 .683z" class="cls-3" data-name="Tracé 44911" transform="translate(-326.692 -140.369)"/>
                            <path id="Tracé_44912" d="M351.259 141.052h7.369a.341.341 0 1 0 0-.683h-7.369a.341.341 0 1 0 0 .683z" class="cls-3" data-name="Tracé 44912" transform="translate(-350.917 -140.369)"/>
                        </g>
                        <path id="Tracé_44913" d="M332.811 136.888h62.651a1.2 1.2 0 0 0 0-2.389h-62.651a1.2 1.2 0 0 0 0 2.389z" class="cls-5" data-name="Tracé 44913" transform="translate(-331.718 -134.499)"/>
                    </g>
                </g>
            </g>
            <g id="Groupe_13401" data-name="Groupe 13401" transform="translate(112.157 717.608)">
                <path id="Tracé_45385" d="M587.778 448.836h-7.524l-7.3-13.306h3.9l10.318 12.476.028.055z" class="cls-17" data-name="Tracé 45385" transform="translate(-522.907 -428.974)"/>
                <path id="Tracé_45386" d="M564.061 462.879v.47a.437.437 0 0 0 .443.443h.277v6.224h-6.75V444.7l-2.742-.775v-3.068l2.742-.3h6.75v11.749a1.189 1.189 0 0 0-.193.692v9.406h-.088a.461.461 0 0 0-.439.475z" class="cls-17" data-name="Tracé 45386" transform="translate(-554.102 -420.084)"/>
                <path id="Tracé_45387" d="M582.451 440.67h3.192v3.14l-3.192.011v26.006h-6.971V463.6h.5a.437.437 0 0 0 .443-.443v-.47a.461.461 0 0 0-.443-.47h-.08v-9.406a1.544 1.544 0 0 0-.415-1.024V440.67z" class="cls-17" data-name="Tracé 45387" transform="translate(-518.438 -419.895)"/>
                <g id="Groupe_13391" data-name="Groupe 13391">
                    <path id="Tracé_45388" d="M621.584 453.078a1.319 1.319 0 0 0-.3-.8l-11.7-14.164h-2.352V435.4a2.249 2.249 0 0 0-2.241-2.241H601.5a2.249 2.249 0 0 0-2.241 2.241v2.711h-31.176l-11.7 14.164a1.32 1.32 0 0 0-.3.8 1.573 1.573 0 0 0-1.217 1.549v1.936a1.618 1.618 0 0 0 1.632 1.632h.692v26.5h63.294V458.2h.692a1.618 1.618 0 0 0 1.632-1.632v-1.936a1.573 1.573 0 0 0-1.224-1.554zm-20.72-17.678a.644.644 0 0 1 .636-.636h3.486a.644.644 0 0 1 .636.636v2.711h-4.758zm-32.006 4.315H608.8l10.318 12.476.028.055.636.775h-61.907zm24.233 43.376h-8.52v-8.8a4.26 4.26 0 0 1 8.52 0zm25.782 0h-24.51v-8.8a5.533 5.533 0 0 0-11.065 0v8.8h-24.51V458.2h60.085zm2.324-26.529c0 .028 0 .028-.028.028h-64.677c-.028 0-.028 0-.028-.028v-1.936H621.2z" class="cls-3" data-name="Tracé 45388" transform="translate(-554.86 -433.16)"/>
                </g>
                <g id="Groupe_13399" data-name="Groupe 13399" transform="translate(9.959 31.37)">
                    <g id="Groupe_13398" data-name="Groupe 13398">
                        <g id="Groupe_13395" data-name="Groupe 13395">
                            <g id="Groupe_13393" data-name="Groupe 13393">
                                <path id="Tracé_45389" d="M571.241 448.8v.443a.575.575 0 0 1-.609.581h-11.563a.591.591 0 0 1-.609-.581v-.443a.437.437 0 0 0 .443.443h11.9a.437.437 0 0 0 .438-.443z" class="cls-18" data-name="Tracé 45389" transform="translate(-558.46 -436.905)"/>
                                <g id="Groupe_13392" data-name="Groupe 13392">
                                    <path id="Tracé_45390" d="M570.8 455.455h-.083v-9.406a1.565 1.565 0 0 0-1.549-1.549h-8.631a1.546 1.546 0 0 0-1.356.858 1.189 1.189 0 0 0-.193.692v9.406h-.088a.461.461 0 0 0-.443.47v.47a.437.437 0 0 0 .443.443h11.9a.437.437 0 0 0 .443-.443v-.47a.461.461 0 0 0-.443-.471zm-11.01-9.406a.782.782 0 0 1 .747-.747h4.011v4.592h-4.758zm10.125 9.378h-10.127v-4.565h10.125zm0-5.533h-4.4V445.3h3.651a.762.762 0 0 1 .747.747z" class="cls-3" data-name="Tracé 45390" transform="translate(-558.46 -444.5)"/>
                                </g>
                            </g>
                            <g id="Groupe_13394" data-name="Groupe 13394" transform="translate(35.243)">
                                <path id="Tracé_45391" d="M583.981 448.8v.443a.591.591 0 0 1-.609.581h-11.563a.574.574 0 0 1-.609-.581v-.443a.437.437 0 0 0 .443.443h11.9a.437.437 0 0 0 .438-.443z" class="cls-18" data-name="Tracé 45391" transform="translate(-571.2 -436.905)"/>
                                <path id="Tracé_45392" d="M583.538 455.455h-.083v-9.406a1.544 1.544 0 0 0-.415-1.024 1.474 1.474 0 0 0-1.134-.526h-8.631a1.565 1.565 0 0 0-1.549 1.549v9.406h-.083a.461.461 0 0 0-.443.47v.47a.437.437 0 0 0 .443.443h11.9a.437.437 0 0 0 .443-.443v-.47a.461.461 0 0 0-.448-.469zm-11.01-9.406a.762.762 0 0 1 .747-.747h4.011v4.592h-4.758zm10.125 9.378h-10.125v-4.565h10.125zm0-5.533h-4.426V445.3h3.679a.782.782 0 0 1 .747.747z" class="cls-3" data-name="Tracé 45392" transform="translate(-571.2 -444.5)"/>
                            </g>
                        </g>
                        <g id="Groupe_13397" data-name="Groupe 13397" transform="translate(20.648 13.331)">
                            <g id="Groupe_13396" data-name="Groupe 13396">
                                <path id="Tracé_45393" d="M567.775 450.121h-1.45a.4.4 0 0 1 0-.8h1.45a.4.4 0 0 1 0 .8z" class="cls-5" data-name="Tracé 45393" transform="translate(-565.924 -449.319)"/>
                            </g>
                        </g>
                    </g>
                </g>
                <g id="Groupe_13400" data-name="Groupe 13400" transform="translate(30.092 8.429)">
                    <path id="Tracé_45394" d="M573.495 443.964h-7.757v-3.878a3.878 3.878 0 0 1 7.757 0zM566.7 443h5.831v-2.916a2.916 2.916 0 1 0-5.831 0z" class="cls-5" data-name="Tracé 45394" transform="translate(-565.738 -436.207)"/>
                </g>
            </g>
            <g id="Groupe_13365" data-name="Groupe 13365" transform="translate(-66.678 161.982)">
                <g id="Groupe_13306" data-name="Groupe 13306">
                    <path id="Tracé_45255" d="M239.316 338.453h13.016l5.611-15.348h-9.224z" class="cls-15" data-name="Tracé 45255" transform="translate(-200.472 -315.956)"/>
                    <path id="Tracé_45256" d="M205.032 369.328v21.5h2.332V378.3a4.254 4.254 0 0 1 .923-2.665v-6.3z" class="cls-15" data-name="Tracé 45256" transform="translate(-200.472 -315.956)"/>
                    <path id="Tracé_45257" d="M283.951 378.066a6.674 6.674 0 0 1 .077 1.025v11.735h6.508v-12.76z" class="cls-15" data-name="Tracé 45257" transform="translate(-200.472 -315.956)"/>
                    <path id="Tracé_45258" d="M239.905 344.551v46.275h9.865v-3.818a1.712 1.712 0 0 1 .564-1.281v-9.276h-.667a.445.445 0 0 1-.435-.41v-.768a.427.427 0 0 1 .435-.41h.18v-20.5a1.764 1.764 0 0 1 .487-1.229v-8.584z" class="cls-15" data-name="Tracé 45258" transform="translate(-200.472 -315.956)"/>
                    <path id="Rectangle_12748" d="M0 0h12.965v2.255H0z" class="cls-15" data-name="Rectangle 12748" transform="translate(36.896 24.495)"/>
                    <g id="Groupe_13302" data-name="Groupe 13302" transform="translate(69.796 49.221)">
                        <path id="Tracé_45263" d="M270.268 366.382v.538a.5.5 0 0 0 .333.486.025.025 0 0 0 .026.026.476.476 0 0 0 .2.051h13.631a.568.568 0 0 0 .564-.563v-.538a.385.385 0 0 1-.282.384c-.025.026-.077.026-.128.026H270.6a.412.412 0 0 1-.332-.41z" class="cls-6" data-name="Tracé 45263" transform="translate(-270.268 -365.177)"/>
                        <g id="Groupe_13301" data-name="Groupe 13301" transform="translate(1.871)">
                            <path id="Tracé_45264" d="M284.284 365.2v.128h.128v-.128zm-12.145-.026v.026h6.38v-.026z" class="cls-5" data-name="Tracé 45264" transform="translate(-272.139 -365.177)"/>
                        </g>
                        <path id="Rectangle_12753" d="M0 0h.128v.128H0z" class="cls-3" data-name="Rectangle 12753" transform="translate(14.016 .026)"/>
                    </g>
                    <g id="Groupe_13303" data-name="Groupe 13303" transform="translate(48.76 60.085)">
                        <path id="Tracé_45265" d="M249.232 376.041v.539a.568.568 0 0 0 .564.563h13.656a.547.547 0 0 0 .539-.563v-.539a.422.422 0 0 1-.41.41h-13.914a.445.445 0 0 1-.435-.41z" class="cls-6" data-name="Tracé 45265" transform="translate(-249.232 -376.041)"/>
                    </g>
                    <g id="Groupe_13305" data-name="Groupe 13305" transform="translate(78.147 68.161)">
                        <g id="Groupe_13304" data-name="Groupe 13304">
                            <path id="Tracé_45266" d="M279.081 385.043h1.674a.463.463 0 0 0 0-.926h-1.674a.463.463 0 0 0 0 .926z" class="cls-5" data-name="Tracé 45266" transform="translate(-278.619 -384.117)"/>
                        </g>
                    </g>
                    <path id="Tracé_45267" d="M200.472 364.972v2.228a1.859 1.859 0 0 0 1.844 1.871h.872V392.7h89.193v-48.149h.666a1.859 1.859 0 0 0 1.87-1.845v-2.255a1.886 1.886 0 0 0-1.05-1.665 1.923 1.923 0 0 0-.256-1.076l-10.07-16.476h-2.793v-2.69a2.6 2.6 0 0 0-2.614-2.588h-4a2.6 2.6 0 0 0-2.613 2.588v2.69h-23.8l-10.1 16.476a1.987 1.987 0 0 0-.231.871h-.026a1.859 1.859 0 0 0-1.844 1.87v2.255a1.837 1.837 0 0 0 1.844 1.845h.667V363.1h-35.715a1.859 1.859 0 0 0-1.844 1.872zm78.428-43.738h-5.509v-2.69a.743.743 0 0 1 .743-.743h4a.749.749 0 0 1 .769.743zm13.042 17.219h-52.626l9.4-15.348h33.822zm-54.577 4.253v-2.255h55.7v2.255h-55.7zm35.386 36.385a4.894 4.894 0 1 1 9.787 0v11.735h-9.787zm-21.882 7.917c0-.308.179-.538.333-.538h14.963c.154 0 .334.23.334.538v3.818h-15.63zm-10.967-42.457h50.631v46.275h-6.508v-11.735a6.674 6.674 0 0 0-.077-1.025 6.383 6.383 0 0 0-12.683 1.025v11.735H267.6v-3.818a1.552 1.552 0 0 0-1.435-1.64h-14.96a1.218 1.218 0 0 0-.871.359 1.712 1.712 0 0 0-.564 1.281v3.818h-9.865zM209.235 378.3a2.542 2.542 0 0 1 2.536-2.536h18.3a2.564 2.564 0 0 1 2.562 2.536v12.53h-23.398zm-4.2-8.968h33v21.5h-3.562V378.3a4.4 4.4 0 0 0-4.407-4.381h-18.3a4.332 4.332 0 0 0-3.484 1.716 4.254 4.254 0 0 0-.923 2.665v12.53h-2.332zm-2.716-4.381h35.719v2.28h-35.722v-2.28z" class="cls-3" data-name="Tracé 45267" transform="translate(-200.472 -315.956)"/>
                    <path id="Tracé_45268" d="M270.268 365.613v.769a.412.412 0 0 0 .333.41h14.016c.051 0 .1 0 .128-.026a.385.385 0 0 0 .282-.384v-.769a.386.386 0 0 0-.282-.385.2.2 0 0 0-.128-.025h-.205v.128h-.128v-.131h.128v-5.868a7.864 7.864 0 0 0-.128-1.358 6.277 6.277 0 0 0-.461-1.383 6.863 6.863 0 0 0-1.538-2.178 3.025 3.025 0 0 0-.307-.282c0-.026 0-.026-.026-.026a7.054 7.054 0 0 0-.9-.615 6.711 6.711 0 0 0-6.79 0 6.147 6.147 0 0 0-1.229.923h-.026a6.339 6.339 0 0 0-.871 1.025 5.963 5.963 0 0 0-.923 1.793 7.069 7.069 0 0 0-.333 2.1v5.869h-.2a.4.4 0 0 0-.412.413zm13.2-6.841h-11.637a6.022 6.022 0 0 1 .308-1.384 5.876 5.876 0 0 1 3.228-3.434 5.871 5.871 0 0 1 4.561 0 5.469 5.469 0 0 1 .846.462 5.769 5.769 0 0 1 2.69 4.356zm-11.658 1.1h11.68v5.3h-4.971v.026h-6.38v-.026h-.333z" class="cls-3" data-name="Tracé 45268" transform="translate(-200.472 -315.956)"/>
                    <path id="Tracé_45269" d="M249.232 375.273v.768a.445.445 0 0 0 .435.41h13.914a.422.422 0 0 0 .41-.41v-.768a.4.4 0 0 0-.41-.41h-.2v-20.5a1.777 1.777 0 0 0-1.768-1.793h-9.973a1.792 1.792 0 0 0-1.793 1.793v20.5h-.18a.427.427 0 0 0-.435.41zm13.221-6.252H250.8v-14.657a.859.859 0 0 1 .845-.871h9.968a.859.859 0 0 1 .845.871zm-1.409.794h1.409v5.048h-1.409zm-2.614 0h1.82v5.048h-1.82zm-2.613 0h1.819v5.048h-1.819zm-2.614 0h1.82v5.048H253.2zm-2.408 0h1.64v5.048H250.8z" class="cls-3" data-name="Tracé 45269" transform="translate(-200.472 -315.956)"/>
                </g>
                <g id="Lucarne_haut-2" data-name="Lucarne haut" transform="translate(58.01 11.914)">
                    <path id="Tracé_45270" d="M258.482 333.969v.461h12.17v-.461a6.085 6.085 0 1 0-12.17 0zm11.222-.461H259.43a5.156 5.156 0 0 1 10.274 0z" class="cls-3" data-name="Tracé 45270" transform="translate(-258.482 -327.87)"/>
                    <path id="Rectangle_12754" d="M0 0h11.248v.589H0z" class="cls-6" data-name="Rectangle 12754" transform="translate(.461 6.56)"/>
                </g>
            </g>
            <g id="Groupe_13405" data-name="Groupe 13405" transform="translate(120.022 252.821)">
                <g id="Groupe_13318" data-name="Groupe 13318">
                    <path id="Tracé_45271" d="M49.486 325.587l6.438 14.913h9.051l-.7-1.093-8.685-13.82z" class="cls-15" data-name="Tracé 45271" transform="translate(-9.243 -323.795)"/>
                    <path id="Rectangle_12755" d="M0 0h6.317v15.824H0z" class="cls-15" data-name="Rectangle 12755" transform="translate(4.131 51.722)"/>
                    <path id="Rectangle_12756" d="M0 0h9.871v2.187H0z" class="cls-15" data-name="Rectangle 12756" transform="translate(45.982 18.496)"/>
                    <path id="Tracé_45272" d="M59.235 346.3h-7.32v9.354a1.711 1.711 0 0 1 .456 1.154v19.924h.091a.506.506 0 0 1 .516.486v.546a.506.506 0 0 1-.516.486h-.547v13.09h7.32z" class="cls-15" data-name="Tracé 45272" transform="translate(-5.933 -323.795)"/>
                    <g id="Groupe_13309" data-name="Groupe 13309" transform="translate(9.172 44.585)">
                        <g id="Groupe_13308" data-name="Groupe 13308">
                            <path id="Tracé_45273" d="M81.709 368.38v.486a.7.7 0 0 0 .668.7h12.969a.707.707 0 0 0 .7-.7v-.486a.533.533 0 0 1-.517.516h-13.3a.532.532 0 0 1-.52-.516z" class="cls-6" data-name="Tracé 45273" transform="translate(-81.709 -368.38)"/>
                        </g>
                    </g>
                    <g id="Groupe_13310" data-name="Groupe 13310" transform="translate(32.71 53.969)">
                        <path id="Tracé_45274" d="M58.172 377.764v.486a.675.675 0 0 0 .668.669h12.969a.681.681 0 0 0 .7-.669v-.486a.506.506 0 0 1-.516.486h-13.3a.487.487 0 0 1-.521-.486z" class="cls-6" data-name="Tracé 45274" transform="translate(-58.172 -377.764)"/>
                    </g>
                    <g id="Groupe_13312" data-name="Groupe 13312" transform="translate(13.19 60.056)">
                        <g id="Groupe_13311" data-name="Groupe 13311">
                            <path id="Tracé_45275" d="M91.578 384.749h-1.624a.449.449 0 1 1 0-.9h1.624a.449.449 0 1 1 0 .9z" class="cls-5" data-name="Tracé 45275" transform="translate(-89.504 -383.851)"/>
                        </g>
                    </g>
                    <path id="Tracé_45276" d="M82.226 367.347h.091v-10.539a1.73 1.73 0 0 1 1.731-1.731h9.658a1.75 1.75 0 0 1 1.731 1.731v10.539h.091a.507.507 0 0 1 .517.486v.547a.533.533 0 0 1-.517.516h-13.3a.532.532 0 0 1-.517-.516v-.547a.507.507 0 0 1 .515-.486zm7.2-.03h5.132v-5.133h-5.134zm0-6.226h5.132v-4.283a.843.843 0 0 0-.85-.82h-4.284zm-6.226 6.226h5.13v-5.133H83.2zm0-6.226h5.13v-5.1h-4.282a.843.843 0 0 0-.85.82z" class="cls-3" data-name="Tracé 45276" transform="translate(-72.537 -323.795)"/>
                    <g id="Groupe_13317" data-name="Groupe 13317">
                        <g id="Groupe_13316" data-name="Groupe 13316">
                            <g id="Groupe_13315" data-name="Groupe 13315">
                                <g id="Groupe_13313" data-name="Groupe 13313" transform="translate(27.79 34.744)">
                                    <path id="Tracé_45277" d="M77.4 358.539c.031.031.031.031.031.061a.1.1 0 0 0-.061.031c-.004-.031.03-.061.03-.092z" class="cls-3" data-name="Tracé 45277" transform="translate(-77.366 -358.539)"/>
                                    <path id="Tracé_45278" d="M77.4 358.539c.031.031.031.031.031.061a.1.1 0 0 0-.061.031c-.004-.031.03-.061.03-.092z" class="cls-3" data-name="Tracé 45278" transform="translate(-77.366 -358.539)"/>
                                </g>
                                <g id="Groupe_13314" data-name="Groupe 13314">
                                    <path id="Tracé_45279" d="M48.934 340.56a1.47 1.47 0 0 1 .213-.79L59.2 323.8h35.716l10.053 15.975a1.9 1.9 0 0 1 .061 1.761 1.656 1.656 0 0 1 .182.76v2.186a1.822 1.822 0 0 1-1.792 1.823h-.759v46.832H49.906V346.3h-.547a1.8 1.8 0 0 1-1.792-1.823v-2.186a1.787 1.787 0 0 1 1.367-1.731zm53.666-1.16l-8.686-13.818H60.2L50.817 340.5H103.3zm-29.7 51.94h5.041v-3.7a2.3 2.3 0 0 0-.06-.547h-4.92a2.234 2.234 0 0 0-.061.547zm2.855-8.048a1.921 1.921 0 0 0 1.67-.547 1.884 1.884 0 0 0 .516-1.731 1.93 1.93 0 0 0-1.731.547 1.842 1.842 0 0 0-.455.729zm0-4.677a1.921 1.921 0 0 0 2.186-2.278 1.927 1.927 0 0 0-1.731.547 1.842 1.842 0 0 0-.455.729zm0-4.677a1.921 1.921 0 0 0 2.186-2.278 1.929 1.929 0 0 0-1.731.546 1.856 1.856 0 0 0-.455.729zm0-4.677a1.921 1.921 0 0 0 2.186-2.278 1.929 1.929 0 0 0-1.731.546 1.856 1.856 0 0 0-.455.729zm0-4.678a1.92 1.92 0 0 0 2.186-2.277 1.929 1.929 0 0 0-1.731.546 1.66 1.66 0 0 0-.455.729zm0-4.677a1.921 1.921 0 0 0 2.186-2.278 1.93 1.93 0 0 0-1.731.547 1.768 1.768 0 0 0-.455.759zM59.473 391.34h9.506v-14.4h-9.506zm-7.775 0h6.317v-15.823h12.391v15.823h1.4v-3.7c0-1.032.335-1.609.881-1.609h2.369v-2.278a.848.848 0 0 1-.273.03 2.388 2.388 0 0 1-1.7-.7 2.331 2.331 0 0 1-.607-2.308l.03-.121.121-.031a2.313 2.313 0 0 1 2.309.608.52.52 0 0 1 .121.152v-2.313a.822.822 0 0 1-.273.031 2.388 2.388 0 0 1-1.7-.7 2.331 2.331 0 0 1-.607-2.308l.03-.121.121-.061a2.394 2.394 0 0 1 2.309.638.508.508 0 0 1 .121.152v-2.309a.822.822 0 0 1-.273.031 2.388 2.388 0 0 1-1.7-.7 2.331 2.331 0 0 1-.607-2.308l.03-.122.121-.06a2.4 2.4 0 0 1 2.309.637.534.534 0 0 1 .121.152v-2.308a.849.849 0 0 1-.273.03 2.387 2.387 0 0 1-1.7-.7 2.331 2.331 0 0 1-.607-2.308l.03-.122.121-.061a2.4 2.4 0 0 1 2.309.638.521.521 0 0 1 .121.152v-2.308a.849.849 0 0 1-.273.03 2.392 2.392 0 0 1-1.7-.7 2.332 2.332 0 0 1-.607-2.308l.03-.152.121-.031a2.4 2.4 0 0 1 2.309.638.52.52 0 0 1 .121.152v-2.308a.849.849 0 0 1-.273.03 2.388 2.388 0 0 1-1.7-.7 2.331 2.331 0 0 1-.607-2.308l.03-.152.121-.03a2.4 2.4 0 0 1 2.309.638 1.985 1.985 0 0 1 .455.7c0 .031-.03.061-.03.092a.1.1 0 0 1 .061-.031c0-.03 0-.03-.031-.061a2.238 2.238 0 0 1 .486-.7 2.452 2.452 0 0 1 2.339-.638l.121.03.031.152a2.477 2.477 0 0 1-.608 2.308 2.439 2.439 0 0 1-1.7.7 1.041 1.041 0 0 1-.3-.03v2.308a.52.52 0 0 1 .121-.152 2.454 2.454 0 0 1 2.339-.638l.121.031.031.152a2.478 2.478 0 0 1-.608 2.308 2.442 2.442 0 0 1-1.7.7 1.041 1.041 0 0 1-.3-.03v2.308a.521.521 0 0 1 .121-.152 2.454 2.454 0 0 1 2.339-.638l.121.061.031.122a2.477 2.477 0 0 1-.608 2.308 2.438 2.438 0 0 1-1.7.7 1.041 1.041 0 0 1-.3-.03v2.308a.534.534 0 0 1 .121-.152 2.451 2.451 0 0 1 2.339-.637l.121.06.031.122a2.477 2.477 0 0 1-.608 2.308 2.439 2.439 0 0 1-1.7.7 1.008 1.008 0 0 1-.3-.031v2.308a.508.508 0 0 1 .121-.152 2.449 2.449 0 0 1 2.339-.638l.121.061.031.121a2.477 2.477 0 0 1-.608 2.308 2.439 2.439 0 0 1-1.7.7 1.008 1.008 0 0 1-.3-.031v2.309a.52.52 0 0 1 .121-.152 2.366 2.366 0 0 1 2.339-.608l.121.031.031.121a2.477 2.477 0 0 1-.608 2.308 2.439 2.439 0 0 1-1.7.7 1.04 1.04 0 0 1-.3-.03v2.278h2.4c.547 0 .85.577.85 1.609v3.7h21.868V346.3H51.7zm23.355-8.048v-1a2.181 2.181 0 0 0-.425-.729 1.989 1.989 0 0 0-1.762-.547 1.951 1.951 0 0 0 2.187 2.278zm0-4.677v-1a2.181 2.181 0 0 0-.425-.729 1.986 1.986 0 0 0-1.762-.547 1.951 1.951 0 0 0 2.187 2.278zm0-4.677v-1a2.2 2.2 0 0 0-.425-.729 1.988 1.988 0 0 0-1.762-.546 1.951 1.951 0 0 0 2.187 2.278zm0-4.677v-1a2.2 2.2 0 0 0-.425-.729 1.988 1.988 0 0 0-1.762-.546 1.951 1.951 0 0 0 2.187 2.278zm0-4.678v-1.032a1.8 1.8 0 0 0-.425-.7 1.988 1.988 0 0 0-1.762-.546 1.95 1.95 0 0 0 2.187 2.277zm0-4.677v-1a1.929 1.929 0 0 0-.425-.729 1.989 1.989 0 0 0-1.762-.547 1.951 1.951 0 0 0 2.187 2.278zm-25.694-15.429h54.061v-2.186H49.359z" class="cls-3" data-name="Tracé 45279" transform="translate(-47.567 -323.795)"/>
                                    <path id="Tracé_45280" d="M58.688 376.732h.092v-19.924a1.73 1.73 0 0 1 1.731-1.731h9.658a1.68 1.68 0 0 1 1.275.577 1.711 1.711 0 0 1 .456 1.154v19.924h.091a.506.506 0 0 1 .516.486v.546a.506.506 0 0 1-.516.486h-13.3a.487.487 0 0 1-.516-.486v-.546a.487.487 0 0 1 .513-.486zm10.722 0h1.579v-4.92H69.41zm-2.521 0h1.761v-4.92h-1.761zm-2.552 0H66.1v-4.92h-1.763zm-2.52 0h1.761v-4.92h-1.761zm-2.157 0h1.4v-4.92h-1.4zm0-5.68h11.329v-14.244a.817.817 0 0 0-.82-.82h-9.658a.844.844 0 0 0-.851.82z" class="cls-3" data-name="Tracé 45280" transform="translate(-25.462 -323.795)"/>
                                </g>
                            </g>
                        </g>
                    </g>
                </g>
                <g id="Groupe_13319" data-name="Groupe 13319" transform="translate(24.899 5.401)">
                    <path id="Tracé_45281" d="M80.318 333.541a4.345 4.345 0 1 0-4.345 4.345 4.35 4.35 0 0 0 4.345-4.345zm-1.078 0a3.267 3.267 0 1 1-3.267-3.267 3.271 3.271 0 0 1 3.267 3.267z" class="cls-5" data-name="Tracé 45281" transform="translate(-71.628 -329.196)"/>
                </g>
            </g>
            <g id="Groupe_13410" data-name="Groupe 13410" transform="translate(17.278 642.151)">
                <path id="Rectangle_12784" d="M0 0h7.193v16.321H0z" class="cls-17" data-name="Rectangle 12784" transform="translate(59.836 108.938)"/>
                <path id="Tracé_45353" d="M712.393 443.927v.636a.62.62 0 0 0 .609.636h.83v14.745a7.612 7.612 0 0 0-.553 2.877v15.27H713a.183.183 0 0 0-.166.028h-.027c-.055.055-.111.083-.166.138a.793.793 0 0 0-.221.36.765.765 0 0 0-.028.249v.5a.614.614 0 0 0 .609.609h.83v14.8a8.007 8.007 0 0 0-.553 2.932v6.888h-.111a.638.638 0 0 0-.636.609v.664a.638.638 0 0 0 .636.609h.664v7.22h-8.354v-94.75h-2.894v-4.318h11.248v18.482a7.862 7.862 0 0 0-.719 3.32v6.86H713a.62.62 0 0 0-.607.636z" class="cls-17" data-name="Tracé 45353" transform="translate(-701.052 -388.435)"/>
                <g id="Porte">
                    <g id="Poignet_gauche" data-name="Poignet gauche" transform="translate(53.672 116.891)">
                        <path id="Poignet_gauche-2" d="M2.004 0H0" class="cls-2" data-name="Poignet gauche" transform="translate(.443 .443)"/>
                        <path id="Tracé_45354" d="M721.875 448.3h2.006a.443.443 0 0 0 0-.885h-2.006a.443.443 0 0 0 0 .885z" class="cls-5" data-name="Tracé 45354" transform="translate(-721.432 -447.415)"/>
                    </g>
                    <g id="Poignet_droite" data-name="Poignet droite" transform="translate(48.38 116.891)">
                        <path id="Poignet_droite-2" d="M2.004 0H0" class="cls-2" data-name="Poignet droite" transform="translate(.444 .443)"/>
                        <path id="Tracé_45355" d="M719.962 448.3h2.005a.443.443 0 1 0 0-.885h-2.005a.443.443 0 1 0 0 .885z" class="cls-5" data-name="Tracé 45355" transform="translate(-719.519 -447.415)"/>
                    </g>
                    <path id="Tracé_45356" d="M771.244 430.2h-1.3a1.571 1.571 0 0 0-.553-.8l-11.48-8.8v-10.682a3.093 3.093 0 0 0-3.1-3.1H750a3.093 3.093 0 0 0-3.1 3.1v2.241l-9.156-7-31.619 24.233a1.819 1.819 0 0 0-.581.8h-1.272a2.231 2.231 0 0 0-2.241 2.241v2.351a2.243 2.243 0 0 0 2.213 2.241v95.635h67.028v-95.632a2.243 2.243 0 0 0 2.213-2.241v-2.351a2.231 2.231 0 0 0-2.241-2.236zm-22.131-20.277a.891.891 0 0 1 .885-.885h4.813a.891.891 0 0 1 .885.885v8.437l-6.584-4.7zM708.7 430.2l29.047-22.241 3.9 2.988 25.171 19.253.083.055h-58.287zm32.172 100.224h-6.224v-5.228a1.93 1.93 0 0 1 .083-.664h6.058a1.927 1.927 0 0 1 .083.664zm-3.541-10.6a2.32 2.32 0 0 1-2.047-.636 1.27 1.27 0 1 1 1.494-1.494 2.283 2.283 0 0 1 .553.885zm0-5.754a2.418 2.418 0 0 1-2.047-.664 1.263 1.263 0 1 1 1.494-1.494 2.385 2.385 0 0 1 .553.913zm16.764 16.349h-5.754v-15.712h5.754zm0-16.377h-5.726a6.028 6.028 0 0 1 5.726-5.726zm6.446 16.377h-5.781v-15.712h5.781zm-5.781-16.377v-5.726a6.032 6.032 0 0 1 5.754 5.726zm14.3 16.377h-7.193V514.1a7.431 7.431 0 0 0-14.855.277v16.045H742.2v-5.228c0-1.245-.415-1.992-1.079-1.992h-2.932v-2.766a1.459 1.459 0 0 0 .36.028 2.846 2.846 0 0 0 2.075-.885 2.923 2.923 0 0 0 .775-2.849l-.028-.166-.166-.028a2.976 2.976 0 0 0-2.877.747.733.733 0 0 0-.138.166v-2.794a1.459 1.459 0 0 0 .36.028 2.931 2.931 0 0 0 2.075-.858 2.99 2.99 0 0 0 .775-2.877l-.028-.138-.166-.055a2.989 2.989 0 0 0-2.877.775.736.736 0 0 0-.138.166v-2.826a2.131 2.131 0 0 1-.415-.055h-.028a2.131 2.131 0 0 1-.415.055v2.822a.732.732 0 0 0-.138-.166 2.99 2.99 0 0 0-2.877-.775l-.166.055-.028.138a2.99 2.99 0 0 0 .774 2.877 2.932 2.932 0 0 0 2.075.858 1.458 1.458 0 0 0 .36-.028v2.794a.729.729 0 0 0-.138-.166 2.976 2.976 0 0 0-2.877-.747l-.166.028-.028.166a2.923 2.923 0 0 0 .774 2.849 2.847 2.847 0 0 0 2.075.885 1.458 1.458 0 0 0 .36-.028v2.768H734.4c-.664 0-1.079.747-1.079 1.992v5.228h-26.865v-93.2h62.6zm-30.872-10.6v-1.162a2.02 2.02 0 0 1 .553-.968 1.27 1.27 0 1 1 1.494 1.494 2.345 2.345 0 0 1-2.049.641zm0-5.754v-1.162a2.1 2.1 0 0 1 .553-1 1.263 1.263 0 1 1 1.494 1.494 2.446 2.446 0 0 1-2.049.673zm33.085-79.283a.027.027 0 0 1-.028.028h-66.974a.027.027 0 0 1-.028-.028v-2.351c0-.028 0-.028.028-.028h66.973c.028 0 .028 0 .028.028z" class="cls-5" data-name="Tracé 45356" transform="translate(-702.03 -405.16)"/>
                </g>
                <g id="Fenêtre_bas" data-name="Fenêtre bas" transform="translate(11.48 101.192)">
                    <g id="Groupe_13380" data-name="Groupe 13380">
                        <path id="Tracé_45357" d="M723.857 447.61v.609a.815.815 0 0 1-.83.83h-15.99a.839.839 0 0 1-.858-.83v-.609a.638.638 0 0 0 .636.609h16.432a.614.614 0 0 0 .61-.609z" class="cls-18" data-name="Tracé 45357" transform="translate(-706.18 -431.372)"/>
                        <path id="Tracé_45358" d="M723.248 456.706h-.111v-6.888a8.109 8.109 0 0 0-15.657-2.932 8.007 8.007 0 0 0-.553 2.932v6.888h-.111a.638.638 0 0 0-.636.609v.664a.638.638 0 0 0 .636.609h16.432a.614.614 0 0 0 .609-.609v-.664a.614.614 0 0 0-.609-.609zM722 449.264h-6.418v-6.39a6.99 6.99 0 0 1 6.418 6.39zm-7.525-6.39v6.39h-6.418a6.99 6.99 0 0 1 6.422-6.39zm7.552 13.832h-14v-6.335h14z" class="cls-5" data-name="Tracé 45358" transform="translate(-706.18 -441.74)"/>
                    </g>
                </g>
                <g id="Fenêtre_milieu" data-name="Fenêtre milieu" transform="translate(11.342 89.601)">
                    <g id="Gauche" transform="translate(32.449)">
                        <path id="Tracé_45359" d="M717.888 437.76a.768.768 0 0 0-.028.249v-.166a.1.1 0 0 1 .028-.083z" class="cls-3" data-name="Tracé 45359" transform="translate(-717.86 -437.179)"/>
                        <path id="Tracé_45360" d="M718.23 437.59a1.429 1.429 0 0 0-.36.47.536.536 0 0 1 .36-.47z" class="cls-3" data-name="Tracé 45360" transform="translate(-717.842 -437.479)"/>
                        <path id="Tracé_45361" d="M724.268 437.843v.166a.765.765 0 0 0-.028-.249.1.1 0 0 1 .028.083z" class="cls-3" data-name="Tracé 45361" transform="translate(-706.591 -437.179)"/>
                        <path id="Tracé_45362" d="M718.311 437.55h.055v.055h-.276a.3.3 0 0 1 .221-.055z" class="cls-18" data-name="Tracé 45362" transform="translate(-717.454 -437.55)"/>
                        <path id="Rectangle_12785" d="M0 0h13.666v.055H0z" class="cls-18" data-name="Rectangle 12785" transform="translate(2.02)"/>
                        <path id="Tracé_45363" d="M724.207 437.605h-.277v-.055h.055a.3.3 0 0 1 .222.055z" class="cls-18" data-name="Tracé 45363" transform="translate(-707.138 -437.55)"/>
                        <path id="Tracé_45364" d="M735.537 438.03v.387a.832.832 0 0 1-.83.83h-15.989a.857.857 0 0 1-.858-.83v-.387a.62.62 0 0 0 .636.609h16.432a.614.614 0 0 0 .609-.609z" class="cls-18" data-name="Tracé 45364" transform="translate(-717.86 -436.702)"/>
                    </g>
                    <g id="Droite">
                        <g id="Groupe_13382" data-name="Groupe 13382" transform="translate(1.439)">
                            <g id="Groupe_13381" data-name="Groupe 13381">
                                <path id="Tracé_45365" d="M706.65 437.55v.055h.553v-.055z" class="cls-5" data-name="Tracé 45365" transform="translate(-706.65 -437.55)"/>
                            </g>
                        </g>
                        <path id="Tracé_45366" d="M706.158 437.76a.765.765 0 0 0-.028.249v-.166a.1.1 0 0 1 .028-.083z" class="cls-3" data-name="Tracé 45366" transform="translate(-706.13 -437.179)"/>
                        <path id="Tracé_45367" d="M712.74 438.06a1.429 1.429 0 0 0-.36-.47.536.536 0 0 1 .36.47z" class="cls-3" data-name="Tracé 45367" transform="translate(-695.09 -437.479)"/>
                        <path id="Tracé_45368" d="M712.538 437.843v.166a.768.768 0 0 0-.028-.249.1.1 0 0 1 .028.083z" class="cls-3" data-name="Tracé 45368" transform="translate(-694.861 -437.179)"/>
                        <path id="Tracé_45369" d="M712.467 437.605h-.276v-.055h.055a.3.3 0 0 1 .221.055z" class="cls-18" data-name="Tracé 45369" transform="translate(-695.426 -437.55)"/>
                        <path id="Tracé_45370" d="M706.627 437.605h-.277a.3.3 0 0 1 .221-.055h.055z" class="cls-18" data-name="Tracé 45370" transform="translate(-705.741 -437.55)"/>
                        <path id="Rectangle_12786" d="M0 0h14.219v.055H0z" class="cls-18" data-name="Rectangle 12786" transform="translate(1.439)"/>
                        <path id="Tracé_45371" d="M723.807 438.03v.387a.857.857 0 0 1-.858.83H706.96a.832.832 0 0 1-.83-.83v-.387a.614.614 0 0 0 .609.609h16.432a.639.639 0 0 0 .636-.609z" class="cls-18" data-name="Tracé 45371" transform="translate(-706.13 -436.702)"/>
                    </g>
                </g>
                <g id="Fenêtre_haut-2" data-name="Fenêtre haut" transform="translate(43.348 56.129)">
                    <g id="Groupe_13383" data-name="Groupe 13383">
                        <path id="Tracé_45372" d="M735.377 425.45v.609a.815.815 0 0 1-.83.83h-15.989a.839.839 0 0 1-.858-.83v-.609a.643.643 0 0 0 .636.636h16.432a.62.62 0 0 0 .609-.636z" class="cls-18" data-name="Tracé 45372" transform="translate(-717.7 -425.45)"/>
                    </g>
                </g>
                <g id="Fenêtre_haut-3" data-name="Fenêtre haut" transform="translate(11.342 56.129)">
                    <g id="Groupe_13384" data-name="Groupe 13384">
                        <path id="Tracé_45373" d="M723.807 425.45v.609a.839.839 0 0 1-.858.83H706.96a.815.815 0 0 1-.83-.83v-.609a.62.62 0 0 0 .609.636h16.432a.643.643 0 0 0 .636-.636z" class="cls-18" data-name="Tracé 45373" transform="translate(-706.13 -425.45)"/>
                    </g>
                </g>
                <g id="Plante" transform="translate(35.658 84.096)">
                    <g id="Groupe_13387" data-name="Groupe 13387">
                        <g id="Groupe_13386" data-name="Groupe 13386">
                            <g id="Groupe_13385" data-name="Groupe 13385">
                                <path id="Tracé_45374" d="M715 435.56c-.055.055-.055.083-.083.111h.138c-.024-.028-.024-.056-.055-.111z" class="cls-3" data-name="Tracé 45374" transform="translate(-714.92 -435.56)"/>
                                <path id="Tracé_45375" d="M715 435.56c-.055.055-.055.083-.083.111h.138c-.024-.028-.024-.056-.055-.111z" class="cls-3" data-name="Tracé 45375" transform="translate(-714.92 -435.56)"/>
                            </g>
                        </g>
                    </g>
                </g>
                <g id="Toit-2" data-name="Toit" transform="translate(6.584 2.794)">
                    <path id="Tracé_45376" d="M737.44 409.158l-25.174 19.254-.083.055h-7.773l.083-.055 29.047-22.242z" class="cls-17" data-name="Tracé 45376" transform="translate(-704.41 -406.17)"/>
                    <g id="Groupe_13388" data-name="Groupe 13388" transform="translate(4.758 1.079)">
                        <path id="Tracé_45377" d="M725.634 407.445v8.437l-6.584-4.7v-3.734a.891.891 0 0 1 .885-.885h4.813a.891.891 0 0 1 .886.882z" class="cls-7" data-name="Tracé 45377" transform="translate(-683.309 -406.56)"/>
                        <path id="Tracé_45378" d="M718.12 444.747a2.931 2.931 0 0 0 2.075-.858 2.99 2.99 0 0 0 .775-2.877l-.028-.138-.166-.055a2.989 2.989 0 0 0-2.877.775.733.733 0 0 0-.138.166v-2.822a1.459 1.459 0 0 0 .36.028 2.953 2.953 0 0 0 2.849-3.707l-.028-.166-.166-.055a3.056 3.056 0 0 0-2.877.775 2.3 2.3 0 0 0-.553.83c.028.055.028.083.055.111h-.138c.028-.028.028-.055.083-.111a2.813 2.813 0 0 0-.581-.83 3.056 3.056 0 0 0-2.877-.775l-.166.055-.028.166a2.953 2.953 0 0 0 2.849 3.707 1.458 1.458 0 0 0 .36-.028v2.822a.729.729 0 0 0-.138-.166 2.989 2.989 0 0 0-2.877-.775l-.166.055-.028.138a2.99 2.99 0 0 0 .774 2.877 2.932 2.932 0 0 0 2.075.858 1.465 1.465 0 0 0 .36-.028v2.794a.729.729 0 0 0-.138-.166 2.976 2.976 0 0 0-2.877-.747l-.166.028-.028.166a2.922 2.922 0 0 0 .774 2.849 2.847 2.847 0 0 0 2.075.885 1.465 1.465 0 0 0 .36-.028v2.794a.732.732 0 0 0-.138-.166 3.056 3.056 0 0 0-2.877-.775l-.166.055-.028.166a2.953 2.953 0 0 0 2.849 3.707 1.458 1.458 0 0 0 .36-.028 2.131 2.131 0 0 0 .415-.055h.028a2.131 2.131 0 0 0 .415.055 1.459 1.459 0 0 0 .36.028 2.953 2.953 0 0 0 2.849-3.707l-.028-.166-.166-.055a3.056 3.056 0 0 0-2.877.775.736.736 0 0 0-.138.166V450.5a1.466 1.466 0 0 0 .36.028 2.846 2.846 0 0 0 2.075-.885 2.922 2.922 0 0 0 .775-2.849l-.028-.166-.166-.028a2.976 2.976 0 0 0-2.877.747.733.733 0 0 0-.138.166v-2.794a1.466 1.466 0 0 0 .358.028zm-.36-7.58a2.3 2.3 0 0 1 .553-.941 2.421 2.421 0 0 1 2.13-.664 2.33 2.33 0 0 1-.636 2.13 2.363 2.363 0 0 1-2.047.664zm0 5.809a2.1 2.1 0 0 1 .553-1 1.263 1.263 0 1 1 1.494 1.494 2.446 2.446 0 0 1-2.047.664zm-.858 12.7a2.281 2.281 0 1 1-.553-2.13 2.282 2.282 0 0 1 .553.885zm0-5.782a2.321 2.321 0 0 1-2.047-.636 1.27 1.27 0 1 1 1.494-1.494 2.283 2.283 0 0 1 .553.885zm0-5.754a2.418 2.418 0 0 1-2.047-.664 1.263 1.263 0 1 1 1.494-1.494 2.384 2.384 0 0 1 .553.913zm0-5.782a2.281 2.281 0 1 1-.553-2.13 2.384 2.384 0 0 1 .553.913zm1.411 15.187a2.422 2.422 0 0 1 2.13-.664 2.331 2.331 0 0 1-.636 2.13 2.363 2.363 0 0 1-2.047.664v-1.162a2.02 2.02 0 0 1 .554-.969zm0-5.782a1.27 1.27 0 1 1 1.494 1.494 2.345 2.345 0 0 1-2.047.636v-1.163a2.02 2.02 0 0 1 .554-.968z" class="cls-5" data-name="Tracé 45378" transform="translate(-692.947 -356.418)"/>
                        <path id="Tracé_45379" d="M723.779 452.915a1.429 1.429 0 0 0-.36-.47.1.1 0 0 0-.055-.028h-.028a.183.183 0 0 0-.166-.028h-.276v-15.27a7.931 7.931 0 0 0-15.325-2.877 7.612 7.612 0 0 0-.553 2.877v15.27h-.277a.183.183 0 0 0-.166.028h-.027c-.055.055-.111.083-.166.138a.793.793 0 0 0-.221.36.765.765 0 0 0-.028.249v.5a.614.614 0 0 0 .609.609h16.432a.639.639 0 0 0 .636-.609v-.5a.768.768 0 0 0-.029-.249zm-8.271-22.6a6.8 6.8 0 0 1 6.2 5.837h-6.2zm-1.107 0v5.837h-6.2a6.8 6.8 0 0 1 6.199-5.838zm-6.28 6.943h6.28v7.165h-6.28zm13.666 15.132h-14.218v-.055h.553v-6.805h13.666zm0-7.967h-6.279v-7.165h6.279z" class="cls-5" data-name="Tracé 45379" transform="translate(-706.13 -366.606)"/>
                        <path id="Tracé_45380" d="M735.509 452.915a.794.794 0 0 0-.221-.36c-.055-.055-.111-.083-.166-.138h-.028a.183.183 0 0 0-.166-.028h-.277v-15.27a7.939 7.939 0 1 0-15.879 0v15.27h-.272a.183.183 0 0 0-.166.028h-.034a.1.1 0 0 0-.055.028 1.429 1.429 0 0 0-.36.47.768.768 0 0 0-.028.249v.5a.62.62 0 0 0 .636.609h16.432a.614.614 0 0 0 .609-.609v-.5a.765.765 0 0 0-.025-.249zm-8.244-22.6a6.8 6.8 0 0 1 6.2 5.837h-6.2zm-1.107 0v5.837h-6.2a6.8 6.8 0 0 1 6.201-5.838zm-6.279 6.943h6.279v7.165h-6.278zm13.666 15.132H719.88v-6.86h13.666zm0-7.967h-6.28v-7.165h6.28z" class="cls-5" data-name="Tracé 45380" transform="translate(-685.411 -366.606)"/>
                        <path id="Tracé_45381" d="M734.768 434.546h-.111v-6.86a8.105 8.105 0 1 0-16.211 0v6.86h-.111a.643.643 0 0 0-.636.636v.636a.643.643 0 0 0 .636.636h16.432a.62.62 0 0 0 .609-.636v-.636a.62.62 0 0 0-.608-.636zm-7.663-13.832a6.966 6.966 0 0 1 6.418 6.39h-6.418zm-1.106 0v6.39h-6.418a6.967 6.967 0 0 1 6.419-6.39zm7.552 13.832h-14v-6.307h14z" class="cls-5" data-name="Tracé 45381" transform="translate(-685.694 -383.562)"/>
                        <path id="Tracé_45382" d="M723.171 434.546h-.111v-6.86a8.1 8.1 0 0 0-15.491-3.32 7.862 7.862 0 0 0-.719 3.32v6.86h-.111a.62.62 0 0 0-.609.636v.636a.62.62 0 0 0 .609.636h16.432a.643.643 0 0 0 .636-.636v-.636a.643.643 0 0 0-.636-.636zm-7.663-13.832a6.967 6.967 0 0 1 6.418 6.39h-6.418zm-1.107 0v6.39h-6.418a6.967 6.967 0 0 1 6.417-6.39zm7.552 13.832h-14v-6.307h14z" class="cls-5" data-name="Tracé 45382" transform="translate(-706.13 -383.562)"/>
                    </g>
                    <g id="Groupe_13389" data-name="Groupe 13389" transform="translate(0 22.241)">
                        <path id="Tracé_45383" d="M762.614 414.21h-58.121l-.083.055h58.29z" class="cls-5" data-name="Tracé 45383" transform="translate(-704.41 -414.21)"/>
                    </g>
                    <g id="Lucarne_haut-3" data-name="Lucarne haut" transform="translate(21.854 8.742)">
                        <path id="Rectangle_12787" d="M0 0h13.472v.719H0z" class="cls-18" data-name="Rectangle 12787" transform="translate(.553 7.856)"/>
                        <path id="Tracé_45384" d="M719.586 409.33a7.308 7.308 0 0 0-7.276 7.3v.553h14.579v-.553a7.314 7.314 0 0 0-7.303-7.3zm.553 1.134a6.154 6.154 0 0 1 5.616 5.616h-5.616zm-1.107 0v5.616h-5.588a6.152 6.152 0 0 1 5.588-5.616z" class="cls-3" data-name="Tracé 45384" transform="translate(-712.31 -409.33)"/>
                    </g>
                </g>
            </g>
            <g id="Groupe_13524" data-name="Groupe 13524" transform="translate(-437.08 -23.435)">
                <g id="Ombre" transform="translate(659.767 403.195)">
                    <path id="Rectangle_12828" d="M0 0h4.662v15.516H0z" class="cls-17" data-name="Rectangle 12828" transform="translate(0 110.113)"/>
                    <path id="Rectangle_12829" d="M0 0h6.492v5.89H0z" class="cls-17" data-name="Rectangle 12829" transform="translate(37.699)"/>
                    <path id="Tracé_45542" d="M660.57 403.74h6.492v118.334h-5.615v-15.59h-.877v-2.055h.175a.7.7 0 0 0 .7-.7.717.717 0 0 0-.7-.7h-.175v-78.911h.2v-7.043h-.2z" class="cls-17" data-name="Tracé 45542" transform="translate(-622.872 -396.446)"/>
                </g>
                <g id="Groupe_13520" data-name="Groupe 13520" transform="translate(646.106 439.039)">
                    <path id="Tracé_45543" d="M665.33 419.761h-9.4a4.735 4.735 0 0 1 9.4 0z" class="cls-2" data-name="Tracé 45543" transform="translate(-616.201 -414.422)"/>
                    <path id="Rectangle_12830" d="M0 0h3.66v5.189H0z" class="cls-2" data-name="Rectangle 12830" transform="translate(33.011 11.38)"/>
                    <path id="Rectangle_12831" d="M0 0h9.475v3.96H0z" class="cls-2" data-name="Rectangle 12831" transform="translate(20.955 6.492)"/>
                    <path id="Rectangle_12832" d="M0 0h9.475v3.96H0z" class="cls-2" data-name="Rectangle 12832" transform="translate(39.679 6.492)"/>
                    <path id="Tracé_45544" d="M650.4 419.761h-9.42a4.749 4.749 0 0 1 9.425 0z" class="cls-2" data-name="Tracé 45544" transform="translate(-638.724 -414.422)"/>
                    <path id="Rectangle_12833" d="M0 0h9.475v3.96H0z" class="cls-2" data-name="Rectangle 12833" transform="translate(2.231 6.492)"/>
                    <path id="Rectangle_12834" d="M0 0h.15v5.189H0z" class="cls-2" data-name="Rectangle 12834" transform="translate(.927 11.38)"/>
                    <path id="Rectangle_12835" d="M0 0h.1v5.189H0z" class="cls-2" data-name="Rectangle 12835" transform="translate(50.307 11.38)"/>
                    <path id="Rectangle_12836" d="M0 0h3.635v5.189H0z" class="cls-2" data-name="Rectangle 12836" transform="translate(14.688 11.38)"/>
                    <path id="Tracé_45545" d="M657.875 419.761h-9.425a4.749 4.749 0 0 1 9.425 0z" class="cls-2" data-name="Tracé 45545" transform="translate(-627.47 -414.422)"/>
                    <path id="Tracé_45546" d="M690.387 425.582v-5.113h-.05a5.864 5.864 0 0 0-11.681 0h-.05v5.113h-6.943v-5.113h-.05a5.864 5.864 0 0 0-11.68 0h-.05v5.113h-6.943v-5.113h-.05a5.864 5.864 0 0 0-11.68 0h-.05v5.113h-1.08v7.043h51.359v-7.043zm-5.891-9.274a4.761 4.761 0 0 1 4.712 4.161h-9.4a4.718 4.718 0 0 1 4.692-4.161zm-4.737 5.314h9.475v3.96h-9.475zm-13.986-5.314a4.761 4.761 0 0 1 4.712 4.161h-9.425a4.761 4.761 0 0 1 4.712-4.161zm-4.737 5.314h9.475v3.96h-9.475zm-13.987-5.314a4.761 4.761 0 0 1 4.712 4.161h-9.425a4.761 4.761 0 0 1 4.712-4.161zm-4.737 5.314h9.475v3.96h-9.475zm2.356 10.076h-3.659v-5.188h3.659zm4.587 0h-3.659v-5.188h3.659zm4.562 0h-3.635v-5.188h3.635zm4.587 0h-3.634v-5.188h3.63zm4.587 0h-3.66v-5.188h3.66zm4.587 0h-3.659v-5.188h3.659zm4.587 0H668.5v-5.188h3.66zm4.587 0h-3.66v-5.188h3.66zm4.562 0h-3.635v-5.188h3.635zm4.587 0h-3.635v-5.188h3.634zm4.587 0h-3.66v-5.188h3.66z" class="cls-3" data-name="Tracé 45546" transform="translate(-640.08 -415.13)"/>
                    <path id="Rectangle_12837" d="M0 0h48.076v1.003H0z" class="cls-19" data-name="Rectangle 12837" transform="translate(1.629 17.496)"/>
                </g>
                <g id="Groupe_13521" data-name="Groupe 13521" transform="translate(646.106 485.109)">
                    <path id="Tracé_45547" d="M665.33 438.116h-9.4a4.738 4.738 0 0 1 9.4 0z" class="cls-2" data-name="Tracé 45547" transform="translate(-616.201 -432.802)"/>
                    <path id="Rectangle_12838" d="M0 0h3.66v5.189H0z" class="cls-2" data-name="Rectangle 12838" transform="translate(33.011 11.38)"/>
                    <path id="Rectangle_12839" d="M0 0h9.475v3.96H0z" class="cls-2" data-name="Rectangle 12839" transform="translate(20.955 6.492)"/>
                    <path id="Rectangle_12840" d="M0 0h9.475v3.96H0z" class="cls-2" data-name="Rectangle 12840" transform="translate(39.679 6.492)"/>
                    <path id="Tracé_45548" d="M650.4 438.116h-9.42a4.753 4.753 0 0 1 9.425 0z" class="cls-2" data-name="Tracé 45548" transform="translate(-638.724 -432.802)"/>
                    <path id="Rectangle_12841" d="M0 0h9.475v3.96H0z" class="cls-2" data-name="Rectangle 12841" transform="translate(2.231 6.492)"/>
                    <path id="Rectangle_12842" d="M0 0h.15v5.189H0z" class="cls-2" data-name="Rectangle 12842" transform="translate(.927 11.38)"/>
                    <path id="Rectangle_12843" d="M0 0h.1v5.189H0z" class="cls-2" data-name="Rectangle 12843" transform="translate(50.307 11.38)"/>
                    <path id="Rectangle_12844" d="M0 0h3.635v5.189H0z" class="cls-2" data-name="Rectangle 12844" transform="translate(14.688 11.38)"/>
                    <path id="Tracé_45549" d="M657.875 438.116h-9.425a4.753 4.753 0 0 1 9.425 0z" class="cls-2" data-name="Tracé 45549" transform="translate(-627.47 -432.802)"/>
                    <path id="Tracé_45550" d="M690.387 443.962v-5.138h-.05a5.866 5.866 0 0 0-11.681 0h-.05v5.138h-6.943v-5.138h-.05a5.866 5.866 0 0 0-11.68 0h-.05v5.138h-6.943v-5.138h-.05a5.866 5.866 0 0 0-11.68 0h-.05v5.138h-1.08v7.043h51.359v-7.043zm-5.891-9.274a4.761 4.761 0 0 1 4.712 4.136h-9.4a4.717 4.717 0 0 1 4.692-4.136zM679.759 440h9.475v3.96h-9.475zm-13.986-5.314a4.761 4.761 0 0 1 4.712 4.136h-9.425a4.761 4.761 0 0 1 4.712-4.134zM661.035 440h9.475v3.96h-9.475zm-13.987-5.314a4.761 4.761 0 0 1 4.712 4.136h-9.425a4.761 4.761 0 0 1 4.713-4.134zM642.311 440h9.475v3.96h-9.475zm2.356 10.076h-3.659v-5.186h3.659zm4.587 0h-3.659v-5.186h3.659zm4.562 0h-3.635v-5.186h3.635zm4.587 0h-3.634v-5.186h3.631zm4.587 0h-3.66v-5.186h3.66zm4.587 0h-3.659v-5.186h3.659zm4.587 0H668.5v-5.186h3.66zm4.587 0h-3.66v-5.186h3.66zm4.562 0h-3.635v-5.186h3.635zm4.587 0h-3.635v-5.186h3.635zm4.587 0h-3.66v-5.186h3.66z" class="cls-3" data-name="Tracé 45550" transform="translate(-640.08 -433.51)"/>
                    <path id="Rectangle_12845" d="M0 0h48.076v1.003H0z" class="cls-19" data-name="Rectangle 12845" transform="translate(1.629 17.496)"/>
                </g>
                <g id="Fenêtre_2" data-name="Fenêtre 2" transform="translate(647.184 463.102)">
                    <path id="Tracé_45551" d="M640.51 426.85v.6a4.8 4.8 0 0 1 .025-.6zm11.756 0a4.837 4.837 0 0 1 .025.6v-.6z" class="cls-3" data-name="Tracé 45551" transform="translate(-640.51 -421.536)"/>
                    <path id="Tracé_45552" d="M652.266 430.044a5.894 5.894 0 0 0-11.731 0 4.8 4.8 0 0 0-.025.6v11.48h11.781v-11.48a4.837 4.837 0 0 0-.025-.6zm-5.865-4.136a4.761 4.761 0 0 1 4.712 4.136h-9.425a4.761 4.761 0 0 1 4.712-4.136zm-4.737 5.314h9.475v9.75h-9.475z" class="cls-3" data-name="Tracé 45552" transform="translate(-640.51 -424.73)"/>
                    <path id="Tracé_45553" d="M667.206 430.044a5.894 5.894 0 0 0-11.731 0 4.837 4.837 0 0 0-.025.6v11.48h11.781v-11.48a4.837 4.837 0 0 0-.025-.6zm-5.866-4.136a4.761 4.761 0 0 1 4.712 4.136h-9.4a4.717 4.717 0 0 1 4.688-4.136zm-4.737 5.314h9.475v9.75H656.6z" class="cls-3" data-name="Tracé 45553" transform="translate(-618.002 -424.73)"/>
                    <path id="Tracé_45554" d="M655.45 426.85v.6a4.837 4.837 0 0 1 .025-.6zm11.756 0a4.837 4.837 0 0 1 .025.6v-.6z" class="cls-3" data-name="Tracé 45554" transform="translate(-618.002 -421.536)"/>
                    <path id="Rectangle_12846" d="M0 0h9.475v3.885H0z" class="cls-2" data-name="Rectangle 12846" transform="translate(19.451 6.492)"/>
                    <path id="Tracé_45555" d="M647.835 426.85a4.64 4.64 0 0 0-.025.576v-.576z" class="cls-3" data-name="Tracé 45555" transform="translate(-629.512 -421.536)"/>
                    <path id="Tracé_45556" d="M652.525 426.85v.576c0-.175-.025-.376-.025-.576z" class="cls-3" data-name="Tracé 45556" transform="translate(-622.446 -421.536)"/>
                    <path id="Tracé_45557" d="M660.344 435.107v-4.487c0-.175-.025-.376-.025-.576a5.894 5.894 0 0 0-11.731 0 4.629 4.629 0 0 0-.025.576v4.487h-1.253v7.043h14.29v-7.043zm-5.891-9.2a4.717 4.717 0 0 1 4.687 4.136h-9.4a4.742 4.742 0 0 1 4.714-4.135zm-4.737 5.314h9.475v3.885h-9.475zm2.08 9.976h-3.258v.025h-.176v-5.189h3.409v4.938h.025zm4.362 0h-3.434v-.226h-.024v-4.938h3.459zm4.361.025h-.175v-.022h-3.259v-5.163h3.434z" class="cls-3" data-name="Tracé 45557" transform="translate(-630.266 -424.73)"/>
                    <path id="Rectangle_12847" d="M0 0h14.212v.978H0z" class="cls-19" data-name="Rectangle 12847" transform="translate(17.07 17.421)"/>
                    <path id="Rectangle_12848" d="M0 0h11.43v1.128H0z" class="cls-19" data-name="Rectangle 12848" transform="translate(.175 17.395)"/>
                    <path id="Rectangle_12849" d="M0 0h11.43v1.128H0z" class="cls-19" data-name="Rectangle 12849" transform="translate(37.623 17.395)"/>
                </g>
                <g id="Fenêtre_2-2" data-name="Fenêtre 2" transform="translate(645.931 413.447)">
                    <path id="Tracé_45558" d="M667.206 407.04v.025c0 .075.025.175.025.276a1.225 1.225 0 0 1 .025.3v-.6zm-11.756 0v.576a4.068 4.068 0 0 1 .025-.551v-.025z" class="cls-3" data-name="Tracé 45558" transform="translate(-616.749 -401.726)"/>
                    <g id="Groupe_13522" data-name="Groupe 13522">
                        <path id="Rectangle_12850" d="M0 0h9.475v3.885H0z" class="cls-2" data-name="Rectangle 12850" transform="translate(2.406 6.492)"/>
                        <path id="Tracé_45559" d="M640.535 407.05a4.038 4.038 0 0 0-.025.551v-.551z" class="cls-3" data-name="Tracé 45559" transform="translate(-639.257 -401.711)"/>
                        <path id="Tracé_45560" d="M645.225 407.05v.551a4.058 4.058 0 0 0-.025-.551z" class="cls-3" data-name="Tracé 45560" transform="translate(-632.191 -401.711)"/>
                        <path id="Tracé_45561" d="M653.044 415.3v-4.49a4.068 4.068 0 0 0-.025-.551 5.891 5.891 0 0 0-11.731 0 4.049 4.049 0 0 0-.025.551v4.49h-1.253v7.043h14.29V415.3zm.2.927v5.189h-3.459v-5.189zm-7.82 5.189v-5.189h3.434v5.189zm1.729-15.315a4.742 4.742 0 0 1 4.712 4.161h-9.425a4.743 4.743 0 0 1 4.714-4.162zm-4.737 5.314h9.475v3.885h-9.475zm-1.353 4.813h3.409v4.938h.025v.251h-3.434z" class="cls-3" data-name="Tracé 45561" transform="translate(-640.01 -404.92)"/>
                        <path id="Rectangle_12851" d="M0 0h14.237v.978H0z" class="cls-19" data-name="Rectangle 12851" transform="translate(.025 17.421)"/>
                    </g>
                    <g id="Groupe_13523" data-name="Groupe 13523" transform="translate(37.448)">
                        <path id="Rectangle_12852" d="M0 0h9.475v3.885H0z" class="cls-2" data-name="Rectangle 12852" transform="translate(2.406 6.492)"/>
                        <path id="Tracé_45562" d="M655.475 407.05a4.067 4.067 0 0 0-.025.551v-.551z" class="cls-3" data-name="Tracé 45562" transform="translate(-654.197 -401.711)"/>
                        <path id="Tracé_45563" d="M660.165 407.05v.276c0-.1-.025-.2-.025-.276z" class="cls-3" data-name="Tracé 45563" transform="translate(-647.131 -401.711)"/>
                        <path id="Tracé_45564" d="M667.984 415.3v-4.762c0-.1-.025-.2-.025-.276v-.025a5.894 5.894 0 0 0-11.731 0v.025a4.068 4.068 0 0 0-.025.551v4.487h-1.253v7.043h14.287V415.3zm-5.891-9.2a4.743 4.743 0 0 1 4.712 4.161h-9.425a4.743 4.743 0 0 1 4.714-4.161zm-4.737 5.314h9.475v3.886h-9.475zm6.442 10h-3.434v-5.189h3.436zm-7.8-5.189h3.434v5.189H656zm12.182 5.189h-3.459v-5.189h3.459z" class="cls-3" data-name="Tracé 45564" transform="translate(-654.95 -404.92)"/>
                        <path id="Rectangle_12853" d="M0 0h14.237v.978H0z" class="cls-19" data-name="Rectangle 12853" transform="translate(.025 17.421)"/>
                    </g>
                    <path id="Tracé_45565" d="M659.831 410.219a5.911 5.911 0 0 0-11.756 0c0 .2-.025.4-.025.6V422.3h11.806v-11.48a4.826 4.826 0 0 0-.025-.601zm-5.89-4.161a4.745 4.745 0 0 1 4.712 4.161h-9.4a4.757 4.757 0 0 1 4.687-4.161zm-4.712 5.339h9.471v9.75h-9.475z" class="cls-3" data-name="Tracé 45565" transform="translate(-627.897 -404.905)"/>
                    <path id="Rectangle_12854" d="M0 0h11.455v1.128H0z" class="cls-19" data-name="Rectangle 12854" transform="translate(20.328 17.395)"/>
                </g>
                <g id="Entrée-2" data-name="Entrée" transform="translate(645.495 509.774)">
                    <g id="Fenêtre_gauche-2" data-name="Fenêtre gauche" transform="translate(0 .01)">
                        <path id="Tracé_45566" d="M653.4 444.75h-12.865a.7.7 0 1 1 0-1.4H653.4a.7.7 0 0 1 0 1.4z" class="cls-5" data-name="Tracé 45566" transform="translate(-639.836 -443.354)"/>
                    </g>
                    <g id="Fenêtre_droite-2" data-name="Fenêtre droite" transform="translate(38.586)">
                        <path id="Tracé_45567" d="M669.492 444.052a.7.7 0 0 1-.7.7h-12.86a.685.685 0 0 1-.7-.7.7.7 0 0 1 .7-.7h12.858a.717.717 0 0 1 .702.7z" class="cls-3" data-name="Tracé 45567" transform="translate(-655.23 -443.35)"/>
                    </g>
                </g>
                <g id="Toit-3" data-name="Toit" transform="translate(636.08 399.26)">
                    <path id="Tracé_45568" d="M706.289 399.26h-69.031a1.177 1.177 0 0 0-1.178 1.178v1.128a1.177 1.177 0 0 0 1.178 1.178h.677v128.185h68.128V402.744h.226a1.177 1.177 0 0 0 1.178-1.178v-1.128a1.177 1.177 0 0 0-1.178-1.178zm-66.274 3.94h63.942v5.89h-63.942zm18.348 125.629h-11.48v-14.192h11.48zm12.733 0h-5.264v-13.866h5.268zm6.693 0H672.5v-13.866h5.289zm0-15.265h-11.956v-2.381h11.956zm19.15 15.265h-11.455v-14.192h11.455zm7.018 0h-5.615v-15.596h-14.261v15.591h-4.913v-19.05h-14.739v19.05h-4.662v-15.591H645.5v15.591h-5.489V410.489h63.942z" class="cls-3" data-name="Tracé 45568" transform="translate(-636.08 -399.26)"/>
                </g>
            </g>
        </g>
    </g>
</svg>
