<svg xmlns="http://www.w3.org/2000/svg" width="107.937" height="85.213" viewBox="0 0 107.937 85.213">
    <defs>
        <style>
            .cls-1{fill:rgba(0,84,255,.33)}.cls-1,.cls-2,.cls-3,.cls-5,.cls-6{stroke:#0054ff;stroke-miterlimit:10}.cls-1,.cls-5{stroke-width:3.5px}.cls-2,.cls-4{fill:#0054ff}.cls-2{stroke-width:2.506px}.cls-3,.cls-5,.cls-6{fill:none}.cls-3{stroke-width:5.428px}.cls-6{stroke-width:2px}
        </style>
    </defs>
    <g id="Groupe_14359" data-name="Groupe 14359" transform="translate(-884.279 -3247.85)">
        <path id="Tracé_45808" d="M1017.4 554.75v63.967a7.356 7.356 0 0 1-7.356 7.356H920.31a7.351 7.351 0 0 1-7.35-7.356V554.75a7.35 7.35 0 0 1 7.35-7.35h89.73a7.355 7.355 0 0 1 7.36 7.35z" class="cls-1" data-name="Tracé 45808" transform="translate(-26.931 2702.2)"/>
        <path id="Rectangle_12947" d="M0 0h11.166v1.123a1.515 1.515 0 0 1-1.515 1.515H1.515A1.515 1.515 0 0 1 0 1.123V0z" class="cls-2" data-name="Rectangle 12947" transform="translate(897.858 3329.172)"/>
        <path id="Rectangle_12948" d="M0 0h11.166v1.123a1.515 1.515 0 0 1-1.515 1.515H1.515A1.515 1.515 0 0 1 0 1.123V0z" class="cls-2" data-name="Rectangle 12948" transform="translate(963.513 3329.172)"/>
        <path id="Tracé_45809" d="M976.758 607.715h.02a13.583 13.583 0 0 1-2.613 6.295l-.01-.01a13.737 13.737 0 0 1-.876 1.075c-.125.139-.254.274-.383.4s-.268.264-.408.388a13.773 13.773 0 0 1-1.07.876l.01.01a13.643 13.643 0 0 1-6.3 2.612v-.02a13.666 13.666 0 0 1-3.876 0v.02a13.665 13.665 0 0 1-6.3-2.612l.01-.01c-.259-.194-.507-.393-.756-.6a10.405 10.405 0 0 1-1.109-1.075c-.094-.1-.184-.2-.274-.309-.209-.249-.408-.5-.6-.756l-.01.01a13.582 13.582 0 0 1-2.613-6.295h.02a13.633 13.633 0 0 1 0-3.872h-.02a13.656 13.656 0 0 1 2.613-6.295l.01.01c.189-.259.388-.507.6-.756s.428-.488.662-.721c.114-.115.234-.229.358-.339s.239-.219.363-.324c.249-.209.5-.408.756-.6v-.005a13.563 13.563 0 0 1 6.29-2.612v.015a14.044 14.044 0 0 1 3.876 0v-.015a13.685 13.685 0 0 1 6.3 2.607l-.01.01c.383.293.761.592 1.119.926.125.11.239.224.358.339s.229.234.339.358c.328.358.632.736.92 1.119l.01-.01a13.657 13.657 0 0 1 2.613 6.295h-.02a13.633 13.633 0 0 1 .001 3.871z" class="cls-3" data-name="Tracé 45809" transform="translate(-42.503 2683.157)"/>
        <path id="Tracé_45810" d="M973.871 580.281v6.344a14.049 14.049 0 0 0-3.876 0v-6.344a1.313 1.313 0 0 1 1.313-1.314h1.249a1.313 1.313 0 0 1 1.314 1.314z" class="cls-4" data-name="Tracé 45810" transform="translate(-51.24 2688.746)"/>
        <path id="Tracé_45811" d="M973.871 639.6v6.345a1.313 1.313 0 0 1-1.313 1.314h-1.249a1.313 1.313 0 0 1-1.313-1.314V639.6a13.657 13.657 0 0 0 3.875 0z" class="cls-4" data-name="Tracé 45811" transform="translate(-51.24 2662.906)"/>
        <path id="Tracé_45812" d="M953.389 593.234c-.259.194-.507.393-.756.6-.125.1-.244.209-.363.324s-.244.224-.358.339c-.234.234-.453.472-.662.721s-.408.5-.6.756l-4.489-4.488a1.313 1.313 0 0 1 0-1.856l.886-.881a1.313 1.313 0 0 1 1.856 0z" class="cls-4" data-name="Tracé 45812" transform="translate(-40.919 2684.74)"/>
        <path id="Tracé_45813" d="M994.929 636.626l-.886.886a1.307 1.307 0 0 1-1.851 0l-4.488-4.489a13.8 13.8 0 0 0 1.069-.876 10.996 10.996 0 0 0 .791-.788 13.748 13.748 0 0 0 .876-1.075l4.489 4.488a1.313 1.313 0 0 1 0 1.854z" class="cls-4" data-name="Tracé 45813" transform="translate(-58.787 2666.875)"/>
        <path id="Tracé_45814" d="M944.047 616.453H937.7a1.311 1.311 0 0 1-1.309-1.309v-1.254a1.311 1.311 0 0 1 1.309-1.309h6.35a13.634 13.634 0 0 0-.003 3.872z" class="cls-4" data-name="Tracé 45814" transform="translate(-36.917 2674.42)"/>
        <path id="Tracé_45815" d="M1004.667 613.89v1.254a1.311 1.311 0 0 1-1.309 1.309h-6.35a13.634 13.634 0 0 0 0-3.872h6.35a1.311 1.311 0 0 1 1.309 1.309z" class="cls-4" data-name="Tracé 45815" transform="translate(-62.753 2674.42)"/>
        <path id="Tracé_45816" d="M953.389 633.024l-.01.01-4.473 4.478a1.313 1.313 0 0 1-1.856 0l-.886-.886a1.313 1.313 0 0 1 0-1.856l4.489-4.488c.189.259.388.507.6.756.09.1.18.209.274.309.125.139.254.278.388.413.234.234.473.453.721.662s.494.408.753.602z" class="cls-4" data-name="Tracé 45816" transform="translate(-40.919 2666.875)"/>
        <path id="Tracé_45817" d="M994.929 591.488l-4.489 4.488a15.215 15.215 0 0 0-.92-1.119 8.913 8.913 0 0 0-.697-.697 15.455 15.455 0 0 0-1.119-.925l.01-.01 4.478-4.473a1.307 1.307 0 0 1 1.851 0l.886.881a1.313 1.313 0 0 1 0 1.855z" class="cls-4" data-name="Tracé 45817" transform="translate(-58.787 2684.74)"/>
        <path id="Tracé_45818" d="M1057.348 587.808a7.7 7.7 0 0 1-5.368 7.653v23.416a2.325 2.325 0 0 1-2.325 2.325 2.325 2.325 0 0 1-2.326-2.325v-23.416a7.7 7.7 0 1 1 10.018-7.653z" class="cls-5" data-name="Tracé 45818" transform="translate(-81.91 2688.128)"/>
        <path id="Tracé_45572" d="M0 7.659h4.782l4.612-4.612V0" class="cls-6" data-name="Tracé 45572" transform="rotate(90 -1170.839 2079.096)"/>
        <ellipse id="Ellipse_2504" cx="2.974" cy="2.974" class="cls-6" data-name="Ellipse 2504" rx="2.974" ry="2.974" transform="rotate(90 -1170.949 2085.096)"/>
        <path id="Ligne_1097" d="M0 0h10.914" class="cls-6" data-name="Ligne 1097" transform="rotate(90 -1133.173 2115.077)"/>
        <ellipse id="Ellipse_2506" cx="2.974" cy="2.974" class="cls-6" data-name="Ellipse 2506" rx="2.974" ry="2.974" transform="rotate(90 -1137.144 2122.02)"/>
        <path id="Tracé_45574" d="M15.687 4.64H8.275L5.969 0H0" class="cls-6" data-name="Tracé 45574" transform="rotate(90 -1179.583 2132.214)"/>
        <circle id="Ellipse_2508" cx="2.974" cy="2.974" r="2.974" class="cls-6" data-name="Ellipse 2508" transform="rotate(90 -1175.408 2131.013)"/>
        <path id="Tracé_45572-2" d="M0 7.659h4.782l4.612-4.612V0" class="cls-6" data-name="Tracé 45572" transform="rotate(-90 2132.427 1195.316)"/>
        <ellipse id="Ellipse_2504-2" cx="2.974" cy="2.974" class="cls-6" data-name="Ellipse 2504" rx="2.974" ry="2.974" transform="rotate(-90 2126.427 1195.206)"/>
    </g>
</svg>
