<svg xmlns="http://www.w3.org/2000/svg" width="234.413" height="639.668" viewBox="0 0 234.413 639.668">
    <defs>
        <style>
            .cls-1,.cls-5,.cls-7{fill:#636466}.cls-1,.cls-16{opacity:.5}.cls-2{fill:#702a64}.cls-15,.cls-3{fill:#fff}.cls-4{fill:#4e4d4d;opacity:.14}.cls-17,.cls-5,.cls-9{opacity:.12}.cls-6,.cls-9{fill:#702963}.cls-10,.cls-7{opacity:.33}.cls-13,.cls-8{fill:none}.cls-10,.cls-11,.cls-12{fill:#00a099}.cls-11{opacity:.66}.cls-13,.cls-15{stroke:#702963;stroke-miterlimit:10;stroke-width:2px}.cls-14{opacity:.2}.cls-16,.cls-17{fill:#636566}
        </style>
    </defs>
    <g id="Groupe_14729" data-name="Groupe 14729" transform="translate(45.413 -82)">
        <g id="Groupe_12842" data-name="Groupe 12842" transform="translate(2.216 594.646)">
            <path id="Tracé_45524" d="M219.189 293.069a7.449 7.449 0 0 1 .335 2.268v17.031a.914.914 0 0 1 .722.9h10.074v-20.2z" class="cls-1" data-name="Tracé 45524" transform="translate(-163.82 -220.231)"/>
            <path id="Rectangle_12842" d="M0 0h2.602v5.617H0z" class="cls-1" data-name="Rectangle 12842" transform="translate(10.667 8.992)"/>
            <path id="Rectangle_12843" d="M0 0h4.432v5.617H0z" class="cls-1" data-name="Rectangle 12843" transform="translate(5.127 8.992)"/>
            <path id="Rectangle_12844" d="M0 0h8.889v.567H0z" class="cls-1" data-name="Rectangle 12844" transform="translate(4.38 5.72)"/>
            <path id="Rectangle_12845" d="M0 0h8.863v17.211H0z" class="cls-1" data-name="Rectangle 12845" transform="translate(4.406 107.621)"/>
            <path id="Rectangle_12846" d="M0 0h3.581v4.251H0z" class="cls-1" data-name="Rectangle 12846" transform="translate(9.688 101.824)"/>
            <path id="Rectangle_12847" d="M0 0h4.2v4.251H0z" class="cls-1" data-name="Rectangle 12847" transform="translate(4.38 101.824)"/>
            <path id="Tracé_45525" d="M272.42 235.613v84.9h8.889v-84.127h-8.863v-.773z" class="cls-1" data-name="Tracé 45525" transform="translate(-268.04 -220.231)"/>
            <path id="Tracé_45526" d="M283.5 226.157v.335l-.026.026h-66.449l-.026-.026v-.335zm-64.284 95.9v4.251h-.026v-4.251zm0-86.442v84.9h-.026v-84.9z" class="cls-2" data-name="Tracé 45526" transform="translate(-214.809 -220.231)"/>
            <g id="Groupe_12824" data-name="Groupe 12824" transform="translate(2.19 2.216)">
                <path id="Tracé_45527" d="M217 222.447v4.045l.026.026h66.448l.026-.026v-4.045z" class="cls-3" data-name="Tracé 45527" transform="translate(-216.999 -222.447)"/>
            </g>
            <path id="Rectangle_12848" d="M0 0h37.411v.979H0z" class="cls-4" data-name="Rectangle 12848" transform="translate(16.567 63.151)"/>
            <g id="Groupe_12826" data-name="Groupe 12826" transform="translate(14.454 68.174)">
                <path id="Tracé_45528" d="M253.715 313.759a1.265 1.265 0 0 0 1.263 1.262h14.995a1.263 1.263 0 0 0 1.262-1.262 1.248 1.248 0 0 0-.051-.309.89.89 0 0 1-.876.773h-15.64a.9.9 0 0 1-.9-.773 1.289 1.289 0 0 0-.053.309z" class="cls-5" data-name="Tracé 45528" transform="translate(-253.715 -288.405)"/>
                <g id="Groupe_12825" data-name="Groupe 12825" transform="translate(1.287)">
                    <path id="Tracé_45529" d="M255.57 294.792h13.81a6.926 6.926 0 0 0-13.81 0z" class="cls-3" data-name="Tracé 45529" transform="translate(-255.002 -288.405)"/>
                    <path id="Rectangle_12849" d="M0 0h13.862v7.266H0z" class="cls-3" data-name="Rectangle 12849" transform="translate(.542 7.499)"/>
                    <path id="Rectangle_12850" d="M0 0h13.862v7.601H0z" class="cls-3" data-name="Rectangle 12850" transform="translate(.542 16.284)"/>
                    <path id="Tracé_45530" d="M269.948 294.792a3.757 3.757 0 0 0-.026.541v-.541z" class="cls-2" data-name="Tracé 45530" transform="translate(-269.921 -288.405)"/>
                </g>
                <path id="Tracé_45531" d="M269.922 294.792v.541a3.757 3.757 0 0 1 .026-.541z" class="cls-6" data-name="Tracé 45531" transform="translate(-268.634 -288.405)"/>
            </g>
            <g id="Groupe_12827" data-name="Groupe 12827" transform="translate(38.905 93.038)">
                <path id="Tracé_45532" d="M229.263 313.759a1.265 1.265 0 0 0 1.263 1.262h14.995a1.265 1.265 0 0 0 1.263-1.262 1.289 1.289 0 0 0-.052-.309.9.9 0 0 1-.9.773h-15.639a.869.869 0 0 1-.876-.773 1.243 1.243 0 0 0-.054.309z" class="cls-5" data-name="Tracé 45532" transform="translate(-229.263 -313.269)"/>
                <path id="Tracé_45533" d="M229.26 313.269a.477.477 0 0 1 .052.181.217.217 0 0 0 .052-.181z" class="cls-6" data-name="Tracé 45533" transform="translate(-211.843 -313.269)"/>
            </g>
            <g id="Groupe_12828" data-name="Groupe 12828" transform="translate(16.464 18.861)">
                <path id="Tracé_45534" d="M250.416 239.092a18.835 18.835 0 0 1 18.809 18.834v25.456h-37.617v-25.456a18.853 18.853 0 0 1 18.808-18.834zm.722 42.1h15.9v-10h-15.9zm0-11.1h15.9v-10.543h-15.9zm0-11.646h15.9v-.515a16.6 16.6 0 0 0-15.9-16.593zM233.8 281.192h16.23v-10H233.8zm0-11.1h16.23v-10.543H233.8zm0-11.646h16.23v-17.113a16.609 16.609 0 0 0-16.23 16.593z" class="cls-6" data-name="Tracé 45534" transform="translate(-231.608 -239.092)"/>
            </g>
            <g id="Groupe_12835" data-name="Groupe 12835" transform="translate(29.113 102.055)">
                <g id="Groupe_12830" data-name="Groupe 12830">
                    <g id="Groupe_12829" data-name="Groupe 12829">
                        <path id="Tracé_45535" d="M245.006 326.409h11.285c0-.051-.026-.077-.026-.1a6.176 6.176 0 0 0-1.8-2.653 4.959 4.959 0 0 0-1.108-.7 5.613 5.613 0 0 0-2.706-.67 5.913 5.913 0 0 0-2.035.361 5.238 5.238 0 0 0-1.082.515 6.046 6.046 0 0 0-2.5 3.143c-.002.027-.028.053-.028.104z" class="cls-3" data-name="Tracé 45535" transform="translate(-244.721 -322.286)"/>
                        <path id="Tracé_45536" d="M244.721 327.723v16.954H250v-16.464a1.561 1.561 0 0 0-.026-.361v-.129z" class="cls-3" data-name="Tracé 45536" transform="translate(-238.148 -322.286)"/>
                        <path id="Tracé_45537" d="M251.319 328.213v16.464h5.257v-16.954h-5.231v.129a1.564 1.564 0 0 0-.026.361z" class="cls-3" data-name="Tracé 45537" transform="translate(-251.318 -322.286)"/>
                    </g>
                </g>
            </g>
            <g id="Groupe_12836" data-name="Groupe 12836" transform="translate(4.38 15.382)">
                <path id="Tracé_45550" d="M281.309 235.613v.773h-.026v-.773z" class="cls-6" data-name="Tracé 45550" transform="translate(-281.283 -235.613)"/>
                <path id="Tracé_45551" d="M254.436 312.368v-17.031a8.038 8.038 0 1 1 16.077 0v17.031a.914.914 0 0 1 .721.9.221.221 0 0 1-.051.181.89.89 0 0 1-.876.773h-15.64a.9.9 0 0 1-.9-.773.217.217 0 0 1-.052-.181.913.913 0 0 1 .721-.9zm8.038-23.962a6.956 6.956 0 0 0-6.9 6.39h13.81a6.937 6.937 0 0 0-6.91-6.39zm-6.931 23.884H269.4v-7.6h-13.857zm0-9.121H269.4V295.9h-13.857zM255 294.8v.541a3.763 3.763 0 0 1 .026-.541z" class="cls-6" data-name="Tracé 45551" transform="translate(-243.64 -235.613)"/>
                <path id="Tracé_45552" d="M229.982 312.368v-17.031a8.034 8.034 0 0 1 15.742-2.268 7.449 7.449 0 0 1 .335 2.268v17.031a.914.914 0 0 1 .722.9h-.1a.477.477 0 0 1 .052.181.9.9 0 0 1-.9.773h-15.639a.869.869 0 0 1-.876-.773.217.217 0 0 1-.052-.181.914.914 0 0 1 .716-.9zm8.038-23.962a6.938 6.938 0 0 0-6.9 6.39h13.81a6.954 6.954 0 0 0-6.91-6.39zm-6.93 23.884h13.861v-7.6H231.09zm0-9.121h13.861V295.9H231.09z" class="cls-6" data-name="Tracé 45552" transform="translate(-194.735 -235.613)"/>
            </g>
            <g id="Groupe_12839" data-name="Groupe 12839" transform="translate(55.859 118.211)">
                <g id="Groupe_12838" data-name="Groupe 12838">
                    <g id="Groupe_12837" data-name="Groupe 12837">
                        <path id="Tracé_45553" d="M229.829 338.519v.155a.447.447 0 0 0-.025-.181zm0 0v.155a.447.447 0 0 0-.025-.181zm0 0v.155a.447.447 0 0 0-.025-.181zm0 0v.155a.447.447 0 0 0-.025-.181zm0 0v.155a.447.447 0 0 0-.025-.181z" class="cls-6" data-name="Tracé 45553" transform="translate(-229.804 -338.442)"/>
                        <path id="Tracé_45554" d="M229.47 338.467v.052c0-.026-.026-.052-.026-.077zm0 0v.052c0-.026-.026-.052-.026-.077zm0 0v.052c0-.026-.026-.052-.026-.077zm-.026.567a.025.025 0 0 1 .026.024h-.052zm.026-.567v.052c0-.026-.026-.052-.026-.077zm0 0v.052c0-.026-.026-.052-.026-.077z" class="cls-6" data-name="Tracé 45554" transform="translate(-229.058 -338.442)"/>
                    </g>
                    <path id="Tracé_45555" d="M229.418 339.06h.052a.025.025 0 0 0-.024-.026z" class="cls-6" data-name="Tracé 45555" transform="translate(-229.058 -338.442)"/>
                </g>
            </g>
            <g id="Plante">
                <g id="Groupe_12841" data-name="Groupe 12841">
                    <g id="Groupe_12840" data-name="Groupe 12840">
                        <path id="Tracé_45556" d="M217.025 220.231h66.448a2.216 2.216 0 0 1 2.216 2.216v4.045a2.211 2.211 0 0 1-2.19 2.216v118.545H217V228.708a2.227 2.227 0 0 1-2.19-2.216v-4.045a2.233 2.233 0 0 1 2.215-2.216zm46.068 124.832h11.388v-3.014h-11.363s-.025 0-.025.051zm7.961-6.235v.052a.154.154 0 0 0 .026.1 1.489 1.489 0 0 0 1.763-1.154c.006-.028.011-.055.015-.083a1.3 1.3 0 0 0 0-.541 1.572 1.572 0 0 0-1.34.412c-.026.052-.077.078-.1.129a.888.888 0 0 0-.206.335 1.129 1.129 0 0 0-.129.386l-.026-.025c0 .025.026.051.026.077v.026a1.148 1.148 0 0 0-.029.286zm0 .206l-.026.026h.052a.025.025 0 0 0-.024-.026zm-.361-.335v-.18l-.025-.026a1.586 1.586 0 0 0-.152-.515.6.6 0 0 0-.155-.232.434.434 0 0 0-.1-.129 1.465 1.465 0 0 0-.953-.412 1.1 1.1 0 0 0-.412 0 1.886 1.886 0 0 0 0 .541 1.214 1.214 0 0 0 .283.644.467.467 0 0 0 .129.181 1.5 1.5 0 0 0 1.366.412 1.082 1.082 0 0 0 .019-.284zm-4.9-3.169a1.5 1.5 0 0 0 1.366-.412 1.673 1.673 0 0 0 .463-1.185.513.513 0 0 0-.025-.206 1.714 1.714 0 0 0-1.082.206.884.884 0 0 0-.31.232 1.461 1.461 0 0 0-.438 1.056 1.237 1.237 0 0 0 .026.309zm-.412-.309a1.46 1.46 0 0 0-.438-1.056.974.974 0 0 0-.335-.232 1.331 1.331 0 0 0-1.031-.206.574.574 0 0 0-.026.206 1.55 1.55 0 0 0 .439 1.185 1.5 1.5 0 0 0 1.365.412 1.234 1.234 0 0 0 .026-.309zm-8.3 9.842h4.69V342.1a1.373 1.373 0 0 1 1.339-1.391h2.19v-4.817a.72.72 0 0 1-.231.026 1.9 1.9 0 0 1-1.34-.541 1.788 1.788 0 0 1-.541-1.443.8.8 0 0 1 .051-.412l.026-.1.1-.026a1.912 1.912 0 0 1 1.829.489l.052.052a1.425 1.425 0 0 1 .309.489 2.069 2.069 0 0 1 .335-.489l.052-.052a1.928 1.928 0 0 1 1.829-.489l.1.026.052.1a2.381 2.381 0 0 1 .051.412v.051a1.926 1.926 0 0 1-.567 1.392 1.893 1.893 0 0 1-1.339.541.7.7 0 0 1-.232-.026v4.818h4.766v-1.365a.726.726 0 0 1-.232.025 1.94 1.94 0 0 1-1.056-.309 1.245 1.245 0 0 1-.284-.232 1.744 1.744 0 0 1-.309-.438 1.454 1.454 0 0 1-.206-.644 1.844 1.844 0 0 1 .026-.747l.026-.1.1-.026a2.565 2.565 0 0 1 .618-.051 1.812 1.812 0 0 1 1.211.541 1.223 1.223 0 0 1 .283.386.223.223 0 0 1 .078.155.541.541 0 0 1 .1-.155 1.223 1.223 0 0 1 .283-.386 1.929 1.929 0 0 1 1.8-.49l.1.026.026.1a1.865 1.865 0 0 1 .051.747 1.745 1.745 0 0 1-.541 1.082 1.193 1.193 0 0 1-.283.232 1.882 1.882 0 0 1-1.057.309.575.575 0 0 1-.206-.025v1.365h3.324a1.371 1.371 0 0 1 1.314 1.391v2.963h5.514v-17.212h-24.22zm24.22-18.757v-4.251h-4.329v4.251zm-5.334-2.5a.616.616 0 0 0-.077-.309v-1.443h-4.741v4.246h4.741v-2.19a.691.691 0 0 0 .08-.308zm-5.926 2.5v-4.251H265.3v4.251zm-5.823 0v-4.251h-4.74v4.251zm-5.848 0v-4.251h-4.712a7.278 7.278 0 0 1 3.169 4.251zm-5.823-3.349a5.613 5.613 0 0 0-2.706-.67 5.913 5.913 0 0 0-2.035.361 5.238 5.238 0 0 0-1.082.515 6.046 6.046 0 0 0-2.5 3.143c0 .026-.026.052-.026.1h11.289c0-.051-.026-.077-.026-.1a6.176 6.176 0 0 0-1.8-2.653 4.984 4.984 0 0 0-1.111-.7zm-2.061 21.72h5.282v-16.464a1.56 1.56 0 0 0-.026-.361v-.129h-5.256zm-6.571 0h5.257v-16.954h-5.231v.129a1.56 1.56 0 0 0-.026.361zm2.113-22.622h-4.045v4.251h.875a7.074 7.074 0 0 1 3.173-4.251zm-12.754 23.008h3.53v-2.782a1.164 1.164 0 0 0-.051-.361H233.3a1.364 1.364 0 0 0-.026.361zm2.01-5.822a1.121 1.121 0 0 0 .9-.181.928.928 0 0 0 .258-.18 1.3 1.3 0 0 0 .36-1.134v-.077a1.312 1.312 0 0 0-.773.077 1.826 1.826 0 0 0-.438.283 1.236 1.236 0 0 0-.309.49zm0-3.273a1.255 1.255 0 0 0 1.16-.386 1.314 1.314 0 0 0 .36-1.211 1.329 1.329 0 0 0-1.211.386 1.445 1.445 0 0 0-.309.516zm0-3.452a1.258 1.258 0 0 0 1.16-.387 1.314 1.314 0 0 0 .36-1.211 1.33 1.33 0 0 0-1.211.387 1.45 1.45 0 0 0-.309.515zm-2.164 8.631h1.68v-1.572a.581.581 0 0 1-.207.026 1.7 1.7 0 0 1-1.185-.489l-.051-.052a1.569 1.569 0 0 1-.413-1.314.427.427 0 0 1 .026-.257l.026-.1.077-.025a1.675 1.675 0 0 1 1.572.386c.026 0 .051.026.077.052s.052.077.078.1v-1.624a.5.5 0 0 1-.207.026 1.6 1.6 0 0 1-1.185-.489 1.642 1.642 0 0 1-.438-1.623l.026-.078.077-.025a1.7 1.7 0 0 1 1.649.437.36.36 0 0 1 .078.1v-1.8a.5.5 0 0 1-.207.026 1.6 1.6 0 0 1-.824-.232 1.17 1.17 0 0 1-.361-.258 1.637 1.637 0 0 1-.438-1.623l.026-.077.077-.026a1.7 1.7 0 0 1 1.649.438 1.45 1.45 0 0 1 .309.464h.029a1.5 1.5 0 0 1 .309-.464 1.67 1.67 0 0 1 1.624-.438l.077.026h.026l.025.077a1.66 1.66 0 0 1-.051 1 1.55 1.55 0 0 1-.387.618 1.165 1.165 0 0 1-.36.258 1.6 1.6 0 0 1-.825.232.573.573 0 0 1-.206-.026v1.8a.392.392 0 0 1 .077-.1 1.672 1.672 0 0 1 1.624-.437l.077.025h.026l.025.078a1.659 1.659 0 0 1-.051 1 1.56 1.56 0 0 1-.387.619 1.634 1.634 0 0 1-1.185.489.572.572 0 0 1-.206-.026v1.631c.026-.026.052-.078.077-.1l.052-.052a1.691 1.691 0 0 1 1.579-.388l.077.025h.026l.025.1a1.69 1.69 0 0 1-.386 1.571l-.052.052a1.748 1.748 0 0 1-1.185.489.5.5 0 0 1-.206-.026v1.572h1.668c.361 0 .593.438.593 1.134v2.782h5.024v-17.207h-23.373v17.211h13.3v-2.782c0-.7.231-1.134.618-1.134zm1.675-1.906v-.649a1.036 1.036 0 0 0-.31-.567 2.522 2.522 0 0 0-.438-.283 1.4 1.4 0 0 0-.8-.077c0 .026-.026.051 0 .077a1.4 1.4 0 0 0 .386 1.134.928.928 0 0 0 .258.18 1.142 1.142 0 0 0 .907.185zm0-3.273v-.644a1.036 1.036 0 0 0-.31-.567 1.373 1.373 0 0 0-1.236-.386 1.4 1.4 0 0 0 .386 1.211 1.253 1.253 0 0 0 1.163.386zm0-3.452v-.644a1.032 1.032 0 0 0-.31-.567 1.373 1.373 0 0 0-1.236-.387 1.4 1.4 0 0 0 .386 1.211 1.256 1.256 0 0 0 1.163.387zm6.08-6.21v-4.251h-4.741v4.251zm-5.823 0v-4.251h-4.74v4.251zm-5.848 0v-4.251h-4.715v4.251zm-10.023 0h4.2v-4.251h-4.2zm0-5.8h62.12v-84.12h-62.089v-.773h-.026zm62.12-85.669v-5.617h-4.123v5.617zm-5.2 0v-5.617h-4.663v5.617zm-5.746 0v-5.617H265.7v5.617zm-5.745 0v-5.617h-4.664v5.617zm-5.746 0v-5.617h-4.663v5.617zm-5.745 0v-5.617h-4.661v5.617zm-5.746 0v-5.617h-4.663v5.617zm-5.771 0v-5.617h-4.644v5.617zm-5.746 0v-5.617h-4.638v5.617zm-5.746 0v-5.617h-4.637v5.617zm-5.745 0v-5.617h-4.432v5.617zM217 226.489l.026.026h66.446l.026-.026v-4.045H217z" class="cls-6" data-name="Tracé 45556" transform="translate(-214.809 -220.231)"/>
                    </g>
                </g>
            </g>
        </g>
        <g id="Groupe_13514" data-name="Groupe 13514" transform="translate(80.21 263.92)">
            <path id="Rectangle_12694" d="M0 0h5.301v11.059H0z" class="cls-1" data-name="Rectangle 12694" transform="translate(38.943 63.471)"/>
            <path id="Rectangle_12695" d="M0 0h6.356v93.556H0z" class="cls-1" data-name="Rectangle 12695" transform="translate(3.884 1.195)"/>
            <path id="Mur" d="M333.765 230.2h60.742v-95.186h-60.742zm59.035-1.806h-57.328V136.82H392.8z" class="cls-6" transform="translate(-331.243 -134.499)"/>
            <g id="Fenêtre_droite" data-name="Fenêtre droite" transform="translate(9.245 62.045)">
                <rect id="Rectangle_12696" width="13.612" height="1.97" class="cls-5" data-name="Rectangle 12696" rx=".256" transform="translate(0 11.783)"/>
                <path id="Tracé_44899" d="M374.74 209.02h12.476V198.2a1.654 1.654 0 0 0-1.652-1.652h-9.172a1.654 1.654 0 0 0-1.652 1.652zm11.623-.853h-10.77V198.2a.8.8 0 0 1 .8-.8h9.172a.8.8 0 0 1 .8.8z" class="cls-2" data-name="Tracé 44899" transform="translate(-374.172 -196.544)"/>
                <rect id="Rectangle_12697" width="13.612" height="1.463" class="cls-6" data-name="Rectangle 12697" rx=".19" transform="translate(0 11.654)"/>
            </g>
            <g id="Fenêtre_centre" data-name="Fenêtre centre" transform="translate(26.325 62.045)">
                <rect id="Rectangle_12698" width="13.612" height="1.97" class="cls-5" data-name="Rectangle 12698" rx=".256" transform="translate(0 11.783)"/>
                <g id="Groupe_13272" data-name="Groupe 13272" transform="translate(.568)">
                    <path id="Tracé_44900" d="M357.66 209.02h12.476V198.2a1.654 1.654 0 0 0-1.651-1.652h-9.173a1.654 1.654 0 0 0-1.652 1.652zm11.623-.853h-10.769V198.2a.8.8 0 0 1 .8-.8h9.173a.8.8 0 0 1 .8.8z" class="cls-2" data-name="Tracé 44900" transform="translate(-357.66 -196.544)"/>
                </g>
                <rect id="Rectangle_12699" width="13.612" height="1.463" class="cls-6" data-name="Rectangle 12699" rx=".19" transform="translate(0 11.654)"/>
            </g>
            <g id="Fenêtre_gauche" data-name="Fenêtre gauche" transform="translate(43.405 62.045)">
                <rect id="Rectangle_12700" width="13.612" height="1.97" class="cls-5" data-name="Rectangle 12700" rx=".256" transform="translate(0 11.783)"/>
                <g id="Groupe_13273" data-name="Groupe 13273" transform="translate(.568)">
                    <path id="Rectangle_12701" d="M1.512 0h8.6a1.512 1.512 0 0 1 1.512 1.512v10.111H0V1.512A1.512 1.512 0 0 1 1.512 0z" class="cls-3" data-name="Rectangle 12701" transform="translate(.427 .427)"/>
                    <path id="Tracé_44901" d="M340.58 209.02h12.476V198.2a1.654 1.654 0 0 0-1.651-1.652h-9.173a1.654 1.654 0 0 0-1.652 1.652zm11.623-.853h-10.769V198.2a.8.8 0 0 1 .8-.8h9.166a.8.8 0 0 1 .8.8z" class="cls-2" data-name="Tracé 44901" transform="translate(-340.58 -196.544)"/>
                </g>
                <rect id="Rectangle_12702" width="13.612" height="1.463" class="cls-6" data-name="Rectangle 12702" rx=".19" transform="translate(0 11.654)"/>
            </g>
            <g id="Centre" transform="translate(.475 53.786)">
                <path id="Rectangle_12703" d="M0 0h57.328v.964H0z" class="cls-4" data-name="Rectangle 12703" transform="translate(3.754 1.306)"/>
                <path id="Tracé_44902" d="M332.811 189.988h62.651a.878.878 0 1 0 0-1.7h-62.651a.878.878 0 1 0 0 1.7z" class="cls-2" data-name="Tracé 44902" transform="translate(-331.718 -188.285)"/>
            </g>
            <g id="Fenêtre_haut" data-name="Fenêtre haut" transform="translate(7.824 13.144)">
                <g id="Groupe_13274" data-name="Groupe 13274" transform="translate(11.189)">
                    <path id="Tracé_44903" d="M349.48 181.348h28.536v-19.437a14.268 14.268 0 1 0-28.536 0zm27.512-1.024H350.5v-18.413a13.244 13.244 0 0 1 26.488 0z" class="cls-2" data-name="Tracé 44903" transform="translate(-349.48 -147.643)"/>
                    <path id="Rectangle_12704" d="M0 0h27.254v.705H0z" class="cls-2" data-name="Rectangle 12704" transform="translate(.771 14.754)"/>
                    <path id="Rectangle_12705" d="M0 0h.683v18.087H0z" class="cls-6" data-name="Rectangle 12705" transform="translate(18.926 15.107)"/>
                    <path id="Rectangle_12706" d="M0 0h.683v18.087H0z" class="cls-6" data-name="Rectangle 12706" transform="translate(8.781 15.107)"/>
                    <path id="Rectangle_12707" d="M0 0h27.87v.683H0z" class="cls-6" data-name="Rectangle 12707" transform="translate(.44 23.809)"/>
                    <path id="Rectangle_12708" d="M0 0h24.809v.683H0z" class="cls-6" data-name="Rectangle 12708" transform="translate(1.864 7.974)"/>
                </g>
                <path id="Tracé_44904" d="M338.671 181.348h7.787v-25.469a3.894 3.894 0 0 0-7.787 0zm6.762-1.024H339.7v-24.445a2.868 2.868 0 1 1 5.737 0z" class="cls-2" data-name="Tracé 44904" transform="translate(-295.924 -147.643)"/>
                <g id="Groupe_13275" data-name="Groupe 13275" transform="translate(0 4.343)">
                    <path id="Rectangle_12709" d="M.879 0h5a.879.879 0 0 1 .879.879v27.459H0V.879A.879.879 0 0 1 .879 0z" class="cls-3" data-name="Rectangle 12709" transform="translate(.512 .512)"/>
                    <path id="Tracé_44905" d="M381.419 181.348h7.786v-25.469a3.893 3.893 0 1 0-7.786 0zm6.762-1.024h-5.738v-24.445a2.869 2.869 0 1 1 5.738 0z" class="cls-2" data-name="Tracé 44905" transform="translate(-381.419 -151.986)"/>
                </g>
            </g>
            <g id="Entrée" transform="translate(3.146 80.724)">
                <path id="Tracé_44906" d="M355.19 229.923h17.477v-10.337a4.368 4.368 0 0 0-4.363-4.363h-8.751a4.368 4.368 0 0 0-4.363 4.363zm16.111-1.365h-14.745v-8.972a3 3 0 0 1 3-3h8.744a3 3 0 0 1 3 3z" class="cls-2" data-name="Tracé 44906" transform="translate(-333.974 -215.223)"/>
                <path id="Rectangle_12710" d="M0 0h1.024v13.353H0z" class="cls-2" data-name="Rectangle 12710" transform="translate(29.443 .674)"/>
                <g id="Groupe_13278" data-name="Groupe 13278" transform="translate(0 4.079)">
                    <g id="Groupe_13276" data-name="Groupe 13276" transform="translate(37.498)">
                        <path id="Rectangle_12711" d="M0 0h21.831v1.195H0z" class="cls-2" data-name="Rectangle 12711"/>
                    </g>
                    <g id="Groupe_13277" data-name="Groupe 13277">
                        <path id="Rectangle_12712" d="M0 0h21.387v1.195H0z" class="cls-2" data-name="Rectangle 12712"/>
                    </g>
                </g>
                <g id="Groupe_13281" data-name="Groupe 13281" transform="translate(0 8.003)">
                    <g id="Groupe_13279" data-name="Groupe 13279" transform="translate(37.498)">
                        <path id="Rectangle_12713" d="M0 0h21.831v1.195H0z" class="cls-2" data-name="Rectangle 12713"/>
                    </g>
                    <g id="Groupe_13280" data-name="Groupe 13280">
                        <path id="Rectangle_12714" d="M0 0h21.387v1.195H0z" class="cls-2" data-name="Rectangle 12714"/>
                    </g>
                </g>
            </g>
            <g id="Toit">
                <path id="Ombre_toit" d="M0 0h57.328v.964H0z" class="cls-4" data-name="Ombre toit" transform="translate(4.229 2.215)"/>
                <path id="Tracé_44907" d="M331.509 145.723h64.837a.683.683 0 1 0 0-1.365h-64.837a.683.683 0 0 0 0 1.365z" class="cls-6" data-name="Tracé 44907" transform="translate(-330.827 -134.499)"/>
                <g id="Groupe_13284" data-name="Groupe 13284" transform="translate(.475)">
                    <path id="Tracé_44908" d="M364.136 142.9a2.184 2.184 0 1 0-2.184-2.184 2.187 2.187 0 0 0 2.184 2.184zm0-3.685a1.5 1.5 0 1 1-1.5 1.5 1.5 1.5 0 0 1 1.5-1.505z" class="cls-6" data-name="Tracé 44908" transform="translate(-331.718 -134.499)"/>
                    <g id="Groupe_13282" data-name="Groupe 13282" transform="translate(7.087 5.87)">
                        <path id="Tracé_44909" d="M369.643 141.052h7.37a.341.341 0 0 0 0-.683h-7.37a.341.341 0 0 0 0 .683z" class="cls-6" data-name="Tracé 44909" transform="translate(-357.189 -140.369)"/>
                        <path id="Tracé_44910" d="M381.756 141.052h7.37a.341.341 0 0 0 0-.683h-7.37a.341.341 0 0 0 0 .683z" class="cls-6" data-name="Tracé 44910" transform="translate(-381.415 -140.369)"/>
                    </g>
                    <g id="Groupe_13283" data-name="Groupe 13283" transform="translate(37.584 5.87)">
                        <path id="Tracé_44911" d="M339.146 141.052h7.37a.341.341 0 0 0 0-.683h-7.37a.341.341 0 0 0 0 .683z" class="cls-6" data-name="Tracé 44911" transform="translate(-326.692 -140.369)"/>
                        <path id="Tracé_44912" d="M351.259 141.052h7.369a.341.341 0 1 0 0-.683h-7.369a.341.341 0 1 0 0 .683z" class="cls-6" data-name="Tracé 44912" transform="translate(-350.917 -140.369)"/>
                    </g>
                    <path id="Tracé_44913" d="M332.811 136.888h62.651a1.2 1.2 0 0 0 0-2.389h-62.651a1.2 1.2 0 0 0 0 2.389z" class="cls-2" data-name="Tracé 44913" transform="translate(-331.718 -134.499)"/>
                </g>
            </g>
        </g>
        <g id="Groupe_12869" data-name="Groupe 12869" transform="translate(9.305 82)">
            <path id="Tracé_45575" d="M387.948 296.869h7.142l8.314-13.428h-4.371z" class="cls-7" data-name="Tracé 45575" transform="translate(-382.752 -281.585)"/>
            <path id="Tracé_45576" d="M333.867 313.982a5.286 5.286 0 0 1 .086.972v5.938a.739.739 0 0 1 .629.743v.028h6.942v-7.681z" class="cls-7" data-name="Tracé 45576" transform="translate(-266.791 -281.585)"/>
            <path id="Tracé_45577" d="M396.835 342.037v4.2h.055v-4.428a.532.532 0 0 0-.055.228z" class="cls-7" data-name="Tracé 45577" transform="translate(-385.125 -281.585)"/>
            <path id="Tracé_45578" d="M396.833 302.892v42.8h5.767v-3.657a1.638 1.638 0 0 1 1.172-1.6v-37.543z" class="cls-7" data-name="Tracé 45578" transform="translate(-392.009 -281.585)"/>
            <path id="Rectangle_12869" d="M0 0h7.571v1.143H0z" class="cls-7" data-name="Rectangle 12869" transform="translate(4.196 18.284)"/>
            <path id="Tracé_45579" d="M405.661 298.726v2.286h-1.886V298.9h-69.909v2.114h-1.885v-2.286zm-64.854 46.966v.543h-.057v-.543z" class="cls-2" data-name="Tracé 45579" transform="translate(-329.042 -281.585)"/>
            <g id="Groupe_12848" data-name="Groupe 12848" transform="translate(52.905 26.483)">
                <g id="Groupe_12847" data-name="Groupe 12847">
                    <path id="Tracé_45580" d="M340.806 322.039v.114a1.023 1.023 0 0 0 1.02 1.028h12.839a1.023 1.023 0 0 0 1.029-1.019v-.123c0-.057 0-.115-.029-.143a.77.77 0 0 1-.743.571h-13.341a.77.77 0 0 1-.743-.571c-.032.028-.032.086-.032.143z" class="cls-5" data-name="Tracé 45580" transform="translate(-340.805 -308.068)"/>
                    <g id="Groupe_12846" data-name="Groupe 12846">
                        <path id="Tracé_45581" d="M342.381 314.382h11.713a5.884 5.884 0 0 0-11.713 0z" class="cls-3" data-name="Tracé 45581" transform="translate(-340.78 -308.068)"/>
                        <path id="Rectangle_12870" d="M0 0h11.77v5.314H0z" class="cls-3" data-name="Rectangle 12870" transform="translate(1.573 7.457)"/>
                        <path id="Tracé_45582" d="M341.439 320.892v-5.942a6.8 6.8 0 0 1 13.541-.972 5.286 5.286 0 0 1 .086.972v5.942a.739.739 0 0 1 .629.743v.028h-.086a.312.312 0 0 1 .057.229.769.769 0 0 1-.743.571h-13.341a.769.769 0 0 1-.743-.571.346.346 0 0 1-.029-.171v-.086a.739.739 0 0 1 .629-.743zm6.83-11.824a5.872 5.872 0 0 0-5.857 5.314h11.711a5.89 5.89 0 0 0-5.854-5.314zm-5.885 11.771h11.77v-5.314h-11.77z" class="cls-6" data-name="Tracé 45582" transform="translate(-340.809 -308.068)"/>
                    </g>
                    <path id="Tracé_45583" d="M340.808 321.667a.312.312 0 0 1 .057.229.346.346 0 0 0 .029-.171v-.058z" class="cls-6" data-name="Tracé 45583" transform="translate(-326.008 -308.068)"/>
                </g>
            </g>
            <g id="Groupe_12850" data-name="Groupe 12850" transform="translate(13.763 26.537)">
                <path id="Tracé_45584" d="M379.949 322.039v.114a1.042 1.042 0 0 0 1.028 1.028h12.858a1.018 1.018 0 0 0 1-1.028v-.114a.217.217 0 0 0-.028-.143.715.715 0 0 1-.715.571h-13.37a.772.772 0 0 1-.743-.571.217.217 0 0 0-.03.143z" class="cls-5" data-name="Tracé 45584" transform="translate(-379.947 -308.122)"/>
                <g id="Groupe_12849" data-name="Groupe 12849" transform="translate(.003)">
                    <path id="Tracé_45585" d="M381.52 314.382h11.715a5.885 5.885 0 0 0-11.714 0z" class="cls-3" data-name="Tracé 45585" transform="translate(-379.921 -308.122)"/>
                    <path id="Rectangle_12871" d="M0 0h11.77v5.314H0z" class="cls-3" data-name="Rectangle 12871" transform="translate(1.572 7.403)"/>
                    <path id="Tracé_45586" d="M380.577 320.892v-5.942a6.828 6.828 0 1 1 13.656 0v5.942a.715.715 0 0 1 .6.743v.086a.372.372 0 0 1-.028.171.715.715 0 0 1-.715.571h-13.37a.772.772 0 0 1-.743-.571.372.372 0 0 1-.028-.171v-.086a.739.739 0 0 1 .628-.743zm6.828-11.828a5.872 5.872 0 0 0-5.857 5.314h11.714a5.871 5.871 0 0 0-5.857-5.31zm-5.885 11.771h11.77v-5.314h-11.77z" class="cls-6" data-name="Tracé 45586" transform="translate(-379.948 -308.122)"/>
                </g>
            </g>
            <g id="Groupe_12852" data-name="Groupe 12852" transform="translate(41.559 57.546)">
                <g id="Groupe_12851" data-name="Groupe 12851">
                    <path id="Ligne_1237" d="M1.688 0H0" class="cls-8" data-name="Ligne 1237"/>
                </g>
            </g>
            <path id="Tracé_45587" d="M331.431 298.726h1.8l-.2.229h72.083l-.2-.229h1.8a.028.028 0 0 1 .029.027v1.63a1.772 1.772 0 0 1-.571.372 2.529 2.529 0 0 1-.458.057h-73.279a1.523 1.523 0 0 1-1.029-.429v-1.628z" class="cls-2" data-name="Tracé 45587" transform="translate(-329.549 -281.585)"/>
            <g id="Groupe_12853" data-name="Groupe 12853" transform="translate(1.853 17.141)">
                <path id="Tracé_45588" d="M331.41 298.755v2.257h75.337v-2.257a.028.028 0 0 0-.027-.029h-75.281z" class="cls-3" data-name="Tracé 45588" transform="translate(-331.41 -298.726)"/>
            </g>
            <g id="Plante-2">
                <path id="Tracé_45589" d="M379.52 329.038c.028.029.057.086.085.114l.115-.114-.115.057z" class="cls-6" data-name="Tracé 45589" transform="translate(-350.64 -281.585)"/>
                <path id="Tracé_45590" d="M382.948 336.723v.629a2.06 2.06 0 0 0 .028-.4v-.06a.375.375 0 0 0-.028-.169z" class="cls-6" data-name="Tracé 45590" transform="translate(-357.325 -281.585)"/>
                <path id="Tracé_45591" d="M392.491 329.924l.029.057c.028 0 .057-.029.085-.029z" class="cls-6" data-name="Tracé 45591" transform="translate(-376.496 -281.585)"/>
                <path id="Tracé_45592" d="M392.6 329.809l.114.114-.057-.143z" class="cls-6" data-name="Tracé 45592" transform="translate(-376.724 -281.585)"/>
                <path id="Tracé_45593" d="M351.066 328.524l.029.028c.057.029.086.058.143.058l.028-.029-.057-.029z" class="cls-6" data-name="Tracé 45593" transform="translate(-293.732 -281.585)"/>
                <path id="Tracé_45594" d="M354.323 334.692v.085a.95.95 0 0 0 .029.286v-.743a1.718 1.718 0 0 0-.029.372z" class="cls-6" data-name="Tracé 45594" transform="translate(-300.074 -281.585)"/>
                <path id="Tracé_45595" d="M361.121 323.867c.028 0 .028.029.028.057.029-.028.058-.028.086-.057z" class="cls-6" data-name="Tracé 45595" transform="translate(-313.756 -281.585)"/>
                <path id="Tracé_45596" d="M365.294 314.292c.029 0 .029.029.057.029a.372.372 0 0 1-.028-.171.259.259 0 0 0-.029.142z" class="cls-6" data-name="Tracé 45596" transform="translate(-322.044 -281.585)"/>
                <g id="Groupe_12856" data-name="Groupe 12856" transform="translate(15.881 48.196)">
                    <g id="Groupe_12855" data-name="Groupe 12855">
                        <g id="Groupe_12854" data-name="Groupe 12854">
                            <path id="Tracé_45597" d="M392.719 329.952c-.028 0-.057.029-.085.029l-.029-.057zm-.171-.171l.057.143-.114-.115z" class="cls-6" data-name="Tracé 45597" transform="translate(-392.491 -329.781)"/>
                        </g>
                    </g>
                </g>
                <g id="Groupe_12859" data-name="Groupe 12859">
                    <g id="Groupe_12858" data-name="Groupe 12858">
                        <g id="Groupe_12857" data-name="Groupe 12857">
                            <path id="Tracé_45598" d="M382.4 336.838v.114a.536.536 0 0 1-.029.228v-.514a.35.35 0 0 1 .029.172z" class="cls-6" data-name="Tracé 45598" transform="translate(-356.181 -281.585)"/>
                            <path id="Tracé_45599" d="M382.4 336.838v.114a.536.536 0 0 1-.029.228v-.514a.35.35 0 0 1 .029.172z" class="cls-6" data-name="Tracé 45599" transform="translate(-356.181 -281.585)"/>
                            <path id="Tracé_45600" d="M331.431 296.869h.883l12.63-15.284H393.2l12.628 15.284h.889a1.866 1.866 0 0 1 1.886 1.846v2.3a1.883 1.883 0 0 1-1.886 1.88h-.542v44.654h-73.68v-44.657h-1.057a1.9 1.9 0 0 1-1.886-1.885v-2.257a1.884 1.884 0 0 1 1.879-1.881zm60.909-13.427h-46.51l-11.085 13.427H403.4zm-11.74 62.25h16.916v-3.657c0-.286-.2-.543-.4-.543H381c-.228 0-.4.257-.4.543zm9.716-8.54a.95.95 0 0 0-.029-.286 1.453 1.453 0 0 0-.485-.971 1.541 1.541 0 0 0-1.457-.429 1.71 1.71 0 0 0 .457 1.457 1.75 1.75 0 0 0 1.485.429.414.414 0 0 0 .027-.2zm-6.485-2.086a1.839 1.839 0 0 0 1.685-.543 1.907 1.907 0 0 0 .486-1.685 1.863 1.863 0 0 0-2.171 1.485 1.721 1.721 0 0 0-.029.372v.085a.982.982 0 0 0 .027.286zm-19.115 10.626h9.884v-10a4.943 4.943 0 0 0-9.885-.14v.14zm-23.455.543h.055v-.543H359.8v-3.657a.533.533 0 0 0-.486-.543h-17.57a.571.571 0 0 0-.485.543zm14.484-9.057a.536.536 0 0 0 .029-.228 1.931 1.931 0 0 0 .057.4 2.34 2.34 0 0 0 2.685-2.8 2.384 2.384 0 0 0-2.085.686 2.3 2.3 0 0 0-.657 1.6.35.35 0 0 0-.029-.172zm-21.37 8.514h5.771v-3.657a1.638 1.638 0 0 1 1.172-1.6 2.214 2.214 0 0 1 .428-.057h13.428v-2.426c-.143 0-.286.028-.429.028a3.011 3.011 0 0 1-2.085-.828 2.916 2.916 0 0 1-.8-2.8l.057-.143.143-.057a2.94 2.94 0 0 1 2.828.714 3.023 3.023 0 0 1 .286.343v-3.571L351 332.866a3.816 3.816 0 0 1-1.143.172 4 4 0 0 1-3.057-1.486l-1.228-1.571c.028 0 .057-.029.085-.029l-.114-.028-.057-.143-.057.028.114.115.029.057a2.476 2.476 0 0 1-.658.086 2.864 2.864 0 0 1-2.085-.8 2.9 2.9 0 0 1-.771-2.8l.028-.171.143-.029a2.923 2.923 0 0 1 2.828.686 2.286 2.286 0 0 1 .572.828 2.849 2.849 0 0 1 .571-.828 2.916 2.916 0 0 1 2.8-.8l.171.028.029.172a2.879 2.879 0 0 1-2.743 3.685h-.143l.943 1.171a3.341 3.341 0 0 0 3.571 1.115l4.457-1.314.086-.029 2.714-2.2c-.057-.029-.086-.086-.114-.114a2.136 2.136 0 0 1-.658-1.572 2.256 2.256 0 0 1 1.115-1.942l.114-.057.114.057a2.255 2.255 0 0 1 1.114 1.942.563.563 0 0 1-.057.315 8.438 8.438 0 0 0 2.714-4.029l2.486-7.856a.709.709 0 0 1-.229.029 2.334 2.334 0 0 1-1.628-.629 2.284 2.284 0 0 1-.629-2.143l.029-.114.114-.029a2.3 2.3 0 0 1 2.2.515 1.85 1.85 0 0 1 .457.6 2.162 2.162 0 0 1 .4-.629 2.217 2.217 0 0 1 2.143-.628l.143.028.028.114a2.232 2.232 0 0 1-.514 2.172 2.3 2.3 0 0 1-1.571.714 1.365 1.365 0 0 1-.343-.029l-2.543 8.028a9.155 9.155 0 0 1-2.743 4.229.264.264 0 0 1 .143-.029 2.258 2.258 0 0 1 1.943 1.114l.057.114-.057.115a2.233 2.233 0 0 1-3.051.813 2.2 2.2 0 0 1-.463-.356 1.851 1.851 0 0 1-.286-.372l.115-.114-.115.057-.085-.057c.028.029.057.086.085.114l-2.771 2.229v3.8a3.124 3.124 0 0 1 .286-.342 2.983 2.983 0 0 1 2.8-.8l.142.057.058.143a2.941 2.941 0 0 1-.715 2.828 2.83 2.83 0 0 1-2.057.886 1.593 1.593 0 0 1-.514-.057v2.485h3.571a1.628 1.628 0 0 1 1.6 1.656v3.654h2.314v-10a6.443 6.443 0 0 1 12.885-.16v10.16h3.371v-3.657a1.6 1.6 0 0 1 1.517-1.656h2.257v-4.857a.943.943 0 0 1-.285.029 2.277 2.277 0 0 1-1.658-.629 2.425 2.425 0 0 1-.628-2.257l.028-.114.143-.028a2.283 2.283 0 0 1 2.229.542 1.3 1.3 0 0 1 .171.2v-1.428l-2.543-2.571a19.485 19.485 0 0 1-3.771-5.343c.029-.028.058-.028.086-.057h-.114c.028 0 .028.029.028.057a2.116 2.116 0 0 1-.457.172 2.195 2.195 0 0 1-1.685-.257 2.258 2.258 0 0 1-1.114-1.943v-.114l.114-.057a2.218 2.218 0 0 1 2.228 0c.029.028.057.028.086.057-.029-.029-.029-.029-.029-.057l-.628-1.915a6.547 6.547 0 0 0-1.057-2.028l-1.543-1.971a2.994 2.994 0 0 1-.571-1.229 2.222 2.222 0 0 1-.429-.057 2.311 2.311 0 0 1-1.343-1.086 2.224 2.224 0 0 1 .057-2.228l.058-.114h.142a2.262 2.262 0 0 1 1.915 1.171.465.465 0 0 1 .085.257c.029-.057.086-.085.115-.143l3.629-4.488c-.086-.029-.143-.057-.229-.086a2.223 2.223 0 0 1-1.228-3.314l.057-.114h.143a2.213 2.213 0 0 1 1.885 1.2 2.636 2.636 0 0 1 .229.771 2.114 2.114 0 0 1 .6-.514 2.274 2.274 0 0 1 2.257.086l.086.086v.114a2.213 2.213 0 0 1-1.2 1.885 2.175 2.175 0 0 1-1.686.172.549.549 0 0 1-.286-.143l-3.628 4.457a2.289 2.289 0 0 1 2.228.057l.115.085v.115a2.226 2.226 0 0 1-1.172 1.914 2.172 2.172 0 0 1-1.685.171h-.057a2.649 2.649 0 0 0 .343.629l1.542 1.971a7.113 7.113 0 0 1 1.172 2.2l.628 1.914a1.405 1.405 0 0 0 .114.314 1.833 1.833 0 0 1 .143-.342 2.255 2.255 0 0 1 1.943-1.115h.114l.086.115a2.291 2.291 0 0 1-.029 2.228 2.253 2.253 0 0 1-1.371 1.028c-.028 0-.086.029-.114.029a18.558 18.558 0 0 0 3.6 5.057l2.429 2.457 2.857-2.857c-.029 0-.057-.029-.086-.029a2.34 2.34 0 0 1-1.316-1.085 2.272 2.272 0 0 1 .086-2.257l.085-.086h.115a2.212 2.212 0 0 1 1.885 1.2 1.85 1.85 0 0 1 .229.771 2.179 2.179 0 0 1 2.857-.428l.114.057-.029.143a2.277 2.277 0 0 1-1.171 1.885 2.25 2.25 0 0 1-1.714.143 1.011 1.011 0 0 1-.4-.171l.028-.029-.057-.029-.143-.028.029.028c.057.029.086.058.143.058l-3.228 3.228v1.459a1.587 1.587 0 0 1 .171-.229 2.3 2.3 0 0 1 2.228-.628l.143.028.029.115a2.347 2.347 0 0 1-.572 2.257 2.373 2.373 0 0 1-1.628.714.841.841 0 0 1-.371-.057v4.885h6.342v-2.625c-.057 0-.143.028-.2.028a2.043 2.043 0 0 1-2-2.514l.029-.114.114-.029a2.008 2.008 0 0 1 1.971.486 1.589 1.589 0 0 1 .4.572 1.7 1.7 0 0 1 .4-.6 2.013 2.013 0 0 1 1.943-.543l.114.028.029.114a1.969 1.969 0 0 1-.514 1.943 1.936 1.936 0 0 1-1.4.629 1.071 1.071 0 0 1-.314-.029v2.657h6.371a1.6 1.6 0 0 1 1.514 1.657v3.655h5.657v-42.8h-69.909zm20.825-8.742v-.058a.374.374 0 0 0-.028-.172 2.258 2.258 0 0 0-.686-1.457 2.291 2.291 0 0 0-2.114-.6 2.385 2.385 0 0 0 .686 2.086 2.288 2.288 0 0 0 2.114.6 2.111 2.111 0 0 0 .028-.4zm-9.2-7.514a2.343 2.343 0 0 0 2.086-.657 2.431 2.431 0 0 0 .628-2.114 2.4 2.4 0 0 0-2.114.657 2.363 2.363 0 0 0-.657 1.628v.115a2.04 2.04 0 0 0 .058.373zm-.629-.4v-.028a2.18 2.18 0 0 0-.685-1.629 2.427 2.427 0 0 0-2.114-.628 2.314 2.314 0 0 0 .657 2.085 2.428 2.428 0 0 0 2.114.629 2.26 2.26 0 0 0 .029-.427zm13.743-1.083a.029.029 0 0 1 .027-.029 2.091 2.091 0 0 0 .2-.829.958.958 0 1 0-1.6 0 1.72 1.72 0 0 0 .686 1.4zm-.228 1a1.828 1.828 0 0 0 1.485.8.958.958 0 1 0 0-1.6 1.556 1.556 0 0 0-.828.2 4.11 4.11 0 0 0-.372.258c0 .028-.028.028-.057.057a2.484 2.484 0 0 0-.228.284zM365 315.069a1.85 1.85 0 0 0 .029-.4 1.77 1.77 0 0 0-.571-1.2 1.888 1.888 0 0 0-1.629-.457 1.833 1.833 0 0 0 .543 1.6 1.731 1.731 0 0 0 1.628.456zm.458-.372v.086a.986.986 0 0 0 .028.286 1.913 1.913 0 0 0 1.629-.543 1.787 1.787 0 0 0 .428-1.628 1.728 1.728 0 0 0-1.6.542 1.875 1.875 0 0 0-.485 1.252zm17.8 20.37v-.885a1.857 1.857 0 0 0-.485-.772 1.813 1.813 0 0 0-1.686-.485 1.968 1.968 0 0 0 .543 1.657 1.768 1.768 0 0 0 1.626.484zm-5.914-11.656a1.848 1.848 0 0 0 1.286-.857.963.963 0 1 0-1.371-.828 2.132 2.132 0 0 0-.257.857v.028c.113.256.226.513.34.8zm-.657.143a1.43 1.43 0 0 0-.057-.343v-.029c0-.028 0-.028-.028-.057a1.012 1.012 0 0 0-.172-.4 1.886 1.886 0 0 0-.628-.628 1.845 1.845 0 0 0-1.686-.057 1.8 1.8 0 0 0 .886 1.428 1.771 1.771 0 0 0 1.683.085zM372.8 314.3c.029 0 .029.029.057.029a1.726 1.726 0 0 0 1.628-.029 1.881 1.881 0 0 0 .915-1.428 1.85 1.85 0 0 0-1.686.029 1.718 1.718 0 0 0-.885 1.228v.029a.251.251 0 0 0-.031.137zm-.314-1.228v-.029a1.96 1.96 0 0 0-.2-.571 1.785 1.785 0 0 0-1.4-.914 1.693 1.693 0 0 0 .028 1.685 1.883 1.883 0 0 0 1.343.915 2.747 2.747 0 0 1 .227-1.087zm4.256-5.6a3.051 3.051 0 0 0 .143-.314 1.908 1.908 0 0 0-.114-1.371 1.865 1.865 0 0 0-1.4-.943 1.766 1.766 0 0 0 1.371 2.628zm.486.143a1.8 1.8 0 0 0 2.657-1.371 1.819 1.819 0 0 0-1.714 0 1.9 1.9 0 0 0-.857.914.255.255 0 0 1-.029.143 1.238 1.238 0 0 0-.059.313zm9.569 20.48a1.4 1.4 0 0 0 .114-.314 1.764 1.764 0 0 0-.114-1.371 1.848 1.848 0 0 0-1.4-.971 1.819 1.819 0 0 0 0 1.714 1.768 1.768 0 0 0 1.403.939zm.457.143a1.762 1.762 0 0 0 1.685 0 1.8 1.8 0 0 0 .972-1.4 1.85 1.85 0 0 0-1.686 0 1.948 1.948 0 0 0-.885 1.029c-.027.117-.057.228-.086.374zm3.485 9.085a1.594 1.594 0 0 0 1.857-1.942 1.673 1.673 0 0 0-1.457.485 1.622 1.622 0 0 0-.4 1.46zM331.4 301.009h75.337v-2.257a.028.028 0 0 0-.027-.029h-75.279l-.029.029z" class="cls-6" data-name="Tracé 45600" transform="translate(-329.549 -281.585)"/>
                            <path id="Tracé_45601" d="M364.893 339.123a.5.5 0 0 0 .485.486h1.686a.476.476 0 0 0 .457-.486.451.451 0 0 0-.445-.457h-1.7a.476.476 0 0 0-.483.457z" class="cls-6" data-name="Tracé 45601" transform="translate(-323.814 -281.585)"/>
                        </g>
                    </g>
                </g>
                <g id="Groupe_12862" data-name="Groupe 12862" transform="translate(57.334 46.939)">
                    <g id="Groupe_12861" data-name="Groupe 12861">
                        <g id="Groupe_12860" data-name="Groupe 12860">
                            <path id="Tracé_45602" d="M351.209 328.552l.057.029-.028.029c-.057 0-.086-.029-.143-.058l-.029-.028z" class="cls-6" data-name="Tracé 45602" transform="translate(-351.066 -328.524)"/>
                        </g>
                    </g>
                </g>
                <g id="Groupe_12865" data-name="Groupe 12865" transform="translate(47.364 42.282)">
                    <g id="Groupe_12864" data-name="Groupe 12864">
                        <g id="Groupe_12863" data-name="Groupe 12863">
                            <path id="Tracé_45603" d="M361.236 323.867c-.028.029-.057.029-.086.057 0-.028 0-.057-.028-.057z" class="cls-6" data-name="Tracé 45603" transform="translate(-361.122 -323.867)"/>
                        </g>
                    </g>
                </g>
                <g id="Groupe_12868" data-name="Groupe 12868" transform="translate(28.88 47.45)">
                    <g id="Groupe_12867" data-name="Groupe 12867">
                        <g id="Groupe_12866" data-name="Groupe 12866">
                            <path id="Tracé_45604" d="M379.6 329.092l.115-.057-.115.114c-.028-.028-.057-.085-.085-.114z" class="cls-6" data-name="Tracé 45604" transform="translate(-379.52 -329.035)"/>
                        </g>
                    </g>
                </g>
            </g>
            <g id="Lucarne_haut" data-name="Lucarne haut" transform="translate(32.337 5.114)">
                <path id="Tracé_45605" d="M370.121 286.7a6.131 6.131 0 0 1 6.142 6.122v.477h-12.284v-.457a6.132 6.132 0 0 1 6.121-6.142zm0 .914a5.242 5.242 0 0 0-5.2 4.742h10.4a5.239 5.239 0 0 0-5.2-4.743z" class="cls-6" data-name="Tracé 45605" transform="translate(-363.979 -286.699)"/>
                <path id="Rectangle_12872" d="M0 0h11.371v.6H0z" class="cls-9" data-name="Rectangle 12872" transform="translate(.456 6.599)"/>
            </g>
        </g>
        <g id="Groupe_14692" data-name="Groupe 14692">
            <g id="Groupe_14691" data-name="Groupe 14691">
                <g id="Groupe_12761" data-name="Groupe 12761" transform="translate(113.231 633.188)">
                    <path id="Tracé_45428" d="M216.86 531.564a7.282 7.282 0 0 1 1.345 8.673 3.2 3.2 0 0 0 .79 3.933 11.147 11.147 0 0 1-3.841 19.137v6.953a2.251 2.251 0 0 1-2.247 2.247h-1.119v-42.992a7.217 7.217 0 0 1 5.072 2.049z" class="cls-10" data-name="Tracé 45428" transform="translate(-199.9 -528.773)"/>
                    <path id="Tracé_45429" d="M206.716 531.56a7.284 7.284 0 0 0-1.346 8.673 3.2 3.2 0 0 1-.789 3.933 11.147 11.147 0 0 0 3.841 19.137v6.953a2.249 2.249 0 0 0 2.246 2.247h1.12V529.51a7.222 7.222 0 0 0-5.072 2.05z" class="cls-11" data-name="Tracé 45429" transform="translate(-199.9 -528.773)"/>
                    <path id="Tracé_45430" d="M207.688 570.26v-6.424a11.886 11.886 0 0 1-3.53-20.269 2.471 2.471 0 0 0 .519-3.072 8.017 8.017 0 1 1 14.174.089 2.467 2.467 0 0 0 .618 3.026 11.88 11.88 0 0 1-3.582 20.22v6.43a2.984 2.984 0 0 1-2.98 2.98h-2.238a2.984 2.984 0 0 1-2.981-2.98zm3.9-40.017a6.551 6.551 0 0 0-5.609 9.574 3.928 3.928 0 0 1-.878 4.874 10.418 10.418 0 0 0 3.542 17.921l.513.162v7.486a1.515 1.515 0 0 0 1.514 1.513h2.238a1.515 1.515 0 0 0 1.513-1.513v-7.489l.511-.163a10.414 10.414 0 0 0 3.59-17.879 3.937 3.937 0 0 1-.962-4.839 6.552 6.552 0 0 0-5.769-9.65h-.2z" class="cls-12" data-name="Tracé 45430" transform="translate(-199.9 -528.773)"/>
                </g>
                <g id="Groupe_13518" data-name="Groupe 13518" transform="translate(14.345 525.226)">
                    <g id="Groupe_13259" data-name="Groupe 13259" transform="translate(.567 .565)">
                        <path id="Tracé_44881" d="M410.125 223.043a9.456 9.456 0 0 1 18.9-.674l.018-.011v6.525h-16.989a9.779 9.779 0 0 1-1.929-5.84z" class="cls-11" data-name="Tracé 44881" transform="translate(-410.125 -213.37)"/>
                        <path id="Tracé_44882" d="M432.4 221.357a5.8 5.8 0 0 1 5.932 5.68 5.462 5.462 0 0 1-.352 1.846h-8.935v-6.525a6.02 6.02 0 0 1 3.355-1.001z" class="cls-10" data-name="Tracé 44882" transform="translate(-410.125 -213.37)"/>
                    </g>
                    <path id="Tracé_44883" d="M411.636 229.224a10.134 10.134 0 0 1-2.078-6.185 10.223 10.223 0 0 1 20.321-1.6 6.183 6.183 0 0 1 2.765-.642 6.166 6.166 0 0 1 5.88 8.271l-.13.385h-26.588zm26.124-2.193a5.116 5.116 0 0 0-5.116-5.105 5.013 5.013 0 0 0-2.882.893l-.835.836-.082-1.25a9.087 9.087 0 1 0-16.47 5.908h25.194a4.78 4.78 0 0 0 .191-1.282z" class="cls-12" data-name="Tracé 44883" transform="translate(-409.558 -212.805)"/>
                </g>
                <g id="Groupe_12780" data-name="Groupe 12780" transform="translate(101.577 113.63)">
                    <path id="Tracé_45448" d="M321.592 325.13a11.22 11.22 0 0 1-8.3 10.808v8.69a2.327 2.327 0 0 1-2.324 2.324h-.567v-33.007a11.2 11.2 0 0 1 11.191 11.185z" class="cls-10" data-name="Tracé 45448" transform="translate(-298.483 -313.215)"/>
                    <path id="Tracé_45449" d="M299.22 325.13a11.22 11.22 0 0 0 8.3 10.808v8.69a2.325 2.325 0 0 0 2.323 2.323h.568v-33.006a11.2 11.2 0 0 0-11.191 11.185z" class="cls-11" data-name="Tracé 45449" transform="translate(-298.483 -313.215)"/>
                    <path id="Tracé_45450" d="M306.781 344.628v-8.136a11.919 11.919 0 1 1 7.249 0v8.141a3.06 3.06 0 0 1-3.057 3.057h-1.138a3.061 3.061 0 0 1-3.054-3.062zm-6.827-19.5a10.462 10.462 0 0 0 7.75 10.1l.544.144v9.254a1.591 1.591 0 0 0 1.59 1.59h1.135a1.592 1.592 0 0 0 1.591-1.59v-9.254l.544-.144a10.453 10.453 0 1 0-13.154-10.1z" class="cls-12" data-name="Tracé 45450" transform="translate(-298.483 -313.215)"/>
                </g>
                <g id="Groupe_13513" data-name="Groupe 13513" transform="translate(-443.426 -563.05)">
                    <path id="Tracé_45539" d="M443.486 711.171H569.3a13.973 13.973 0 0 1 13.972 13.974 13.973 13.973 0 0 0 13.974 13.972h20.206a13.973 13.973 0 0 1 13.973 13.974v92.376a13.973 13.973 0 0 1-13.973 13.972h-11.19a13.973 13.973 0 0 0-13.972 13.974v353a13.973 13.973 0 0 1-13.974 13.972h-23.049a13.974 13.974 0 0 0-13.972 13.974v15.325a13.974 13.974 0 0 1-13.974 13.974h-83.895" class="cls-13" data-name="Tracé 45539"/>
                    <path id="Tracé_45540" d="M435.4 893.5h56.8a13.575 13.575 0 0 0 13.575-13.575v-17.739a13.574 13.574 0 0 1 13.575-13.575h65.587" class="cls-13" data-name="Tracé 45540" transform="translate(8.083 72.864)"/>
                    <path id="Tracé_45541" d="M428.178 937.874h48.686a12.424 12.424 0 0 1 12.423 12.426v22.978a12.423 12.423 0 0 0 12.424 12.422h75.531" class="cls-13" data-name="Tracé 45541" transform="translate(15.048 166.329)"/>
                </g>
                <g id="Groupe_12875" data-name="Groupe 12875" transform="translate(-774 -82.605)">
                    <g id="Groupe_12779" class="cls-14" data-name="Groupe 12779" transform="translate(551 106)">
                        <g id="Groupe_12762" data-name="Groupe 12762" transform="translate(281.949 221.279)">
                            <path id="Ligne_1208" d="M9.721 0H0" class="cls-8" data-name="Ligne 1208" transform="translate(1.496 1.5)"/>
                            <path id="Tracé_45431" d="M207.732 639.259h9.724a1.5 1.5 0 0 0 0-3h-9.721a1.5 1.5 0 0 0 0 3z" class="cls-6" data-name="Tracé 45431" transform="translate(-206.235 -636.259)"/>
                        </g>
                        <g id="Groupe_12765" data-name="Groupe 12765" transform="translate(331.228 599.334)">
                            <path id="Ligne_1211" d="M9.721 0H0" class="cls-8" data-name="Ligne 1211" transform="translate(1.499 1.5)"/>
                            <path id="Tracé_45434" d="M237.456 595.314h9.721a1.5 1.5 0 0 0 0-3h-9.721a1.5 1.5 0 1 0 0 3z" class="cls-6" data-name="Tracé 45434" transform="translate(-235.956 -592.314)"/>
                        </g>
                        <g id="Groupe_12765-2" data-name="Groupe 12765" transform="translate(300.228 584.334)">
                            <path id="Ligne_1211-2" d="M9.721 0H0" class="cls-8" data-name="Ligne 1211" transform="translate(1.499 1.5)"/>
                            <path id="Tracé_45434-2" d="M237.456 595.314h9.721a1.5 1.5 0 0 0 0-3h-9.721a1.5 1.5 0 1 0 0 3z" class="cls-6" data-name="Tracé 45434" transform="translate(-235.956 -592.314)"/>
                        </g>
                        <g id="Groupe_12766" data-name="Groupe 12766" transform="translate(243 255.971)">
                            <path id="Ligne_1212" d="M9.721 0H0" class="cls-8" data-name="Ligne 1212" transform="translate(1.499 1.5)"/>
                            <path id="Tracé_45435" d="M445.685 506.951h9.72a1.5 1.5 0 0 0 0-3h-9.72a1.5 1.5 0 0 0 0 3z" class="cls-6" data-name="Tracé 45435" transform="translate(-444.185 -503.951)"/>
                        </g>
                        <g id="Groupe_12767" data-name="Groupe 12767" transform="translate(314.14 635.092)">
                            <path id="Ligne_1213" d="M9.721 0H0" class="cls-8" data-name="Ligne 1213" transform="translate(1.5 1.5)"/>
                            <path id="Tracé_45436" d="M399.544 545.072h9.721a1.5 1.5 0 0 0 0-3h-9.721a1.5 1.5 0 1 0 0 3z" class="cls-6" data-name="Tracé 45436" transform="translate(-398.044 -542.072)"/>
                        </g>
                        <g id="Groupe_12767-2" data-name="Groupe 12767" transform="translate(350.14 580.092)">
                            <path id="Ligne_1213-2" d="M9.721 0H0" class="cls-8" data-name="Ligne 1213" transform="translate(1.5 1.5)"/>
                            <path id="Tracé_45436-2" d="M399.544 545.072h9.721a1.5 1.5 0 0 0 0-3h-9.721a1.5 1.5 0 1 0 0 3z" class="cls-6" data-name="Tracé 45436" transform="translate(-398.044 -542.072)"/>
                        </g>
                        <g id="Groupe_12767-3" data-name="Groupe 12767" transform="translate(287.14 495.092)">
                            <path id="Ligne_1213-3" d="M9.721 0H0" class="cls-8" data-name="Ligne 1213" transform="translate(1.5 1.5)"/>
                            <path id="Tracé_45436-3" d="M399.544 545.072h9.721a1.5 1.5 0 0 0 0-3h-9.721a1.5 1.5 0 1 0 0 3z" class="cls-6" data-name="Tracé 45436" transform="translate(-398.044 -542.072)"/>
                        </g>
                        <g id="Groupe_12769" data-name="Groupe 12769" transform="translate(281.205 263.882)">
                            <path id="Ligne_1215" d="M9.721 0H0" class="cls-8" data-name="Ligne 1215" transform="translate(1.499 1.5)"/>
                            <path id="Tracé_45438" d="M381.479 298.862h9.721a1.5 1.5 0 0 0 0-3h-9.721a1.5 1.5 0 0 0 0 3z" class="cls-6" data-name="Tracé 45438" transform="translate(-379.979 -295.862)"/>
                        </g>
                        <g id="Groupe_12769-2" data-name="Groupe 12769" transform="translate(382.205 254.882)">
                            <path id="Ligne_1215-2" d="M9.721 0H0" class="cls-8" data-name="Ligne 1215" transform="translate(1.499 1.5)"/>
                            <path id="Tracé_45438-2" d="M381.479 298.862h9.721a1.5 1.5 0 0 0 0-3h-9.721a1.5 1.5 0 0 0 0 3z" class="cls-6" data-name="Tracé 45438" transform="translate(-379.979 -295.862)"/>
                        </g>
                        <g id="Groupe_12769-3" data-name="Groupe 12769" transform="translate(286.205 391.882)">
                            <path id="Ligne_1215-3" d="M9.721 0H0" class="cls-8" data-name="Ligne 1215" transform="translate(1.499 1.5)"/>
                            <path id="Tracé_45438-3" d="M381.479 298.862h9.721a1.5 1.5 0 0 0 0-3h-9.721a1.5 1.5 0 0 0 0 3z" class="cls-6" data-name="Tracé 45438" transform="translate(-379.979 -295.862)"/>
                        </g>
                        <g id="Groupe_12770" data-name="Groupe 12770" transform="translate(306.791 148.962)">
                            <path id="Ligne_1216" d="M9.721 0H0" class="cls-8" data-name="Ligne 1216" transform="translate(1.5 1.5)"/>
                            <path id="Tracé_45439" d="M308.893 274.942h9.721a1.5 1.5 0 0 0 0-3h-9.721a1.5 1.5 0 1 0 0 3z" class="cls-6" data-name="Tracé 45439" transform="translate(-307.393 -271.942)"/>
                        </g>
                        <g id="Groupe_12771" data-name="Groupe 12771" transform="translate(255.504 181.506)">
                            <path id="Ligne_1217" d="M9.721 0H0" class="cls-8" data-name="Ligne 1217" transform="translate(1.499 1.5)"/>
                            <path id="Tracé_45440" d="M362.181 256.486h9.72a1.5 1.5 0 0 0 0-3h-9.72a1.5 1.5 0 1 0 0 3z" class="cls-6" data-name="Tracé 45440" transform="translate(-360.681 -253.486)"/>
                        </g>
                        <g id="Groupe_12772" data-name="Groupe 12772" transform="translate(200.87 273.15)">
                            <path id="Ligne_1218" d="M9.721 0H0" class="cls-8" data-name="Ligne 1218" transform="translate(1.497 1.5)"/>
                            <path id="Tracé_45441" d="M254.814 375.13h9.721a1.5 1.5 0 0 0 0-3h-9.721a1.5 1.5 0 0 0 0 3z" class="cls-6" data-name="Tracé 45441" transform="translate(-253.314 -372.13)"/>
                        </g>
                        <g id="Groupe_12773" data-name="Groupe 12773" transform="translate(252.606 417.572)">
                            <path id="Ligne_1219" d="M9.721 0H0" class="cls-8" data-name="Ligne 1219" transform="translate(1.499 1.5)"/>
                            <path id="Tracé_45442" d="M401.078 427.552h9.722a1.5 1.5 0 0 0 0-3h-9.721a1.5 1.5 0 0 0 0 3z" class="cls-6" data-name="Tracé 45442" transform="translate(-399.578 -424.552)"/>
                        </g>
                        <g id="Groupe_12774" data-name="Groupe 12774" transform="translate(321.837 500.686)">
                            <path id="Ligne_1220" d="M9.721 0H0" class="cls-8" data-name="Ligne 1220" transform="translate(1.5 1.5)"/>
                            <path id="Tracé_45443" d="M194.847 492.666h9.721a1.5 1.5 0 1 0 0-3h-9.721a1.5 1.5 0 1 0 0 3z" class="cls-6" data-name="Tracé 45443" transform="translate(-193.347 -489.666)"/>
                        </g>
                        <g id="Groupe_12774-2" data-name="Groupe 12774" transform="translate(243.837 452.686)">
                            <path id="Ligne_1220-2" d="M9.721 0H0" class="cls-8" data-name="Ligne 1220" transform="translate(1.5 1.5)"/>
                            <path id="Tracé_45443-2" d="M194.847 492.666h9.721a1.5 1.5 0 1 0 0-3h-9.721a1.5 1.5 0 1 0 0 3z" class="cls-6" data-name="Tracé 45443" transform="translate(-193.347 -489.666)"/>
                        </g>
                        <g id="Groupe_12775" data-name="Groupe 12775" transform="translate(386.405 191.241)">
                            <path id="Ligne_1221" d="M9.721 0H0" class="cls-8" data-name="Ligne 1221" transform="translate(1.499 1.5)"/>
                            <path id="Tracé_45444" d="M343.279 388.221H353a1.5 1.5 0 0 0 0-3h-9.721a1.5 1.5 0 0 0 0 3z" class="cls-6" data-name="Tracé 45444" transform="translate(-341.779 -385.221)"/>
                        </g>
                        <g id="Groupe_12776" data-name="Groupe 12776" transform="translate(258.95 298.053)">
                            <path id="Ligne_1222" d="M9.721 0H0" class="cls-8" data-name="Ligne 1222" transform="translate(1.496 1.5)"/>
                            <path id="Tracé_45445" d="M207.732 432.033h9.723a1.5 1.5 0 0 0 0-3h-9.72a1.5 1.5 0 1 0 0 3z" class="cls-6" data-name="Tracé 45445" transform="translate(-206.235 -429.033)"/>
                        </g>
                        <g id="Groupe_12778" data-name="Groupe 12778" transform="translate(350.329 407.157)">
                            <path id="Ligne_1224" d="M9.721 0H0" class="cls-8" data-name="Ligne 1224" transform="translate(1.499 1.5)"/>
                            <path id="Tracé_45447" d="M109.355 643.137h9.721a1.5 1.5 0 0 0 0-3h-9.721a1.5 1.5 0 0 0 0 3z" class="cls-6" data-name="Tracé 45447" transform="translate(-107.855 -640.137)"/>
                        </g>
                        <circle id="Ellipse_2507" cx="2.067" cy="2.067" r="2.067" class="cls-6" data-name="Ellipse 2507" transform="translate(177.587 312.078)"/>
                        <circle id="Ellipse_2508" cx="2.067" cy="2.067" r="2.067" class="cls-6" data-name="Ellipse 2508" transform="translate(339.087 360.602)"/>
                        <circle id="Ellipse_2509" cx="2.067" cy="2.067" r="2.067" class="cls-6" data-name="Ellipse 2509" transform="translate(299.146 350.144)"/>
                        <circle id="Ellipse_2510" cx="2.067" cy="2.067" r="2.067" class="cls-6" data-name="Ellipse 2510" transform="translate(253.526 532.007)"/>
                        <circle id="Ellipse_2511" cx="2.067" cy="2.067" r="2.067" class="cls-6" data-name="Ellipse 2511" transform="translate(239.351 396.016)"/>
                        <circle id="Ellipse_2512" cx="2.067" cy="2.067" r="2.067" class="cls-6" data-name="Ellipse 2512" transform="translate(305.131 187.583)"/>
                        <circle id="Ellipse_2513" cx="2.067" cy="2.067" r="2.067" class="cls-6" data-name="Ellipse 2513" transform="translate(285.35 650.767)"/>
                        <circle id="Ellipse_2513-2" cx="2.067" cy="2.067" r="2.067" class="cls-6" data-name="Ellipse 2513" transform="translate(295.35 683.767)"/>
                        <circle id="Ellipse_2514" cx="2.067" cy="2.067" r="2.067" class="cls-6" data-name="Ellipse 2514" transform="translate(281.598 305.141)"/>
                        <circle id="Ellipse_2516" cx="2.067" cy="2.067" r="2.067" class="cls-6" data-name="Ellipse 2516" transform="translate(251.251 142.275)"/>
                        <circle id="Ellipse_2517" cx="2.067" cy="2.067" r="2.067" class="cls-6" data-name="Ellipse 2517" transform="translate(249.221 208.324)"/>
                        <circle id="Ellipse_2517-2" cx="2.067" cy="2.067" r="2.067" class="cls-6" data-name="Ellipse 2517" transform="translate(212.221 299.324)"/>
                        <circle id="Ellipse_2519" cx="2.067" cy="2.067" r="2.067" class="cls-6" data-name="Ellipse 2519" transform="translate(291.213 600.674)"/>
                        <circle id="Ellipse_2519-2" cx="2.067" cy="2.067" r="2.067" class="cls-6" data-name="Ellipse 2519" transform="translate(337.213 529.674)"/>
                        <circle id="Ellipse_2520" cx="2.067" cy="2.067" r="2.067" class="cls-6" data-name="Ellipse 2520" transform="translate(282.293 450.24)"/>
                        <circle id="Ellipse_2520-2" cx="2.067" cy="2.067" r="2.067" class="cls-6" data-name="Ellipse 2520" transform="translate(326.293 392.24)"/>
                        <circle id="Ellipse_2521" cx="2.067" cy="2.067" r="2.067" class="cls-6" data-name="Ellipse 2521" transform="translate(394.666 212.756)"/>
                        <circle id="Ellipse_2522" cx="2.067" cy="2.067" r="2.067" class="cls-6" data-name="Ellipse 2522" transform="translate(369.154 170.506)"/>
                    </g>
                </g>
                <circle id="Ellipse_2525" cx="5.01" cy="5.01" r="5.01" class="cls-15" data-name="Ellipse 2525" transform="translate(144.095 354.393)"/>
                <circle id="Ellipse_2525-2" cx="5.01" cy="5.01" r="5.01" class="cls-15" data-name="Ellipse 2525" transform="translate(144.095 584.393)"/>
            </g>
        </g>
        <g id="Groupe_13526" data-name="Groupe 13526" transform="translate(73.157 538.003)">
            <path id="Tracé_45385" d="M587.778 448.836h-7.524l-7.3-13.306h3.9l10.318 12.476.028.055z" class="cls-16" data-name="Tracé 45385" transform="translate(-522.907 -428.974)"/>
            <path id="Tracé_45386" d="M564.061 462.879v.47a.437.437 0 0 0 .443.443h.277v6.224h-6.75V444.7l-2.742-.775v-3.068l2.742-.3h6.75v11.749a1.189 1.189 0 0 0-.193.692v9.406h-.088a.461.461 0 0 0-.439.475z" class="cls-16" data-name="Tracé 45386" transform="translate(-554.102 -420.084)"/>
            <path id="Tracé_45387" d="M582.451 440.67h3.192v3.14l-3.192.011v26.006h-6.971V463.6h.5a.437.437 0 0 0 .443-.443v-.47a.461.461 0 0 0-.443-.47h-.08v-9.406a1.544 1.544 0 0 0-.415-1.024V440.67z" class="cls-16" data-name="Tracé 45387" transform="translate(-518.438 -419.895)"/>
            <g id="Groupe_13391" data-name="Groupe 13391">
                <path id="Tracé_45388" d="M621.584 453.078a1.319 1.319 0 0 0-.3-.8l-11.7-14.164h-2.352V435.4a2.249 2.249 0 0 0-2.241-2.241H601.5a2.249 2.249 0 0 0-2.241 2.241v2.711h-31.176l-11.7 14.164a1.32 1.32 0 0 0-.3.8 1.573 1.573 0 0 0-1.217 1.549v1.936a1.618 1.618 0 0 0 1.632 1.632h.692v26.5h63.294V458.2h.692a1.618 1.618 0 0 0 1.632-1.632v-1.936a1.573 1.573 0 0 0-1.224-1.554zm-20.72-17.678a.644.644 0 0 1 .636-.636h3.486a.644.644 0 0 1 .636.636v2.711h-4.758zm-32.006 4.315H608.8l10.318 12.476.028.055.636.775h-61.907zm24.233 43.376h-8.52v-8.8a4.26 4.26 0 0 1 8.52 0zm25.782 0h-24.51v-8.8a5.533 5.533 0 0 0-11.065 0v8.8h-24.51V458.2h60.085zm2.324-26.529c0 .028 0 .028-.028.028h-64.677c-.028 0-.028 0-.028-.028v-1.936H621.2z" class="cls-6" data-name="Tracé 45388" transform="translate(-554.86 -433.16)"/>
            </g>
            <g id="Groupe_13399" data-name="Groupe 13399" transform="translate(9.959 31.37)">
                <g id="Groupe_13398" data-name="Groupe 13398">
                    <g id="Groupe_13395" data-name="Groupe 13395">
                        <g id="Groupe_13393" data-name="Groupe 13393">
                            <path id="Tracé_45389" d="M571.241 448.8v.443a.575.575 0 0 1-.609.581h-11.563a.591.591 0 0 1-.609-.581v-.443a.437.437 0 0 0 .443.443h11.9a.437.437 0 0 0 .438-.443z" class="cls-17" data-name="Tracé 45389" transform="translate(-558.46 -436.905)"/>
                            <g id="Groupe_13392" data-name="Groupe 13392">
                                <path id="Tracé_45390" d="M570.8 455.455h-.083v-9.406a1.565 1.565 0 0 0-1.549-1.549h-8.631a1.546 1.546 0 0 0-1.356.858 1.189 1.189 0 0 0-.193.692v9.406h-.088a.461.461 0 0 0-.443.47v.47a.437.437 0 0 0 .443.443h11.9a.437.437 0 0 0 .443-.443v-.47a.461.461 0 0 0-.443-.471zm-11.01-9.406a.782.782 0 0 1 .747-.747h4.011v4.592h-4.758zm10.125 9.378h-10.127v-4.565h10.125zm0-5.533h-4.4V445.3h3.651a.762.762 0 0 1 .747.747z" class="cls-6" data-name="Tracé 45390" transform="translate(-558.46 -444.5)"/>
                            </g>
                        </g>
                        <g id="Groupe_13394" data-name="Groupe 13394" transform="translate(35.243)">
                            <path id="Tracé_45391" d="M583.981 448.8v.443a.591.591 0 0 1-.609.581h-11.563a.574.574 0 0 1-.609-.581v-.443a.437.437 0 0 0 .443.443h11.9a.437.437 0 0 0 .438-.443z" class="cls-17" data-name="Tracé 45391" transform="translate(-571.2 -436.905)"/>
                            <path id="Tracé_45392" d="M583.538 455.455h-.083v-9.406a1.544 1.544 0 0 0-.415-1.024 1.474 1.474 0 0 0-1.134-.526h-8.631a1.565 1.565 0 0 0-1.549 1.549v9.406h-.083a.461.461 0 0 0-.443.47v.47a.437.437 0 0 0 .443.443h11.9a.437.437 0 0 0 .443-.443v-.47a.461.461 0 0 0-.448-.469zm-11.01-9.406a.762.762 0 0 1 .747-.747h4.011v4.592h-4.758zm10.125 9.378h-10.125v-4.565h10.125zm0-5.533h-4.426V445.3h3.679a.782.782 0 0 1 .747.747z" class="cls-6" data-name="Tracé 45392" transform="translate(-571.2 -444.5)"/>
                        </g>
                    </g>
                    <g id="Groupe_13397" data-name="Groupe 13397" transform="translate(20.648 13.331)">
                        <g id="Groupe_13396" data-name="Groupe 13396">
                            <path id="Tracé_45393" d="M567.775 450.121h-1.45a.4.4 0 0 1 0-.8h1.45a.4.4 0 0 1 0 .8z" class="cls-2" data-name="Tracé 45393" transform="translate(-565.924 -449.319)"/>
                        </g>
                    </g>
                </g>
            </g>
            <g id="Groupe_13400" data-name="Groupe 13400" transform="translate(30.092 8.429)">
                <path id="Tracé_45394" d="M573.495 443.964h-7.757v-3.878a3.878 3.878 0 0 1 7.757 0zM566.7 443h5.831v-2.916a2.916 2.916 0 1 0-5.831 0z" class="cls-2" data-name="Tracé 45394" transform="translate(-565.738 -436.207)"/>
            </g>
        </g>
        <g id="Groupe_13531" data-name="Groupe 13531" transform="translate(4.151 337.55)">
            <path id="Rectangle_12757" d="M0 0h3.897v30.561H0z" class="cls-1" data-name="Rectangle 12757" transform="rotate(-127.431 9.104 9.754)"/>
            <path id="Rectangle_12758" d="M0 0h6.219v15.358H0z" class="cls-1" data-name="Rectangle 12758" transform="translate(46.221 50.005)"/>
            <path id="Rectangle_12759" d="M0 0h7.018v46.253H0z" class="cls-1" data-name="Rectangle 12759" transform="translate(2.977 19.11)"/>
            <g id="Groupe_13361" data-name="Groupe 13361">
                <g id="Groupe_13347" data-name="Groupe 13347" transform="translate(11.66 1.632)">
                    <path id="Tracé_45314" d="M131.342 518.454l6.887-4.91V510.2a1.568 1.568 0 0 0-1.567-1.568h-3.752a1.568 1.568 0 0 0-1.568 1.568z" class="cls-3" data-name="Tracé 45314" transform="translate(-130.477 -507.767)"/>
                    <path id="Tracé_45315" d="M130.476 520.134l8.618-6.144v-3.79a2.437 2.437 0 0 0-2.433-2.434h-3.752a2.436 2.436 0 0 0-2.433 2.434zm6.887-7.036l-5.156 3.676V510.2a.7.7 0 0 1 .7-.7h3.752a.7.7 0 0 1 .7.7z" class="cls-2" data-name="Tracé 45315" transform="translate(-130.476 -507.767)"/>
                </g>
                <path id="Tracé_45316" d="M96.657 573.1h52.368v-46.874H96.657zm50.636-1.732h-48.9v-43.411h48.9z" class="cls-2" data-name="Tracé 45316" transform="translate(-94.928 -506.135)"/>
                <path id="Tracé_45317" d="M98.94 527.47h47.8a1.346 1.346 0 0 0 .818-2.415l-24.719-18.92-24.719 18.92a1.346 1.346 0 0 0 .818 2.415zm46.664-1.732h-45.526l22.763-17.423z" class="cls-2" data-name="Tracé 45317" transform="translate(-94.928 -506.135)"/>
                <g id="Groupe_13348" data-name="Groupe 13348" transform="translate(0 19.07)">
                    <rect id="Rectangle_12760" width="54.095" height="3.598" class="cls-3" data-name="Rectangle 12760" rx=".434" transform="translate(.865 .866)"/>
                    <path id="Tracé_45318" d="M96.673 530.535h52.336a1.747 1.747 0 0 0 1.745-1.745v-1.839a1.747 1.747 0 0 0-1.745-1.746H96.673a1.747 1.747 0 0 0-1.745 1.746v1.839a1.747 1.747 0 0 0 1.745 1.745zm52.336-3.6a.015.015 0 0 1 .014.015v1.839a.014.014 0 0 1-.014.014H96.673a.014.014 0 0 1-.014-.014v-1.839a.015.015 0 0 1 .014-.015z" class="cls-2" data-name="Tracé 45318" transform="translate(-94.928 -525.205)"/>
                </g>
                <g id="Groupe_13349" data-name="Groupe 13349" transform="translate(23.179 7.985)">
                    <circle id="Ellipse_2491" cx="3.936" cy="3.936" r="3.936" class="cls-3" data-name="Ellipse 2491" transform="translate(.519 .519)"/>
                    <path id="Tracé_45319" d="M123.12 523.032a4.456 4.456 0 1 0-4.456-4.456 4.46 4.46 0 0 0 4.456 4.456zm0-7.873a3.417 3.417 0 1 1-3.417 3.417 3.421 3.421 0 0 1 3.417-3.417z" class="cls-2" data-name="Tracé 45319" transform="translate(-118.664 -514.12)"/>
                </g>
                <path id="Tracé_45320" d="M103.84 572.378h1.385V557.5h9.17v14.874h1.385v-16.255h-11.94z" class="cls-2" data-name="Tracé 45320" transform="translate(-68.866 -506.135)"/>
                <g id="Groupe_13352" data-name="Groupe 13352" transform="translate(34.1 30.398)">
                    <g id="Groupe_13351" data-name="Groupe 13351">
                        <rect id="Rectangle_12761" width="13.807" height="1.998" class="cls-5" data-name="Rectangle 12761" rx=".241" transform="translate(0 11.951)"/>
                        <g id="Groupe_13350" data-name="Groupe 13350" transform="translate(.576)">
                            <path id="Rectangle_12762" d="M1.423 0h8.942a1.423 1.423 0 0 1 1.423 1.423v10.366H0V1.423A1.423 1.423 0 0 1 1.423 0z" class="cls-3" data-name="Rectangle 12762" transform="translate(.433 .432)"/>
                            <path id="Tracé_45321" d="M103.423 549.188h12.655v-10.98a1.677 1.677 0 0 0-1.675-1.675H105.1a1.677 1.677 0 0 0-1.675 1.675zm11.789-.866h-10.923v-10.114a.811.811 0 0 1 .809-.81h9.302a.811.811 0 0 1 .809.81z" class="cls-2" data-name="Tracé 45321" transform="translate(-103.423 -536.533)"/>
                        </g>
                        <rect id="Rectangle_12763" width="13.807" height="1.484" class="cls-6" data-name="Rectangle 12763" rx=".179" transform="translate(0 11.821)"/>
                    </g>
                    <path id="Rectangle_12764" d="M0 0h1.039v12.517H0z" class="cls-6" data-name="Rectangle 12764" transform="translate(6.384 .432)"/>
                    <path id="Rectangle_12765" d="M0 0h11.726v1.039H0z" class="cls-6" data-name="Rectangle 12765" transform="translate(1.009 5.808)"/>
                </g>
                <g id="Groupe_13354" data-name="Groupe 13354" transform="translate(9.095 30.398)">
                    <rect id="Rectangle_12766" width="13.807" height="1.998" class="cls-5" data-name="Rectangle 12766" rx=".241" transform="translate(0 11.951)"/>
                    <g id="Groupe_13353" data-name="Groupe 13353" transform="translate(.577)">
                        <path id="Rectangle_12767" d="M1.423 0h8.942a1.423 1.423 0 0 1 1.423 1.423v10.366H0V1.423A1.423 1.423 0 0 1 1.423 0z" class="cls-3" data-name="Rectangle 12767" transform="translate(.432 .432)"/>
                        <path id="Tracé_45322" d="M128.428 549.188h12.654v-10.98a1.676 1.676 0 0 0-1.675-1.675h-9.3a1.676 1.676 0 0 0-1.675 1.675zm11.789-.866h-10.924v-10.114a.811.811 0 0 1 .81-.81h9.3a.811.811 0 0 1 .81.81z" class="cls-2" data-name="Tracé 45322" transform="translate(-128.428 -536.533)"/>
                    </g>
                    <rect id="Rectangle_12768" width="13.807" height="1.484" class="cls-6" data-name="Rectangle 12768" rx=".179" transform="translate(0 11.821)"/>
                    <path id="Rectangle_12769" d="M0 0h1.039v12.517H0z" class="cls-6" data-name="Rectangle 12769" transform="translate(6.196 .432)"/>
                    <path id="Rectangle_12770" d="M0 0h11.725v1.039H0z" class="cls-6" data-name="Rectangle 12770" transform="translate(.821 5.808)"/>
                </g>
                <g id="Groupe_13357" data-name="Groupe 13357" transform="translate(20.57 53.201)">
                    <g id="Groupe_13356" data-name="Groupe 13356">
                        <g id="Groupe_13355" data-name="Groupe 13355">
                            <path id="Tracé_45323" d="M129.212 563.011a2.706 2.706 0 0 0 .695-.091l.147-.039.039-.147a2.7 2.7 0 0 0-3.307-3.307l-.147.039-.039.147a2.7 2.7 0 0 0 2.612 3.4zm.409-.563a2.174 2.174 0 0 1-2.549-2.548 2.173 2.173 0 0 1 2.549 2.548z" class="cls-6" data-name="Tracé 45323" transform="translate(-126.509 -559.336)"/>
                            <path id="Tracé_45324" d="M124.33 563.011a2.7 2.7 0 0 0 2.612-3.4l-.039-.147-.147-.039a2.7 2.7 0 0 0-3.308 3.307l.039.147.148.039a2.7 2.7 0 0 0 .695.093zm2.139-3.111a2.174 2.174 0 0 1-2.548 2.548 2.173 2.173 0 0 1 2.548-2.548z" class="cls-6" data-name="Tracé 45324" transform="translate(-120.206 -559.336)"/>
                        </g>
                        <path id="Tracé_45325" d="M126.77 565.965a.394.394 0 0 0 .394-.394v-2.779a.394.394 0 1 0-.787 0v2.779a.393.393 0 0 0 .393.394z" class="cls-6" data-name="Tracé 45325" transform="translate(-123.357 -559.336)"/>
                    </g>
                </g>
                <g id="Groupe_13360" data-name="Groupe 13360" transform="translate(12.93 48.205)">
                    <g id="Groupe_13359" data-name="Groupe 13359">
                        <g id="Groupe_13358" data-name="Groupe 13358">
                            <path id="Tracé_45326" d="M136.841 558.057a2.722 2.722 0 0 0 .7-.092l.149-.04.04-.148a2.731 2.731 0 0 0-3.345-3.345l-.149.039-.039.149a2.728 2.728 0 0 0 2.641 3.437zm.414-.57a2.2 2.2 0 0 1-2.578-2.577 2.2 2.2 0 0 1 2.578 2.577z" class="cls-6" data-name="Tracé 45326" transform="translate(-134.107 -554.34)"/>
                            <path id="Tracé_45327" d="M131.9 558.057a2.728 2.728 0 0 0 2.641-3.437l-.039-.149-.149-.039a2.73 2.73 0 0 0-3.345 3.345l.04.148.148.04a2.735 2.735 0 0 0 .704.092zm2.164-3.147a2.2 2.2 0 0 1-2.578 2.577 2.2 2.2 0 0 1 2.578-2.577z" class="cls-6" data-name="Tracé 45327" transform="translate(-127.733 -554.34)"/>
                        </g>
                        <path id="Tracé_45328" d="M134.372 565.71a.4.4 0 0 0 .4-.4v-7.477a.4.4 0 1 0-.8 0v7.477a.4.4 0 0 0 .4.4z" class="cls-6" data-name="Tracé 45328" transform="translate(-130.92 -554.34)"/>
                    </g>
                </g>
                <path id="Tracé_45329" d="M120.131 571.5h1.039v-4.581a.484.484 0 0 1 .448-.513h16.3a.484.484 0 0 1 .448.513v4.581h1.034v-4.581a1.522 1.522 0 0 0-1.487-1.551h-16.3a1.522 1.522 0 0 0-1.487 1.551z" class="cls-6" data-name="Tracé 45329" transform="translate(-108.778 -506.135)"/>
            </g>
            <g id="Groupe_13362" data-name="Groupe 13362" transform="translate(42.365 58.027)">
                <path id="Ligne_1094" d="M1.566 0H0" class="cls-3" data-name="Ligne 1094" transform="translate(.433 .432)"/>
                <path id="Tracé_45330" d="M106.391 565.027h1.566a.432.432 0 0 0 0-.865h-1.566a.432.432 0 1 0 0 .865z" class="cls-2" data-name="Tracé 45330" transform="translate(-105.958 -564.162)"/>
            </g>
        </g>
    </g>
</svg>
