<svg xmlns="http://www.w3.org/2000/svg" width="96.43" height="57.67" viewBox="0 0 96.43 57.67">
    <defs>
        <style>
            .cls-1{fill:#636566;opacity:.5}.cls-2{fill:#702963}
        </style>
    </defs>
    <g id="Groupe_13456" data-name="Groupe 13456" transform="translate(-312.01 -334.77)">
        <path id="Tracé_45486" d="M328.277 376.52l-8.967-5.5-5.668-7.548 1.274-11.275 5.235-6.285 8.125-4.558z" class="cls-1" data-name="Tracé 45486"/>
        <path id="Tracé_45487" d="M374.707 391.1l-6.7-.244v-9.52l6.7-.406z" class="cls-1" data-name="Tracé 45487"/>
        <path id="Tracé_45488" d="M407.508 371.545l-6.7-.6V347.4l6.7-1z" class="cls-1" data-name="Tracé 45488"/>
        <path id="Tracé_45489" d="M314.16 357.97c1.78-5.81 18.75-11.66 43.35-11.66 15.86 0 28.55 2.43 36.04 5.72a14.13 14.13 0 0 1 1.14-1.64c-8.72-3.91-23.1-6.08-37.18-6.08-17.1 0-34.65 3.2-41.97 8.82-2.25 1.72-3.53 3.68-3.53 5.84s1.28 4.12 3.53 5.84c7.32 5.62 24.87 8.83 41.97 8.83 14.08 0 28.46-2.18 37.18-6.08a13.508 13.508 0 0 1-1.15-1.65c-7.49 3.3-20.17 5.73-36.03 5.73-24.6 0-41.57-5.86-43.35-11.67a3.568 3.568 0 0 1-.14-.71 4.219 4.219 0 0 1 0-.58 3.568 3.568 0 0 1 .14-.71z" class="cls-2" data-name="Tracé 45489"/>
        <path id="Tracé_45490" d="M374.02 379.5a77.131 77.131 0 0 1-13.22 1.6.71.71 0 0 0-.14.01q-1.56.06-3.15.06c-1.96 0-3.88-.07-5.77-.2-2.39-.16-4.72-.42-6.97-.77-14.19-2.22-25.31-8.06-29.23-15.39a12.415 12.415 0 0 1-1.48-4.84 5.53 5.53 0 0 1-.04-.71 4.219 4.219 0 0 1 0-.58 5.53 5.53 0 0 1 .04-.71 12.415 12.415 0 0 1 1.48-4.84c5.03-9.42 21.94-16.36 41.97-16.36 16.83 0 31.45 4.9 38.68 12.06a15.731 15.731 0 0 1 1.52-1.17c-7.65-7.66-22.8-12.89-40.2-12.89-25.09 0-45.5 10.86-45.5 24.2 0 9.34 10 17.46 24.6 21.49a69.709 69.709 0 0 0 8.5 1.79q2.955.45 6.07.68t6.33.24c.78 0 1.55-.01 2.32-.03.37-.01.73-.03 1.09-.05a79.124 79.124 0 0 0 12.57-1.46c.67-.14 1.34-.28 2-.43 9.53-2.19 17.38-6.07 22.22-10.91a14.376 14.376 0 0 1-1.52-1.18c-4.72 4.67-12.59 8.38-22.17 10.39z" class="cls-2" data-name="Tracé 45490"/>
        <path id="Tracé_45491" d="M405.2 345.4a13.465 13.465 0 0 0-7.49 2.26 15.731 15.731 0 0 0-1.52 1.17 13.82 13.82 0 0 0-1.5 1.56 14.13 14.13 0 0 0-1.14 1.64 13.276 13.276 0 0 0-1.88 5.94c-.03.33-.04.66-.04 1s.01.67.04 1a13.658 13.658 0 0 0 3.02 7.59 13.728 13.728 0 0 0 1.5 1.55 14.376 14.376 0 0 0 1.52 1.18 13.465 13.465 0 0 0 7.49 2.26h3.24V345.4zm1.24 25.15h-1.24a11.42 11.42 0 0 1-6.11-1.76 10.636 10.636 0 0 1-1.54-1.15 10.382 10.382 0 0 1-1-.99 11.648 11.648 0 0 1-1.19-1.6 11.521 11.521 0 0 1 .01-12.16 10.818 10.818 0 0 1 1.18-1.6 11.681 11.681 0 0 1 1-.99 10.564 10.564 0 0 1 1.54-1.14 11.42 11.42 0 0 1 6.11-1.76h1.24z" class="cls-2" data-name="Tracé 45491"/>
        <path id="Tracé_45492" d="M391.63 358.97c0 .34.01.67.04 1h-78.66a1 1 0 0 1 0-2h78.66c-.03.33-.04.66-.04 1z" class="cls-2" data-name="Tracé 45492"/>
        <path id="Tracé_45493" d="M371.915 392.44h-20.164a3.986 3.986 0 0 1-2.619-.93l-14.071-12.419 15.355 1.75a58.4 58.4 0 0 0 14.149-.113l10.924-1.422V389.5c0 1.648-1.57 2.94-3.574 2.94zM341.15 381.8l9.3 8.212a2.006 2.006 0 0 0 1.3.43h20.164c.9 0 1.574-.5 1.574-.941v-7.916l-8.666 1.128a60.515 60.515 0 0 1-14.634.118z" class="cls-2" data-name="Tracé 45493"/>
        <path id="Tracé_45494" d="M359.656 387.7h-6.718a1 1 0 0 1 0-2h6.718a1 1 0 0 1 0 2z" class="cls-2" data-name="Tracé 45494"/>
        <circle id="Ellipse_2499" cx="1.12" cy="1.12" r="1.12" class="cls-2" data-name="Ellipse 2499" transform="translate(366.354 385.584)"/>
    </g>
</svg>
