<svg id="Calque_1" data-name="Calque 1" xmlns="http://www.w3.org/2000/svg" viewBox="0 0 28.09 32.33"><defs><style>.cls-1{fill:none;}.cls-2{fill:#636566;opacity:0.5;}.cls-3,.cls-4,.cls-5{fill:#702963;}.cls-3{opacity:0.66;}.cls-4{opacity:0.33;}</style></defs><path class="cls-1" d="M17.27,26.07v2.58H10.82V26.07H11a10.19,10.19,0,0,0,6.18,0Z"/><path class="cls-1" d="M20,30.56a.87.87,0,0,1-.86.87H8.92a.87.87,0,1,1,0-1.73H19.17A.87.87,0,0,1,20,30.56Z"/><path class="cls-1" d="M14,16.86v8.69a9.61,9.61,0,0,1-1.79-.17q-.37-.07-.75-.18a7.77,7.77,0,0,1-.92-.33,9.4,9.4,0,0,1-1.15-.56h0A9.71,9.71,0,0,1,7.64,23a9.37,9.37,0,0,1-1.4-1.74,10.45,10.45,0,0,1-.69-1.33c-.09-.24-.18-.48-.26-.73a9.48,9.48,0,0,1-.42-2.28H14Z"/><path class="cls-2" d="M14.05,16.87v8.69h0a9.43,9.43,0,0,1-1.78-.17,6.49,6.49,0,0,1-.76-.19,7.77,7.77,0,0,1-.92-.33,6.79,6.79,0,0,1-1.15-.56h0A8.7,8.7,0,0,1,7.64,23a9.37,9.37,0,0,1-1.4-1.74,8.38,8.38,0,0,1-.69-1.33c-.09-.24-.18-.48-.26-.73a8.6,8.6,0,0,1-.42-2.28Z"/><path class="cls-3" d="M1,4.32a.46.46,0,0,0-.59.25A7.06,7.06,0,0,0,0,6a.45.45,0,0,0,.36.53H.45A.45.45,0,0,0,.9,6.14a5.94,5.94,0,0,1,.35-1.23A.46.46,0,0,0,1,4.32Z"/><path class="cls-3" d="M7.35,7.57h.11a4.81,4.81,0,0,1,1.2-.15.45.45,0,0,0,0-.9,6.13,6.13,0,0,0-1.42.17.46.46,0,0,0-.33.55A.45.45,0,0,0,7.35,7.57Z"/><path class="cls-4" d="M4.22,10.27a3.93,3.93,0,0,1,.49-.84.47.47,0,0,0-.1-.64A.46.46,0,0,0,4,8.9a6.11,6.11,0,0,0-.58,1,.45.45,0,0,0,.23.6.39.39,0,0,0,.18,0A.47.47,0,0,0,4.22,10.27Z"/><path class="cls-4" d="M24.51,10.93a.45.45,0,0,0-.37.53,5.69,5.69,0,0,1,.07.83.45.45,0,1,0,.9,0,5.51,5.51,0,0,0-.08-1A.46.46,0,0,0,24.51,10.93Z"/><path class="cls-3" d="M23.2,9.32a.44.44,0,0,0,.36.18.41.41,0,0,0,.27-.1.45.45,0,0,0,.09-.63,5.86,5.86,0,0,0-1-1,.44.44,0,0,0-.63.07.45.45,0,0,0,.07.64A4.71,4.71,0,0,1,23.2,9.32Z"/><path class="cls-5" d="M12.25,25.38q-.37-.07-.75-.18a6.49,6.49,0,0,0,.76.19,9.43,9.43,0,0,0,1.78.17h0A9.61,9.61,0,0,1,12.25,25.38Zm-1.67-.51a9.4,9.4,0,0,1-1.15-.56A6.79,6.79,0,0,0,10.58,24.87ZM9.42,24.3A9.71,9.71,0,0,1,7.64,23,8.7,8.7,0,0,0,9.42,24.3ZM6.24,21.21a10.45,10.45,0,0,1-.69-1.33A8.38,8.38,0,0,0,6.24,21.21Zm-1-2.06a9.48,9.48,0,0,1-.42-2.28A8.6,8.6,0,0,0,5.29,19.15Z"/><path class="cls-5" d="M14.42,15.86a.1.1,0,0,0,0-.07v-3.5a4.87,4.87,0,0,1,3.33-4.63,4.88,4.88,0,0,1,2.94,0,.45.45,0,0,0,.56-.31.44.44,0,0,0-.3-.56,5.42,5.42,0,0,0-.89-.19,5.87,5.87,0,0,0-2.6.25,5.69,5.69,0,0,0-3,2.39V7.27a6.35,6.35,0,0,1,1.07-3.54,5.91,5.91,0,0,1,.85-1A6.47,6.47,0,0,1,17.27,2a6.32,6.32,0,0,1,1.09-.58A.45.45,0,0,0,18,.56a7.37,7.37,0,0,0-1.24.66,7.8,7.8,0,0,0-1,.85,7.69,7.69,0,0,0-1,1.16A7.16,7.16,0,0,0,14,4.74,7.29,7.29,0,0,0,4.88.36,7.07,7.07,0,0,0,2.76,1.48,7.31,7.31,0,0,0,2.15,2a.43.43,0,0,0,0,.63.45.45,0,0,0,.64,0,4.65,4.65,0,0,1,.53-.45,6.21,6.21,0,0,1,1.85-1,6.44,6.44,0,0,1,3.91,0,6.83,6.83,0,0,1,1.43.65,6.35,6.35,0,0,1,3,5.43V9.18a5.81,5.81,0,0,0-2.26-2,.45.45,0,1,0-.41.81,4.87,4.87,0,0,1,2.67,4.35v3.5a.1.1,0,0,0,0,.07H3.85v.5a10.18,10.18,0,0,0,6.06,9.31v3.12h-1a1.77,1.77,0,0,0,0,3.54H19.17a1.77,1.77,0,0,0,0-3.54h-1V25.67a10.22,10.22,0,0,0,6.06-9.31v-.5ZM19.17,29.7a.87.87,0,0,1,0,1.73H8.92a.87.87,0,1,1,0-1.73Zm-1.9-1.05H10.82V26.07H11a10.19,10.19,0,0,0,6.18,0h.14Zm-1.44-3.27a9.51,9.51,0,0,1-1.78.17h0a9.43,9.43,0,0,1-1.78-.17,6.49,6.49,0,0,1-.76-.19,7.77,7.77,0,0,1-.92-.33,6.79,6.79,0,0,1-1.15-.56h0A8.7,8.7,0,0,1,7.64,23a9.37,9.37,0,0,1-1.4-1.74,8.38,8.38,0,0,1-.69-1.33c-.09-.24-.18-.48-.26-.73a8.6,8.6,0,0,1-.42-2.28H23.22A9.21,9.21,0,0,1,15.83,25.38Z"/><rect class="cls-5" x="14.04" y="25.55" width="0.01" height="0.01"/><path class="cls-3" d="M23.81.64A7.63,7.63,0,0,0,22.19.13,7,7,0,0,0,20.82,0a.46.46,0,0,0-.46.45.46.46,0,0,0,.46.45,6.52,6.52,0,0,1,2.62.57,6.14,6.14,0,0,1,1.23.73.45.45,0,0,0,.55-.72A7.72,7.72,0,0,0,23.81.64Z"/><path class="cls-4" d="M28,6.26a7.12,7.12,0,0,0-.52-1.87c-.05-.11-.1-.22-.16-.33a.44.44,0,0,0-.6-.21.45.45,0,0,0-.21.61,2.59,2.59,0,0,1,.14.29,6.59,6.59,0,0,1,.46,1.63,6.8,6.8,0,0,1,.06.9.45.45,0,0,0,.9,0A6.81,6.81,0,0,0,28,6.26Z"/></svg>