<svg xmlns="http://www.w3.org/2000/svg" id="GOCOBOOSTER" width="64.13" height="105.933" viewBox="0 0 64.13 105.933">
    <defs>
        <style>
            .cls-1,.cls-3,.cls-4{fill:#ff540e}.cls-1{opacity:.33}.cls-2{fill:#fff}.cls-4{opacity:.66}
        </style>
    </defs>
    <ellipse id="Fond_gris" cx="32.065" cy="32.065" class="cls-1" data-name="Fond gris" rx="32.065" ry="32.065" transform="translate(0 20.496)"/>
    <g id="Fusée" transform="translate(4.729)">
        <g id="Groupe_5314" data-name="Groupe 5314" transform="translate(3.943)">
            <path id="Tracé_16183" d="M129.007 81.308a41.484 41.484 0 0 0-19.913-35.351 41.337 41.337 0 0 0 0 70.7 41.484 41.484 0 0 0 19.913-35.349z" class="cls-2" data-name="Tracé 16183" transform="translate(-86.184 -42.485)"/>
            <path id="Tracé_16184" d="M111.188 44.475l-.752-.435-.75.435a44.332 44.332 0 0 0 0 76.777l.75.435.752-.435a44.332 44.332 0 0 0 0-76.777zM90.525 82.863a41.489 41.489 0 0 1 19.912-35.351 41.335 41.335 0 0 1 0 70.7 41.489 41.489 0 0 1-19.912-35.349z" class="cls-3" data-name="Tracé 16184" transform="translate(-87.527 -44.04)"/>
        </g>
        <g id="Groupe_5315" data-name="Groupe 5315" transform="translate(12.822 63.136)">
            <path id="Tracé_16185" d="M106.733 80.552H103.5a9.431 9.431 0 0 0-9.421 9.421v2.117a.044.044 0 0 0 .043.043h21.988a.044.044 0 0 0 .043-.043v-2.117a9.431 9.431 0 0 0-9.42-9.421z" class="cls-2" data-name="Tracé 16185" transform="translate(-91.087 -77.554)"/>
            <path id="Tracé_16186" d="M108.075 78.9h-3.23a12.43 12.43 0 0 0-12.416 12.415v2.117a3.043 3.043 0 0 0 3.039 3.039h21.984a3.044 3.044 0 0 0 3.041-3.039v-2.117A12.432 12.432 0 0 0 108.075 78.9zm9.425 14.533a.044.044 0 0 1-.043.043H95.468a.044.044 0 0 1-.043-.043v-2.118a9.431 9.431 0 0 1 9.421-9.421h3.23a9.431 9.431 0 0 1 9.421 9.421z" class="cls-3" data-name="Tracé 16186" transform="translate(-92.429 -78.897)"/>
        </g>
        <g id="Groupe_5316" data-name="Groupe 5316" transform="translate(25.557 90.936)">
            <path id="Ligne_619" d="M0 0v12" class="cls-3" data-name="Ligne 619" transform="translate(1.498 1.499)"/>
            <path id="Tracé_16187" d="M100.958 109.242a1.5 1.5 0 0 1-1.5-1.5v-12a1.5 1.5 0 1 1 3 0v12a1.5 1.5 0 0 1-1.5 1.5z" class="cls-3" data-name="Tracé 16187" transform="translate(-99.46 -94.245)"/>
        </g>
        <g id="Groupe_5317" data-name="Groupe 5317" transform="translate(33.205 84.124)">
            <path id="Ligne_620" d="M0 0v12" class="cls-3" data-name="Ligne 620" transform="translate(1.498 1.499)"/>
            <path id="Tracé_16188" d="M105.18 105.481a1.5 1.5 0 0 1-1.5-1.5v-12a1.5 1.5 0 1 1 3 0v12a1.5 1.5 0 0 1-1.5 1.5z" class="cls-3" data-name="Tracé 16188" transform="translate(-103.682 -90.484)"/>
        </g>
        <g id="Groupe_5318" data-name="Groupe 5318" transform="translate(18.145 84.756)">
            <path id="Ligne_621" d="M0 0v8.03" class="cls-3" data-name="Ligne 621" transform="translate(1.499 1.499)"/>
            <path id="Tracé_16189" d="M96.868 101.86a1.5 1.5 0 0 1-1.5-1.5v-8.027a1.5 1.5 0 1 1 3 0v8.029a1.5 1.5 0 0 1-1.5 1.498z" class="cls-3" data-name="Tracé 16189" transform="translate(-95.368 -90.833)"/>
        </g>
        <path id="Tracé_16190" d="M116.2 94.771a3.445 3.445 0 0 1-2.626-1.223l-3.674-4.293a1.5 1.5 0 1 1 2.277-1.949l3.673 4.295a.48.48 0 0 0 .844-.312v-6.535l-7.094-8.293a1.5 1.5 0 1 1 2.279-1.949l7.814 9.136v7.642a3.446 3.446 0 0 1-2.273 3.26 3.5 3.5 0 0 1-1.22.221z" class="cls-3" data-name="Tracé 16190" transform="translate(-65.966 -19.744)"/>
        <path id="Tracé_16191" d="M88.84 94.86a3.5 3.5 0 0 1-1.219-.219 3.446 3.446 0 0 1-2.271-3.262v-7.64l7.814-9.139a1.5 1.5 0 0 1 2.277 1.947l-7.095 8.3v6.533a.479.479 0 0 0 .844.312l3.673-4.292a1.5 1.5 0 1 1 2.277 1.947l-3.671 4.293a3.446 3.446 0 0 1-2.629 1.22z" class="cls-3" data-name="Tracé 16191" transform="translate(-85.35 -19.67)"/>
    </g>
    <g id="Corps_orange_100_" data-name="Corps orange 100%" transform="translate(21.042 21.067)">
        <path id="Corps_100_" d="M113.945 73.513c0-4.7-4.318-8.511-9.643-8.511s-9.645 3.811-9.645 8.511v5.269a.57.57 0 0 0 .571.571h18.147a.57.57 0 0 0 .571-.571z" class="cls-4" data-name="Corps 100%" transform="translate(-94.112 -48.101)"/>
        <ellipse id="Blanc_tête" cx="5.693" cy="5.693" class="cls-2" data-name="Blanc tête" rx="5.693" ry="5.693" transform="translate(5.025 1.221)"/>
        <path id="Cheveux_droit" d="M101.069 56.371a5.267 5.267 0 0 0-.455-.042 5.774 5.774 0 0 0 4.892 6.519c.152.024.3.033.455.043a5.777 5.777 0 0 0-4.892-6.52z" class="cls-4" data-name="Cheveux droit" transform="translate(-89.325 -55.137)"/>
        <path id="Cheveux_gauche" d="M103.37 56.543c.022-.152.031-.3.042-.455a5.777 5.777 0 0 0-6.521 4.892c-.022.152-.033.3-.042.453a5.774 5.774 0 0 0 6.521-4.89z" class="cls-4" data-name="Cheveux gauche" transform="translate(-92.333 -55.378)"/>
        <g id="Corps">
            <path id="Corps-2" d="M104.9 64.478c-5.812 0-10.542 4.222-10.542 9.411v5.269a1.471 1.471 0 0 0 1.469 1.471h18.147a1.471 1.471 0 0 0 1.469-1.471v-5.269c-.002-5.189-4.731-9.411-10.543-9.411zm8.745 14.353h-2.219v-5.4a.75.75 0 0 0-1.5 0v5.4H99.871v-5.4a.749.749 0 1 0-1.5 0v5.4h-2.216v-4.942c0-4.2 3.921-7.613 8.743-7.613s8.745 3.416 8.745 7.613z" class="cls-3" data-name="Corps" transform="translate(-94.356 -48.526)"/>
            <g id="Tête" transform="translate(4.034)">
                <path id="Tracé_16192" d="M105.069 55.872l-.076-.018a7.049 7.049 0 0 0-.857-.147l-.06-.005h-.033l-.359-.024q-.125-.005-.245-.005c-.049 0-.1.005-.143.005l-.1.005a6.855 6.855 0 0 0-6.39 5.135 6.959 6.959 0 0 0-.17.857 6.679 6.679 0 0 0-.058.851v.072a6.853 6.853 0 0 0 13.344 2.128 6.512 6.512 0 0 0 .221-.779 7.075 7.075 0 0 0 .134-.991c.009-.143.014-.286.014-.429a6.819 6.819 0 0 0-5.222-6.655zm3.432 6.656v.179l-.049-.016a3.158 3.158 0 0 1-.147-.047 6.025 6.025 0 0 1-.277-.094c-.053-.02-.105-.043-.158-.065a4.581 4.581 0 0 1-.246-.11l-.158-.082a6.471 6.471 0 0 1-.38-.222q-.111-.073-.217-.152a4.388 4.388 0 0 1-.138-.1c-.074-.056-.145-.118-.216-.179-.038-.034-.078-.065-.114-.1a5.15 5.15 0 0 1-.255-.257l-.049-.051a3.896 3.896 0 0 1-.274-.33c-.029-.038-.054-.076-.081-.114-.056-.08-.112-.159-.165-.241-.031-.049-.058-.1-.087-.149-.045-.076-.089-.15-.129-.23a7.116 7.116 0 0 1-.185-.398c-.024-.056-.045-.114-.067-.172-.029-.08-.056-.163-.083-.245l-.053-.178a4.571 4.571 0 0 1-.062-.263c-.013-.058-.027-.114-.036-.172-.018-.1-.031-.2-.043-.3l-.018-.149a5.29 5.29 0 0 1-.022-.46v-.183h.007a5.038 5.038 0 0 1 3.701 4.881zm-5.638-5.028q-.054.16-.12.315l-.007.018a4.32 4.32 0 0 1-.181.375c-.018.036-.038.071-.058.107-.049.087-.1.172-.154.257l-.072.11c-.058.085-.12.17-.183.252l-.062.082a4.986 4.986 0 0 1-.27.312l-.042.04a4.914 4.914 0 0 1-.254.246l-.092.08a4.672 4.672 0 0 1-.234.187c-.033.025-.065.051-.1.074a7.04 7.04 0 0 1-.29.2l-.053.034a5.54 5.54 0 0 1-.362.2l-.091.042a5.403 5.403 0 0 1-.29.127c-.042.016-.081.033-.123.047-.094.034-.19.067-.288.1a1.641 1.641 0 0 1-.114.034 5.169 5.169 0 0 1-.77.152v-.005a5.07 5.07 0 0 1 4.21-3.386zm.578 10.085a5.065 5.065 0 0 1-5.055-4.881q.155-.008.31-.022h.043c.187-.018.371-.045.556-.078l.1-.018q.266-.052.527-.125l.092-.027c.179-.053.355-.11.527-.176l.016-.007c.168-.065.333-.139.5-.217l.083-.04a6.08 6.08 0 0 0 .462-.254l.091-.056c.15-.094.3-.192.442-.3l.051-.038c.138-.1.272-.21.4-.324l.053-.043a7.45 7.45 0 0 0 .384-.37l.071-.074a8.24 8.24 0 0 0 .315-.362c.013.038.024.078.038.116s.034.087.053.13c.063.156.13.31.2.462l.024.049c.082.163.172.322.266.476l.072.116c.092.145.188.286.29.422l.024.034c.11.145.228.284.348.42l.092.1c.118.127.237.25.364.368l.025.024a6.99 6.99 0 0 0 .962.734l.022.014c.154.1.315.187.478.272l.127.065c.161.078.324.154.491.221l.022.009c.172.067.35.127.527.181l.145.042.136.04a5.088 5.088 0 0 1-4.674 3.119z" class="cls-3" data-name="Tracé 16192" transform="translate(-96.583 -55.671)"/>
            </g>
        </g>
    </g>
</svg>
