<svg xmlns="http://www.w3.org/2000/svg" id="GOCOCAMPUS" width="94.591" height="86.613" viewBox="0 0 94.591 86.613">
    <defs>
        <style>
            .cls-1,.cls-2,.cls-4{fill:#d31643}.cls-1{opacity:.33}.cls-2{opacity:.66}.cls-3{fill:#fff}.cls-5{fill:none}.cls-6{fill:#702963}
        </style>
    </defs>
    <path id="Tracé_16207" d="M408.8 78.364a26.451 26.451 0 1 0 .791 6.423 26.288 26.288 0 0 0-.791-6.423z" class="cls-1" data-name="Tracé 16207" transform="translate(-337.421 -43.44)"/>
    <g id="Corps_rouge_100_" data-name="Corps rouge 100%" transform="translate(37.258 27.869)">
        <path id="Tracé_16208" d="M374.9 73.215c-4.372 0-7.917 3.128-7.917 6.988v4.325a.468.468 0 0 0 .467.469h14.9a.468.468 0 0 0 .467-.469V80.2c-.002-3.857-3.545-6.985-7.917-6.985z" class="cls-2" data-name="Tracé 16208" transform="translate(-366.533 -59.34)"/>
        <ellipse id="Ellipse_865" cx="4.673" cy="4.673" class="cls-3" data-name="Ellipse 865" rx="4.673" ry="4.673" transform="translate(4.126 1.003)"/>
        <path id="Tracé_16209" d="M372.244 66.129c-.125-.016-.248-.025-.371-.034a4.739 4.739 0 0 0 4.016 5.352c.125.018.248.027.371.036a4.742 4.742 0 0 0-4.016-5.354z" class="cls-2" data-name="Tracé 16209" transform="translate(-362.603 -65.117)"/>
        <path id="Tracé_16210" d="M368.816 69.913c-.018.125-.027.25-.034.373a4.739 4.739 0 0 0 5.352-4.016 4.27 4.27 0 0 0 .034-.373 4.742 4.742 0 0 0-5.352 4.016z" class="cls-2" data-name="Tracé 16210" transform="translate(-365.074 -65.315)"/>
        <g id="Corps">
            <path id="Tracé_16211" d="M375.388 72.786c-4.771 0-8.654 3.465-8.654 7.725v4.325a1.208 1.208 0 0 0 1.206 1.206h14.9a1.208 1.208 0 0 0 1.206-1.206v-4.325c-.002-4.26-3.885-7.725-8.658-7.725zm7.18 11.781h-1.822v-4.433a.615.615 0 0 0-1.23 0v4.432h-8.254v-4.432a.615.615 0 0 0-1.23 0v4.432h-1.822v-4.055c0-3.447 3.22-6.249 7.178-6.249s7.18 2.8 7.18 6.249z" class="cls-4" data-name="Tracé 16211" transform="translate(-366.734 -59.689)"/>
            <g id="Tête" transform="translate(3.313)">
                <path id="Tracé_16212" d="M369.505 69.156a4.038 4.038 0 0 0 .63-.121c.031-.007.063-.018.094-.027.08-.025.158-.051.236-.08l.1-.038c.081-.033.161-.067.239-.105l.072-.034q.152-.076.3-.163l.042-.029c.082-.049.161-.1.239-.159l.081-.06c.065-.051.129-.1.19-.154l.076-.067c.072-.063.141-.13.208-.2l.034-.033c.076-.083.15-.168.221-.255l.051-.067c.053-.067.1-.138.15-.208l.06-.091q.065-.1.125-.212c.016-.027.034-.056.049-.085.052-.1.1-.2.149-.308l.005-.016c.034-.083.065-.17.1-.257a4.162 4.162 0 0 0-3.451 2.769z" class="cls-5" data-name="Tracé 16212" transform="translate(-367.799 -64.882)"/>
                <path id="Tracé_16213" d="M377.254 71.087l-.118-.034a4.744 4.744 0 0 1-.435-.149l-.016-.007a4.545 4.545 0 0 1-.4-.181l-.1-.053a6.035 6.035 0 0 1-.393-.223l-.018-.013a6.437 6.437 0 0 1-.357-.246l-.089-.069a5.576 5.576 0 0 1-.344-.288l-.02-.02-.3-.3-.076-.083c-.1-.11-.2-.225-.284-.344l-.022-.029a6.398 6.398 0 0 1-.237-.346l-.058-.1a5.145 5.145 0 0 1-.219-.391l-.02-.04a4.952 4.952 0 0 1-.168-.379l-.042-.109a1.6 1.6 0 0 1-.036-.087c-.08.1-.167.2-.255.29l-.058.062c-.1.105-.2.206-.315.3l-.042.036a6.086 6.086 0 0 1-.33.266l-.042.033a6.178 6.178 0 0 1-.362.243l-.074.045c-.125.074-.25.145-.38.21l-.069.033a5.344 5.344 0 0 1-.408.178l-.013.005c-.141.054-.286.1-.431.145l-.076.022a4.53 4.53 0 0 1-.433.1l-.083.014c-.15.027-.3.049-.456.063h-.036a6.897 6.897 0 0 1-.254.018 4.153 4.153 0 0 0 7.986 1.447.272.272 0 0 1-.117-.019z" class="cls-5" data-name="Tracé 16213" transform="translate(-367.901 -63.896)"/>
                <path id="Tracé_16214" d="M372.291 66.454c0 .049-.009.1-.009.149 0 .127.007.252.018.377 0 .042.011.081.016.123.009.082.02.165.034.245.007.049.02.094.029.141a4.312 4.312 0 0 0 .094.362 5.2 5.2 0 0 0 .069.2c.018.049.036.1.056.141.025.065.054.13.085.194.022.045.042.089.065.134a4.3 4.3 0 0 0 .105.188c.023.04.047.082.072.121.042.067.089.132.136.2.022.031.042.063.065.094.071.094.147.185.225.272l.042.042c.067.072.136.143.208.21l.094.081c.058.051.116.1.176.149a4.698 4.698 0 0 0 .416.284c.062.036.123.072.188.105.042.024.085.045.129.067.067.033.134.062.2.091.044.018.087.038.13.054.074.029.15.054.226.078.04.013.08.027.121.038l.038.009v-.147a4.131 4.131 0 0 0-3.028-4.002z" class="cls-5" data-name="Tracé 16214" transform="translate(-365.546 -64.826)"/>
                <path id="Tracé_16215" d="M370.363 68.617c.139-.053.275-.114.408-.178-.133.061-.271.125-.408.178z" class="cls-6" data-name="Tracé 16215" transform="translate(-367.103 -63.215)"/>
                <path id="Tracé_16216" d="M372.645 67.783z" class="cls-6" data-name="Tracé 16216" transform="translate(-365.337 -63.9)"/>
                <path id="Tracé_16217" d="M369.837 68.735z" class="cls-6" data-name="Tracé 16217" transform="translate(-367.53 -63.059)"/>
                <path id="Tracé_16218" d="M370.877 68.389z" class="cls-6" data-name="Tracé 16218" transform="translate(-366.686 -63.453)"/>
                <path id="Tracé_16219" d="M370.118 68.685z" class="cls-6" data-name="Tracé 16219" transform="translate(-367.302 -63.133)"/>
                <path id="Tracé_16220" d="M370.626 68.515z" class="cls-6" data-name="Tracé 16220" transform="translate(-366.889 -63.324)"/>
                <path id="Tracé_16221" d="M371.1 68.247z" class="cls-6" data-name="Tracé 16221" transform="translate(-366.505 -63.587)"/>
                <path id="Tracé_16222" d="M371.77 67.6c-.083.1-.168.2-.259.3.089-.094.176-.19.255-.29l.036.087c-.012-.038-.021-.07-.032-.097z" class="cls-6" data-name="Tracé 16222" transform="translate(-366.172 -63.899)"/>
                <path id="Tracé_16223" d="M373.1 68.31a4.12 4.12 0 0 1-.208-.21c.071.072.14.143.208.21z" class="cls-6" data-name="Tracé 16223" transform="translate(-365.048 -63.49)"/>
                <path id="Tracé_16224" d="M372.974 68.2a4.216 4.216 0 0 1-.225-.272c.071.093.151.184.225.272z" class="cls-6" data-name="Tracé 16224" transform="translate(-365.167 -63.631)"/>
                <path id="Tracé_16225" d="M372.774 67.963c-.047-.065-.094-.13-.136-.2.042.07.089.137.136.2z" class="cls-6" data-name="Tracé 16225" transform="translate(-365.257 -63.761)"/>
                <path id="Tracé_16226" d="M371.62 67.794z" class="cls-6" data-name="Tracé 16226" transform="translate(-366.338 -63.739)"/>
                <path id="Tracé_16227" d="M372.593 68.952l-.3-.3c.097.102.197.204.3.3z" class="cls-6" data-name="Tracé 16227" transform="translate(-365.536 -63.043)"/>
                <path id="Tracé_16228" d="M372.542 67.608z" class="cls-6" data-name="Tracé 16228" transform="translate(-365.404 -64.047)"/>
                <path id="Tracé_16229" d="M371.7 67.708a6.8 6.8 0 0 0 .168.379 2.824 2.824 0 0 1-.168-.379z" class="cls-6" data-name="Tracé 16229" transform="translate(-366.022 -63.808)"/>
                <path id="Tracé_16230" d="M371.8 67.939z" class="cls-6" data-name="Tracé 16230" transform="translate(-365.938 -63.621)"/>
                <path id="Tracé_16231" d="M371.952 68.208z" class="cls-6" data-name="Tracé 16231" transform="translate(-365.814 -63.403)"/>
                <path id="Tracé_16232" d="M372.335 67.056z" class="cls-6" data-name="Tracé 16232" transform="translate(-365.53 -64.535)"/>
                <path id="Tracé_16233" d="M372.095 68.415z" class="cls-6" data-name="Tracé 16233" transform="translate(-365.697 -63.235)"/>
                <path id="Tracé_16234" d="M372.286 66.453v.15c0-.051.007-.1.009-.149z" class="cls-6" data-name="Tracé 16234" transform="translate(-365.546 -64.826)"/>
                <path id="Tracé_16235" d="M372.3 66.913z" class="cls-6" data-name="Tracé 16235" transform="translate(-365.546 -64.759)"/>
                <path id="Tracé_16236" d="M373.19 69.32z" class="cls-6" data-name="Tracé 16236" transform="translate(-364.809 -62.5)"/>
                <path id="Tracé_16237" d="M369.539 68.76z" class="cls-6" data-name="Tracé 16237" transform="translate(-367.771 -63.006)"/>
                <path id="Tracé_16238" d="M372.47 68.828c.111.1.226.2.344.288-.114-.092-.234-.187-.344-.288z" class="cls-6" data-name="Tracé 16238" transform="translate(-365.393 -62.9)"/>
                <path id="Tracé_16239" d="M372.457 67.426c-.024-.065-.047-.134-.069-.2.022.066.045.135.069.2z" class="cls-6" data-name="Tracé 16239" transform="translate(-365.46 -64.2)"/>
                <path id="Tracé_16240" d="M372.916 69.168z" class="cls-6" data-name="Tracé 16240" transform="translate(-365.032 -62.624)"/>
                <path id="Tracé_16241" d="M372.709 69.025z" class="cls-6" data-name="Tracé 16241" transform="translate(-365.2 -62.74)"/>
                <path id="Tracé_16242" d="M373.768 68.686a2.819 2.819 0 0 1-.2-.091c.064.033.132.062.2.091z" class="cls-6" data-name="Tracé 16242" transform="translate(-364.505 -63.089)"/>
                <path id="Tracé_16243" d="M370.562 67.6q-.147.087-.3.163.153-.075.3-.163z" class="cls-6" data-name="Tracé 16243" transform="translate(-367.184 -63.895)"/>
                <path id="Tracé_16244" d="M370.69 67.5c-.078.056-.158.11-.239.159.082-.052.161-.106.239-.159z" class="cls-6" data-name="Tracé 16244" transform="translate(-367.031 -63.979)"/>
                <path id="Tracé_16245" d="M370.818 67.379c-.062.053-.125.1-.19.154.065-.051.129-.101.19-.154z" class="cls-6" data-name="Tracé 16245" transform="translate(-366.888 -64.075)"/>
                <path id="Tracé_16246" d="M370.983 67.231z" class="cls-6" data-name="Tracé 16246" transform="translate(-366.768 -64.195)"/>
                <path id="Tracé_16247" d="M373.578 68.605a3.383 3.383 0 0 1-.188-.105c.062.036.123.072.188.105z" class="cls-6" data-name="Tracé 16247" transform="translate(-364.647 -63.166)"/>
                <path id="Tracé_16248" d="M370.33 67.71z" class="cls-6" data-name="Tracé 16248" transform="translate(-367.323 -63.807)"/>
                <path id="Tracé_16249" d="M370.141 67.789c-.076.029-.156.054-.236.08.08-.026.159-.051.236-.08z" class="cls-6" data-name="Tracé 16249" transform="translate(-367.474 -63.743)"/>
                <path id="Tracé_16250" d="M373.941 68.739l.038.013z" class="cls-6" data-name="Tracé 16250" transform="translate(-364.2 -62.972)"/>
                <path id="Tracé_16251" d="M369.5 67.973a4.066 4.066 0 0 0 .632-.125 4.04 4.04 0 0 1-.63.121z" class="cls-6" data-name="Tracé 16251" transform="translate(-367.799 -63.695)"/>
                <path id="Tracé_16252" d="M373.975 68.753a3.543 3.543 0 0 1-.226-.078c.074.025.151.054.226.078z" class="cls-6" data-name="Tracé 16252" transform="translate(-364.356 -63.024)"/>
                <path id="Tracé_16253" d="M371.13 67.072z" class="cls-6" data-name="Tracé 16253" transform="translate(-366.66 -64.324)"/>
                <path id="Tracé_16254" d="M371.209 66.92c-.047.071-.1.141-.15.208.053-.067.103-.137.15-.208z" class="cls-6" data-name="Tracé 16254" transform="translate(-366.538 -64.448)"/>
                <path id="Tracé_16255" d="M373.4 68.512z" class="cls-6" data-name="Tracé 16255" transform="translate(-364.783 -63.256)"/>
                <path id="Tracé_16256" d="M371.3 66.753q-.06.109-.125.212.065-.103.125-.212z" class="cls-6" data-name="Tracé 16256" transform="translate(-366.444 -64.583)"/>
                <path id="Tracé_16257" d="M371.419 66.536c-.045.105-.1.206-.148.308.052-.102.103-.203.148-.308z" class="cls-6" data-name="Tracé 16257" transform="translate(-366.366 -64.759)"/>
                <path id="Tracé_16258" d="M372.389 67.242c-.02-.071-.036-.143-.053-.217.016.075.033.147.053.217z" class="cls-6" data-name="Tracé 16258" transform="translate(-365.502 -64.362)"/>
                <path id="Tracé_16259" d="M373.241 68.41c-.062-.047-.12-.1-.178-.149.058.051.116.101.178.149z" class="cls-6" data-name="Tracé 16259" transform="translate(-364.912 -63.36)"/>
                <path id="Tracé_16260" d="M371.356 66.642a4.15 4.15 0 0 0 .1-.257c-.035.087-.065.174-.1.257z" class="cls-6" data-name="Tracé 16260" transform="translate(-366.297 -64.882)"/>
                <path id="Tracé_16261" d="M371.672 67.648l.042.109z" class="cls-6" data-name="Tracé 16261" transform="translate(-366.041 -63.857)"/>
                <path id="Tracé_16262" d="M372.252 68.605l.076.083z" class="cls-6" data-name="Tracé 16262" transform="translate(-365.57 -63.081)"/>
                <path id="Tracé_16263" d="M372.308 66.867c-.005-.042-.013-.081-.016-.123.008.042.008.081.016.123z" class="cls-6" data-name="Tracé 16263" transform="translate(-365.538 -64.59)"/>
                <path id="Tracé_16264" d="M372.66 68.987l.089.069z" class="cls-6" data-name="Tracé 16264" transform="translate(-365.239 -62.771)"/>
                <path id="Tracé_16265" d="M373.105 68.3l-.094-.081z" class="cls-6" data-name="Tracé 16265" transform="translate(-364.954 -63.396)"/>
                <path id="Tracé_16266" d="M372.349 67.088c-.009-.047-.02-.092-.029-.141.009.053.02.094.029.141z" class="cls-6" data-name="Tracé 16266" transform="translate(-365.515 -64.426)"/>
                <path id="Tracé_16267" d="M372.915 68.119l-.042-.042z" class="cls-6" data-name="Tracé 16267" transform="translate(-365.066 -63.509)"/>
                <path id="Tracé_16268" d="M371.788 67.917l.02.04z" class="cls-6" data-name="Tracé 16268" transform="translate(-365.947 -63.639)"/>
                <path id="Tracé_16269" d="M374 68.756c-.042-.011-.082-.025-.121-.038.035.013.075.027.121.038z" class="cls-6" data-name="Tracé 16269" transform="translate(-364.254 -62.989)"/>
                <path id="Tracé_16270" d="M371.92 68.155l.058.1z" class="cls-6" data-name="Tracé 16270" transform="translate(-365.84 -63.446)"/>
                <path id="Tracé_16271" d="M372.083 68.4l.022.029z" class="cls-6" data-name="Tracé 16271" transform="translate(-365.707 -63.248)"/>
                <path id="Tracé_16272" d="M373.273 68.426c-.038-.027-.076-.054-.112-.083.039.029.074.057.112.083z" class="cls-6" data-name="Tracé 16272" transform="translate(-364.833 -63.293)"/>
                <path id="Tracé_16273" d="M372.482 67.477z" class="cls-6" data-name="Tracé 16273" transform="translate(-365.429 -64.11)"/>
                <path id="Tracé_16274" d="M373.623 68.625c-.043-.022-.087-.043-.129-.067.042.024.085.042.129.067z" class="cls-6" data-name="Tracé 16274" transform="translate(-364.563 -63.119)"/>
                <path id="Tracé_16275" d="M373.446 68.535a4.265 4.265 0 0 1-.125-.078c.042.027.079.053.125.078z" class="cls-6" data-name="Tracé 16275" transform="translate(-364.703 -63.201)"/>
                <path id="Tracé_16276" d="M372.671 67.82a3.845 3.845 0 0 1-.072-.121c.023.04.046.082.072.121z" class="cls-6" data-name="Tracé 16276" transform="translate(-365.29 -63.816)"/>
                <path id="Tracé_16277" d="M372.569 67.655c-.024-.045-.043-.089-.065-.134.022.045.042.089.065.134z" class="cls-6" data-name="Tracé 16277" transform="translate(-365.366 -63.96)"/>
                <path id="Tracé_16278" d="M372.479 68.837l-.02-.02z" class="cls-6" data-name="Tracé 16278" transform="translate(-365.402 -62.909)"/>
                <path id="Tracé_16279" d="M373.133 69.291l.1.053z" class="cls-6" data-name="Tracé 16279" transform="translate(-364.855 -62.524)"/>
                <path id="Tracé_16280" d="M373.807 68.7c-.043-.016-.087-.036-.13-.054.044.017.087.037.13.054z" class="cls-6" data-name="Tracé 16280" transform="translate(-364.414 -63.048)"/>
                <path id="Tracé_16281" d="M372.407 67.29l-.042-.145c.013.049.027.096.042.145z" class="cls-6" data-name="Tracé 16281" transform="translate(-365.479 -64.265)"/>
                <path id="Tracé_16282" d="M372.906 69.161l.018.013z" class="cls-6" data-name="Tracé 16282" transform="translate(-365.04 -62.629)"/>
                <path id="Tracé_16283" d="M372.778 67.969c-.024-.031-.043-.063-.065-.094.022.031.042.063.065.094z" class="cls-6" data-name="Tracé 16283" transform="translate(-365.196 -63.673)"/>
                <path id="Tracé_16284" d="M372 65.572h-.056.027l.049.005z" class="cls-6" data-name="Tracé 16284" transform="translate(-365.82 -65.544)"/>
                <path id="Tracé_16285" d="M370.3 67.691l-.072.034z" class="cls-6" data-name="Tracé 16285" transform="translate(-367.216 -63.822)"/>
                <path id="Tracé_16286" d="M370.664 67.464l-.081.06z" class="cls-6" data-name="Tracé 16286" transform="translate(-366.924 -64.006)"/>
                <path id="Tracé_16287" d="M370.924 67.213l-.034.033z" class="cls-6" data-name="Tracé 16287" transform="translate(-366.675 -64.21)"/>
                <path id="Tracé_16288" d="M370.809 67.342c-.025.024-.051.045-.076.067z" class="cls-6" data-name="Tracé 16288" transform="translate(-366.803 -64.105)"/>
                <path id="Tracé_16289" d="M371.082 67.035l-.051.067z" class="cls-6" data-name="Tracé 16289" transform="translate(-366.561 -64.354)"/>
                <path id="Tracé_16290" d="M371.293 66.706c-.015.029-.033.058-.049.085.016-.027.034-.056.049-.085z" class="cls-6" data-name="Tracé 16290" transform="translate(-366.388 -64.621)"/>
                <path id="Tracé_16291" d="M371.2 66.87l-.06.091z" class="cls-6" data-name="Tracé 16291" transform="translate(-366.471 -64.488)"/>
                <path id="Tracé_16292" d="M370.47 67.585l-.042.029z" class="cls-6" data-name="Tracé 16292" transform="translate(-367.05 -63.908)"/>
                <path id="Tracé_16293" d="M371.359 66.527l-.005.016z" class="cls-6" data-name="Tracé 16293" transform="translate(-366.3 -64.766)"/>
                <path id="Tracé_16294" d="M369.947 67.833c-.031.009-.063.02-.094.027.031-.007.063-.018.094-.027z" class="cls-6" data-name="Tracé 16294" transform="translate(-367.516 -63.707)"/>
                <path id="Tracé_16295" d="M370.137 67.768l-.1.038z" class="cls-6" data-name="Tracé 16295" transform="translate(-367.369 -63.76)"/>
                <path id="Tracé_16296" d="M370.836 68.325l.074-.045z" class="cls-6" data-name="Tracé 16296" transform="translate(-366.719 -63.344)"/>
                <path id="Tracé_16297" d="M370.588 68.454l.069-.033z" class="cls-6" data-name="Tracé 16297" transform="translate(-366.92 -63.23)"/>
                <path id="Tracé_16298" d="M369.519 68.736h.036z" class="cls-6" data-name="Tracé 16298" transform="translate(-367.787 -62.977)"/>
                <path id="Tracé_16299" d="M369.791 68.7l.083-.014z" class="cls-6" data-name="Tracé 16299" transform="translate(-367.567 -63.012)"/>
                <path id="Tracé_16300" d="M371.077 68.161l.042-.033z" class="cls-6" data-name="Tracé 16300" transform="translate(-366.524 -63.468)"/>
                <path id="Tracé_16301" d="M370.076 68.642l.076-.022z" class="cls-6" data-name="Tracé 16301" transform="translate(-367.336 -63.068)"/>
                <path id="Tracé_16302" d="M370.356 68.542l.013-.005z" class="cls-6" data-name="Tracé 16302" transform="translate(-367.109 -63.136)"/>
                <path id="Tracé_16303" d="M371.282 68l.042-.036z" class="cls-6" data-name="Tracé 16303" transform="translate(-366.357 -63.603)"/>
                <path id="Tracé_16304" d="M371.537 67.76l-.058.062z" class="cls-6" data-name="Tracé 16304" transform="translate(-366.197 -63.766)"/>
                <path id="Tracé_16305" d="M371.782 65.558l.293.018a6.558 6.558 0 0 0-.293-.018z" class="cls-6" data-name="Tracé 16305" transform="translate(-365.952 -65.553)"/>
                <path id="Tracé_16306" d="M375.527 65.722l-.062-.016a5.633 5.633 0 0 0-.7-.12l-.049-.005h-.027l-.293-.018c-.069 0-.136-.005-.2-.005-.04 0-.08.005-.12.005H374a5.629 5.629 0 0 0-5.247 4.215 5.972 5.972 0 0 0-.139.7 5.534 5.534 0 0 0-.047.7v.06a5.626 5.626 0 0 0 10.955 1.748 5.379 5.379 0 0 0 .179-.639 5.611 5.611 0 0 0 .109-.813c.007-.118.013-.235.013-.353a5.6 5.6 0 0 0-4.296-5.459zm2.818 5.463v.147l-.038-.013c-.042-.011-.082-.025-.121-.038a3.543 3.543 0 0 1-.226-.078c-.043-.016-.087-.036-.13-.054a2.138 2.138 0 0 1-.2-.091c-.044-.022-.087-.043-.129-.067a3.383 3.383 0 0 1-.311-.183c-.062-.04-.121-.082-.179-.123a4.1 4.1 0 0 1-.114-.083c-.06-.047-.118-.1-.176-.149-.031-.027-.063-.053-.094-.082a4.12 4.12 0 0 1-.208-.21l-.042-.042a4.216 4.216 0 0 1-.225-.272c-.024-.031-.043-.063-.065-.094-.047-.065-.094-.13-.136-.2-.025-.04-.049-.082-.072-.121a4.976 4.976 0 0 1-.105-.188 4.11 4.11 0 0 1-.15-.328 2.3 2.3 0 0 1-.056-.141c-.024-.065-.047-.134-.069-.2l-.042-.145a3.618 3.618 0 0 1-.052-.217c-.009-.047-.02-.092-.029-.141a3.902 3.902 0 0 1-.034-.245c-.005-.042-.013-.082-.016-.123a4.287 4.287 0 0 1-.018-.377v-.15h.005a4.131 4.131 0 0 1 3.033 4.008zm-4.628-4.126a4.014 4.014 0 0 1-.1.257l-.005.016c-.045.105-.1.206-.149.308-.014.029-.033.056-.049.087-.04.071-.081.141-.125.21l-.06.091c-.047.071-.1.141-.15.208l-.051.065a4.156 4.156 0 0 1-.221.257l-.034.033a3.927 3.927 0 0 1-.208.2l-.076.067c-.062.053-.125.1-.19.154l-.081.06a4.127 4.127 0 0 1-.239.159l-.042.029q-.147.087-.3.163l-.073.034a3.928 3.928 0 0 1-.239.105l-.1.038c-.078.029-.156.054-.236.08-.031.009-.063.02-.094.027a4.065 4.065 0 0 1-.632.125 4.162 4.162 0 0 1 3.455-2.774zm.475 8.279a4.16 4.16 0 0 1-4.151-4.007c.085 0 .17-.011.254-.018h.036c.154-.014.306-.036.456-.063l.083-.014c.147-.029.29-.063.433-.1l.076-.022c.145-.043.29-.091.431-.145l.013-.005c.139-.053.275-.114.408-.178l.069-.033c.13-.065.255-.136.38-.208l.074-.047c.123-.076.244-.158.362-.243l.042-.033c.114-.085.223-.174.33-.266l.042-.034c.111-.1.214-.2.315-.3l.058-.062c.091-.1.176-.2.259-.3.011.031.02.063.033.094l.042.109c.052.129.107.255.168.379l.02.04c.067.134.141.264.219.391l.058.1c.076.118.154.234.237.346l.022.029c.089.12.185.234.284.344l.076.083.3.3.02.02c.111.1.226.2.344.288l.089.069c.116.085.234.168.357.246l.018.013c.127.08.259.152.393.223l.1.053c.132.065.266.127.4.181l.016.007a5.303 5.303 0 0 0 .553.183c.04.01.074.024.11.033a4.174 4.174 0 0 1-3.829 2.547z" class="cls-4" data-name="Tracé 16306" transform="translate(-368.563 -65.555)"/>
            </g>
        </g>
    </g>
    <g id="Ordinateur" transform="translate(34.73 70.785)">
        <path id="Tracé_16307" d="M383.569 101.727h-16.553v-9.743a2.738 2.738 0 0 1 2.735-2.735h11.082a2.74 2.74 0 0 1 2.737 2.735zm-14.586-1.967H381.6v-7.776a.768.768 0 0 0-.768-.766h-11.081a.768.768 0 0 0-.768.766z" class="cls-4" data-name="Tracé 16307" transform="translate(-363.977 -89.249)"/>
        <path id="Tracé_16308" d="M387.142 96.584h-8.572v.467a.315.315 0 0 1-.315.315h-3.2a.316.316 0 0 1-.317-.315v-.467h-8.573a.826.826 0 0 0-.826.826v.89a.826.826 0 0 0 .826.826h20.978a.826.826 0 0 0 .826-.826v-.89a.826.826 0 0 0-.827-.826z" class="cls-4" data-name="Tracé 16308" transform="translate(-365.338 -83.298)"/>
    </g>
    <g id="Groupe_5327" data-name="Groupe 5327" transform="translate(71.709 20.734)">
        <path id="Tracé_16309" d="M395.327 72.529a12.41 12.41 0 0 1-3.945-.706l-.049-.018c-1.416-.6-2.376-1.1-2.523-1.185a4.353 4.353 0 0 1-.37-.221l-.081-.063a1.136 1.136 0 0 1-.422-.8v-4.854l7.33 2.563 7.3-2.471-.087 4.426a.993.993 0 0 1-.116.438.96.96 0 0 1-.2.277 6.106 6.106 0 0 1-.143.125l-.02.015-.668.516A11.618 11.618 0 0 1 398.582 72a9.788 9.788 0 0 1-2.983.527h-.1zm-3.541-1.869a10.926 10.926 0 0 0 3.7.638h.107a8.54 8.54 0 0 0 2.549-.447l.038-.013a10.622 10.622 0 0 0 2.413-1.252l.641-.494.016-.014.013-.529.037-2.049-6.046 2.045-6.091-2.128v2.987c.092.058.145.091.174.107l.038.02c.013.004.974.524 2.411 1.129z" class="cls-4" data-name="Tracé 16309" transform="translate(-383.986 -59.129)"/>
        <g id="Groupe_5326" data-name="Groupe 5326">
            <path id="Tracé_16310" d="M396.714 61.96l-10.578 3.976a.064.064 0 0 0 0 .12l10.592 4.014a.065.065 0 0 0 .045 0l10.927-3.995a.065.065 0 0 0 0-.121l-10.943-3.994a.06.06 0 0 0-.043 0z" class="cls-4" data-name="Tracé 16310" transform="translate(-385.478 -61.34)"/>
            <path id="Tracé_16311" d="M397.026 70.962a.7.7 0 0 1-.236-.04l-10.6-4.016a.68.68 0 0 1 0-1.272l10.578-3.976a.674.674 0 0 1 .473 0l10.946 3.994a.679.679 0 0 1 0 1.275l-10.933 4a.7.7 0 0 1-.228.035zm-9.033-4.689l9.036 3.423 9.323-3.407-9.337-3.407zm-1.366-.516zm10.2-2.943zm.384 0zm0 0z" class="cls-4" data-name="Tracé 16311" transform="translate(-385.754 -61.616)"/>
        </g>
        <path id="Tracé_16312" d="M386.7 69.9a.615.615 0 0 1-.614-.616v-4.672a.615.615 0 1 1 1.23 0v4.675a.615.615 0 0 1-.616.613z" class="cls-4" data-name="Tracé 16312" transform="translate(-385.486 -59.685)"/>
    </g>
    <g id="Groupe_5329" data-name="Groupe 5329" transform="translate(0 15.677)">
        <g id="Groupe_5328" data-name="Groupe 5328" transform="translate(3.573 3.681)">
            <path id="Tracé_16313" d="M353.555 77.007a1.246 1.246 0 0 1-.744-.245l-1.284-.958V72.3a1.626 1.626 0 0 0-.768-1.387 5.439 5.439 0 0 1-2.621-4.738 5.507 5.507 0 0 1 5.419-5.318h.022a5.417 5.417 0 0 1 2.811 10.033 1.656 1.656 0 0 0-.806 1.411v3.5l-1.284.958a1.247 1.247 0 0 1-.745.248zm-.8-1.82l.79.59.808-.594V72.3a2.877 2.877 0 0 1 1.391-2.458 4.187 4.187 0 0 0-2.172-7.756h-.016a4.254 4.254 0 0 0-4.188 4.11 4.2 4.2 0 0 0 2.025 3.664 2.857 2.857 0 0 1 1.362 2.44z" class="cls-4" data-name="Tracé 16313" transform="translate(-348.136 -60.856)"/>
            <path id="Tracé_16314" d="M351.883 67.8c-.839 0-1.686-.219-1.686-.712h.493a.085.085 0 0 0-.009-.038 2.922 2.922 0 0 0 2.405 0 .066.066 0 0 0-.009.038h.493c0 .497-.848.712-1.687.712z" class="cls-4" data-name="Tracé 16314" transform="translate(-346.465 -55.828)"/>
            <path id="Tracé_16315" d="M351.883 68.277c-.839 0-1.686-.221-1.686-.714h.493a.085.085 0 0 0-.009-.038 2.922 2.922 0 0 0 2.405 0 .066.066 0 0 0-.009.038h.493c0 .493-.848.714-1.687.714z" class="cls-4" data-name="Tracé 16315" transform="translate(-346.465 -55.445)"/>
            <path id="Tracé_16316" d="M351.883 68.748c-.839 0-1.686-.221-1.686-.714h.493a.084.084 0 0 0-.009-.038 2.922 2.922 0 0 0 2.405 0 .066.066 0 0 0-.009.038h.493c0 .493-.848.714-1.687.714z" class="cls-4" data-name="Tracé 16316" transform="translate(-346.465 -55.063)"/>
            <path id="Tracé_16317" d="M351.883 69.219c-.839 0-1.686-.221-1.686-.714h.493a.084.084 0 0 0-.009-.038 2.922 2.922 0 0 0 2.405 0 .066.066 0 0 0-.009.038h.493c0 .495-.848.714-1.687.714z" class="cls-4" data-name="Tracé 16317" transform="translate(-346.465 -54.681)"/>
        </g>
        <path id="Tracé_16318" d="M356.953 64.794h-1.824a.615.615 0 1 1 0-1.23h1.824a.615.615 0 1 1 0 1.23z" class="cls-4" data-name="Tracé 16318" transform="translate(-339.391 -54.978)"/>
        <path id="Tracé_16319" d="M351.458 61.88a.615.615 0 0 1-.616-.616V59.44a.615.615 0 1 1 1.23 0v1.824a.615.615 0 0 1-.614.616z" class="cls-4" data-name="Tracé 16319" transform="translate(-342.369 -58.824)"/>
        <path id="Tracé_16320" d="M354.109 62.949a.614.614 0 0 1-.435-1.049l1.291-1.291a.615.615 0 0 1 .869.869l-1.291 1.291a.613.613 0 0 1-.434.18z" class="cls-4" data-name="Tracé 16320" transform="translate(-340.218 -57.522)"/>
        <path id="Tracé_16321" d="M348.6 64.794h-1.82a.615.615 0 1 1 0-1.23h1.82a.615.615 0 1 1 0 1.23z" class="cls-4" data-name="Tracé 16321" transform="translate(-346.164 -54.978)"/>
        <path id="Tracé_16322" d="M349.184 62.949a.613.613 0 0 1-.435-.179l-1.29-1.291a.615.615 0 1 1 .869-.869l1.29 1.291a.614.614 0 0 1-.435 1.049z" class="cls-4" data-name="Tracé 16322" transform="translate(-345.259 -57.522)"/>
    </g>
    <g id="Groupe_5330" data-name="Groupe 5330" transform="translate(3.749)">
        <path id="Tracé_16323" d="M410.374 63.509a1.478 1.478 0 0 1-.994-.386 38.311 38.311 0 0 0-51.366-.235 1.476 1.476 0 0 1-1.969-2.2 41.265 41.265 0 0 1 55.326.255 1.476 1.476 0 0 1-1 2.567z" class="cls-4" data-name="Tracé 16323" transform="translate(-342.296 -50.169)"/>
        <path id="Tracé_16324" d="M381.026 111.116a1.477 1.477 0 0 1-.63-2.813 38.3 38.3 0 0 0 21.949-32.317 39.83 39.83 0 0 0 .072-2.371 1.476 1.476 0 1 1 2.952 0c0 .848-.027 1.706-.078 2.55a41.255 41.255 0 0 1-23.639 34.809 1.462 1.462 0 0 1-.626.142z" class="cls-4" data-name="Tracé 16324" transform="translate(-322.829 -32.345)"/>
        <path id="Tracé_16325" d="M374.072 111.783a1.483 1.483 0 0 1-.572-.116 41.266 41.266 0 0 1-25.03-33.612 42.177 42.177 0 0 1-.235-4.439 1.476 1.476 0 0 1 2.952 0 39.151 39.151 0 0 0 .219 4.126 38.311 38.311 0 0 0 23.239 31.2 1.476 1.476 0 0 1-.572 2.836z" class="cls-4" data-name="Tracé 16325" transform="translate(-348.234 -32.345)"/>
    </g>
</svg>
