<svg xmlns="http://www.w3.org/2000/svg" id="GOCOWORKER" width="92.737" height="105.71" viewBox="0 0 92.737 105.71">
    <defs>
        <style>
            .cls-1,.cls-3,.cls-4{fill:#0054ff}.cls-2{fill:#fff}.cls-3{opacity:.33}.cls-4{opacity:.66}
        </style>
    </defs>
    <path id="Rectangle_6047" d="M0 0h2.925v14.166H0z" class="cls-1" data-name="Rectangle 6047" transform="rotate(-59.836 96.906 -28.562)"/>
    <path id="Rectangle_6048" d="M0 0h14.629v2.925H0z" class="cls-1" data-name="Rectangle 6048" transform="matrix(.87 -.494 .494 .87 72.648 35.518)"/>
    <path id="Rectangle_6049" d="M0 0h2.925v14.565H0z" class="cls-1" data-name="Rectangle 6049" transform="rotate(-59.835 30.043 10.334)"/>
    <path id="Rectangle_6050" d="M0 0h14.256v2.925H0z" class="cls-1" data-name="Rectangle 6050" transform="rotate(-29.59 142.46 25.544)"/>
    <path id="Rectangle_6051" d="M0 0h2.925v14.846H0z" class="cls-1" data-name="Rectangle 6051" transform="rotate(-.268 1444.054 -9553.722)"/>
    <path id="Rectangle_6052" d="M0 0h2.925v14.278H0z" class="cls-1" data-name="Rectangle 6052" transform="translate(44.703 84.081)"/>
    <g id="Groupe_5319" data-name="Groupe 5319" transform="translate(79.449 22.924)">
        <ellipse id="Ellipse_859" cx="5.179" cy="5.179" class="cls-2" data-name="Ellipse 859" rx="5.179" ry="5.179" transform="translate(1.465 1.465)"/>
        <path id="Tracé_16193" d="M396.8-162.759a6.6 6.6 0 0 1-3.306-.889 6.592 6.592 0 0 1-3.1-4.03 6.594 6.594 0 0 1 .659-5.041 6.6 6.6 0 0 1 4.03-3.1 6.611 6.611 0 0 1 5.041.661 6.6 6.6 0 0 1 3.1 4.03 6.588 6.588 0 0 1-.659 5.039 6.592 6.592 0 0 1-4.03 3.1 6.684 6.684 0 0 1-1.735.23zm.009-10.359a3.69 3.69 0 0 0-.964.127 3.692 3.692 0 0 0-2.255 1.733 3.691 3.691 0 0 0-.37 2.82 3.692 3.692 0 0 0 1.733 2.255 3.692 3.692 0 0 0 2.82.37 3.723 3.723 0 0 0 2.625-4.554 3.723 3.723 0 0 0-3.585-2.751z" class="cls-1" data-name="Tracé 16193" transform="translate(-390.169 176.045)"/>
    </g>
    <g id="Groupe_5320" data-name="Groupe 5320" transform="translate(79.247 68.787)">
        <ellipse id="Ellipse_860" cx="5.179" cy="5.179" class="cls-2" data-name="Ellipse 860" rx="5.179" ry="5.179" transform="translate(1.464 1.462)"/>
        <path id="Tracé_16194" d="M396.689-137.441a6.607 6.607 0 0 1-3.306-.889 6.592 6.592 0 0 1-3.1-4.03 6.647 6.647 0 0 1 4.691-8.136 6.65 6.65 0 0 1 8.136 4.689 6.6 6.6 0 0 1-.659 5.041 6.6 6.6 0 0 1-4.032 3.1 6.675 6.675 0 0 1-1.73.225zm.011-10.359a3.676 3.676 0 0 0-.962.127 3.683 3.683 0 0 0-2.255 1.733 3.692 3.692 0 0 0-.369 2.82 3.7 3.7 0 0 0 1.732 2.255 3.7 3.7 0 0 0 2.82.37 3.72 3.72 0 0 0 2.625-4.554 3.719 3.719 0 0 0-3.591-2.751z" class="cls-1" data-name="Tracé 16194" transform="translate(-390.058 150.725)"/>
    </g>
    <g id="Groupe_5321" data-name="Groupe 5321" transform="translate(.003 68.784)">
        <ellipse id="Ellipse_861" cx="5.179" cy="5.179" class="cls-2" data-name="Ellipse 861" rx="5.179" ry="5.179" transform="translate(1.463 1.465)"/>
        <path id="Tracé_16195" d="M352.939-137.44a6.6 6.6 0 0 1-3.306-.889 6.592 6.592 0 0 1-3.1-4.03 6.647 6.647 0 0 1 4.689-8.136 6.6 6.6 0 0 1 5.041.659 6.6 6.6 0 0 1 3.1 4.03 6.6 6.6 0 0 1-.661 5.039 6.592 6.592 0 0 1-4.03 3.1 6.685 6.685 0 0 1-1.733.227zm.009-10.359a3.689 3.689 0 0 0-.964.127 3.692 3.692 0 0 0-2.255 1.733 3.692 3.692 0 0 0-.369 2.82 3.692 3.692 0 0 0 1.733 2.255 3.692 3.692 0 0 0 2.82.37 3.719 3.719 0 0 0 2.625-4.554 3.723 3.723 0 0 0-3.59-2.752z" class="cls-1" data-name="Tracé 16195" transform="translate(-346.308 150.726)"/>
    </g>
    <g id="Groupe_5322" data-name="Groupe 5322" transform="translate(0 22.924)">
        <ellipse id="Ellipse_862" cx="5.179" cy="5.179" class="cls-2" data-name="Ellipse 862" rx="5.179" ry="5.179" transform="translate(1.466 1.465)"/>
        <path id="Tracé_16196" d="M352.941-162.759a6.6 6.6 0 0 1-3.306-.889 6.592 6.592 0 0 1-3.1-4.03 6.594 6.594 0 0 1 .659-5.041 6.6 6.6 0 0 1 4.03-3.1 6.611 6.611 0 0 1 5.041.661 6.6 6.6 0 0 1 3.1 4.03 6.6 6.6 0 0 1-.661 5.039 6.592 6.592 0 0 1-4.03 3.1 6.684 6.684 0 0 1-1.733.23zm.009-10.359a3.69 3.69 0 0 0-.964.127 3.692 3.692 0 0 0-2.255 1.733 3.69 3.69 0 0 0-.369 2.82 3.692 3.692 0 0 0 1.733 2.255 3.691 3.691 0 0 0 2.82.37 3.72 3.72 0 0 0 2.625-4.554 3.723 3.723 0 0 0-3.59-2.751z" class="cls-1" data-name="Tracé 16196" transform="translate(-346.306 176.045)"/>
    </g>
    <g id="Groupe_5323" data-name="Groupe 5323" transform="translate(39.634 92.423)">
        <ellipse id="Ellipse_863" cx="5.179" cy="5.179" class="cls-2" data-name="Ellipse 863" rx="5.179" ry="5.179" transform="translate(1.466 1.465)"/>
        <path id="Tracé_16197" d="M374.834-124.389a6.655 6.655 0 0 1-6.416-4.919 6.589 6.589 0 0 1 .661-5.039 6.592 6.592 0 0 1 4.03-3.1 6.6 6.6 0 0 1 5.039.659 6.6 6.6 0 0 1 3.1 4.032 6.6 6.6 0 0 1-.659 5.039 6.6 6.6 0 0 1-4.03 3.1 6.663 6.663 0 0 1-1.725.228zm.005-10.361a3.709 3.709 0 0 0-.971.13 3.718 3.718 0 0 0-2.625 4.552 3.716 3.716 0 0 0 4.554 2.625 3.7 3.7 0 0 0 2.255-1.732 3.691 3.691 0 0 0 .368-2.82 3.7 3.7 0 0 0-1.732-2.255 3.7 3.7 0 0 0-1.849-.5z" class="cls-1" data-name="Tracé 16197" transform="translate(-368.188 137.675)"/>
    </g>
    <g id="Groupe_5324" data-name="Groupe 5324" transform="translate(39.722)">
        <ellipse id="Ellipse_864" cx="5.179" cy="5.179" class="cls-2" data-name="Ellipse 864" rx="5.179" ry="5.179" transform="translate(1.466 1.465)"/>
        <path id="Tracé_16198" d="M374.87-175.415a6.612 6.612 0 0 1-3.306-.889 6.6 6.6 0 0 1-3.1-4.03 6.594 6.594 0 0 1 .661-5.041 6.6 6.6 0 0 1 4.03-3.1 6.6 6.6 0 0 1 5.039.661 6.592 6.592 0 0 1 3.1 4.03 6.6 6.6 0 0 1-.659 5.039 6.6 6.6 0 0 1-4.03 3.1 6.7 6.7 0 0 1-1.735.23zm.018-10.361a3.7 3.7 0 0 0-.971.129 3.719 3.719 0 0 0-2.625 4.554 3.719 3.719 0 0 0 4.554 2.623 3.718 3.718 0 0 0 2.623-4.552 3.68 3.68 0 0 0-1.732-2.255 3.7 3.7 0 0 0-1.849-.498z" class="cls-1" data-name="Tracé 16198" transform="translate(-368.237 188.701)"/>
    </g>
    <g id="Groupe_5325" data-name="Groupe 5325" transform="translate(13.597 19.909)">
        <path id="Tracé_16199" d="M385.944-176.854a31.293 31.293 0 0 0-31.294 31.294 31.294 31.294 0 0 0 31.294 31.294 31.294 31.294 0 0 0 31.294-31.294 31.293 31.293 0 0 0-31.294-31.294zm-6.064 20.325a6.525 6.525 0 0 1 .168-.846 6.75 6.75 0 0 1 6.292-5.055h.092c.047 0 .094-.007.143-.007.076 0 .158 0 .239.005l.353.024h.091a6.789 6.789 0 0 1 .844.145l.074.018a6.716 6.716 0 0 1 5.151 6.553c0 .141-.007.283-.016.424a6.837 6.837 0 0 1-.13.974 6.423 6.423 0 0 1-.216.768 6.782 6.782 0 0 1-6.388 4.584 6.758 6.758 0 0 1-6.751-6.68v-.072a6.794 6.794 0 0 1 .054-.835zm16.733 24.25a1.449 1.449 0 0 1-1.447 1.447H377.3a1.449 1.449 0 0 1-1.447-1.447v-5.189c0-5.108 4.657-9.265 10.38-9.265s10.382 4.157 10.382 9.265z" class="cls-3" data-name="Tracé 16199" transform="translate(-353.134 178.404)"/>
        <path id="Tracé_16200" d="M375.941-159.248c-4.747 0-8.609 3.364-8.609 7.5v4.865h2.184v-5.317a.738.738 0 0 1 .739-.737.737.737 0 0 1 .737.737v5.316h9.9v-5.316a.737.737 0 0 1 .737-.737.738.738 0 0 1 .739.737v5.316h2.184v-4.865c0-4.135-3.862-7.499-8.611-7.499z" class="cls-4" data-name="Tracé 16200" transform="translate(-342.845 192.688)"/>
        <path id="Tracé_16201" d="M376.734-160.225c-5.724 0-10.38 4.157-10.38 9.265v5.189a1.449 1.449 0 0 0 1.447 1.447h17.869a1.449 1.449 0 0 0 1.447-1.447v-5.189c0-5.108-4.657-9.265-10.383-9.265zm8.611 14.13h-2.184v-5.316a.738.738 0 0 0-.739-.737.737.737 0 0 0-.737.737v5.316h-9.9v-5.316a.737.737 0 0 0-.737-.737.738.738 0 0 0-.739.737v5.316h-2.184v-4.865c0-4.132 3.862-7.5 8.609-7.5s8.611 3.364 8.611 7.5z" class="cls-1" data-name="Tracé 16201" transform="translate(-343.639 191.895)"/>
        <path id="Tracé_16202" d="M369.678-164.578a5.2 5.2 0 0 0 .755-.145l.112-.034c.1-.029.19-.06.284-.1a4.111 4.111 0 0 0 .407-.17l.087-.042q.182-.09.359-.2l.051-.034c.1-.06.192-.123.286-.19l.1-.074c.078-.06.154-.121.23-.185.029-.025.06-.053.091-.078.087-.078.17-.159.25-.243l.04-.04c.094-.1.183-.2.266-.306.022-.025.042-.053.062-.08a5.167 5.167 0 0 0 .251-.358c.053-.082.1-.167.15-.254l.058-.1c.063-.12.123-.243.178-.369l.007-.018c.042-.1.078-.2.114-.308a4.987 4.987 0 0 0-4.138 3.328z" class="cls-4" data-name="Tracé 16202" transform="translate(-340.942 185.667)"/>
        <path id="Tracé_16203" d="M378.31-162.482l-.02-.009a6.792 6.792 0 0 1-.484-.217l-.125-.063a6.218 6.218 0 0 1-.471-.268l-.022-.014a4.822 4.822 0 0 1-.427-.3c-.036-.027-.072-.054-.107-.083a7.6 7.6 0 0 1-.413-.344l-.024-.024a6.468 6.468 0 0 1-.36-.362c-.029-.033-.06-.065-.089-.1a5.632 5.632 0 0 1-.342-.413l-.025-.034a6.908 6.908 0 0 1-.284-.415l-.071-.114a6.167 6.167 0 0 1-.263-.469l-.024-.049a6.598 6.598 0 0 1-.2-.455l-.053-.129a1.64 1.64 0 0 0-.042-.105c-.1.12-.2.235-.306.348l-.069.072a6.833 6.833 0 0 1-.379.364l-.051.043a6.399 6.399 0 0 1-.395.319l-.049.038c-.141.1-.288.2-.436.293l-.089.054q-.223.133-.456.25l-.082.04a7.151 7.151 0 0 1-.489.214l-.014.005c-.17.065-.344.123-.518.174l-.092.027c-.17.047-.344.089-.518.123l-.1.018a7.574 7.574 0 0 1-.547.076h-.043q-.152.014-.3.022a4.986 4.986 0 0 0 4.979 4.805 5.006 5.006 0 0 0 4.6-3.068l-.132-.04a2.05 2.05 0 0 1-.143-.042 3.869 3.869 0 0 1-.525-.168z" class="cls-2" data-name="Tracé 16203" transform="translate(-341.064 186.849)"/>
        <path id="Tracé_16204" d="M373.018-167.82c0 .058-.009.118-.009.178 0 .152.007.3.022.453 0 .049.013.1.018.147.011.1.024.2.042.3.009.058.024.112.036.17.018.087.038.174.062.259.014.058.033.116.051.174.025.082.053.161.081.243.022.056.043.112.067.168l.1.232a3.907 3.907 0 0 0 .205.387c.029.047.056.1.085.145.052.082.107.159.163.237.027.036.051.076.08.112.085.112.174.221.27.326l.049.049a4.245 4.245 0 0 0 .362.352c.071.06.139.12.212.177l.136.1c.071.051.141.1.214.149.049.033.1.062.148.092.074.043.148.087.226.127.051.027.1.054.154.08a3.887 3.887 0 0 0 .401.174c.089.034.181.065.272.094l.145.045.047.011v-.176a4.956 4.956 0 0 0-3.639-4.805z" class="cls-4" data-name="Tracé 16204" transform="translate(-338.24 185.734)"/>
        <path id="Tracé_16205" d="M376.9-168.7l-.074-.018a6.794 6.794 0 0 0-.844-.145h-.091l-.353-.024c-.081 0-.163-.005-.239-.005-.049 0-.1.005-.143.007h-.092a6.75 6.75 0 0 0-6.292 5.055 6.524 6.524 0 0 0-.168.846 6.806 6.806 0 0 0-.056.839v.072a6.758 6.758 0 0 0 6.751 6.68 6.783 6.783 0 0 0 6.388-4.584 6.424 6.424 0 0 0 .216-.768 6.837 6.837 0 0 0 .13-.974c.009-.141.016-.283.016-.424a6.716 6.716 0 0 0-5.149-6.557zm-.264 1.753a4.956 4.956 0 0 1 3.644 4.8v.176l-.047-.011-.145-.045a5.133 5.133 0 0 1-.272-.094l-.156-.063a3.599 3.599 0 0 1-.245-.111c-.053-.025-.1-.053-.154-.08a4.114 4.114 0 0 1-.226-.127c-.049-.031-.1-.06-.148-.092-.072-.047-.143-.1-.214-.149-.045-.033-.091-.065-.136-.1-.072-.058-.141-.118-.212-.177-.038-.033-.076-.065-.112-.1a4.245 4.245 0 0 1-.25-.252l-.049-.049a3.732 3.732 0 0 1-.27-.326c-.029-.036-.053-.076-.08-.112a5.521 5.521 0 0 1-.163-.237c-.029-.047-.056-.1-.085-.145a4.972 4.972 0 0 1-.127-.228l-.078-.159a2.948 2.948 0 0 1-.1-.232c-.024-.056-.045-.112-.067-.168a5.764 5.764 0 0 1-.081-.243c-.018-.058-.036-.116-.051-.174-.024-.085-.043-.172-.062-.259-.013-.058-.027-.112-.036-.17-.018-.1-.031-.2-.042-.3-.005-.049-.014-.1-.018-.147a4.839 4.839 0 0 1-.022-.453c-.004-.054.003-.113.005-.171zm-1.907-.148c-.036.1-.072.206-.114.308l-.007.018c-.054.127-.114.25-.177.37a1.377 1.377 0 0 1-.058.1c-.047.087-.1.172-.15.254a5.969 5.969 0 0 1-.313.438 4.252 4.252 0 0 1-.266.306l-.04.04c-.08.083-.163.165-.25.243-.031.025-.062.053-.091.078a8.088 8.088 0 0 1-.23.185l-.1.074c-.094.067-.188.13-.286.19l-.051.034q-.177.106-.359.2l-.087.042c-.094.043-.19.087-.286.125-.04.016-.081.031-.121.045-.094.036-.188.067-.284.1l-.112.034a5.2 5.2 0 0 1-.755.145 4.987 4.987 0 0 1 4.138-3.328zm.571 9.93a4.986 4.986 0 0 1-4.979-4.805q.152-.008.3-.022h.044c.185-.018.366-.045.547-.076l.1-.018c.174-.034.348-.076.518-.123l.092-.027c.174-.051.348-.109.518-.174l.015-.005c.167-.065.33-.138.489-.214l.082-.04q.234-.117.456-.25l.089-.054c.149-.092.3-.19.437-.293l.049-.038c.136-.1.268-.206.395-.319l.051-.043c.13-.116.255-.237.379-.364l.069-.072c.105-.112.208-.228.306-.348.015.034.029.069.042.105l.052.129c.062.154.129.306.2.455l.024.049c.08.159.168.317.263.469l.071.114c.091.141.185.281.284.415l.025.034c.107.143.223.281.342.413l.089.1c.116.125.235.246.36.362l.023.024c.132.12.272.234.413.344.034.029.071.056.107.083.138.1.281.2.427.3l.022.014c.152.1.31.185.471.268l.125.063c.158.078.319.152.484.217l.02.009c.17.067.344.125.52.177.047.014.094.029.143.042l.132.04a5.006 5.006 0 0 1-4.596 3.06z" class="cls-1" data-name="Tracé 16205" transform="translate(-341.859 184.859)"/>
        <path id="Tracé_16206" d="M386.681-111.973a32.907 32.907 0 0 1-32.868-32.869 32.905 32.905 0 0 1 32.868-32.868 32.9 32.9 0 0 1 32.868 32.868 32.906 32.906 0 0 1-32.868 32.869zm0-62.115a29.278 29.278 0 0 0-29.245 29.245 29.278 29.278 0 0 0 29.245 29.243 29.278 29.278 0 0 0 29.245-29.247 29.278 29.278 0 0 0-29.245-29.24z" class="cls-1" data-name="Tracé 16206" transform="translate(-353.813 177.71)"/>
    </g>
</svg>
