<svg id="Calque_1" data-name="Calque 1" xmlns="http://www.w3.org/2000/svg" viewBox="0 0 35.38 3.5"><defs><style>.cls-1{fill:#702963;}</style></defs><path class="cls-1" d="M35.05,3.52a3.5,3.5,0,0,1-2.72-1.43A2.83,2.83,0,0,0,30.09.88a2.87,2.87,0,0,0-2.25,1.21,3.46,3.46,0,0,1-2.72,1.43A3.5,3.5,0,0,1,22.4,2.09,2.83,2.83,0,0,0,20.16.88a2.86,2.86,0,0,0-2.24,1.21A3.46,3.46,0,0,1,15.2,3.52a3.5,3.5,0,0,1-2.72-1.43A2.83,2.83,0,0,0,10.24.88,2.83,2.83,0,0,0,8,2.09,3.5,3.5,0,0,1,5.29,3.52,3.46,3.46,0,0,1,2.57,2.09,2.83,2.83,0,0,0,.33.88.33.33,0,0,1,0,.55.33.33,0,0,1,.33.22,3.5,3.5,0,0,1,3.05,1.65,2.83,2.83,0,0,0,5.29,2.86,2.86,2.86,0,0,0,7.53,1.65,3.46,3.46,0,0,1,10.24.22,3.46,3.46,0,0,1,13,1.65,2.86,2.86,0,0,0,15.2,2.86a2.83,2.83,0,0,0,2.24-1.21,3.3,3.3,0,0,1,5.44,0,2.86,2.86,0,0,0,2.24,1.21,2.87,2.87,0,0,0,2.25-1.21,3.3,3.3,0,0,1,5.44,0,2.83,2.83,0,0,0,2.24,1.21.33.33,0,1,1,0,.66Z"/></svg>