<svg id="Calque_1" data-name="Calque 1" xmlns="http://www.w3.org/2000/svg" viewBox="0 0 29.77 3.5"><defs><style>.cls-1{fill:#702963;}</style></defs><path class="cls-1" d="M34.68,3.52A3.5,3.5,0,0,1,32,2.09a2.68,2.68,0,0,0-4.48,0,3.3,3.3,0,0,1-5.44,0,2.68,2.68,0,0,0-4.48,0,3.5,3.5,0,0,1-2.72,1.43,3.5,3.5,0,0,1-2.72-1.43A2.83,2.83,0,0,0,9.88.88,2.83,2.83,0,0,0,7.64,2.09,3.5,3.5,0,0,1,4.92,3.52,3.5,3.5,0,0,1,2.2,2.09,2.83,2.83,0,0,0,0,.88.32.32,0,0,1-.36.55.32.32,0,0,1,0,.22,3.46,3.46,0,0,1,2.68,1.65,2.85,2.85,0,0,0,4.92,2.86,2.83,2.83,0,0,0,7.16,1.65,3.5,3.5,0,0,1,9.88.22,3.5,3.5,0,0,1,12.6,1.65a2.83,2.83,0,0,0,2.24,1.21,2.83,2.83,0,0,0,2.24-1.21A3.5,3.5,0,0,1,19.8.22a3.5,3.5,0,0,1,2.72,1.43,2.68,2.68,0,0,0,4.48,0,3.3,3.3,0,0,1,5.44,0,2.86,2.86,0,0,0,2.24,1.21.33.33,0,0,1,0,.66Z"/></svg>