<svg xmlns="http://www.w3.org/2000/svg" width="104.461" height="94.33" viewBox="0 0 104.461 94.33">
    <defs>
        <style>
            .cls-1{fill:#fff}.cls-2{fill:#636466}.cls-2,.cls-4{opacity:.5}.cls-3,.cls-4{fill:#702963}
        </style>
    </defs>
    <g id="Eolienne" transform="translate(-7.351 -149.82)">
        <path id="Tracé_50652" d="M62.89 206.389a7.452 7.452 0 0 0-.057-1.191l1.187-.339a1.3 1.3 0 0 1-.158-.439L60.3 152.24a.7.7 0 0 0-.73-.67c-.022 0-.038.009-.059.01v51.306c-1.05 0-2.415 1.444-2.8 2.354-.12.3-.46.694-.46 1.034a3.993 3.993 0 0 0 .438 1.876L9.6 241.716l-.029.614a.646.646 0 0 0 .67-.07L56.5 212.1l.18-.14.54-.31 1.96-1 3.67 1.51.03-.05.31.19 45.72 29.96a.7.7 0 0 0 .89-.083l-47.586-34.094a3.467 3.467 0 0 0 .676-1.694z" class="cls-1" data-name="Tracé 50652"/>
        <path id="Tracé_50653" d="M56.258 206.274c0-.34.34-.734.46-1.034.38-.91 1.745-2.354 2.8-2.354V151.58a.692.692 0 0 0-.681.67l-3.28 52.11a1.054 1.054 0 0 1-.41.8l-45.5 35.72-.041.836L56.7 208.15a3.993 3.993 0 0 1-.442-1.876z" class="cls-2" data-name="Tracé 50653"/>
        <path id="Tracé_50654" d="M109.772 241.08l-45.48-35.9a1.124 1.124 0 0 1-.272-.321l-1.187.339a7.452 7.452 0 0 1 .057 1.191 3.467 3.467 0 0 1-.676 1.694l47.586 34.094a.67.67 0 0 0 .09-.087.692.692 0 0 0-.118-1.01z" class="cls-2" data-name="Tracé 50654"/>
        <path id="Tracé_50655" d="M110.852 239.71l-45.26-35.74-3.55-51.85a2.481 2.481 0 0 0-4.95.02l-3.26 51.83-45.51 35.72a2.414 2.414 0 0 0-.69 3.07l.26.53.27.34.1-.07a2.411 2.411 0 0 0 2.94.17l46.62-30.39 1.45-.77 2.96 1.19 45.72 29.96a2.459 2.459 0 0 0 3.37-.62 2.415 2.415 0 0 0-.47-3.39zm-.648 2.61a1.138 1.138 0 0 1-.086.084l-.316-.227a.7.7 0 0 1-.89.083l-45.72-29.96-.31-.19-.03.05-3.67-1.51-1.96 1-.54.31-.18.14-46.26 30.16a.646.646 0 0 1-.67.07l.029-.614-.388.277.04-.83-.52.38a1.04 1.04 0 0 1 .44-.75l45.73-35.9a.74.74 0 0 0 .28-.54l3.28-52.11a1.057 1.057 0 0 1 1.05-1.02v.357c.021 0 .037-.01.059-.01a.7.7 0 0 1 .73.67l3.56 52.18a1.3 1.3 0 0 0 .158.439l.378-.109a.784.784 0 0 0 .125.151L110 240.8a1.072 1.072 0 0 1 .2 1.52z" class="cls-3" data-name="Tracé 50655"/>
        <path id="Tracé_50656" d="M55.142 205.16a1.054 1.054 0 0 0 .41-.8l3.28-52.11a.692.692 0 0 1 .681-.67v-.357a1.057 1.057 0 0 0-1.05 1.02l-3.28 52.11a.74.74 0 0 1-.28.54l-45.73 35.9a1.04 1.04 0 0 0-.44.75l.52-.38-.04.83.388-.277.041-.836z" class="cls-3" data-name="Tracé 50656"/>
        <path id="Tracé_50657" d="M110 240.8l-45.477-35.9a.784.784 0 0 1-.125-.151l-.378.109a1.124 1.124 0 0 0 .272.321l45.48 35.9a.692.692 0 0 1 .12 1.01.67.67 0 0 1-.09.087l.316.227a1.138 1.138 0 0 0 .086-.084A1.072 1.072 0 0 0 110 240.8z" class="cls-3" data-name="Tracé 50657"/>
        <path id="Tracé_50658" d="M13.362 207.142a1.011 1.011 0 0 1-1.011-1.01A46.951 46.951 0 0 1 48.7 160.219a1.01 1.01 0 0 1 .462 1.967 44.938 44.938 0 0 0-34.793 43.946 1.01 1.01 0 0 1-1.007 1.01z" class="cls-3" data-name="Tracé 50658"/>
        <path id="Tracé_50659" d="M26.756 189.092a1.009 1.009 0 0 1-.884-1.5 38.726 38.726 0 0 1 22.776-18.3 1.011 1.011 0 0 1 .571 1.94 36.671 36.671 0 0 0-21.577 17.342 1.012 1.012 0 0 1-.886.518z" class="cls-3" data-name="Tracé 50659"/>
        <path id="Tracé_50660" d="M49.165 162.186a1.01 1.01 0 0 0-.462-1.967 46.95 46.95 0 0 0-36.352 45.913 47.735 47.735 0 0 0 .239 4.78c.122 1.215.3 2.442.512 3.648a1.01 1.01 0 0 0 .993.832 1.1 1.1 0 0 0 .18-.016 1.012 1.012 0 0 0 .816-1.174 44.987 44.987 0 0 1-.49-3.493 45.765 45.765 0 0 1-.229-4.577 44.938 44.938 0 0 1 34.793-43.946z" class="cls-4" data-name="Tracé 50660"/>
        <path id="Tracé_50661" d="M16.989 225.1a1.009 1.009 0 0 1-.931-.617c-.425-1-.82-2.036-1.173-3.068a1.01 1.01 0 1 1 1.912-.654c.338.987.715 1.974 1.121 2.934a1.009 1.009 0 0 1-.536 1.324 1 1 0 0 1-.393.081z" class="cls-4" data-name="Tracé 50661"/>
        <path id="Tracé_50662" d="M23.982 195.456a1 1 0 0 1-.316-.051 1.01 1.01 0 0 1-.644-1.275 38.387 38.387 0 0 1 25.626-24.841 1.011 1.011 0 0 1 .571 1.94 36.363 36.363 0 0 0-24.278 23.532 1.009 1.009 0 0 1-.959.695z" class="cls-4" data-name="Tracé 50662"/>
        <path id="Tracé_50663" d="M62.432 202.639a4.683 4.683 0 1 0 1.836 3.714 4.659 4.659 0 0 0-1.836-3.714zm-2.851 6.542a2.823 2.823 0 1 1 2.827-2.828 2.83 2.83 0 0 1-2.827 2.828z" class="cls-3" data-name="Tracé 50663"/>
    </g>
</svg>
