<svg id="Calque_1" data-name="Calque 1" xmlns="http://www.w3.org/2000/svg" viewBox="0 0 116 116"><defs><style>.cls-1{fill:#fff;}.cls-2{fill:#b5b5b5;}.cls-3,.cls-4{fill:#702963;}.cls-4{opacity:0.5;}</style></defs><g id="Eolienne"><path class="cls-1" d="M61.43,57.84a8.24,8.24,0,0,0-.06-1.22l1.21-.34a1.42,1.42,0,0,1-.16-.45L58.78,2.47A.72.72,0,0,0,58,1.79H58V54.26c-1.07,0-2.47,1.48-2.86,2.41-.12.3-.47.7-.47,1a4.18,4.18,0,0,0,.45,1.92L6.94,94l0,.63a.66.66,0,0,0,.68-.07l47.3-30.84.19-.14.55-.32,2-1,3.76,1.54,0-.05.31.19,46.75,30.64a.71.71,0,0,0,.91-.09L60.73,59.57A3.48,3.48,0,0,0,61.43,57.84Z"/><path class="cls-2" d="M54.64,57.72c0-.35.35-.75.47-1,.39-.93,1.79-2.41,2.86-2.41V1.8a.71.71,0,0,0-.69.68L53.92,55.77a1.05,1.05,0,0,1-.42.81L7,93.11l0,.85L55.09,59.64A4.18,4.18,0,0,1,54.64,57.72Z"/><path class="cls-2" d="M109.36,93.31,62.86,56.6a1.06,1.06,0,0,1-.28-.32l-1.21.34a8.24,8.24,0,0,1,.06,1.22,3.48,3.48,0,0,1-.7,1.73l48.66,34.86s.07-.05.09-.09A.7.7,0,0,0,109.36,93.31Z"/><path class="cls-3" d="M110.46,91.91,64.19,55.37l-3.63-53a2.54,2.54,0,0,0-5.06,0l-3.34,53L5.63,91.89A2.46,2.46,0,0,0,4.93,95l.26.54.28.35.1-.07a2.48,2.48,0,0,0,3,.17L56.24,65l1.49-.79,3,1.22L107.5,96a2.52,2.52,0,0,0,3.45-.63A2.48,2.48,0,0,0,110.46,91.91Zm-.66,2.67a.73.73,0,0,1-.09.08l-.32-.23a.71.71,0,0,1-.91.09L61.73,63.88l-.31-.19,0,.05L57.63,62.2l-2,1-.55.32-.19.14L7.59,94.52a.66.66,0,0,1-.68.07l0-.63-.4.28,0-.84-.53.38A1,1,0,0,1,6.5,93L53.26,56.31a.77.77,0,0,0,.29-.55L56.9,2.48a1.08,1.08,0,0,1,1.07-1V1.8H58a.72.72,0,0,1,.75.68l3.64,53.36a1.42,1.42,0,0,0,.16.45l.39-.12a.65.65,0,0,0,.13.16L109.59,93A1.09,1.09,0,0,1,109.8,94.58Z"/><path class="cls-3" d="M53.5,56.58a1.05,1.05,0,0,0,.42-.81L57.28,2.48A.71.71,0,0,1,58,1.8V1.43A1.08,1.08,0,0,0,56.9,2.48L53.55,55.76a.77.77,0,0,1-.29.55L6.5,93a1,1,0,0,0-.45.76l.53-.38,0,.84.4-.28,0-.85Z"/><path class="cls-2" d="M109.59,93,63.1,56.32a.65.65,0,0,1-.13-.16l-.39.12a1.06,1.06,0,0,0,.28.32l46.5,36.71a.7.7,0,0,1,.12,1s-.06.06-.09.09l.32.23a.73.73,0,0,0,.09-.08A1.09,1.09,0,0,0,109.59,93Z"/><path class="cls-3" d="M10.78,58.61a1,1,0,0,1-1-1A48,48,0,0,1,46.92,10.63a1,1,0,1,1,.47,2A46,46,0,0,0,11.82,57.58,1,1,0,0,1,10.78,58.61Z"/><path class="cls-3" d="M24.48,40.15A1.11,1.11,0,0,1,24,40a1,1,0,0,1-.4-1.41A39.58,39.58,0,0,1,46.86,19.91a1,1,0,1,1,.59,2A37.51,37.51,0,0,0,25.38,39.62,1,1,0,0,1,24.48,40.15Z"/><path class="cls-4" d="M47.39,12.64a1,1,0,1,0-.47-2A48,48,0,0,0,9.75,57.58,46.49,46.49,0,0,0,10,62.46c.12,1.25.3,2.5.52,3.73a1,1,0,0,0,1,.85h.19a1,1,0,0,0,.83-1.2c-.21-1.18-.38-2.38-.5-3.57-.15-1.54-.23-3.12-.23-4.68A46,46,0,0,1,47.39,12.64Z"/><path class="cls-4" d="M14.49,77a1,1,0,0,1-1-.63c-.43-1-.84-2.09-1.2-3.14a1,1,0,0,1,2-.67c.34,1,.73,2,1.14,3a1,1,0,0,1-.55,1.35A.93.93,0,0,1,14.49,77Z"/><path class="cls-4" d="M21.64,46.66a.93.93,0,0,1-.32,0,1,1,0,0,1-.66-1.3,39.24,39.24,0,0,1,26.2-25.4,1,1,0,1,1,.59,2A37.17,37.17,0,0,0,22.62,46,1,1,0,0,1,21.64,46.66Z"/><path class="cls-3" d="M61,54A4.86,4.86,0,0,0,58,53,4.8,4.8,0,1,0,61,54ZM58,60.69a2.89,2.89,0,1,1,1.76-5.17,2.85,2.85,0,0,1,1.13,2.28A2.89,2.89,0,0,1,58,60.69Z"/></g></svg>