<svg xmlns="http://www.w3.org/2000/svg" width="20.571" height="18" viewBox="0 0 20.571 18">
    <defs>
        <style>
            .cls-1{fill:#fff}.cls-2{fill:#702963}.cls-3{fill:#b3b3b3}
        </style>
    </defs>
    <g id="Groupe_14558" data-name="Groupe 14558" transform="translate(-16.748 -291)">
        <g id="Groupe_14530" data-name="Groupe 14530" transform="translate(18.596 295.5)">
            <rect id="Rectangle_14728" width="16.125" height="12.75" class="cls-1" data-name="Rectangle 14728" rx="4" transform="translate(.375 .375)"/>
            <path id="Tracé_50627" d="M35.07 316.5h-9.911a3.486 3.486 0 0 1-3.482-3.482V303h16.875v10.018a3.486 3.486 0 0 1-3.482 3.482zm-12.643-12.75v9.268a2.735 2.735 0 0 0 2.732 2.732h9.911a2.735 2.735 0 0 0 2.732-2.732v-9.268z" class="cls-2" data-name="Tracé 50627" transform="translate(-21.677 -303)"/>
        </g>
        <g id="Groupe_14531" data-name="Groupe 14531" transform="translate(16.748 291)">
            <path id="Tracé_45716" d="M27.085 291.136l-.032 2.386-.053 3.136a2.52 2.52 0 0 1-.021.281 6 6 0 0 1-.146.886A5.028 5.028 0 0 1 21.8 301.7h-.063a4.547 4.547 0 0 1-.927-.125 4.686 4.686 0 0 1-1.313-.469c-.146-.073-.292-.167-.438-.25-.156-.114-.312-.219-.448-.333a5.139 5.139 0 0 1-1.865-4.022v-.094l.042-.084.959-3.386.544-1.937 1.855.031 4.48.063z" class="cls-3" data-name="Tracé 45716" transform="translate(-16.748 -291)"/>
            <path id="Tracé_45716-2" d="M44.041 291.136l.031 2.386.052 3.137a2.522 2.522 0 0 0 .021.281 6.052 6.052 0 0 0 .146.886 5.029 5.029 0 0 0 5.033 3.876h.062a4.544 4.544 0 0 0 .927-.125 4.686 4.686 0 0 0 1.313-.469c.146-.073.292-.167.438-.25.156-.114.312-.219.448-.333a5.14 5.14 0 0 0 1.864-4.022v-.094l-.042-.084-.959-3.386-.54-1.939-1.855.031-4.48.063z" class="cls-2" data-name="Tracé 45716" transform="translate(-33.806 -291)"/>
        </g>
    </g>
</svg>
