<svg xmlns="http://www.w3.org/2000/svg" width="65.003" height="28.604" viewBox="0 0 65.003 28.604">
    <defs>
        <style>
            .cls-1{fill:#702963}
        </style>
    </defs>
    <g id="Groupe_12874" data-name="Groupe 12874" transform="translate(-11.957 -195.788)">
        <g id="Groupe_12873" data-name="Groupe 12873">
            <g id="Groupe_12871" data-name="Groupe 12871">
                <path id="Tracé_45774" d="M75.042 223.827a1.061 1.061 0 0 1-.6-.547L62.4 197.821a1.065 1.065 0 1 1 1.909-.945l.016.034 12.046 25.459a1.065 1.065 0 0 1-1.321 1.458z" class="cls-1" data-name="Tracé 45774"/>
                <path id="Tracé_45775" d="M75.4 224.392a1.581 1.581 0 0 1-.528-.092 1.562 1.562 0 0 1-.887-.8l-12.05-25.465a1.565 1.565 0 0 1 2.818-1.363l.011.024 12.046 25.459a1.566 1.566 0 0 1-.745 2.084 1.537 1.537 0 0 1-.665.153zm-.192-1.034a.564.564 0 0 0 .7-.773l-12.045-25.459a.564.564 0 0 0-.751-.269.566.566 0 0 0-.269.753l12.047 25.458a.559.559 0 0 0 .319.29z" class="cls-1" data-name="Tracé 45775"/>
            </g>
            <g id="Groupe_12872" data-name="Groupe 12872">
                <path id="Tracé_45776" d="M13.88 223.827a1.061 1.061 0 0 0 .6-.547l12.055-25.459a1.065 1.065 0 1 0-1.909-.945l-.016.034-12.047 25.459a1.065 1.065 0 0 0 1.321 1.458z" class="cls-1" data-name="Tracé 45776"/>
                <path id="Tracé_45777" d="M13.521 224.392a1.546 1.546 0 0 1-.668-.151 1.567 1.567 0 0 1-.746-2.084l12.046-25.465a1.565 1.565 0 1 1 2.83 1.338l-12.048 25.462a1.562 1.562 0 0 1-.887.8 1.584 1.584 0 0 1-.527.1zM25.569 196.8a.567.567 0 0 0-.511.323l-12.046 25.462a.564.564 0 0 0 .7.773.559.559 0 0 0 .319-.29l12.047-25.459a.564.564 0 0 0-.51-.806z" class="cls-1" data-name="Tracé 45777"/>
            </g>
        </g>
    </g>
</svg>
