<svg id="Calque_1" data-name="Calque 1" xmlns="http://www.w3.org/2000/svg" viewBox="0 0 241.25 39.29"><defs><style>.cls-1,.cls-3{fill:#702963;}.cls-1{opacity:0.1;isolation:isolate;}.cls-2{fill:#701663;}.cls-4{fill:#af71a6;}</style></defs><g id="Dirigeable_Success_Story" data-name="Dirigeable Success Story"><g id="Dirigeable"><path id="Tracé_39602" data-name="Tracé 39602" class="cls-1" d="M140.22-.48V36.35l-127.81.08L-.35,18,12.41-.4Z"/><rect id="Rectangle_13014" data-name="Rectangle 13014" class="cls-2" x="140.07" y="-0.48" width="3" height="37"/><rect id="Rectangle_13015" data-name="Rectangle 13015" class="cls-2" x="142.07" y="17.52" width="31" height="1"/><g id="Groupe_13158" data-name="Groupe 13158"><path id="Tracé_39603" data-name="Tracé 39603" class="cls-3" d="M241.25,16.81c-.45,6.37-7.49,12.86-17.58,15.55l-7.4,5.92a4.34,4.34,0,0,1-2.78,1h-12.7a2.08,2.08,0,0,1-2.08-2.07h0v-4c-7.37-1.34-13.56-4-17.52-7.5-2.68-2.34-4.34-5-4.66-7.9,0-.06-.05-.44-.05-.49l.22,0,4.49,0,59.38-.46C241.1,16.81,240.73,16.84,241.25,16.81Z"/><g id="Groupe_11051" data-name="Groupe 11051"><path id="Tracé_39604" data-name="Tracé 39604" class="cls-4" d="M241.25,16.81h-.68l-59.38.46-4.49,0h-.21c0-.21,0-.42,0-.63.09-9.47,14.67-17,32.56-16.84C226.61,0,240.84,7.57,241.25,16.81Zm-60.06-4.24q-.66.5-1.26,1,.6-.49,1.26-1Z"/></g></g><g id="Groupe_13160" data-name="Groupe 13160"><path id="Tracé_47197" data-name="Tracé 47197" class="cls-3" d="M173.09,9.54h0v8.19h6V14.32C179.11,11.68,176.41,9.54,173.09,9.54Z"/><path id="Tracé_47198" data-name="Tracé 47198" class="cls-4" d="M173.09,17.73v8.19h0c3.32,0,6-2.14,6-4.78V17.73Z"/></g></g></g></svg>