<svg id="Calque_1" data-name="Calque 1" xmlns="http://www.w3.org/2000/svg" viewBox="0 0 81.66 94.36"><defs><style>.cls-1{fill:#fbb03b;}</style></defs><path class="cls-1" d="M45,94.44a2.49,2.49,0,0,1-1.75-.74,2.43,2.43,0,0,1-.33-.38,2.14,2.14,0,0,1-.21-.43,1.57,1.57,0,0,1-.16-.46,4.28,4.28,0,0,1,0-.49,3.87,3.87,0,0,1,0-.49,1.63,1.63,0,0,1,.16-.47,2.14,2.14,0,0,1,.21-.43,2.43,2.43,0,0,1,.33-.38,2.17,2.17,0,0,1,.37-.31,2.55,2.55,0,0,1,.43-.23,3.1,3.1,0,0,1,.47-.14,2.31,2.31,0,0,1,1,0,2.24,2.24,0,0,1,.46.14,2,2,0,0,1,.44.23,1.91,1.91,0,0,1,.38.31,1.57,1.57,0,0,1,.3.38,3,3,0,0,1,.24.43c0,.15.1.31.14.47a2,2,0,0,1,0,.49,2.07,2.07,0,0,1,0,.49c0,.16-.09.31-.14.46a3,3,0,0,1-.24.43,1.57,1.57,0,0,1-.3.38A2.5,2.5,0,0,1,45,94.44Z"/><path class="cls-1" d="M34.1,94.44a2.49,2.49,0,0,1-1.76-.74,2.38,2.38,0,0,1-.32-.38,2.18,2.18,0,0,1-.22-.43,1.9,1.9,0,0,1-.15-.46,2.81,2.81,0,0,1,0-.49,2.63,2.63,0,0,1,0-.49A2,2,0,0,1,31.8,91a2.18,2.18,0,0,1,.22-.43,2.38,2.38,0,0,1,.32-.38,1.91,1.91,0,0,1,.38-.31,2.22,2.22,0,0,1,.43-.23,2.69,2.69,0,0,1,.46-.14,2.31,2.31,0,0,1,1,0,2.54,2.54,0,0,1,.47.14,2.22,2.22,0,0,1,.43.23,2.43,2.43,0,0,1,.69.69,2.22,2.22,0,0,1,.23.43,2.54,2.54,0,0,1,.14.47,2,2,0,0,1,.05.49,2.09,2.09,0,0,1-.05.49,2.44,2.44,0,0,1-.14.46,2.22,2.22,0,0,1-.23.43,1.91,1.91,0,0,1-.31.38A2.5,2.5,0,0,1,34.1,94.44Z"/><path class="cls-1" d="M25.37,94.34a2.49,2.49,0,0,1-1.76-.74,2.38,2.38,0,0,1-.32-.38,2.18,2.18,0,0,1-.22-.43,1.9,1.9,0,0,1-.15-.46,2.81,2.81,0,0,1-.05-.49,2.63,2.63,0,0,1,.05-.49,2,2,0,0,1,.15-.47,2.18,2.18,0,0,1,.22-.43,2.38,2.38,0,0,1,.32-.38,1.91,1.91,0,0,1,.38-.31,2.22,2.22,0,0,1,.43-.23,2.69,2.69,0,0,1,.46-.14,2.31,2.31,0,0,1,1,0,2.54,2.54,0,0,1,.47.14,2.22,2.22,0,0,1,.43.23,2.43,2.43,0,0,1,.69.69,2.22,2.22,0,0,1,.23.43,2.54,2.54,0,0,1,.14.47,2,2,0,0,1,.05.49,2.09,2.09,0,0,1-.05.49,2.44,2.44,0,0,1-.14.46,2.22,2.22,0,0,1-.23.43,1.91,1.91,0,0,1-.31.38A2.5,2.5,0,0,1,25.37,94.34Z"/><path class="cls-1" d="M16,94.14a2.49,2.49,0,0,1-1.76-.74,2.38,2.38,0,0,1-.32-.38,2.18,2.18,0,0,1-.22-.43,1.9,1.9,0,0,1-.15-.46,2.81,2.81,0,0,1-.05-.49,2.63,2.63,0,0,1,.05-.49,2,2,0,0,1,.15-.47,2.18,2.18,0,0,1,.22-.43,2.38,2.38,0,0,1,.32-.38,1.91,1.91,0,0,1,.38-.31,2.22,2.22,0,0,1,.43-.23,2.69,2.69,0,0,1,.46-.14,2.31,2.31,0,0,1,1,0,2.54,2.54,0,0,1,.47.14,2.22,2.22,0,0,1,.43.23,2.43,2.43,0,0,1,.69.69,2.22,2.22,0,0,1,.23.43,2.54,2.54,0,0,1,.14.47,2,2,0,0,1,.05.49,2.09,2.09,0,0,1-.05.49,2.44,2.44,0,0,1-.14.46,2.22,2.22,0,0,1-.23.43,1.91,1.91,0,0,1-.31.38A2.5,2.5,0,0,1,16,94.14Z"/><path class="cls-1" d="M7.86,90.77A2.49,2.49,0,0,1,6.1,90a2.38,2.38,0,0,1-.32-.38,2.18,2.18,0,0,1-.22-.43,1.9,1.9,0,0,1-.15-.46,2.81,2.81,0,0,1,0-.49,2.63,2.63,0,0,1,0-.49,2,2,0,0,1,.15-.47,2.18,2.18,0,0,1,.22-.43,2.38,2.38,0,0,1,.32-.38,1.91,1.91,0,0,1,.38-.31A2.22,2.22,0,0,1,6.91,86a2.69,2.69,0,0,1,.46-.14,2.31,2.31,0,0,1,1,0,2.54,2.54,0,0,1,.47.14,2.22,2.22,0,0,1,.43.23,2.43,2.43,0,0,1,.69.69,2.22,2.22,0,0,1,.23.43,2.54,2.54,0,0,1,.14.47,2,2,0,0,1,0,.49,2.09,2.09,0,0,1,0,.49,2.44,2.44,0,0,1-.14.46,2.22,2.22,0,0,1-.23.43,1.91,1.91,0,0,1-.31.38A2.5,2.5,0,0,1,7.86,90.77Z"/><path class="cls-1" d="M3.07,83.25a2.49,2.49,0,0,1-1.76-.74A2.92,2.92,0,0,1,1,82.13a2,2,0,0,1-.22-.44,1.77,1.77,0,0,1-.15-.46,2.8,2.8,0,0,1-.05-.48,2.63,2.63,0,0,1,.05-.49,1.84,1.84,0,0,1,.15-.47A2.26,2.26,0,0,1,1,79.35,2.83,2.83,0,0,1,1.31,79a1.61,1.61,0,0,1,.38-.31,3,3,0,0,1,.43-.24,4,4,0,0,1,.46-.13,2.31,2.31,0,0,1,1,0,3.62,3.62,0,0,1,.47.13,3,3,0,0,1,.43.24,1.61,1.61,0,0,1,.38.31,2.17,2.17,0,0,1,.31.37,2.3,2.3,0,0,1,.23.44,2.33,2.33,0,0,1,.14.47,2,2,0,0,1,.05.49,2.06,2.06,0,0,1-.05.48,2.24,2.24,0,0,1-.14.46,2,2,0,0,1-.23.44,2.24,2.24,0,0,1-.31.38A2.5,2.5,0,0,1,3.07,83.25Z"/><path class="cls-1" d="M2.77,73.2A2.49,2.49,0,0,1,1,72.46a2.38,2.38,0,0,1-.32-.38,2.18,2.18,0,0,1-.22-.43,1.9,1.9,0,0,1-.15-.46,2.81,2.81,0,0,1,0-.49,2.63,2.63,0,0,1,0-.49,2,2,0,0,1,.15-.47,2.18,2.18,0,0,1,.22-.43A2.38,2.38,0,0,1,1,68.93a1.91,1.91,0,0,1,.38-.31,2.22,2.22,0,0,1,.43-.23,2.69,2.69,0,0,1,.46-.14,2.31,2.31,0,0,1,1,0,2.54,2.54,0,0,1,.47.14,2.22,2.22,0,0,1,.43.23,1.91,1.91,0,0,1,.38.31,1.91,1.91,0,0,1,.31.38,2.22,2.22,0,0,1,.23.43,2.54,2.54,0,0,1,.14.47,2,2,0,0,1,0,.49,2.09,2.09,0,0,1,0,.49,2.44,2.44,0,0,1-.14.46,2.22,2.22,0,0,1-.23.43,1.91,1.91,0,0,1-.31.38A2.5,2.5,0,0,1,2.77,73.2Z"/><path class="cls-1" d="M2.54,62.69A2.49,2.49,0,0,1,.78,62a2.38,2.38,0,0,1-.32-.38,2.18,2.18,0,0,1-.22-.43,1.9,1.9,0,0,1-.15-.46,2.81,2.81,0,0,1,0-.49,2.63,2.63,0,0,1,0-.49,2,2,0,0,1,.15-.47,2.18,2.18,0,0,1,.22-.43,2.38,2.38,0,0,1,.32-.38,1.91,1.91,0,0,1,.38-.31,2.22,2.22,0,0,1,.43-.23,2.69,2.69,0,0,1,.46-.14,2.31,2.31,0,0,1,1,0,2.54,2.54,0,0,1,.47.14,2.22,2.22,0,0,1,.43.23,1.91,1.91,0,0,1,.38.31,1.91,1.91,0,0,1,.31.38,2.22,2.22,0,0,1,.23.43A2.54,2.54,0,0,1,5,59.7a2,2,0,0,1,0,.49,2.09,2.09,0,0,1,0,.49,2.44,2.44,0,0,1-.14.46,2.22,2.22,0,0,1-.23.43,1.91,1.91,0,0,1-.31.38A2.5,2.5,0,0,1,2.54,62.69Z"/><path class="cls-1" d="M2.54,52.59a2.53,2.53,0,0,1-1.76-.74,3.79,3.79,0,0,1-.32-.38A2.26,2.26,0,0,1,.24,51a1.77,1.77,0,0,1-.15-.46,2.8,2.8,0,0,1,0-.48,2.63,2.63,0,0,1,0-.49,1.73,1.73,0,0,1,.15-.47,2,2,0,0,1,.22-.44,2.92,2.92,0,0,1,.32-.38,1.86,1.86,0,0,1,.38-.3,3,3,0,0,1,.43-.24,4,4,0,0,1,.46-.13,2,2,0,0,1,1,0,3.62,3.62,0,0,1,.47.13,3,3,0,0,1,.43.24,1.86,1.86,0,0,1,.38.3,2.24,2.24,0,0,1,.31.38,2,2,0,0,1,.23.44A2.15,2.15,0,0,1,5,49.6a2,2,0,0,1,0,.49,2.06,2.06,0,0,1,0,.48,2.24,2.24,0,0,1-.14.46,2.3,2.3,0,0,1-.23.44,2.72,2.72,0,0,1-.31.38A2.54,2.54,0,0,1,2.54,52.59Z"/><path class="cls-1" d="M61.91,91.94a2.5,2.5,0,0,1,2.51-2.5h0a2.5,2.5,0,0,1,2.49,2.5h0a2.5,2.5,0,0,1-2.49,2.5h0A2.5,2.5,0,0,1,61.91,91.94Zm-9.7,0a2.5,2.5,0,0,1,2.5-2.5h0a2.51,2.51,0,0,1,2.5,2.5h0a2.51,2.51,0,0,1-2.5,2.5h0A2.5,2.5,0,0,1,52.21,91.94ZM71.46,90.5a2.5,2.5,0,0,1,.46-3.5h0a2.48,2.48,0,0,1,3.5.45h0A2.48,2.48,0,0,1,75,91h0a2.48,2.48,0,0,1-1.52.52h0A2.54,2.54,0,0,1,71.46,90.5ZM78,83.43a2.5,2.5,0,0,1-1.84-3h0a2.5,2.5,0,0,1,3-1.85h0a2.49,2.49,0,0,1,1.84,3h0a2.49,2.49,0,0,1-2.43,1.92h0A3.09,3.09,0,0,1,78,83.43Z"/><path class="cls-1" d="M79,73.81a2,2,0,0,1-.49,0,2.15,2.15,0,0,1-.47-.14,2.64,2.64,0,0,1-.44-.23,3.68,3.68,0,0,1-.38-.31,2.18,2.18,0,0,1-.3-.38,2,2,0,0,1-.24-.43,2,2,0,0,1-.14-.47,2.63,2.63,0,0,1,0-.49,2.72,2.72,0,0,1,0-.49,2.41,2.41,0,0,1,.38-.9,2.63,2.63,0,0,1,.3-.38,2.44,2.44,0,0,1,.82-.54,2.15,2.15,0,0,1,.47-.14,2.53,2.53,0,0,1,2.25.68,2.63,2.63,0,0,1,.3.38,1.88,1.88,0,0,1,.24.44,2.47,2.47,0,0,1,.15.46,4.07,4.07,0,0,1,0,.49,3.87,3.87,0,0,1,0,.49,2.57,2.57,0,0,1-.15.47,2,2,0,0,1-.24.43,2.18,2.18,0,0,1-.3.38A2.5,2.5,0,0,1,79,73.81Z"/><path class="cls-1" d="M79,62.69a2,2,0,0,1-.49,0,2.15,2.15,0,0,1-.47-.14,2.64,2.64,0,0,1-.44-.23,3.68,3.68,0,0,1-.38-.31,2.18,2.18,0,0,1-.3-.38,2,2,0,0,1-.24-.43,2,2,0,0,1-.14-.47,2.63,2.63,0,0,1,0-.49,2.72,2.72,0,0,1,0-.49,2.41,2.41,0,0,1,.38-.9,2.63,2.63,0,0,1,.3-.38,2.44,2.44,0,0,1,.82-.54,2.15,2.15,0,0,1,.47-.14,2.53,2.53,0,0,1,2.25.68,2.63,2.63,0,0,1,.3.38,1.88,1.88,0,0,1,.24.44,2.47,2.47,0,0,1,.15.46,4.07,4.07,0,0,1,0,.49,3.87,3.87,0,0,1,0,.49,2.57,2.57,0,0,1-.15.47,2,2,0,0,1-.24.43,2.18,2.18,0,0,1-.3.38A2.5,2.5,0,0,1,79,62.69Z"/><path class="cls-1" d="M79,52.58a2,2,0,0,1-.49,0,2.15,2.15,0,0,1-.47-.14,2.64,2.64,0,0,1-.44-.23,3.68,3.68,0,0,1-.38-.31,2.18,2.18,0,0,1-.3-.38,2,2,0,0,1-.24-.43,2,2,0,0,1-.14-.47,2.63,2.63,0,0,1,0-.49,2.72,2.72,0,0,1,0-.49,2.41,2.41,0,0,1,.38-.9,2.63,2.63,0,0,1,.3-.38,2.44,2.44,0,0,1,.82-.54,2.15,2.15,0,0,1,.47-.14,2.53,2.53,0,0,1,2.25.68,2.63,2.63,0,0,1,.3.38,1.88,1.88,0,0,1,.24.44,2.47,2.47,0,0,1,.15.46,4.07,4.07,0,0,1,0,.49,3.87,3.87,0,0,1,0,.49,2.57,2.57,0,0,1-.15.47,2,2,0,0,1-.24.43,2.18,2.18,0,0,1-.3.38A2.5,2.5,0,0,1,79,52.58Z"/><path class="cls-1" d="M79,43a2,2,0,0,1-.49,0,2.15,2.15,0,0,1-.47-.14,2.64,2.64,0,0,1-.44-.23,3.68,3.68,0,0,1-.38-.31,2.18,2.18,0,0,1-.3-.38,2,2,0,0,1-.24-.43,2,2,0,0,1-.14-.47,2.63,2.63,0,0,1,0-.49,2.72,2.72,0,0,1,0-.49,2.41,2.41,0,0,1,.38-.9,2.63,2.63,0,0,1,.3-.38,2.44,2.44,0,0,1,.82-.54,2.15,2.15,0,0,1,.47-.14,2.53,2.53,0,0,1,2.25.68,2.63,2.63,0,0,1,.3.38,1.88,1.88,0,0,1,.24.44,2.47,2.47,0,0,1,.15.46,4.07,4.07,0,0,1,0,.49,3.87,3.87,0,0,1,0,.49,2.57,2.57,0,0,1-.15.47,2,2,0,0,1-.24.43,2.18,2.18,0,0,1-.3.38A2.5,2.5,0,0,1,79,43Z"/><path class="cls-1" d="M79,33a2,2,0,0,1-.49,0,2.15,2.15,0,0,1-.47-.14,2.64,2.64,0,0,1-.44-.23,3.68,3.68,0,0,1-.38-.31,2.18,2.18,0,0,1-.3-.38,2,2,0,0,1-.24-.43,2,2,0,0,1-.14-.47,2.63,2.63,0,0,1,0-.49,2.72,2.72,0,0,1,0-.49,2.41,2.41,0,0,1,.38-.9,2.63,2.63,0,0,1,.3-.38,2.44,2.44,0,0,1,.82-.54,2.15,2.15,0,0,1,.47-.14,2.53,2.53,0,0,1,2.25.68,2.63,2.63,0,0,1,.3.38,1.88,1.88,0,0,1,.24.44,2.47,2.47,0,0,1,.15.46,4.07,4.07,0,0,1,0,.49,3.87,3.87,0,0,1,0,.49,2.57,2.57,0,0,1-.15.47,2,2,0,0,1-.24.43,2.18,2.18,0,0,1-.3.38A2.5,2.5,0,0,1,79,33Z"/><path class="cls-1" d="M79,23a2,2,0,0,1-.49-.05,2.15,2.15,0,0,1-.47-.14,2.64,2.64,0,0,1-.44-.23,3.68,3.68,0,0,1-.38-.31,2.18,2.18,0,0,1-.3-.38,2,2,0,0,1-.24-.43,2,2,0,0,1-.14-.47,2.63,2.63,0,0,1,0-.49,2.72,2.72,0,0,1,0-.49,2.41,2.41,0,0,1,.38-.9,2.63,2.63,0,0,1,.3-.38,2.44,2.44,0,0,1,.82-.54,2.15,2.15,0,0,1,.47-.14,2.53,2.53,0,0,1,2.25.68,2.63,2.63,0,0,1,.3.38,1.88,1.88,0,0,1,.24.44,2.47,2.47,0,0,1,.15.46,4.07,4.07,0,0,1,0,.49,3.87,3.87,0,0,1,0,.49,2.57,2.57,0,0,1-.15.47,2,2,0,0,1-.24.43,2.18,2.18,0,0,1-.3.38A2.5,2.5,0,0,1,79,23Z"/><path class="cls-1" d="M73.45,13.18a2,2,0,0,1-.49,0,2.54,2.54,0,0,1-.47-.14,2.22,2.22,0,0,1-.43-.23,2.33,2.33,0,0,1-.38-.31,2.24,2.24,0,0,1-.31-.38,2,2,0,0,1-.23-.43,2,2,0,0,1-.15-.47,2.63,2.63,0,0,1,0-.49,2.72,2.72,0,0,1,0-.49,1.9,1.9,0,0,1,.15-.46,1.85,1.85,0,0,1,.23-.44,2.72,2.72,0,0,1,.31-.38,2.33,2.33,0,0,1,.38-.31,2.93,2.93,0,0,1,.43-.23,2.52,2.52,0,0,1,2.72.54,2.72,2.72,0,0,1,.31.38,2.3,2.3,0,0,1,.23.44,2.47,2.47,0,0,1,.15.46,2.72,2.72,0,0,1,0,.49,2.63,2.63,0,0,1,0,.49,2.7,2.7,0,0,1-.38.9,2.24,2.24,0,0,1-.31.38A2.48,2.48,0,0,1,73.45,13.18Z"/><path class="cls-1" d="M64.41,6.29a2,2,0,0,1-.49,0,2.54,2.54,0,0,1-.47-.14A2.22,2.22,0,0,1,63,5.87a2.33,2.33,0,0,1-.38-.31,2.24,2.24,0,0,1-.31-.38,2,2,0,0,1-.23-.43A2,2,0,0,1,62,4.28a2.63,2.63,0,0,1-.05-.49A2.72,2.72,0,0,1,62,3.3a1.9,1.9,0,0,1,.15-.46,1.85,1.85,0,0,1,.23-.44A2.72,2.72,0,0,1,62.64,2,2.33,2.33,0,0,1,63,1.71a2.93,2.93,0,0,1,.43-.23A2.52,2.52,0,0,1,66.17,2a2.72,2.72,0,0,1,.31.38,2.3,2.3,0,0,1,.23.44,2.47,2.47,0,0,1,.15.46,2.72,2.72,0,0,1,0,.49,2.63,2.63,0,0,1,0,.49,2.7,2.7,0,0,1-.38.9,2.24,2.24,0,0,1-.31.38A2.48,2.48,0,0,1,64.41,6.29Z"/><path class="cls-1" d="M0,40.48A2.5,2.5,0,0,1,2.5,38h0A2.5,2.5,0,0,1,5,40.48H5A2.5,2.5,0,0,1,2.5,43h0A2.5,2.5,0,0,1,0,40.48Zm0-10A2.5,2.5,0,0,1,2.5,28h0A2.5,2.5,0,0,1,5,30.48H5A2.5,2.5,0,0,1,2.5,33h0A2.5,2.5,0,0,1,0,30.48Zm0-10A2.5,2.5,0,0,1,2.5,18h0A2.5,2.5,0,0,1,5,20.48H5A2.5,2.5,0,0,1,2.5,23h0A2.5,2.5,0,0,1,0,20.48Zm2.78-7.54a2.5,2.5,0,0,1-1.2-3.33h0a2.51,2.51,0,0,1,3.33-1.2h0A2.5,2.5,0,0,1,6.1,11.74h0a2.52,2.52,0,0,1-2.27,1.44h0A2.48,2.48,0,0,1,2.78,12.94ZM8.53,4.83A2.51,2.51,0,0,1,9.76,1.51h0a2.5,2.5,0,0,1,3.31,1.23h0a2.5,2.5,0,0,1-1.23,3.32h0a2.54,2.54,0,0,1-1,.23h0A2.5,2.5,0,0,1,8.53,4.83ZM28.11,2.5A2.5,2.5,0,0,1,30.62,0h0a2.49,2.49,0,0,1,2.49,2.5h0A2.49,2.49,0,0,1,30.62,5h0A2.5,2.5,0,0,1,28.11,2.5Zm-10,0A2.49,2.49,0,0,1,20.61,0h0a2.5,2.5,0,0,1,2.51,2.5h0A2.5,2.5,0,0,1,20.61,5h0A2.49,2.49,0,0,1,18.12,2.5Z"/></svg>