<svg id="Calque_1" data-name="Calque 1" xmlns="http://www.w3.org/2000/svg" viewBox="0 0 71.74 104.61"><defs><style>.cls-1,.cls-4{fill:#fbb03b;}.cls-1{opacity:0.33;}.cls-2,.cls-3{fill:none;stroke:#fbb03b;stroke-miterlimit:10;stroke-width:3.5px;}.cls-3{stroke-linecap:round;}</style></defs><title>19_BIBLE_ICONE</title><path class="cls-1" d="M48.67,1.79H6.79a5,5,0,0,0-5,5v91a5,5,0,0,0,5,5H64.92a5,5,0,0,0,5-5V23.08a5,5,0,0,0-1.47-3.56L52.23,3.26A5,5,0,0,0,48.67,1.79Z"/><path class="cls-2" d="M48.67,1.79H6.79a5,5,0,0,0-5,5v91a5,5,0,0,0,5,5H64.92a5,5,0,0,0,5-5V23.08a5,5,0,0,0-1.47-3.56L52.23,3.26A5,5,0,0,0,48.67,1.79Z"/><path class="cls-2" d="M43.61,1.79V23.1a5,5,0,0,0,5,5H70"/><line class="cls-3" x1="12.77" y1="18.5" x2="30.34" y2="18.5"/><line class="cls-3" x1="39.43" y1="45.71" x2="57" y2="45.71"/><line class="cls-3" x1="39.43" y1="64.01" x2="57" y2="64.01"/><line class="cls-3" x1="43.8" y1="86.72" x2="52.63" y2="77.89"/><line class="cls-3" x1="43.8" y1="77.89" x2="52.63" y2="86.72"/><path class="cls-4" d="M22.65,62.89a5.06,5.06,0,0,0,5.05-5v-12a5.06,5.06,0,0,0-5.05-5.05H17.82a5.06,5.06,0,0,0-5.05,5.05v12a5.06,5.06,0,0,0,5.05,5h.63v4.74h-.63a5,5,0,0,0-5.05,5.05v12a5.06,5.06,0,0,0,5.05,5.06h4.83a5.06,5.06,0,0,0,5.05-5.06v-12a5.06,5.06,0,0,0-5.05-5.05H22V62.89Zm0,7.74a2.05,2.05,0,0,1,2.05,2.05v12a2.05,2.05,0,0,1-2.05,2.06H17.82a2.05,2.05,0,0,1-2.05-2.06v-12a2.05,2.05,0,0,1,2.05-2.05h.63v4.9a1.18,1.18,0,0,0,1.18,1.18h1.21A1.18,1.18,0,0,0,22,75.53v-4.9ZM17.82,59.89a2.05,2.05,0,0,1-2.05-2v-12a2.05,2.05,0,0,1,2.05-2.05h4.83a2.05,2.05,0,0,1,2.05,2.05v12a2.05,2.05,0,0,1-2.05,2H22v-7a1.18,1.18,0,0,0-1.18-1.18H19.63a1.18,1.18,0,0,0-1.18,1.18v7Z"/></svg>