<svg id="Calque_1" data-name="Calque 1" xmlns="http://www.w3.org/2000/svg" viewBox="0 0 71.8 104.74"><defs><style>.cls-1{fill:#0054ff;}.cls-2{fill:#f9d5a5;}.cls-3,.cls-4{fill:none;stroke:#fbb03b;stroke-miterlimit:10;stroke-width:3.5px;}.cls-4{stroke-linecap:round;}.cls-5{fill:#fbb03b;}</style></defs><rect class="cls-1" x="27.22" y="22.25" width="22.6" height="20.06"/><path class="cls-2" d="M48.8,1.3H6.92a5,5,0,0,0-5,5v91a5,5,0,0,0,5,5H65.06a5,5,0,0,0,5-5V22.6A5.08,5.08,0,0,0,68.62,19L52.37,2.78A5,5,0,0,0,48.8,1.3Z"/><path class="cls-3" d="M48.8,1.8H6.92a5,5,0,0,0-5,5v91a5,5,0,0,0,5,5H65.06a5,5,0,0,0,5-5V23.09a5.06,5.06,0,0,0-1.48-3.56L52.37,3.28A5,5,0,0,0,48.8,1.8Z"/><path class="cls-3" d="M43.74,1.8V23.12a5,5,0,0,0,5,5H70.1"/><line class="cls-4" x1="12.9" y1="18.51" x2="30.47" y2="18.51"/><line class="cls-4" x1="39.57" y1="45.72" x2="57.14" y2="45.72"/><line class="cls-4" x1="39.57" y1="64.02" x2="57.14" y2="64.02"/><path class="cls-5" d="M22.78,62.9a5.06,5.06,0,0,0,5-5v-12a5.06,5.06,0,0,0-5-5H18a5.06,5.06,0,0,0-5,5v12a5.06,5.06,0,0,0,5,5h.63v4.74H18a5,5,0,0,0-5,5v12a5.06,5.06,0,0,0,5,5.06h4.83a5.06,5.06,0,0,0,5-5.06v-12a5.06,5.06,0,0,0-5-5h-.63V62.9Zm0,7.74a2.05,2.05,0,0,1,2,2v12a2.05,2.05,0,0,1-2,2.06H18a2.05,2.05,0,0,1-2-2.06v-12a2.05,2.05,0,0,1,2-2h.63v4.9a1.18,1.18,0,0,0,1.18,1.18H21a1.18,1.18,0,0,0,1.18-1.18v-4.9ZM18,59.9a2.05,2.05,0,0,1-2-2v-12a2.05,2.05,0,0,1,2-2h4.83a2.05,2.05,0,0,1,2,2v12a2.05,2.05,0,0,1-2,2h-.63v-7A1.18,1.18,0,0,0,21,51.69H19.76a1.18,1.18,0,0,0-1.18,1.18v7Z"/><line class="cls-4" x1="43.93" y1="87.52" x2="52.77" y2="78.69"/><line class="cls-4" x1="43.93" y1="78.69" x2="52.77" y2="87.52"/></svg>