<svg id="Calque_1" data-name="Calque 1" xmlns="http://www.w3.org/2000/svg" viewBox="0 0 180 180"><defs><style>.cls-1,.cls-4{fill:#702963;}.cls-1{opacity:0.1;}.cls-2{fill:none;stroke:#0054ff;stroke-miterlimit:10;stroke-width:2.5px;}.cls-3{opacity:0.2;}</style></defs><path class="cls-1" d="M90.29.21A89.9,89.9,0,1,0,180.18,90.1,89.9,89.9,0,0,0,90.29.21ZM133,140.11H47.62A7.42,7.42,0,0,1,41.19,129L78.67,55V26.81a6.67,6.67,0,0,1,6.67-6.67h9.89a6.67,6.67,0,0,1,6.67,6.67V55l37.49,74A7.43,7.43,0,0,1,133,140.11Z"/><path class="cls-2" d="M133,140.11H47.62A7.42,7.42,0,0,1,41.19,129L78.67,55V26.81a6.67,6.67,0,0,1,6.67-6.67h9.89a6.67,6.67,0,0,1,6.67,6.67V55l37.49,74A7.43,7.43,0,0,1,133,140.11Z"/><g class="cls-3"><path id="Tracé_49200" data-name="Tracé 49200" class="cls-4" d="M171.08,96.24h-7.87a1.07,1.07,0,0,1,0-2.14h7.87a1.07,1.07,0,0,1,0,2.14Z"/><path id="Tracé_49200-2" data-name="Tracé 49200" class="cls-4" d="M94.48,171.45H86.61a1.07,1.07,0,0,1,0-2.14h7.87a1.07,1.07,0,1,1,0,2.14Z"/><path id="Tracé_49200-3" data-name="Tracé 49200" class="cls-4" d="M46.59,149.21H38.72a1.07,1.07,0,0,1,0-2.14h7.87a1.07,1.07,0,1,1,0,2.14Z"/><path id="Tracé_49200-4" data-name="Tracé 49200" class="cls-4" d="M36.75,50.92H28.89a1.07,1.07,0,0,1,0-2.14h7.86a1.07,1.07,0,1,1,0,2.14Z"/><path id="Tracé_49200-5" data-name="Tracé 49200" class="cls-4" d="M129.37,63.46h-7.86a1.07,1.07,0,0,1,0-2.14h7.86a1.07,1.07,0,0,1,0,2.14Z"/><path id="Tracé_49200-6" data-name="Tracé 49200" class="cls-4" d="M129.37,156.35h-7.86a1.08,1.08,0,0,1,0-2.15h7.86a1.08,1.08,0,0,1,0,2.15Z"/><path id="Tracé_49200-7" data-name="Tracé 49200" class="cls-4" d="M51.94,72.36H44.07a1.07,1.07,0,0,1,0-2.14h7.87a1.07,1.07,0,0,1,0,2.14Z"/><path id="Tracé_49200-8" data-name="Tracé 49200" class="cls-4" d="M23.21,109.33H15.34a1.07,1.07,0,0,1,0-2.14h7.87a1.07,1.07,0,0,1,0,2.14Z"/><path id="Tracé_49200-9" data-name="Tracé 49200" class="cls-4" d="M39.11,89H31.24a1.07,1.07,0,0,1,0-2.14h7.87a1.07,1.07,0,1,1,0,2.14Z"/><path id="Tracé_49200-10" data-name="Tracé 49200" class="cls-4" d="M63.05,28.26H55.18a1.07,1.07,0,0,1,0-2.14h7.87a1.07,1.07,0,1,1,0,2.14Z"/><path id="Tracé_49200-11" data-name="Tracé 49200" class="cls-4" d="M160.85,123.89H153a1.07,1.07,0,1,1,0-2.14h7.87a1.07,1.07,0,1,1,0,2.14Z"/><path id="Tracé_49200-12" data-name="Tracé 49200" class="cls-4" d="M74.09,157.42H66.22a1.07,1.07,0,0,1,0-2.14h7.87a1.07,1.07,0,0,1,0,2.14Z"/><path id="Tracé_49200-13" data-name="Tracé 49200" class="cls-4" d="M140.65,37.88h-7.87a1.07,1.07,0,1,1,0-2.14h7.87a1.07,1.07,0,0,1,0,2.14Z"/><path id="Tracé_49200-14" data-name="Tracé 49200" class="cls-4" d="M148.89,86.11H141A1.07,1.07,0,1,1,141,84h7.87a1.07,1.07,0,1,1,0,2.14Z"/><path id="Tracé_49200-15" data-name="Tracé 49200" class="cls-4" d="M95.14,10.67H87.28a1.07,1.07,0,0,1,0-2.14h7.86a1.07,1.07,0,0,1,0,2.14Z"/><circle class="cls-4" cx="154.1" cy="63.37" r="1.77"/><circle class="cls-4" cx="140.39" cy="103.97" r="1.77"/><circle class="cls-4" cx="26.05" cy="71.29" r="1.77"/><circle class="cls-4" cx="30.17" cy="126.77" r="1.77"/><circle class="cls-4" cx="152.33" cy="140.11" r="1.77"/><circle class="cls-4" cx="99.99" cy="155.28" r="1.77"/><circle class="cls-4" cx="57.64" cy="49.6" r="1.77"/><circle class="cls-4" cx="118.67" cy="28.26" r="1.77"/></g></svg>