<svg id="Calque_1" data-name="Calque 1" xmlns="http://www.w3.org/2000/svg" viewBox="0 0 126.86 61.82"><defs><style>.cls-1{fill:#ffa788;}.cls-2{fill:none;stroke:#ff540e;stroke-miterlimit:10;stroke-width:3.5px;}.cls-3{fill:#ff540e;}</style></defs><path class="cls-1" d="M9,37.88h108.9a7.21,7.21,0,0,1,7.21,7.21v9.09a5.9,5.9,0,0,1-5.9,5.9H7.7a5.9,5.9,0,0,1-5.9-5.9V45.09A7.21,7.21,0,0,1,9,37.88Z"/><rect class="cls-2" x="1.8" y="37.88" width="123.32" height="22.2" rx="4.81"/><path id="Tracé_47202" data-name="Tracé 47202" class="cls-3" d="M96.86,5.32a16.66,16.66,0,0,0-23.55-.9c-4.42,4.09-8,16.63-9.84,24.2C61.63,21.05,58,8.51,53.62,4.42a16.67,16.67,0,0,0-28,12.87A16.56,16.56,0,0,0,31,28.88c3.06,2.83,10.11,4.95,16.72,6.4,6.31,1.39,12.21,2.16,13.82,2.36l.2,0,1.72.21,1.77-.21.18,0c1.59-.19,7.5-1,13.83-2.36,6.61-1.44,13.67-3.57,16.73-6.4a16.69,16.69,0,0,0,.91-23.56ZM34.72,24.83A11.15,11.15,0,0,1,41.87,5.49h.44a11.07,11.07,0,0,1,7.57,3C53,11.36,56.52,23,58.52,31.66,49.7,30.34,37.85,27.74,34.72,24.83Zm57.5,0c-3.14,2.91-15,5.51-23.81,6.83,2-8.68,5.51-20.3,8.64-23.2a11.09,11.09,0,0,1,7.57-3h.45a11.16,11.16,0,0,1,7.15,19.33h0Z"/><line class="cls-2" x1="63.46" y1="34.12" x2="63.46" y2="60.07"/></svg>