<svg id="Calque_1" data-name="Calque 1" xmlns="http://www.w3.org/2000/svg" viewBox="0 0 252 252"><defs><style>.cls-1,.cls-9{fill:#702963;}.cls-1{opacity:0.1;}.cls-2{fill:#ffa788;}.cls-3,.cls-7{fill:none;}.cls-3{stroke:#ff540e;stroke-miterlimit:10;stroke-width:3.5px;}.cls-4{fill:#fff;}.cls-5{fill:#712a64;}.cls-6{fill:#505050;}.cls-7{stroke:#712a64;stroke-linecap:round;stroke-linejoin:bevel;stroke-width:0.1px;}.cls-8{opacity:0.2;}</style></defs><circle class="cls-1" cx="125.51" cy="126" r="126"/><path class="cls-2" d="M67.94,110.73H183.08a0,0,0,0,1,0,0v64.36A17.08,17.08,0,0,1,166,192.17H85a17.08,17.08,0,0,1-17.08-17.08V110.73A0,0,0,0,1,67.94,110.73Z"/><path class="cls-3" d="M67.94,110.73H183.08a0,0,0,0,1,0,0v65.05a16.39,16.39,0,0,1-16.39,16.39H84.33a16.39,16.39,0,0,1-16.39-16.39V110.73A0,0,0,0,1,67.94,110.73Z"/><g id="token"><circle id="Ellipse_2689" data-name="Ellipse 2689" class="cls-4" cx="125.5" cy="152.06" r="33.16"/><g id="Groupe_13047" data-name="Groupe 13047"><path id="Tracé_46513" data-name="Tracé 46513" class="cls-5" d="M141.34,141.35a2.93,2.93,0,1,1-2.93-2.93h0a2.92,2.92,0,0,1,2.92,2.92Z"/><path id="Tracé_46514" data-name="Tracé 46514" class="cls-5" d="M141.48,142c0-.1-.1.26-.06.06a4.69,4.69,0,0,1-.2.6c-.05,0,0-.16-.18.11s.06.1-.17.42l.09-.11A.71.71,0,0,0,141,143a2.39,2.39,0,0,1-.94,1,6.41,6.41,0,0,1-1.06.3s.13-.05.1-.06l-.3.05c-.22.08.07.06,0,.1a1.3,1.3,0,0,1-.65,0s-.32-.13-.32-.13c-.25.06-.58-.13-1-.33-.06-.08-.48-.3-.5-.42s.07-.13,0-.28.15.12,0-.11c.22.2,0,.19.27.45v0c.16.08.37.3.5.3.4.2,0,.07.14.21s.65.14.68,0l-.34-.07c.06,0,0,0,0,0a.46.46,0,0,0,.23.06h.26c.17,0,.27,0,.19.06h-.2c0,.05.25.06.43,0a4.79,4.79,0,0,1,.64-.21c.1,0,.05,0,.15,0l.31-.14c.08-.05.15-.06.21-.1a1.29,1.29,0,0,0,.5-.33,2.85,2.85,0,0,0,.77-1c-.06,0,.08-.25.1-.33a1.3,1.3,0,0,0,.08-.17,1.87,1.87,0,0,0,0-.25c0,.09,0,0,0,.11,0-.36.07-.43.12-.45a1.52,1.52,0,0,1,0,.67Z"/><path id="Tracé_46515" data-name="Tracé 46515" class="cls-5" d="M135.65,142.64c.1,0-.2-.59,0-.32a2.3,2.3,0,0,0-.14-.42c0,.26,0-.05,0,.09a2.81,2.81,0,0,1,.39-2.29,8.09,8.09,0,0,1,.54-.61,4,4,0,0,1,.63-.52c.32-.12.14,0,.1.1l.19-.08.2-.07-.19.1-.18.11s.17,0,.28,0l.1-.05c0,.1-.23.16-.43.26a1.58,1.58,0,0,0-.56.36c.34-.3-.09,0,0-.14l-.11.09a2.26,2.26,0,0,1,.56-.46,2.54,2.54,0,0,0-1,.93,2.58,2.58,0,0,0-.39,1.18s0-.09,0,0a1,1,0,0,0,.06.55l0-.12a1.62,1.62,0,0,0,.07.62,1.22,1.22,0,0,0,.18.7h0a.71.71,0,0,0,.06.14.92.92,0,0,0,.07.13c-.05-.06,0,0,0,0s0,0,0-.08,0,.18,0,.35c0-.06-.06-.09-.08-.13s.12.2.17.31.09.16,0,.08a1.07,1.07,0,0,1-.2-.38,2.39,2.39,0,0,0-.15-.37Z"/><path id="Tracé_46516" data-name="Tracé 46516" class="cls-5" d="M137,143.78c-.23-.17.08,0,.05-.05a2.26,2.26,0,0,0,.22.11s-.24-.07-.27-.06Z"/><path id="Tracé_46517" data-name="Tracé 46517" class="cls-5" d="M138.92,138.28a2.07,2.07,0,0,0,.33.1l.27.05a1.2,1.2,0,0,1,.31.13c-.13,0-.08,0,0,.12a2.13,2.13,0,0,1,.31.29c-.13-.09-.4-.19-.6-.33,0,0-.16-.1-.26-.15s-.07,0-.1.07a1.35,1.35,0,0,1-.46,0c-.12,0-.42,0-.4-.06s-.16.05-.26,0H138l.21,0,.21,0a.11.11,0,0,0,.08,0s.08,0,.17,0,.17,0,0-.08h-.6c-.15,0,.05-.06.28-.08a1.73,1.73,0,0,0,.51,0Z"/><path id="Tracé_46518" data-name="Tracé 46518" class="cls-5" d="M137.45,138.53h0a2.07,2.07,0,0,1,.5-.15,3.68,3.68,0,0,0-.47.15Z"/><path id="Tracé_46519" data-name="Tracé 46519" class="cls-5" d="M140.67,139.19a2.09,2.09,0,0,0-.22-.2l0-.06.2.26Z"/><path id="Tracé_46520" data-name="Tracé 46520" class="cls-5" d="M136.1,139.85c0,.13-.2.4-.18.52,0-.08,0-.06,0-.08l-.08.15a1.49,1.49,0,0,1,.25-.59Z"/><path id="Tracé_46521" data-name="Tracé 46521" class="cls-5" d="M141.26,140.08a1.78,1.78,0,0,1,.28.81c0,.09,0-.11,0,0a.85.85,0,0,0,0,.23l0,0c0,.11-.06.42-.13.26a4,4,0,0,0-.28-1.09l0-.09-.12-.21s0,0,0-.08,0,.11,0,.12a2.42,2.42,0,0,0-.27-.36s0,0,0,0c-.1-.2-.26-.22-.34-.4l.1.09.11.09a4.64,4.64,0,0,0-.57-.6c.53.41.93.62,1.15,1.24Z"/><path id="Tracé_46522" data-name="Tracé 46522" class="cls-6" d="M123.06,142.25a2,2,0,1,1-2-2,2,2,0,0,1,2,2Z"/><path id="Tracé_46523" data-name="Tracé 46523" class="cls-6" d="M122.77,141.78h0v0a.18.18,0,0,1,0,.13s0,0,0,0,0,.05,0,.12a.06.06,0,0,1,0-.06v.14s0,0,0,0,.06,0,.08.05v-.06s0,0,0,.06h0a.15.15,0,0,0,0,.07s0,0,0,0v-.09h0v0a0,0,0,0,1,0,0l0-.05s0,.13,0,.05v0l0-.1s0-.1,0-.11l-.13-.43s-.06,0-.12,0v0l0,0a.08.08,0,0,1,0,0s0,0,0,0l0-.07h0a1.19,1.19,0,0,1,.08.2,2.25,2.25,0,0,1,0,.22h0Z"/><path id="Tracé_46524" data-name="Tracé 46524" class="cls-6" d="M120.85,140.09v0a2.23,2.23,0,0,0-1.1.45,2.14,2.14,0,0,0,.14,3.54l-.09.05a2.09,2.09,0,0,0,1.51.19h-.17a2.86,2.86,0,0,1,.36-.1,4.15,4.15,0,0,0,.4-.16v0c-.31.14,0,0-.08.12l0,0h0l0,0s0,0,0,.06l.08,0c.18,0,.21,0,.22.09s0-.06.16-.15v0l.17-.17.1,0a.8.8,0,0,1,.15-.17l0,0a2.67,2.67,0,0,0,.57-1.06c0-.09,0-.28,0-.49l-.06.09a3.22,3.22,0,0,1-.35,1l0,0a1.08,1.08,0,0,1,.08-.19l0,0c-.11,0-.16.16-.22.3a1.52,1.52,0,0,1-.17.3c-.11.07-.1,0-.07,0s.06-.12,0-.07c.06-.13,0-.1-.08,0l-.28.13c-.06,0-.16.05-.25.1l-.15.06-.17,0-.16.05-.18,0-.16,0a.38.38,0,0,1-.15,0,1.07,1.07,0,0,1-.5-.07,1.46,1.46,0,0,1-.46-.28,1.71,1.71,0,0,1-.51-.84,4.42,4.42,0,0,1-.15-.48.54.54,0,0,1,.08-.41s0-.12.09-.24a1.71,1.71,0,0,1,.13-.23l0,0a1.78,1.78,0,0,1,1.15-.92c.2,0,.27-.11.36,0a2.06,2.06,0,0,1,1.22.46s.08,0,0-.06a1.21,1.21,0,0,1-.24-.21c-.07-.06-.12-.12-.1-.15l.07,0-.11-.12-.1,0a.06.06,0,0,1,0,0,1.71,1.71,0,0,1-.23-.13.64.64,0,0,0-.25-.12c-.14,0-.29,0-.51,0Z"/><path id="Tracé_46525" data-name="Tracé 46525" class="cls-6" d="M133.61,155.05a2.4,2.4,0,1,1-2.4-2.4h0A2.4,2.4,0,0,1,133.61,155.05Z"/><path id="Tracé_46526" data-name="Tracé 46526" class="cls-6" d="M130.39,152.59l-.2.06c-.06,0-.1,0-.09,0h0c.08-.07.52-.17.32-.07Z"/><path id="Tracé_46527" data-name="Tracé 46527" class="cls-4" d="M130.46,152.72c-.1,0,0,0,0,0l.13,0s-.06,0-.12.07Z"/><path id="Tracé_46528" data-name="Tracé 46528" class="cls-6" d="M130.5,153h0l-.12,0s.05,0,.12-.06-.08,0,0,0Z"/><path id="Tracé_46529" data-name="Tracé 46529" class="cls-6" d="M128.92,154.05s.16,0,.28-.16l0,.09a.86.86,0,0,0-.13.2c0,.09-.05.2-.08.29s.08-.16,0,0c0,0,0,0,0,0s.07.09,0,.42l-.05.11a2.4,2.4,0,0,0,.7,1.57c.11,0,.3.24.48.28v0c.11,0,.23.15.35.17l.1,0c0,.05-.31-.08-.23,0a2.38,2.38,0,0,0,.6.13.51.51,0,0,0,.3,0s0,0,0,0a1.69,1.69,0,0,1,.45,0,1.42,1.42,0,0,0,.41-.08s.26-.22,0-.11l-.06,0-.06,0h-.1l.17,0c.06,0,.09-.06.07-.07a.67.67,0,0,0,.33-.18c.09-.09.14-.15.07,0l-.17.1a.4.4,0,0,0-.12.1,2.37,2.37,0,0,0,.87-.7v-.12s.15-.12.23-.27,0-.16,0-.14,0,.13-.12.23-.12.16-.08,0l.08-.13a1.12,1.12,0,0,1,0-.13c0-.08.07-.17.1-.26s.08-.33.12-.46a3,3,0,0,0,0,.52,2.09,2.09,0,0,1-.42.95l-.16.21-.2.17-.2.17-.21.14s-.2.06-.16,0-.22.07-.28,0a2.07,2.07,0,0,1-1.51,0c0,.05,0,.05-.12,0l-.27-.13-.39-.3s-.1-.06-.09,0a1.8,1.8,0,0,1,.2.19c-.06,0-.21-.15-.31-.3l.07.05a3.11,3.11,0,0,1-.25-.38,1.79,1.79,0,0,0-.2-.39l.06.22a1.22,1.22,0,0,1-.18-.48c-.06-.17,0-.33-.1-.45a1.5,1.5,0,0,0,0,.37c0,.12.06.2,0,.21a.57.57,0,0,1-.11-.38c0-.13,0-.25,0-.38s0-.23,0-.35a1.09,1.09,0,0,1,0-.18,1,1,0,0,1,.05-.16,1.09,1.09,0,0,1,.14-.31Z"/><path id="Tracé_46530" data-name="Tracé 46530" class="cls-6" d="M128.63,154.74c0,.46.07.23.09.66,0-.05-.06.17,0,.31a3.19,3.19,0,0,0,.16.41c0,.08,0,.09-.1-.06a1.94,1.94,0,0,0-.07-.33l0-.16,0-.17c0-.12,0-.23,0-.34a1.13,1.13,0,0,1,0-.32Z"/><path id="Tracé_46531" data-name="Tracé 46531" class="cls-4" d="M128.9,154.41c-.06.2-.12.1-.13.32,0-.1,0-.12.06-.31v.11Z"/><path id="Tracé_46532" data-name="Tracé 46532" class="cls-6" d="M128.94,156.14c.05.09.09.18.13.27s.09.16.07.18,0,0,0,.07a1.11,1.11,0,0,1-.23-.52Z"/><path id="Tracé_46533" data-name="Tracé 46533" class="cls-4" d="M128.92,155.51a1.72,1.72,0,0,1,.09.25A1.06,1.06,0,0,1,128.92,155.51Z"/><path id="Tracé_46534" data-name="Tracé 46534" class="cls-6" d="M129.11,156.26s.06.1.08.13l0,.07a.37.37,0,0,1-.12-.2Z"/><path id="Tracé_46535" data-name="Tracé 46535" class="cls-6" d="M129.85,157.19c.18.11-.21-.07,0,.06l-.12-.07v-.08l.06.05.07,0Z"/><path id="Tracé_46536" data-name="Tracé 46536" class="cls-6" d="M130.11,157.39l.22.08h-.07s-.07,0-.14-.09Z"/><path id="Tracé_46537" data-name="Tracé 46537" class="cls-6" d="M129.94,157.15c.09,0,.06,0,.11.09S129.85,157.1,129.94,157.15Z"/><path id="Tracé_46538" data-name="Tracé 46538" class="cls-6" d="M130.89,157.14c-.09.05-.24,0-.39-.06l.19,0a.64.64,0,0,0,.2,0Z"/><path id="Tracé_46539" data-name="Tracé 46539" class="cls-6" d="M131.9,152.51a.71.71,0,0,0,.25.06l0,0Z"/><path id="Tracé_46540" data-name="Tracé 46540" class="cls-6" d="M130.62,152.45c-.08.08.08,0,.26,0s.23,0,.35,0l.36,0h.15l-.54-.08A3.85,3.85,0,0,0,130.62,152.45Z"/><path id="Tracé_46541" data-name="Tracé 46541" class="cls-4" d="M130.53,152.75l.47-.1-.32,0-.26.08s.06,0,.11,0Z"/><path id="Tracé_46542" data-name="Tracé 46542" class="cls-6" d="M133.62,153.91c-.08-.15-.16-.3-.26-.45a1.31,1.31,0,0,0-.38-.36,1.76,1.76,0,0,1,.24.3.5.5,0,0,1-.19-.19,2.08,2.08,0,0,0-.21-.21c.12.12-.07,0-.19-.08a2.22,2.22,0,0,0-.44-.25,2.73,2.73,0,0,0-.56-.15l-.39,0c-.14,0-.25,0-.21,0-.22,0-.26,0-.43,0a2,2,0,0,1-.34.12,3.21,3.21,0,0,0-.33.12,1.27,1.27,0,0,0-.61.43c0-.05-.18.17-.25.25s-.4.69-.27.61a1.64,1.64,0,0,0,.16-.29,1.51,1.51,0,0,1,.09-.18.53.53,0,0,1,.13-.13c.16-.14.1-.05,0,.07a.56.56,0,0,0-.15.34c0-.06.08-.06.15-.22-.16.34.13-.09.07.1a3.07,3.07,0,0,1,.26-.25.5.5,0,0,1,.2-.08c.17-.16.09-.17.12-.24a.69.69,0,0,1,.3-.17l.3-.12c-.12.16.36-.05.61,0a.43.43,0,0,0,.22-.06s.07,0,.24,0-.35,0-.13.11h.15a.76.76,0,0,1,.33,0c.07,0,.18,0,.17.07s-.11,0,0,.09h.12c-.1-.12,0-.08.09,0l.21.12a1.18,1.18,0,0,0,.19.11c.28.16.29.27.31.35a1.59,1.59,0,0,0,.21.41c0-.1.06,0,.13.1s.12.33.17.42a.83.83,0,0,1,0,.35,1.05,1.05,0,0,0,0,.19,1.28,1.28,0,0,0,.12-1.11l0,0Z"/><path id="Tracé_46543" data-name="Tracé 46543" class="cls-6" d="M122.06,151.5l-2.24-5,3.51-.64Z"/><path id="Tracé_46544" data-name="Tracé 46544" class="cls-6" d="M123.24,147.2c0-.11.08-.3.1-.26h0c0,.09-.12.48-.13.27Z"/><path id="Tracé_46545" data-name="Tracé 46545" class="cls-4" d="M123.1,147.2c0-.09,0,0,0,0l0,.13S123.09,147.25,123.1,147.2Z"/><path id="Tracé_46546" data-name="Tracé 46546" class="cls-6" d="M122.81,147.07l0,0a.5.5,0,0,0,0-.13s0,.08,0,.15,0-.09,0-.06Z"/><path id="Tracé_46547" data-name="Tracé 46547" class="cls-6" d="M122.66,145.92c0,.05.12.1.28.12l0,.09a2.52,2.52,0,0,0-.55.08c-.07,0,.17,0,0,0s0,0,0,0-.07.1-.43.14h-.13c-.31,0-.62.13-.93.2l-.46.09-.11,0h-.1l0,.05h0l0,.05a.63.63,0,0,0,.07.12l0,0c.08.08.11.27.17.38l0,.12c0,.06-.15-.3-.16-.18s.22.37.27.58a1.28,1.28,0,0,0,.16.28s0-.05,0-.05c.21.43.1.5.28.88,0,0,.21.29.11,0l-.08-.12,0-.1c0,.1.13.3.15.26,0,.17.4.68.14.45a.78.78,0,0,0-.17-.34c.17.4.3.77.44,1.1l.09.08s0,.2.07.36.08.15.09.12-.25-.58-.06-.33a7.94,7.94,0,0,1,.35,1,2.59,2.59,0,0,0-.26-.46c-.33-.59-.59-1.27-.92-1.84,0,0,0-.2,0-.16s-.1-.21-.08-.27c-.24-.44-.47-1-.65-1.41,0,.14-.16-.24-.24-.34a1.85,1.85,0,0,0-.18-.44v0s.07,0,0,0l-.07,0c0,.06,0,.1.07.2a.53.53,0,0,1-.12-.22l.28,0-.07,0a6.79,6.79,0,0,0,.89-.12h-.23a5.68,5.68,0,0,0,.93-.19c-.21,0-.55.13-.56.06s.25-.08.37-.09c.51,0,.87-.24,1.32-.21Z"/><path id="Tracé_46548" data-name="Tracé 46548" class="cls-6" d="M122,145.93c-.41.07-.19.13-.59.2,0,0-.15,0-.29,0l-.39.08c-.07,0-.07,0,.08-.07.38,0,.83-.19,1.19-.19Z"/><path id="Tracé_46549" data-name="Tracé 46549" class="cls-4" d="M122.35,146.06c-.2,0-.14-.05-.34,0,.08-.06.11,0,.3-.06l-.1.05Z"/><path id="Tracé_46550" data-name="Tracé 46550" class="cls-6" d="M120.66,146.25c-.13,0-.44.06-.45,0s0,0-.07,0c.12,0,.46-.06.52,0Z"/><path id="Tracé_46551" data-name="Tracé 46551" class="cls-4" d="M121.27,146.33a1.12,1.12,0,0,1-.26.06A1.22,1.22,0,0,1,121.27,146.33Z"/><path id="Tracé_46552" data-name="Tracé 46552" class="cls-6" d="M120.51,146.37s-.11,0-.15,0h-.08a.59.59,0,0,1,.23,0Z"/><path id="Tracé_46553" data-name="Tracé 46553" class="cls-6" d="M119.88,147c.07.18-.12-.17,0,0l-.06-.13,0-.08.08.17Z"/><path id="Tracé_46554" data-name="Tracé 46554" class="cls-6" d="M120,147.27a.61.61,0,0,1,.09.18l0,0S120,147.34,120,147.27Z"/><path id="Tracé_46555" data-name="Tracé 46555" class="cls-6" d="M120,147c0,.08,0,.08,0,.14S119.92,146.9,120,147Z"/><path id="Tracé_46556" data-name="Tracé 46556" class="cls-6" d="M120.65,147.69a1.72,1.72,0,0,1-.2-.38A2.75,2.75,0,0,1,120.65,147.69Z"/><path id="Tracé_46557" data-name="Tracé 46557" class="cls-6" d="M123,148.55a.47.47,0,0,0,0,.23l0,0Z"/><path id="Tracé_46558" data-name="Tracé 46558" class="cls-6" d="M123.25,147.45c0-.1,0,.05-.11.2s-.07.42-.12.63v.13a6.69,6.69,0,0,0,.23-1Z"/><path id="Tracé_46559" data-name="Tracé 46559" class="cls-4" d="M123,147.23a3.55,3.55,0,0,0-.09.47c0-.2.1-.43.14-.56S123.05,147.19,123,147.23Z"/><path id="Tracé_46560" data-name="Tracé 46560" class="cls-6" d="M122.55,150.55a4.08,4.08,0,0,0,.18-.91c0,.13,0,.13-.11.33,0-.17.08-.32.12-.5,0,.15,0-.06,0-.19s.16-.63.23-1c0-.15.15-.62.07-.56a1.51,1.51,0,0,1,.15-.37,2,2,0,0,1,.17-.63,2.83,2.83,0,0,0,.11-.31,3.22,3.22,0,0,0,.1-.54s.07-.17.12-.35l-.26,0-.38.07-.2,0-.1,0c-.13,0-.22.06-.16.09a.92.92,0,0,0,.29,0,2.82,2.82,0,0,1,.57-.09h.1c0,.06,0,.06,0,0-.16,0-.71.14-.66.18s.1,0,.29,0c-.22,0-.16.06-.11.07s.1,0,0,.06h.16a.48.48,0,0,1-.15.22.5.5,0,0,0,0,.12s0,0,0,.07c0,.26-.15.44-.18.67-.07-.19-.16.35-.22.61s.06.13,0,.48c-.09.17,0-.37-.09-.15l0,.17a1.86,1.86,0,0,1,.05.34c0,.07,0,.18-.06.18,0-.15,0-.11-.09,0a.62.62,0,0,0,0,.13c.18-.28-.06.31-.05.54,0,.63-.2.29-.29.91.14-.17,0,.41,0,.61a1.22,1.22,0,0,1-.14.33.69.69,0,0,0,0,.2,2.33,2.33,0,0,0,.58-.9v0Z"/><path id="Tracé_46561" data-name="Tracé 46561" class="cls-6" d="M132.84,165.88l-2.56-5.59,4-1.15-1.43,6.74Z"/><path id="Tracé_46562" data-name="Tracé 46562" class="cls-4" d="M133.63,162.86c0-.13,0,.08,0,0l0-.29c0,.24.08-.09,0,.29Z"/><path id="Tracé_46563" data-name="Tracé 46563" class="cls-4" d="M133.61,162.4v-.06c0-.07.06-.23,0-.12a1.21,1.21,0,0,0,0,.18Z"/><path id="Tracé_46564" data-name="Tracé 46564" class="cls-6" d="M133.22,162.64l0-.1a1,1,0,0,1,0,.16v-.06Z"/><path id="Tracé_46565" data-name="Tracé 46565" class="cls-6" d="M132,160h-.06s0,0,.14-.09.32-.09.29-.06h0a.57.57,0,0,0,.26,0s-.09,0,0-.07a1.65,1.65,0,0,1,.44-.1l.1-.07a1.57,1.57,0,0,1,.3,0l-.07,0c.06,0,0,0,.2,0l.13-.06.12-.05a.22.22,0,0,0,.14,0,.29.29,0,0,1,0,.09s0,0,0,.06,0,.15-.05.23a1,1,0,0,0-.06.43,2,2,0,0,0-.07.64c-.1.28,0-.4,0-.25-.1.43-.18.9-.28,1.34,0,.12.07-.07,0,.17,0-.08-.05,0-.06.08,0-.09,0,0,0,0l0-.06c.07,0-.08.31-.08.47s0-.08,0-.1-.08,0-.13.26c-.05.42-.18.7-.27,1.16,0,0,0,.12,0,.19,0-.1-.06.08-.09.17s0,.14,0,.31l.07-.11a3.23,3.23,0,0,0,.06-.42c.07-.06.1-.58.16-.51l0,.07a3,3,0,0,0-.06.66,2.3,2.3,0,0,1-.17.39.92.92,0,0,0,0,.29,1.4,1.4,0,0,1-.09.29s0,0,0,0,0,.13-.05.18.1-.24.14-.4a.37.37,0,0,1,0,.11c0,.05,0,0,0,.05v.1s0,0,0,.12l0,.07c-.06.26,0,.4.05.06l0,0,.1-.31s0,.15,0,.16.1-.22.13-.34,0,.07-.07.16v-.19c0-.05,0-.12,0-.11s.05,0,.06-.08c.07-.28,0,0,0-.27a4,4,0,0,0-.2.58l0,.1s0-.17,0,0a3.53,3.53,0,0,1,.25-.84s.1-.21.1,0a1.83,1.83,0,0,0,.08-.25,7.2,7.2,0,0,1,.16-.78s0,0,0,0c.11-.41.1.15.2-.42,0-.1,0-.16,0-.13a1,1,0,0,0-.08.25s-.05.19-.05.07,0-.39.1-.6v-.07a2.57,2.57,0,0,1,.08-.4c.08-.32,0,0,.06,0l.07-.27c0-.32.17-.5.17-.77v0c0,.16.06,0,.08-.14v-.09a5.34,5.34,0,0,1,.13-.8s0-.07,0,0l.08-.29c0-.07.06-.27.1-.52a2.43,2.43,0,0,0,0-.27l-.09,0a6.25,6.25,0,0,0-.62.16,2.11,2.11,0,0,1-.48.12c-.05.06-.26.13-.08.13-.38.08-.72.13-1.08.22l-.07,0c-.06.11-.39.39,0,.32Z"/><path id="Tracé_46566" data-name="Tracé 46566" class="cls-6" d="M132.68,165.36l0-.16v0c0,.06,0,.06,0,.14Z"/><path id="Tracé_46567" data-name="Tracé 46567" class="cls-4" d="M130.58,161.76c.08.14.19.29.16.19s-.18-.33-.25-.53c0,0,.07.26.09.34Z"/><path id="Tracé_46568" data-name="Tracé 46568" class="cls-6" d="M133.77,162.34l0-.23,0,0C133.72,162.34,133.79,162.21,133.77,162.34Z"/><path id="Tracé_46569" data-name="Tracé 46569" class="cls-4" d="M131.24,162.36s0,0,0-.06l-.09-.13s.09.25.09.19Z"/><path id="Tracé_46570" data-name="Tracé 46570" class="cls-4" d="M131.53,162.83l0,0a1.74,1.74,0,0,1-.11-.18A1.87,1.87,0,0,0,131.53,162.83Z"/><path id="Tracé_46571" data-name="Tracé 46571" class="cls-4" d="M131.07,161.8c.07.28.19.26.23.5s.15.2.15.1,0,0-.15-.16a.8.8,0,0,1-.09-.3c-.14-.32-.05,0-.14-.14Z"/><path id="Tracé_46572" data-name="Tracé 46572" class="cls-4" d="M131.64,162.78l-.06-.14v.09l.06.05Z"/><path id="Tracé_46573" data-name="Tracé 46573" class="cls-4" d="M131.2,161.74l-.07-.12.1.22,0-.11Z"/><path id="Tracé_46574" data-name="Tracé 46574" class="cls-4" d="M131.43,162l-.05-.1c0-.06-.08-.1-.06,0s.08.09.11.13Z"/><path id="Tracé_46575" data-name="Tracé 46575" class="cls-6" d="M130.93,160.08l-.33,0-.51.09.12.33.12.32.16.24.08.28a3.59,3.59,0,0,0,.4.72s0,0,0,.1.14.29.2.37a.91.91,0,0,1,0,.23c.15.25.24.62.4.86,0,.15.22.37.22.54a2,2,0,0,0,.36.65s-.09-.07,0,0a.43.43,0,0,0,0,.07,1.77,1.77,0,0,0,.15.31l0,0c-.08-.31.35.25.52.44l.06.09a3.79,3.79,0,0,0-.18-.42c0,.06-.1-.18-.06,0l0,.07.06.17a6,6,0,0,0-.3-.56,1.87,1.87,0,0,1-.08-.34,5.63,5.63,0,0,0-.36-.79.89.89,0,0,1-.12-.42,3.35,3.35,0,0,0-.2-.37,1.25,1.25,0,0,1-.07-.43.61.61,0,0,0-.16-.28c-.14-.34.11,0-.06-.35a.78.78,0,0,0-.2-.31c-.06-.18-.18-.39-.21-.52a1.35,1.35,0,0,1-.22-.43l-.1-.24c0-.05,0,0,0,0l0,0s0,0,0,0l0,0h0l.05,0,.4-.16c.06-.09,0-.15-.22-.15Z"/><path id="Tracé_46576" data-name="Tracé 46576" class="cls-5" d="M134.46,152.42l-.2-6.54,4.75.72-4.55,5.82Z"/><path id="Tracé_46577" data-name="Tracé 46577" class="cls-5" d="M138.09,148.11c.08-.12.24-.3.24-.25l0,0c-.08.1-.39.5-.28.27Z"/><path id="Tracé_46578" data-name="Tracé 46578" class="cls-4" d="M138,148c.09-.09,0,0,0,0l-.1.13S137.91,148.1,138,148Z"/><path id="Tracé_46579" data-name="Tracé 46579" class="cls-5" d="M137.76,147.8l0,0,.12-.12a.33.33,0,0,1-.1.16s.06-.1,0-.07Z"/><path id="Tracé_46580" data-name="Tracé 46580" class="cls-5" d="M138.28,146.4c-.05,0,.12.14.28.21l-.07.07a4.16,4.16,0,0,0-.69-.12c-.1,0,.21.06,0,0,0,0,0,0-.05,0a1.56,1.56,0,0,1-.57,0l-.15-.06c-.78-.12-1.61-.18-2.35-.33h-.14s0,0,0,.05h0a2.34,2.34,0,0,1,0,.53v.15c0,.06,0-.43-.09-.29,0,.32.07.54,0,.81a1.33,1.33,0,0,0,0,.4c0,.05,0-.05.05,0,0,.6-.09.63-.06,1.15,0,0,.08.44.1,0l0-.19,0-.12c0,.14,0,.41,0,.37-.09.2.11,1,0,.6a1.29,1.29,0,0,0,0-.48c0,.56,0,1.05,0,1.51l0,.13s-.06.23-.06.45,0,.22,0,.19,0-.8.07-.41a10.63,10.63,0,0,1-.07,1.38,3,3,0,0,0-.07-.66c-.08-.85-.06-1.78-.15-2.6,0,0,0-.25.06-.19s0-.29,0-.34c-.06-.64-.06-1.4-.08-2-.06.17,0-.34-.09-.51a1,1,0,0,0,0-.24l.34.05s.14,0,.11,0l-.37-.07a.46.46,0,0,1,.25,0l.31.07h-.11a10.16,10.16,0,0,0,1.1.21l-.27-.1c.4.08.79.13,1.19.17-.26-.06-.71-.09-.69-.15a1.07,1.07,0,0,1,.47,0c.63.16,1.14.09,1.67.27Z"/><path id="Tracé_46581" data-name="Tracé 46581" class="cls-5" d="M137.44,146.16c-.53-.08-.28.05-.78,0,.06,0-.18-.09-.34-.12a4,4,0,0,1-.5-.07c-.1,0-.08-.06.11,0,.46.15,1.07.12,1.5.26Z"/><path id="Tracé_46582" data-name="Tracé 46582" class="cls-4" d="M137.86,146.43c-.26,0-.15-.1-.41-.12.11,0,.14,0,.38.05h-.14l.17.06Z"/><path id="Tracé_46583" data-name="Tracé 46583" class="cls-5" d="M135.75,146a1.73,1.73,0,0,1-.55-.15s0,0-.07,0a2.31,2.31,0,0,1,.62.18Z"/><path id="Tracé_46584" data-name="Tracé 46584" class="cls-4" d="M136.46,146.29a2.43,2.43,0,0,1-.33,0A1.24,1.24,0,0,1,136.46,146.29Z"/><path id="Tracé_46585" data-name="Tracé 46585" class="cls-5" d="M135.52,146.05s-.14,0-.19,0l-.1,0a1,1,0,0,1,.29.05Z"/><path id="Tracé_46586" data-name="Tracé 46586" class="cls-5" d="M134.14,146c0,.18,0,.08,0,0s0-.2,0,0l0-.28s0,0,0-.05l0,0h0V146Z"/><path id="Tracé_46587" data-name="Tracé 46587" class="cls-5" d="M134.1,146.45a1.1,1.1,0,0,1,0,.26l0-.07s0-.1,0-.2Z"/><path id="Tracé_46588" data-name="Tracé 46588" class="cls-5" d="M134.22,146.11c0,.14,0,.11,0,.2S134.21,146,134.22,146.11Z"/><path id="Tracé_46589" data-name="Tracé 46589" class="cls-5" d="M134.59,147.29a3.41,3.41,0,0,1-.05-.55A3.31,3.31,0,0,1,134.59,147.29Z"/><path id="Tracé_46590" data-name="Tracé 46590" class="cls-5" d="M137,149.51a1.37,1.37,0,0,0-.17.23l0,0,.12-.2Z"/><path id="Tracé_46591" data-name="Tracé 46591" class="cls-5" d="M138,148.38c0-.12-.07,0-.22.18s-.31.45-.48.66l-.07.14c.27-.31.53-.64.78-1Z"/><path id="Tracé_46592" data-name="Tracé 46592" class="cls-4" d="M137.87,148.06a3.27,3.27,0,0,0-.35.48c.15-.19.35-.43.45-.57s-.06.05-.1.09Z"/><path id="Tracé_46593" data-name="Tracé 46593" class="cls-5" d="M135.48,151.55a6.37,6.37,0,0,0,.7-.94c-.11.13-.13.12-.3.33.07-.2.26-.32.41-.51-.13.14,0-.08.1-.21s.51-.64.78-1c.1-.16.5-.62.4-.59a2.32,2.32,0,0,1,.35-.35,3,3,0,0,1,.53-.63,2.68,2.68,0,0,0,.28-.3,5,5,0,0,0,.34-.46s.25-.27.43-.49l-.14,0-.48-.08-.27,0-.15,0c-.18,0-.3,0-.24,0a1.34,1.34,0,0,0,.39.07,4.16,4.16,0,0,1,.72.12h0c-.26.28-.2.19-.09,0a2.92,2.92,0,0,0-.72-.06l.12,0a.69.69,0,0,0,.24.05c-.28,0-.22,0-.16,0s.1.06,0,.06l.14,0a.57.57,0,0,1-.3.21c-.18.26-.08.22-.11.32-.17.27-.4.43-.56.67.05-.24-.36.32-.56.59s0,.17-.31.53c-.18.15.24-.41,0-.2l-.12.18a2.62,2.62,0,0,1-.15.39.92.92,0,0,1-.16.19c.1-.16,0-.14-.1,0a.52.52,0,0,0-.07.15c.33-.24-.24.32-.36.58-.42.68-.36.25-.81.89.23-.13-.27.44-.4.67a1.62,1.62,0,0,1-.33.31,1.67,1.67,0,0,0-.12.23,3.31,3.31,0,0,0,1.07-.79l0,0Z"/><path id="Tracé_46594" data-name="Tracé 46594" class="cls-5" d="M116.52,147.68s-.25,0,.13-.12c1.19-.34,2.18-.43,3.38-.71l.08-.07,1.44-.23,1.49-.18a42.69,42.69,0,0,1,5.52-.48s-.07,0,.11,0H130c.49,0,1,.06,1.57.12l.47.05a.52.52,0,0,0,.18,0c.49.05.93.13,1.34.19,1.34.18,2.69.4,4,.7a17.21,17.21,0,0,1,3.84,1.3,5.46,5.46,0,0,1,1.55,1.14,2.23,2.23,0,0,1,.62,1.62,3.89,3.89,0,0,1-.68,1.82,9,9,0,0,1-1.4,1.62,14.1,14.1,0,0,1-3.07,2.06,32.92,32.92,0,0,1-5.51,2.06c.16.07-.8.41-1.69.73s-1.73.55-1.29.56c-.58.14-1.32.25-1.91.38a10.23,10.23,0,0,0-1.1.23c-.25.19-1.12.62-4.34.9-.63,0,.43.13-.27.1.47-.08,0,0-.23,0,.91.05.7,0,0,0a17,17,0,0,0,4.77-.33,46.8,46.8,0,0,0,6.73-1.52,35.78,35.78,0,0,0,6.45-2.63,17.2,17.2,0,0,0,1.53-1l.38-.26.36-.31.36-.32c.12-.11.22-.22.33-.33a9.84,9.84,0,0,0,1.17-1.49,5.25,5.25,0,0,0,.76-1.94,3.62,3.62,0,0,0,0-1,3.44,3.44,0,0,0-.56-1.42,5.34,5.34,0,0,0-1.24-1.27,10.34,10.34,0,0,0-1.68-1,32.39,32.39,0,0,0-8.78-2.13,37.76,37.76,0,0,0-9.44.17c-2.82.38-5.14.92-6.48,1.22l-.48.13a68.43,68.43,0,0,0-8.75,2.78c-1.07.44-2.15.92-3.22,1.41.52-.18,1-.33,1.42-.46-1.12.43-2.22.88-2.63,1.09-2.31,1.08-.94.6,0,.35.67-.21-.17.23.87-.13l-1.83.76c-.06.08,2.24-1,1.76-.67-.71.27-1.48.63-2.2,1,.27-.05,2.53-1.05,2.45-.92a19.06,19.06,0,0,0-2.19.91s.7-.28,1.07-.44c-2.23,1-3.4,1.64-1.34.82-.7.31-1.71.73-2.42,1.09h0l1.34-.61-1.25.59.24-.07,1-.42-.83.38.75-.25c1-.4,2-.73,2.55-1A99.17,99.17,0,0,1,116.52,147.68Z"/><path id="Tracé_46595" data-name="Tracé 46595" class="cls-7" d="M116.52,147.68s-.25,0,.13-.12c1.19-.34,2.18-.43,3.38-.71l.08-.07,1.44-.23,1.49-.18a42.69,42.69,0,0,1,5.52-.48s-.07,0,.11,0H130c.49,0,1,.06,1.57.12l.47.05a.52.52,0,0,0,.18,0c.49.05.93.13,1.34.19,1.34.18,2.69.4,4,.7a17.21,17.21,0,0,1,3.84,1.3,5.46,5.46,0,0,1,1.55,1.14,2.23,2.23,0,0,1,.62,1.62,3.89,3.89,0,0,1-.68,1.82,9,9,0,0,1-1.4,1.62,14.1,14.1,0,0,1-3.07,2.06,32.92,32.92,0,0,1-5.51,2.06c.16.07-.8.41-1.69.73s-1.73.55-1.29.56c-.58.14-1.32.25-1.91.38a10.23,10.23,0,0,0-1.1.23c-.25.19-1.12.62-4.34.9-.63,0,.43.13-.27.1.47-.08,0,0-.23,0,.91.05.7,0,0,0a17,17,0,0,0,4.77-.33,46.8,46.8,0,0,0,6.73-1.52,35.78,35.78,0,0,0,6.45-2.63,17.2,17.2,0,0,0,1.53-1l.38-.26.36-.31.36-.32c.12-.11.22-.22.33-.33a9.84,9.84,0,0,0,1.17-1.49,5.25,5.25,0,0,0,.76-1.94,3.62,3.62,0,0,0,0-1,3.44,3.44,0,0,0-.56-1.42,5.34,5.34,0,0,0-1.24-1.27,10.34,10.34,0,0,0-1.68-1,32.39,32.39,0,0,0-8.78-2.13,37.76,37.76,0,0,0-9.44.17c-2.82.38-5.14.92-6.48,1.22l-.48.13a68.43,68.43,0,0,0-8.75,2.78c-1.07.44-2.15.92-3.22,1.41.52-.18,1-.33,1.42-.46-1.12.43-2.22.88-2.63,1.09-2.31,1.08-.94.6,0,.35.67-.21-.17.23.87-.13l-1.83.76c-.06.08,2.24-1,1.76-.67-.71.27-1.48.63-2.2,1,.27-.05,2.53-1.05,2.45-.92a19.06,19.06,0,0,0-2.19.91s.7-.28,1.07-.44c-2.23,1-3.4,1.64-1.34.82-.7.31-1.71.73-2.42,1.09h0l1.34-.61-1.25.59.24-.07,1-.42-.83.38.75-.25c1-.4,2-.73,2.55-1A99.17,99.17,0,0,1,116.52,147.68Z"/></g></g><g class="cls-8"><path id="Tracé_49200" data-name="Tracé 49200" class="cls-9" d="M69.37,68.6h-11a1.5,1.5,0,0,1,0-3h11a1.5,1.5,0,0,1,0,3Z"/><path id="Tracé_49200-2" data-name="Tracé 49200" class="cls-9" d="M103.19,93.45h-11a1.5,1.5,0,0,1,0-3h11a1.5,1.5,0,0,1,0,3Z"/><path id="Tracé_49200-3" data-name="Tracé 49200" class="cls-9" d="M158.15,96.45h-11a1.5,1.5,0,0,1,0-3h11a1.5,1.5,0,0,1,0,3Z"/><path id="Tracé_49200-4" data-name="Tracé 49200" class="cls-9" d="M191,72.06h-11a1.5,1.5,0,0,1,0-3h11a1.5,1.5,0,0,1,0,3Z"/><path id="Tracé_49200-5" data-name="Tracé 49200" class="cls-9" d="M122.63,216.53h-11a1.5,1.5,0,0,1,0-3h11a1.5,1.5,0,0,1,0,3Z"/><path id="Tracé_49200-6" data-name="Tracé 49200" class="cls-9" d="M202.52,47.66h-11a1.5,1.5,0,0,1,0-3h11a1.5,1.5,0,0,1,0,3Z"/><path id="Tracé_49200-7" data-name="Tracé 49200" class="cls-9" d="M209.53,116.9h-11a1.5,1.5,0,0,1,0-3h11a1.5,1.5,0,0,1,0,3Z"/><path id="Tracé_49200-8" data-name="Tracé 49200" class="cls-9" d="M215.21,190.84h-11a1.5,1.5,0,0,1,0-3h11a1.5,1.5,0,0,1,0,3Z"/><path id="Tracé_49200-9" data-name="Tracé 49200" class="cls-9" d="M85.44,34.44h-11a1.5,1.5,0,0,1,0-3h11a1.5,1.5,0,1,1,0,3Z"/><path id="Tracé_49200-10" data-name="Tracé 49200" class="cls-9" d="M134.52,16.38h-11a1.5,1.5,0,0,1,0-3h11a1.5,1.5,0,1,1,0,3Z"/><path id="Tracé_49200-11" data-name="Tracé 49200" class="cls-9" d="M63.12,207.34h-11a1.5,1.5,0,0,1,0-3h11a1.5,1.5,0,1,1,0,3Z"/><path id="Tracé_49200-12" data-name="Tracé 49200" class="cls-9" d="M161,208.84H150a1.5,1.5,0,0,1,0-3h11a1.5,1.5,0,0,1,0,3Z"/><path id="Tracé_49200-13" data-name="Tracé 49200" class="cls-9" d="M164.18,26h-11a1.5,1.5,0,0,1,0-3h11a1.5,1.5,0,0,1,0,3Z"/><path id="Tracé_49200-14" data-name="Tracé 49200" class="cls-9" d="M240.12,141.64h-11a1.5,1.5,0,0,1,0-3h11a1.5,1.5,0,0,1,0,3Z"/><path id="Tracé_49200-15" data-name="Tracé 49200" class="cls-9" d="M21.74,126h-11a1.5,1.5,0,0,1,0-3h11a1.5,1.5,0,1,1,0,3Z"/><path id="Tracé_49200-16" data-name="Tracé 49200" class="cls-9" d="M44.41,154.48h-11a1.5,1.5,0,0,1,0-3h11a1.5,1.5,0,0,1,0,3Z"/><path id="Tracé_49200-17" data-name="Tracé 49200" class="cls-9" d="M139.33,242.68h-11a1.5,1.5,0,0,1,0-3h11a1.5,1.5,0,0,1,0,3Z"/><circle class="cls-9" cx="93.14" cy="231.43" r="2.48"/><circle class="cls-9" cx="117.12" cy="36.91" r="2.48"/><circle class="cls-9" cx="211.03" cy="155.63" r="2.48"/><circle class="cls-9" cx="222.77" cy="84.78" r="2.48"/><circle class="cls-9" cx="173.32" cy="225.96" r="2.48"/><circle class="cls-9" cx="29.41" cy="79.66" r="2.48"/><circle class="cls-9" cx="152.64" cy="50.14" r="2.48"/><circle class="cls-9" cx="119.59" cy="67.1" r="2.48"/><circle class="cls-9" cx="29.41" cy="180.67" r="2.48"/><circle class="cls-9" cx="49.15" cy="111.91" r="2.48"/></g></svg>