<svg id="Calque_1" data-name="Calque 1" xmlns="http://www.w3.org/2000/svg" viewBox="0 0 180 180"><defs><style>.cls-1,.cls-4,.cls-6{fill:#702963;}.cls-1{opacity:0.1;}.cls-2{fill:#d31744;opacity:0.33;}.cls-3{fill:none;stroke:#d31744;stroke-miterlimit:10;stroke-width:2.5px;}.cls-4,.cls-5{opacity:0.2;}</style></defs><title>19_BIBLE_ICONE</title><circle class="cls-1" cx="89.98" cy="90.02" r="89.98"/><path class="cls-2" d="M119.43,52.75A37.16,37.16,0,0,0,90,67.17a37.28,37.28,0,1,0,0,45.69,37.27,37.27,0,1,0,29.44-60.11Zm-58.9,58.89A21.63,21.63,0,1,1,82.16,90,21.63,21.63,0,0,1,60.53,111.64Zm58.9,0A21.63,21.63,0,1,1,141.06,90,21.62,21.62,0,0,1,119.43,111.64Z"/><path class="cls-3" d="M119.43,52.75A37.16,37.16,0,0,0,90,67.17a37.28,37.28,0,1,0,0,45.69,37.27,37.27,0,1,0,29.44-60.11Zm-58.9,58.89A21.63,21.63,0,1,1,82.16,90,21.63,21.63,0,0,1,60.53,111.64Zm58.9,0A21.63,21.63,0,1,1,141.06,90,21.62,21.62,0,0,1,119.43,111.64Z"/><path id="Tracé_49200" data-name="Tracé 49200" class="cls-4" d="M130,163.54H122.1a1.07,1.07,0,0,1,0-2.14H130a1.07,1.07,0,0,1,0,2.14Z"/><g class="cls-5"><path id="Tracé_49200-2" data-name="Tracé 49200" class="cls-6" d="M128.56,86.34h-7.87a1.08,1.08,0,1,1,0-2.15h7.87a1.08,1.08,0,0,1,0,2.15Z"/><path id="Tracé_49200-3" data-name="Tracé 49200" class="cls-6" d="M95.35,134.18H87.48a1.07,1.07,0,1,1,0-2.14h7.87a1.07,1.07,0,0,1,0,2.14Z"/><path id="Tracé_49200-4" data-name="Tracé 49200" class="cls-6" d="M23.11,123.89H15.23a1.07,1.07,0,1,1,0-2.14h7.88a1.07,1.07,0,0,1,0,2.14Z"/><path id="Tracé_49200-5" data-name="Tracé 49200" class="cls-6" d="M98.41,154.67H90.54a1.07,1.07,0,0,1,0-2.14h7.87a1.07,1.07,0,1,1,0,2.14Z"/><path id="Tracé_49200-6" data-name="Tracé 49200" class="cls-6" d="M50.42,38.37H42.55a1.07,1.07,0,1,1,0-2.14h7.87a1.07,1.07,0,0,1,0,2.14Z"/><path id="Tracé_49200-7" data-name="Tracé 49200" class="cls-6" d="M119,46.75h-7.87a1.07,1.07,0,0,1,0-2.14H119a1.07,1.07,0,0,1,0,2.14Z"/><path id="Tracé_49200-8" data-name="Tracé 49200" class="cls-6" d="M62.67,145.21H54.8a1.07,1.07,0,1,1,0-2.14h7.87a1.07,1.07,0,1,1,0,2.14Z"/><path id="Tracé_49200-9" data-name="Tracé 49200" class="cls-6" d="M67,163.54H59.1a1.07,1.07,0,0,1,0-2.14H67a1.07,1.07,0,0,1,0,2.14Z"/><path id="Tracé_49200-10" data-name="Tracé 49200" class="cls-6" d="M103.74,34.24H95.86a1.08,1.08,0,0,1,0-2.15h7.88a1.08,1.08,0,0,1,0,2.15Z"/><path id="Tracé_49200-11" data-name="Tracé 49200" class="cls-6" d="M77,18.63H69.12a1.07,1.07,0,0,1,0-2.14H77a1.07,1.07,0,1,1,0,2.14Z"/><path id="Tracé_49200-12" data-name="Tracé 49200" class="cls-6" d="M28.12,56.92H20.24a1.07,1.07,0,1,1,0-2.14h7.88a1.07,1.07,0,0,1,0,2.14Z"/><path id="Tracé_49200-13" data-name="Tracé 49200" class="cls-6" d="M164.66,62.58h-7.88a1.07,1.07,0,1,1,0-2.14h7.88a1.07,1.07,0,0,1,0,2.14Z"/><path id="Tracé_49200-14" data-name="Tracé 49200" class="cls-6" d="M139.32,31.59h-7.88a1.07,1.07,0,1,1,0-2.14h7.88a1.07,1.07,0,0,1,0,2.14Z"/><path id="Tracé_49200-15" data-name="Tracé 49200" class="cls-6" d="M165.65,121.2h-7.88a1.07,1.07,0,0,1,0-2.14h7.88a1.07,1.07,0,1,1,0,2.14Z"/><path id="Tracé_49200-16" data-name="Tracé 49200" class="cls-6" d="M151.88,142.56H144a1.07,1.07,0,0,1,0-2.14h7.88a1.07,1.07,0,0,1,0,2.14Z"/><path id="Tracé_49200-17" data-name="Tracé 49200" class="cls-6" d="M64.47,97.8H56.59a1.07,1.07,0,0,1,0-2.14h7.88a1.07,1.07,0,0,1,0,2.14Z"/><circle class="cls-6" cx="141.16" cy="48.5" r="1.77"/><circle class="cls-6" cx="14.39" cy="98.54" r="1.77"/><circle class="cls-6" cx="36.44" cy="139.72" r="1.77"/><circle class="cls-6" cx="124.62" cy="142.67" r="1.77"/><circle class="cls-6" cx="120.11" cy="99.57" r="1.77"/><circle class="cls-6" cx="53.72" cy="81.5" r="1.77"/><circle class="cls-6" cx="98.77" cy="169.43" r="1.77"/><circle class="cls-6" cx="170.86" cy="95.66" r="1.77"/><circle class="cls-6" cx="108.71" cy="17.56" r="1.77"/><circle class="cls-6" cx="78.06" cy="40.14" r="1.77"/></g></svg>