<svg id="Calque_1" data-name="Calque 1" xmlns="http://www.w3.org/2000/svg" viewBox="0 0 252.97 252.69"><defs><style>.cls-1,.cls-3{fill:#702963;}.cls-1{opacity:0.1;isolation:isolate;}.cls-2{opacity:0.2;}</style></defs><g id="cercle_trait" data-name="cercle trait"><circle id="cercle_fond" data-name="cercle fond" class="cls-1" cx="126.49" cy="126.76" r="126"/><g id="Point_tiret" data-name="Point tiret" class="cls-2"><path id="Tracé_49200" data-name="Tracé 49200" class="cls-3" d="M62.11,67.7h-11a1.5,1.5,0,0,1,0-3h11a1.5,1.5,0,0,1,0,3Z"/><path id="Tracé_49200-2" data-name="Tracé 49200-2" class="cls-3" d="M187,79.46H176a1.5,1.5,0,0,1,0-3h11a1.5,1.5,0,0,1,0,3Z"/><path id="Tracé_49200-3" data-name="Tracé 49200-3" class="cls-3" d="M118.69,223.94h-11a1.5,1.5,0,0,1,0-3h11a1.5,1.5,0,0,1,0,3Z"/><path id="Tracé_49200-4" data-name="Tracé 49200-4" class="cls-3" d="M198.57,55.07h-11a1.5,1.5,0,0,1,0-3h11a1.5,1.5,0,0,1,0,3Z"/><path id="Tracé_49200-5" data-name="Tracé 49200-5" class="cls-3" d="M205.59,124.31h-11a1.5,1.5,0,0,1,0-3h11a1.5,1.5,0,0,1,0,3Z"/><path id="Tracé_49200-6" data-name="Tracé 49200-6" class="cls-3" d="M201.9,187.61h-11a1.5,1.5,0,0,1,0-3h11a1.5,1.5,0,0,1,0,3Z"/><path id="Tracé_49200-7" data-name="Tracé 49200-7" class="cls-3" d="M81.49,41.85h-11a1.5,1.5,0,0,1,0-3h11a1.5,1.5,0,0,1,0,3Z"/><path id="Tracé_49200-8" data-name="Tracé 49200-8" class="cls-3" d="M130.58,23.79h-11a1.5,1.5,0,0,1,0-3h11a1.5,1.5,0,0,1,0,3Z"/><path id="Tracé_49200-9" data-name="Tracé 49200-9" class="cls-3" d="M55.09,203.45h-11a1.5,1.5,0,1,1,0-3h11a1.5,1.5,0,0,1,0,3Z"/><path id="Tracé_49200-10" data-name="Tracé 49200-10" class="cls-3" d="M173.63,214.75h-11a1.5,1.5,0,0,1,0-3h11a1.5,1.5,0,0,1,0,3Z"/><path id="Tracé_49200-11" data-name="Tracé 49200-11" class="cls-3" d="M160.23,33.45h-11a1.5,1.5,0,1,1,0-3h11a1.5,1.5,0,0,1,0,3Z"/><path id="Tracé_49200-12" data-name="Tracé 49200-12" class="cls-3" d="M243.19,132.26h-11a1.5,1.5,0,1,1,0-3h11a1.5,1.5,0,0,1,0,3Z"/><path id="Tracé_49200-13" data-name="Tracé 49200-13" class="cls-3" d="M55.09,111.52h-11a1.5,1.5,0,0,1,0-3h11a1.5,1.5,0,1,1,0,3Z"/><path id="Tracé_49200-14" data-name="Tracé 49200-14" class="cls-3" d="M28.5,130.76h-11a1.5,1.5,0,1,1,0-3h11a1.5,1.5,0,1,1,0,3Z"/><path id="Tracé_49200-15" data-name="Tracé 49200-15" class="cls-3" d="M157.59,238.39h-11a1.5,1.5,0,0,1,0-3h11a1.5,1.5,0,1,1,0,3Z"/><circle id="Ellipse_2555" data-name="Ellipse 2555" class="cls-3" cx="85.47" cy="214.75" r="2.48"/><circle id="Ellipse_2556" data-name="Ellipse 2556" class="cls-3" cx="113.17" cy="44.32" r="2.48"/><circle id="Ellipse_2557" data-name="Ellipse 2557" class="cls-3" cx="228.18" cy="171.01" r="2.48"/><circle id="Ellipse_2558" data-name="Ellipse 2558" class="cls-3" cx="218.82" cy="92.18" r="2.48"/><circle id="Ellipse_2559" data-name="Ellipse 2559" class="cls-3" cx="195.53" cy="212.27" r="2.48"/><circle id="Ellipse_2560" data-name="Ellipse 2560" class="cls-3" cx="25.46" cy="87.06" r="2.48"/><circle id="Ellipse_2561" data-name="Ellipse 2561" class="cls-3" cx="146.22" cy="76.99" r="2.48"/><circle id="Ellipse_2562" data-name="Ellipse 2562" class="cls-3" cx="59.07" cy="175.08" r="2.48"/><circle id="Ellipse_2563" data-name="Ellipse 2563" class="cls-3" cx="82.99" cy="79.46" r="2.48"/></g></g></svg>