<svg id="Calque_1" data-name="Calque 1" xmlns="http://www.w3.org/2000/svg" viewBox="0 0 252.97 252.69"><defs><style>.cls-1,.cls-4{fill:#702963;}.cls-1{opacity:0.1;}.cls-2{fill:none;stroke:#fbb03b;stroke-linecap:round;stroke-miterlimit:10;stroke-width:3.5px;}.cls-3{opacity:0.2;}</style></defs><circle class="cls-1" cx="126.97" cy="126.76" r="126"/><path class="cls-2" d="M163.75,110.56s4.59,30.54-2.52,58.33"/><path class="cls-2" d="M109.55,124.89s1.13-16.86,15-16,14.24,17.22,12.75,25.95"/><path class="cls-2" d="M123.55,123s5,38.59-14.32,66.94"/><path class="cls-2" d="M109.23,144.09s-1.63,33-15,40.88"/><path class="cls-2" d="M91.06,165.1S86.7,175.78,82.22,178"/><path class="cls-2" d="M85,108.81S80.73,117,82,139.5s-9.88,28.82-9.88,28.82"/><path class="cls-2" d="M68.56,132.26s.45,20.1-4.6,25"/><path class="cls-2" d="M67.29,82.19S48.8,104,56.61,138.56"/><path class="cls-2" d="M74.53,74.39s30.43-31.12,70-16.88"/><path class="cls-2" d="M161.23,64.63s43.52,29.74,28.82,75.67"/><path class="cls-2" d="M178.34,116.53s3.1,19.29-2.07,50.18"/><path class="cls-2" d="M176.27,105.05s-10.8-32.73-43.64-36.75"/><path class="cls-2" d="M115.29,68.3s-45.45,6.23-46.72,52"/><path class="cls-2" d="M89.11,99.88s25.26-39.27,65.45-5"/><path class="cls-2" d="M126.89,95.52s35.48-2.76,22.85,61.78"/><path class="cls-2" d="M115.29,96.09s-20.21,9-19.75,26.87,0,23.08,0,23.08"/><path class="cls-2" d="M136.77,147.88s-.23,23-12.64,44"/><path class="cls-2" d="M145.49,175.44s-1,8.45-4.71,14.45"/><line class="cls-2" x1="158.7" y1="179.46" x2="156.75" y2="184.97"/><g class="cls-3"><path id="Tracé_49200" data-name="Tracé 49200" class="cls-4" d="M56.81,59h-11a1.5,1.5,0,0,1,0-3h11a1.5,1.5,0,0,1,0,3Z"/><path id="Tracé_49200-2" data-name="Tracé 49200" class="cls-4" d="M201.42,75.89h-11a1.5,1.5,0,0,1,0-3h11a1.5,1.5,0,0,1,0,3Z"/><path id="Tracé_49200-3" data-name="Tracé 49200" class="cls-4" d="M120,225.57H109a1.5,1.5,0,1,1,0-3h11a1.5,1.5,0,0,1,0,3Z"/><path id="Tracé_49200-4" data-name="Tracé 49200" class="cls-4" d="M199.89,56.7h-11a1.5,1.5,0,0,1,0-3h11a1.5,1.5,0,0,1,0,3Z"/><path id="Tracé_49200-5" data-name="Tracé 49200" class="cls-4" d="M214.92,127.21h-11a1.5,1.5,0,0,1,0-3h11a1.5,1.5,0,0,1,0,3Z"/><path id="Tracé_49200-6" data-name="Tracé 49200" class="cls-4" d="M212.58,199.88h-11a1.5,1.5,0,0,1,0-3h11a1.5,1.5,0,1,1,0,3Z"/><path id="Tracé_49200-7" data-name="Tracé 49200" class="cls-4" d="M82.81,43.47h-11a1.5,1.5,0,0,1,0-3h11a1.5,1.5,0,0,1,0,3Z"/><path id="Tracé_49200-8" data-name="Tracé 49200" class="cls-4" d="M131.89,25.42h-11a1.5,1.5,0,0,1,0-3h11a1.5,1.5,0,0,1,0,3Z"/><path id="Tracé_49200-9" data-name="Tracé 49200" class="cls-4" d="M60.49,216.38h-11a1.5,1.5,0,1,1,0-3h11a1.5,1.5,0,1,1,0,3Z"/><path id="Tracé_49200-10" data-name="Tracé 49200" class="cls-4" d="M158.37,217.88h-11a1.5,1.5,0,0,1,0-3h11a1.5,1.5,0,0,1,0,3Z"/><path id="Tracé_49200-11" data-name="Tracé 49200" class="cls-4" d="M161.55,35.08h-11a1.5,1.5,0,0,1,0-3h11a1.5,1.5,0,0,1,0,3Z"/><path id="Tracé_49200-12" data-name="Tracé 49200" class="cls-4" d="M238.87,140.06h-11a1.5,1.5,0,1,1,0-3h11a1.5,1.5,0,0,1,0,3Z"/><path id="Tracé_49200-13" data-name="Tracé 49200" class="cls-4" d="M25.14,137.79h-11a1.5,1.5,0,1,1,0-3h11a1.5,1.5,0,1,1,0,3Z"/><path id="Tracé_49200-14" data-name="Tracé 49200" class="cls-4" d="M41.78,163.52h-11a1.5,1.5,0,1,1,0-3h11a1.5,1.5,0,0,1,0,3Z"/><path id="Tracé_49200-15" data-name="Tracé 49200" class="cls-4" d="M66.15,193.36h-11a1.5,1.5,0,0,1,0-3h11a1.5,1.5,0,0,1,0,3Z"/><circle class="cls-4" cx="89.11" cy="237.47" r="2.48"/><circle class="cls-4" cx="110.3" cy="37.56" r="2.48"/><circle class="cls-4" cx="220.14" cy="167.61" r="2.48"/><circle class="cls-4" cx="220.14" cy="93.81" r="2.48"/><circle class="cls-4" cx="98.01" cy="213.38" r="2.48"/><circle class="cls-4" cx="26.78" cy="88.69" r="2.48"/><circle class="cls-4" cx="156.45" cy="242.95" r="2.48"/><circle class="cls-4" cx="31.73" cy="187.23" r="2.48"/><circle class="cls-4" cx="46.52" cy="120.95" r="2.48"/></g></svg>