<svg xmlns="http://www.w3.org/2000/svg" width="413.385" height="606.157" viewBox="0 0 413.385 606.157">
    <defs>
        <style>
            .cls-1,.cls-2,.cls-3{fill:#00a099}.cls-1,.cls-16{opacity:.33}.cls-2{opacity:.66}.cls-14,.cls-4{opacity:.2}.cls-5,.cls-7{fill:none}.cls-17,.cls-6{fill:#702963}.cls-7,.cls-8{stroke:#702963;stroke-miterlimit:10;stroke-width:2px}.cls-11,.cls-8{fill:#fff}.cls-13,.cls-14,.cls-15,.cls-16,.cls-9{fill:#636466}.cls-9{opacity:.5}.cls-10{fill:#702a64}.cls-12{fill:#4e4d4d;opacity:.14}.cls-13,.cls-17{opacity:.12}
        </style>
    </defs>
    <g id="droite" transform="translate(-550.52 -36.98)">
        <g id="Groupe_12761" data-name="Groupe 12761">
            <path id="Tracé_45428" d="M723.86 531.564a7.282 7.282 0 0 1 1.345 8.673 3.2 3.2 0 0 0 .79 3.933 11.147 11.147 0 0 1-3.841 19.137v6.953a2.251 2.251 0 0 1-2.247 2.247h-1.119v-42.992a7.217 7.217 0 0 1 5.072 2.049z" class="cls-1" data-name="Tracé 45428"/>
            <path id="Tracé_45429" d="M713.716 531.56a7.285 7.285 0 0 0-1.346 8.673 3.2 3.2 0 0 1-.789 3.933 11.147 11.147 0 0 0 3.841 19.137v6.953a2.249 2.249 0 0 0 2.246 2.247h1.12V529.51a7.222 7.222 0 0 0-5.072 2.05z" class="cls-2" data-name="Tracé 45429"/>
            <path id="Tracé_45430" d="M714.688 570.26v-6.424a11.886 11.886 0 0 1-3.53-20.269 2.471 2.471 0 0 0 .519-3.072 8.017 8.017 0 1 1 14.174.089 2.467 2.467 0 0 0 .618 3.026 11.88 11.88 0 0 1-3.582 20.22v6.43a2.984 2.984 0 0 1-2.98 2.98h-2.238a2.984 2.984 0 0 1-2.981-2.98zm3.9-40.017a6.551 6.551 0 0 0-5.609 9.574 3.928 3.928 0 0 1-.878 4.874 10.418 10.418 0 0 0 3.542 17.921l.513.162v7.486a1.515 1.515 0 0 0 1.514 1.513h2.238a1.515 1.515 0 0 0 1.513-1.513v-7.489l.511-.163a10.414 10.414 0 0 0 3.59-17.879 3.937 3.937 0 0 1-.962-4.839 6.552 6.552 0 0 0-5.769-9.65h-.2z" class="cls-3" data-name="Tracé 45430"/>
        </g>
        <g id="Groupe_12779" class="cls-4" data-name="Groupe 12779">
            <g id="Groupe_12762" data-name="Groupe 12762">
                <path id="Ligne_1208" d="M0 0h9.721" class="cls-5" data-name="Ligne 1208" transform="translate(714.739 637.759)"/>
                <path id="Tracé_45431" d="M724.459 639.259h-9.724a1.5 1.5 0 0 1 0-3h9.721a1.5 1.5 0 0 1 0 3z" class="cls-6" data-name="Tracé 45431"/>
            </g>
            <g id="Groupe_12763" data-name="Groupe 12763">
                <path id="Ligne_1209" d="M0 0h9.721" class="cls-5" data-name="Ligne 1209" transform="translate(774.483 627.188)"/>
                <path id="Tracé_45432" d="M784.2 628.692h-9.721a1.5 1.5 0 0 1 0-3h9.721a1.5 1.5 0 0 1 0 3z" class="cls-6" data-name="Tracé 45432"/>
            </g>
            <g id="Groupe_12764" data-name="Groupe 12764">
                <path id="Ligne_1210" d="M0 0h9.721" class="cls-5" data-name="Ligne 1210" transform="translate(929.452 585.446)"/>
                <path id="Tracé_45433" d="M939.172 586.946h-9.72a1.5 1.5 0 0 1 0-3h9.72a1.5 1.5 0 0 1 0 3z" class="cls-6" data-name="Tracé 45433"/>
            </g>
            <g id="Groupe_12765" data-name="Groupe 12765">
                <path id="Ligne_1211" d="M0 0h9.721" class="cls-5" data-name="Ligne 1211" transform="translate(744.457 593.814)"/>
                <path id="Tracé_45434" d="M754.177 595.314h-9.721a1.5 1.5 0 0 1 0-3h9.721a1.5 1.5 0 0 1 0 3z" class="cls-6" data-name="Tracé 45434"/>
            </g>
            <g id="Groupe_12766" data-name="Groupe 12766">
                <path id="Ligne_1212" d="M0 0h9.721" class="cls-5" data-name="Ligne 1212" transform="translate(952.685 505.451)"/>
                <path id="Tracé_45435" d="M962.405 506.951h-9.72a1.5 1.5 0 0 1 0-3h9.72a1.5 1.5 0 0 1 0 3z" class="cls-6" data-name="Tracé 45435"/>
            </g>
            <g id="Groupe_12767" data-name="Groupe 12767">
                <path id="Ligne_1213" d="M0 0h9.721" class="cls-5" data-name="Ligne 1213" transform="translate(906.544 543.572)"/>
                <path id="Tracé_45436" d="M916.265 545.072h-9.721a1.5 1.5 0 0 1 0-3h9.721a1.5 1.5 0 0 1 0 3z" class="cls-6" data-name="Tracé 45436"/>
            </g>
            <g id="Groupe_12768" data-name="Groupe 12768">
                <path id="Ligne_1214" d="M0 0h9.721" class="cls-5" data-name="Ligne 1214" transform="translate(947.824 355.327)"/>
                <path id="Tracé_45437" d="M957.545 356.827h-9.721a1.5 1.5 0 0 1 0-3h9.721a1.5 1.5 0 0 1 0 3z" class="cls-6" data-name="Tracé 45437"/>
            </g>
            <g id="Groupe_12769" data-name="Groupe 12769">
                <path id="Ligne_1215" d="M0 0h9.721" class="cls-5" data-name="Ligne 1215" transform="translate(888.48 297.362)"/>
                <path id="Tracé_45438" d="M898.2 298.862h-9.721a1.5 1.5 0 0 1 0-3h9.721a1.5 1.5 0 0 1 0 3z" class="cls-6" data-name="Tracé 45438"/>
            </g>
            <g id="Groupe_12770" data-name="Groupe 12770">
                <path id="Ligne_1216" d="M0 0h9.721" class="cls-5" data-name="Ligne 1216" transform="translate(815.893 273.442)"/>
                <path id="Tracé_45439" d="M825.614 274.942h-9.721a1.5 1.5 0 0 1 0-3h9.721a1.5 1.5 0 0 1 0 3z" class="cls-6" data-name="Tracé 45439"/>
            </g>
            <g id="Groupe_12771" data-name="Groupe 12771">
                <path id="Ligne_1217" d="M0 0h9.721" class="cls-5" data-name="Ligne 1217" transform="translate(869.181 254.986)"/>
                <path id="Tracé_45440" d="M878.9 256.486h-9.72a1.5 1.5 0 1 1 0-3h9.72a1.5 1.5 0 0 1 0 3z" class="cls-6" data-name="Tracé 45440"/>
            </g>
            <g id="Groupe_12772" data-name="Groupe 12772">
                <path id="Ligne_1218" d="M0 0h9.721" class="cls-5" data-name="Ligne 1218" transform="translate(761.817 373.63)"/>
                <path id="Tracé_45441" d="M771.535 375.13h-9.721a1.5 1.5 0 0 1 0-3h9.721a1.5 1.5 0 0 1 0 3z" class="cls-6" data-name="Tracé 45441"/>
            </g>
            <g id="Groupe_12773" data-name="Groupe 12773">
                <path id="Ligne_1219" d="M0 0h9.721" class="cls-5" data-name="Ligne 1219" transform="translate(908.079 426.052)"/>
                <path id="Tracé_45442" d="M917.8 427.552h-9.721a1.5 1.5 0 0 1 0-3h9.721a1.5 1.5 0 0 1 0 3z" class="cls-6" data-name="Tracé 45442"/>
            </g>
            <g id="Groupe_12774" data-name="Groupe 12774">
                <path id="Ligne_1220" d="M0 0h9.721" class="cls-5" data-name="Ligne 1220" transform="translate(701.847 491.166)"/>
                <path id="Tracé_45443" d="M711.568 492.666h-9.721a1.5 1.5 0 0 1 0-3h9.721a1.5 1.5 0 0 1 0 3z" class="cls-6" data-name="Tracé 45443"/>
            </g>
            <g id="Groupe_12775" data-name="Groupe 12775">
                <path id="Ligne_1221" d="M0 0h9.721" class="cls-5" data-name="Ligne 1221" transform="translate(850.28 386.721)"/>
                <path id="Tracé_45444" d="M860 388.221h-9.721a1.5 1.5 0 0 1 0-3H860a1.5 1.5 0 0 1 0 3z" class="cls-6" data-name="Tracé 45444"/>
            </g>
            <g id="Groupe_12776" data-name="Groupe 12776">
                <path id="Ligne_1222" d="M0 0h9.721" class="cls-5" data-name="Ligne 1222" transform="translate(714.738 430.533)"/>
                <path id="Tracé_45445" d="M724.458 432.033h-9.723a1.5 1.5 0 0 1 0-3h9.72a1.5 1.5 0 0 1 0 3z" class="cls-6" data-name="Tracé 45445"/>
            </g>
            <g id="Groupe_12777" data-name="Groupe 12777">
                <path id="Ligne_1223" d="M0 0h9.721" class="cls-5" data-name="Ligne 1223" transform="translate(899.002 38.48)"/>
                <path id="Tracé_45446" d="M908.722 39.98H899a1.5 1.5 0 0 1 0-3h9.721a1.5 1.5 0 0 1 0 3z" class="cls-6" data-name="Tracé 45446"/>
            </g>
            <g id="Groupe_12778" data-name="Groupe 12778">
                <path id="Ligne_1224" d="M0 0h9.721" class="cls-5" data-name="Ligne 1224" transform="translate(616.356 641.637)"/>
                <path id="Tracé_45447" d="M626.076 643.137h-9.721a1.5 1.5 0 0 1 0-3h9.721a1.5 1.5 0 0 1 0 3z" class="cls-6" data-name="Tracé 45447"/>
            </g>
            <circle id="Ellipse_2504" cx="2.067" cy="2.067" r="2.067" class="cls-6" data-name="Ellipse 2504" transform="translate(661.9 477.662)"/>
            <circle id="Ellipse_2505" cx="2.067" cy="2.067" r="2.067" class="cls-6" data-name="Ellipse 2505" transform="translate(764.61 207.165)"/>
            <circle id="Ellipse_2506" cx="2.067" cy="2.067" r="2.067" class="cls-6" data-name="Ellipse 2506" transform="translate(834.707 233.602)"/>
            <circle id="Ellipse_2507" cx="2.067" cy="2.067" r="2.067" class="cls-6" data-name="Ellipse 2507" transform="translate(853.184 121.058)"/>
            <circle id="Ellipse_2508" cx="2.067" cy="2.067" r="2.067" class="cls-6" data-name="Ellipse 2508" transform="translate(952.684 63.582)"/>
            <circle id="Ellipse_2509" cx="2.067" cy="2.067" r="2.067" class="cls-6" data-name="Ellipse 2509" transform="translate(920.625 496.124)"/>
            <circle id="Ellipse_2510" cx="2.067" cy="2.067" r="2.067" class="cls-6" data-name="Ellipse 2510" transform="translate(932.245 620.987)"/>
            <circle id="Ellipse_2511" cx="2.067" cy="2.067" r="2.067" class="cls-6" data-name="Ellipse 2511" transform="translate(803.42 367.996)"/>
            <circle id="Ellipse_2512" cx="2.067" cy="2.067" r="2.067" class="cls-6" data-name="Ellipse 2512" transform="translate(716.64 371.563)"/>
            <circle id="Ellipse_2513" cx="2.067" cy="2.067" r="2.067" class="cls-6" data-name="Ellipse 2513" transform="translate(839.421 591.747)"/>
            <circle id="Ellipse_2514" cx="2.067" cy="2.067" r="2.067" class="cls-6" data-name="Ellipse 2514" transform="translate(844.173 625.121)"/>
            <circle id="Ellipse_2515" cx="2.067" cy="2.067" r="2.067" class="cls-6" data-name="Ellipse 2515" transform="translate(617.082 595.314)"/>
            <circle id="Ellipse_2516" cx="2.067" cy="2.067" r="2.067" class="cls-6" data-name="Ellipse 2516" transform="translate(550.52 629.255)"/>
            <circle id="Ellipse_2517" cx="2.067" cy="2.067" r="2.067" class="cls-6" data-name="Ellipse 2517" transform="translate(948.55 439.304)"/>
            <circle id="Ellipse_2518" cx="2.067" cy="2.067" r="2.067" class="cls-6" data-name="Ellipse 2518" transform="translate(687.629 525.995)"/>
            <circle id="Ellipse_2519" cx="2.067" cy="2.067" r="2.067" class="cls-6" data-name="Ellipse 2519" transform="translate(918.558 384.654)"/>
            <circle id="Ellipse_2520" cx="2.067" cy="2.067" r="2.067" class="cls-6" data-name="Ellipse 2520" transform="translate(955.478 303.22)"/>
            <circle id="Ellipse_2521" cx="2.067" cy="2.067" r="2.067" class="cls-6" data-name="Ellipse 2521" transform="translate(910.105 237.736)"/>
            <circle id="Ellipse_2522" cx="2.067" cy="2.067" r="2.067" class="cls-6" data-name="Ellipse 2522" transform="translate(950.617 256.486)"/>
        </g>
        <g id="Groupe_12780" data-name="Groupe 12780">
            <path id="Tracé_45448" d="M828.592 325.13a11.22 11.22 0 0 1-8.295 10.808v8.69a2.327 2.327 0 0 1-2.324 2.324h-.567v-33.007a11.2 11.2 0 0 1 11.186 11.185z" class="cls-1" data-name="Tracé 45448"/>
            <path id="Tracé_45449" d="M806.22 325.13a11.22 11.22 0 0 0 8.3 10.808v8.69a2.325 2.325 0 0 0 2.323 2.323h.568v-33.006a11.2 11.2 0 0 0-11.191 11.185z" class="cls-2" data-name="Tracé 45449"/>
            <path id="Tracé_45450" d="M813.781 344.628v-8.136a11.919 11.919 0 1 1 7.249 0v8.141a3.06 3.06 0 0 1-3.057 3.057h-1.138a3.061 3.061 0 0 1-3.054-3.062zm-6.827-19.5a10.462 10.462 0 0 0 7.75 10.1l.544.144v9.254a1.592 1.592 0 0 0 1.59 1.59h1.135a1.592 1.592 0 0 0 1.591-1.59v-9.254l.544-.144a10.453 10.453 0 1 0-13.154-10.1z" class="cls-3" data-name="Tracé 45450"/>
        </g>
        <g id="Groupe_12782" data-name="Groupe 12782">
            <path id="Tracé_45451" d="M836.335 199.255v-11.138h-3.981a2.1 2.1 0 0 1-2.1-2.1 2.2 2.2 0 0 1 .037-.389l8.74-46.253a2.051 2.051 0 0 1 2.058-1.709 2.083 2.083 0 0 1 2.069 1.708l8.741 46.258a2.1 2.1 0 0 1-1.678 2.45 2.149 2.149 0 0 1-.392.036h-4.993v11.138a1.836 1.836 0 0 1-1.834 1.833h-4.84a1.835 1.835 0 0 1-1.827-1.834zm4.759-60.124a.6.6 0 0 0-.621.515l-8.738 46.254a.63.63 0 0 0 .5.738.711.711 0 0 0 .122.011h5.87l-.409 1.009a.255.255 0 0 0-.013.091v11.5a.367.367 0 0 0 .366.366h4.84a.372.372 0 0 0 .367-.366v-11.5a.261.261 0 0 0-.014-.1l-.4-1h6.871a.64.64 0 0 0 .638-.64.6.6 0 0 0-.01-.111l-8.739-46.251a.61.61 0 0 0-.629-.517z" class="cls-3" data-name="Tracé 45451"/>
            <g id="Groupe_12781" data-name="Groupe 12781">
                <path id="Tracé_45452" d="M831.011 185.763l8.741-46.254a1.329 1.329 0 0 1 1.344-1.11v61.956h-2.928a1.1 1.1 0 0 1-1.1-1.1v-11.5a1 1 0 0 1 .066-.367h-4.781a1.363 1.363 0 0 1-1.367-1.359 1.324 1.324 0 0 1 .025-.266z" class="cls-2" data-name="Tracé 45452"/>
                <path id="Tracé_45453" d="M842.443 139.509l8.74 46.254a1.374 1.374 0 0 1-1.349 1.62h-5.793a1 1 0 0 1 .066.367v11.5a1.1 1.1 0 0 1-1.1 1.1H841.1V138.4a1.336 1.336 0 0 1 1.343 1.109z" class="cls-1" data-name="Tracé 45453"/>
            </g>
        </g>
        <path id="Ligne_1225" d="M121.908 0H0" class="cls-7" data-name="Ligne 1225" transform="translate(813.893 200.988)"/>
        <path id="Tracé_45454" d="M559.309 572.415H915.9c10.355 0 18.749-8.892 18.749-19.861l2.832-512.574" class="cls-7" data-name="Tracé 45454"/>
        <path id="Ligne_1226" d="M.093 0L0 148.449" class="cls-7" data-name="Ligne 1226" transform="translate(677.704 423.966)"/>
        <path id="Ligne_1227" d="M0 0h227.036" class="cls-7" data-name="Ligne 1227" transform="translate(707.275 347.317)"/>
        <circle id="Ellipse_2524" cx="5.01" cy="5.01" r="5.01" class="cls-8" data-name="Ellipse 2524" transform="translate(930.79 342.536)"/>
        <circle id="Ellipse_2525" cx="5.01" cy="5.01" r="5.01" class="cls-8" data-name="Ellipse 2525" transform="translate(930.79 195.978)"/>
        <circle id="Ellipse_2526" cx="5.01" cy="5.01" r="5.01" class="cls-8" data-name="Ellipse 2526" transform="translate(672.694 567.405)"/>
        <g id="Groupe_12842" data-name="Groupe 12842">
            <path id="Tracé_45524" d="M737.32 293.069a7.449 7.449 0 0 0-.335 2.268v17.031a.914.914 0 0 0-.722.9h-10.074v-20.2z" class="cls-9" data-name="Tracé 45524"/>
            <path id="Rectangle_12842" d="M0 0h2.602v5.617H0z" class="cls-9" data-name="Rectangle 12842" transform="translate(779.42 229.223)"/>
            <path id="Rectangle_12843" d="M0 0h4.432v5.617H0z" class="cls-9" data-name="Rectangle 12843" transform="translate(783.13 229.223)"/>
            <path id="Rectangle_12844" d="M0 0h8.889v.567H0z" class="cls-9" data-name="Rectangle 12844" transform="translate(779.42 225.951)"/>
            <path id="Rectangle_12845" d="M0 0h8.863v17.211H0z" class="cls-9" data-name="Rectangle 12845" transform="translate(779.42 327.852)"/>
            <path id="Rectangle_12846" d="M0 0h3.581v4.251H0z" class="cls-9" data-name="Rectangle 12846" transform="translate(779.42 322.055)"/>
            <path id="Rectangle_12847" d="M0 0h4.2v4.251H0z" class="cls-9" data-name="Rectangle 12847" transform="translate(784.109 322.055)"/>
            <path id="Tracé_45525" d="M788.309 235.613v84.9h-8.889v-84.127h8.863v-.773z" class="cls-9" data-name="Tracé 45525"/>
            <path id="Tracé_45526" d="M724 226.157v.335l.026.026h66.448l.026-.026v-.335zm64.284 95.9v4.251h.026v-4.251zm0-86.442v84.9h.026v-84.9z" class="cls-10" data-name="Tracé 45526"/>
            <g id="Groupe_12824" data-name="Groupe 12824">
                <path id="Tracé_45527" d="M790.5 222.447v4.045l-.026.026h-66.449l-.026-.026v-4.045z" class="cls-11" data-name="Tracé 45527"/>
            </g>
            <path id="Rectangle_12848" d="M0 0h37.411v.979H0z" class="cls-12" data-name="Rectangle 12848" transform="translate(738.711 283.382)"/>
            <g id="Groupe_12826" data-name="Groupe 12826">
                <path id="Tracé_45528" d="M778.235 313.759a1.265 1.265 0 0 1-1.263 1.262h-14.995a1.263 1.263 0 0 1-1.262-1.262 1.247 1.247 0 0 1 .051-.309.89.89 0 0 0 .876.773h15.64a.9.9 0 0 0 .9-.773 1.292 1.292 0 0 1 .053.309z" class="cls-13" data-name="Tracé 45528"/>
                <g id="Groupe_12825" data-name="Groupe 12825">
                    <path id="Tracé_45529" d="M776.38 294.792h-13.81a6.926 6.926 0 0 1 13.81 0z" class="cls-11" data-name="Tracé 45529"/>
                    <path id="Rectangle_12849" d="M0 0h13.862v7.266H0z" class="cls-11" data-name="Rectangle 12849" transform="translate(762.544 295.904)"/>
                    <path id="Rectangle_12850" d="M0 0h13.862v7.601H0z" class="cls-11" data-name="Rectangle 12850" transform="translate(762.544 304.689)"/>
                    <path id="Tracé_45530" d="M776.921 294.792a3.765 3.765 0 0 1 .026.541v-.541z" class="cls-10" data-name="Tracé 45530"/>
                </g>
                <path id="Tracé_45531" d="M776.947 294.792v.541a3.765 3.765 0 0 0-.026-.541z" class="cls-6" data-name="Tracé 45531"/>
            </g>
            <g id="Groupe_12827" data-name="Groupe 12827">
                <path id="Tracé_45532" d="M753.784 313.759a1.265 1.265 0 0 1-1.263 1.262h-14.995a1.265 1.265 0 0 1-1.263-1.262 1.288 1.288 0 0 1 .052-.309.9.9 0 0 0 .9.773h15.639a.869.869 0 0 0 .876-.773 1.244 1.244 0 0 1 .054.309z" class="cls-13" data-name="Tracé 45532"/>
                <path id="Tracé_45533" d="M736.367 313.269a.478.478 0 0 0-.052.181.217.217 0 0 1-.052-.181z" class="cls-6" data-name="Tracé 45533"/>
            </g>
            <g id="Groupe_12828" data-name="Groupe 12828">
                <path id="Tracé_45534" d="M757.417 239.092a18.835 18.835 0 0 0-18.809 18.834v25.456h37.617v-25.456a18.852 18.852 0 0 0-18.808-18.834zm-.722 42.1h-15.9v-10h15.9zm0-11.1h-15.9v-10.543h15.9zm0-11.646h-15.9v-.515a16.6 16.6 0 0 1 15.9-16.593zm17.34 22.746H757.8v-10h16.232zm0-11.1H757.8v-10.543h16.232zm0-11.646H757.8v-17.113a16.609 16.609 0 0 1 16.232 16.593z" class="cls-6" data-name="Tracé 45534"/>
            </g>
            <g id="Groupe_12835" data-name="Groupe 12835">
                <g id="Groupe_12830" data-name="Groupe 12830">
                    <g id="Groupe_12829" data-name="Groupe 12829">
                        <path id="Tracé_45535" d="M763.291 326.409h-11.285c0-.051.026-.077.026-.1a6.176 6.176 0 0 1 1.8-2.653 4.961 4.961 0 0 1 1.108-.7 5.614 5.614 0 0 1 2.706-.67 5.913 5.913 0 0 1 2.035.361 5.239 5.239 0 0 1 1.082.515 6.046 6.046 0 0 1 2.5 3.143c.002.027.028.053.028.104z" class="cls-11" data-name="Tracé 45535"/>
                        <path id="Tracé_45536" d="M757 327.723v16.954h-5.282v-16.464a1.56 1.56 0 0 1 .026-.361v-.129z" class="cls-11" data-name="Tracé 45536"/>
                        <path id="Tracé_45537" d="M763.575 328.213v16.464h-5.257v-16.954h5.231v.129a1.56 1.56 0 0 1 .026.361z" class="cls-11" data-name="Tracé 45537"/>
                    </g>
                </g>
            </g>
            <g id="Groupe_12836" data-name="Groupe 12836">
                <path id="Tracé_45550" d="M788.283 235.613v.773h.026v-.773z" class="cls-6" data-name="Tracé 45550"/>
                <path id="Tracé_45551" d="M777.513 312.368v-17.031a8.039 8.039 0 1 0-16.077 0v17.031a.914.914 0 0 0-.721.9.221.221 0 0 0 .051.181.89.89 0 0 0 .876.773h15.64a.9.9 0 0 0 .9-.773.217.217 0 0 0 .052-.181.913.913 0 0 0-.721-.9zm-8.038-23.962a6.956 6.956 0 0 1 6.9 6.39h-13.81a6.937 6.937 0 0 1 6.91-6.39zm6.931 23.884h-13.862v-7.6h13.862zm0-9.121h-13.862V295.9h13.862zm.541-8.373v.541a3.772 3.772 0 0 0-.026-.541z" class="cls-6" data-name="Tracé 45551"/>
                <path id="Tracé_45552" d="M753.062 312.368v-17.031a8.034 8.034 0 0 0-15.742-2.268 7.449 7.449 0 0 0-.335 2.268v17.031a.914.914 0 0 0-.722.9h.1a.478.478 0 0 0-.052.181.9.9 0 0 0 .9.773h15.639a.869.869 0 0 0 .876-.773.217.217 0 0 0 .052-.181.914.914 0 0 0-.716-.9zm-8.038-23.962a6.938 6.938 0 0 1 6.9 6.39h-13.81a6.954 6.954 0 0 1 6.91-6.39zm6.93 23.884h-13.861v-7.6h13.861zm0-9.121h-13.861V295.9h13.861z" class="cls-6" data-name="Tracé 45552"/>
            </g>
            <g id="Groupe_12839" data-name="Groupe 12839">
                <g id="Groupe_12838" data-name="Groupe 12838">
                    <g id="Groupe_12837" data-name="Groupe 12837">
                        <path id="Tracé_45553" d="M736.8 338.519v.155a.447.447 0 0 1 .025-.181zm0 0v.155a.447.447 0 0 1 .025-.181zm0 0v.155a.447.447 0 0 1 .025-.181zm0 0v.155a.447.447 0 0 1 .025-.181zm0 0v.155a.447.447 0 0 1 .025-.181z" class="cls-6" data-name="Tracé 45553"/>
                        <path id="Tracé_45554" d="M736.418 338.467v.052c0-.026.026-.052.026-.077zm0 0v.052c0-.026.026-.052.026-.077zm0 0v.052c0-.026.026-.052.026-.077zm.026.567a.025.025 0 0 0-.026.024h.052zm-.026-.567v.052c0-.026.026-.052.026-.077zm0 0v.052c0-.026.026-.052.026-.077z" class="cls-6" data-name="Tracé 45554"/>
                    </g>
                    <path id="Tracé_45555" d="M736.47 339.06h-.052a.025.025 0 0 1 .024-.026z" class="cls-6" data-name="Tracé 45555"/>
                </g>
            </g>
            <g id="Plante">
                <g id="Groupe_12841" data-name="Groupe 12841">
                    <g id="Groupe_12840" data-name="Groupe 12840">
                        <path id="Tracé_45556" d="M790.473 220.231h-66.448a2.216 2.216 0 0 0-2.216 2.216v4.045a2.211 2.211 0 0 0 2.19 2.216v118.545h66.5V228.708a2.227 2.227 0 0 0 2.19-2.216v-4.045a2.233 2.233 0 0 0-2.216-2.216zm-46.068 124.832h-11.388v-3.014h11.363s.025 0 .025.051zm-7.961-6.235v.052a.154.154 0 0 1-.026.1 1.489 1.489 0 0 1-1.763-1.154 1.205 1.205 0 0 1-.015-.083 1.3 1.3 0 0 1 0-.541 1.572 1.572 0 0 1 1.34.412c.026.052.077.078.1.129a.888.888 0 0 1 .206.335 1.129 1.129 0 0 1 .129.386l.026-.025c0 .025-.026.051-.026.077v.026a1.146 1.146 0 0 1 .029.286zm0 .206l.026.026h-.052a.025.025 0 0 1 .024-.026zm.361-.335v-.18l.025-.026a1.586 1.586 0 0 1 .152-.515.6.6 0 0 1 .155-.232.434.434 0 0 1 .1-.129 1.465 1.465 0 0 1 .953-.412 1.1 1.1 0 0 1 .412 0 1.886 1.886 0 0 1 0 .541 1.214 1.214 0 0 1-.283.644.466.466 0 0 1-.129.181 1.5 1.5 0 0 1-1.366.412 1.083 1.083 0 0 1-.019-.284zm4.9-3.169a1.5 1.5 0 0 1-1.366-.412 1.674 1.674 0 0 1-.463-1.185.514.514 0 0 1 .025-.206 1.714 1.714 0 0 1 1.082.206.885.885 0 0 1 .31.232 1.461 1.461 0 0 1 .438 1.056 1.237 1.237 0 0 1-.026.309zm.412-.309a1.46 1.46 0 0 1 .438-1.056.974.974 0 0 1 .335-.232 1.331 1.331 0 0 1 1.031-.206.574.574 0 0 1 .026.206 1.55 1.55 0 0 1-.439 1.185 1.5 1.5 0 0 1-1.365.412 1.234 1.234 0 0 1-.026-.309zm8.3 9.842h-4.69V342.1a1.373 1.373 0 0 0-1.339-1.391h-2.19v-4.817a.72.72 0 0 0 .231.026 1.9 1.9 0 0 0 1.34-.541 1.788 1.788 0 0 0 .541-1.443.8.8 0 0 0-.051-.412l-.026-.1-.1-.026a1.912 1.912 0 0 0-1.829.489l-.052.052a1.425 1.425 0 0 0-.309.489 2.072 2.072 0 0 0-.335-.489l-.052-.052a1.928 1.928 0 0 0-1.829-.489l-.1.026-.052.1a2.381 2.381 0 0 0-.051.412v.051a1.926 1.926 0 0 0 .567 1.392 1.893 1.893 0 0 0 1.339.541.7.7 0 0 0 .232-.026v4.818h-4.766v-1.365a.726.726 0 0 0 .232.025 1.94 1.94 0 0 0 1.056-.309 1.245 1.245 0 0 0 .284-.232 1.743 1.743 0 0 0 .309-.438 1.454 1.454 0 0 0 .206-.644 1.844 1.844 0 0 0-.026-.747l-.026-.1-.1-.026a2.565 2.565 0 0 0-.618-.051 1.812 1.812 0 0 0-1.211.541 1.223 1.223 0 0 0-.283.386.223.223 0 0 0-.078.155.541.541 0 0 0-.1-.155 1.223 1.223 0 0 0-.283-.386 1.929 1.929 0 0 0-1.8-.49l-.1.026-.026.1a1.865 1.865 0 0 0-.051.747 1.745 1.745 0 0 0 .541 1.082 1.193 1.193 0 0 0 .283.232 1.882 1.882 0 0 0 1.057.309.575.575 0 0 0 .206-.025v1.365h-3.324a1.371 1.371 0 0 0-1.314 1.391v2.963h-5.514v-17.212h24.22zm-24.22-18.757v-4.251h4.329v4.251zm5.334-2.5a.616.616 0 0 1 .077-.309v-1.443h4.741v4.246H731.6v-2.19a.691.691 0 0 1-.08-.308zm5.926 2.5v-4.251h4.741v4.251zm5.823 0v-4.251h4.74v4.251zm5.848 0v-4.251h4.712a7.278 7.278 0 0 0-3.169 4.251zm5.823-3.349a5.614 5.614 0 0 1 2.706-.67 5.913 5.913 0 0 1 2.035.361 5.237 5.237 0 0 1 1.082.515 6.046 6.046 0 0 1 2.5 3.143c0 .026.026.052.026.1h-11.294c0-.051.026-.077.026-.1a6.176 6.176 0 0 1 1.8-2.653 4.985 4.985 0 0 1 1.111-.7zm2.061 21.72h-5.282v-16.464a1.564 1.564 0 0 1 .026-.361v-.129h5.256zm6.571 0h-5.257v-16.954h5.231v.129a1.56 1.56 0 0 1 .026.361zm-2.113-22.622h4.045v4.251h-.875a7.074 7.074 0 0 0-3.173-4.251zm12.754 23.008h-3.53v-2.782a1.162 1.162 0 0 1 .051-.361h3.453a1.363 1.363 0 0 1 .026.361zm-2.01-5.822a1.12 1.12 0 0 1-.9-.181.927.927 0 0 1-.258-.18 1.3 1.3 0 0 1-.36-1.134v-.077a1.312 1.312 0 0 1 .773.077 1.824 1.824 0 0 1 .438.283 1.236 1.236 0 0 1 .309.49zm0-3.273a1.255 1.255 0 0 1-1.16-.386 1.313 1.313 0 0 1-.36-1.211 1.329 1.329 0 0 1 1.211.386 1.445 1.445 0 0 1 .309.516zm0-3.452a1.258 1.258 0 0 1-1.16-.387 1.313 1.313 0 0 1-.36-1.211 1.33 1.33 0 0 1 1.211.387 1.449 1.449 0 0 1 .309.515zm2.164 8.631H772.7v-1.572a.581.581 0 0 0 .207.026 1.7 1.7 0 0 0 1.185-.489l.051-.052a1.57 1.57 0 0 0 .413-1.314.428.428 0 0 0-.026-.257l-.026-.1-.077-.025a1.675 1.675 0 0 0-1.572.386c-.026 0-.051.026-.077.052s-.052.077-.078.1v-1.624a.5.5 0 0 0 .207.026 1.6 1.6 0 0 0 1.185-.489 1.642 1.642 0 0 0 .438-1.623l-.026-.078-.077-.025a1.7 1.7 0 0 0-1.649.437.361.361 0 0 0-.078.1v-1.8a.5.5 0 0 0 .207.026 1.6 1.6 0 0 0 .824-.232 1.169 1.169 0 0 0 .361-.258 1.637 1.637 0 0 0 .438-1.623l-.026-.077-.077-.026a1.7 1.7 0 0 0-1.649.438 1.45 1.45 0 0 0-.309.464h-.029a1.5 1.5 0 0 0-.309-.464 1.67 1.67 0 0 0-1.624-.438l-.077.026h-.03l-.025.077a1.66 1.66 0 0 0 .051 1 1.55 1.55 0 0 0 .387.618 1.165 1.165 0 0 0 .36.258 1.6 1.6 0 0 0 .825.232.573.573 0 0 0 .206-.026v1.8a.393.393 0 0 0-.077-.1 1.672 1.672 0 0 0-1.624-.437l-.077.025h-.026l-.025.078a1.659 1.659 0 0 0 .051 1 1.56 1.56 0 0 0 .387.619 1.634 1.634 0 0 0 1.187.494.572.572 0 0 0 .206-.026v1.626c-.026-.026-.052-.078-.077-.1l-.052-.052a1.691 1.691 0 0 0-1.572-.386l-.077.025h-.028l-.025.1a1.69 1.69 0 0 0 .386 1.571l.052.052a1.748 1.748 0 0 0 1.187.49.5.5 0 0 0 .206-.026v1.572h-1.668c-.361 0-.593.438-.593 1.134v2.782h-5.024v-17.21h23.369v17.211h-13.3v-2.782c0-.7-.231-1.134-.618-1.134zm-1.675-1.906v-.649a1.036 1.036 0 0 1 .31-.567 2.52 2.52 0 0 1 .438-.283 1.4 1.4 0 0 1 .8-.077c0 .026.026.051 0 .077a1.4 1.4 0 0 1-.386 1.134.928.928 0 0 1-.258.18 1.142 1.142 0 0 1-.907.185zm0-3.273v-.644a1.036 1.036 0 0 1 .31-.567 1.373 1.373 0 0 1 1.236-.386 1.4 1.4 0 0 1-.386 1.211 1.253 1.253 0 0 1-1.163.386zm0-3.452v-.644a1.032 1.032 0 0 1 .31-.567 1.374 1.374 0 0 1 1.236-.387 1.4 1.4 0 0 1-.386 1.211 1.255 1.255 0 0 1-1.163.387zm-6.08-6.21v-4.251h4.741v4.251zm5.823 0v-4.251h4.74v4.251zm5.848 0v-4.251H783v4.251zm10.023 0h-4.2v-4.251h4.2zm0-5.8h-62.12v-84.12h62.094v-.773h.026zm-62.12-85.669v-5.617h4.123v5.617zm5.2 0v-5.617h4.663v5.617zm5.746 0v-5.617h4.657v5.617zm5.745 0v-5.617h4.664v5.617zm5.746 0v-5.617h4.663v5.617zm5.745 0v-5.617h4.661v5.617zm5.746 0v-5.617h4.663v5.617zm5.771 0v-5.617h4.644v5.617zm5.746 0v-5.617h4.638v5.617zm5.746 0v-5.617h4.637v5.617zm5.745 0v-5.617h4.432v5.617zm7.369-8.348l-.026.026h-66.451l-.026-.026v-4.045h66.5z" class="cls-6" data-name="Tracé 45556"/>
                    </g>
                </g>
            </g>
        </g>
        <g id="Groupe_12845" data-name="Groupe 12845">
            <path id="Rectangle_12855" d="M0 0h1.908v4.267H0z" class="cls-9" data-name="Rectangle 12855" transform="translate(880.007 179.793)"/>
            <path id="Rectangle_12856" d="M0 0h3.419v4.267H0z" class="cls-9" data-name="Rectangle 12856" transform="translate(883.028 179.793)"/>
            <path id="Rectangle_12857" d="M0 0h5.566v4.002H0z" class="cls-9" data-name="Rectangle 12857" transform="translate(880.007 185.598)"/>
            <path id="Rectangle_12858" d="M0 0h5.566v2.306H0z" class="cls-9" data-name="Rectangle 12858" transform="translate(880.007 191.164)"/>
            <path id="Rectangle_12859" d="M0 0h5.566v3.737H0z" class="cls-9" data-name="Rectangle 12859" transform="translate(880.007 195.033)"/>
            <path id="Rectangle_12860" d="M0 0h.424v4.983H0z" class="cls-9" data-name="Rectangle 12860" transform="translate(908.844 71.97)"/>
            <path id="Rectangle_12861" d="M0 0h3.393v4.983H0z" class="cls-9" data-name="Rectangle 12861" transform="translate(910.382 71.97)"/>
            <path id="Rectangle_12862" d="M0 0h3.181v4.983H0z" class="cls-9" data-name="Rectangle 12862" transform="translate(914.887 71.97)"/>
            <path id="Rectangle_12863" d="M0 0h.159v4.267H0z" class="cls-9" data-name="Rectangle 12863" transform="translate(908.844 179.793)"/>
            <path id="Rectangle_12864" d="M0 0h3.419v4.267H0z" class="cls-9" data-name="Rectangle 12864" transform="translate(910.09 179.793)"/>
            <path id="Rectangle_12865" d="M0 0h3.181v4.267H0z" class="cls-9" data-name="Rectangle 12865" transform="translate(914.623 179.793)"/>
            <path id="Tracé_45557" d="M918.121 78.492v99.766h-9.277v-5.436h.875a.723.723 0 0 0 .5-.212.667.667 0 0 0 .265-.557.77.77 0 0 0-.769-.768h-.215v-15.029a1.68 1.68 0 0 0-.663-1.351v-6.282h.875a.851.851 0 0 0 .53-.186.949.949 0 0 0 .239-.583.77.77 0 0 0-.769-.768h-.212v-14.923a1.721 1.721 0 0 0-.663-1.352v-6.149h.875a.852.852 0 0 0 .53-.185.949.949 0 0 0 .239-.583.771.771 0 0 0-.769-.769h-.212v-15.033a1.682 1.682 0 0 0-.663-1.352v-6.176h.875a.738.738 0 0 0 .53-.212.823.823 0 0 0 .239-.556.769.769 0 0 0-.769-.769h-.212V84a1.682 1.682 0 0 0-.663-1.352v-4.16z" class="cls-9" data-name="Tracé 45557"/>
            <path id="Rectangle_12866" d="M0 0h9.277v4.002H0z" class="cls-9" data-name="Rectangle 12866" transform="translate(908.844 185.598)"/>
            <path id="Rectangle_12867" d="M0 0h9.277v2.306H0z" class="cls-9" data-name="Rectangle 12867" transform="translate(908.844 191.164)"/>
            <path id="Rectangle_12868" d="M0 0h9.277v3.737H0z" class="cls-9" data-name="Rectangle 12868" transform="translate(908.844 195.033)"/>
            <path id="Mur" d="M918.042 71.97a.206.206 0 0 1 .026.106v-.106zm-48.054 0v.106a.206.206 0 0 1 .026-.106z" class="cls-6"/>
            <g id="Fenêtre_2_gauche" data-name="Fenêtre 2 gauche">
                <path id="Tracé_45558" d="M890.741 148.649a.77.77 0 0 1-.768.769h-11.738a.771.771 0 0 1-.769-.769.638.638 0 0 1 .106-.4.759.759 0 0 0 .663.371h11.742a.686.686 0 0 0 .636-.371.518.518 0 0 1 .128.4z" class="cls-14" data-name="Tracé 45558"/>
            </g>
            <g id="Fenêtre_2_droite" data-name="Fenêtre 2 droite">
                <path id="Tracé_45559" d="M910.276 148.649a.771.771 0 0 1-.769.769h-11.715a.793.793 0 0 1-.8-.769.759.759 0 0 1 .265-.583.8.8 0 0 0 .742.557h11.715a.851.851 0 0 0 .53-.186.512.512 0 0 1 .032.212z" class="cls-14" data-name="Tracé 45559"/>
                <path id="Tracé_45560" d="M909.719 147.086h-.212v-14.923a1.721 1.721 0 0 0-.663-1.352 1.784 1.784 0 0 0-1.113-.4h-7.739a1.77 1.77 0 0 0-1.776 1.749v14.923H898a.77.77 0 0 0-.769.768.508.508 0 0 0 .027.212.8.8 0 0 0 .742.557h11.715a.851.851 0 0 0 .53-.186.949.949 0 0 0 .239-.583.769.769 0 0 0-.765-.765zm-8.879-3.473h1.511v3.473h-1.511zm7.554 3.473h-1.034v-3.473h1.034zm-1.7 0h-1.511v-3.473h1.511zm-2.174 0h-1.511v-3.473h1.511zm-5.2-14.923a.672.672 0 0 1 .663-.662h7.752a.672.672 0 0 1 .663.662v10.788h-9.065zm0 11.45h.848v3.473h-.848z" class="cls-6" data-name="Tracé 45560"/>
                <g id="Bas_fenêtre_2_droite" data-name="Bas fenêtre 2 droite">
                    <path id="Ligne_1233" d="M.212 0H0" class="cls-5" data-name="Ligne 1233" transform="translate(909.507 147.854)"/>
                </g>
            </g>
            <g id="Fenêtre_1_droite" data-name="Fenêtre 1 droite">
                <path id="Tracé_45561" d="M910.276 172.849a.77.77 0 0 1-.769.768h-11.715a.792.792 0 0 1-.8-.768.626.626 0 0 1 .291-.557.718.718 0 0 0 .716.53h11.715a.723.723 0 0 0 .5-.212.8.8 0 0 1 .062.239z" class="cls-14" data-name="Tracé 45561"/>
            </g>
            <g id="Fenêtre_1_gauche" data-name="Fenêtre 1 gauche">
                <g id="Bas_fenêtre_1_gauche" data-name="Bas fenêtre 1 gauche">
                    <path id="Ligne_1234" d="M.212 0H0" class="cls-5" data-name="Ligne 1234" transform="translate(889.84 172.053)"/>
                    <path id="Ligne_1235" d="M.212 0H0" class="cls-5" data-name="Ligne 1235" transform="translate(878.337 172.053)"/>
                </g>
                <path id="Tracé_45562" d="M890.741 172.849a.768.768 0 0 1-.768.768h-11.738a.77.77 0 0 1-.769-.768.637.637 0 0 1 .186-.478.73.73 0 0 0 .689.451h11.715a.74.74 0 0 0 .61-.318.737.737 0 0 1 .075.345z" class="cls-14" data-name="Tracé 45562"/>
            </g>
            <g id="Balcon_3_gauche" data-name="Balcon 3 gauche">
                <path id="Tracé_45563" d="M890.741 124.692a.77.77 0 0 1-.768.769h-11.738a.771.771 0 0 1-.769-.769.74.74 0 0 1 .159-.477.8.8 0 0 0 .716.45h11.715a.794.794 0 0 0 .61-.291.628.628 0 0 1 .075.318z" class="cls-14" data-name="Tracé 45563"/>
                <path id="Tracé_45564" d="M890.052 123.125h-.212v-15.033a1.776 1.776 0 0 0-1.776-1.776h-7.739a1.776 1.776 0 0 0-1.776 1.776v15.028h-.214a.771.771 0 0 0-.769.769 1.181 1.181 0 0 0 .053.318.8.8 0 0 0 .716.45h11.715a.794.794 0 0 0 .61-.291.742.742 0 0 0 .159-.477.77.77 0 0 0-.767-.764zm-8.879-3.6h1.511v3.6h-1.511zm5.858 3.6h-1.511v-3.6h1.515zm-2.174 0h-1.51v-3.6h1.51zm2.836 0v-3.6h1.034v3.6zm-8.031-15.033a.657.657 0 0 1 .651-.663h7.751a.657.657 0 0 1 .663.651v10.8h-9.065zm0 11.423h.848v3.6h-.848z" class="cls-6" data-name="Tracé 45564"/>
            </g>
            <g id="Balcon_3_droite" data-name="Balcon 3 droite">
                <path id="Tracé_45565" d="M910.276 124.692a.771.771 0 0 1-.769.769h-11.715a.793.793 0 0 1-.8-.769.85.85 0 0 1 .265-.583.8.8 0 0 0 .742.556h11.715a.85.85 0 0 0 .53-.185.5.5 0 0 1 .032.212z" class="cls-14" data-name="Tracé 45565"/>
            </g>
            <g id="Fenêtre_4_gauche" data-name="Fenêtre 4 gauche">
                <g id="Ombre_4_gauche" class="cls-4" data-name="Ombre 4 gauche">
                    <path id="Tracé_45566" d="M890.741 100.569a.774.774 0 0 1-.753.795h-11.753a.775.775 0 0 1-.769-.781v-.014a.742.742 0 0 1 .159-.477.8.8 0 0 0 .61.477h11.821a.74.74 0 0 0 .61-.318.63.63 0 0 1 .075.318z" class="cls-15" data-name="Tracé 45566"/>
                </g>
                <path id="Tracé_45567" d="M890.052 99.032h-.212V84a1.776 1.776 0 0 0-1.776-1.776h-7.739A1.776 1.776 0 0 0 878.549 84v15.032h-.214a.769.769 0 0 0-.769.769.964.964 0 0 0 .053.291.8.8 0 0 0 .61.477h11.821a.739.739 0 0 0 .61-.318.714.714 0 0 0 .159-.45.769.769 0 0 0-.767-.769zM879.662 84a.656.656 0 0 1 .649-.663h7.753a.656.656 0 0 1 .663.649v10.8h-9.065zm.848 15.028h-.848v-3.574h.848zm2.174 0h-1.511v-3.574h1.511zm2.173 0h-1.51v-3.574h1.51zm2.174 0h-1.511v-3.574h1.515zm1.7 0H887.7v-3.574h1.034z" class="cls-6" data-name="Tracé 45567"/>
            </g>
            <g id="Fenêtre_4_droite" data-name="Fenêtre 4 droite">
                <g id="Ombre_4_droite" class="cls-4" data-name="Ombre 4 droite">
                    <path id="Ligne_1236" d="M.212 0H0" class="cls-5" data-name="Ligne 1236" transform="translate(897.792 100.569)"/>
                    <path id="Tracé_45568" d="M910.276 100.569a.775.775 0 0 1-.755.795h-11.729a.8.8 0 0 1-.8-.795.85.85 0 0 1 .265-.583.764.764 0 0 0 .742.583h11.715a.739.739 0 0 0 .53-.212.512.512 0 0 1 .032.212z" class="cls-15" data-name="Tracé 45568"/>
                </g>
                <path id="Tracé_45569" d="M909.719 99.032h-.212V84a1.682 1.682 0 0 0-.663-1.352 1.661 1.661 0 0 0-1.113-.424h-7.739A1.776 1.776 0 0 0 898.216 84v15.032H898a.769.769 0 0 0-.769.769.39.39 0 0 0 .027.185.764.764 0 0 0 .742.583h11.715a.739.739 0 0 0 .53-.212.823.823 0 0 0 .239-.556.769.769 0 0 0-.765-.769zm-9.542 0h-.848v-3.578h.848zm.663 0v-3.578h1.511v3.578zm3.684 0h-1.511v-3.578h1.511zm2.174 0h-1.511v-3.578h1.513zm1.7 0h-1.034v-3.578h1.036zm0-4.241h-9.065V84a.656.656 0 0 1 .649-.663h7.753a.656.656 0 0 1 .663.649v10.8z" class="cls-6" data-name="Tracé 45569"/>
            </g>
            <g id="Entrée">
                <path id="Tracé_45570" d="M919.9 68.657h-51.926a1.075 1.075 0 0 0-1.087 1.063v1.163a1.075 1.075 0 0 0 1.063 1.087h.024a1.913 1.913 0 0 0-.027.4v128.39h52.162V72.368a2.317 2.317 0 0 0-.026-.424 1.083 1.083 0 0 0 .9-1.061v-1.139a1.092 1.092 0 0 0-1.083-1.087zm-5.01 3.313h3.181v4.983h-3.181zm-4.505 0h3.392v4.983h-3.392zm-4.533 0h3.419v4.983h-3.419zm-4.506 0h3.42v4.983h-3.42zm-4.505 0h3.419v4.983h-3.422zm-4.506 0h3.392v4.983h-3.389zm-4.506 0h3.392v4.983h-3.392zm-4.533 0h3.42v4.983h-3.42zm-4.505 0h3.419v4.983h-3.419zm-4.506 0h3.415v4.983h-3.419zm-4.294 0h3.18v4.983h-3.18zm-.053 107.822h2.962v4.267h-2.969zm15.638 18.978h-15.641v-3.738h15.638zm0-5.3h-15.641v-2.306h15.638zm0-3.87h-15.641v-4h15.638zm-11.556-5.54v-4.268h3.392v4.267zm4.506 0v-4.268h3.392v4.267zm7.925 0h-3.42v-4.268h3.42zm6.917 14.711H886.9V185.6h6.467zm-5.83-14.711v-4.268h3.419v4.267zm4.506 0v-4.268h3.419v4.267zm9.144 14.711h-6.493V185.6h6.493zm-4.611-14.711v-4.268h3.392v4.267zm4.5 0v-4.268h3.42v4.267zm17.043 14.711h-15.637v-3.738h15.638zm0-5.3h-15.637v-2.306h15.638zm0-3.87h-15.637v-4h15.638zm-12.537-5.54v-4.269H909v4.267zm4.506 0v-4.269h3.419v4.267zm4.532 0v-4.269h3.179v4.267zm3.5-5.8h-48.186V78.492h48.186z" class="cls-6" data-name="Tracé 45570"/>
                <path id="Tracé_45571" d="M909.719 123.125h-.212v-15.033a1.682 1.682 0 0 0-.663-1.352 1.661 1.661 0 0 0-1.113-.424h-7.739a1.776 1.776 0 0 0-1.776 1.776v15.028H898a.77.77 0 0 0-.769.769.508.508 0 0 0 .027.212.8.8 0 0 0 .742.556h11.715a.852.852 0 0 0 .53-.185.949.949 0 0 0 .239-.583.769.769 0 0 0-.765-.764zm-10.39-15.033a.657.657 0 0 1 .651-.663h7.755a.657.657 0 0 1 .663.651v10.8h-9.065zm.848 15.028h-.848v-3.6h.848zm2.174 0h-1.511v-3.6h1.511zm2.173 0h-1.511v-3.6h1.511zm2.174 0h-1.511v-3.6h1.513zm1.7 0h-1.034v-3.6h1.036z" class="cls-10" data-name="Tracé 45571"/>
            </g>
            <g id="Toit">
                <g id="Groupe_12844" data-name="Groupe 12844">
                    <g id="Groupe_12843" data-name="Groupe 12843">
                        <path id="Tracé_45572" d="M890.052 171.285h-.212v-15.029a1.776 1.776 0 0 0-1.776-1.776h-7.739a1.776 1.776 0 0 0-1.776 1.776v15.029h-.214a.77.77 0 0 0-.769.768.632.632 0 0 0 .08.318.729.729 0 0 0 .689.451h11.715a.739.739 0 0 0 .61-.318.719.719 0 0 0 .159-.451.769.769 0 0 0-.767-.768zm-10.39-15.029a.656.656 0 0 1 .65-.662h7.752a.656.656 0 0 1 .663.649V166.8h-9.065zm.848 15.029h-.848v-3.817h.848zm2.174 0h-1.511v-3.817h1.511zm2.173 0h-1.51v-3.817h1.51zm2.174 0h-1.511v-3.817h1.515zm1.7 0H887.7v-3.817h1.034z" class="cls-6" data-name="Tracé 45572"/>
                        <path id="Tracé_45573" d="M909.719 171.285h-.212v-15.029a1.68 1.68 0 0 0-.663-1.351 1.658 1.658 0 0 0-1.113-.425h-7.739a1.776 1.776 0 0 0-1.776 1.776v15.029H898a.77.77 0 0 0-.769.768.781.781 0 0 0 .053.239.718.718 0 0 0 .716.53h11.715a.723.723 0 0 0 .5-.212.667.667 0 0 0 .265-.557.769.769 0 0 0-.761-.768zm-9.542 0h-.848v-3.817h.848zm2.174 0h-1.511v-3.817h1.511zm2.173 0h-1.511v-3.817h1.511zm2.174 0h-1.511v-3.817h1.513zm1.7 0h-1.034v-3.817h1.036zm0-4.48h-9.065v-10.549a.656.656 0 0 1 .65-.662h7.752a.656.656 0 0 1 .663.649V166.8z" class="cls-6" data-name="Tracé 45573"/>
                        <path id="Tracé_45574" d="M889.973 147.086h-.238v-14.923a1.77 1.77 0 0 0-1.776-1.749h-7.739a1.747 1.747 0 0 0-1.749 1.745v14.927h-.236a.77.77 0 0 0-.769.768.874.874 0 0 0 .106.4.759.759 0 0 0 .663.371h11.742a.686.686 0 0 0 .636-.371.656.656 0 0 0 .132-.4.768.768 0 0 0-.768-.768zm-10.417-14.923a.672.672 0 0 1 .663-.662h7.739a.7.7 0 0 1 .69.662v10.788h-9.092zm.954 14.923h-.954v-3.473h.954zm2.174 0h-1.511v-3.473h1.511zm2.173 0h-1.51v-3.473h1.51zm2.174 0h-1.511v-3.473h1.515zm1.617 0h-.955v-3.473h.955z" class="cls-6" data-name="Tracé 45574"/>
                    </g>
                </g>
            </g>
        </g>
        <g id="Groupe_12869" data-name="Groupe 12869">
            <path id="Tracé_45575" d="M910.4 296.869h-7.142l-8.314-13.428h4.371z" class="cls-16" data-name="Tracé 45575"/>
            <path id="Tracé_45576" d="M848.524 313.982a5.289 5.289 0 0 0-.086.972v5.938a.739.739 0 0 0-.629.743v.028h-6.942v-7.681z" class="cls-16" data-name="Tracé 45576"/>
            <path id="Tracé_45577" d="M903.89 342.037v4.2h-.055v-4.428a.533.533 0 0 1 .055.228z" class="cls-16" data-name="Tracé 45577"/>
            <path id="Tracé_45578" d="M910.776 302.892v42.8h-5.771v-3.657a1.638 1.638 0 0 0-1.172-1.6v-37.543z" class="cls-16" data-name="Tracé 45578"/>
            <path id="Rectangle_12869" d="M0 0h7.571v1.143H0z" class="cls-16" data-name="Rectangle 12869" transform="translate(903.833 299.869)"/>
            <path id="Tracé_45579" d="M838.981 298.726v2.286h1.886V298.9h69.909v2.114h1.885v-2.286zm64.854 46.966v.543h.057v-.543z" class="cls-10" data-name="Tracé 45579"/>
            <g id="Groupe_12848" data-name="Groupe 12848">
                <g id="Groupe_12847" data-name="Groupe 12847">
                    <path id="Tracé_45580" d="M862.694 322.039v.114a1.023 1.023 0 0 1-1.02 1.028h-12.839a1.023 1.023 0 0 1-1.029-1.019v-.123c0-.057 0-.115.029-.143a.77.77 0 0 0 .743.571h13.341a.77.77 0 0 0 .743-.571c.032.028.032.086.032.143z" class="cls-13" data-name="Tracé 45580"/>
                    <g id="Groupe_12846" data-name="Groupe 12846">
                        <path id="Tracé_45581" d="M861.094 314.382h-11.713a5.884 5.884 0 0 1 11.713 0z" class="cls-11" data-name="Tracé 45581"/>
                        <path id="Rectangle_12870" d="M0 0h11.77v5.314H0z" class="cls-11" data-name="Rectangle 12870" transform="translate(849.352 315.525)"/>
                        <path id="Tracé_45582" d="M862.065 320.892v-5.942a6.8 6.8 0 0 0-13.541-.972 5.289 5.289 0 0 0-.086.972v5.942a.739.739 0 0 0-.629.743v.028h.086a.312.312 0 0 0-.057.229.769.769 0 0 0 .743.571h13.341a.769.769 0 0 0 .743-.571.346.346 0 0 0 .029-.171v-.086a.739.739 0 0 0-.629-.743zm-6.83-11.824a5.872 5.872 0 0 1 5.857 5.314h-11.711a5.89 5.89 0 0 1 5.854-5.314zm5.885 11.771h-11.77v-5.314h11.77z" class="cls-6" data-name="Tracé 45582"/>
                    </g>
                    <path id="Tracé_45583" d="M847.9 321.667a.312.312 0 0 0-.057.229.346.346 0 0 1-.029-.171v-.058z" class="cls-6" data-name="Tracé 45583"/>
                </g>
            </g>
            <g id="Groupe_12850" data-name="Groupe 12850">
                <path id="Tracé_45584" d="M901.835 322.039v.114a1.042 1.042 0 0 1-1.028 1.028h-12.858a1.018 1.018 0 0 1-1-1.028v-.114a.218.218 0 0 1 .028-.143.715.715 0 0 0 .715.571h13.37a.772.772 0 0 0 .743-.571.218.218 0 0 1 .03.143z" class="cls-13" data-name="Tracé 45584"/>
                <g id="Groupe_12849" data-name="Groupe 12849">
                    <path id="Tracé_45585" d="M900.235 314.382H888.52a5.885 5.885 0 0 1 11.714 0z" class="cls-11" data-name="Tracé 45585"/>
                    <path id="Rectangle_12871" d="M0 0h11.77v5.314H0z" class="cls-11" data-name="Rectangle 12871" transform="translate(888.492 315.525)"/>
                    <path id="Tracé_45586" d="M901.205 320.892v-5.942a6.828 6.828 0 1 0-13.656 0v5.942a.716.716 0 0 0-.6.743v.086a.372.372 0 0 0 .028.171.715.715 0 0 0 .715.571h13.37a.772.772 0 0 0 .743-.571.372.372 0 0 0 .028-.171v-.086a.739.739 0 0 0-.628-.743zm-6.828-11.828a5.872 5.872 0 0 1 5.857 5.314H888.52a5.871 5.871 0 0 1 5.857-5.31zm5.885 11.771h-11.77v-5.314h11.77z" class="cls-6" data-name="Tracé 45586"/>
                </g>
            </g>
            <g id="Groupe_12852" data-name="Groupe 12852">
                <g id="Groupe_12851" data-name="Groupe 12851">
                    <path id="Ligne_1237" d="M0 0h1.688" class="cls-5" data-name="Ligne 1237" transform="translate(872.353 339.131)"/>
                </g>
            </g>
            <path id="Tracé_45587" d="M913.718 298.726h-1.8l.2.229h-72.083l.2-.229h-1.8a.028.028 0 0 0-.029.027v1.63a1.771 1.771 0 0 0 .571.372 2.529 2.529 0 0 0 .458.057h73.279a1.522 1.522 0 0 0 1.029-.429v-1.628z" class="cls-10" data-name="Tracé 45587"/>
            <g id="Groupe_12853" data-name="Groupe 12853">
                <path id="Tracé_45588" d="M913.747 298.755v2.257H838.41v-2.257a.028.028 0 0 1 .027-.029h75.281z" class="cls-11" data-name="Tracé 45588"/>
            </g>
            <g id="Plante-2">
                <path id="Tracé_45589" d="M886.72 329.038c-.028.029-.057.086-.085.114l-.115-.114.115.057z" class="cls-6" data-name="Tracé 45589"/>
                <path id="Tracé_45590" d="M889.977 336.723v.629a2.065 2.065 0 0 1-.028-.4v-.06a.375.375 0 0 1 .028-.169z" class="cls-6" data-name="Tracé 45590"/>
                <path id="Tracé_45591" d="M899.6 329.924l-.029.057c-.028 0-.057-.029-.085-.029z" class="cls-6" data-name="Tracé 45591"/>
                <path id="Tracé_45592" d="M899.719 329.809l-.114.114.057-.143z" class="cls-6" data-name="Tracé 45592"/>
                <path id="Tracé_45593" d="M858.266 328.524l-.029.028c-.057.029-.086.058-.143.058l-.028-.029.057-.029z" class="cls-6" data-name="Tracé 45593"/>
                <path id="Tracé_45594" d="M861.351 334.692v.085a.95.95 0 0 1-.029.286v-.743a1.724 1.724 0 0 1 .029.372z" class="cls-6" data-name="Tracé 45594"/>
                <path id="Tracé_45595" d="M868.235 323.867c-.028 0-.028.029-.028.057-.029-.028-.058-.028-.086-.057z" class="cls-6" data-name="Tracé 45595"/>
                <path id="Tracé_45596" d="M872.35 314.292c-.029 0-.029.029-.057.029a.372.372 0 0 0 .028-.171.258.258 0 0 1 .029.142z" class="cls-6" data-name="Tracé 45596"/>
                <g id="Groupe_12856" data-name="Groupe 12856">
                    <g id="Groupe_12855" data-name="Groupe 12855">
                        <g id="Groupe_12854" data-name="Groupe 12854">
                            <path id="Tracé_45597" d="M899.491 329.952c.028 0 .057.029.085.029l.029-.057zm.171-.171l-.057.143.114-.115z" class="cls-6" data-name="Tracé 45597"/>
                        </g>
                    </g>
                </g>
                <g id="Groupe_12859" data-name="Groupe 12859">
                    <g id="Groupe_12858" data-name="Groupe 12858">
                        <g id="Groupe_12857" data-name="Groupe 12857">
                            <path id="Tracé_45598" d="M889.377 336.838v.114a.536.536 0 0 0 .029.228v-.514a.35.35 0 0 0-.029.172z" class="cls-6" data-name="Tracé 45598"/>
                            <path id="Tracé_45599" d="M889.377 336.838v.114a.536.536 0 0 0 .029.228v-.514a.35.35 0 0 0-.029.172z" class="cls-6" data-name="Tracé 45599"/>
                            <path id="Tracé_45600" d="M913.718 296.869h-.883l-12.63-15.284h-48.253l-12.628 15.284h-.889a1.866 1.866 0 0 0-1.886 1.846v2.3a1.883 1.883 0 0 0 1.886 1.88h.542v44.654h73.68v-44.657h1.057a1.9 1.9 0 0 0 1.886-1.885v-2.257a1.884 1.884 0 0 0-1.882-1.881zm-60.909-13.427h46.51l11.081 13.427h-68.647zm11.742 62.25h-16.916v-3.657c0-.286.2-.543.4-.543h16.113c.228 0 .4.257.4.543zm-9.716-8.54a.951.951 0 0 1 .029-.286 1.453 1.453 0 0 1 .485-.971 1.541 1.541 0 0 1 1.457-.429 1.71 1.71 0 0 1-.457 1.457 1.75 1.75 0 0 1-1.485.429.414.414 0 0 1-.029-.2zm6.485-2.086a1.839 1.839 0 0 1-1.685-.543 1.907 1.907 0 0 1-.486-1.685 1.862 1.862 0 0 1 2.171 1.485 1.717 1.717 0 0 1 .029.372v.085a.984.984 0 0 1-.027.286zm19.115 10.626h-9.885v-10a4.943 4.943 0 0 1 9.885-.14v.14zm23.455.543h-.055v-.543h-18.486v-3.657a.533.533 0 0 1 .486-.543h17.57a.571.571 0 0 1 .485.543zm-14.484-9.057a.536.536 0 0 1-.029-.228 1.928 1.928 0 0 1-.057.4 2.34 2.34 0 0 1-2.685-2.8 2.384 2.384 0 0 1 2.085.686 2.3 2.3 0 0 1 .657 1.6.35.35 0 0 1 .029-.172zm21.37 8.514h-5.771v-3.657a1.638 1.638 0 0 0-1.172-1.6 2.214 2.214 0 0 0-.428-.057h-13.428v-2.426c.143 0 .286.028.429.028a3.011 3.011 0 0 0 2.085-.828 2.916 2.916 0 0 0 .8-2.8l-.057-.143-.143-.057a2.94 2.94 0 0 0-2.828.714 3.026 3.026 0 0 0-.286.343v-3.571l4.171 1.228a3.816 3.816 0 0 0 1.143.172 4 4 0 0 0 3.057-1.486l1.228-1.571c-.028 0-.057-.029-.085-.029l.114-.028.057-.143.057.028-.114.115-.029.057a2.476 2.476 0 0 0 .658.086 2.864 2.864 0 0 0 2.085-.8 2.9 2.9 0 0 0 .771-2.8l-.028-.171-.143-.029a2.923 2.923 0 0 0-2.828.686 2.286 2.286 0 0 0-.572.828 2.849 2.849 0 0 0-.571-.828 2.916 2.916 0 0 0-2.8-.8l-.171.028-.029.172a2.879 2.879 0 0 0 2.743 3.685h.143l-.943 1.171a3.341 3.341 0 0 1-3.571 1.115l-4.457-1.314-.086-.029-2.714-2.2c.057-.029.086-.086.114-.114a2.136 2.136 0 0 0 .658-1.572 2.256 2.256 0 0 0-1.115-1.942l-.114-.057-.114.057a2.255 2.255 0 0 0-1.114 1.942.563.563 0 0 0 .057.315 8.438 8.438 0 0 1-2.714-4.029l-2.486-7.856a.71.71 0 0 0 .229.029 2.334 2.334 0 0 0 1.628-.629 2.284 2.284 0 0 0 .629-2.143l-.029-.114-.114-.029a2.3 2.3 0 0 0-2.2.515 1.85 1.85 0 0 0-.457.6 2.163 2.163 0 0 0-.4-.629 2.217 2.217 0 0 0-2.143-.628l-.143.028-.028.114a2.232 2.232 0 0 0 .514 2.172 2.3 2.3 0 0 0 1.571.714 1.365 1.365 0 0 0 .343-.029l2.543 8.028a9.156 9.156 0 0 0 2.743 4.229.264.264 0 0 0-.143-.029 2.258 2.258 0 0 0-1.943 1.114l-.057.114.057.115a2.233 2.233 0 0 0 3.051.813 2.195 2.195 0 0 0 .463-.356 1.851 1.851 0 0 0 .286-.372l-.115-.114.115.057.085-.057c-.028.029-.057.086-.085.114l2.771 2.229v3.8a3.124 3.124 0 0 0-.286-.342 2.983 2.983 0 0 0-2.8-.8l-.142.057-.058.143a2.941 2.941 0 0 0 .715 2.828 2.83 2.83 0 0 0 2.057.886 1.593 1.593 0 0 0 .514-.057v2.485h-3.571a1.628 1.628 0 0 0-1.6 1.656v3.654h-2.314v-10a6.443 6.443 0 0 0-12.885-.16v10.16h-3.371v-3.657a1.6 1.6 0 0 0-1.514-1.657h-2.257v-4.857a.943.943 0 0 0 .285.029 2.277 2.277 0 0 0 1.658-.629 2.426 2.426 0 0 0 .628-2.257l-.028-.114-.143-.028a2.283 2.283 0 0 0-2.229.542 1.3 1.3 0 0 0-.171.2v-1.428l2.543-2.571a19.484 19.484 0 0 0 3.771-5.343c-.029-.028-.058-.028-.086-.057h.114c-.028 0-.028.029-.028.057a2.116 2.116 0 0 0 .457.172 2.195 2.195 0 0 0 1.685-.257 2.258 2.258 0 0 0 1.114-1.943v-.114l-.114-.057a2.218 2.218 0 0 0-2.228 0c-.029.028-.057.028-.086.057.029-.029.029-.029.029-.057l.628-1.915a6.547 6.547 0 0 1 1.057-2.028l1.543-1.971a2.994 2.994 0 0 0 .571-1.229 2.223 2.223 0 0 0 .429-.057 2.311 2.311 0 0 0 1.343-1.086 2.224 2.224 0 0 0-.057-2.228l-.058-.114h-.142a2.262 2.262 0 0 0-1.915 1.171.464.464 0 0 0-.085.257c-.029-.057-.086-.085-.115-.143l-3.629-4.488c.086-.029.143-.057.229-.086a2.223 2.223 0 0 0 1.228-3.314l-.057-.114h-.143a2.213 2.213 0 0 0-1.885 1.2 2.637 2.637 0 0 0-.229.771 2.113 2.113 0 0 0-.6-.514 2.274 2.274 0 0 0-2.257.086l-.086.086v.114a2.212 2.212 0 0 0 1.2 1.885 2.175 2.175 0 0 0 1.686.172.549.549 0 0 0 .286-.143l3.628 4.457a2.289 2.289 0 0 0-2.228.057l-.115.085v.115a2.226 2.226 0 0 0 1.172 1.914 2.172 2.172 0 0 0 1.685.171h.057a2.649 2.649 0 0 1-.343.629l-1.542 1.971a7.113 7.113 0 0 0-1.172 2.2l-.628 1.914a1.407 1.407 0 0 1-.114.314 1.831 1.831 0 0 0-.143-.342 2.255 2.255 0 0 0-1.943-1.115h-.114l-.086.115a2.291 2.291 0 0 0 .029 2.228 2.253 2.253 0 0 0 1.371 1.028c.028 0 .086.029.114.029a18.557 18.557 0 0 1-3.6 5.057l-2.429 2.457-2.857-2.857c.029 0 .057-.029.086-.029a2.341 2.341 0 0 0 1.314-1.085 2.272 2.272 0 0 0-.086-2.257l-.085-.086h-.115a2.212 2.212 0 0 0-1.885 1.2 1.849 1.849 0 0 0-.229.771 2.179 2.179 0 0 0-2.857-.428l-.114.057.029.143a2.277 2.277 0 0 0 1.171 1.885 2.25 2.25 0 0 0 1.714.143 1.011 1.011 0 0 0 .4-.171l-.028-.029.057-.029.143-.028-.029.028c-.057.029-.086.058-.143.058l3.228 3.228v1.459a1.585 1.585 0 0 0-.171-.229 2.3 2.3 0 0 0-2.228-.628l-.143.028-.029.115a2.347 2.347 0 0 0 .572 2.257 2.373 2.373 0 0 0 1.628.714.841.841 0 0 0 .371-.057v4.885h-6.342v-2.625c.057 0 .143.028.2.028a2.043 2.043 0 0 0 2-2.514l-.029-.114-.114-.029a2.008 2.008 0 0 0-1.971.486 1.589 1.589 0 0 0-.4.572 1.7 1.7 0 0 0-.4-.6 2.013 2.013 0 0 0-1.943-.543l-.114.028-.029.114a1.969 1.969 0 0 0 .514 1.943 1.936 1.936 0 0 0 1.4.629 1.071 1.071 0 0 0 .314-.029v2.657h-6.371a1.6 1.6 0 0 0-1.514 1.657v3.655h-5.657v-42.8h69.909zm-20.827-8.742v-.058a.374.374 0 0 1 .028-.172 2.258 2.258 0 0 1 .686-1.457 2.29 2.29 0 0 1 2.114-.6 2.385 2.385 0 0 1-.686 2.086 2.288 2.288 0 0 1-2.114.6 2.113 2.113 0 0 1-.028-.4zm9.2-7.514a2.343 2.343 0 0 1-2.086-.657 2.431 2.431 0 0 1-.628-2.114 2.4 2.4 0 0 1 2.114.657 2.363 2.363 0 0 1 .657 1.628v.115a2.038 2.038 0 0 1-.058.373zm.629-.4v-.028a2.18 2.18 0 0 1 .685-1.629 2.427 2.427 0 0 1 2.114-.628 2.314 2.314 0 0 1-.657 2.085 2.428 2.428 0 0 1-2.114.629 2.262 2.262 0 0 1-.029-.427zm-13.743-1.083a.029.029 0 0 0-.027-.029 2.091 2.091 0 0 1-.2-.829.958.958 0 1 1 1.6 0 1.72 1.72 0 0 1-.686 1.4zm.228 1a1.828 1.828 0 0 1-1.485.8.958.958 0 1 1 0-1.6 1.557 1.557 0 0 1 .828.2 4.119 4.119 0 0 1 .372.258c0 .028.028.028.057.057a2.488 2.488 0 0 1 .228.284zm-6.113-13.884a1.85 1.85 0 0 1-.029-.4 1.77 1.77 0 0 1 .571-1.2 1.888 1.888 0 0 1 1.629-.457 1.833 1.833 0 0 1-.543 1.6 1.731 1.731 0 0 1-1.628.456zm-.458-.372v.086a.986.986 0 0 1-.028.286 1.913 1.913 0 0 1-1.629-.543 1.787 1.787 0 0 1-.428-1.628 1.728 1.728 0 0 1 1.6.542 1.875 1.875 0 0 1 .485 1.252zm-17.8 20.37v-.885a1.857 1.857 0 0 1 .485-.772 1.813 1.813 0 0 1 1.686-.485 1.968 1.968 0 0 1-.543 1.657 1.768 1.768 0 0 1-1.626.484zm5.914-11.656a1.848 1.848 0 0 1-1.286-.857.963.963 0 1 1 1.371-.828 2.132 2.132 0 0 1 .257.857v.028c-.113.256-.226.513-.34.8zm.657.143a1.43 1.43 0 0 1 .057-.343v-.029c0-.028 0-.028.028-.057a1.012 1.012 0 0 1 .172-.4 1.885 1.885 0 0 1 .628-.628 1.845 1.845 0 0 1 1.686-.057 1.8 1.8 0 0 1-.886 1.428 1.771 1.771 0 0 1-1.683.085zm3.885-9.257c-.029 0-.029.029-.057.029a1.726 1.726 0 0 1-1.628-.029 1.881 1.881 0 0 1-.915-1.428 1.85 1.85 0 0 1 1.686.029 1.718 1.718 0 0 1 .885 1.228v.029a.251.251 0 0 1 .031.137zm.314-1.228v-.029a1.96 1.96 0 0 1 .2-.571 1.785 1.785 0 0 1 1.4-.914 1.693 1.693 0 0 1-.028 1.685 1.883 1.883 0 0 1-1.343.915 2.747 2.747 0 0 0-.227-1.087zm-4.256-5.6a3.051 3.051 0 0 1-.143-.314 1.908 1.908 0 0 1 .114-1.371 1.865 1.865 0 0 1 1.4-.943 1.765 1.765 0 0 1-1.371 2.628zm-.486.143a1.8 1.8 0 0 1-2.657-1.371 1.819 1.819 0 0 1 1.714 0 1.9 1.9 0 0 1 .857.914.255.255 0 0 0 .029.143 1.235 1.235 0 0 1 .059.313zm-9.569 20.48a1.407 1.407 0 0 1-.114-.314 1.765 1.765 0 0 1 .114-1.371 1.848 1.848 0 0 1 1.4-.971 1.819 1.819 0 0 1 0 1.714 1.768 1.768 0 0 1-1.4.942zm-.457.143a1.762 1.762 0 0 1-1.685 0 1.8 1.8 0 0 1-.972-1.4 1.85 1.85 0 0 1 1.686 0 1.947 1.947 0 0 1 .885 1.029c.027.117.057.228.086.374zm-3.485 9.085a1.594 1.594 0 0 1-1.857-1.942 1.673 1.673 0 0 1 1.457.485 1.622 1.622 0 0 1 .4 1.46zm59.338-36.311H838.41v-2.257a.028.028 0 0 1 .027-.029h75.281l.029.029z" class="cls-6" data-name="Tracé 45600"/>
                            <path id="Tracé_45601" d="M874.521 339.123a.5.5 0 0 1-.485.486h-1.686a.476.476 0 0 1-.457-.486.451.451 0 0 1 .445-.457h1.7a.476.476 0 0 1 .483.457z" class="cls-6" data-name="Tracé 45601"/>
                        </g>
                    </g>
                </g>
                <g id="Groupe_12862" data-name="Groupe 12862">
                    <g id="Groupe_12861" data-name="Groupe 12861">
                        <g id="Groupe_12860" data-name="Groupe 12860">
                            <path id="Tracé_45602" d="M858.123 328.552l-.057.029.028.029c.057 0 .086-.029.143-.058l.029-.028z" class="cls-6" data-name="Tracé 45602"/>
                        </g>
                    </g>
                </g>
                <g id="Groupe_12865" data-name="Groupe 12865">
                    <g id="Groupe_12864" data-name="Groupe 12864">
                        <g id="Groupe_12863" data-name="Groupe 12863">
                            <path id="Tracé_45603" d="M868.122 323.867c.028.029.057.029.086.057 0-.028 0-.057.028-.057z" class="cls-6" data-name="Tracé 45603"/>
                        </g>
                    </g>
                </g>
                <g id="Groupe_12868" data-name="Groupe 12868">
                    <g id="Groupe_12867" data-name="Groupe 12867">
                        <g id="Groupe_12866" data-name="Groupe 12866">
                            <path id="Tracé_45604" d="M886.635 329.092l-.115-.057.115.114c.028-.028.057-.085.085-.114z" class="cls-6" data-name="Tracé 45604"/>
                        </g>
                    </g>
                </g>
            </g>
            <g id="Lucarne_haut" data-name="Lucarne haut">
                <path id="Tracé_45605" d="M877.121 286.7a6.131 6.131 0 0 0-6.142 6.122v.477h12.284v-.457a6.132 6.132 0 0 0-6.122-6.142zm0 .914a5.242 5.242 0 0 1 5.2 4.742h-10.4a5.239 5.239 0 0 1 5.2-4.743z" class="cls-6" data-name="Tracé 45605"/>
                <path id="Rectangle_12872" d="M0 0h11.371v.6H0z" class="cls-17" data-name="Rectangle 12872" transform="translate(871.436 293.298)"/>
            </g>
        </g>
        <g id="Groupe_14549" data-name="Groupe 14549">
            <path id="Rectangle_14729" d="M0 0h3.897v30.561H0z" class="cls-9" data-name="Rectangle 14729" transform="rotate(-52.55 830.173 -379.302)"/>
            <path id="Rectangle_14730" d="M0 0h6.219v15.358H0z" class="cls-9" data-name="Rectangle 14730" transform="translate(605.314 556.14)"/>
            <path id="Rectangle_14731" d="M0 0h7.018v46.253H0z" class="cls-9" data-name="Rectangle 14731" transform="translate(647.759 525.245)"/>
            <g id="Groupe_14547" data-name="Groupe 14547">
                <g id="Groupe_14533" data-name="Groupe 14533">
                    <path id="Tracé_50628" d="M645.229 518.454l-6.887-4.91V510.2a1.568 1.568 0 0 1 1.567-1.568h3.752a1.568 1.568 0 0 1 1.568 1.568z" class="cls-11" data-name="Tracé 50628"/>
                    <path id="Tracé_50629" d="M646.094 520.134l-8.618-6.144v-3.79a2.437 2.437 0 0 1 2.433-2.434h3.752a2.436 2.436 0 0 1 2.433 2.434zm-6.887-7.036l5.156 3.676V510.2a.7.7 0 0 0-.7-.7h-3.752a.7.7 0 0 0-.7.7z" class="cls-10" data-name="Tracé 50629"/>
                </g>
                <path id="Tracé_50630" d="M656.025 573.1h-52.368v-46.874h52.368zm-50.636-1.732h48.9v-43.411h-48.9z" class="cls-10" data-name="Tracé 50630"/>
                <path id="Tracé_50631" d="M653.742 527.47h-47.8a1.346 1.346 0 0 1-.818-2.415l24.719-18.92 24.719 18.92a1.346 1.346 0 0 1-.818 2.415zm-46.664-1.732H652.6l-22.763-17.423z" class="cls-10" data-name="Tracé 50631"/>
                <g id="Groupe_14534" data-name="Groupe 14534">
                    <rect id="Rectangle_14732" width="54.095" height="3.598" class="cls-11" data-name="Rectangle 14732" rx=".434" transform="translate(602.793 526.071)"/>
                    <path id="Tracé_50632" d="M656.009 530.535h-52.336a1.747 1.747 0 0 1-1.745-1.745v-1.839a1.747 1.747 0 0 1 1.745-1.746h52.336a1.747 1.747 0 0 1 1.745 1.746v1.839a1.747 1.747 0 0 1-1.745 1.745zm-52.336-3.6a.015.015 0 0 0-.014.015v1.839a.014.014 0 0 0 .014.014h52.336a.014.014 0 0 0 .014-.014v-1.839a.015.015 0 0 0-.014-.015z" class="cls-10" data-name="Tracé 50632"/>
                </g>
                <g id="Groupe_14535" data-name="Groupe 14535">
                    <circle id="Ellipse_3040" cx="3.936" cy="3.936" r="3.936" class="cls-11" data-name="Ellipse 3040" transform="translate(626.183 514.639)"/>
                    <path id="Tracé_50633" d="M630.119 523.032a4.456 4.456 0 1 1 4.456-4.456 4.46 4.46 0 0 1-4.456 4.456zm0-7.873a3.417 3.417 0 1 0 3.417 3.417 3.421 3.421 0 0 0-3.417-3.417z" class="cls-10" data-name="Tracé 50633"/>
                </g>
                <path id="Tracé_50634" d="M622.78 572.378h-1.38V557.5h-9.17v14.874h-1.39v-16.255h11.94z" class="cls-10" data-name="Tracé 50634"/>
                <g id="Groupe_14538" data-name="Groupe 14538">
                    <g id="Groupe_14537" data-name="Groupe 14537">
                        <rect id="Rectangle_14733" width="13.807" height="1.998" class="cls-13" data-name="Rectangle 14733" rx=".241" transform="translate(609.847 548.484)"/>
                        <g id="Groupe_14536" data-name="Groupe 14536">
                            <path id="Rectangle_14734" d="M1.423 0h8.942a1.423 1.423 0 0 1 1.423 1.423v10.366H0V1.423A1.423 1.423 0 0 1 1.423 0z" class="cls-11" data-name="Rectangle 14734" transform="translate(610.856 536.966)"/>
                            <path id="Tracé_50635" d="M623.078 549.188h-12.655v-10.98a1.677 1.677 0 0 1 1.675-1.675h9.3a1.677 1.677 0 0 1 1.675 1.675zm-11.789-.866h10.923v-10.114a.811.811 0 0 0-.809-.81h-9.3a.811.811 0 0 0-.809.81z" class="cls-10" data-name="Tracé 50635"/>
                        </g>
                        <rect id="Rectangle_14735" width="13.807" height="1.484" class="cls-6" data-name="Rectangle 14735" rx=".179" transform="translate(609.847 548.354)"/>
                    </g>
                    <path id="Rectangle_14736" d="M0 0h1.039v12.517H0z" class="cls-6" data-name="Rectangle 14736" transform="translate(616.231 536.966)"/>
                    <path id="Rectangle_14737" d="M0 0h11.726v1.039H0z" class="cls-6" data-name="Rectangle 14737" transform="translate(610.92 542.341)"/>
                </g>
                <g id="Groupe_14540" data-name="Groupe 14540">
                    <rect id="Rectangle_14738" width="13.807" height="1.998" class="cls-13" data-name="Rectangle 14738" rx=".241" transform="translate(634.851 548.484)"/>
                    <g id="Groupe_14539" data-name="Groupe 14539">
                        <path id="Rectangle_14739" d="M1.423 0h8.942a1.423 1.423 0 0 1 1.423 1.423v10.366H0V1.423A1.423 1.423 0 0 1 1.423 0z" class="cls-11" data-name="Rectangle 14739" transform="translate(635.86 536.966)"/>
                        <path id="Tracé_50636" d="M648.082 549.188h-12.654v-10.98a1.676 1.676 0 0 1 1.675-1.675h9.3a1.676 1.676 0 0 1 1.675 1.675zm-11.789-.866h10.924v-10.114a.811.811 0 0 0-.81-.81h-9.3a.811.811 0 0 0-.81.81z" class="cls-10" data-name="Tracé 50636"/>
                    </g>
                    <rect id="Rectangle_14740" width="13.807" height="1.484" class="cls-6" data-name="Rectangle 14740" rx=".179" transform="translate(634.851 548.354)"/>
                    <path id="Rectangle_14741" d="M0 0h1.039v12.517H0z" class="cls-6" data-name="Rectangle 14741" transform="translate(641.424 536.966)"/>
                    <path id="Rectangle_14742" d="M0 0h11.725v1.039H0z" class="cls-6" data-name="Rectangle 14742" transform="translate(636.112 542.341)"/>
                </g>
                <g id="Groupe_14543" data-name="Groupe 14543">
                    <g id="Groupe_14542" data-name="Groupe 14542">
                        <g id="Groupe_14541" data-name="Groupe 14541">
                            <path id="Tracé_50637" d="M634.481 563.011a2.706 2.706 0 0 1-.7-.091l-.147-.039-.039-.147a2.7 2.7 0 0 1 3.307-3.307l.147.039.039.147a2.7 2.7 0 0 1-2.612 3.4zm-.409-.563a2.173 2.173 0 1 0 .6-1.952 2.189 2.189 0 0 0-.6 1.952z" class="cls-6" data-name="Tracé 50637"/>
                            <path id="Tracé_50638" d="M633.06 563.011a2.7 2.7 0 0 1-2.612-3.4l.039-.147.147-.039a2.7 2.7 0 0 1 3.308 3.307l-.039.147-.148.039a2.7 2.7 0 0 1-.695.093zm-2.139-3.111a2.173 2.173 0 1 0 1.951.6 2.186 2.186 0 0 0-1.951-.6z" class="cls-6" data-name="Tracé 50638"/>
                        </g>
                        <path id="Tracé_50639" d="M633.771 565.965a.393.393 0 0 1-.394-.394v-2.779a.393.393 0 1 1 .787 0v2.779a.393.393 0 0 1-.393.394z" class="cls-6" data-name="Tracé 50639"/>
                    </g>
                </g>
                <g id="Groupe_14546" data-name="Groupe 14546">
                    <g id="Groupe_14545" data-name="Groupe 14545">
                        <g id="Groupe_14544" data-name="Groupe 14544">
                            <path id="Tracé_50640" d="M642.091 558.057a2.722 2.722 0 0 1-.7-.092l-.149-.04-.04-.148a2.731 2.731 0 0 1 3.345-3.345l.149.039.039.149a2.728 2.728 0 0 1-2.641 3.437zm-.414-.57a2.2 2.2 0 1 0 .6-1.974 2.215 2.215 0 0 0-.6 1.974z" class="cls-6" data-name="Tracé 50640"/>
                            <path id="Tracé_50641" d="M640.653 558.057a2.728 2.728 0 0 1-2.641-3.437l.039-.149.149-.039a2.73 2.73 0 0 1 3.345 3.345l-.04.148-.148.04a2.735 2.735 0 0 1-.704.092zm-2.164-3.147a2.2 2.2 0 1 0 1.974.6 2.212 2.212 0 0 0-1.974-.6z" class="cls-6" data-name="Tracé 50641"/>
                        </g>
                        <path id="Tracé_50642" d="M641.372 565.71a.4.4 0 0 1-.4-.4v-7.477a.4.4 0 0 1 .8 0v7.477a.4.4 0 0 1-.4.4z" class="cls-6" data-name="Tracé 50642"/>
                    </g>
                </g>
                <path id="Tracé_50643" d="M646.4 571.5h-1.039v-4.581a.484.484 0 0 0-.448-.513h-16.3a.484.484 0 0 0-.448.513v4.581h-1.039v-4.581a1.522 1.522 0 0 1 1.487-1.551h16.3a1.522 1.522 0 0 1 1.487 1.551z" class="cls-6" data-name="Tracé 50643"/>
            </g>
            <g id="Groupe_14548" data-name="Groupe 14548">
                <path id="Ligne_1380" d="M0 0h1.566" class="cls-11" data-name="Ligne 1380" transform="translate(613.39 564.594)"/>
                <path id="Tracé_50644" d="M614.956 565.027h-1.566a.432.432 0 0 1 0-.865h1.566a.432.432 0 1 1 0 .865z" class="cls-10" data-name="Tracé 50644"/>
            </g>
        </g>
    </g>
</svg>
