<svg id="Calque_1" data-name="Calque 1" xmlns="http://www.w3.org/2000/svg" viewBox="0 0 180 180"><defs><style>.cls-1,.cls-3{fill:#702963;}.cls-1{opacity:0.1;}.cls-2{opacity:0.2;}</style></defs><circle class="cls-1" cx="90.15" cy="90" r="90"/><g class="cls-2"><path id="Tracé_49200" data-name="Tracé 49200" class="cls-3" d="M158.63,57.83h-7.88a1.08,1.08,0,0,1,0-2.15h7.88a1.08,1.08,0,0,1,0,2.15Z"/><path id="Tracé_49200-2" data-name="Tracé 49200" class="cls-3" d="M81.73,36.59H73.85a1.07,1.07,0,1,1,0-2.14h7.88a1.07,1.07,0,0,1,0,2.14Z"/><path id="Tracé_49200-3" data-name="Tracé 49200" class="cls-3" d="M100.82,113.44H92.94a1.07,1.07,0,0,1,0-2.14h7.88a1.07,1.07,0,0,1,0,2.14Z"/><path id="Tracé_49200-4" data-name="Tracé 49200" class="cls-3" d="M70.94,21.33H63.07a1.07,1.07,0,0,1,0-2.14h7.87a1.07,1.07,0,1,1,0,2.14Z"/><path id="Tracé_49200-5" data-name="Tracé 49200" class="cls-3" d="M164.38,107.18H156.5a1.08,1.08,0,0,1,0-2.15h7.88a1.08,1.08,0,0,1,0,2.15Z"/><path id="Tracé_49200-6" data-name="Tracé 49200" class="cls-3" d="M30,72H22.14a1.08,1.08,0,0,1,0-2.15H30A1.08,1.08,0,0,1,30,72Z"/><path id="Tracé_49200-7" data-name="Tracé 49200" class="cls-3" d="M46,155.33H38.11a1.07,1.07,0,0,1,0-2.14H46a1.07,1.07,0,1,1,0,2.14Z"/><path id="Tracé_49200-8" data-name="Tracé 49200" class="cls-3" d="M112.42,13.8h-7.88a1.08,1.08,0,0,1,0-2.15h7.88a1.08,1.08,0,0,1,0,2.15Z"/><path id="Tracé_49200-9" data-name="Tracé 49200" class="cls-3" d="M25,103H17.13a1.07,1.07,0,0,1,0-2.14H25A1.07,1.07,0,1,1,25,103Z"/><path id="Tracé_49200-10" data-name="Tracé 49200" class="cls-3" d="M134.8,120h-7.88a1.07,1.07,0,1,1,0-2.14h7.88a1.07,1.07,0,1,1,0,2.14Z"/><path id="Tracé_49200-11" data-name="Tracé 49200" class="cls-3" d="M122.25,151.15h-7.88a1.07,1.07,0,0,1,0-2.14h7.88a1.07,1.07,0,0,1,0,2.14Z"/><path id="Tracé_49200-12" data-name="Tracé 49200" class="cls-3" d="M52.86,58.9H45a1.08,1.08,0,0,1,0-2.15h7.88a1.08,1.08,0,0,1,0,2.15Z"/><circle class="cls-3" cx="160.44" cy="80.3" r="1.77"/><circle class="cls-3" cx="107.78" cy="169.04" r="1.77"/><circle class="cls-3" cx="141.56" cy="25.04" r="1.77"/><circle class="cls-3" cx="77.76" cy="165.51" r="1.77"/><circle class="cls-3" cx="40.28" cy="86.05" r="1.77"/><circle class="cls-3" cx="40.28" cy="40.64" r="1.77"/><circle class="cls-3" cx="22.84" cy="130.07" r="1.77"/><circle class="cls-3" cx="151.15" cy="133.08" r="1.77"/><circle class="cls-3" cx="75.99" cy="79.67" r="1.77"/><circle class="cls-3" cx="86.25" cy="145.16" r="1.77"/></g></svg>