<svg xmlns="http://www.w3.org/2000/svg" width="1366" height="485.667" viewBox="0 0 1366 485.667">
    <defs>
        <style>
            .cls-1{fill:#701663}.cls-1,.cls-3{opacity:.1}.cls-2{clip-path:url(#clip-path)}.cls-3,.cls-5{fill:#702963}.cls-4{opacity:.33}
        </style>
        <clipPath id="clip-path">
            <path id="Rectangle_13013" d="M0 0h1366v485.667H0z" class="cls-1" data-name="Rectangle 13013" transform="translate(0 3281)"/>
        </clipPath>
    </defs>
    <g id="Fond_ecosystem" class="cls-2" data-name="Fond ecosystem" transform="translate(0 -3281)">
        <g id="Groupe_13140" data-name="Groupe 13140" transform="translate(.441 3214.713)">
            <path id="Rectangle_13012" d="M0 0h1365.559v602.386H0z" class="cls-3" data-name="Rectangle 13012"/>
            <g id="tirets_points" class="cls-4" data-name="tirets / points" transform="translate(87.238 47.913)">
                <ellipse id="Ellipse_2702" cx="2.137" cy="1.864" class="cls-5" data-name="Ellipse 2702" rx="2.137" ry="1.864" transform="translate(215.346 190.554)"/>
                <ellipse id="Ellipse_2703" cx="2.137" cy="1.864" class="cls-5" data-name="Ellipse 2703" rx="2.137" ry="1.864" transform="translate(106.571 119.311)"/>
                <ellipse id="Ellipse_2704" cx="2.137" cy="1.864" class="cls-5" data-name="Ellipse 2704" rx="2.137" ry="1.864" transform="translate(26.086 133.214)"/>
                <ellipse id="Ellipse_2705" cx="2.137" cy="1.864" class="cls-5" data-name="Ellipse 2705" rx="2.137" ry="1.864" transform="translate(789.857 159.218)"/>
                <ellipse id="Ellipse_2706" cx="2.137" cy="1.864" class="cls-5" data-name="Ellipse 2706" rx="2.137" ry="1.864" transform="translate(502.607 105.368)"/>
                <ellipse id="Ellipse_2707" cx="2.137" cy="1.864" class="cls-5" data-name="Ellipse 2707" rx="2.137" ry="1.864" transform="translate(161.598 411.714)"/>
                <ellipse id="Ellipse_2708" cx="2.137" cy="1.864" class="cls-5" data-name="Ellipse 2708" rx="2.137" ry="1.864" transform="translate(337.272 307.572)"/>
                <ellipse id="Ellipse_2709" cx="2.137" cy="1.864" class="cls-5" data-name="Ellipse 2709" rx="2.137" ry="1.864" transform="translate(661.601 141.478)"/>
                <ellipse id="Ellipse_2710" cx="2.137" cy="1.864" class="cls-5" data-name="Ellipse 2710" rx="2.137" ry="1.864" transform="translate(378.572 251.416)"/>
                <ellipse id="Ellipse_2711" cx="2.137" cy="1.864" class="cls-5" data-name="Ellipse 2711" rx="2.137" ry="1.864" transform="translate(725.995 139.614)"/>
                <ellipse id="Ellipse_2712" cx="2.137" cy="1.864" class="cls-5" data-name="Ellipse 2712" rx="2.137" ry="1.864" transform="translate(152.449 346.679)"/>
                <ellipse id="Ellipse_2713" cx="2.137" cy="1.864" class="cls-5" data-name="Ellipse 2713" rx="2.137" ry="1.864" transform="translate(353.082 352.957)"/>
                <ellipse id="Ellipse_2714" cx="2.137" cy="1.864" class="cls-5" data-name="Ellipse 2714" rx="2.137" ry="1.864" transform="translate(489.225 282.318)"/>
                <ellipse id="Ellipse_2715" cx="2.137" cy="1.864" class="cls-5" data-name="Ellipse 2715" rx="2.137" ry="1.864" transform="translate(489.225 198.446)"/>
                <ellipse id="Ellipse_2716" cx="2.137" cy="1.864" class="cls-5" data-name="Ellipse 2716" rx="2.137" ry="1.864" transform="translate(488.939 161.781)"/>
                <ellipse id="Ellipse_2717" cx="2.137" cy="1.864" class="cls-5" data-name="Ellipse 2717" rx="2.137" ry="1.864" transform="translate(131.336 468.43)"/>
                <ellipse id="Ellipse_2718" cx="2.137" cy="1.864" class="cls-5" data-name="Ellipse 2718" rx="2.137" ry="1.864" transform="translate(24.186 436.923)"/>
                <ellipse id="Ellipse_2719" cx="2.137" cy="1.864" class="cls-5" data-name="Ellipse 2719" rx="2.137" ry="1.864" transform="translate(233.439 483.018)"/>
                <ellipse id="Ellipse_2720" cx="2.137" cy="1.864" class="cls-5" data-name="Ellipse 2720" rx="2.137" ry="1.864" transform="translate(275.997 21.16)"/>
                <ellipse id="Ellipse_2721" cx="2.137" cy="1.864" class="cls-5" data-name="Ellipse 2721" rx="2.137" ry="1.864" transform="translate(356.725 19.296)"/>
                <ellipse id="Ellipse_2722" cx="2.137" cy="1.864" class="cls-5" data-name="Ellipse 2722" rx="2.137" ry="1.864" transform="translate(172.527 67.578)"/>
                <ellipse id="Ellipse_2723" cx="2.137" cy="1.864" class="cls-5" data-name="Ellipse 2723" rx="2.137" ry="1.864" transform="translate(12.816 14.158)"/>
                <ellipse id="Ellipse_2724" cx="2.137" cy="1.864" class="cls-5" data-name="Ellipse 2724" rx="2.137" ry="1.864" transform="translate(100.962 273.267)"/>
                <ellipse id="Ellipse_2725" cx="2.137" cy="1.864" class="cls-5" data-name="Ellipse 2725" rx="2.137" ry="1.864" transform="translate(58.735 225.006)"/>
                <ellipse id="Ellipse_2726" cx="2.137" cy="1.864" class="cls-5" data-name="Ellipse 2726" rx="2.137" ry="1.864" transform="translate(421.816 152.77)"/>
                <ellipse id="Ellipse_2727" cx="2.137" cy="1.864" class="cls-5" data-name="Ellipse 2727" rx="2.137" ry="1.864" transform="translate(337.87 206.464)"/>
                <ellipse id="Ellipse_2728" cx="2.137" cy="1.864" class="cls-5" data-name="Ellipse 2728" rx="2.137" ry="1.864" transform="translate(141.578 189.613)"/>
                <ellipse id="Ellipse_2729" cx="2.137" cy="1.864" class="cls-5" data-name="Ellipse 2729" rx="2.137" ry="1.864" transform="translate(233.147 161.057)"/>
                <ellipse id="Ellipse_2730" cx="2.137" cy="1.864" class="cls-5" data-name="Ellipse 2730" rx="2.137" ry="1.864" transform="translate(283.064 359.617)"/>
                <ellipse id="Ellipse_2731" cx="2.137" cy="1.864" class="cls-5" data-name="Ellipse 2731" rx="2.137" ry="1.864" transform="translate(256.015 304.882)"/>
                <ellipse id="Ellipse_2732" cx="2.137" cy="1.864" class="cls-5" data-name="Ellipse 2732" rx="2.137" ry="1.864" transform="translate(679.382 75.712)"/>
                <ellipse id="Ellipse_2733" cx="2.137" cy="1.864" class="cls-5" data-name="Ellipse 2733" rx="2.137" ry="1.864" transform="translate(112.007 322.009)"/>
                <ellipse id="Ellipse_2734" cx="2.137" cy="1.864" class="cls-5" data-name="Ellipse 2734" rx="2.137" ry="1.864" transform="translate(962.96 379.881)"/>
                <ellipse id="Ellipse_2735" cx="2.137" cy="1.864" class="cls-5" data-name="Ellipse 2735" rx="2.137" ry="1.864" transform="translate(1020.565 410.072)"/>
                <ellipse id="Ellipse_2736" cx="2.137" cy="1.864" class="cls-5" data-name="Ellipse 2736" rx="2.137" ry="1.864" transform="translate(945.302 431.563)"/>
                <ellipse id="Ellipse_2737" cx="2.137" cy="1.864" class="cls-5" data-name="Ellipse 2737" rx="2.137" ry="1.864" transform="translate(1054.476 311.4)"/>
                <ellipse id="Ellipse_2738" cx="2.137" cy="1.864" class="cls-5" data-name="Ellipse 2738" rx="2.137" ry="1.864" transform="translate(1155.427 338.52)"/>
                <ellipse id="Ellipse_2739" cx="2.137" cy="1.864" class="cls-5" data-name="Ellipse 2739" rx="2.137" ry="1.864" transform="translate(1192.954 143.342)"/>
                <ellipse id="Ellipse_2740" cx="2.137" cy="1.864" class="cls-5" data-name="Ellipse 2740" rx="2.137" ry="1.864" transform="translate(1075.178 384.652)"/>
                <ellipse id="Ellipse_2741" cx="2.137" cy="1.864" class="cls-5" data-name="Ellipse 2741" rx="2.137" ry="1.864" transform="translate(1192.173 390.024)"/>
                <ellipse id="Ellipse_2742" cx="2.137" cy="1.864" class="cls-5" data-name="Ellipse 2742" rx="2.137" ry="1.864" transform="translate(903.029 287.247)"/>
                <path id="Tracé_47298" d="M2.018.054a2.5 2.5 0 0 1 2.31 2.055 1.645 1.645 0 0 1-1.97 1.7A2.5 2.5 0 0 1 .048 1.75 1.645 1.645 0 0 1 2.018.054z" class="cls-5" data-name="Tracé 47298" transform="rotate(-33 1010.633 -1698.286)"/>
                <path id="Tracé_47299" d="M2.018.054a2.5 2.5 0 0 1 2.31 2.055 1.645 1.645 0 0 1-1.97 1.7A2.5 2.5 0 0 1 .048 1.75 1.645 1.645 0 0 1 2.018.054z" class="cls-5" data-name="Tracé 47299" transform="rotate(-33 759.608 -1976.273)"/>
                <path id="Tracé_47300" d="M2.018.054a2.5 2.5 0 0 1 2.31 2.055 1.645 1.645 0 0 1-1.97 1.7A2.5 2.5 0 0 1 .048 1.75 1.645 1.645 0 0 1 2.018.054z" class="cls-5" data-name="Tracé 47300" transform="rotate(-33 934.187 -1495.364)"/>
                <path id="Tracé_47301" d="M2.018.054a2.5 2.5 0 0 1 2.31 2.055 1.645 1.645 0 0 1-1.97 1.7A2.5 2.5 0 0 1 .048 1.75 1.645 1.645 0 0 1 2.018.054z" class="cls-5" data-name="Tracé 47301" transform="rotate(-33 626.86 -910.888)"/>
                <path id="Tracé_47302" d="M2.018.054a2.5 2.5 0 0 1 2.31 2.055 1.645 1.645 0 0 1-1.97 1.7A2.5 2.5 0 0 1 .048 1.75 1.645 1.645 0 0 1 2.018.054z" class="cls-5" data-name="Tracé 47302" transform="rotate(-33 861.17 -1280.591)"/>
                <path id="Tracé_47303" d="M2.018.054a2.5 2.5 0 0 1 2.31 2.055 1.645 1.645 0 0 1-1.97 1.7A2.5 2.5 0 0 1 .048 1.75 1.645 1.645 0 0 1 2.018.054z" class="cls-5" data-name="Tracé 47303" transform="rotate(-33 529.449 -1334.456)"/>
                <path id="Tracé_47304" d="M2.018.054a2.5 2.5 0 0 1 2.31 2.055 1.645 1.645 0 0 1-1.97 1.7A2.5 2.5 0 0 1 .048 1.75 1.645 1.645 0 0 1 2.018.054z" class="cls-5" data-name="Tracé 47304" transform="rotate(-33 472.837 -848.111)"/>
                <path id="Tracé_47305" d="M2.018.054a2.5 2.5 0 0 1 2.31 2.055 1.645 1.645 0 0 1-1.97 1.7A2.5 2.5 0 0 1 .048 1.75 1.645 1.645 0 0 1 2.018.054z" class="cls-5" data-name="Tracé 47305" transform="rotate(-33 532.664 -1180.874)"/>
                <path id="Tracé_47306" d="M2.018.054a2.5 2.5 0 0 1 2.31 2.055 1.645 1.645 0 0 1-1.97 1.7A2.5 2.5 0 0 1 .048 1.75 1.645 1.645 0 0 1 2.018.054z" class="cls-5" data-name="Tracé 47306" transform="rotate(-33 654.025 -1903.48)"/>
                <path id="Tracé_47307" d="M2.018.054a2.5 2.5 0 0 1 2.31 2.055 1.645 1.645 0 0 1-1.97 1.7A2.5 2.5 0 0 1 .048 1.75 1.645 1.645 0 0 1 2.018.054z" class="cls-5" data-name="Tracé 47307" transform="rotate(-33 476.567 -1419.582)"/>
                <path id="Tracé_47308" d="M2.018.054a2.5 2.5 0 0 1 2.31 2.055 1.645 1.645 0 0 1-1.97 1.7A2.5 2.5 0 0 1 .048 1.75 1.645 1.645 0 0 1 2.018.054z" class="cls-5" data-name="Tracé 47308" transform="rotate(-33 850.982 -1640.003)"/>
                <path id="Tracé_47309" d="M2.018.054a2.5 2.5 0 0 1 2.31 2.055 1.645 1.645 0 0 1-1.97 1.7A2.5 2.5 0 0 1 .048 1.75 1.645 1.645 0 0 1 2.018.054z" class="cls-5" data-name="Tracé 47309" transform="rotate(-33 814.49 -1731.457)"/>
                <path id="Tracé_47310" d="M2.018.054a2.5 2.5 0 0 1 2.31 2.055 1.645 1.645 0 0 1-1.97 1.7A2.5 2.5 0 0 1 .048 1.75 1.645 1.645 0 0 1 2.018.054z" class="cls-5" data-name="Tracé 47310" transform="rotate(-33 1305.64 -1684.942)"/>
                <path id="Tracé_47311" d="M2.018.054a2.5 2.5 0 0 1 2.31 2.055 1.645 1.645 0 0 1-1.97 1.7A2.5 2.5 0 0 1 .048 1.75 1.645 1.645 0 0 1 2.018.054z" class="cls-5" data-name="Tracé 47311" transform="rotate(-33 682.296 -1345.418)"/>
                <path id="Tracé_47131" d="M-3008.54-1040.245h-10.142a1.278 1.278 0 0 1-1.38-1.14 1.277 1.277 0 0 1 1.38-1.14h10.142a1.277 1.277 0 0 1 1.38 1.14 1.277 1.277 0 0 1-1.38 1.14z" class="cls-5" data-name="Tracé 47131" transform="translate(3480.831 1098.992)"/>
                <path id="Tracé_47132" d="M-2989.62-1094.49h-10.141a1.278 1.278 0 0 1-1.38-1.14 1.278 1.278 0 0 1 1.38-1.14h10.141a1.278 1.278 0 0 1 1.38 1.14 1.278 1.278 0 0 1-1.38 1.14z" class="cls-5" data-name="Tracé 47132" transform="translate(3479.316 1112.021)"/>
                <path id="Tracé_47133" d="M-3107.778-1034.951h-10.142a1.278 1.278 0 0 1-1.38-1.14 1.278 1.278 0 0 1 1.38-1.14h10.142a1.277 1.277 0 0 1 1.38 1.14 1.278 1.278 0 0 1-1.38 1.14z" class="cls-5" data-name="Tracé 47133" transform="translate(3488.778 1097.721)"/>
                <path id="Tracé_47134" d="M-3219.938-1028.052h-10.142a1.277 1.277 0 0 1-1.38-1.14 1.277 1.277 0 0 1 1.38-1.14h10.142a1.278 1.278 0 0 1 1.38 1.14 1.278 1.278 0 0 1-1.38 1.14z" class="cls-5" data-name="Tracé 47134" transform="translate(3497.761 1096.064)"/>
                <path id="Tracé_47135" d="M-3320.71-1062.194h-10.142a1.278 1.278 0 0 1-1.38-1.14 1.277 1.277 0 0 1 1.38-1.14h10.142a1.278 1.278 0 0 1 1.38 1.14 1.278 1.278 0 0 1-1.38 1.14z" class="cls-5" data-name="Tracé 47135" transform="translate(3505.831 1104.264)"/>
                <path id="Tracé_47136" d="M-3126.332-943.52h-10.142a1.278 1.278 0 0 1-1.38-1.14 1.278 1.278 0 0 1 1.38-1.14h10.142a1.277 1.277 0 0 1 1.38 1.14 1.277 1.277 0 0 1-1.38 1.14z" class="cls-5" data-name="Tracé 47136" transform="translate(3490.264 1075.76)"/>
                <path id="Tracé_47137" d="M-3331.719-939.036h-10.141a1.277 1.277 0 0 1-1.38-1.14 1.277 1.277 0 0 1 1.38-1.14h10.141a1.278 1.278 0 0 1 1.38 1.14 1.278 1.278 0 0 1-1.38 1.14z" class="cls-5" data-name="Tracé 47137" transform="translate(3506.713 1074.684)"/>
                <path id="Tracé_47138" d="M-3450.265-882.782h-10.14a1.277 1.277 0 0 1-1.38-1.14 1.277 1.277 0 0 1 1.38-1.14h10.14a1.277 1.277 0 0 1 1.38 1.14 1.277 1.277 0 0 1-1.38 1.14z" class="cls-5" data-name="Tracé 47138" transform="translate(3516.206 1061.172)"/>
                <path id="Tracé_47139" d="M-3373.124-810.743h-10.141a1.278 1.278 0 0 1-1.38-1.14 1.278 1.278 0 0 1 1.38-1.14h10.141a1.278 1.278 0 0 1 1.38 1.14 1.278 1.278 0 0 1-1.38 1.14z" class="cls-5" data-name="Tracé 47139" transform="translate(3510.029 1043.87)"/>
                <path id="Tracé_47140" d="M-3189.056-899.188h-10.144a1.278 1.278 0 0 1-1.38-1.14 1.277 1.277 0 0 1 1.38-1.14h10.141a1.277 1.277 0 0 1 1.38 1.14 1.278 1.278 0 0 1-1.377 1.14z" class="cls-5" data-name="Tracé 47140" transform="translate(3495.288 1065.113)"/>
                <path id="Tracé_47141" d="M-3330.071-708.088h-10.14a1.277 1.277 0 0 1-1.38-1.14 1.277 1.277 0 0 1 1.38-1.14h10.14a1.278 1.278 0 0 1 1.38 1.14 1.278 1.278 0 0 1-1.38 1.14z" class="cls-5" data-name="Tracé 47141" transform="translate(3506.581 1019.214)"/>
                <path id="Tracé_47142" d="M-3262.674-790.69h-10.141a1.278 1.278 0 0 1-1.38-1.14 1.278 1.278 0 0 1 1.38-1.14h10.141a1.278 1.278 0 0 1 1.38 1.14 1.278 1.278 0 0 1-1.38 1.14z" class="cls-5" data-name="Tracé 47142" transform="translate(3501.183 1039.053)"/>
                <path id="Tracé_47143" d="M-3427.9-482.347h-10.14a1.277 1.277 0 0 1-1.38-1.14 1.277 1.277 0 0 1 1.38-1.14h10.14a1.277 1.277 0 0 1 1.38 1.14 1.277 1.277 0 0 1-1.38 1.14z" class="cls-5" data-name="Tracé 47143" transform="translate(3514.415 964.994)"/>
                <path id="Tracé_47144" d="M-3130.292-446.538h-10.141a1.277 1.277 0 0 1-1.38-1.14 1.277 1.277 0 0 1 1.38-1.14h10.141a1.278 1.278 0 0 1 1.38 1.14 1.278 1.278 0 0 1-1.38 1.14z" class="cls-5" data-name="Tracé 47144" transform="translate(3490.582 956.394)"/>
                <path id="Tracé_47145" d="M-3466.27-627.284h-10.14a1.277 1.277 0 0 1-1.38-1.14 1.278 1.278 0 0 1 1.38-1.14h10.14a1.278 1.278 0 0 1 1.38 1.14 1.277 1.277 0 0 1-1.38 1.14z" class="cls-5" data-name="Tracé 47145" transform="translate(3517.488 999.806)"/>
                <path id="Tracé_47146" d="M-3392.3-615.818h-10.14a1.278 1.278 0 0 1-1.38-1.14 1.278 1.278 0 0 1 1.38-1.14h10.14a1.278 1.278 0 0 1 1.38 1.14 1.278 1.278 0 0 1-1.38 1.14z" class="cls-5" data-name="Tracé 47146" transform="translate(3511.564 997.052)"/>
                <path id="Tracé_47147" d="M-3459.257-700.517h-10.143a1.277 1.277 0 0 1-1.38-1.14 1.278 1.278 0 0 1 1.38-1.14h10.142a1.278 1.278 0 0 1 1.38 1.14 1.277 1.277 0 0 1-1.379 1.14z" class="cls-5" data-name="Tracé 47147" transform="translate(3516.927 1017.395)"/>
                <path id="Tracé_47148" d="M-3157.005-774.138h-10.142a1.278 1.278 0 0 1-1.38-1.14 1.278 1.278 0 0 1 1.38-1.14h10.142a1.278 1.278 0 0 1 1.38 1.14 1.278 1.278 0 0 1-1.38 1.14z" class="cls-5" data-name="Tracé 47148" transform="translate(3492.721 1035.078)"/>
                <path id="Tracé_47149" d="M-3058.661-839.429h-10.139a1.277 1.277 0 0 1-1.38-1.14 1.278 1.278 0 0 1 1.38-1.14h10.142a1.278 1.278 0 0 1 1.38 1.14 1.277 1.277 0 0 1-1.383 1.14z" class="cls-5" data-name="Tracé 47149" transform="translate(3484.845 1050.76)"/>
                <path id="Tracé_47150" d="M-3509.422-763.219h-10.142a1.278 1.278 0 0 1-1.38-1.14 1.278 1.278 0 0 1 1.38-1.14h10.142a1.278 1.278 0 0 1 1.38 1.14 1.278 1.278 0 0 1-1.38 1.14z" class="cls-5" data-name="Tracé 47150" transform="translate(3520.944 1032.455)"/>
                <path id="Tracé_47151" d="M-3476.637-1019.333h-10.142a1.278 1.278 0 0 1-1.38-1.14 1.278 1.278 0 0 1 1.38-1.14h10.142a1.278 1.278 0 0 1 1.38 1.14 1.278 1.278 0 0 1-1.38 1.14z" class="cls-5" data-name="Tracé 47151" transform="translate(3518.319 1093.969)"/>
                <path id="Tracé_47152" d="M-3426.592-1097.43h-10.141a1.277 1.277 0 0 1-1.38-1.14 1.278 1.278 0 0 1 1.38-1.14h10.141a1.278 1.278 0 0 1 1.38 1.14 1.277 1.277 0 0 1-1.38 1.14z" class="cls-5" data-name="Tracé 47152" transform="translate(3514.311 1112.727)"/>
                <path id="Tracé_47153" d="M-3323.673-1114.563h-10.141a1.277 1.277 0 0 1-1.38-1.14 1.278 1.278 0 0 1 1.38-1.14h10.141a1.278 1.278 0 0 1 1.38 1.14 1.278 1.278 0 0 1-1.38 1.14z" class="cls-5" data-name="Tracé 47153" transform="translate(3506.068 1116.842)"/>
                <path id="Tracé_47154" d="M-2672.245-858.411h-10.142a1.278 1.278 0 0 1-1.38-1.14 1.278 1.278 0 0 1 1.38-1.14h10.142a1.278 1.278 0 0 1 1.38 1.14 1.278 1.278 0 0 1-1.38 1.14z" class="cls-5" data-name="Tracé 47154" transform="translate(3453.899 1055.319)"/>
                <path id="Tracé_47155" d="M-3065.673-974.934h-10.142a1.278 1.278 0 0 1-1.38-1.14 1.277 1.277 0 0 1 1.38-1.14h10.142a1.277 1.277 0 0 1 1.38 1.14 1.278 1.278 0 0 1-1.38 1.14z" class="cls-5" data-name="Tracé 47155" transform="translate(3485.406 1083.305)"/>
                <path id="Tracé_47156" d="M-2510.227-1010.012h-10.141a1.278 1.278 0 0 1-1.38-1.14 1.278 1.278 0 0 1 1.38-1.14h10.141a1.277 1.277 0 0 1 1.38 1.14 1.277 1.277 0 0 1-1.38 1.14z" class="cls-5" data-name="Tracé 47156" transform="translate(3440.924 1091.731)"/>
                <ellipse id="Ellipse_2757" cx="2.137" cy="1.864" class="cls-5" data-name="Ellipse 2757" rx="2.137" ry="1.864" transform="translate(725.995 301.285)"/>
                <path id="Tracé_47312" d="M2.018.054a2.5 2.5 0 0 1 2.31 2.055 1.645 1.645 0 0 1-1.97 1.7A2.5 2.5 0 0 1 .048 1.75 1.645 1.645 0 0 1 2.018.054z" class="cls-5" data-name="Tracé 47312" transform="rotate(-33 796.374 -974.955)"/>
                <path id="Tracé_47313" d="M2.018.054a2.5 2.5 0 0 1 2.31 2.055 1.645 1.645 0 0 1-1.97 1.7A2.5 2.5 0 0 1 .048 1.75 1.645 1.645 0 0 1 2.018.054z" class="cls-5" data-name="Tracé 47313" transform="rotate(-33 644.099 -984.944)"/>
                <path id="Tracé_47157" d="M-2685.38-749.428h-10.142a1.278 1.278 0 0 1-1.38-1.14 1.278 1.278 0 0 1 1.38-1.14h10.142a1.278 1.278 0 0 1 1.38 1.14 1.278 1.278 0 0 1-1.38 1.14z" class="cls-5" data-name="Tracé 47157" transform="translate(3454.951 1029.143)"/>
                <ellipse id="Ellipse_2760" cx="2.137" cy="1.864" class="cls-5" data-name="Ellipse 2760" rx="2.137" ry="1.864" transform="translate(720.536 411.936)"/>
                <path id="Tracé_47314" d="M2.018.054a2.5 2.5 0 0 1 2.31 2.055 1.645 1.645 0 0 1-1.97 1.7A2.5 2.5 0 0 1 .048 1.75 1.645 1.645 0 0 1 2.018.054z" class="cls-5" data-name="Tracé 47314" transform="rotate(-33 1133.706 -1104.635)"/>
                <path id="Tracé_47315" d="M2.018.054a2.5 2.5 0 0 1 2.31 2.055 1.645 1.645 0 0 1-1.97 1.7A2.5 2.5 0 0 1 .048 1.75 1.645 1.645 0 0 1 2.018.054z" class="cls-5" data-name="Tracé 47315" transform="rotate(-33 951.698 -1259.465)"/>
                <path id="Tracé_47158" d="M-2776.862-522.256h10.141a1.278 1.278 0 0 1 1.38 1.14 1.278 1.278 0 0 1-1.38 1.14h-10.141a1.277 1.277 0 0 1-1.38-1.14 1.277 1.277 0 0 1 1.38-1.14z" class="cls-5" data-name="Tracé 47158" transform="translate(3461.465 974.033)"/>
                <path id="Tracé_47159" d="M-2582.918-509.365h10.143a1.278 1.278 0 0 1 1.38 1.14 1.278 1.278 0 0 1-1.38 1.14h-10.143a1.278 1.278 0 0 1-1.38-1.14 1.278 1.278 0 0 1 1.38-1.14z" class="cls-5" data-name="Tracé 47159" transform="translate(3445.933 970.936)"/>
                <path id="Tracé_47160" d="M-2589.174-623.817h-10.141a1.278 1.278 0 0 1-1.38-1.14 1.278 1.278 0 0 1 1.38-1.14h10.141a1.278 1.278 0 0 1 1.38 1.14 1.278 1.278 0 0 1-1.38 1.14z" class="cls-5" data-name="Tracé 47160" transform="translate(3447.246 998.973)"/>
                <path id="Tracé_47161" d="M-2413.858-929.09H-2424a1.278 1.278 0 0 1-1.38-1.14 1.278 1.278 0 0 1 1.38-1.14h10.14a1.278 1.278 0 0 1 1.38 1.14 1.278 1.278 0 0 1-1.378 1.14z" class="cls-5" data-name="Tracé 47161" transform="translate(3433.206 1072.295)"/>
                <path id="Tracé_47162" d="M-2459.432-682.183h-10.141a1.278 1.278 0 0 1-1.38-1.14 1.278 1.278 0 0 1 1.38-1.14h10.141a1.278 1.278 0 0 1 1.38 1.14 1.278 1.278 0 0 1-1.38 1.14z" class="cls-5" data-name="Tracé 47162" transform="translate(3436.855 1012.992)"/>
                <path id="Tracé_47163" d="M-2383.551-789.19h-10.142a1.278 1.278 0 0 1-1.38-1.14 1.278 1.278 0 0 1 1.38-1.14h10.142a1.278 1.278 0 0 1 1.38 1.14 1.278 1.278 0 0 1-1.38 1.14z" class="cls-5" data-name="Tracé 47163" transform="translate(3430.779 1038.693)"/>
                <path id="Tracé_47164" d="M-2430.377-508.586h-10.142a1.278 1.278 0 0 1-1.38-1.14 1.278 1.278 0 0 1 1.38-1.14h10.142a1.278 1.278 0 0 1 1.38 1.14 1.278 1.278 0 0 1-1.38 1.14z" class="cls-5" data-name="Tracé 47164" transform="translate(3434.529 971.297)"/>
                <path id="Tracé_47165" d="M-2594.177-417.6h-10.142a1.278 1.278 0 0 1-1.38-1.14 1.278 1.278 0 0 1 1.38-1.14h10.142a1.278 1.278 0 0 1 1.38 1.14 1.278 1.278 0 0 1-1.38 1.14z" class="cls-5" data-name="Tracé 47165" transform="translate(3447.647 949.443)"/>
                <path id="Tracé_47166" d="M-2408.506-445.038h-10.141a1.277 1.277 0 0 1-1.38-1.14 1.277 1.277 0 0 1 1.38-1.14h10.141a1.278 1.278 0 0 1 1.38 1.14 1.278 1.278 0 0 1-1.38 1.14z" class="cls-5" data-name="Tracé 47166" transform="translate(3432.777 956.034)"/>
                <path id="Tracé_47167" d="M-2655.493-469.087h-10.141a1.278 1.278 0 0 1-1.38-1.14 1.278 1.278 0 0 1 1.38-1.14h10.141a1.278 1.278 0 0 1 1.38 1.14 1.278 1.278 0 0 1-1.38 1.14z" class="cls-5" data-name="Tracé 47167" transform="translate(3452.557 961.81)"/>
                <path id="Tracé_47168" d="M-2225.515-518.477h-10.141a1.277 1.277 0 0 1-1.38-1.14 1.277 1.277 0 0 1 1.38-1.14h10.141a1.278 1.278 0 0 1 1.38 1.14 1.278 1.278 0 0 1-1.38 1.14z" class="cls-5" data-name="Tracé 47168" transform="translate(3418.122 973.672)"/>
                <path id="Tracé_47169" d="M-2282.3-484.193h-10.141a1.277 1.277 0 0 1-1.38-1.14 1.278 1.278 0 0 1 1.38-1.14h10.141a1.278 1.278 0 0 1 1.38 1.14 1.277 1.277 0 0 1-1.38 1.14z" class="cls-5" data-name="Tracé 47169" transform="translate(3422.67 965.438)"/>
                <path id="Tracé_47170" d="M-2467.32-844.335h-10.141a1.277 1.277 0 0 1-1.38-1.14 1.277 1.277 0 0 1 1.38-1.14h10.141a1.278 1.278 0 0 1 1.38 1.14 1.278 1.278 0 0 1-1.38 1.14z" class="cls-5" data-name="Tracé 47170" transform="translate(3437.487 1051.938)"/>
                <path id="Tracé_47171" d="M-2268.283-733.276h-10.141a1.277 1.277 0 0 1-1.38-1.14 1.277 1.277 0 0 1 1.38-1.14h10.141a1.278 1.278 0 0 1 1.38 1.14 1.278 1.278 0 0 1-1.38 1.14z" class="cls-5" data-name="Tracé 47171" transform="translate(3421.547 1025.263)"/>
                <path id="Tracé_47172" d="M-2287.088-819.931h-10.142a1.277 1.277 0 0 1-1.38-1.14 1.278 1.278 0 0 1 1.38-1.14h10.142a1.278 1.278 0 0 1 1.38 1.14 1.277 1.277 0 0 1-1.38 1.14z" class="cls-5" data-name="Tracé 47172" transform="translate(3423.053 1046.077)"/>
                <path id="Tracé_47173" d="M-2300.836-930.59h-10.142a1.277 1.277 0 0 1-1.38-1.14 1.277 1.277 0 0 1 1.38-1.14h10.142a1.278 1.278 0 0 1 1.38 1.14 1.278 1.278 0 0 1-1.38 1.14z" class="cls-5" data-name="Tracé 47173" transform="translate(3424.155 1072.655)"/>
                <path id="Tracé_47174" d="M-2203.039-839.429h-10.142a1.277 1.277 0 0 1-1.38-1.14 1.278 1.278 0 0 1 1.38-1.14h10.142a1.278 1.278 0 0 1 1.38 1.14 1.277 1.277 0 0 1-1.38 1.14z" class="cls-5" data-name="Tracé 47174" transform="translate(3416.323 1050.76)"/>
                <path id="Tracé_47175" d="M-2944.033-1020.833h-10.14a1.278 1.278 0 0 1-1.38-1.14 1.278 1.278 0 0 1 1.38-1.14h10.14a1.277 1.277 0 0 1 1.38 1.14 1.277 1.277 0 0 1-1.38 1.14z" class="cls-5" data-name="Tracé 47175" transform="translate(3475.665 1094.33)"/>
                <path id="Tracé_47176" d="M-2973-815.977h-10.141a1.278 1.278 0 0 1-1.38-1.14 1.277 1.277 0 0 1 1.38-1.14H-2973a1.277 1.277 0 0 1 1.38 1.14 1.277 1.277 0 0 1-1.38 1.14z" class="cls-5" data-name="Tracé 47176" transform="translate(3477.985 1045.127)"/>
                <path id="Tracé_47177" d="M-2816.712-1062.194h-10.142a1.278 1.278 0 0 1-1.38-1.14 1.277 1.277 0 0 1 1.38-1.14h10.142a1.278 1.278 0 0 1 1.38 1.14 1.278 1.278 0 0 1-1.38 1.14z" class="cls-5" data-name="Tracé 47177" transform="translate(3465.469 1104.264)"/>
                <path id="Tracé_47178" d="M-2677.411-1045.911h-10.141a1.278 1.278 0 0 1-1.38-1.14 1.278 1.278 0 0 1 1.38-1.14h10.141a1.278 1.278 0 0 1 1.38 1.14 1.278 1.278 0 0 1-1.38 1.14z" class="cls-5" data-name="Tracé 47178" transform="translate(3454.313 1100.353)"/>
                <path id="Tracé_47179" d="M-2390.563-1019.333h-10.142a1.277 1.277 0 0 1-1.38-1.14 1.277 1.277 0 0 1 1.38-1.14h10.142a1.278 1.278 0 0 1 1.38 1.14 1.278 1.278 0 0 1-1.38 1.14z" class="cls-5" data-name="Tracé 47179" transform="translate(3431.34 1093.969)"/>
                <path id="Tracé_47180" d="M-2228.767-1084.49h-10.141a1.277 1.277 0 0 1-1.38-1.14 1.278 1.278 0 0 1 1.38-1.14h10.141a1.277 1.277 0 0 1 1.38 1.14 1.276 1.276 0 0 1-1.38 1.14z" class="cls-5" data-name="Tracé 47180" transform="translate(3418.383 1109.619)"/>
                <path id="Tracé_47181" d="M-2455.1-1094.49h-10.141a1.278 1.278 0 0 1-1.38-1.14 1.278 1.278 0 0 1 1.38-1.14h10.141a1.277 1.277 0 0 1 1.38 1.14 1.277 1.277 0 0 1-1.38 1.14z" class="cls-5" data-name="Tracé 47181" transform="translate(3436.509 1112.021)"/>
                <path id="Tracé_47182" d="M-2497-918.035h-10.14a1.277 1.277 0 0 1-1.38-1.14 1.277 1.277 0 0 1 1.38-1.14h10.14a1.278 1.278 0 0 1 1.38 1.14 1.278 1.278 0 0 1-1.38 1.14z" class="cls-5" data-name="Tracé 47182" transform="translate(3439.865 1069.639)"/>
                <path id="Tracé_47183" d="M-2794.914-807.852h-10.142a1.278 1.278 0 0 1-1.38-1.14 1.277 1.277 0 0 1 1.38-1.14h10.142a1.277 1.277 0 0 1 1.38 1.14 1.278 1.278 0 0 1-1.38 1.14z" class="cls-5" data-name="Tracé 47183" transform="translate(3463.723 1043.175)"/>
                <path id="Tracé_47184" d="M-2854.586-731.255h-10.141a1.277 1.277 0 0 1-1.38-1.14 1.277 1.277 0 0 1 1.38-1.14h10.141a1.278 1.278 0 0 1 1.38 1.14 1.277 1.277 0 0 1-1.38 1.14z" class="cls-5" data-name="Tracé 47184" transform="translate(3468.501 1024.778)"/>
                <path id="Tracé_47185" d="M-3097.413-664.561h-10.141a1.278 1.278 0 0 1-1.38-1.14 1.278 1.278 0 0 1 1.38-1.14h10.141a1.278 1.278 0 0 1 1.38 1.14 1.278 1.278 0 0 1-1.38 1.14z" class="cls-5" data-name="Tracé 47185" transform="translate(3487.948 1008.759)"/>
                <path id="Tracé_47186" d="M-3063.351-712.1h-10.141a1.277 1.277 0 0 1-1.38-1.14 1.278 1.278 0 0 1 1.38-1.14h10.141a1.278 1.278 0 0 1 1.38 1.14 1.277 1.277 0 0 1-1.38 1.14z" class="cls-5" data-name="Tracé 47186" transform="translate(3485.22 1020.178)"/>
                <path id="Tracé_47187" d="M-3262-598.8h-10.141a1.277 1.277 0 0 1-1.38-1.14 1.277 1.277 0 0 1 1.38-1.14H-3262a1.277 1.277 0 0 1 1.38 1.14 1.278 1.278 0 0 1-1.38 1.14z" class="cls-5" data-name="Tracé 47187" transform="translate(3501.129 992.964)"/>
                <path id="Tracé_47188" d="M-3217.038-548.08h-10.142a1.278 1.278 0 0 1-1.38-1.14 1.278 1.278 0 0 1 1.38-1.14h10.142a1.278 1.278 0 0 1 1.38 1.14 1.278 1.278 0 0 1-1.38 1.14z" class="cls-5" data-name="Tracé 47188" transform="translate(3497.528 980.782)"/>
                <ellipse id="Ellipse_2763" cx="2.137" cy="1.864" class="cls-5" data-name="Ellipse 2763" rx="2.137" ry="1.864" transform="translate(550.4 354.067)"/>
                <ellipse id="Ellipse_2764" cx="2.137" cy="1.864" class="cls-5" data-name="Ellipse 2764" rx="2.137" ry="1.864" transform="translate(430.757 484.128)"/>
                <ellipse id="Ellipse_2765" cx="2.137" cy="1.864" class="cls-5" data-name="Ellipse 2765" rx="2.137" ry="1.864" transform="translate(346.345 402.616)"/>
                <ellipse id="Ellipse_2766" cx="2.137" cy="1.864" class="cls-5" data-name="Ellipse 2766" rx="2.137" ry="1.864" transform="translate(357.989 439.203)"/>
                <ellipse id="Ellipse_2767" cx="2.137" cy="1.864" class="cls-5" data-name="Ellipse 2767" rx="2.137" ry="1.864" transform="translate(604.286 433.427)"/>
                <ellipse id="Ellipse_2768" cx="2.137" cy="1.864" class="cls-5" data-name="Ellipse 2768" rx="2.137" ry="1.864" transform="translate(530.876 487.856)"/>
                <ellipse id="Ellipse_2769" cx="2.137" cy="1.864" class="cls-5" data-name="Ellipse 2769" rx="2.137" ry="1.864" transform="translate(731.987 507.992)"/>
                <ellipse id="Ellipse_2770" cx="2.137" cy="1.864" class="cls-5" data-name="Ellipse 2770" rx="2.137" ry="1.864" transform="translate(480.382 360.726)"/>
                <ellipse id="Ellipse_2771" cx="2.137" cy="1.864" class="cls-5" data-name="Ellipse 2771" rx="2.137" ry="1.864" transform="translate(574.312 247.639)"/>
                <ellipse id="Ellipse_2772" cx="2.137" cy="1.864" class="cls-5" data-name="Ellipse 2772" rx="2.137" ry="1.864" transform="translate(557.808 165.925)"/>
                <path id="Tracé_47189" d="M-2944.032-702.846h-10.141a1.277 1.277 0 0 1-1.38-1.14 1.277 1.277 0 0 1 1.38-1.14h10.141a1.278 1.278 0 0 1 1.38 1.14 1.278 1.278 0 0 1-1.38 1.14z" class="cls-5" data-name="Tracé 47189" transform="translate(3475.665 1017.955)"/>
                <path id="Tracé_47190" d="M-2753.921-845.942h-10.141a1.277 1.277 0 0 1-1.38-1.14 1.277 1.277 0 0 1 1.38-1.14h10.141a1.278 1.278 0 0 1 1.38 1.14 1.278 1.278 0 0 1-1.38 1.14z" class="cls-5" data-name="Tracé 47190" transform="translate(3460.44 1052.324)"/>
                <path id="Tracé_47191" d="M-2839.254-945.02h-10.141a1.278 1.278 0 0 1-1.38-1.14 1.278 1.278 0 0 1 1.38-1.14h10.141a1.278 1.278 0 0 1 1.38 1.14 1.278 1.278 0 0 1-1.38 1.14z" class="cls-5" data-name="Tracé 47191" transform="translate(3467.274 1076.121)"/>
                <path id="Tracé_47192" d="M-3047.507-597.336h-10.141a1.278 1.278 0 0 1-1.38-1.14 1.278 1.278 0 0 1 1.38-1.14h10.141a1.277 1.277 0 0 1 1.38 1.14 1.277 1.277 0 0 1-1.38 1.14z" class="cls-5" data-name="Tracé 47192" transform="translate(3483.952 992.613)"/>
                <path id="Tracé_47193" d="M-3015.553-537.072h-10.141a1.278 1.278 0 0 1-1.38-1.14 1.278 1.278 0 0 1 1.38-1.14h10.141a1.277 1.277 0 0 1 1.38 1.14 1.277 1.277 0 0 1-1.38 1.14z" class="cls-5" data-name="Tracé 47193" transform="translate(3481.392 978.139)"/>
                <ellipse id="Ellipse_2773" cx="2.137" cy="1.864" class="cls-5" data-name="Ellipse 2773" rx="2.137" ry="1.864" transform="translate(738.319 354.067)"/>
                <ellipse id="Ellipse_2774" cx="2.137" cy="1.864" class="cls-5" data-name="Ellipse 2774" rx="2.137" ry="1.864" transform="translate(618.676 484.128)"/>
                <ellipse id="Ellipse_2775" cx="2.137" cy="1.864" class="cls-5" data-name="Ellipse 2775" rx="2.137" ry="1.864" transform="translate(553.535 406.344)"/>
                <ellipse id="Ellipse_2776" cx="2.137" cy="1.864" class="cls-5" data-name="Ellipse 2776" rx="2.137" ry="1.864" transform="translate(668.301 360.726)"/>
                <path id="Tracé_47194" d="M-2542.114-828.389h-10.141a1.277 1.277 0 0 1-1.38-1.14 1.277 1.277 0 0 1 1.38-1.14h10.141a1.277 1.277 0 0 1 1.38 1.14 1.277 1.277 0 0 1-1.38 1.14z" class="cls-5" data-name="Tracé 47194" transform="translate(3443.477 1048.108)"/>
                <path id="Tracé_47195" d="M-2843.228-597.336h-10.142a1.277 1.277 0 0 1-1.38-1.14 1.277 1.277 0 0 1 1.38-1.14h10.142a1.278 1.278 0 0 1 1.38 1.14 1.278 1.278 0 0 1-1.38 1.14z" class="cls-5" data-name="Tracé 47195" transform="translate(3467.592 992.613)"/>
            </g>
        </g>
    </g>
</svg>
