<svg xmlns="http://www.w3.org/2000/svg" xmlns:xlink="http://www.w3.org/1999/xlink" width="1499.6" height="503.667" viewBox="0 0 1499.6 503.667">
  <defs>
    <style>
      .cls-1 {
        fill: #701663;
      }

      .cls-1, .cls-3 {
        opacity: 0.1;
      }

      .cls-2 {
        clip-path: url(#clip-path);
      }

      .cls-3, .cls-5 {
        fill: #702963;
      }

      .cls-4 {
        opacity: 0.33;
      }
    </style>
    <clipPath id="clip-path">
      <rect id="Rectangle_13013" data-name="Rectangle 13013" class="cls-1" width="1499.6" height="503.667" transform="translate(0 3281)"/>
    </clipPath>
  </defs>
  <g id="Fond_ecosystem" data-name="Fond ecosystem" class="cls-2" transform="translate(0 -3281)">
    <g id="Groupe_13140" data-name="Groupe 13140" transform="translate(0.484 3212.256)">
      <rect id="Rectangle_13012" data-name="Rectangle 13012" class="cls-3" width="1499.116" height="624.711" transform="translate(0 0)"/>
      <g id="tirets_points" data-name="tirets / points" class="cls-4" transform="translate(95.77 49.689)">
        <ellipse id="Ellipse_2702" data-name="Ellipse 2702" class="cls-5" cx="2.346" cy="1.933" rx="2.346" ry="1.933" transform="translate(236.408 197.617)"/>
        <ellipse id="Ellipse_2703" data-name="Ellipse 2703" class="cls-5" cx="2.346" cy="1.933" rx="2.346" ry="1.933" transform="translate(116.994 123.733)"/>
        <ellipse id="Ellipse_3324" data-name="Ellipse 3324" class="cls-5" cx="2.346" cy="1.933" rx="2.346" ry="1.933" transform="translate(118.994 67.733)"/>
        <ellipse id="Ellipse_2704" data-name="Ellipse 2704" class="cls-5" cx="2.346" cy="1.933" rx="2.346" ry="1.933" transform="translate(28.638 138.151)"/>
        <ellipse id="Ellipse_2705" data-name="Ellipse 2705" class="cls-5" cx="2.346" cy="1.933" rx="2.346" ry="1.933" transform="translate(867.108 165.118)"/>
        <ellipse id="Ellipse_2706" data-name="Ellipse 2706" class="cls-5" cx="2.346" cy="1.933" rx="2.346" ry="1.933" transform="translate(551.763 109.273)"/>
        <ellipse id="Ellipse_2707" data-name="Ellipse 2707" class="cls-5" cx="2.346" cy="1.933" rx="2.346" ry="1.933" transform="translate(177.403 426.973)"/>
        <ellipse id="Ellipse_2708" data-name="Ellipse 2708" class="cls-5" cx="2.346" cy="1.933" rx="2.346" ry="1.933" transform="translate(370.259 318.972)"/>
        <ellipse id="Ellipse_2709" data-name="Ellipse 2709" class="cls-5" cx="2.346" cy="1.933" rx="2.346" ry="1.933" transform="translate(726.308 146.722)"/>
        <ellipse id="Ellipse_2710" data-name="Ellipse 2710" class="cls-5" cx="2.346" cy="1.933" rx="2.346" ry="1.933" transform="translate(415.598 260.734)"/>
        <ellipse id="Ellipse_2711" data-name="Ellipse 2711" class="cls-5" cx="2.346" cy="1.933" rx="2.346" ry="1.933" transform="translate(797 144.789)"/>
        <ellipse id="Ellipse_2712" data-name="Ellipse 2712" class="cls-5" cx="2.346" cy="1.933" rx="2.346" ry="1.933" transform="translate(167.359 359.528)"/>
        <ellipse id="Ellipse_2713" data-name="Ellipse 2713" class="cls-5" cx="2.346" cy="1.933" rx="2.346" ry="1.933" transform="translate(387.615 366.038)"/>
        <ellipse id="Ellipse_2714" data-name="Ellipse 2714" class="cls-5" cx="2.346" cy="1.933" rx="2.346" ry="1.933" transform="translate(537.073 292.781)"/>
        <ellipse id="Ellipse_2715" data-name="Ellipse 2715" class="cls-5" cx="2.346" cy="1.933" rx="2.346" ry="1.933" transform="translate(537.073 205.801)"/>
        <ellipse id="Ellipse_2716" data-name="Ellipse 2716" class="cls-5" cx="2.346" cy="1.933" rx="2.346" ry="1.933" transform="translate(536.759 167.777)"/>
        <ellipse id="Ellipse_2717" data-name="Ellipse 2717" class="cls-5" cx="2.346" cy="1.933" rx="2.346" ry="1.933" transform="translate(144.181 485.791)"/>
        <ellipse id="Ellipse_2718" data-name="Ellipse 2718" class="cls-5" cx="2.346" cy="1.933" rx="2.346" ry="1.933" transform="translate(84.552 428.117)"/>
        <ellipse id="Ellipse_3325" data-name="Ellipse 3325" class="cls-5" cx="2.346" cy="1.933" rx="2.346" ry="1.933" transform="translate(-19.448 399.117)"/>
        <ellipse id="Ellipse_3326" data-name="Ellipse 3326" class="cls-5" cx="2.346" cy="1.933" rx="2.346" ry="1.933" transform="translate(-4.448 324.117)"/>
        <ellipse id="Ellipse_2719" data-name="Ellipse 2719" class="cls-5" cx="2.346" cy="1.933" rx="2.346" ry="1.933" transform="translate(256.27 500.919)"/>
        <ellipse id="Ellipse_2720" data-name="Ellipse 2720" class="cls-5" cx="2.346" cy="1.933" rx="2.346" ry="1.933" transform="translate(302.99 21.944)"/>
        <ellipse id="Ellipse_2721" data-name="Ellipse 2721" class="cls-5" cx="2.346" cy="1.933" rx="2.346" ry="1.933" transform="translate(391.614 20.011)"/>
        <ellipse id="Ellipse_2722" data-name="Ellipse 2722" class="cls-5" cx="2.346" cy="1.933" rx="2.346" ry="1.933" transform="translate(189.4 70.082)"/>
        <ellipse id="Ellipse_2723" data-name="Ellipse 2723" class="cls-5" cx="2.346" cy="1.933" rx="2.346" ry="1.933" transform="translate(14.07 14.682)"/>
        <ellipse id="Ellipse_2724" data-name="Ellipse 2724" class="cls-5" cx="2.346" cy="1.933" rx="2.346" ry="1.933" transform="translate(110.836 283.394)"/>
        <ellipse id="Ellipse_2725" data-name="Ellipse 2725" class="cls-5" cx="2.346" cy="1.933" rx="2.346" ry="1.933" transform="translate(64.479 233.346)"/>
        <ellipse id="Ellipse_3319" data-name="Ellipse 3319" class="cls-5" cx="2.346" cy="1.933" rx="2.346" ry="1.933" transform="translate(-37.521 185.346)"/>
        <ellipse id="Ellipse_3322" data-name="Ellipse 3322" class="cls-5" cx="2.346" cy="1.933" rx="2.346" ry="1.933" transform="translate(-72.521 144.346)"/>
        <ellipse id="Ellipse_3323" data-name="Ellipse 3323" class="cls-5" cx="2.346" cy="1.933" rx="2.346" ry="1.933" transform="translate(17.479 46.346)"/>
        <ellipse id="Ellipse_3320" data-name="Ellipse 3320" class="cls-5" cx="2.346" cy="1.933" rx="2.346" ry="1.933" transform="translate(-70.521 273.346)"/>
        <ellipse id="Ellipse_3321" data-name="Ellipse 3321" class="cls-5" cx="2.346" cy="1.933" rx="2.346" ry="1.933" transform="translate(-39.521 243.346)"/>
        <ellipse id="Ellipse_2726" data-name="Ellipse 2726" class="cls-5" cx="2.346" cy="1.933" rx="2.346" ry="1.933" transform="translate(463.071 158.432)"/>
        <ellipse id="Ellipse_2727" data-name="Ellipse 2727" class="cls-5" cx="2.346" cy="1.933" rx="2.346" ry="1.933" transform="translate(370.915 214.116)"/>
        <ellipse id="Ellipse_2728" data-name="Ellipse 2728" class="cls-5" cx="2.346" cy="1.933" rx="2.346" ry="1.933" transform="translate(155.425 196.64)"/>
        <ellipse id="Ellipse_2729" data-name="Ellipse 2729" class="cls-5" cx="2.346" cy="1.933" rx="2.346" ry="1.933" transform="translate(255.949 167.026)"/>
        <ellipse id="Ellipse_2730" data-name="Ellipse 2730" class="cls-5" cx="2.346" cy="1.933" rx="2.346" ry="1.933" transform="translate(310.749 372.945)"/>
        <ellipse id="Ellipse_2731" data-name="Ellipse 2731" class="cls-5" cx="2.346" cy="1.933" rx="2.346" ry="1.933" transform="translate(281.054 316.182)"/>
        <ellipse id="Ellipse_2732" data-name="Ellipse 2732" class="cls-5" cx="2.346" cy="1.933" rx="2.346" ry="1.933" transform="translate(745.828 78.518)"/>
        <ellipse id="Ellipse_2733" data-name="Ellipse 2733" class="cls-5" cx="2.346" cy="1.933" rx="2.346" ry="1.933" transform="translate(122.961 333.943)"/>
        <ellipse id="Ellipse_2734" data-name="Ellipse 2734" class="cls-5" cx="2.346" cy="1.933" rx="2.346" ry="1.933" transform="translate(1057.141 393.961)"/>
        <ellipse id="Ellipse_2735" data-name="Ellipse 2735" class="cls-5" cx="2.346" cy="1.933" rx="2.346" ry="1.933" transform="translate(1120.38 425.27)"/>
        <ellipse id="Ellipse_2736" data-name="Ellipse 2736" class="cls-5" cx="2.346" cy="1.933" rx="2.346" ry="1.933" transform="translate(1037.756 447.558)"/>
        <ellipse id="Ellipse_2737" data-name="Ellipse 2737" class="cls-5" cx="2.346" cy="1.933" rx="2.346" ry="1.933" transform="translate(1157.608 322.941)"/>
        <ellipse id="Ellipse_2738" data-name="Ellipse 2738" class="cls-5" cx="2.346" cy="1.933" rx="2.346" ry="1.933" transform="translate(1268.432 351.066)"/>
        <ellipse id="Ellipse_3329" data-name="Ellipse 3329" class="cls-5" cx="2.346" cy="1.933" rx="2.346" ry="1.933" transform="translate(1323.432 337.066)"/>
        <ellipse id="Ellipse_3330" data-name="Ellipse 3330" class="cls-5" cx="2.346" cy="1.933" rx="2.346" ry="1.933" transform="translate(1376.432 481.066)"/>
        <ellipse id="Ellipse_2739" data-name="Ellipse 2739" class="cls-5" cx="2.346" cy="1.933" rx="2.346" ry="1.933" transform="translate(1309.629 148.655)"/>
        <ellipse id="Ellipse_3327" data-name="Ellipse 3327" class="cls-5" cx="2.346" cy="1.933" rx="2.346" ry="1.933" transform="translate(1287.629 250.655)"/>
        <ellipse id="Ellipse_3328" data-name="Ellipse 3328" class="cls-5" cx="2.346" cy="1.933" rx="2.346" ry="1.933" transform="translate(1378.629 318.655)"/>
        <ellipse id="Ellipse_2740" data-name="Ellipse 2740" class="cls-5" cx="2.346" cy="1.933" rx="2.346" ry="1.933" transform="translate(1180.334 398.908)"/>
        <ellipse id="Ellipse_2741" data-name="Ellipse 2741" class="cls-5" cx="2.346" cy="1.933" rx="2.346" ry="1.933" transform="translate(1272.773 406.479)"/>
        <ellipse id="Ellipse_2742" data-name="Ellipse 2742" class="cls-5" cx="2.346" cy="1.933" rx="2.346" ry="1.933" transform="translate(991.349 297.893)"/>
        <path id="Tracé_47298" data-name="Tracé 47298" class="cls-5" d="M2.132.06A2.864,2.864,0,0,1,4.683,2.292c.13,1.1-.8,1.872-2.08,1.734A2.864,2.864,0,0,1,.051,1.795C-.079.7.853-.077,2.132.06Z" transform="matrix(0.839, -0.545, 0.545, 0.839, 1195.31, 286.836)"/>
        <path id="Tracé_47299" data-name="Tracé 47299" class="cls-5" d="M2.132.06A2.864,2.864,0,0,1,4.683,2.292c.13,1.1-.8,1.872-2.08,1.734A2.864,2.864,0,0,1,.051,1.795C-.079.7.853-.077,2.132.06Z" transform="matrix(0.839, -0.545, 0.545, 0.839, 1317.133, 98.406)"/>
        <path id="Tracé_55140" data-name="Tracé 55140" class="cls-5" d="M2.132.06A2.864,2.864,0,0,1,4.683,2.292c.13,1.1-.8,1.872-2.08,1.734A2.864,2.864,0,0,1,.051,1.795C-.079.7.853-.077,2.132.06Z" transform="matrix(0.839, -0.545, 0.545, 0.839, 1365.133, 98.406)"/>
        <path id="Tracé_55139" data-name="Tracé 55139" class="cls-5" d="M2.132.06A2.864,2.864,0,0,1,4.683,2.292c.13,1.1-.8,1.872-2.08,1.734A2.864,2.864,0,0,1,.051,1.795C-.079.7.853-.077,2.132.06Z" transform="matrix(0.839, -0.545, 0.545, 0.839, 1375.133, 37.406)"/>
        <path id="Tracé_47300" data-name="Tracé 47300" class="cls-5" d="M2.132.06A2.864,2.864,0,0,1,4.683,2.292c.13,1.1-.8,1.872-2.08,1.734A2.864,2.864,0,0,1,.051,1.795C-.079.7.853-.077,2.132.06Z" transform="matrix(0.839, -0.545, 0.545, 0.839, 1060.35, 277.609)"/>
        <path id="Tracé_47301" data-name="Tracé 47301" class="cls-5" d="M2.132.06A2.864,2.864,0,0,1,4.683,2.292c.13,1.1-.8,1.872-2.08,1.734A2.864,2.864,0,0,1,.051,1.795C-.079.7.853-.077,2.132.06Z" transform="matrix(0.839, -0.545, 0.545, 0.839, 656.177, 201.783)"/>
        <path id="Tracé_47302" data-name="Tracé 47302" class="cls-5" d="M2.132.06A2.864,2.864,0,0,1,4.683,2.292c.13,1.1-.8,1.872-2.08,1.734A2.864,2.864,0,0,1,.051,1.795C-.079.7.853-.077,2.132.06Z" transform="matrix(0.839, -0.545, 0.545, 0.839, 918.907, 272.306)"/>
        <path id="Tracé_47303" data-name="Tracé 47303" class="cls-5" d="M2.132.06A2.864,2.864,0,0,1,4.683,2.292c.13,1.1-.8,1.872-2.08,1.734A2.864,2.864,0,0,1,.051,1.795C-.079.7.853-.077,2.132.06Z" transform="matrix(0.839, -0.545, 0.545, 0.839, 892.332, 75.797)"/>
        <path id="Tracé_47304" data-name="Tracé 47304" class="cls-5" d="M2.132.06A2.864,2.864,0,0,1,4.683,2.292c.13,1.1-.8,1.872-2.08,1.734A2.864,2.864,0,0,1,.051,1.795C-.079.7.853-.077,2.132.06Z" transform="matrix(0.839, -0.545, 0.545, 0.839, 591.315, 125.242)"/>
        <path id="Tracé_47305" data-name="Tracé 47305" class="cls-5" d="M2.132.06A2.864,2.864,0,0,1,4.683,2.292c.13,1.1-.8,1.872-2.08,1.734A2.864,2.864,0,0,1,.051,1.795C-.079.7.853-.077,2.132.06Z" transform="matrix(0.839, -0.545, 0.545, 0.839, 801.013, 103.333)"/>
        <path id="Tracé_47306" data-name="Tracé 47306" class="cls-5" d="M2.132.06A2.864,2.864,0,0,1,4.683,2.292c.13,1.1-.8,1.872-2.08,1.734A2.864,2.864,0,0,1,.051,1.795C-.079.7.853-.077,2.132.06Z" transform="matrix(0.839, -0.545, 0.545, 0.839, 1254.864, 50.92)"/>
        <path id="Tracé_47307" data-name="Tracé 47307" class="cls-5" d="M2.132.06A2.864,2.864,0,0,1,4.683,2.292c.13,1.1-.8,1.872-2.08,1.734A2.864,2.864,0,0,1,.051,1.795C-.079.7.853-.077,2.132.06Z" transform="matrix(0.839, -0.545, 0.545, 0.839, 933.89, 31.653)"/>
        <path id="Tracé_47308" data-name="Tracé 47308" class="cls-5" d="M2.132.06A2.864,2.864,0,0,1,4.683,2.292c.13,1.1-.8,1.872-2.08,1.734A2.864,2.864,0,0,1,.051,1.795C-.079.7.853-.077,2.132.06Z" transform="matrix(0.839, -0.545, 0.545, 0.839, 1132.138, 206.361)"/>
        <path id="Tracé_47309" data-name="Tracé 47309" class="cls-5" d="M2.132.06A2.864,2.864,0,0,1,4.683,2.292c.13,1.1-.8,1.872-2.08,1.734A2.864,2.864,0,0,1,.051,1.795C-.079.7.853-.077,2.132.06Z" transform="matrix(0.839, -0.545, 0.545, 0.839, 1180.387, 170.422)"/>
        <path id="Tracé_47310" data-name="Tracé 47310" class="cls-5" d="M2.132.06A2.864,2.864,0,0,1,4.683,2.292c.13,1.1-.8,1.872-2.08,1.734A2.864,2.864,0,0,1,.051,1.795C-.079.7.853-.077,2.132.06Z" transform="matrix(0.839, -0.545, 0.545, 0.839, 1239.621, 455.807)"/>
        <path id="Tracé_47311" data-name="Tracé 47311" class="cls-5" d="M2.132.06A2.864,2.864,0,0,1,4.683,2.292c.13,1.1-.8,1.872-2.08,1.734A2.864,2.864,0,0,1,.051,1.795C-.079.7.853-.077,2.132.06Z" transform="matrix(0.839, -0.545, 0.545, 0.839, 925.986, 160.351)"/>
        <path id="Tracé_47131" data-name="Tracé 47131" class="cls-5" d="M-3007.413-1040.16h-11.134a1.38,1.38,0,0,1-1.515-1.182,1.38,1.38,0,0,1,1.515-1.182h11.134a1.379,1.379,0,0,1,1.514,1.182A1.38,1.38,0,0,1-3007.413-1040.16Z" transform="translate(3525.896 1101.085)"/>
        <path id="Tracé_47132" data-name="Tracé 47132" class="cls-5" d="M-2988.493-1094.405h-11.133a1.381,1.381,0,0,1-1.515-1.182,1.38,1.38,0,0,1,1.515-1.182h11.133a1.381,1.381,0,0,1,1.515,1.182A1.381,1.381,0,0,1-2988.493-1094.405Z" transform="translate(3526.083 1112.586)"/>
        <path id="Tracé_47133" data-name="Tracé 47133" class="cls-5" d="M-3106.651-1034.866h-11.134a1.381,1.381,0,0,1-1.515-1.182,1.381,1.381,0,0,1,1.515-1.182h11.134a1.38,1.38,0,0,1,1.514,1.182A1.38,1.38,0,0,1-3106.651-1034.866Z" transform="translate(3524.915 1099.963)"/>
        <path id="Tracé_47134" data-name="Tracé 47134" class="cls-5" d="M-3218.811-1027.967h-11.134a1.38,1.38,0,0,1-1.515-1.182,1.38,1.38,0,0,1,1.515-1.182h11.134a1.38,1.38,0,0,1,1.515,1.182A1.38,1.38,0,0,1-3218.811-1027.967Z" transform="translate(3523.806 1098.5)"/>
        <path id="Tracé_47135" data-name="Tracé 47135" class="cls-5" d="M-3319.583-1062.109h-11.134a1.38,1.38,0,0,1-1.515-1.182,1.38,1.38,0,0,1,1.515-1.182h11.134a1.38,1.38,0,0,1,1.515,1.182A1.381,1.381,0,0,1-3319.583-1062.109Z" transform="translate(3522.81 1105.739)"/>
        <path id="Tracé_47136" data-name="Tracé 47136" class="cls-5" d="M-3125.205-943.435h-11.134a1.38,1.38,0,0,1-1.515-1.182,1.38,1.38,0,0,1,1.515-1.182h11.134a1.38,1.38,0,0,1,1.515,1.182A1.38,1.38,0,0,1-3125.205-943.435Z" transform="translate(3524.731 1080.577)"/>
        <path id="Tracé_47137" data-name="Tracé 47137" class="cls-5" d="M-3330.593-938.952h-11.133a1.38,1.38,0,0,1-1.515-1.182,1.38,1.38,0,0,1,1.515-1.182h11.133a1.38,1.38,0,0,1,1.515,1.182A1.38,1.38,0,0,1-3330.593-938.952Z" transform="translate(3522.701 1079.626)"/>
        <path id="Tracé_47138" data-name="Tracé 47138" class="cls-5" d="M-3449.138-882.7h-11.132a1.38,1.38,0,0,1-1.515-1.182,1.38,1.38,0,0,1,1.515-1.182h11.132a1.38,1.38,0,0,1,1.514,1.182A1.38,1.38,0,0,1-3449.138-882.7Z" transform="translate(3521.529 1067.699)"/>
        <path id="Tracé_47139" data-name="Tracé 47139" class="cls-5" d="M-3372-810.659h-11.133a1.38,1.38,0,0,1-1.515-1.182,1.381,1.381,0,0,1,1.515-1.182H-3372a1.38,1.38,0,0,1,1.515,1.182A1.38,1.38,0,0,1-3372-810.659Z" transform="translate(3522.292 1052.426)"/>
        <path id="Tracé_47140" data-name="Tracé 47140" class="cls-5" d="M-3187.929-899.1h-11.133a1.38,1.38,0,0,1-1.515-1.182,1.38,1.38,0,0,1,1.515-1.182h11.133a1.38,1.38,0,0,1,1.515,1.182A1.38,1.38,0,0,1-3187.929-899.1Z" transform="translate(3524.111 1071.178)"/>
        <path id="Tracé_47141" data-name="Tracé 47141" class="cls-5" d="M-3328.944-708h-11.132a1.38,1.38,0,0,1-1.515-1.182,1.38,1.38,0,0,1,1.515-1.182h11.132a1.38,1.38,0,0,1,1.515,1.182A1.38,1.38,0,0,1-3328.944-708Z" transform="translate(3522.717 1030.66)"/>
        <path id="Tracé_47142" data-name="Tracé 47142" class="cls-5" d="M-3261.547-790.605h-11.133a1.381,1.381,0,0,1-1.515-1.182,1.381,1.381,0,0,1,1.515-1.182h11.133a1.381,1.381,0,0,1,1.515,1.182A1.381,1.381,0,0,1-3261.547-790.605Z" transform="translate(3523.384 1048.174)"/>
        <path id="Tracé_47143" data-name="Tracé 47143" class="cls-5" d="M-3426.77-482.262H-3437.9a1.38,1.38,0,0,1-1.515-1.182,1.38,1.38,0,0,1,1.515-1.182h11.132a1.38,1.38,0,0,1,1.515,1.182A1.38,1.38,0,0,1-3426.77-482.262Z" transform="translate(3521.75 982.798)"/>
        <path id="Tracé_47144" data-name="Tracé 47144" class="cls-5" d="M-3129.166-446.453H-3140.3a1.38,1.38,0,0,1-1.514-1.182,1.38,1.38,0,0,1,1.514-1.182h11.133a1.38,1.38,0,0,1,1.515,1.182A1.381,1.381,0,0,1-3129.166-446.453Z" transform="translate(3524.693 975.205)"/>
        <path id="Tracé_47145" data-name="Tracé 47145" class="cls-5" d="M-3465.143-627.2h-11.132a1.38,1.38,0,0,1-1.515-1.182,1.38,1.38,0,0,1,1.515-1.182h11.132a1.38,1.38,0,0,1,1.515,1.182A1.38,1.38,0,0,1-3465.143-627.2Z" transform="translate(3521.37 1013.528)"/>
        <path id="Tracé_55136" data-name="Tracé 55136" class="cls-5" d="M-3465.143-627.2h-11.132a1.38,1.38,0,0,1-1.515-1.182,1.38,1.38,0,0,1,1.515-1.182h11.132a1.38,1.38,0,0,1,1.515,1.182A1.38,1.38,0,0,1-3465.143-627.2Z" transform="translate(3503.37 1083.528)"/>
        <path id="Tracé_55134" data-name="Tracé 55134" class="cls-5" d="M-3465.143-627.2h-11.132a1.38,1.38,0,0,1-1.515-1.182,1.38,1.38,0,0,1,1.515-1.182h11.132a1.38,1.38,0,0,1,1.515,1.182A1.38,1.38,0,0,1-3465.143-627.2Z" transform="translate(3432.37 1109.528)"/>
        <path id="Tracé_47146" data-name="Tracé 47146" class="cls-5" d="M-3391.173-615.733h-11.132a1.38,1.38,0,0,1-1.515-1.182,1.38,1.38,0,0,1,1.515-1.182h11.132a1.38,1.38,0,0,1,1.515,1.182A1.38,1.38,0,0,1-3391.173-615.733Z" transform="translate(3522.102 1011.097)"/>
        <path id="Tracé_47147" data-name="Tracé 47147" class="cls-5" d="M-3458.13-700.432h-11.134a1.38,1.38,0,0,1-1.515-1.182,1.38,1.38,0,0,1,1.515-1.182h11.134a1.381,1.381,0,0,1,1.515,1.182A1.38,1.38,0,0,1-3458.13-700.432Z" transform="translate(3521.44 1029.055)"/>
        <path id="Tracé_47148" data-name="Tracé 47148" class="cls-5" d="M-3155.878-774.053h-11.134a1.38,1.38,0,0,1-1.515-1.182,1.38,1.38,0,0,1,1.515-1.182h11.134a1.38,1.38,0,0,1,1.515,1.182A1.38,1.38,0,0,1-3155.878-774.053Z" transform="translate(3524.428 1044.664)"/>
        <path id="Tracé_47149" data-name="Tracé 47149" class="cls-5" d="M-3057.534-839.344h-11.134a1.38,1.38,0,0,1-1.515-1.182,1.38,1.38,0,0,1,1.515-1.182h11.134a1.38,1.38,0,0,1,1.515,1.182A1.38,1.38,0,0,1-3057.534-839.344Z" transform="translate(3525.4 1058.507)"/>
        <path id="Tracé_47150" data-name="Tracé 47150" class="cls-5" d="M-3508.3-763.134h-11.134a1.38,1.38,0,0,1-1.515-1.182,1.38,1.38,0,0,1,1.515-1.182h11.134a1.381,1.381,0,0,1,1.515,1.182A1.381,1.381,0,0,1-3508.3-763.134Z" transform="translate(3520.944 1042.349)"/>
        <path id="Tracé_55127" data-name="Tracé 55127" class="cls-5" d="M-3508.3-763.134h-11.134a1.38,1.38,0,0,1-1.515-1.182,1.38,1.38,0,0,1,1.515-1.182h11.134a1.381,1.381,0,0,1,1.515,1.182A1.381,1.381,0,0,1-3508.3-763.134Z" transform="translate(3471.944 1059.349)"/>
        <path id="Tracé_55128" data-name="Tracé 55128" class="cls-5" d="M-3508.3-763.134h-11.134a1.38,1.38,0,0,1-1.515-1.182,1.38,1.38,0,0,1,1.515-1.182h11.134a1.381,1.381,0,0,1,1.515,1.182A1.381,1.381,0,0,1-3508.3-763.134Z" transform="translate(3445.944 990.349)"/>
        <path id="Tracé_55131" data-name="Tracé 55131" class="cls-5" d="M-3508.3-763.134h-11.134a1.38,1.38,0,0,1-1.515-1.182,1.38,1.38,0,0,1,1.515-1.182h11.134a1.381,1.381,0,0,1,1.515,1.182A1.381,1.381,0,0,1-3508.3-763.134Z" transform="translate(3534.944 979.349)"/>
        <path id="Tracé_55130" data-name="Tracé 55130" class="cls-5" d="M-3508.3-763.134h-11.134a1.38,1.38,0,0,1-1.515-1.182,1.38,1.38,0,0,1,1.515-1.182h11.134a1.381,1.381,0,0,1,1.515,1.182A1.381,1.381,0,0,1-3508.3-763.134Z" transform="translate(3503.944 899.349)"/>
        <path id="Tracé_55132" data-name="Tracé 55132" class="cls-5" d="M-3508.3-763.134h-11.134a1.38,1.38,0,0,1-1.515-1.182,1.38,1.38,0,0,1,1.515-1.182h11.134a1.381,1.381,0,0,1,1.515,1.182A1.381,1.381,0,0,1-3508.3-763.134Z" transform="translate(3491.944 844.349)"/>
        <path id="Tracé_55129" data-name="Tracé 55129" class="cls-5" d="M-3508.3-763.134h-11.134a1.38,1.38,0,0,1-1.515-1.182,1.38,1.38,0,0,1,1.515-1.182h11.134a1.381,1.381,0,0,1,1.515,1.182A1.381,1.381,0,0,1-3508.3-763.134Z" transform="translate(3447.944 1122.349)"/>
        <path id="Tracé_55135" data-name="Tracé 55135" class="cls-5" d="M-3508.3-763.134h-11.134a1.38,1.38,0,0,1-1.515-1.182,1.38,1.38,0,0,1,1.515-1.182h11.134a1.381,1.381,0,0,1,1.515,1.182A1.381,1.381,0,0,1-3508.3-763.134Z" transform="translate(3430.944 1201.349)"/>
        <path id="Tracé_47151" data-name="Tracé 47151" class="cls-5" d="M-3475.51-1019.248h-11.134a1.38,1.38,0,0,1-1.515-1.182,1.38,1.38,0,0,1,1.515-1.182h11.134a1.381,1.381,0,0,1,1.515,1.182A1.381,1.381,0,0,1-3475.51-1019.248Z" transform="translate(3521.268 1096.651)"/>
        <path id="Tracé_55133" data-name="Tracé 55133" class="cls-5" d="M-3475.51-1019.248h-11.134a1.38,1.38,0,0,1-1.515-1.182,1.38,1.38,0,0,1,1.515-1.182h11.134a1.381,1.381,0,0,1,1.515,1.182A1.381,1.381,0,0,1-3475.51-1019.248Z" transform="translate(3420.268 1057.651)"/>
        <path id="Tracé_47152" data-name="Tracé 47152" class="cls-5" d="M-3425.465-1097.345H-3436.6a1.38,1.38,0,0,1-1.515-1.182,1.38,1.38,0,0,1,1.515-1.182h11.133a1.38,1.38,0,0,1,1.514,1.182A1.38,1.38,0,0,1-3425.465-1097.345Z" transform="translate(3521.763 1113.209)"/>
        <path id="Tracé_47153" data-name="Tracé 47153" class="cls-5" d="M-3322.546-1114.478h-11.133a1.38,1.38,0,0,1-1.515-1.182,1.38,1.38,0,0,1,1.515-1.182h11.133a1.38,1.38,0,0,1,1.515,1.182A1.38,1.38,0,0,1-3322.546-1114.478Z" transform="translate(3522.78 1116.842)"/>
        <path id="Tracé_47154" data-name="Tracé 47154" class="cls-5" d="M-2671.118-858.326h-11.134a1.38,1.38,0,0,1-1.515-1.182,1.38,1.38,0,0,1,1.515-1.182h11.134a1.381,1.381,0,0,1,1.515,1.182A1.381,1.381,0,0,1-2671.118-858.326Z" transform="translate(3529.221 1062.532)"/>
        <path id="Tracé_47155" data-name="Tracé 47155" class="cls-5" d="M-3064.546-974.849h-11.134a1.38,1.38,0,0,1-1.515-1.182,1.38,1.38,0,0,1,1.515-1.182h11.134a1.38,1.38,0,0,1,1.515,1.182A1.381,1.381,0,0,1-3064.546-974.849Z" transform="translate(3525.331 1087.237)"/>
        <path id="Tracé_47156" data-name="Tracé 47156" class="cls-5" d="M-2509.1-1009.927h-11.133a1.381,1.381,0,0,1-1.515-1.182,1.381,1.381,0,0,1,1.515-1.182h11.133a1.38,1.38,0,0,1,1.515,1.182A1.38,1.38,0,0,1-2509.1-1009.927Z" transform="translate(3530.823 1094.675)"/>
        <ellipse id="Ellipse_2757" data-name="Ellipse 2757" class="cls-5" cx="2.346" cy="1.933" rx="2.346" ry="1.933" transform="translate(797 312.451)"/>
        <path id="Tracé_47312" data-name="Tracé 47312" class="cls-5" d="M2.132.06A2.864,2.864,0,0,1,4.683,2.292c.13,1.1-.8,1.872-2.08,1.734A2.864,2.864,0,0,1,.051,1.795C-.079.7.853-.077,2.132.06Z" transform="matrix(0.839, -0.545, 0.545, 0.839, 724.558, 286.864)"/>
        <path id="Tracé_47313" data-name="Tracé 47313" class="cls-5" d="M2.132.06A2.864,2.864,0,0,1,4.683,2.292c.13,1.1-.8,1.872-2.08,1.734A2.864,2.864,0,0,1,.051,1.795C-.079.7.853-.077,2.132.06Z" transform="matrix(0.839, -0.545, 0.545, 0.839, 703.542, 199.125)"/>
        <path id="Tracé_47157" data-name="Tracé 47157" class="cls-5" d="M-2684.253-749.344h-11.135a1.38,1.38,0,0,1-1.515-1.182,1.381,1.381,0,0,1,1.515-1.182h11.135a1.38,1.38,0,0,1,1.514,1.182A1.38,1.38,0,0,1-2684.253-749.344Z" transform="translate(3529.091 1039.425)"/>
        <ellipse id="Ellipse_2760" data-name="Ellipse 2760" class="cls-5" cx="2.346" cy="1.933" rx="2.346" ry="1.933" transform="translate(791.007 427.203)"/>
        <path id="Tracé_47314" data-name="Tracé 47314" class="cls-5" d="M2.132.06A2.864,2.864,0,0,1,4.683,2.292c.13,1.1-.8,1.872-2.08,1.734A2.864,2.864,0,0,1,.051,1.795C-.079.7.853-.077,2.132.06Z" transform="matrix(0.839, -0.545, 0.545, 0.839, 861.943, 455.807)"/>
        <path id="Tracé_47315" data-name="Tracé 47315" class="cls-5" d="M2.132.06A2.864,2.864,0,0,1,4.683,2.292c.13,1.1-.8,1.872-2.08,1.734A2.864,2.864,0,0,1,.051,1.795C-.079.7.853-.077,2.132.06Z" transform="matrix(0.839, -0.545, 0.545, 0.839, 922.315, 327.01)"/>
        <path id="Tracé_47158" data-name="Tracé 47158" class="cls-5" d="M-2776.727-522.256h11.133a1.38,1.38,0,0,1,1.515,1.182,1.38,1.38,0,0,1-1.515,1.182h-11.133a1.38,1.38,0,0,1-1.515-1.182A1.38,1.38,0,0,1-2776.727-522.256Z" transform="translate(3528.287 990.776)"/>
        <path id="Tracé_47159" data-name="Tracé 47159" class="cls-5" d="M-2582.784-509.365h11.135a1.38,1.38,0,0,1,1.514,1.182,1.38,1.38,0,0,1-1.514,1.182h-11.135a1.381,1.381,0,0,1-1.515-1.182A1.381,1.381,0,0,1-2582.784-509.365Z" transform="translate(3530.204 988.043)"/>
        <path id="Tracé_47160" data-name="Tracé 47160" class="cls-5" d="M-2588.047-623.732h-11.133a1.381,1.381,0,0,1-1.515-1.182,1.38,1.38,0,0,1,1.515-1.182h11.133a1.38,1.38,0,0,1,1.515,1.182A1.38,1.38,0,0,1-2588.047-623.732Z" transform="translate(3530.042 1012.793)"/>
        <path id="Tracé_47161" data-name="Tracé 47161" class="cls-5" d="M-2412.731-929.005h-11.132a1.38,1.38,0,0,1-1.515-1.182,1.38,1.38,0,0,1,1.515-1.182h11.132a1.381,1.381,0,0,1,1.515,1.182A1.381,1.381,0,0,1-2412.731-929.005Z" transform="translate(3531.776 1077.518)"/>
        <path id="Tracé_47162" data-name="Tracé 47162" class="cls-5" d="M-2458.305-682.1h-11.133a1.381,1.381,0,0,1-1.515-1.182,1.381,1.381,0,0,1,1.515-1.182h11.133a1.381,1.381,0,0,1,1.515,1.182A1.38,1.38,0,0,1-2458.305-682.1Z" transform="translate(3531.325 1025.168)"/>
        <path id="Tracé_47163" data-name="Tracé 47163" class="cls-5" d="M-2382.424-789.105h-11.134a1.38,1.38,0,0,1-1.515-1.182,1.38,1.38,0,0,1,1.515-1.182h11.134a1.38,1.38,0,0,1,1.515,1.182A1.38,1.38,0,0,1-2382.424-789.105Z" transform="translate(3532.074 1047.856)"/>
        <path id="Tracé_47164" data-name="Tracé 47164" class="cls-5" d="M-2429.25-508.5h-11.134a1.38,1.38,0,0,1-1.515-1.182,1.38,1.38,0,0,1,1.515-1.182h11.134a1.38,1.38,0,0,1,1.515,1.182A1.38,1.38,0,0,1-2429.25-508.5Z" transform="translate(3531.612 988.361)"/>
        <path id="Tracé_47165" data-name="Tracé 47165" class="cls-5" d="M-2593.05-417.515h-11.134a1.38,1.38,0,0,1-1.515-1.182,1.38,1.38,0,0,1,1.515-1.182h11.134a1.38,1.38,0,0,1,1.515,1.182A1.38,1.38,0,0,1-2593.05-417.515Z" transform="translate(3529.993 969.07)"/>
        <path id="Tracé_47166" data-name="Tracé 47166" class="cls-5" d="M-2407.379-444.953h-11.133a1.38,1.38,0,0,1-1.515-1.182,1.38,1.38,0,0,1,1.515-1.182h11.133a1.38,1.38,0,0,1,1.515,1.182A1.38,1.38,0,0,1-2407.379-444.953Z" transform="translate(3531.828 974.888)"/>
        <path id="Tracé_47167" data-name="Tracé 47167" class="cls-5" d="M-2654.366-469H-2665.5a1.381,1.381,0,0,1-1.515-1.182,1.381,1.381,0,0,1,1.515-1.182h11.133a1.381,1.381,0,0,1,1.515,1.182A1.381,1.381,0,0,1-2654.366-469Z" transform="translate(3529.386 979.987)"/>
        <path id="Tracé_47168" data-name="Tracé 47168" class="cls-5" d="M-2224.388-518.392h-11.133a1.38,1.38,0,0,1-1.515-1.182,1.379,1.379,0,0,1,1.515-1.182h11.133a1.38,1.38,0,0,1,1.515,1.182A1.38,1.38,0,0,1-2224.388-518.392Z" transform="translate(3539.637 974.458)"/>
        <path id="Tracé_55143" data-name="Tracé 55143" class="cls-5" d="M-2224.388-518.392h-11.133a1.38,1.38,0,0,1-1.515-1.182,1.379,1.379,0,0,1,1.515-1.182h11.133a1.38,1.38,0,0,1,1.515,1.182A1.38,1.38,0,0,1-2224.388-518.392Z" transform="translate(3620.637 942.458)"/>
        <path id="Tracé_55142" data-name="Tracé 55142" class="cls-5" d="M-2224.388-518.392h-11.133a1.38,1.38,0,0,1-1.515-1.182,1.379,1.379,0,0,1,1.515-1.182h11.133a1.38,1.38,0,0,1,1.515,1.182A1.38,1.38,0,0,1-2224.388-518.392Z" transform="translate(3569.637 896.458)"/>
        <path id="Tracé_47169" data-name="Tracé 47169" class="cls-5" d="M-2281.175-484.108h-11.133a1.38,1.38,0,0,1-1.515-1.182,1.38,1.38,0,0,1,1.515-1.182h11.133a1.381,1.381,0,0,1,1.515,1.182A1.38,1.38,0,0,1-2281.175-484.108Z" transform="translate(3533.076 983.189)"/>
        <path id="Tracé_47170" data-name="Tracé 47170" class="cls-5" d="M-2466.193-844.25h-11.133a1.38,1.38,0,0,1-1.514-1.182,1.38,1.38,0,0,1,1.514-1.182h11.133a1.381,1.381,0,0,1,1.515,1.182A1.381,1.381,0,0,1-2466.193-844.25Z" transform="translate(3531.247 1059.547)"/>
        <path id="Tracé_47171" data-name="Tracé 47171" class="cls-5" d="M-2267.156-733.191h-11.133a1.38,1.38,0,0,1-1.515-1.182,1.379,1.379,0,0,1,1.515-1.182h11.133a1.38,1.38,0,0,1,1.515,1.182A1.38,1.38,0,0,1-2267.156-733.191Z" transform="translate(3533.214 1036.001)"/>
        <path id="Tracé_47172" data-name="Tracé 47172" class="cls-5" d="M-2285.961-819.846H-2297.1a1.379,1.379,0,0,1-1.515-1.182,1.38,1.38,0,0,1,1.515-1.182h11.134a1.38,1.38,0,0,1,1.515,1.182A1.38,1.38,0,0,1-2285.961-819.846Z" transform="translate(3533.028 1054.373)"/>
        <path id="Tracé_47173" data-name="Tracé 47173" class="cls-5" d="M-2299.709-930.505h-11.134a1.38,1.38,0,0,1-1.515-1.182,1.38,1.38,0,0,1,1.515-1.182h11.134a1.38,1.38,0,0,1,1.515,1.182A1.38,1.38,0,0,1-2299.709-930.505Z" transform="translate(3532.892 1077.836)"/>
        <path id="Tracé_47174" data-name="Tracé 47174" class="cls-5" d="M-2201.912-839.344h-11.134a1.38,1.38,0,0,1-1.515-1.182,1.38,1.38,0,0,1,1.515-1.182h11.134a1.38,1.38,0,0,1,1.515,1.182A1.38,1.38,0,0,1-2201.912-839.344Z" transform="translate(3533.859 1058.507)"/>
        <path id="Tracé_55138" data-name="Tracé 55138" class="cls-5" d="M-2201.912-839.344h-11.134a1.38,1.38,0,0,1-1.515-1.182,1.38,1.38,0,0,1,1.515-1.182h11.134a1.38,1.38,0,0,1,1.515,1.182A1.38,1.38,0,0,1-2201.912-839.344Z" transform="translate(3592.859 1024.507)"/>
        <path id="Tracé_55137" data-name="Tracé 55137" class="cls-5" d="M-2201.912-839.344h-11.134a1.38,1.38,0,0,1-1.515-1.182,1.38,1.38,0,0,1,1.515-1.182h11.134a1.38,1.38,0,0,1,1.515,1.182A1.38,1.38,0,0,1-2201.912-839.344Z" transform="translate(3554.859 1119.507)"/>
        <path id="Tracé_55141" data-name="Tracé 55141" class="cls-5" d="M-2201.912-839.344h-11.134a1.38,1.38,0,0,1-1.515-1.182,1.38,1.38,0,0,1,1.515-1.182h11.134a1.38,1.38,0,0,1,1.515,1.182A1.38,1.38,0,0,1-2201.912-839.344Z" transform="translate(3599.859 1073.507)"/>
        <path id="Tracé_47175" data-name="Tracé 47175" class="cls-5" d="M-2942.906-1020.748h-11.132a1.38,1.38,0,0,1-1.515-1.182,1.38,1.38,0,0,1,1.515-1.182h11.132a1.38,1.38,0,0,1,1.515,1.182A1.38,1.38,0,0,1-2942.906-1020.748Z" transform="translate(3526.534 1096.969)"/>
        <path id="Tracé_47176" data-name="Tracé 47176" class="cls-5" d="M-2971.872-815.892H-2983a1.38,1.38,0,0,1-1.515-1.182,1.38,1.38,0,0,1,1.515-1.182h11.133a1.38,1.38,0,0,1,1.515,1.182A1.38,1.38,0,0,1-2971.872-815.892Z" transform="translate(3526.247 1053.535)"/>
        <path id="Tracé_47177" data-name="Tracé 47177" class="cls-5" d="M-2815.585-1062.109h-11.134a1.38,1.38,0,0,1-1.515-1.182,1.38,1.38,0,0,1,1.515-1.182h11.134a1.381,1.381,0,0,1,1.515,1.182A1.381,1.381,0,0,1-2815.585-1062.109Z" transform="translate(3527.793 1105.739)"/>
        <path id="Tracé_47178" data-name="Tracé 47178" class="cls-5" d="M-2676.285-1045.826h-11.132a1.381,1.381,0,0,1-1.515-1.182,1.381,1.381,0,0,1,1.515-1.182h11.132a1.381,1.381,0,0,1,1.516,1.182A1.381,1.381,0,0,1-2676.285-1045.826Z" transform="translate(3529.17 1102.286)"/>
        <path id="Tracé_47179" data-name="Tracé 47179" class="cls-5" d="M-2389.436-1019.248h-11.134a1.38,1.38,0,0,1-1.515-1.182,1.38,1.38,0,0,1,1.515-1.182h11.134a1.38,1.38,0,0,1,1.515,1.182A1.38,1.38,0,0,1-2389.436-1019.248Z" transform="translate(3532.006 1096.651)"/>
        <path id="Tracé_47180" data-name="Tracé 47180" class="cls-5" d="M-2227.64-1084.405h-11.133a1.38,1.38,0,0,1-1.515-1.182,1.381,1.381,0,0,1,1.515-1.182h11.133a1.38,1.38,0,0,1,1.515,1.182A1.379,1.379,0,0,1-2227.64-1084.405Z" transform="translate(3533.605 1110.466)"/>
        <path id="Tracé_47181" data-name="Tracé 47181" class="cls-5" d="M-2453.975-1094.405h-11.133a1.381,1.381,0,0,1-1.515-1.182,1.38,1.38,0,0,1,1.515-1.182h11.133a1.38,1.38,0,0,1,1.515,1.182A1.38,1.38,0,0,1-2453.975-1094.405Z" transform="translate(3531.367 1112.586)"/>
        <path id="Tracé_47182" data-name="Tracé 47182" class="cls-5" d="M-2495.877-917.95h-11.132a1.38,1.38,0,0,1-1.515-1.182,1.38,1.38,0,0,1,1.515-1.182h11.132a1.381,1.381,0,0,1,1.515,1.182A1.381,1.381,0,0,1-2495.877-917.95Z" transform="translate(3530.953 1075.174)"/>
        <path id="Tracé_47183" data-name="Tracé 47183" class="cls-5" d="M-2793.787-807.767h-11.134a1.38,1.38,0,0,1-1.515-1.182,1.38,1.38,0,0,1,1.515-1.182h11.134a1.38,1.38,0,0,1,1.515,1.182A1.381,1.381,0,0,1-2793.787-807.767Z" transform="translate(3528.008 1051.812)"/>
        <path id="Tracé_47184" data-name="Tracé 47184" class="cls-5" d="M-2853.459-731.17h-11.133a1.379,1.379,0,0,1-1.515-1.182,1.38,1.38,0,0,1,1.515-1.182h11.133a1.38,1.38,0,0,1,1.515,1.182A1.38,1.38,0,0,1-2853.459-731.17Z" transform="translate(3527.418 1035.572)"/>
        <path id="Tracé_47185" data-name="Tracé 47185" class="cls-5" d="M-3096.286-664.476h-11.133a1.381,1.381,0,0,1-1.515-1.182,1.381,1.381,0,0,1,1.515-1.182h11.133a1.381,1.381,0,0,1,1.515,1.182A1.381,1.381,0,0,1-3096.286-664.476Z" transform="translate(3525.018 1021.431)"/>
        <path id="Tracé_47186" data-name="Tracé 47186" class="cls-5" d="M-3062.224-712.018h-11.133a1.38,1.38,0,0,1-1.515-1.182,1.381,1.381,0,0,1,1.515-1.182h11.133a1.38,1.38,0,0,1,1.515,1.182A1.38,1.38,0,0,1-3062.224-712.018Z" transform="translate(3525.354 1031.511)"/>
        <path id="Tracé_47187" data-name="Tracé 47187" class="cls-5" d="M-3260.876-598.711h-11.133a1.38,1.38,0,0,1-1.515-1.182,1.379,1.379,0,0,1,1.515-1.182h11.133a1.38,1.38,0,0,1,1.515,1.182A1.381,1.381,0,0,1-3260.876-598.711Z" transform="translate(3523.39 1007.488)"/>
        <path id="Tracé_47188" data-name="Tracé 47188" class="cls-5" d="M-3215.911-548h-11.134a1.38,1.38,0,0,1-1.514-1.182,1.38,1.38,0,0,1,1.514-1.182h11.134a1.38,1.38,0,0,1,1.514,1.182A1.38,1.38,0,0,1-3215.911-548Z" transform="translate(3523.834 996.735)"/>
        <ellipse id="Ellipse_2763" data-name="Ellipse 2763" class="cls-5" cx="2.346" cy="1.933" rx="2.346" ry="1.933" transform="translate(604.232 367.189)"/>
        <ellipse id="Ellipse_2764" data-name="Ellipse 2764" class="cls-5" cx="2.346" cy="1.933" rx="2.346" ry="1.933" transform="translate(472.887 502.07)"/>
        <ellipse id="Ellipse_2765" data-name="Ellipse 2765" class="cls-5" cx="2.346" cy="1.933" rx="2.346" ry="1.933" transform="translate(380.219 417.538)"/>
        <ellipse id="Ellipse_2766" data-name="Ellipse 2766" class="cls-5" cx="2.346" cy="1.933" rx="2.346" ry="1.933" transform="translate(393.002 455.48)"/>
        <ellipse id="Ellipse_2767" data-name="Ellipse 2767" class="cls-5" cx="2.346" cy="1.933" rx="2.346" ry="1.933" transform="translate(663.387 449.491)"/>
        <ellipse id="Ellipse_2768" data-name="Ellipse 2768" class="cls-5" cx="2.346" cy="1.933" rx="2.346" ry="1.933" transform="translate(582.798 505.936)"/>
        <ellipse id="Ellipse_2769" data-name="Ellipse 2769" class="cls-5" cx="2.346" cy="1.933" rx="2.346" ry="1.933" transform="translate(803.578 526.819)"/>
        <ellipse id="Ellipse_2770" data-name="Ellipse 2770" class="cls-5" cx="2.346" cy="1.933" rx="2.346" ry="1.933" transform="translate(527.366 374.096)"/>
        <ellipse id="Ellipse_2771" data-name="Ellipse 2771" class="cls-5" cx="2.346" cy="1.933" rx="2.346" ry="1.933" transform="translate(630.481 256.817)"/>
        <ellipse id="Ellipse_2772" data-name="Ellipse 2772" class="cls-5" cx="2.346" cy="1.933" rx="2.346" ry="1.933" transform="translate(612.364 172.074)"/>
        <path id="Tracé_47189" data-name="Tracé 47189" class="cls-5" d="M-2942.906-702.761h-11.133a1.38,1.38,0,0,1-1.515-1.182,1.38,1.38,0,0,1,1.515-1.182h11.133a1.38,1.38,0,0,1,1.515,1.182A1.38,1.38,0,0,1-2942.906-702.761Z" transform="translate(3526.534 1029.549)"/>
        <path id="Tracé_47190" data-name="Tracé 47190" class="cls-5" d="M-2752.794-845.857h-11.133a1.38,1.38,0,0,1-1.515-1.182,1.379,1.379,0,0,1,1.515-1.182h11.133a1.38,1.38,0,0,1,1.515,1.182A1.38,1.38,0,0,1-2752.794-845.857Z" transform="translate(3528.413 1059.888)"/>
        <path id="Tracé_47191" data-name="Tracé 47191" class="cls-5" d="M-2838.127-944.935h-11.133a1.38,1.38,0,0,1-1.515-1.182,1.38,1.38,0,0,1,1.515-1.182h11.133a1.38,1.38,0,0,1,1.515,1.182A1.381,1.381,0,0,1-2838.127-944.935Z" transform="translate(3527.569 1080.895)"/>
        <path id="Tracé_47192" data-name="Tracé 47192" class="cls-5" d="M-3046.38-597.251h-11.133a1.38,1.38,0,0,1-1.515-1.182,1.38,1.38,0,0,1,1.515-1.182h11.133a1.38,1.38,0,0,1,1.515,1.182A1.38,1.38,0,0,1-3046.38-597.251Z" transform="translate(3525.511 1007.178)"/>
        <path id="Tracé_47193" data-name="Tracé 47193" class="cls-5" d="M-3014.426-536.987h-11.133a1.38,1.38,0,0,1-1.515-1.182,1.38,1.38,0,0,1,1.515-1.182h11.133a1.38,1.38,0,0,1,1.515,1.182A1.38,1.38,0,0,1-3014.426-536.987Z" transform="translate(3525.826 994.401)"/>
        <ellipse id="Ellipse_2773" data-name="Ellipse 2773" class="cls-5" cx="2.346" cy="1.933" rx="2.346" ry="1.933" transform="translate(810.53 367.189)"/>
        <ellipse id="Ellipse_2774" data-name="Ellipse 2774" class="cls-5" cx="2.346" cy="1.933" rx="2.346" ry="1.933" transform="translate(679.185 502.07)"/>
        <ellipse id="Ellipse_2775" data-name="Ellipse 2775" class="cls-5" cx="2.346" cy="1.933" rx="2.346" ry="1.933" transform="translate(607.672 421.404)"/>
        <ellipse id="Ellipse_2776" data-name="Ellipse 2776" class="cls-5" cx="2.346" cy="1.933" rx="2.346" ry="1.933" transform="translate(733.663 374.096)"/>
        <path id="Tracé_47194" data-name="Tracé 47194" class="cls-5" d="M-2540.987-828.3h-11.133a1.38,1.38,0,0,1-1.515-1.182,1.38,1.38,0,0,1,1.515-1.182h11.133a1.38,1.38,0,0,1,1.515,1.182A1.38,1.38,0,0,1-2540.987-828.3Z" transform="translate(3530.507 1056.167)"/>
        <path id="Tracé_47195" data-name="Tracé 47195" class="cls-5" d="M-2842.1-597.251h-11.134a1.38,1.38,0,0,1-1.515-1.182,1.38,1.38,0,0,1,1.515-1.182h11.134a1.38,1.38,0,0,1,1.515,1.182A1.38,1.38,0,0,1-2842.1-597.251Z" transform="translate(3527.53 1007.178)"/>
      </g>
    </g>
  </g>
</svg>
