<svg xmlns="http://www.w3.org/2000/svg" width="252" height="252" viewBox="0 0 252 252">
    <defs>
        <style>
            .cls-1,.cls-10,.cls-8{fill:#702963}.cls-1{opacity:.1}.cls-2{fill:#d31744;opacity:.33}.cls-3,.cls-7{fill:none}.cls-3{stroke:#d31744;stroke-miterlimit:10;stroke-width:3.5px}.cls-4{fill:#fff}.cls-5{fill:#712a64}.cls-6{fill:#505050}.cls-7{stroke:#712a64;stroke-linecap:round;stroke-linejoin:bevel;stroke-width:.1px}.cls-8,.cls-9{opacity:.2}
        </style>
    </defs>
    <g id="Groupe_14652" data-name="Groupe 14652" transform="translate(-2172.219 -709.48)">
        <g id="Groupe_14649" data-name="Groupe 14649">
            <circle id="Ellipse_3076" cx="126" cy="126" r="126" class="cls-1" data-name="Ellipse 3076" transform="translate(2172.219 709.48)"/>
            <g id="Groupe_14648" data-name="Groupe 14648">
                <path id="Tracé_51189" d="M2339.454 783.29a52.073 52.073 0 0 0-41.23 20.2 52.19 52.19 0 1 0 0 63.98 52.188 52.188 0 1 0 41.23-84.18zm-82.47 82.47a30.28 30.28 0 1 1 30.28-30.28 30.28 30.28 0 0 1-30.28 30.28zm82.47 0a30.28 30.28 0 1 1 30.29-30.28 30.278 30.278 0 0 1-30.29 30.28z" class="cls-2" data-name="Tracé 51189"/>
                <path id="Tracé_51190" d="M2339.454 783.29a52.073 52.073 0 0 0-41.23 20.2 52.19 52.19 0 1 0 0 63.98 52.188 52.188 0 1 0 41.23-84.18zm-82.47 82.47a30.28 30.28 0 1 1 30.28-30.28 30.28 30.28 0 0 1-30.28 30.28zm82.47 0a30.28 30.28 0 1 1 30.29-30.28 30.278 30.278 0 0 1-30.29 30.28z" class="cls-3" data-name="Tracé 51190"/>
            </g>
            <g id="token">
                <circle id="Ellipse_2689" cx="33.164" cy="33.164" r="33.164" class="cls-4" data-name="Ellipse 2689" transform="translate(2271.346 787.638)"/>
                <g id="Groupe_13047" data-name="Groupe 13047">
                    <path id="Tracé_46513" d="M2320.353 810.086a2.928 2.928 0 1 1-2.928-2.928 2.927 2.927 0 0 1 2.927 2.927z" class="cls-5" data-name="Tracé 46513"/>
                    <path id="Tracé_46514" d="M2320.493 810.754c.023-.1-.1.259-.059.053a5.6 5.6 0 0 1-.206.6c-.046 0-.008-.155-.177.118-.246.351.055.1-.17.415l.085-.106c.04-.052.076-.109.076-.109a2.472 2.472 0 0 1-.937 1 6.519 6.519 0 0 1-1.062.3c.023-.011.124-.052.1-.068a2.173 2.173 0 0 0-.3.057c-.221.079.071.053-.009.1a1.46 1.46 0 0 1-.653.049c0 .01-.323-.13-.323-.13-.245.06-.575-.131-.98-.334-.053-.082-.48-.3-.5-.416-.155-.143.075-.135-.007-.283-.161-.231.151.124-.012-.106.222.2-.053.182.276.446v-.029c.152.082.368.3.5.3.4.2-.044.07.14.21.141.013.642.14.675.052 0 .01-.337-.075-.337-.075.054.012.016-.013.04-.014a.576.576 0 0 0 .224.055c.091 0 .186-.007.267-.011.163-.028.271-.039.184.06a1.034 1.034 0 0 0-.2.017c.01.044.253.051.432.038a4.28 4.28 0 0 1 .644-.212c.1-.012.049.029.147.009.133-.058.229-.1.308-.144s.148-.06.213-.091a1.407 1.407 0 0 0 .5-.336 2.888 2.888 0 0 0 .771-.989c-.063.039.079-.25.1-.331a1.293 1.293 0 0 0 .075-.166 1.674 1.674 0 0 0 .046-.252c-.013.094.015.039.016.107.028-.362.075-.427.123-.449a1.5 1.5 0 0 1 0 .668z" class="cls-5" data-name="Tracé 46514"/>
                    <path id="Tracé_46515" d="M2314.665 811.378c.093.035-.2-.588.006-.317a2.422 2.422 0 0 0-.14-.417c.024.253-.03-.058-.036.083a2.8 2.8 0 0 1 .381-2.284 8.039 8.039 0 0 1 .546-.61 3.649 3.649 0 0 1 .626-.518c.321-.127.143.03.1.1a1.337 1.337 0 0 1 .189-.084l.2-.069-.187.1a1.132 1.132 0 0 0-.175.109c0 .036.167-.044.271-.049l.1-.047c-.039.1-.221.158-.426.251a1.649 1.649 0 0 0-.558.367c.339-.3-.092 0 .037-.145l-.112.093a2.479 2.479 0 0 1 .561-.465 2.62 2.62 0 0 0-1.019.935 2.544 2.544 0 0 0-.386 1.175c-.007-.022-.01-.084-.031-.017a1.1 1.1 0 0 0 .059.549l-.022-.117a1.508 1.508 0 0 0 .075.622 1.22 1.22 0 0 0 .179.7h-.036s.026.071.06.139.07.133.07.133c-.043-.06-.039-.026-.037-.009-.02-.015-.023-.032-.046-.079-.052.006-.04.184.039.351-.035-.053-.059-.092-.082-.129.024.071.117.206.17.312s.092.161-.016.082a.966.966 0 0 1-.207-.38 2.027 2.027 0 0 0-.15-.37z" class="cls-5" data-name="Tracé 46515"/>
                    <path id="Tracé_46516" d="M2316.008 812.522c-.23-.17.085.013.049-.052 0 .006.224.112.224.112-.009.037-.239-.068-.274-.06z" class="cls-5" data-name="Tracé 46516"/>
                    <path id="Tracé_46517" d="M2317.931 807.024a2.5 2.5 0 0 0 .329.1c.114.014.183.032.267.048a1.084 1.084 0 0 1 .316.133c-.135-.015-.085.04.016.116a2.306 2.306 0 0 1 .314.286c-.128-.091-.4-.182-.6-.324.037-.015-.163-.106-.266-.151-.087 0-.065.043-.1.064s-.132.01-.459-.022c-.12-.031-.416-.015-.4-.06-.087-.01-.161.051-.255.021l-.051-.014a1.443 1.443 0 0 1 .207-.035c.1-.015.209-.023.209-.023a.2.2 0 0 0 .084.022c-.037-.02.077-.032.17-.049s.166-.024.028-.077l-.3-.013-.3.013c-.148-.008.054-.058.276-.074a2.259 2.259 0 0 0 .513.039z" class="cls-5" data-name="Tracé 46517"/>
                    <path id="Tracé_46518" d="M2316.461 807.266h-.035a2.8 2.8 0 0 1 .5-.144 2.791 2.791 0 0 0-.465.146z" class="cls-5" data-name="Tracé 46518"/>
                    <path id="Tracé_46519" d="M2319.685 807.931a2.729 2.729 0 0 0-.229-.2l.032-.059s.2.251.2.258z" class="cls-5" data-name="Tracé 46519"/>
                    <path id="Tracé_46520" d="M2315.111 808.589c-.019.136-.2.4-.179.52.031-.079.007-.058.006-.081l-.075.148a1.593 1.593 0 0 1 .248-.588z" class="cls-5" data-name="Tracé 46520"/>
                    <path id="Tracé_46521" d="M2320.274 808.817a1.877 1.877 0 0 1 .277.809c0 .094-.048-.106-.044.028a.668.668 0 0 0 .048.224l.017-.052c-.033.11-.06.421-.132.26 0-.52-.21-.712-.276-1.088l.039-.09-.12-.206c0-.017.021-.022-.024-.086-.107-.128.035.118-.008.125a2.753 2.753 0 0 0-.269-.357c-.029-.046.043.024.04.008-.1-.2-.263-.225-.345-.4 0 0 .055.043.108.087l.107.091a4.659 4.659 0 0 0-.576-.6c.535.406.93.622 1.157 1.243z" class="cls-5" data-name="Tracé 46521"/>
                    <path id="Tracé_46522" d="M2302.072 810.988a2.026 2.026 0 1 1-2.027-2.025 2.027 2.027 0 0 1 2.027 2.025z" class="cls-6" data-name="Tracé 46522"/>
                    <path id="Tracé_46523" d="M2301.777 810.525v.024a.14.14 0 0 1 .039.128c.006 0 .012-.008.017.014 0 .1 0 .049.023.12a.16.16 0 0 1 0-.061l.019.138c.01-.02.023-.037.036-.013.023-.017.057.029.084.046a.46.46 0 0 1 0-.058c.013 0 .02.028.024.06l.007-.01-.007.01c0 .023.006.044.007.066 0-.012 0-.024.01-.018l-.01-.09h.008l-.009-.023-.006.02c0 .007-.008-.006-.012-.018a.1.1 0 0 1 0-.043l-.015-.047c-.021-.015 0 .127-.024.051v-.021a.433.433 0 0 0-.028-.1c.017-.039-.026-.1 0-.107-.035-.132-.088-.3-.128-.435-.031-.013-.066 0-.117-.035 0-.01-.008-.028 0-.025l-.028-.029a.179.179 0 0 1 .024.057c-.039-.051 0 .033-.015.033l-.049-.069v.01a1.523 1.523 0 0 1 .087.206l.046.219z" class="cls-6" data-name="Tracé 46523"/>
                    <path id="Tracé_46524" d="M2299.857 808.832v.023a2.2 2.2 0 0 0-1.1.444 2.138 2.138 0 0 0 .142 3.538l-.089.053a2.07 2.07 0 0 0 1.515.189h-.177c.079-.037.22-.055.361-.1.138-.066.3-.093.406-.158l-.013.032c-.311.138.029.007-.078.113l-.054.029h.038l.054-.03c0 .015.012.03-.044.052l.079-.024c.185-.028.216.017.227.092.04-.031-.038-.068.159-.15l-.011.033a1.328 1.328 0 0 0 .166-.169l.1-.043a.937.937 0 0 1 .153-.161l-.018-.052a2.651 2.651 0 0 0 .567-1.062c-.021-.087.048-.281.033-.491l-.059.087a3.079 3.079 0 0 1-.357 1l-.018-.026a.706.706 0 0 1 .085-.194l-.029-.039c-.114.03-.166.158-.22.3a1.755 1.755 0 0 1-.177.3c-.109.07-.094.02-.064-.028s.061-.121.026-.072c.062-.125 0-.1-.081-.041a1.447 1.447 0 0 1-.277.129c-.066.031-.16.055-.255.1-.053.023-.1.044-.145.066l-.167.047c-.056.015-.11.041-.168.052l-.174.022c-.055.006-.112.018-.163.021a.893.893 0 0 1-.148-.013 1.133 1.133 0 0 1-.5-.067 1.459 1.459 0 0 1-.46-.286 1.752 1.752 0 0 1-.516-.842 3.988 3.988 0 0 1-.141-.473.5.5 0 0 1 .078-.413l.091-.242a1.436 1.436 0 0 1 .125-.225l.018.023a1.812 1.812 0 0 1 1.152-.916c.2-.018.271-.114.365-.025a2.089 2.089 0 0 1 1.22.453c.015-.018.081 0 .026-.057a1.041 1.041 0 0 1-.243-.215c-.07-.059-.115-.12-.1-.15l.074.046-.113-.12-.1-.031a.086.086 0 0 1-.02-.054 2.314 2.314 0 0 1-.228-.128.845.845 0 0 0-.25-.122c-.139.01-.291-.026-.507-.023z" class="cls-6" data-name="Tracé 46524"/>
                    <path id="Tracé_46525" d="M2312.618 823.79a2.4 2.4 0 1 1-2.4-2.4 2.4 2.4 0 0 1 2.4 2.4z" class="cls-6" data-name="Tracé 46525"/>
                    <path id="Tracé_46526" d="M2309.4 821.326a1.529 1.529 0 0 1-.2.062c-.06.024-.1.035-.094.011l-.031-.006c.087-.072.528-.176.329-.068z" class="cls-6" data-name="Tracé 46526"/>
                    <path id="Tracé_46527" d="M2309.472 821.456c-.1.018-.029-.012-.015-.03l.136-.039c.045 0-.067.046-.121.069z" class="cls-4" data-name="Tracé 46527"/>
                    <path id="Tracé_46528" d="M2309.514 821.76h.038a.631.631 0 0 0-.122.025c-.01-.014.051-.048.121-.062-.01.015-.077.037-.037.04z" class="cls-6" data-name="Tracé 46528"/>
                    <path id="Tracé_46529" d="M2307.935 822.792c.03.046.16-.043.275-.158l.043.091a.61.61 0 0 0-.131.2c-.025.09-.054.2-.079.281 0 .07.077-.153.04.021-.017.016-.032 0-.052.031-.025.158.07.09.011.422a.768.768 0 0 0-.048.113 2.383 2.383 0 0 0 .7 1.568c.111.025.3.242.476.281l-.008.023c.106.009.224.143.351.161l.1.055c.031.051-.309-.076-.237.008a2.557 2.557 0 0 0 .606.129.566.566 0 0 0 .3-.013c.03-.028-.041-.02-.03-.049a1.693 1.693 0 0 1 .45 0 1.27 1.27 0 0 0 .413-.077c.007-.026.256-.221-.009-.109a.287.287 0 0 1-.057.04l-.06.032h-.1l.176-.056c.051-.032.085-.057.07-.066a.637.637 0 0 0 .327-.177c.086-.094.138-.148.067 0a1.457 1.457 0 0 1-.171.1.507.507 0 0 0-.117.1 2.274 2.274 0 0 0 .867-.707l.013-.113c.034.015.147-.12.229-.269.013-.072.043-.161.018-.146-.015-.021-.039.132-.114.228s-.12.163-.081.02l.074-.121.049-.133c.036-.081.07-.168.106-.258.04-.173.077-.335.12-.46a3.084 3.084 0 0 0-.008.518 2.135 2.135 0 0 1-.42.948l-.164.206a2.238 2.238 0 0 1-.2.177 2.458 2.458 0 0 1-.2.169l-.214.139c-.037-.013-.194.062-.16.009-.061.01-.217.074-.271.051a2.075 2.075 0 0 1-1.511-.038c.049.051-.024.048-.121.013a2.626 2.626 0 0 0-.277-.125c-.1-.071-.258-.21-.382-.3-.021 0-.1-.06-.094-.031a1.7 1.7 0 0 1 .2.189c-.063 0-.214-.151-.313-.3l.078.053a2.375 2.375 0 0 1-.252-.385 1.837 1.837 0 0 0-.2-.385 1.551 1.551 0 0 0 .058.22 1.33 1.33 0 0 1-.185-.484c-.059-.163-.048-.328-.1-.444a1.5 1.5 0 0 0 .047.371c.035.114.054.2.022.21a.616.616 0 0 1-.115-.382 2.72 2.72 0 0 0-.021-.384c0-.108.01-.232.015-.352a1.244 1.244 0 0 1 .008-.173 1.009 1.009 0 0 1 .047-.163 1.228 1.228 0 0 1 .14-.314z" class="cls-6" data-name="Tracé 46529"/>
                    <path id="Tracé_46530" d="M2307.639 823.483c-.041.46.069.232.094.661-.038-.052-.063.169-.009.308a2.93 2.93 0 0 0 .152.409c.033.076-.015.089-.091-.064a2.2 2.2 0 0 0-.075-.322l-.053-.164-.025-.172c-.017-.115-.036-.231-.045-.343a1.524 1.524 0 0 1 .052-.313z" class="cls-6" data-name="Tracé 46530"/>
                    <path id="Tracé_46531" d="M2307.909 823.146c-.057.2-.123.108-.124.326-.028-.1-.007-.124.057-.312l-.01.115z" class="cls-4" data-name="Tracé 46531"/>
                    <path id="Tracé_46532" d="M2307.954 824.885a2.671 2.671 0 0 1 .127.261c.034.1.091.166.069.186.011.021-.031.007.028.064a1.013 1.013 0 0 1-.223-.512z" class="cls-6" data-name="Tracé 46532"/>
                    <path id="Tracé_46533" d="M2307.933 824.249c.028.07.053.14.087.247a.735.735 0 0 1-.087-.247z" class="cls-4" data-name="Tracé 46533"/>
                    <path id="Tracé_46534" d="M2308.119 825c.018-.043.062.1.082.131l.037.072a.394.394 0 0 1-.118-.2z" class="cls-6" data-name="Tracé 46534"/>
                    <path id="Tracé_46535" d="M2308.864 825.931c.177.112-.215-.067 0 .059a1.133 1.133 0 0 1-.128-.07l-.008-.079.063.051.07.04z" class="cls-6" data-name="Tracé 46535"/>
                    <path id="Tracé_46536" d="M2309.125 826.126l.213.081h-.063c-.043 0-.078-.038-.149-.082z" class="cls-6" data-name="Tracé 46536"/>
                    <path id="Tracé_46537" d="M2308.947 825.887c.092.036.064.053.116.093-.043 0-.207-.137-.116-.093z" class="cls-6" data-name="Tracé 46537"/>
                    <path id="Tracé_46538" d="M2309.9 825.88c-.087.048-.237-.031-.386-.063l.186.032a.956.956 0 0 0 .2.031z" class="cls-6" data-name="Tracé 46538"/>
                    <path id="Tracé_46539" d="M2310.912 821.249a.805.805 0 0 0 .247.066l-.039-.029z" class="cls-6" data-name="Tracé 46539"/>
                    <path id="Tracé_46540" d="M2309.635 821.193c-.08.076.074 0 .258.031.115-.006.232-.032.352-.041a3.022 3.022 0 0 1 .355.018l.148-.014a7.014 7.014 0 0 0-.536-.075 3.108 3.108 0 0 0-.577.081z" class="cls-6" data-name="Tracé 46540"/>
                    <path id="Tracé_46541" d="M2309.536 821.493a3.57 3.57 0 0 1 .47-.1 2.21 2.21 0 0 0-.315.032c-.1.03-.2.056-.262.077-.012.016.065 0 .107-.006z" class="cls-4" data-name="Tracé 46541"/>
                    <path id="Tracé_46542" d="M2312.628 822.654a3.154 3.154 0 0 0-.255-.449 1.275 1.275 0 0 0-.384-.369 1.747 1.747 0 0 1 .238.308.6.6 0 0 1-.191-.192 1.918 1.918 0 0 0-.21-.213c.124.122-.067 0-.183-.083a3.516 3.516 0 0 0-.439-.25 3.4 3.4 0 0 0-.559-.15c-.081 0-.251-.018-.391-.029s-.253.029-.215.055c-.219.036-.261-.036-.427 0a1.754 1.754 0 0 1-.343.121c-.115.028-.217.079-.329.116a1.229 1.229 0 0 0-.608.436c-.006-.055-.182.162-.252.245-.155.181-.4.7-.27.608a1.5 1.5 0 0 0 .158-.285c.028-.059.056-.121.089-.178a.7.7 0 0 1 .133-.139c.162-.133.1-.044 0 .079a.6.6 0 0 0-.154.334c.017-.055.082-.055.151-.217-.156.335.138-.087.078.1a2.173 2.173 0 0 1 .26-.248.474.474 0 0 1 .2-.087c.169-.156.083-.163.115-.232a.711.711 0 0 1 .3-.177c.1-.041.2-.082.3-.114-.116.154.358-.055.614-.047a.5.5 0 0 0 .219-.053c.03-.02.063-.039.24-.017.163.068-.355.032-.136.11l.158-.007a.672.672 0 0 1 .323-.053c.071.021.181.054.176.069-.145-.025-.113.025.02.09a.814.814 0 0 0 .121.018c-.1-.121-.037-.086.089-.014.061.037.137.082.211.121a1.865 1.865 0 0 0 .183.114c.281.154.294.263.316.345a1.288 1.288 0 0 0 .207.408c0-.1.056-.024.133.106s.113.327.164.415a.725.725 0 0 1-.009.352.881.881 0 0 0 .055.192 1.313 1.313 0 0 0 .118-1.113c-.01-.013-.02-.023-.022-.022z" class="cls-6" data-name="Tracé 46542"/>
                    <path id="Tracé_46543" d="M2301.075 820.239l-2.246-4.979 3.515-.635z" class="cls-6" data-name="Tracé 46543"/>
                    <path id="Tracé_46544" d="M2302.253 815.942c.016-.112.073-.3.1-.258l.023-.017c-.023.092-.112.481-.121.275z" class="cls-6" data-name="Tracé 46544"/>
                    <path id="Tracé_46545" d="M2302.107 815.938c.032-.092.023-.018.032 0l-.032.131c-.024.037-.007-.075 0-.131z" class="cls-4" data-name="Tracé 46545"/>
                    <path id="Tracé_46546" d="M2301.821 815.815l-.016.036a.828.828 0 0 0 .04-.129c.015 0 .015.075-.008.148-.008-.018.008-.093-.016-.055z" class="cls-6" data-name="Tracé 46546"/>
                    <path id="Tracé_46547" d="M2301.667 814.662c-.022.052.122.1.283.116a1.076 1.076 0 0 1-.043.091 2.427 2.427 0 0 0-.55.083c-.069.03.178 0 0 .046-.022-.008-.011-.03-.05-.031-.161.051-.063.1-.426.146l-.128-.017c-.308.056-.62.13-.93.2-.16.033-.313.066-.461.094l-.114.022c-.044.007-.026 0-.044.006h-.064l.007.012a.392.392 0 0 1 .048.051l.007.008.029.055c.023.044.046.085.069.121l-.022.014c.082.082.11.267.17.385l.026.117c-.017.059-.155-.3-.167-.179.074.245.228.367.277.582a1.086 1.086 0 0 0 .16.277c.036.021 0-.048.034-.048.209.426.1.5.285.875.024 0 .207.288.107-.007l-.084-.124-.017-.1c.05.1.133.3.148.262-.022.175.4.679.144.447a.751.751 0 0 0-.172-.336c.175.4.3.772.446 1.1l.082.079c-.033.024.015.2.077.359.038.063.075.152.083.123.037.021-.246-.581-.053-.328a7.219 7.219 0 0 1 .346 1.037 2.1 2.1 0 0 0-.263-.455c-.328-.595-.59-1.278-.919-1.847.015-.033-.045-.2 0-.161-.007-.062-.094-.207-.077-.265-.245-.445-.468-1-.653-1.416-.012.145-.156-.233-.235-.338a2.463 2.463 0 0 0-.18-.439l-.016-.02c.019-.01.075-.026.036-.037a1.028 1.028 0 0 1-.076.016c.029.066.034.106.07.2a.5.5 0 0 1-.115-.221c.1-.009.2-.017.282-.03l-.075.043a5.64 5.64 0 0 0 .888-.12l-.225-.01a7.578 7.578 0 0 0 .933-.185c-.214.021-.557.122-.562.054.006-.038.251-.079.369-.087.512-.023.869-.237 1.318-.215z" class="cls-6" data-name="Tracé 46547"/>
                    <path id="Tracé_46548" d="M2300.969 814.667c-.413.078-.19.135-.587.2.044-.044-.155-.039-.288-.018a2.914 2.914 0 0 1-.391.078c-.077.006-.075-.039.075-.068.383 0 .828-.193 1.19-.189z" class="cls-6" data-name="Tracé 46548"/>
                    <path id="Tracé_46549" d="M2301.36 814.8c-.2.043-.141-.055-.341 0 .079-.059.113-.021.3-.056l-.1.045.143.009z" class="cls-4" data-name="Tracé 46549"/>
                    <path id="Tracé_46550" d="M2299.671 814.991c-.131.028-.437.062-.454.016-.021 0 .008-.031-.064-.009.118-.006.458-.061.519-.007z" class="cls-6" data-name="Tracé 46550"/>
                    <path id="Tracé_46551" d="M2300.283 815.075a2.64 2.64 0 0 1-.258.056.738.738 0 0 1 .258-.056z" class="cls-4" data-name="Tracé 46551"/>
                    <path id="Tracé_46552" d="M2299.516 815.109c.031.031-.109.03-.147.037h-.079a.6.6 0 0 1 .227-.037z" class="cls-6" data-name="Tracé 46552"/>
                    <path id="Tracé_46553" d="M2298.89 815.716c.066.183-.124-.162-.037.048l-.063-.131.023-.085.077.168z" class="cls-6" data-name="Tracé 46553"/>
                    <path id="Tracé_46554" d="M2298.966 816.007a.554.554 0 0 1 .09.187l-.039-.04c-.017-.031-.017-.078-.051-.147z" class="cls-6" data-name="Tracé 46554"/>
                    <path id="Tracé_46555" d="M2298.976 815.724c.051.079.02.079.033.138-.03-.025-.076-.221-.033-.138z" class="cls-6" data-name="Tracé 46555"/>
                    <path id="Tracé_46556" d="M2299.665 816.432a1.6 1.6 0 0 1-.207-.38 2.986 2.986 0 0 1 .207.38z" class="cls-6" data-name="Tracé 46556"/>
                    <path id="Tracé_46557" d="M2301.987 817.295a.589.589 0 0 0-.041.224l.024-.037z" class="cls-6" data-name="Tracé 46557"/>
                    <path id="Tracé_46558" d="M2302.262 816.187c-.035-.1-.041.054-.114.2-.057.2-.065.428-.114.633v.131a7.24 7.24 0 0 0 .228-.965z" class="cls-6" data-name="Tracé 46558"/>
                    <path id="Tracé_46559" d="M2302.042 815.972a2.724 2.724 0 0 0-.09.465c.047-.192.1-.426.137-.557-.008-.02-.033.055-.047.092z" class="cls-4" data-name="Tracé 46559"/>
                    <path id="Tracé_46560" d="M2301.565 819.289a4.484 4.484 0 0 0 .178-.912c-.04.13-.056.129-.113.332-.033-.17.081-.315.121-.5-.048.147-.032-.057-.008-.189.072-.24.154-.629.226-.964.008-.15.154-.613.073-.56a1.8 1.8 0 0 1 .145-.369 1.883 1.883 0 0 1 .173-.625c.042-.1.079-.2.111-.307a4.012 4.012 0 0 0 .1-.544c.022.022.071-.168.117-.355l-.257.043-.376.068-.2.038-.1.023c-.133.031-.225.067-.164.094a.835.835 0 0 0 .293-.044 3.081 3.081 0 0 1 .565-.092.548.548 0 0 1 .1 0c-.026.066-.033.064-.031.029-.154.047-.71.137-.661.175.051-.02.1.033.289-.024-.214.054-.159.063-.109.076s.1.022.024.058a1.089 1.089 0 0 1 .161 0 .466.466 0 0 1-.151.22.458.458 0 0 0 .02.121c.016.025.038.032.047.069-.024.261-.146.444-.177.668-.066-.191-.163.35-.22.61-.08.335.064.133-.023.487-.09.164.015-.375-.091-.154l-.016.168a2.123 2.123 0 0 1 .05.339c-.017.075-.039.186-.058.185.018-.15-.031-.114-.09.033a.586.586 0 0 0 .009.132c.178-.275-.064.316-.047.542-.048.635-.2.291-.291.906.137-.163-.04.411-.048.616a1.182 1.182 0 0 1-.139.332.884.884 0 0 0-.008.2 2.216 2.216 0 0 0 .58-.9v-.025z" class="cls-6" data-name="Tracé 46560"/>
                    <path id="Tracé_46561" d="M2311.855 834.62l-2.568-5.594 3.991-1.149-1.423 6.742z" class="cls-6" data-name="Tracé 46561"/>
                    <path id="Tracé_46562" d="M2312.643 831.6c.016-.132-.028.075-.013 0l.036-.289c-.024.237.08-.092-.023.292z" class="cls-4" data-name="Tracé 46562"/>
                    <path id="Tracé_46563" d="M2312.618 831.138v-.056c.018-.076.064-.229.055-.124a1.079 1.079 0 0 0-.051.181z" class="cls-4" data-name="Tracé 46563"/>
                    <path id="Tracé_46564" d="M2312.23 831.379l.031-.1a1.066 1.066 0 0 1-.017.159l-.014-.058z" class="cls-6" data-name="Tracé 46564"/>
                    <path id="Tracé_46565" d="M2310.98 828.778a.5.5 0 0 0-.056 0c.006-.024.036-.044.139-.089.1-.02.313-.093.283-.06l-.023.008a.455.455 0 0 0 .253-.025c.024-.022-.084-.018.025-.075a2.179 2.179 0 0 1 .444-.1l.1-.071a2.048 2.048 0 0 1 .293-.045l-.07.038c.059 0 .022.044.2-.01l.137-.059a.973.973 0 0 0 .116-.047.271.271 0 0 0 .14-.025.717.717 0 0 1-.02.091c.015.009.015.036.009.064a9.593 9.593 0 0 1-.052.228 1.193 1.193 0 0 0-.06.427 1.831 1.831 0 0 0-.063.641c-.1.286.029-.4-.045-.248-.1.429-.182.9-.279 1.342 0 .117.074-.068.031.164 0-.08-.047 0-.066.079.024-.089.014.006.02.017l.021-.064c.076-.031-.072.308-.072.468-.038.066.017-.081 0-.1s-.082.056-.137.263c-.049.424-.179.7-.264 1.164.029-.015-.009.113-.022.186 0-.1-.066.081-.089.168-.009.113.037.138-.006.309l.072-.106c.017-.063.047-.3.062-.417.069-.062.1-.582.16-.514l-.026.07a2.691 2.691 0 0 0-.064.665 2.751 2.751 0 0 1-.171.385 1 1 0 0 0-.044.292.92.92 0 0 1-.085.285c-.008.051.016-.02.008.031s-.043.133-.052.183c.04.033.1-.237.146-.4a.541.541 0 0 1-.009.113c-.008.049-.016.037-.021.045l-.017.1c.013.006.041-.01.017.122l-.044.072c-.063.258-.028.4.048.062l-.021-.035.108-.312c.039-.046-.011.155.014.164.023.053.1-.217.13-.337.008-.13-.043.07-.067.159l-.009-.189c.009-.051.033-.121.046-.115.026-.054.051.02.067-.082.069-.282-.045-.025 0-.265a3.52 3.52 0 0 0-.209.574l-.022.106c-.033.041.029-.175-.021-.016a3.551 3.551 0 0 1 .243-.835c.031 0 .1-.207.107-.029a1.694 1.694 0 0 0 .077-.253 5.681 5.681 0 0 1 .162-.777c-.016.038-.016-.023-.022-.036.106-.409.1.156.2-.419.016-.1.01-.154-.01-.128a.888.888 0 0 0-.077.253c-.013 0-.052.184-.056.067.064-.258.041-.391.1-.6l-.007-.074a2.912 2.912 0 0 1 .078-.394c.083-.322.039.033.059.049l.069-.266c.016-.321.179-.5.174-.772l.009.029c-.012.155.064-.037.086-.143v-.086a4.5 4.5 0 0 1 .129-.8c.014-.056.03-.076.023-.026l.086-.285c-.044-.07.057-.275.1-.519.006-.125-.006-.16 0-.273l-.092.037a5.858 5.858 0 0 0-.624.166 3.07 3.07 0 0 1-.48.121c-.044.056-.259.13-.077.129-.375.082-.716.131-1.079.22a.984.984 0 0 1-.07.041c-.063.108-.389.385 0 .313z" class="cls-6" data-name="Tracé 46565"/>
                    <path id="Tracé_46566" d="M2311.688 834.1l.036-.163-.017.02c-.031.059 0 .062-.018.144z" class="cls-6" data-name="Tracé 46566"/>
                    <path id="Tracé_46567" d="M2309.589 830.5c.08.138.19.291.166.186-.085-.193-.183-.323-.252-.524-.029.015.069.259.086.338z" class="cls-4" data-name="Tracé 46567"/>
                    <path id="Tracé_46568" d="M2312.776 831.084l.047-.238-.039.045c-.058.191.016.061-.008.193z" class="cls-6" data-name="Tracé 46568"/>
                    <path id="Tracé_46569" d="M2310.252 831.1c.014-.006.053.036 0-.058l-.093-.132c.018.021.091.25.092.19z" class="cls-4" data-name="Tracé 46569"/>
                    <path id="Tracé_46570" d="M2310.543 831.575l.035-.046a1.058 1.058 0 0 1-.107-.183 1.331 1.331 0 0 0 .072.229z" class="cls-4" data-name="Tracé 46570"/>
                    <path id="Tracé_46571" d="M2310.078 830.538c.075.285.19.261.228.506.155.306.153.192.159.1-.055-.121-.054.024-.158-.16a.905.905 0 0 1-.09-.308c-.139-.314-.046.022-.139-.139z" class="cls-4" data-name="Tracé 46571"/>
                    <path id="Tracé_46572" d="M2310.653 831.524l-.066-.144v.087l.063.057z" class="cls-4" data-name="Tracé 46572"/>
                    <path id="Tracé_46573" d="M2310.213 830.476l-.075-.112.1.218-.022-.107z" class="cls-4" data-name="Tracé 46573"/>
                    <path id="Tracé_46574" d="M2310.439 830.725l-.044-.1c-.045-.067-.082-.108-.062-.03.06.117.074.083.106.126z" class="cls-4" data-name="Tracé 46574"/>
                    <path id="Tracé_46575" d="M2309.945 828.825a2.737 2.737 0 0 0-.332.026c-.144.02-.316.051-.513.09l.118.331.12.32c.051.074.1.151.159.24l.087.281a3.414 3.414 0 0 0 .4.714c.013.052 0 .056.02.108.06.089.133.288.2.37a.728.728 0 0 1 .028.223c.144.252.237.618.4.863-.009.154.214.367.22.541a1.984 1.984 0 0 0 .354.649c-.012.007-.085-.075-.046.053a.571.571 0 0 0 .045.067 1.812 1.812 0 0 0 .144.312c.021.026.031.032.033.023-.079-.306.345.254.516.442l.06.094a4.051 4.051 0 0 0-.173-.421c0 .057-.1-.185-.067-.055l.037.07.053.179a4.566 4.566 0 0 0-.294-.562 1.475 1.475 0 0 1-.079-.344 6.166 6.166 0 0 0-.361-.792.807.807 0 0 1-.121-.412 3.066 3.066 0 0 0-.2-.371 1.32 1.32 0 0 1-.073-.435.691.691 0 0 0-.156-.278c-.145-.339.109.035-.066-.35-.06-.148-.178-.325-.2-.313-.054-.179-.18-.383-.208-.515a1.5 1.5 0 0 1-.222-.429 4.883 4.883 0 0 0-.1-.24c-.025-.056-.018-.036-.028-.048l-.032-.023a.1.1 0 0 0-.016-.037.3.3 0 0 0 .04-.021l.021-.013a.228.228 0 0 1 .049-.023l.4-.154c.06-.094-.009-.153-.221-.159z" class="cls-6" data-name="Tracé 46575"/>
                    <path id="Tracé_46576" d="M2313.475 821.16l-.2-6.535 4.741.717-4.544 5.818z" class="cls-5" data-name="Tracé 46576"/>
                    <path id="Tracé_46577" d="M2317.1 816.846c.082-.117.244-.3.244-.25l.033-.011c-.077.094-.389.492-.277.261z" class="cls-5" data-name="Tracé 46577"/>
                    <path id="Tracé_46578" d="M2316.965 816.784c.084-.09.032-.01.029.014l-.106.132c-.045.03.036-.087.077-.146z" class="cls-4" data-name="Tracé 46578"/>
                    <path id="Tracé_46579" d="M2316.769 816.54l-.037.035a1.366 1.366 0 0 0 .114-.129c.014.007-.029.09-.1.163 0-.024.063-.1.018-.069z" class="cls-5" data-name="Tracé 46579"/>
                    <path id="Tracé_46580" d="M2317.289 815.14c-.051.041.123.14.283.212-.006 0-.063.072-.07.07a3.72 3.72 0 0 0-.694-.12c-.093 0 .217.06-.02.041-.024-.016 0-.032-.052-.047a1.434 1.434 0 0 1-.565-.017l-.146-.062c-.788-.117-1.615-.176-2.357-.328a.472.472 0 0 0-.14.015.081.081 0 0 0 .018.044h-.023a2.493 2.493 0 0 1 .01.533l-.017.15c-.038.06-.032-.428-.086-.292-.025.323.071.541.037.815a1.638 1.638 0 0 0 .044.4c.023.043.022-.054.051-.038.035.6-.094.633-.066 1.159.02.02.083.438.1.046l-.031-.186.024-.128c.006.144.01.409.037.378-.085.192.116.988-.035.592a1.2 1.2 0 0 0-.033-.477c.009.557-.013 1.048 0 1.506l.046.133c-.04.012-.061.235-.063.454.01.1.011.215.03.186.025.041-.009-.8.073-.408a11.572 11.572 0 0 1-.069 1.379 3.464 3.464 0 0 0-.072-.661c-.078-.853-.066-1.779-.155-2.6.028-.031.031-.251.061-.186.018-.078-.009-.29.028-.347-.059-.639-.059-1.393-.073-1.972-.066.162-.056-.345-.09-.513a1.291 1.291 0 0 0 .013-.239l.342.047c.022-.008.14 0 .115-.02a3.25 3.25 0 0 1-.369-.069c.018-.024.123-.008.242.017.1.022.209.053.318.07l-.116.013a8.52 8.52 0 0 0 1.1.207l-.266-.092a11.57 11.57 0 0 0 1.19.164c-.264-.059-.713-.086-.7-.153a1.313 1.313 0 0 1 .474.052c.627.163 1.137.092 1.67.274z" class="cls-5" data-name="Tracé 46580"/>
                    <path id="Tracé_46581" d="M2316.446 814.9c-.523-.075-.278.057-.778-.026.067-.026-.173-.094-.34-.123a4.211 4.211 0 0 1-.5-.068c-.1-.021-.076-.063.114-.036.46.144 1.07.118 1.5.253z" class="cls-5" data-name="Tracé 46581"/>
                    <path id="Tracé_46582" d="M2316.867 815.166c-.261-.035-.147-.1-.409-.12.115-.028.143.02.381.055h-.139l.168.061z" class="cls-4" data-name="Tracé 46582"/>
                    <path id="Tracé_46583" d="M2314.762 814.737a1.54 1.54 0 0 1-.553-.148c-.025-.008.021-.026-.073-.032a2.363 2.363 0 0 1 .626.181z" class="cls-5" data-name="Tracé 46583"/>
                    <path id="Tracé_46584" d="M2315.468 815.033c-.094-.007-.19-.021-.332-.041a1.2 1.2 0 0 1 .332.041z" class="cls-4" data-name="Tracé 46584"/>
                    <path id="Tracé_46585" d="M2314.531 814.787c.028.04-.141-.013-.189-.018l-.1-.031a1 1 0 0 1 .286.049z" class="cls-5" data-name="Tracé 46585"/>
                    <path id="Tracé_46586" d="M2313.149 814.741c0 .177-.016.084-.03-.014s-.025-.192-.021.048l-.014-.282c.017-.015.032-.025.032-.053l.036.029h-.013l.009.273z" class="cls-5" data-name="Tracé 46586"/>
                    <path id="Tracé_46587" d="M2313.115 815.189a1 1 0 0 1 .013.263l-.023-.068c-.01-.046.013-.1.01-.2z" class="cls-5" data-name="Tracé 46587"/>
                    <path id="Tracé_46588" d="M2313.23 814.846c.016.143-.013.118-.022.2-.017-.026.012-.354.022-.2z" class="cls-5" data-name="Tracé 46588"/>
                    <path id="Tracé_46589" d="M2313.6 816.027a2.625 2.625 0 0 1-.048-.545 4.508 4.508 0 0 1 .048.545z" class="cls-5" data-name="Tracé 46589"/>
                    <path id="Tracé_46590" d="M2316.052 818.248a1.043 1.043 0 0 0-.168.232l.045-.031.123-.2z" class="cls-5" data-name="Tracé 46590"/>
                    <path id="Tracé_46591" d="M2316.965 817.118c.024-.116-.07.045-.225.181-.174.2-.31.451-.477.659l-.077.145a11.921 11.921 0 0 0 .78-.984z" class="cls-5" data-name="Tracé 46591"/>
                    <path id="Tracé_46592" d="M2316.882 816.8a4.51 4.51 0 0 0-.355.483l.455-.566c0-.024-.062.049-.1.083z" class="cls-4" data-name="Tracé 46592"/>
                    <path id="Tracé_46593" d="M2314.493 820.293a7.155 7.155 0 0 0 .7-.943c-.114.13-.128.123-.3.327.068-.2.26-.319.406-.509-.131.146 0-.076.1-.21.21-.24.514-.642.779-.985.1-.162.5-.62.4-.591a2.988 2.988 0 0 1 .354-.355 2.92 2.92 0 0 1 .529-.627 3.328 3.328 0 0 0 .283-.3 4.907 4.907 0 0 0 .336-.463c0 .057.255-.271.428-.488l-.135-.023c-.129-.018-.3-.045-.48-.072l-.275-.039-.152-.02c-.174-.016-.3-.018-.233.03a1.479 1.479 0 0 0 .391.068 5.024 5.024 0 0 1 .72.118c-.262.279-.2.189-.094.039a3.073 3.073 0 0 0-.722-.061.32.32 0 0 1 .12.033.826.826 0 0 0 .247.047c-.282-.026-.222 0-.169.03s.109.059 0 .063l.143.04a.58.58 0 0 1-.3.212c-.178.252-.079.221-.108.312-.175.279-.4.436-.559.672.049-.235-.357.327-.562.593-.27.339-.017.171-.308.53-.181.15.235-.409.006-.2l-.114.179a3.289 3.289 0 0 1-.152.394c-.057.076-.146.191-.161.184.1-.16.036-.139-.1 0a.606.606 0 0 0-.067.15c.327-.237-.248.324-.363.582-.417.684-.363.247-.806.894.227-.129-.278.439-.406.664a1.826 1.826 0 0 1-.324.316 1.55 1.55 0 0 0-.128.222 3.26 3.26 0 0 0 1.075-.782c.009-.016.016-.03.014-.031z" class="cls-5" data-name="Tracé 46593"/>
                    <path id="Tracé_46594" d="M2295.534 816.422c0-.038-.254-.01.122-.122 1.193-.337 2.187-.43 3.389-.708l.076-.074 1.443-.223 1.489-.189a43.822 43.822 0 0 1 5.522-.472c-.049-.018-.072-.041.11-.047.382 0 .836 0 1.332.018.492.039 1.029.056 1.569.12l.477.041a.375.375 0 0 0 .181-.025c.485.046.93.132 1.336.193 1.344.177 2.69.394 4.015.7a16.812 16.812 0 0 1 3.833 1.3 5.314 5.314 0 0 1 1.554 1.14 2.2 2.2 0 0 1 .614 1.617 3.79 3.79 0 0 1-.676 1.816 8.364 8.364 0 0 1-1.4 1.621 13.873 13.873 0 0 1-3.065 2.06 33.4 33.4 0 0 1-5.518 2.064c.162.067-.794.411-1.687.726-.9.293-1.733.557-1.287.561-.58.145-1.318.256-1.915.384a10.027 10.027 0 0 0-1.1.224c-.252.189-1.12.625-4.334.9-.63.024.422.132-.277.1.478-.079 0 0-.224.007.907.044.7-.021 0 0a16.907 16.907 0 0 0 4.765-.336 46.057 46.057 0 0 0 6.735-1.519 35.444 35.444 0 0 0 6.446-2.63 17.548 17.548 0 0 0 1.532-.965l.376-.265.365-.313.363-.316c.113-.108.216-.217.324-.328a9.808 9.808 0 0 0 1.173-1.491 5.111 5.111 0 0 0 .757-1.938 3.736 3.736 0 0 0-.015-1.045 3.476 3.476 0 0 0-.565-1.419 5.26 5.26 0 0 0-1.235-1.265 9.852 9.852 0 0 0-1.679-.97 32.243 32.243 0 0 0-8.789-2.132 37.7 37.7 0 0 0-9.433.172c-2.825.372-5.141.912-6.482 1.221l-.485.123a68.969 68.969 0 0 0-8.742 2.784 84.264 84.264 0 0 0-3.227 1.407c.519-.175 1-.324 1.423-.454-1.118.424-2.223.878-2.631 1.087-2.307 1.076-.94.6.01.348.67-.213-.169.235.867-.128-.732.3-1.1.45-1.826.76-.064.079 2.236-.973 1.764-.673-.712.269-1.484.633-2.208.948.277-.047 2.53-1.044 2.45-.921a20.107 20.107 0 0 0-2.189.913c-.02.028.706-.283 1.071-.434-2.227.98-3.393 1.638-1.334.819-.7.306-1.715.722-2.428 1.087h.007c.357-.173 1-.451 1.341-.606-.419.191-.838.384-1.249.583.073-.022.151-.046.232-.069l.957-.423-.83.385c.224-.077.474-.16.743-.25 1.013-.4 2.008-.731 2.551-.959a99.34 99.34 0 0 1 13.516-4.52z" class="cls-5" data-name="Tracé 46594"/>
                    <path id="Tracé_46595" d="M2295.534 816.422c0-.038-.254-.01.122-.122 1.193-.337 2.187-.43 3.389-.708l.076-.074 1.443-.223 1.489-.189a43.822 43.822 0 0 1 5.522-.472c-.049-.018-.072-.041.11-.047.382 0 .836 0 1.332.018.492.039 1.029.056 1.569.12l.477.041a.375.375 0 0 0 .181-.025c.485.046.93.132 1.336.193 1.344.177 2.69.394 4.015.7a16.812 16.812 0 0 1 3.833 1.3 5.314 5.314 0 0 1 1.554 1.14 2.2 2.2 0 0 1 .614 1.617 3.79 3.79 0 0 1-.676 1.816 8.364 8.364 0 0 1-1.4 1.621 13.873 13.873 0 0 1-3.065 2.06 33.4 33.4 0 0 1-5.518 2.064c.162.067-.794.411-1.687.726-.9.293-1.733.557-1.287.561-.58.145-1.318.256-1.915.384a10.027 10.027 0 0 0-1.1.224c-.252.189-1.12.625-4.334.9-.63.024.422.132-.277.1.478-.079 0 0-.224.007.907.044.7-.021 0 0a16.907 16.907 0 0 0 4.765-.336 46.057 46.057 0 0 0 6.735-1.519 35.444 35.444 0 0 0 6.446-2.63 17.548 17.548 0 0 0 1.532-.965l.376-.265.365-.313.363-.316c.113-.108.216-.217.324-.328a9.808 9.808 0 0 0 1.173-1.491 5.111 5.111 0 0 0 .757-1.938 3.736 3.736 0 0 0-.015-1.045 3.476 3.476 0 0 0-.565-1.419 5.26 5.26 0 0 0-1.235-1.265 9.852 9.852 0 0 0-1.679-.97 32.243 32.243 0 0 0-8.789-2.132 37.7 37.7 0 0 0-9.433.172c-2.825.372-5.141.912-6.482 1.221l-.485.123a68.969 68.969 0 0 0-8.742 2.784 84.264 84.264 0 0 0-3.227 1.407c.519-.175 1-.324 1.423-.454-1.118.424-2.223.878-2.631 1.087-2.307 1.076-.94.6.01.348.67-.213-.169.235.867-.128-.732.3-1.1.45-1.826.76-.064.079 2.236-.973 1.764-.673-.712.269-1.484.633-2.208.948.277-.047 2.53-1.044 2.45-.921a20.107 20.107 0 0 0-2.189.913c-.02.028.706-.283 1.071-.434-2.227.98-3.393 1.638-1.334.819-.7.306-1.715.722-2.428 1.087h.007c.357-.173 1-.451 1.341-.606-.419.191-.838.384-1.249.583.073-.022.151-.046.232-.069l.957-.423-.83.385c.224-.077.474-.16.743-.25 1.013-.4 2.008-.731 2.551-.959a99.34 99.34 0 0 1 13.516-4.52z" class="cls-7" data-name="Tracé 46595"/>
                </g>
            </g>
        </g>
        <g id="Groupe_14651" data-name="Groupe 14651">
            <path id="Tracé_49200" d="M2354.216 938.437h-11.028a1.5 1.5 0 0 1 0-3h11.028a1.5 1.5 0 0 1 0 3z" class="cls-8" data-name="Tracé 49200"/>
            <g id="Groupe_14650" class="cls-9" data-name="Groupe 14650">
                <path id="Tracé_49200-2" d="M2352.239 830.325h-11.028a1.5 1.5 0 0 1 0-3h11.028a1.5 1.5 0 0 1 0 3z" class="cls-10" data-name="Tracé 49200"/>
                <path id="Tracé_49200-3" d="M2305.736 897.324h-11.028a1.5 1.5 0 0 1 0-3h11.028a1.5 1.5 0 0 1 0 3z" class="cls-10" data-name="Tracé 49200"/>
                <path id="Tracé_49200-4" d="M2204.576 882.918h-11.028a1.5 1.5 0 0 1 0-3h11.028a1.5 1.5 0 0 1 0 3z" class="cls-10" data-name="Tracé 49200"/>
                <path id="Tracé_49200-5" d="M2310.024 926.014H2299a1.5 1.5 0 0 1 0-3h11.028a1.5 1.5 0 0 1 0 3z" class="cls-10" data-name="Tracé 49200"/>
                <path id="Tracé_49200-6" d="M2242.822 763.162h-11.028a1.5 1.5 0 0 1 0-3h11.028a1.5 1.5 0 0 1 0 3z" class="cls-10" data-name="Tracé 49200"/>
                <path id="Tracé_49200-7" d="M2338.912 774.9h-11.028a1.5 1.5 0 0 1 0-3h11.028a1.5 1.5 0 0 1 0 3z" class="cls-10" data-name="Tracé 49200"/>
                <path id="Tracé_49200-8" d="M2259.975 912.769h-11.028a1.5 1.5 0 0 1 0-3h11.028a1.5 1.5 0 0 1 0 3z" class="cls-10" data-name="Tracé 49200"/>
                <path id="Tracé_49200-9" d="M2266 938.437h-11.028a1.5 1.5 0 0 1 0-3H2266a1.5 1.5 0 0 1 0 3z" class="cls-10" data-name="Tracé 49200"/>
                <path id="Tracé_49200-10" d="M2317.479 757.373h-11.028a1.5 1.5 0 0 1 0-3h11.028a1.5 1.5 0 0 1 0 3z" class="cls-10" data-name="Tracé 49200"/>
                <path id="Tracé_49200-11" d="M2280.03 735.523H2269a1.5 1.5 0 0 1 0-3h11.028a1.5 1.5 0 0 1 0 3z" class="cls-10" data-name="Tracé 49200"/>
                <path id="Tracé_49200-12" d="M2211.59 789.138h-11.028a1.5 1.5 0 0 1 0-3h11.028a1.5 1.5 0 0 1 0 3z" class="cls-10" data-name="Tracé 49200"/>
                <path id="Tracé_49200-13" d="M2402.786 797.068h-11.028a1.5 1.5 0 0 1 0-3h11.028a1.5 1.5 0 0 1 0 3z" class="cls-10" data-name="Tracé 49200"/>
                <path id="Tracé_49200-14" d="M2367.3 753.667h-11.028a1.5 1.5 0 0 1 0-3h11.028a1.5 1.5 0 0 1 0 3z" class="cls-10" data-name="Tracé 49200"/>
                <path id="Tracé_49200-15" d="M2404.172 879.15h-11.028a1.5 1.5 0 0 1 0-3h11.028a1.5 1.5 0 0 1 0 3z" class="cls-10" data-name="Tracé 49200"/>
                <path id="Tracé_49200-16" d="M2384.889 909.054h-11.028a1.5 1.5 0 0 1 0-3h11.028a1.5 1.5 0 0 1 0 3z" class="cls-10" data-name="Tracé 49200"/>
                <path id="Tracé_49200-17" d="M2262.493 846.38h-11.028a1.5 1.5 0 0 1 0-3h11.028a1.5 1.5 0 0 1 0 3z" class="cls-10" data-name="Tracé 49200"/>
                <circle id="Ellipse_3077" cx="2.477" cy="2.477" r="2.477" class="cls-10" data-name="Ellipse 3077" transform="translate(2367.407 774.873)"/>
                <circle id="Ellipse_3078" cx="2.477" cy="2.477" r="2.477" class="cls-10" data-name="Ellipse 3078" transform="translate(2189.887 844.937)"/>
                <circle id="Ellipse_3079" cx="2.477" cy="2.477" r="2.477" class="cls-10" data-name="Ellipse 3079" transform="translate(2220.762 902.601)"/>
                <circle id="Ellipse_3080" cx="2.477" cy="2.477" r="2.477" class="cls-10" data-name="Ellipse 3080" transform="translate(2344.248 906.735)"/>
                <circle id="Ellipse_3081" cx="2.477" cy="2.477" r="2.477" class="cls-10" data-name="Ellipse 3081" transform="translate(2337.935 846.38)"/>
                <circle id="Ellipse_3082" cx="2.477" cy="2.477" r="2.477" class="cls-10" data-name="Ellipse 3082" transform="translate(2244.97 821.071)"/>
                <circle id="Ellipse_3083" cx="2.477" cy="2.477" r="2.477" class="cls-10" data-name="Ellipse 3083" transform="translate(2308.048 944.208)"/>
                <circle id="Ellipse_3084" cx="2.477" cy="2.477" r="2.477" class="cls-10" data-name="Ellipse 3084" transform="translate(2408.988 840.903)"/>
                <circle id="Ellipse_3085" cx="2.477" cy="2.477" r="2.477" class="cls-10" data-name="Ellipse 3085" transform="translate(2321.965 731.547)"/>
                <circle id="Ellipse_3086" cx="2.477" cy="2.477" r="2.477" class="cls-10" data-name="Ellipse 3086" transform="translate(2279.054 763.162)"/>
            </g>
        </g>
    </g>
</svg>
