<svg xmlns="http://www.w3.org/2000/svg" width="252" height="252" viewBox="0 0 252 252">
    <defs>
        <style>
            .cls-1,.cls-8,.cls-9{fill:#702963}.cls-1{opacity:.1}.cls-2,.cls-3,.cls-4,.cls-5{fill:#d31744}.cls-2{opacity:.33}.cls-3{opacity:.55}.cls-4,.cls-8{opacity:.66}.cls-6{fill:none;stroke:#d31744;stroke-miterlimit:10;stroke-width:3.5px}.cls-7{fill:#fff}
        </style>
    </defs>
    <g id="Groupe_14720" data-name="Groupe 14720" transform="translate(-1494.919 -419.05)">
        <circle id="Ellipse_3168" cx="126" cy="126" r="126" class="cls-1" data-name="Ellipse 3168" transform="translate(1494.919 419.05)"/>
        <g id="Groupe_14718" data-name="Groupe 14718">
            <path id="Tracé_51607" d="M1697.661 594.352l-14-24.246h-124.79l-14 24.246a6.425 6.425 0 0 0 5.564 9.637H1692.1a6.425 6.425 0 0 0 5.561-9.637z" class="cls-2" data-name="Tracé 51607"/>
            <path id="Tracé_51608" d="M1558.87 570.106h124.793l-19.563-33.882h-85.668z" class="cls-3" data-name="Tracé 51608"/>
            <path id="Tracé_51609" d="M1578.433 536.224h85.667l-19.562-33.883H1598z" class="cls-4" data-name="Tracé 51609"/>
            <path id="Tracé_51610" d="M1615.7 471.671l-17.708 30.67h46.544l-17.708-30.67a6.424 6.424 0 0 0-11.128 0z" class="cls-5" data-name="Tracé 51610"/>
            <path id="Tracé_51611" d="M1615.694 471.25l-71.316 123.522a6.145 6.145 0 0 0 5.322 9.217h142.631a6.144 6.144 0 0 0 5.321-9.217l-71.315-123.522a6.145 6.145 0 0 0-10.643 0z" class="cls-6" data-name="Tracé 51611"/>
        </g>
        <g id="Groupe_14719" data-name="Groupe 14719">
            <circle id="Ellipse_2689" cx="33.164" cy="33.164" r="33.164" class="cls-7" data-name="Ellipse 2689" transform="translate(1588.702 514.265)"/>
            <g id="Corps_rouge_100_" data-name="Corps rouge 100%">
                <path id="Tracé_51612" d="M1623.093 546.857c-6.107 0-11.059 4.37-11.059 9.761v6.043a.654.654 0 0 0 .654.654h20.81a.654.654 0 0 0 .654-.654v-6.043c0-5.391-4.952-9.761-11.059-9.761z" class="cls-8" data-name="Tracé 51612"/>
                <path id="Tracé_51613" d="M1624.876 528.891c-.174-.025-.347-.037-.52-.049a6.622 6.622 0 0 0 5.609 7.477c.175.026.348.038.521.049a6.623 6.623 0 0 0-5.61-7.477z" class="cls-8" data-name="Tracé 51613"/>
                <path id="Tracé_51614" d="M1616.635 533.9c-.025.174-.037.347-.049.52a6.622 6.622 0 0 0 7.477-5.609c.025-.175.037-.348.049-.521a6.623 6.623 0 0 0-7.477 5.61z" class="cls-8" data-name="Tracé 51614"/>
                <g id="Corps">
                    <path id="Tracé_51615" d="M1623.5 545.77c-6.667 0-12.09 4.841-12.09 10.792v6.038a1.687 1.687 0 0 0 1.684 1.685h20.806a1.686 1.686 0 0 0 1.684-1.685v-6.043c.003-5.946-5.42-10.787-12.084-10.787zm10.027 16.458h-2.545v-6.192a.859.859 0 1 0-1.718 0v6.192h-11.528v-6.192a.859.859 0 0 0-1.719 0v6.192h-2.545v-5.666c0-4.814 4.5-8.729 10.028-8.729s10.027 3.915 10.027 8.729z" class="cls-9" data-name="Tracé 51615"/>
                    <g id="Tête">
                        <path id="Tracé_51616" d="M1629.1 537.521a7.582 7.582 0 0 1-.771-.256l-.024-.01a7.925 7.925 0 0 1-.563-.254l-.145-.073c-.188-.1-.372-.2-.55-.312l-.025-.016a8.9 8.9 0 0 1-.5-.346l-.125-.1a8.918 8.918 0 0 1-.48-.4l-.028-.027a7.563 7.563 0 0 1-.419-.421l-.1-.115a8.809 8.809 0 0 1-.4-.482l-.028-.039a7.95 7.95 0 0 1-.414-.617 7.493 7.493 0 0 1-.306-.547l-.027-.056q-.127-.26-.235-.53l-.059-.15c-.019-.05-.034-.081-.049-.122a6.519 6.519 0 0 1-.357.4l-.081.085a7.669 7.669 0 0 1-.441.424l-.059.051c-.148.129-.3.253-.459.37l-.058.045q-.247.18-.508.34l-.1.065c-.173.1-.349.2-.53.291l-.1.045c-.186.09-.375.175-.569.25l-.018.007c-.2.076-.4.142-.6.2l-.107.032c-.2.055-.4.1-.6.142-.038.008-.077.014-.115.021a7.96 7.96 0 0 1-.638.09h-.05c-.118.011-.235.02-.354.025a5.8 5.8 0 0 0 11.155 2.023c-.063-.001-.11-.018-.163-.033z" class="cls-7" data-name="Tracé 51616"/>
                        <path id="Tracé_51617" d="M1620.59 535.021z" class="cls-9" data-name="Tracé 51617"/>
                        <path id="Tracé_51618" d="M1626.245 532.9z" class="cls-9" data-name="Tracé 51618"/>
                        <path id="Tracé_51619" d="M1619.258 535.4c.2-.039.406-.087.6-.142a4.944 4.944 0 0 1-.6.142z" class="cls-9" data-name="Tracé 51619"/>
                        <path id="Tracé_51620" d="M1621.89 534.37z" class="cls-9" data-name="Tracé 51620"/>
                        <path id="Tracé_51621" d="M1619.969 535.23z" class="cls-9" data-name="Tracé 51621"/>
                        <path id="Tracé_51622" d="M1621.255 534.726z" class="cls-9" data-name="Tracé 51622"/>
                        <path id="Tracé_51623" d="M1622.455 533.985z" class="cls-9" data-name="Tracé 51623"/>
                        <path id="Tracé_51624" d="M1623.856 532.639q-.174.215-.361.416c.123-.132.243-.266.357-.4.015.041.033.081.049.122-.017-.048-.03-.094-.045-.138z" class="cls-9" data-name="Tracé 51624"/>
                        <path id="Tracé_51625" d="M1627.289 534.208z" class="cls-9" data-name="Tracé 51625"/>
                        <path id="Tracé_51626" d="M1626.94 533.856q-.165-.183-.313-.379.148.196.313.379z" class="cls-9" data-name="Tracé 51626"/>
                        <path id="Tracé_51627" d="M1626.534 533.346z" class="cls-9" data-name="Tracé 51627"/>
                        <path id="Tracé_51628" d="M1623.414 533.14z" class="cls-9" data-name="Tracé 51628"/>
                        <path id="Tracé_51629" d="M1625.893 535.729z" class="cls-9" data-name="Tracé 51629"/>
                        <path id="Tracé_51630" d="M1626.007 532.45z" class="cls-9" data-name="Tracé 51630"/>
                        <path id="Tracé_51631" d="M1623.96 532.922q.108.27.235.53-.127-.26-.235-.53z" class="cls-9" data-name="Tracé 51631"/>
                        <path id="Tracé_51632" d="M1624.222 533.508z" class="cls-9" data-name="Tracé 51632"/>
                        <path id="Tracé_51633" d="M1624.611 534.188z" class="cls-9" data-name="Tracé 51633"/>
                        <path id="Tracé_51634" d="M1625.54 531a6.43 6.43 0 0 1-.048-.343c.014.113.028.228.048.343z" class="cls-9" data-name="Tracé 51634"/>
                        <path id="Tracé_51635" d="M1624.97 534.711z" class="cls-9" data-name="Tracé 51635"/>
                        <path id="Tracé_51636" d="M1625.45 529.747v.21c0-.069.008-.139.011-.208z" class="cls-9" data-name="Tracé 51636"/>
                        <path id="Tracé_51637" d="M1625.47 530.484z" class="cls-9" data-name="Tracé 51637"/>
                        <path id="Tracé_51638" d="M1627.743 537z" class="cls-9" data-name="Tracé 51638"/>
                        <path id="Tracé_51639" d="M1618.505 535.515z" class="cls-9" data-name="Tracé 51639"/>
                        <path id="Tracé_51640" d="M1625.921 535.756z" class="cls-9" data-name="Tracé 51640"/>
                        <path id="Tracé_51641" d="M1625.81 531.983c-.035-.093-.066-.188-.1-.283.034.095.065.19.1.283z" class="cls-9" data-name="Tracé 51641"/>
                        <path id="Tracé_51642" d="M1627.048 536.616z" class="cls-9" data-name="Tracé 51642"/>
                        <path id="Tracé_51643" d="M1626.526 536.254z" class="cls-9" data-name="Tracé 51643"/>
                        <path id="Tracé_51644" d="M1628.975 535.295z" class="cls-9" data-name="Tracé 51644"/>
                        <path id="Tracé_51645" d="M1620.753 532.652z" class="cls-9" data-name="Tracé 51645"/>
                        <path id="Tracé_51646" d="M1621.146 532.39z" class="cls-9" data-name="Tracé 51646"/>
                        <path id="Tracé_51647" d="M1621.525 532.09z" class="cls-9" data-name="Tracé 51647"/>
                        <path id="Tracé_51648" d="M1621.923 531.716z" class="cls-9" data-name="Tracé 51648"/>
                        <path id="Tracé_51649" d="M1628.51 535.075c-.089-.048-.176-.1-.263-.149.087.052.174.101.263.149z" class="cls-9" data-name="Tracé 51649"/>
                        <path id="Tracé_51650" d="M1620.235 532.928z" class="cls-9" data-name="Tracé 51650"/>
                        <path id="Tracé_51651" d="M1619.761 533.128z" class="cls-9" data-name="Tracé 51651"/>
                        <path id="Tracé_51652" d="M1629.641 535.532l.056.017z" class="cls-9" data-name="Tracé 51652"/>
                        <path id="Tracé_51653" d="M1618.417 533.451a5.757 5.757 0 0 0 .882-.173 5.852 5.852 0 0 1-.88.169z" class="cls-9" data-name="Tracé 51653"/>
                        <path id="Tracé_51654" d="M1629.473 535.478z" class="cls-9" data-name="Tracé 51654"/>
                        <path id="Tracé_51655" d="M1622.28 531.313q-.148.184-.31.357.162-.17.31-.357z" class="cls-9" data-name="Tracé 51655"/>
                        <path id="Tracé_51656" d="M1622.561 530.93z" class="cls-9" data-name="Tracé 51656"/>
                        <path id="Tracé_51657" d="M1628.075 534.819z" class="cls-9" data-name="Tracé 51657"/>
                        <path id="Tracé_51658" d="M1622.82 530.508c-.056.1-.115.2-.176.295.056-.097.12-.195.176-.295z" class="cls-9" data-name="Tracé 51658"/>
                        <path id="Tracé_51659" d="M1623.093 529.957z" class="cls-9" data-name="Tracé 51659"/>
                        <path id="Tracé_51660" d="M1625.654 531.5z" class="cls-9" data-name="Tracé 51660"/>
                        <path id="Tracé_51661" d="M1627.667 534.529z" class="cls-9" data-name="Tracé 51661"/>
                        <path id="Tracé_51662" d="M1623.1 529.936a4.4 4.4 0 0 0 .139-.361h-.005a4.187 4.187 0 0 1-.134.361z" class="cls-9" data-name="Tracé 51662"/>
                        <path id="Tracé_51663" d="M1623.9 532.772l.06.15z" class="cls-9" data-name="Tracé 51663"/>
                        <path id="Tracé_51664" d="M1625.369 535.193l.1.115z" class="cls-9" data-name="Tracé 51664"/>
                        <path id="Tracé_51665" d="M1625.492 530.655c-.007-.057-.016-.114-.022-.171.006.058.015.116.022.171z" class="cls-9" data-name="Tracé 51665"/>
                        <path id="Tracé_51666" d="M1626.4 536.159l.125.1z" class="cls-9" data-name="Tracé 51666"/>
                        <path id="Tracé_51667" d="M1627.421 534.322c-.044-.038-.089-.075-.132-.114.043.039.088.076.132.114z" class="cls-9" data-name="Tracé 51667"/>
                        <path id="Tracé_51668" d="M1625.582 531.2c-.014-.066-.03-.131-.042-.2.012.065.028.13.042.2z" class="cls-9" data-name="Tracé 51668"/>
                        <path id="Tracé_51669" d="M1627 533.914c-.018-.02-.038-.038-.057-.058.016.02.036.038.057.058z" class="cls-9" data-name="Tracé 51669"/>
                        <path id="Tracé_51670" d="M1624.195 533.452l.027.056c-.01-.019-.022-.038-.027-.056z" class="cls-9" data-name="Tracé 51670"/>
                        <path id="Tracé_51671" d="M1629.641 535.532c-.057-.016-.112-.036-.168-.054.056.022.111.038.168.054z" class="cls-9" data-name="Tracé 51671"/>
                        <path id="Tracé_51672" d="M1624.528 534.055z" class="cls-9" data-name="Tracé 51672"/>
                        <path id="Tracé_51673" d="M1624.942 534.672l.028.039z" class="cls-9" data-name="Tracé 51673"/>
                        <path id="Tracé_51674" d="M1627.825 534.646c-.053-.039-.106-.077-.158-.117.052.041.105.078.158.117z" class="cls-9" data-name="Tracé 51674"/>
                        <path id="Tracé_51675" d="M1625.886 532.18z" class="cls-9" data-name="Tracé 51675"/>
                        <path id="Tracé_51676" d="M1628.691 535.167z" class="cls-9" data-name="Tracé 51676"/>
                        <path id="Tracé_51677" d="M1628.247 534.926c-.058-.035-.116-.07-.172-.107.056.037.114.072.172.107z" class="cls-9" data-name="Tracé 51677"/>
                        <path id="Tracé_51678" d="M1626.345 533.069c-.035-.055-.067-.112-.1-.168.033.056.065.113.1.168z" class="cls-9" data-name="Tracé 51678"/>
                        <path id="Tracé_51679" d="M1626.1 532.636c-.032-.061-.061-.124-.09-.186.026.062.055.125.09.186z" class="cls-9" data-name="Tracé 51679"/>
                        <path id="Tracé_51680" d="M1625.921 535.756l-.028-.027z" class="cls-9" data-name="Tracé 51680"/>
                        <path id="Tracé_51681" d="M1627.6 536.928l.145.073z" class="cls-9" data-name="Tracé 51681"/>
                        <path id="Tracé_51682" d="M1629.156 535.369c-.061-.023-.121-.049-.181-.074.06.025.12.051.181.074z" class="cls-9" data-name="Tracé 51682"/>
                        <path id="Tracé_51683" d="M1625.714 531.7c-.021-.067-.042-.134-.06-.2.018.066.039.133.06.2z" class="cls-9" data-name="Tracé 51683"/>
                        <path id="Tracé_51684" d="M1627.023 536.6l.025.016z" class="cls-9" data-name="Tracé 51684"/>
                        <path id="Tracé_51685" d="M1626.627 533.477c-.033-.043-.062-.088-.093-.131.031.043.06.088.093.131z" class="cls-9" data-name="Tracé 51685"/>
                        <path id="Tracé_51686" d="M1624.667 527.514l-.077-.005h.038l.067.006z" class="cls-9" data-name="Tracé 51686"/>
                        <path id="Tracé_51687" d="M1620.337 532.88l-.1.048z" class="cls-9" data-name="Tracé 51687"/>
                        <path id="Tracé_51688" d="M1621.259 532.3l-.113.085z" class="cls-9" data-name="Tracé 51688"/>
                        <path id="Tracé_51689" d="M1621.97 531.67l-.047.046.047-.046z" class="cls-9" data-name="Tracé 51689"/>
                        <path id="Tracé_51690" d="M1621.632 532c-.035.032-.071.062-.107.093.036-.034.075-.064.107-.093z" class="cls-9" data-name="Tracé 51690"/>
                        <path id="Tracé_51691" d="M1622.351 531.22c-.024.031-.046.062-.071.093.025-.031.047-.062.071-.093z" class="cls-9" data-name="Tracé 51691"/>
                        <path id="Tracé_51692" d="M1622.887 530.387c-.021.041-.045.081-.067.121.022-.041.046-.08.067-.121z" class="cls-9" data-name="Tracé 51692"/>
                        <path id="Tracé_51693" d="M1622.644 530.8z" class="cls-9" data-name="Tracé 51693"/>
                        <path id="Tracé_51694" d="M1620.813 532.613l-.06.039.06-.039z" class="cls-9" data-name="Tracé 51694"/>
                        <path id="Tracé_51695" d="M1623.1 529.936l-.009.021z" class="cls-9" data-name="Tracé 51695"/>
                        <path id="Tracé_51696" d="M1619.43 533.238c-.044.014-.087.028-.131.04.044-.012.087-.026.131-.04z" class="cls-9" data-name="Tracé 51696"/>
                        <path id="Tracé_51697" d="M1619.9 533.074c-.046.019-.093.036-.14.054.048-.018.095-.035.14-.054z" class="cls-9" data-name="Tracé 51697"/>
                        <path id="Tracé_51698" d="M1621.785 534.435l.1-.065z" class="cls-9" data-name="Tracé 51698"/>
                        <path id="Tracé_51699" d="M1621.159 534.771l.1-.045z" class="cls-9" data-name="Tracé 51699"/>
                        <path id="Tracé_51700" d="M1618.455 535.518h.05z" class="cls-9" data-name="Tracé 51700"/>
                        <path id="Tracé_51701" d="M1619.143 535.425c.038-.007.077-.013.115-.021-.038.008-.077.014-.115.021z" class="cls-9" data-name="Tracé 51701"/>
                        <path id="Tracé_51702" d="M1622.4 534.03l.058-.045z" class="cls-9" data-name="Tracé 51702"/>
                        <path id="Tracé_51703" d="M1619.862 535.262l.107-.032z" class="cls-9" data-name="Tracé 51703"/>
                        <path id="Tracé_51704" d="M1620.572 535.028l.018-.007z" class="cls-9" data-name="Tracé 51704"/>
                        <path id="Tracé_51705" d="M1622.914 533.615l.059-.051z" class="cls-9" data-name="Tracé 51705"/>
                        <path id="Tracé_51706" d="M1623.495 533.055l-.081.085z" class="cls-9" data-name="Tracé 51706"/>
                        <path id="Tracé_51707" d="M1624.179 527.483l.411.026c-.144-.009-.28-.021-.411-.026z" class="cls-9" data-name="Tracé 51707"/>
                        <path id="Tracé_51708" d="M1625.764 527.707l-.087-.021a7.863 7.863 0 0 0-.982-.168l-.067-.006h-.038l-.411-.026c-.095 0-.19-.007-.28-.007-.056 0-.111.006-.166.007l-.109.005a7.862 7.862 0 0 0-7.328 5.889 7.941 7.941 0 0 0-.2.983 7.828 7.828 0 0 0-.066.977v.084a7.87 7.87 0 0 0 15.555 1.547 7.976 7.976 0 0 0 .153-1.136c.011-.165.018-.329.018-.493a7.822 7.822 0 0 0-5.992-7.635zm3.937 7.633V535.545c-.019-.006-.037-.013-.056-.018-.057-.016-.112-.036-.168-.054a5.634 5.634 0 0 1-.317-.109c-.061-.023-.121-.049-.181-.074a4.352 4.352 0 0 1-.465-.22c-.089-.048-.176-.1-.263-.149a6.144 6.144 0 0 1-.422-.28c-.053-.039-.106-.076-.158-.117a5.986 5.986 0 0 1-.246-.207c-.044-.038-.089-.075-.132-.114-.1-.094-.2-.193-.292-.294l-.057-.058a5.426 5.426 0 0 1-.313-.379c-.033-.043-.062-.088-.093-.131a5.872 5.872 0 0 1-.189-.277c-.035-.055-.067-.112-.1-.169a7.477 7.477 0 0 1-.148-.264c-.032-.061-.061-.124-.09-.186q-.064-.133-.12-.27a3.614 3.614 0 0 1-.077-.2c-.035-.093-.066-.188-.1-.283-.021-.067-.042-.133-.06-.2-.027-.1-.05-.2-.072-.3-.014-.066-.03-.131-.042-.2a6.43 6.43 0 0 1-.048-.343c-.007-.057-.016-.113-.021-.171a5.762 5.762 0 0 1-.025-.528v-.209h.007a5.774 5.774 0 0 1 4.247 5.599zm-6.466-5.764h.005a5.84 5.84 0 0 1-.139.361l-.008.021a5.652 5.652 0 0 1-.206.43c-.021.041-.045.08-.068.121a5.087 5.087 0 0 1-.258.422c-.067.1-.137.2-.21.29l-.07.092c-.1.124-.2.243-.311.358l-.047.046q-.141.145-.291.282l-.107.092a5.547 5.547 0 0 1-.266.215c-.038.028-.075.057-.113.084a5.378 5.378 0 0 1-.333.224l-.06.039a5.768 5.768 0 0 1-.416.228l-.1.048c-.11.052-.221.1-.334.146l-.14.054c-.109.04-.219.076-.331.11-.044.014-.087.028-.131.04a5.757 5.757 0 0 1-.882.173v-.005a5.81 5.81 0 0 1 4.816-3.871zm.664 11.566a5.808 5.808 0 0 1-5.8-5.6c.119-.005.237-.014.354-.025h.05a7.896 7.896 0 0 0 1.353-.253l.107-.032c.2-.06.406-.126.6-.2l.018-.007c.194-.075.383-.16.569-.25l.1-.045c.181-.091.357-.188.53-.291l.1-.065c.174-.107.343-.219.508-.34l.058-.045q.237-.177.459-.37c.02-.017.04-.033.059-.051.153-.135.3-.278.441-.424l.081-.085q.188-.2.361-.416c.015.044.028.09.045.133l.059.15q.108.27.235.53l.027.056a8.811 8.811 0 0 0 .389.68c.1.165.214.327.331.483l.028.04c.126.167.26.326.4.482l.1.115c.135.145.274.287.419.421l.028.027c.153.141.315.275.48.4l.125.1c.161.121.326.237.5.346l.025.016c.178.112.362.214.55.312l.145.073c.184.091.371.177.563.254l.024.01a8.014 8.014 0 0 0 .771.256c.056.015.1.032.155.045a5.833 5.833 0 0 1-5.346 3.57z" class="cls-9" data-name="Tracé 51708"/>
                    </g>
                </g>
            </g>
        </g>
    </g>
</svg>
