<svg xmlns="http://www.w3.org/2000/svg" width="252" height="252" viewBox="0 0 252 252">
    <defs>
        <style>
            .cls-1,.cls-3,.cls-4{fill:#702963}.cls-1{opacity:.1}.cls-2{fill:#fff}.cls-3{opacity:.66}.cls-5,.cls-8{fill:none;stroke:#ea5621;stroke-miterlimit:10}.cls-5{stroke-width:3.5px}.cls-6,.cls-7{fill:#ea5621}.cls-6{opacity:.33}.cls-8{stroke-width:4px}.cls-9{opacity:.2}
        </style>
    </defs>
    <g id="Groupe_14717" data-name="Groupe 14717" transform="translate(-1846.4 -422)">
        <g id="Groupe_14715" data-name="Groupe 14715">
            <circle id="Ellipse_3155" cx="126" cy="126" r="126" class="cls-1" data-name="Ellipse 3155" transform="translate(1846.4 422)"/>
            <g id="Groupe_14713" data-name="Groupe 14713">
                <circle id="Ellipse_2689" cx="33.164" cy="33.164" r="33.164" class="cls-2" data-name="Ellipse 2689" transform="translate(1939.236 514.836)"/>
                <g id="Corps_rouge_100_" data-name="Corps rouge 100%">
                    <path id="Tracé_51509" d="M1973.627 547.429c-6.107 0-11.059 4.369-11.059 9.76v6.043a.654.654 0 0 0 .654.654h20.81a.654.654 0 0 0 .654-.654v-6.043c0-5.389-4.951-9.76-11.059-9.76z" class="cls-3" data-name="Tracé 51509"/>
                    <path id="Tracé_51510" d="M1975.41 529.462a6.566 6.566 0 0 0-.52-.048 6.623 6.623 0 0 0 5.609 7.477c.175.025.348.037.521.048a6.624 6.624 0 0 0-5.61-7.477z" class="cls-3" data-name="Tracé 51510"/>
                    <path id="Tracé_51511" d="M1967.169 534.472c-.025.174-.037.348-.049.52a6.622 6.622 0 0 0 7.477-5.609 6.57 6.57 0 0 0 .049-.52 6.622 6.622 0 0 0-7.477 5.609z" class="cls-3" data-name="Tracé 51511"/>
                    <g id="Corps">
                        <path id="Tracé_51512" d="M1974.032 546.342c-6.667 0-12.09 4.841-12.09 10.791v6.043a1.687 1.687 0 0 0 1.685 1.685h20.81a1.687 1.687 0 0 0 1.685-1.685v-6.043c0-5.95-5.422-10.791-12.09-10.791zm10.027 16.457h-2.545v-6.191a.859.859 0 0 0-1.718 0v6.192h-11.528v-6.191a.859.859 0 0 0-1.719 0v6.191H1964v-5.666c0-4.813 4.5-8.729 10.028-8.729s10.027 3.916 10.027 8.729z" class="cls-4" data-name="Tracé 51512"/>
                        <g id="Tête">
                            <path id="Tracé_51513" d="M1979.635 538.093l-.165-.049a7.576 7.576 0 0 1-.606-.207l-.024-.011a7.916 7.916 0 0 1-.563-.253l-.145-.074c-.188-.1-.372-.2-.55-.311l-.025-.017a8.882 8.882 0 0 1-.5-.345l-.125-.095a9.327 9.327 0 0 1-.48-.4l-.028-.027a7.94 7.94 0 0 1-.419-.422l-.105-.115a8.446 8.446 0 0 1-.4-.482l-.029-.039q-.174-.235-.331-.484a7.29 7.29 0 0 1-.389-.68c-.01-.018-.018-.037-.027-.056a8.336 8.336 0 0 1-.235-.529l-.059-.15c-.019-.05-.034-.081-.049-.123-.114.14-.234.274-.357.4l-.081.085a8.042 8.042 0 0 1-.441.425l-.059.05q-.222.194-.459.371l-.058.045c-.164.12-.334.232-.507.34l-.1.064c-.173.1-.349.2-.53.291l-.095.046c-.187.09-.376.174-.57.249l-.017.008c-.2.076-.4.142-.6.2l-.107.031c-.2.056-.4.1-.6.143l-.115.021c-.21.037-.423.069-.638.089h-.05c-.117.01-.235.02-.354.025a5.8 5.8 0 0 0 11.155 2.023c-.06-.006-.111-.023-.163-.037z" class="cls-2" data-name="Tracé 51513"/>
                            <path id="Tracé_51514" d="M1971.124 535.592z" class="cls-4" data-name="Tracé 51514"/>
                            <path id="Tracé_51515" d="M1976.779 533.472a8.494 8.494 0 0 1-.148-.264c.047.092.097.177.148.264z" class="cls-4" data-name="Tracé 51515"/>
                            <path id="Tracé_51516" d="M1969.792 535.976z" class="cls-4" data-name="Tracé 51516"/>
                            <path id="Tracé_51517" d="M1972.424 534.942z" class="cls-4" data-name="Tracé 51517"/>
                            <path id="Tracé_51518" d="M1970.5 535.8c.2-.06.406-.126.6-.2a6.027 6.027 0 0 1-.6.2z" class="cls-4" data-name="Tracé 51518"/>
                            <path id="Tracé_51519" d="M1971.789 535.3z" class="cls-4" data-name="Tracé 51519"/>
                            <path id="Tracé_51520" d="M1972.989 534.557q.237-.177.459-.371-.222.194-.459.371z" class="cls-4" data-name="Tracé 51520"/>
                            <path id="Tracé_51521" d="M1974.39 533.211a8.378 8.378 0 0 1-.361.415c.123-.131.243-.265.357-.4.015.042.033.082.049.123l-.045-.138z" class="cls-4" data-name="Tracé 51521"/>
                            <path id="Tracé_51522" d="M1977.823 534.779z" class="cls-4" data-name="Tracé 51522"/>
                            <path id="Tracé_51523" d="M1977.475 534.427z" class="cls-4" data-name="Tracé 51523"/>
                            <path id="Tracé_51524" d="M1977.068 533.917z" class="cls-4" data-name="Tracé 51524"/>
                            <path id="Tracé_51525" d="M1973.948 533.711z" class="cls-4" data-name="Tracé 51525"/>
                            <path id="Tracé_51526" d="M1976.427 536.3z" class="cls-4" data-name="Tracé 51526"/>
                            <path id="Tracé_51527" d="M1976.541 533.021a5.03 5.03 0 0 1-.12-.27c.037.092.079.181.12.27z" class="cls-4" data-name="Tracé 51527"/>
                            <path id="Tracé_51528" d="M1974.494 533.494z" class="cls-4" data-name="Tracé 51528"/>
                            <path id="Tracé_51529" d="M1974.756 534.079z" class="cls-4" data-name="Tracé 51529"/>
                            <path id="Tracé_51530" d="M1975.145 534.759q.157.249.331.484a7.786 7.786 0 0 1-.331-.484z" class="cls-4" data-name="Tracé 51530"/>
                            <path id="Tracé_51531" d="M1976.074 531.57z" class="cls-4" data-name="Tracé 51531"/>
                            <path id="Tracé_51532" d="M1975.505 535.282z" class="cls-4" data-name="Tracé 51532"/>
                            <path id="Tracé_51533" d="M1975.984 530.318v.21c0-.069.008-.139.011-.208z" class="cls-4" data-name="Tracé 51533"/>
                            <path id="Tracé_51534" d="M1976.005 531.055z" class="cls-4" data-name="Tracé 51534"/>
                            <path id="Tracé_51535" d="M1978.277 537.573z" class="cls-4" data-name="Tracé 51535"/>
                            <path id="Tracé_51536" d="M1969.039 536.086z" class="cls-4" data-name="Tracé 51536"/>
                            <path id="Tracé_51537" d="M1976.455 536.328z" class="cls-4" data-name="Tracé 51537"/>
                            <path id="Tracé_51538" d="M1976.344 532.554c-.035-.093-.066-.187-.1-.282.034.095.065.189.1.282z" class="cls-4" data-name="Tracé 51538"/>
                            <path id="Tracé_51539" d="M1977.582 537.188z" class="cls-4" data-name="Tracé 51539"/>
                            <path id="Tracé_51540" d="M1977.06 536.826z" class="cls-4" data-name="Tracé 51540"/>
                            <path id="Tracé_51541" d="M1979.509 535.866z" class="cls-4" data-name="Tracé 51541"/>
                            <path id="Tracé_51542" d="M1971.288 533.223q-.2.123-.417.229.213-.107.417-.229z" class="cls-4" data-name="Tracé 51542"/>
                            <path id="Tracé_51543" d="M1971.68 532.961z" class="cls-4" data-name="Tracé 51543"/>
                            <path id="Tracé_51544" d="M1972.059 532.661z" class="cls-4" data-name="Tracé 51544"/>
                            <path id="Tracé_51545" d="M1972.457 532.288z" class="cls-4" data-name="Tracé 51545"/>
                            <path id="Tracé_51546" d="M1979.044 535.646c-.089-.047-.176-.1-.263-.149.087.052.174.103.263.149z" class="cls-4" data-name="Tracé 51546"/>
                            <path id="Tracé_51547" d="M1970.769 533.5q-.165.078-.334.147.165-.07.334-.147z" class="cls-4" data-name="Tracé 51547"/>
                            <path id="Tracé_51548" d="M1970.3 533.7z" class="cls-4" data-name="Tracé 51548"/>
                            <path id="Tracé_51549" d="M1980.175 536.1c.019.006.037.013.056.018z" class="cls-4" data-name="Tracé 51549"/>
                            <path id="Tracé_51550" d="M1968.951 534.023a5.88 5.88 0 0 0 .882-.173 5.716 5.716 0 0 1-.88.168z" class="cls-4" data-name="Tracé 51550"/>
                            <path id="Tracé_51551" d="M1980.007 536.05z" class="cls-4" data-name="Tracé 51551"/>
                            <path id="Tracé_51552" d="M1972.815 531.884z" class="cls-4" data-name="Tracé 51552"/>
                            <path id="Tracé_51553" d="M1973.095 531.5z" class="cls-4" data-name="Tracé 51553"/>
                            <path id="Tracé_51554" d="M1978.609 535.39z" class="cls-4" data-name="Tracé 51554"/>
                            <path id="Tracé_51555" d="M1973.354 531.079c-.056.1-.115.2-.176.3.061-.101.122-.2.176-.3z" class="cls-4" data-name="Tracé 51555"/>
                            <path id="Tracé_51556" d="M1973.627 530.529z" class="cls-4" data-name="Tracé 51556"/>
                            <path id="Tracé_51557" d="M1976.188 532.07z" class="cls-4" data-name="Tracé 51557"/>
                            <path id="Tracé_51558" d="M1978.2 535.1a7.112 7.112 0 0 1-.247-.207c.083.071.164.141.247.207z" class="cls-4" data-name="Tracé 51558"/>
                            <path id="Tracé_51559" d="M1973.636 530.507c.049-.118.1-.238.138-.361h-.005a5.552 5.552 0 0 1-.133.361z" class="cls-4" data-name="Tracé 51559"/>
                            <path id="Tracé_51560" d="M1974.435 533.344l.059.15-.059-.15z" class="cls-4" data-name="Tracé 51560"/>
                            <path id="Tracé_51561" d="M1975.9 535.764l.105.115z" class="cls-4" data-name="Tracé 51561"/>
                            <path id="Tracé_51562" d="M1976.026 531.226c-.007-.057-.016-.113-.021-.171.005.058.014.114.021.171z" class="cls-4" data-name="Tracé 51562"/>
                            <path id="Tracé_51563" d="M1976.935 536.731l.125.095z" class="cls-4" data-name="Tracé 51563"/>
                            <path id="Tracé_51564" d="M1977.955 534.894c-.044-.039-.089-.075-.132-.115.043.04.088.076.132.115z" class="cls-4" data-name="Tracé 51564"/>
                            <path id="Tracé_51565" d="M1976.116 531.767c-.014-.065-.03-.131-.042-.2.012.069.026.133.042.2z" class="cls-4" data-name="Tracé 51565"/>
                            <path id="Tracé_51566" d="M1977.532 534.486c-.019-.02-.039-.038-.057-.059.018.021.038.039.057.059z" class="cls-4" data-name="Tracé 51566"/>
                            <path id="Tracé_51567" d="M1974.729 534.023c.01.019.017.038.027.056-.01-.018-.017-.037-.027-.056z" class="cls-4" data-name="Tracé 51567"/>
                            <path id="Tracé_51568" d="M1980.175 536.1c-.056-.016-.112-.035-.168-.053.056.021.111.04.168.053z" class="cls-4" data-name="Tracé 51568"/>
                            <path id="Tracé_51569" d="M1975.062 534.626z" class="cls-4" data-name="Tracé 51569"/>
                            <path id="Tracé_51570" d="M1975.476 535.243l.029.039-.029-.039z" class="cls-4" data-name="Tracé 51570"/>
                            <path id="Tracé_51571" d="M1978.359 535.217c-.053-.039-.106-.076-.157-.116.051.04.104.077.157.116z" class="cls-4" data-name="Tracé 51571"/>
                            <path id="Tracé_51572" d="M1976.421 532.751z" class="cls-4" data-name="Tracé 51572"/>
                            <path id="Tracé_51573" d="M1979.225 535.738z" class="cls-4" data-name="Tracé 51573"/>
                            <path id="Tracé_51574" d="M1978.781 535.5c-.058-.035-.116-.07-.172-.107.057.034.114.069.172.107z" class="cls-4" data-name="Tracé 51574"/>
                            <path id="Tracé_51575" d="M1976.879 533.641c-.035-.055-.067-.113-.1-.169.033.056.065.114.1.169z" class="cls-4" data-name="Tracé 51575"/>
                            <path id="Tracé_51576" d="M1976.631 533.208z" class="cls-4" data-name="Tracé 51576"/>
                            <path id="Tracé_51577" d="M1976.455 536.328l-.028-.027z" class="cls-4" data-name="Tracé 51577"/>
                            <path id="Tracé_51578" d="M1978.132 537.5l.145.074z" class="cls-4" data-name="Tracé 51578"/>
                            <path id="Tracé_51579" d="M1979.69 535.941z" class="cls-4" data-name="Tracé 51579"/>
                            <path id="Tracé_51580" d="M1976.248 532.272z" class="cls-4" data-name="Tracé 51580"/>
                            <path id="Tracé_51581" d="M1977.557 537.171l.025.017z" class="cls-4" data-name="Tracé 51581"/>
                            <path id="Tracé_51582" d="M1977.161 534.048c-.033-.042-.062-.087-.093-.131.032.044.06.089.093.131z" class="cls-4" data-name="Tracé 51582"/>
                            <path id="Tracé_51583" d="M1975.2 528.086l-.077-.005h.038l.067.007z" class="cls-4" data-name="Tracé 51583"/>
                            <path id="Tracé_51584" d="M1970.871 533.452l-.1.047c.029-.016.066-.03.1-.047z" class="cls-4" data-name="Tracé 51584"/>
                            <path id="Tracé_51585" d="M1971.793 532.876l-.113.085z" class="cls-4" data-name="Tracé 51585"/>
                            <path id="Tracé_51586" d="M1972.5 532.241l-.047.047z" class="cls-4" data-name="Tracé 51586"/>
                            <path id="Tracé_51587" d="M1972.166 532.569l-.107.092z" class="cls-4" data-name="Tracé 51587"/>
                            <path id="Tracé_51588" d="M1972.885 531.791c-.024.031-.046.063-.07.093.024-.03.046-.062.07-.093z" class="cls-4" data-name="Tracé 51588"/>
                            <path id="Tracé_51589" d="M1973.421 530.958c-.021.041-.045.081-.067.121.022-.04.046-.079.067-.121z" class="cls-4" data-name="Tracé 51589"/>
                            <path id="Tracé_51590" d="M1973.178 531.374a5.543 5.543 0 0 1-.083.127l.083-.127z" class="cls-4" data-name="Tracé 51590"/>
                            <path id="Tracé_51591" d="M1971.347 533.184c-.02.013-.039.027-.059.039.02-.012.039-.023.059-.039z" class="cls-4" data-name="Tracé 51591"/>
                            <path id="Tracé_51592" d="M1973.636 530.507l-.009.022z" class="cls-4" data-name="Tracé 51592"/>
                            <path id="Tracé_51593" d="M1969.964 533.81l-.131.04z" class="cls-4" data-name="Tracé 51593"/>
                            <path id="Tracé_51594" d="M1970.435 533.646l-.14.053z" class="cls-4" data-name="Tracé 51594"/>
                            <path id="Tracé_51595" d="M1972.319 535.006l.1-.064z" class="cls-4" data-name="Tracé 51595"/>
                            <path id="Tracé_51596" d="M1971.694 535.343l.095-.046z" class="cls-4" data-name="Tracé 51596"/>
                            <path id="Tracé_51597" d="M1968.989 536.09h.05z" class="cls-4" data-name="Tracé 51597"/>
                            <path id="Tracé_51598" d="M1969.677 536l.115-.021z" class="cls-4" data-name="Tracé 51598"/>
                            <path id="Tracé_51599" d="M1972.931 534.6l.058-.045z" class="cls-4" data-name="Tracé 51599"/>
                            <path id="Tracé_51600" d="M1970.4 535.833l.107-.031z" class="cls-4" data-name="Tracé 51600"/>
                            <path id="Tracé_51601" d="M1971.106 535.6l.018-.008z" class="cls-4" data-name="Tracé 51601"/>
                            <path id="Tracé_51602" d="M1973.448 534.186l.06-.05z" class="cls-4" data-name="Tracé 51602"/>
                            <path id="Tracé_51603" d="M1974.029 533.626l-.081.085z" class="cls-4" data-name="Tracé 51603"/>
                            <path id="Tracé_51604" d="M1974.713 528.054l.411.027a9.217 9.217 0 0 0-.411-.027z" class="cls-4" data-name="Tracé 51604"/>
                            <path id="Tracé_51605" d="M1976.3 528.279c-.028-.007-.057-.015-.086-.021a7.917 7.917 0 0 0-.983-.168l-.067-.007h-.038l-.411-.027c-.095 0-.19-.007-.28-.007-.056 0-.11.006-.166.008-.036 0-.072 0-.109.005a7.914 7.914 0 0 0-7.522 6.872 7.79 7.79 0 0 0-.066.976v.084a7.87 7.87 0 0 0 15.555 1.547 7.977 7.977 0 0 0 .153-1.136c.011-.165.018-.329.018-.493a7.82 7.82 0 0 0-5.998-7.633zm3.937 7.632v.205c-.019 0-.037-.012-.056-.018-.057-.016-.112-.035-.168-.053a5.634 5.634 0 0 1-.317-.109 5.737 5.737 0 0 1-.181-.075 4.348 4.348 0 0 1-.465-.22c-.089-.047-.176-.1-.263-.149a6.144 6.144 0 0 1-.422-.28c-.053-.039-.106-.076-.157-.116a7.112 7.112 0 0 1-.247-.207c-.044-.039-.089-.075-.132-.115-.1-.094-.2-.192-.291-.294-.019-.019-.039-.037-.058-.058a5.426 5.426 0 0 1-.313-.379c-.033-.042-.062-.088-.093-.131a5.842 5.842 0 0 1-.189-.276c-.035-.056-.067-.113-.1-.169a7.524 7.524 0 0 1-.148-.265q-.047-.091-.09-.186a5.03 5.03 0 0 1-.197-.47c-.035-.093-.066-.187-.1-.283a4.599 4.599 0 0 1-.132-.5c-.014-.065-.029-.131-.041-.2a5.582 5.582 0 0 1-.049-.344c-.007-.057-.016-.113-.021-.171a5.74 5.74 0 0 1-.025-.527v-.21h.007a5.774 5.774 0 0 1 4.246 5.6zm-6.465-5.764a6.25 6.25 0 0 1-.138.361l-.009.022a5.63 5.63 0 0 1-.206.429c-.021.041-.045.081-.067.121a7.793 7.793 0 0 1-.259.427c-.067.1-.137.2-.21.29-.024.031-.046.063-.07.093-.1.123-.2.243-.311.357l-.047.047c-.094.1-.191.19-.291.281l-.107.092a5.547 5.547 0 0 1-.266.215l-.113.085a5.85 5.85 0 0 1-.333.223c-.02.013-.039.027-.06.039a5.779 5.779 0 0 1-.416.229l-.1.047a6.24 6.24 0 0 1-.474.2 5.354 5.354 0 0 1-.331.111c-.044.013-.087.028-.131.04a5.88 5.88 0 0 1-.882.173v-.005a5.812 5.812 0 0 1 4.819-3.877zm.663 11.566a5.808 5.808 0 0 1-5.8-5.6c.119-.005.237-.015.354-.025h.05c.215-.02.428-.052.638-.089l.115-.021c.2-.04.406-.088.6-.143l.107-.031c.2-.06.406-.126.6-.2l.017-.007c.194-.076.383-.161.57-.25l.095-.046c.181-.09.357-.188.53-.291l.1-.064c.173-.108.343-.22.507-.341l.058-.044q.237-.177.459-.371l.059-.05c.153-.136.3-.278.441-.425l.081-.085c.125-.134.245-.273.361-.415.015.044.028.089.045.133l.059.15c.073.179.15.356.235.529.009.018.017.038.027.056.094.188.2.369.306.547l.083.134c.1.165.214.327.331.483l.029.04c.125.166.26.326.4.481l.105.115c.135.145.274.287.419.422l.028.027c.154.141.315.274.48.4.041.033.083.064.125.1.161.12.326.237.5.345l.025.017c.178.112.362.214.55.311l.145.073a7.5 7.5 0 0 0 .563.254l.024.011c.2.078.4.145.606.207l.165.048c.052.015.1.032.155.046a5.833 5.833 0 0 1-5.349 3.569z" class="cls-4" data-name="Tracé 51605"/>
                        </g>
                    </g>
                </g>
            </g>
            <g id="Groupe_14714" data-name="Groupe 14714">
                <path id="Rectangle_14828" d="M0 0h140.492v9.289a8.128 8.128 0 0 1-8.128 8.128H8.128A8.128 8.128 0 0 1 0 9.289V0z" class="cls-5" data-name="Rectangle 14828" transform="translate(1901.722 586.775)"/>
                <path id="Rectangle_14829" d="M0 0h140.492v9.217a8.2 8.2 0 0 1-8.2 8.2H8.2a8.2 8.2 0 0 1-8.2-8.2V0z" class="cls-6" data-name="Rectangle 14829" transform="translate(1902.586 586.775)"/>
                <path id="Rectangle_14830" d="M0 0h35.4v4.936a3.773 3.773 0 0 1-3.773 3.773H3.773A3.773 3.773 0 0 1 0 4.936V0z" class="cls-7" data-name="Rectangle 14830" transform="translate(1954.269 587.978)"/>
                <path id="Rectangle_14831" d="M5.3 0h111.4a5.3 5.3 0 0 1 5.3 5.3v80.3H0V5.3A5.3 5.3 0 0 1 5.3 0z" class="cls-8" data-name="Rectangle 14831" transform="translate(1909.929 500.871)"/>
                <path id="Tracé_51606" d="M2002.892 536.6v22.8h29.117v-22.8zm16.034 13.083v1.545a1.666 1.666 0 0 1-3.328 0v-1.545a3.155 3.155 0 0 1-1.66-2.755 3.327 3.327 0 0 1 6.648 0 3.155 3.155 0 0 1-1.66 2.758z" class="cls-7" data-name="Tracé 51606"/>
                <path id="Ligne_1422" d="M0 0v85.961" class="cls-5" data-name="Ligne 1422" transform="translate(2002.803 501.071)"/>
                <path id="Ligne_1423" d="M0 0v85.961" class="cls-5" data-name="Ligne 1423" transform="translate(1973.686 501.071)"/>
                <path id="Ligne_1424" d="M0 0v85.961" class="cls-5" data-name="Ligne 1424" transform="translate(1944.569 501.071)"/>
            </g>
        </g>
        <g id="Groupe_14716" class="cls-9" data-name="Groupe 14716">
            <path id="Tracé_49200" d="M1918.727 462.723H1907.7a1.5 1.5 0 0 1 0-3h11.028a1.5 1.5 0 0 1 0 3z" class="cls-4" data-name="Tracé 49200"/>
            <path id="Tracé_49200-2" d="M1966.757 626.991h-11.028a1.5 1.5 0 0 1 0-3h11.028a1.5 1.5 0 0 1 0 3z" class="cls-4" data-name="Tracé 49200"/>
            <path id="Tracé_49200-3" d="M1905.235 612.513h-11.028a1.5 1.5 0 0 1 0-3h11.028a1.5 1.5 0 0 1 0 3z" class="cls-4" data-name="Tracé 49200"/>
            <path id="Tracé_49200-4" d="M1872.036 588.932h-11.028a1.5 1.5 0 0 1 0-3h11.028a1.5 1.5 0 0 1 0 3z" class="cls-4" data-name="Tracé 49200"/>
            <path id="Tracé_49200-5" d="M1977.671 483.373h-11.028a1.5 1.5 0 0 1 0-3h11.028a1.5 1.5 0 0 1 0 3z" class="cls-4" data-name="Tracé 49200"/>
            <path id="Tracé_49200-6" d="M2025.555 514.065h-11.028a1.5 1.5 0 0 1 0-3h11.028a1.5 1.5 0 1 1 0 3z" class="cls-4" data-name="Tracé 49200"/>
            <path id="Tracé_49200-7" d="M1896.626 484.873H1885.6a1.5 1.5 0 0 1 0-3h11.028a1.5 1.5 0 0 1 0 3z" class="cls-4" data-name="Tracé 49200"/>
            <path id="Tracé_49200-8" d="M2070.218 511.45h-11.028a1.5 1.5 0 0 1 0-3h11.028a1.5 1.5 0 0 1 0 3z" class="cls-4" data-name="Tracé 49200"/>
            <path id="Tracé_49200-9" d="M1952.076 656.237h-11.028a1.5 1.5 0 0 1 0-3h11.028a1.5 1.5 0 0 1 0 3z" class="cls-4" data-name="Tracé 49200"/>
            <path id="Tracé_49200-10" d="M1872.036 515.115h-11.028a1.5 1.5 0 0 1 0-3h11.028a1.5 1.5 0 0 1 0 3z" class="cls-4" data-name="Tracé 49200"/>
            <path id="Tracé_49200-11" d="M1979.632 457.246H1968.6a1.5 1.5 0 0 1 0-3h11.028a1.5 1.5 0 0 1 0 3z" class="cls-4" data-name="Tracé 49200"/>
            <path id="Tracé_49200-12" d="M2011.195 447.716h-11.029a1.5 1.5 0 0 1 0-3h11.029a1.5 1.5 0 0 1 0 3z" class="cls-4" data-name="Tracé 49200"/>
            <path id="Tracé_49200-13" d="M1884.217 556.489h-11.028a1.5 1.5 0 0 1 0-3h11.028a1.5 1.5 0 0 1 0 3z" class="cls-4" data-name="Tracé 49200"/>
            <path id="Tracé_49200-14" d="M2058.381 476.508h-11.028a1.5 1.5 0 0 1 0-3h11.028a1.5 1.5 0 0 1 0 3z" class="cls-4" data-name="Tracé 49200"/>
            <path id="Tracé_49200-15" d="M2079.423 537.224H2068.4a1.5 1.5 0 0 1 0-3h11.028a1.5 1.5 0 0 1 0 3z" class="cls-4" data-name="Tracé 49200"/>
            <path id="Tracé_49200-16" d="M2084.246 573.2h-11.028a1.5 1.5 0 0 1 0-3h11.028a1.5 1.5 0 0 1 0 3z" class="cls-4" data-name="Tracé 49200"/>
            <path id="Tracé_49200-17" d="M2005.7 646.947h-11.028a1.5 1.5 0 0 1 0-3h11.028a1.5 1.5 0 0 1 0 3z" class="cls-4" data-name="Tracé 49200"/>
            <path id="Tracé_49200-18" d="M2043.94 623.187h-11.028a1.5 1.5 0 0 1 0-3h11.028a1.5 1.5 0 0 1 0 3z" class="cls-4" data-name="Tracé 49200"/>
            <path id="Tracé_49200-19" d="M1927.088 513.615h-11.028a1.5 1.5 0 0 1 0-3h11.028a1.5 1.5 0 0 1 0 3z" class="cls-4" data-name="Tracé 49200"/>
            <circle id="Ellipse_3156" cx="2.477" cy="2.477" r="2.477" class="cls-4" data-name="Ellipse 3156" transform="translate(2010.218 480.142)"/>
            <circle id="Ellipse_3157" cx="2.477" cy="2.477" r="2.477" class="cls-4" data-name="Ellipse 3157" transform="translate(2055.214 550.91)"/>
            <circle id="Ellipse_3158" cx="2.477" cy="2.477" r="2.477" class="cls-4" data-name="Ellipse 3158" transform="translate(2005.681 615.234)"/>
            <circle id="Ellipse_3159" cx="2.477" cy="2.477" r="2.477" class="cls-4" data-name="Ellipse 3159" transform="translate(1915.274 539.028)"/>
            <circle id="Ellipse_3160" cx="2.477" cy="2.477" r="2.477" class="cls-4" data-name="Ellipse 3160" transform="translate(1919.097 623.014)"/>
            <circle id="Ellipse_3161" cx="2.477" cy="2.477" r="2.477" class="cls-4" data-name="Ellipse 3161" transform="translate(2013.45 573.505)"/>
            <circle id="Ellipse_3162" cx="2.477" cy="2.477" r="2.477" class="cls-4" data-name="Ellipse 3162" transform="translate(1979.449 504.474)"/>
            <circle id="Ellipse_3163" cx="2.477" cy="2.477" r="2.477" class="cls-4" data-name="Ellipse 3163" transform="translate(2064.419 596.836)"/>
            <circle id="Ellipse_3164" cx="2.477" cy="2.477" r="2.477" class="cls-4" data-name="Ellipse 3164" transform="translate(1883.241 530.089)"/>
            <circle id="Ellipse_3165" cx="2.477" cy="2.477" r="2.477" class="cls-4" data-name="Ellipse 3165" transform="translate(1934.789 476.548)"/>
            <circle id="Ellipse_3166" cx="2.477" cy="2.477" r="2.477" class="cls-4" data-name="Ellipse 3166" transform="translate(1944.085 439.763)"/>
            <circle id="Ellipse_3167" cx="2.477" cy="2.477" r="2.477" class="cls-4" data-name="Ellipse 3167" transform="translate(2025.605 457.246)"/>
        </g>
    </g>
</svg>
