<svg xmlns="http://www.w3.org/2000/svg" width="252" height="252" viewBox="0 0 252 252">
    <defs>
        <style>
            .cls-1,.cls-4,.cls-5{fill:#702963}.cls-1{opacity:.1}.cls-2{fill:none;stroke:#0054ff;stroke-miterlimit:10;stroke-width:3.5px}.cls-3{fill:#fff}.cls-4,.cls-7,.cls-8{opacity:.66}.cls-6,.cls-7{fill:#0054ff}.cls-9{opacity:.2}
        </style>
    </defs>
    <g id="Groupe_14678" data-name="Groupe 14678" transform="translate(-2529.18 -420.798)">
        <g id="Groupe_14676" data-name="Groupe 14676">
            <circle id="Ellipse_3098" cx="126" cy="126" r="126" class="cls-1" data-name="Ellipse 3098" transform="translate(2529.18 420.798)"/>
            <path id="Ligne_1414" d="M0 0v79.104" class="cls-2" data-name="Ligne 1414" transform="translate(2655.099 468.346)"/>
            <path id="Ligne_1415" d="M0 0l56.889 56.889" class="cls-2" data-name="Ligne 1415" transform="translate(2655.092 547.341)"/>
            <path id="Ligne_1416" d="M55.776 0L0 55.776" class="cls-2" data-name="Ligne 1416" transform="translate(2599.116 547.341)"/>
            <g id="Groupe_14658" data-name="Groupe 14658">
                <circle id="Ellipse_2689" cx="33.164" cy="33.164" r="33.164" class="cls-3" data-name="Ellipse 2689" transform="translate(2622.016 516.143)"/>
                <g id="Corps_rouge_100_" data-name="Corps rouge 100%">
                    <path id="Tracé_51199" d="M2656.407 548.736c-6.107 0-11.058 4.37-11.058 9.76v6.044a.652.652 0 0 0 .653.653h20.81a.653.653 0 0 0 .654-.653v-6.04c0-5.394-4.951-9.764-11.059-9.764z" class="cls-4" data-name="Tracé 51199"/>
                    <path id="Tracé_51200" d="M2658.19 530.77c-.174-.025-.347-.037-.52-.049a6.622 6.622 0 0 0 5.609 7.477c.175.025.348.037.521.049a6.623 6.623 0 0 0-5.61-7.477z" class="cls-4" data-name="Tracé 51200"/>
                    <path id="Tracé_51201" d="M2649.949 535.779c-.025.175-.037.348-.049.521a6.622 6.622 0 0 0 7.477-5.609c.026-.175.038-.348.049-.521a6.622 6.622 0 0 0-7.477 5.609z" class="cls-4" data-name="Tracé 51201"/>
                    <g id="Corps">
                        <path id="Tracé_51202" d="M2656.812 547.649c-6.666 0-12.09 4.841-12.09 10.791v6.044a1.687 1.687 0 0 0 1.685 1.685h20.81a1.687 1.687 0 0 0 1.685-1.685v-6.044c-.002-5.95-5.424-10.791-12.09-10.791zm10.027 16.457h-2.545v-6.191a.859.859 0 0 0-1.718 0v6.191h-11.528v-6.191a.859.859 0 0 0-1.719 0v6.191h-2.545v-5.666c0-4.813 4.5-8.729 10.028-8.729s10.027 3.916 10.027 8.729z" class="cls-5" data-name="Tracé 51202"/>
                        <g id="Tête">
                            <path id="Tracé_51203" d="M2662.415 539.4l-.165-.048a8 8 0 0 1-.606-.208l-.024-.01a7.925 7.925 0 0 1-.563-.254l-.145-.073c-.188-.1-.372-.2-.55-.312l-.025-.017a8.385 8.385 0 0 1-.5-.345l-.125-.095a9.327 9.327 0 0 1-.48-.4l-.028-.027a7.943 7.943 0 0 1-.419-.422l-.1-.115a8.424 8.424 0 0 1-.4-.481l-.029-.04a8.073 8.073 0 0 1-.414-.616 7.493 7.493 0 0 1-.306-.547l-.027-.057a7.86 7.86 0 0 1-.235-.529l-.059-.15c-.019-.05-.034-.081-.049-.123-.114.14-.234.274-.357.4l-.081.086a8.378 8.378 0 0 1-.44.424l-.06.05c-.148.13-.3.253-.459.371l-.058.045a7.86 7.86 0 0 1-.507.34l-.1.064c-.173.1-.349.2-.53.292l-.095.045c-.187.09-.376.175-.57.25l-.017.007c-.2.076-.4.142-.6.2l-.107.032c-.2.055-.4.1-.6.142-.038.008-.077.014-.115.021-.21.038-.423.069-.638.09h-.05c-.117.011-.235.02-.354.025a5.8 5.8 0 0 0 11.155 2.023c-.065-.006-.116-.024-.168-.038z" class="cls-3" data-name="Tracé 51203"/>
                            <path id="Tracé_51204" d="M2653.9 536.9z" class="cls-5" data-name="Tracé 51204"/>
                            <path id="Tracé_51205" d="M2659.559 534.779a7.477 7.477 0 0 1-.148-.264c.047.085.097.177.148.264z" class="cls-5" data-name="Tracé 51205"/>
                            <path id="Tracé_51206" d="M2652.572 537.283z" class="cls-5" data-name="Tracé 51206"/>
                            <path id="Tracé_51207" d="M2655.2 536.249z" class="cls-5" data-name="Tracé 51207"/>
                            <path id="Tracé_51208" d="M2653.283 537.109z" class="cls-5" data-name="Tracé 51208"/>
                            <path id="Tracé_51209" d="M2654.569 536.6c.181-.091.357-.188.53-.292a5.089 5.089 0 0 1-.53.292z" class="cls-5" data-name="Tracé 51209"/>
                            <path id="Tracé_51210" d="M2655.769 535.864z" class="cls-5" data-name="Tracé 51210"/>
                            <path id="Tracé_51211" d="M2657.17 534.518a7.555 7.555 0 0 1-.361.415c.123-.131.243-.265.357-.4.015.042.033.082.049.123-.015-.048-.029-.094-.045-.138z" class="cls-5" data-name="Tracé 51211"/>
                            <path id="Tracé_51212" d="M2660.6 536.086c-.1-.094-.2-.192-.291-.293.097.101.191.199.291.293z" class="cls-5" data-name="Tracé 51212"/>
                            <path id="Tracé_51213" d="M2660.255 535.735z" class="cls-5" data-name="Tracé 51213"/>
                            <path id="Tracé_51214" d="M2659.848 535.224z" class="cls-5" data-name="Tracé 51214"/>
                            <path id="Tracé_51215" d="M2656.728 535.019z" class="cls-5" data-name="Tracé 51215"/>
                            <path id="Tracé_51216" d="M2659.207 537.608z" class="cls-5" data-name="Tracé 51216"/>
                            <path id="Tracé_51217" d="M2659.321 534.329z" class="cls-5" data-name="Tracé 51217"/>
                            <path id="Tracé_51218" d="M2657.274 534.8z" class="cls-5" data-name="Tracé 51218"/>
                            <path id="Tracé_51219" d="M2657.536 535.387z" class="cls-5" data-name="Tracé 51219"/>
                            <path id="Tracé_51220" d="M2657.925 536.067z" class="cls-5" data-name="Tracé 51220"/>
                            <path id="Tracé_51221" d="M2658.855 532.877c-.021-.113-.035-.228-.049-.343.014.115.028.23.049.343z" class="cls-5" data-name="Tracé 51221"/>
                            <path id="Tracé_51222" d="M2658.285 536.59z" class="cls-5" data-name="Tracé 51222"/>
                            <path id="Tracé_51223" d="M2658.764 531.625v.21c0-.069.008-.138.011-.207z" class="cls-5" data-name="Tracé 51223"/>
                            <path id="Tracé_51224" d="M2658.785 532.363z" class="cls-5" data-name="Tracé 51224"/>
                            <path id="Tracé_51225" d="M2661.057 538.88z" class="cls-5" data-name="Tracé 51225"/>
                            <path id="Tracé_51226" d="M2651.819 537.394z" class="cls-5" data-name="Tracé 51226"/>
                            <path id="Tracé_51227" d="M2659.235 537.635z" class="cls-5" data-name="Tracé 51227"/>
                            <path id="Tracé_51228" d="M2659.124 533.861c-.035-.093-.066-.187-.1-.282.034.095.065.189.1.282z" class="cls-5" data-name="Tracé 51228"/>
                            <path id="Tracé_51229" d="M2660.362 538.495z" class="cls-5" data-name="Tracé 51229"/>
                            <path id="Tracé_51230" d="M2659.84 538.133z" class="cls-5" data-name="Tracé 51230"/>
                            <path id="Tracé_51231" d="M2662.289 537.174z" class="cls-5" data-name="Tracé 51231"/>
                            <path id="Tracé_51232" d="M2654.068 534.53q-.2.123-.417.229.213-.107.417-.229z" class="cls-5" data-name="Tracé 51232"/>
                            <path id="Tracé_51233" d="M2654.46 534.268z" class="cls-5" data-name="Tracé 51233"/>
                            <path id="Tracé_51234" d="M2654.839 533.968z" class="cls-5" data-name="Tracé 51234"/>
                            <path id="Tracé_51235" d="M2655.237 533.595z" class="cls-5" data-name="Tracé 51235"/>
                            <path id="Tracé_51236" d="M2661.824 536.953c-.089-.047-.176-.1-.263-.149.087.052.174.102.263.149z" class="cls-5" data-name="Tracé 51236"/>
                            <path id="Tracé_51237" d="M2653.549 534.807z" class="cls-5" data-name="Tracé 51237"/>
                            <path id="Tracé_51238" d="M2653.075 535.007z" class="cls-5" data-name="Tracé 51238"/>
                            <path id="Tracé_51239" d="M2662.955 537.411l.056.017z" class="cls-5" data-name="Tracé 51239"/>
                            <path id="Tracé_51240" d="M2651.731 535.33a5.754 5.754 0 0 0 .882-.173 5.72 5.72 0 0 1-.88.168z" class="cls-5" data-name="Tracé 51240"/>
                            <path id="Tracé_51241" d="M2662.787 537.357z" class="cls-5" data-name="Tracé 51241"/>
                            <path id="Tracé_51242" d="M2655.595 533.191z" class="cls-5" data-name="Tracé 51242"/>
                            <path id="Tracé_51243" d="M2655.875 532.809c-.067.1-.137.2-.21.289.073-.098.143-.19.21-.289z" class="cls-5" data-name="Tracé 51243"/>
                            <path id="Tracé_51244" d="M2661.389 536.7a6.19 6.19 0 0 1-.25-.174c.082.058.161.116.25.174z" class="cls-5" data-name="Tracé 51244"/>
                            <path id="Tracé_51245" d="M2656.134 532.387z" class="cls-5" data-name="Tracé 51245"/>
                            <path id="Tracé_51246" d="M2656.407 531.836z" class="cls-5" data-name="Tracé 51246"/>
                            <path id="Tracé_51247" d="M2658.968 533.377z" class="cls-5" data-name="Tracé 51247"/>
                            <path id="Tracé_51248" d="M2660.982 536.408z" class="cls-5" data-name="Tracé 51248"/>
                            <path id="Tracé_51249" d="M2656.416 531.814c.049-.118.1-.238.138-.36-.046.122-.089.246-.138.36z" class="cls-5" data-name="Tracé 51249"/>
                            <path id="Tracé_51250" d="M2657.215 534.651l.059.15-.059-.15z" class="cls-5" data-name="Tracé 51250"/>
                            <path id="Tracé_51251" d="M2658.683 537.071l.1.115z" class="cls-5" data-name="Tracé 51251"/>
                            <path id="Tracé_51252" d="M2658.806 532.534c-.007-.058-.016-.114-.021-.171.005.057.015.113.021.171z" class="cls-5" data-name="Tracé 51252"/>
                            <path id="Tracé_51253" d="M2659.715 538.038l.125.095z" class="cls-5" data-name="Tracé 51253"/>
                            <path id="Tracé_51254" d="M2660.735 536.2c-.044-.038-.089-.075-.132-.115.043.041.088.078.132.115z" class="cls-5" data-name="Tracé 51254"/>
                            <path id="Tracé_51255" d="M2658.9 533.075c-.014-.066-.03-.131-.041-.2.008.069.023.134.041.2z" class="cls-5" data-name="Tracé 51255"/>
                            <path id="Tracé_51256" d="M2660.312 535.793c-.019-.02-.039-.038-.057-.058.018.02.038.038.057.058z" class="cls-5" data-name="Tracé 51256"/>
                            <path id="Tracé_51257" d="M2657.509 535.33l.027.057-.027-.057z" class="cls-5" data-name="Tracé 51257"/>
                            <path id="Tracé_51258" d="M2662.955 537.411l-.168-.054.168.054z" class="cls-5" data-name="Tracé 51258"/>
                            <path id="Tracé_51259" d="M2657.842 535.934l.083.133c-.025-.044-.056-.088-.083-.133z" class="cls-5" data-name="Tracé 51259"/>
                            <path id="Tracé_51260" d="M2658.256 536.55l.029.04z" class="cls-5" data-name="Tracé 51260"/>
                            <path id="Tracé_51261" d="M2661.139 536.524c-.053-.038-.106-.076-.157-.116.051.04.104.078.157.116z" class="cls-5" data-name="Tracé 51261"/>
                            <path id="Tracé_51262" d="M2659.2 534.059a3.949 3.949 0 0 1-.077-.2c.025.069.051.134.077.2z" class="cls-5" data-name="Tracé 51262"/>
                            <path id="Tracé_51263" d="M2662 537.046z" class="cls-5" data-name="Tracé 51263"/>
                            <path id="Tracé_51264" d="M2661.561 536.8c-.058-.034-.115-.07-.172-.106.057.041.111.076.172.106z" class="cls-5" data-name="Tracé 51264"/>
                            <path id="Tracé_51265" d="M2659.659 534.948c-.035-.055-.067-.112-.1-.169.033.057.065.114.1.169z" class="cls-5" data-name="Tracé 51265"/>
                            <path id="Tracé_51266" d="M2659.411 534.515z" class="cls-5" data-name="Tracé 51266"/>
                            <path id="Tracé_51267" d="M2659.235 537.635l-.028-.027z" class="cls-5" data-name="Tracé 51267"/>
                            <path id="Tracé_51268" d="M2660.912 538.807l.145.073z" class="cls-5" data-name="Tracé 51268"/>
                            <path id="Tracé_51269" d="M2662.47 537.248c-.061-.023-.121-.049-.181-.074.06.026.12.051.181.074z" class="cls-5" data-name="Tracé 51269"/>
                            <path id="Tracé_51270" d="M2659.028 533.579z" class="cls-5" data-name="Tracé 51270"/>
                            <path id="Tracé_51271" d="M2660.337 538.478l.025.017z" class="cls-5" data-name="Tracé 51271"/>
                            <path id="Tracé_51272" d="M2659.941 535.356c-.033-.043-.062-.088-.093-.132.031.044.06.089.093.132z" class="cls-5" data-name="Tracé 51272"/>
                            <path id="Tracé_51273" d="M2657.981 529.393l-.077-.005h.038l.067.006z" class="cls-5" data-name="Tracé 51273"/>
                            <path id="Tracé_51274" d="M2653.651 534.759l-.1.048.1-.048z" class="cls-5" data-name="Tracé 51274"/>
                            <path id="Tracé_51275" d="M2654.573 534.183c-.038.029-.075.058-.113.085.04-.027.075-.056.113-.085z" class="cls-5" data-name="Tracé 51275"/>
                            <path id="Tracé_51276" d="M2655.284 533.549l-.047.046.047-.046z" class="cls-5" data-name="Tracé 51276"/>
                            <path id="Tracé_51277" d="M2654.946 533.876a3.061 3.061 0 0 1-.107.092c.036-.03.072-.06.107-.092z" class="cls-5" data-name="Tracé 51277"/>
                            <path id="Tracé_51278" d="M2655.665 533.1c-.024.031-.046.063-.07.093.024-.032.046-.064.07-.093z" class="cls-5" data-name="Tracé 51278"/>
                            <path id="Tracé_51279" d="M2656.2 532.265c-.021.041-.045.081-.067.122.023-.041.047-.08.067-.122z" class="cls-5" data-name="Tracé 51279"/>
                            <path id="Tracé_51280" d="M2655.958 532.682l-.083.127z" class="cls-5" data-name="Tracé 51280"/>
                            <path id="Tracé_51281" d="M2654.127 534.492l-.059.038z" class="cls-5" data-name="Tracé 51281"/>
                            <path id="Tracé_51282" d="M2656.416 531.814l-.009.022z" class="cls-5" data-name="Tracé 51282"/>
                            <path id="Tracé_51283" d="M2652.744 535.117c-.044.013-.087.028-.131.04.044-.012.087-.027.131-.04z" class="cls-5" data-name="Tracé 51283"/>
                            <path id="Tracé_51284" d="M2653.215 534.953l-.14.054z" class="cls-5" data-name="Tracé 51284"/>
                            <path id="Tracé_51285" d="M2655.1 536.313l.1-.064z" class="cls-5" data-name="Tracé 51285"/>
                            <path id="Tracé_51286" d="M2654.474 536.65l.095-.045z" class="cls-5" data-name="Tracé 51286"/>
                            <path id="Tracé_51287" d="M2651.769 537.4h.05z" class="cls-5" data-name="Tracé 51287"/>
                            <path id="Tracé_51288" d="M2652.457 537.3c.038-.007.077-.013.115-.021a.36.36 0 0 1-.115.021z" class="cls-5" data-name="Tracé 51288"/>
                            <path id="Tracé_51289" d="M2655.711 535.909l.058-.045z" class="cls-5" data-name="Tracé 51289"/>
                            <path id="Tracé_51290" d="M2653.176 537.141l.107-.032z" class="cls-5" data-name="Tracé 51290"/>
                            <path id="Tracé_51291" d="M2653.887 536.907l.017-.007z" class="cls-5" data-name="Tracé 51291"/>
                            <path id="Tracé_51292" d="M2656.228 535.493l.06-.05z" class="cls-5" data-name="Tracé 51292"/>
                            <path id="Tracé_51293" d="M2656.809 534.933l-.081.086z" class="cls-5" data-name="Tracé 51293"/>
                            <path id="Tracé_51294" d="M2657.493 529.362l.411.026a7.889 7.889 0 0 0-.411-.026z" class="cls-5" data-name="Tracé 51294"/>
                            <path id="Tracé_51295" d="M2659.079 529.586l-.087-.021a7.926 7.926 0 0 0-.983-.168l-.067-.006h-.038l-.411-.026c-.095 0-.19-.008-.28-.008-.056 0-.11.007-.166.008l-.108.005a7.863 7.863 0 0 0-7.329 5.888 7.994 7.994 0 0 0-.194.984 7.824 7.824 0 0 0-.066.976v.084a7.87 7.87 0 0 0 15.555 1.547 7.939 7.939 0 0 0 .153-1.136c.011-.164.018-.329.018-.493a7.822 7.822 0 0 0-5.997-7.634zm3.936 7.632v.206c-.019-.005-.037-.012-.056-.018-.057-.016-.112-.035-.168-.053a5.634 5.634 0 0 1-.317-.109c-.061-.023-.121-.049-.181-.074a4.96 4.96 0 0 1-.465-.221c-.089-.047-.176-.1-.262-.148a7.25 7.25 0 0 1-.173-.107 6.19 6.19 0 0 1-.25-.174c-.053-.038-.106-.076-.157-.116a5.41 5.41 0 0 1-.247-.207c-.044-.038-.089-.075-.132-.115-.1-.094-.2-.192-.291-.293-.019-.02-.039-.038-.057-.058a5.632 5.632 0 0 1-.314-.379c-.032-.043-.061-.088-.093-.131a5.872 5.872 0 0 1-.189-.277c-.035-.055-.067-.112-.1-.169a7.477 7.477 0 0 1-.148-.264 6.366 6.366 0 0 1-.287-.656c-.035-.092-.066-.187-.1-.282a8.925 8.925 0 0 1-.06-.2c-.027-.1-.05-.2-.072-.3-.014-.065-.029-.13-.041-.2a5.475 5.475 0 0 1-.049-.344c-.007-.057-.016-.113-.021-.171a5.724 5.724 0 0 1-.025-.527v-.209h.007a5.773 5.773 0 0 1 4.248 5.596zm-6.465-5.763a6.22 6.22 0 0 1-.138.36l-.009.022a5.652 5.652 0 0 1-.206.43c-.021.04-.045.08-.067.121a5.1 5.1 0 0 1-.176.295l-.083.127c-.067.1-.137.2-.21.29l-.07.092c-.1.124-.2.243-.311.357-.015.017-.031.031-.047.047-.094.1-.191.191-.291.281l-.107.092a4.995 4.995 0 0 1-.266.215c-.038.029-.075.058-.113.085q-.162.118-.333.223c-.02.013-.039.027-.059.039q-.2.123-.417.229c-.034.017-.068.031-.1.048-.109.052-.22.1-.334.146-.046.019-.093.036-.14.054-.109.04-.219.076-.331.11-.043.013-.087.028-.131.04a5.754 5.754 0 0 1-.882.173v-.005a5.809 5.809 0 0 1 4.821-3.871zm.663 11.566a5.809 5.809 0 0 1-5.8-5.6c.119-.005.237-.015.354-.025h.05c.215-.02.428-.051.638-.089.038-.007.077-.013.115-.021.2-.04.406-.087.6-.143.036-.009.071-.02.107-.031.2-.06.406-.126.6-.2l.017-.007c.194-.075.383-.16.57-.25l.095-.045c.181-.091.357-.188.53-.291l.1-.065a7.86 7.86 0 0 0 .507-.34l.058-.045c.158-.118.311-.241.459-.371l.06-.05c.152-.135.3-.278.44-.425l.081-.085c.125-.134.245-.273.361-.415.016.044.028.089.045.133l.059.15c.073.18.15.356.235.529l.027.057a9.11 9.11 0 0 0 .389.68c.1.165.215.327.331.483l.029.04c.125.166.26.326.4.482l.1.114c.135.146.274.287.419.422l.028.027c.154.141.315.274.48.4l.125.095c.161.121.326.237.5.345l.025.017c.178.112.362.214.55.311l.145.074c.184.091.371.177.563.253l.024.011c.2.078.4.146.606.208l.165.048c.052.015.1.032.155.045a5.833 5.833 0 0 1-5.342 3.574z" class="cls-5" data-name="Tracé 51295"/>
                        </g>
                    </g>
                </g>
            </g>
            <g id="Groupe_14661" data-name="Groupe 14661">
                <circle id="Ellipse_3099" cx="27.537" cy="27.537" r="27.537" class="cls-3" data-name="Ellipse 3099" transform="translate(2571.579 575.58)"/>
                <g id="Groupe_14660" data-name="Groupe 14660">
                    <g id="Groupe_14659" data-name="Groupe 14659">
                        <path id="Tracé_51296" d="M2604.771 589.568h-11.328a1.873 1.873 0 0 0-1.86 1.879v23.359a1.858 1.858 0 0 0 1.86 1.861h11.328a1.862 1.862 0 0 0 1.878-1.861v-23.359a1.877 1.877 0 0 0-1.878-1.879zm-5.655 25.924a1.653 1.653 0 1 1 1.662-1.662 1.657 1.657 0 0 1-1.662 1.662zm5.872-4.426h-11.743v-19.619a.218.218 0 0 1 .2-.217h11.328a.22.22 0 0 1 .217.217z" class="cls-6" data-name="Tracé 51296"/>
                        <path id="Tracé_51297" d="M2604.771 589.568h-11.328a1.873 1.873 0 0 0-1.86 1.879v23.359a1.858 1.858 0 0 0 1.86 1.861h11.328a1.862 1.862 0 0 0 1.878-1.861v-23.359a1.877 1.877 0 0 0-1.878-1.879zm-5.655 25.924a1.653 1.653 0 1 1 1.662-1.662 1.657 1.657 0 0 1-1.662 1.662zm5.872-4.426h-11.743v-19.619a.218.218 0 0 1 .2-.217h11.328a.22.22 0 0 1 .217.217z" class="cls-7" data-name="Tracé 51297"/>
                        <path id="Tracé_51298" d="M2600.778 613.83a1.662 1.662 0 1 1-1.662-1.644 1.657 1.657 0 0 1 1.662 1.644z" class="cls-7" data-name="Tracé 51298"/>
                    </g>
                </g>
            </g>
            <g id="Groupe_14664" data-name="Groupe 14664">
                <circle id="Ellipse_3100" cx="27.537" cy="27.537" r="27.537" class="cls-3" data-name="Ellipse 3100" transform="translate(2684.444 575.58)"/>
                <g id="Groupe_14663" data-name="Groupe 14663">
                    <g id="Groupe_14662" data-name="Groupe 14662">
                        <path id="Tracé_51299" d="M2697.478 606.839v-3.93a1.51 1.51 0 0 1-1.088-1.448v-8.825a1.51 1.51 0 0 1 1.507-1.508h16.978a1.51 1.51 0 0 1 1.507 1.508v5.264h-9.508a.723.723 0 0 0-.721.721v4.345h-3.466zm.419-14.872a.669.669 0 0 0-.668.669v8.825a.669.669 0 0 0 .668.669h.42v3.041l4.093-3.041h2.9v-3.507a1.561 1.561 0 0 1 1.56-1.559h8.67v-4.428a.67.67 0 0 0-.669-.669z" class="cls-6" data-name="Tracé 51299"/>
                        <path id="Tracé_51300" d="M2726.509 615.106l-5.1-3.792H2709.5a1.485 1.485 0 0 1-1.483-1.484v-8.624a1.484 1.484 0 0 1 1.483-1.483h16.593a1.484 1.484 0 0 1 1.482 1.483v8.624a1.485 1.485 0 0 1-1.063 1.423zm-17.009-14.544a.645.645 0 0 0-.644.644v8.624a.645.645 0 0 0 .644.645h12.185l3.988 2.963v-2.963h.42a.645.645 0 0 0 .643-.645v-8.624a.644.644 0 0 0-.643-.644z" class="cls-6" data-name="Tracé 51300"/>
                        <path id="Tracé_51301" d="M2715.963 597.483v-4.847a1.088 1.088 0 0 0-1.088-1.088H2697.9a1.088 1.088 0 0 0-1.087 1.088v8.825a1.088 1.088 0 0 0 1.087 1.088v3.456l4.651-3.456h3.186v-3.926a1.14 1.14 0 0 1 1.14-1.14z" class="cls-7" data-name="Tracé 51301"/>
                        <path id="Tracé_51302" d="M2727.152 601.206v8.624a1.062 1.062 0 0 1-1.062 1.064v3.378l-4.546-3.378H2709.5a1.063 1.063 0 0 1-1.063-1.064v-8.624a1.062 1.062 0 0 1 1.063-1.063h16.593a1.062 1.062 0 0 1 1.059 1.063z" class="cls-7" data-name="Tracé 51302"/>
                    </g>
                </g>
            </g>
            <g id="Groupe_14675" data-name="Groupe 14675">
                <circle id="Ellipse_3101" cx="27.537" cy="27.537" r="27.537" class="cls-3" data-name="Ellipse 3101" transform="translate(2627.562 440.371)"/>
                <g id="Groupe_14674" data-name="Groupe 14674">
                    <g id="Groupe_14673" data-name="Groupe 14673">
                        <g id="Groupe_14670" data-name="Groupe 14670">
                            <g id="Groupe_14666" data-name="Groupe 14666">
                                <g id="Groupe_14665" class="cls-8" data-name="Groupe 14665">
                                    <path id="Tracé_51303" d="M2653.251 469.072a5.263 5.263 0 0 1-.24 1.518 5 5 0 1 1-4.762-6.52 4.939 4.939 0 0 1 2.944.961 5.194 5.194 0 0 1 1.007.977 5.01 5.01 0 0 1 1.051 3.064z" class="cls-6" data-name="Tracé 51303"/>
                                </g>
                            </g>
                            <g id="Groupe_14669" data-name="Groupe 14669">
                                <g id="Groupe_14667" data-name="Groupe 14667">
                                    <path id="Tracé_51304" d="M2663.572 470.74a5.652 5.652 0 0 0-4.252 1.923l-3.966-1.893a8.067 8.067 0 0 0 .2-1.7 7.427 7.427 0 0 0-1.216-4.041l3.109-3.184a4.316 4.316 0 0 0 1.638.33 4.244 4.244 0 1 0-4.251-4.251 4.177 4.177 0 0 0 .39 1.758l-3.11 3.2a7.13 7.13 0 0 0-3.86-1.111 7.3 7.3 0 1 0 0 14.6 7.235 7.235 0 0 0 5.753-2.824l3.966 1.908a5.245 5.245 0 0 0-.075.976 5.686 5.686 0 1 0 5.679-5.693zm-4.492-15.127a2.313 2.313 0 0 1 0 4.626 2.248 2.248 0 0 1-1.127-.285 2.491 2.491 0 0 1-.871-.856 2.251 2.251 0 0 1-.316-1.172 2.314 2.314 0 0 1 2.314-2.313zm-6.069 14.977a5 5 0 1 1-4.762-6.52 4.939 4.939 0 0 1 2.944.961 5.194 5.194 0 0 1 1.007.977 5.01 5.01 0 0 1 1.051 3.064 5.263 5.263 0 0 1-.24 1.518zm10.561 9.434a3.6 3.6 0 0 1-3.591-3.591 3.915 3.915 0 0 1 .12-.931 3.66 3.66 0 0 1 .586-1.187 3.552 3.552 0 0 1 2.885-1.472 3.59 3.59 0 0 1 0 7.181z" class="cls-6" data-name="Tracé 51304"/>
                                </g>
                                <g id="Groupe_14668" class="cls-8" data-name="Groupe 14668">
                                    <path id="Tracé_51305" d="M2662.139 457.93a3.06 3.06 0 0 1-5.693 1.563 3.006 3.006 0 0 1-.432-1.563 3.063 3.063 0 0 1 6.125 0z" class="cls-6" data-name="Tracé 51305"/>
                                    <path id="Tracé_51306" d="M2659.08 454.11a3.822 3.822 0 0 0-3.816 3.816 3.713 3.713 0 0 0 .541 1.953.916.916 0 0 0 .1.15 3.129 3.129 0 0 0 .481.6l.06.06a2.672 2.672 0 0 0 .616.466.626.626 0 0 0 .165.1 3.774 3.774 0 0 0 1.848.481 3.816 3.816 0 0 0 0-7.632zm0 1.5a2.313 2.313 0 0 1 0 4.626 2.248 2.248 0 0 1-1.127-.285 2.491 2.491 0 0 1-.871-.856 2.251 2.251 0 0 1-.316-1.172 2.314 2.314 0 0 1 2.314-2.31z" class="cls-6" data-name="Tracé 51306"/>
                                </g>
                            </g>
                        </g>
                        <g id="Groupe_14672" data-name="Groupe 14672">
                            <g id="Groupe_14671" class="cls-8" data-name="Groupe 14671">
                                <path id="Tracé_51307" d="M2667.916 476.433a4.339 4.339 0 1 1-8.531-1.127 4.349 4.349 0 0 1 4.194-3.211 4.341 4.341 0 0 1 4.337 4.338z" class="cls-6" data-name="Tracé 51307"/>
                                <path id="Tracé_51308" d="M2663.572 471.341a5.094 5.094 0 0 0-4.087 2.073l-.09.135a4.468 4.468 0 0 0-.39.631l-.045.09a3.913 3.913 0 0 0-.256.706l-.045.135a4.94 4.94 0 0 0-.18 1.322 5.093 5.093 0 1 0 5.093-5.092zm-3.472 4.159a3.66 3.66 0 0 1 .586-1.187 3.552 3.552 0 0 1 2.885-1.472 3.59 3.59 0 1 1-3.591 3.59 3.915 3.915 0 0 1 .12-.931z" class="cls-6" data-name="Tracé 51308"/>
                            </g>
                        </g>
                    </g>
                </g>
            </g>
        </g>
        <g id="Groupe_14677" class="cls-9" data-name="Groupe 14677">
            <path id="Tracé_49200" d="M2752.046 529.792h-11.028a1.5 1.5 0 0 1 0-3h11.028a1.5 1.5 0 0 1 0 3z" class="cls-5" data-name="Tracé 49200"/>
            <path id="Tracé_49200-2" d="M2733.086 565.571h-11.028a1.5 1.5 0 0 1 0-3h11.028a1.5 1.5 0 0 1 0 3z" class="cls-5" data-name="Tracé 49200"/>
            <path id="Tracé_49200-3" d="M2622.612 490.866h-11.028a1.5 1.5 0 0 1 0-3h11.028a1.5 1.5 0 0 1 0 3z" class="cls-5" data-name="Tracé 49200"/>
            <path id="Tracé_49200-4" d="M2593.572 473.6h-11.028a1.5 1.5 0 0 1 0-3h11.028a1.5 1.5 0 0 1 0 3z" class="cls-5" data-name="Tracé 49200"/>
            <path id="Tracé_49200-5" d="M2704.288 481.5h-11.028a1.5 1.5 0 0 1 0-3h11.028a1.5 1.5 0 0 1 0 3z" class="cls-5" data-name="Tracé 49200"/>
            <path id="Tracé_49200-6" d="M2614.186 523.908h-11.028a1.5 1.5 0 0 1 0-3h11.028a1.5 1.5 0 0 1 0 3z" class="cls-5" data-name="Tracé 49200"/>
            <path id="Tracé_49200-7" d="M2725.015 463.242h-11.028a1.5 1.5 0 0 1 0-3h11.028a1.5 1.5 0 0 1 0 3z" class="cls-5" data-name="Tracé 49200"/>
            <path id="Tracé_49200-8" d="M2622.612 448.024h-11.028a1.5 1.5 0 0 1 0-3h11.028a1.5 1.5 0 0 1 0 3z" class="cls-5" data-name="Tracé 49200"/>
            <path id="Tracé_49200-9" d="M2652.3 661.5h-11.03a1.5 1.5 0 0 1 0-3h11.03a1.5 1.5 0 0 1 0 3z" class="cls-5" data-name="Tracé 49200"/>
            <path id="Tracé_49200-10" d="M2607.172 646.912h-11.028a1.5 1.5 0 0 1 0-3h11.028a1.5 1.5 0 0 1 0 3z" class="cls-5" data-name="Tracé 49200"/>
            <path id="Tracé_49200-11" d="M2748.175 490.866h-11.028a1.5 1.5 0 0 1 0-3h11.028a1.5 1.5 0 0 1 0 3z" class="cls-5" data-name="Tracé 49200"/>
            <path id="Tracé_49200-12" d="M2688.15 511.019h-11.028a1.5 1.5 0 0 1 0-3h11.028a1.5 1.5 0 0 1 0 3z" class="cls-5" data-name="Tracé 49200"/>
            <path id="Tracé_49200-13" d="M2572.53 533.551h-11.03a1.5 1.5 0 0 1 0-3h11.028a1.5 1.5 0 0 1 0 3z" class="cls-5" data-name="Tracé 49200"/>
            <path id="Tracé_49200-14" d="M2679.342 632.5h-11.028a1.5 1.5 0 0 1 0-3h11.028a1.5 1.5 0 0 1 0 3z" class="cls-5" data-name="Tracé 49200"/>
            <path id="Tracé_49200-15" d="M2582.021 570.737h-11.028a1.5 1.5 0 0 1 0-3h11.028a1.5 1.5 0 0 1 0 3z" class="cls-5" data-name="Tracé 49200"/>
            <circle id="Ellipse_3102" cx="2.477" cy="2.477" r="2.477" class="cls-5" data-name="Ellipse 3102" transform="translate(2590.768 540.544)"/>
            <circle id="Ellipse_3103" cx="2.477" cy="2.477" r="2.477" class="cls-5" data-name="Ellipse 3103" transform="translate(2571.553 499.239)"/>
            <circle id="Ellipse_3104" cx="2.477" cy="2.477" r="2.477" class="cls-5" data-name="Ellipse 3104" transform="translate(2711.951 535.656)"/>
            <circle id="Ellipse_3105" cx="2.477" cy="2.477" r="2.477" class="cls-5" data-name="Ellipse 3105" transform="translate(2664.338 598.086)"/>
            <circle id="Ellipse_3106" cx="2.477" cy="2.477" r="2.477" class="cls-5" data-name="Ellipse 3106" transform="translate(2694.752 638.781)"/>
            <circle id="Ellipse_3107" cx="2.477" cy="2.477" r="2.477" class="cls-5" data-name="Ellipse 3107" transform="translate(2634.817 624.549)"/>
            <circle id="Ellipse_3108" cx="2.477" cy="2.477" r="2.477" class="cls-5" data-name="Ellipse 3108" transform="translate(2555.049 603.529)"/>
            <circle id="Ellipse_3109" cx="2.477" cy="2.477" r="2.477" class="cls-5" data-name="Ellipse 3109" transform="translate(2543.751 561.595)"/>
            <circle id="Ellipse_3110" cx="2.477" cy="2.477" r="2.477" class="cls-5" data-name="Ellipse 3110" transform="translate(2751.069 589.071)"/>
            <circle id="Ellipse_3111" cx="2.477" cy="2.477" r="2.477" class="cls-5" data-name="Ellipse 3111" transform="translate(2763.131 551.337)"/>
            <circle id="Ellipse_3112" cx="2.477" cy="2.477" r="2.477" class="cls-5" data-name="Ellipse 3112" transform="translate(2717.025 505.421)"/>
            <circle id="Ellipse_3113" cx="2.477" cy="2.477" r="2.477" class="cls-5" data-name="Ellipse 3113" transform="translate(2693.914 440.371)"/>
            <circle id="Ellipse_3114" cx="2.477" cy="2.477" r="2.477" class="cls-5" data-name="Ellipse 3114" transform="translate(2651.83 526.792)"/>
        </g>
    </g>
</svg>
