<svg xmlns="http://www.w3.org/2000/svg" width="95.08" height="115.83" viewBox="0 0 95.08 115.83">
    <defs>
        <style>
            .cls-1{fill:#702963;opacity:.1}
        </style>
    </defs>
    <path id="Tracé_11021" d="M572.356 3312.829L571 3302.488a27.632 27.632 0 0 1 21.215-22.1l29.243-6.486a27.632 27.632 0 0 1 32.233 18.35l2.441 7.431a27.684 27.684 0 0 1 .745 2.731l4.207 19.271a27.629 27.629 0 0 1-8.623 26.532l-28.544 25.408q-.87.774-1.8 1.474l-11.28 8.452a27.63 27.63 0 0 1-39.908-7.325 27.618 27.618 0 0 1-4.285-14.265s2.267-9.979 4.338-19.162a85.653 85.653 0 0 0 1.374-29.97z" class="cls-1" data-name="Tracé 11021" transform="translate(-566.643 -3273.237)"/>
</svg>
