<svg id="Calque_1" data-name="Calque 1" xmlns="http://www.w3.org/2000/svg" viewBox="0 0 252 252"><defs><style>.cls-1,.cls-5{fill:none;stroke:#ea5621;stroke-miterlimit:10;}.cls-1{stroke-width:3.5px;}.cls-2,.cls-3{fill:#ea5621;}.cls-2{opacity:0.33;}.cls-4,.cls-7{fill:#702963;}.cls-4{opacity:0.1;}.cls-5{stroke-width:4px;}.cls-6{opacity:0.2;}</style></defs><path class="cls-1" d="M56,164.77H196.48a0,0,0,0,1,0,0v9.29a8.13,8.13,0,0,1-8.13,8.13H64.11A8.13,8.13,0,0,1,56,174.06v-9.29A0,0,0,0,1,56,164.77Z"/><path class="cls-2" d="M56.85,164.77H197.34a0,0,0,0,1,0,0V174a8.2,8.2,0,0,1-8.2,8.2H65a8.2,8.2,0,0,1-8.2-8.2v-9.22A0,0,0,0,1,56.85,164.77Z"/><path class="cls-3" d="M108.53,166h35.4a0,0,0,0,1,0,0v4.94a3.77,3.77,0,0,1-3.77,3.77H112.3a3.77,3.77,0,0,1-3.77-3.77V166a0,0,0,0,1,0,0Z"/><path class="cls-4" d="M126.66,0a126,126,0,1,0,126,126A126,126,0,0,0,126.66,0Zm59.52,164.47h-122V84.17a5.3,5.3,0,0,1,5.3-5.3h111.4a5.29,5.29,0,0,1,5.29,5.3Z"/><path class="cls-5" d="M69.49,78.87h111.4a5.3,5.3,0,0,1,5.3,5.3v80.3a0,0,0,0,1,0,0h-122a0,0,0,0,1,0,0V84.17A5.3,5.3,0,0,1,69.49,78.87Z"/><g class="cls-6"><path id="Tracé_49200" data-name="Tracé 49200" class="cls-7" d="M73,40.72H62a1.5,1.5,0,0,1,0-3H73a1.5,1.5,0,0,1,0,3Z"/><path id="Tracé_49200-2" data-name="Tracé 49200" class="cls-7" d="M121,205H110a1.5,1.5,0,0,1,0-3h11a1.5,1.5,0,0,1,0,3Z"/><path id="Tracé_49200-3" data-name="Tracé 49200" class="cls-7" d="M59.5,190.51h-11a1.5,1.5,0,0,1,0-3h11a1.5,1.5,0,0,1,0,3Z"/><path id="Tracé_49200-4" data-name="Tracé 49200" class="cls-7" d="M26.3,166.93h-11a1.5,1.5,0,0,1,0-3h11a1.5,1.5,0,1,1,0,3Z"/><path id="Tracé_49200-5" data-name="Tracé 49200" class="cls-7" d="M131.93,61.37h-11a1.5,1.5,0,0,1,0-3h11a1.5,1.5,0,0,1,0,3Z"/><path id="Tracé_49200-6" data-name="Tracé 49200" class="cls-7" d="M50.89,62.87h-11a1.5,1.5,0,0,1,0-3h11a1.5,1.5,0,0,1,0,3Z"/><path id="Tracé_49200-7" data-name="Tracé 49200" class="cls-7" d="M224.48,89.45h-11a1.5,1.5,0,0,1,0-3h11a1.5,1.5,0,0,1,0,3Z"/><path id="Tracé_49200-8" data-name="Tracé 49200" class="cls-7" d="M106.34,234.24h-11a1.5,1.5,0,0,1,0-3h11a1.5,1.5,0,1,1,0,3Z"/><path id="Tracé_49200-9" data-name="Tracé 49200" class="cls-7" d="M26.3,93.12h-11a1.5,1.5,0,1,1,0-3h11a1.5,1.5,0,0,1,0,3Z"/><path id="Tracé_49200-10" data-name="Tracé 49200" class="cls-7" d="M133.89,35.25h-11a1.5,1.5,0,0,1,0-3h11a1.5,1.5,0,0,1,0,3Z"/><path id="Tracé_49200-11" data-name="Tracé 49200" class="cls-7" d="M165.46,25.72h-11a1.5,1.5,0,0,1,0-3h11a1.5,1.5,0,0,1,0,3Z"/><path id="Tracé_49200-12" data-name="Tracé 49200" class="cls-7" d="M38.48,134.49h-11a1.5,1.5,0,1,1,0-3h11a1.5,1.5,0,0,1,0,3Z"/><path id="Tracé_49200-13" data-name="Tracé 49200" class="cls-7" d="M212.64,54.51h-11a1.5,1.5,0,0,1,0-3h11a1.5,1.5,0,0,1,0,3Z"/><path id="Tracé_49200-14" data-name="Tracé 49200" class="cls-7" d="M233.69,115.22h-11a1.5,1.5,0,0,1,0-3h11a1.5,1.5,0,0,1,0,3Z"/><path id="Tracé_49200-15" data-name="Tracé 49200" class="cls-7" d="M238.51,151.2h-11a1.5,1.5,0,1,1,0-3h11a1.5,1.5,0,0,1,0,3Z"/><path id="Tracé_49200-16" data-name="Tracé 49200" class="cls-7" d="M160,225h-11a1.5,1.5,0,0,1,0-3h11a1.5,1.5,0,0,1,0,3Z"/><path id="Tracé_49200-17" data-name="Tracé 49200" class="cls-7" d="M198.2,201.19h-11a1.5,1.5,0,0,1,0-3h11a1.5,1.5,0,0,1,0,3Z"/><circle class="cls-7" cx="166.96" cy="60.62" r="2.48"/><circle class="cls-7" cx="211.95" cy="131.39" r="2.48"/><circle class="cls-7" cx="162.42" cy="195.71" r="2.48"/><circle class="cls-7" cx="75.84" cy="203.49" r="2.48"/><circle class="cls-7" cx="221.16" cy="177.31" r="2.48"/><circle class="cls-7" cx="39.98" cy="110.57" r="2.48"/><circle class="cls-7" cx="91.53" cy="57.02" r="2.48"/><circle class="cls-7" cx="100.82" cy="20.24" r="2.48"/><circle class="cls-7" cx="182.34" cy="37.72" r="2.48"/></g></svg>