<svg id="Calque_1" data-name="Calque 1" xmlns="http://www.w3.org/2000/svg" xmlns:xlink="http://www.w3.org/1999/xlink" viewBox="0 0 180 180"><defs><style>.cls-1,.cls-7{fill:none;}.cls-2{opacity:0.2;}.cls-3,.cls-4{fill:#702963;}.cls-4{opacity:0.1;}.cls-5{fill:#fbb03b;opacity:0.33;}.cls-6{clip-path:url(#clip-path);}.cls-7{stroke:#f9b03c;stroke-miterlimit:10;stroke-width:2.5px;}</style><clipPath id="clip-path"><circle class="cls-1" cx="90.6" cy="90.2" r="90.14"/></clipPath></defs><g class="cls-2"><path class="cls-3" d="M127.52,71.15h7.89a1.07,1.07,0,1,0,0-2.14h-7.89a1.07,1.07,0,1,0,0,2.14Z"/><path class="cls-3" d="M92.62,61.07h7.89a1.08,1.08,0,0,0,0-2.15H92.62a1.08,1.08,0,0,0,0,2.15Z"/><path id="Tracé_49200" data-name="Tracé 49200" class="cls-3" d="M68.7,59.23H60.81a1.08,1.08,0,0,1,0-2.15H68.7a1.08,1.08,0,1,1,0,2.15Z"/><path id="Tracé_49200-2" data-name="Tracé 49200" class="cls-3" d="M52.12,37.37H44.23a1.08,1.08,0,0,1,0-2.15h7.89a1.08,1.08,0,0,1,0,2.15Z"/><path id="Tracé_49200-3" data-name="Tracé 49200" class="cls-3" d="M120.86,45.76H113a1.08,1.08,0,0,1,0-2.15h7.89a1.08,1.08,0,0,1,0,2.15Z"/><path class="cls-3" d="M29.25,76.56h7.89a1.07,1.07,0,1,0,0-2.14H29.25a1.07,1.07,0,1,0,0,2.14Z"/><path id="Tracé_49200-4" data-name="Tracé 49200" class="cls-3" d="M105.53,33.22H97.64a1.07,1.07,0,0,1,0-2.14h7.89a1.07,1.07,0,0,1,0,2.14Z"/><path id="Tracé_49200-5" data-name="Tracé 49200" class="cls-3" d="M78.74,17.59H70.85a1.07,1.07,0,1,1,0-2.14h7.89a1.07,1.07,0,1,1,0,2.14Z"/><path class="cls-3" d="M27.4,106.23a1.07,1.07,0,0,0-1.07-1.07H18.44a1.07,1.07,0,1,0,0,2.14h7.89A1.07,1.07,0,0,0,27.4,106.23Z"/><path id="Tracé_49200-6" data-name="Tracé 49200" class="cls-3" d="M141.17,30.57h-7.89a1.07,1.07,0,1,1,0-2.14h7.89a1.07,1.07,0,1,1,0,2.14Z"/><path class="cls-3" d="M151.75,64.5h7.89a1.08,1.08,0,0,0,0-2.15h-7.89a1.08,1.08,0,1,0,0,2.15Z"/><path class="cls-3" d="M48.24,89.59h7.89a1.08,1.08,0,0,0,0-2.15H48.24a1.08,1.08,0,1,0,0,2.15Z"/><circle class="cls-3" cx="143.02" cy="47.52" r="1.77"/><path class="cls-3" d="M134.72,100a1.78,1.78,0,1,0-1.78-1.78A1.78,1.78,0,0,0,134.72,100Z"/><path class="cls-3" d="M57.2,111.77A1.77,1.77,0,1,0,55.43,110,1.77,1.77,0,0,0,57.2,111.77Z"/><circle class="cls-3" cx="40.73" cy="58.16" r="1.77"/><circle class="cls-3" cx="110.51" cy="16.52" r="1.77"/><circle class="cls-3" cx="79.81" cy="39.14" r="1.77"/><circle class="cls-3" cx="88.51" cy="117.52" r="1.77"/><path class="cls-3" d="M105.75,107.6h7.89a1.08,1.08,0,0,0,0-2.15h-7.89a1.08,1.08,0,0,0,0,2.15Z"/><path class="cls-3" d="M95.4,88.52h7.89a1.08,1.08,0,1,0,0-2.15H95.4a1.08,1.08,0,0,0,0,2.15Z"/><circle class="cls-3" cx="74.79" cy="76.56" r="1.77"/><circle class="cls-3" cx="150.67" cy="79.86" r="1.77"/><circle class="cls-3" cx="29.17" cy="129.7" r="1.77"/></g><path class="cls-4" d="M51.73,134.9l21.44,15.8a4,4,0,0,0,4.71-.11l29.45-23.21a4,4,0,0,1,3-.78l15.08,9.13A4,4,0,0,0,129,134.4l49.2-65.7A90.14,90.14,0,1,0,26.08,153.09L47.66,134.6A4,4,0,0,1,51.73,134.9Z"/><path class="cls-5" d="M129,134.4a4,4,0,0,1-3.57,1.33l-15.08-9.13a4,4,0,0,0-3,.78L77.88,150.59a4,4,0,0,1-4.71.11L51.73,134.9a4,4,0,0,0-4.07-.3L26.08,153.09A90.15,90.15,0,0,0,178.16,68.7Z"/><g class="cls-6"><path class="cls-7" d="M184.67,60,129,134.4a4,4,0,0,1-3.57,1.33l-15.08-9.13a4,4,0,0,0-3,.78L77.88,150.59a4,4,0,0,1-4.71.11L51.73,134.9a4,4,0,0,0-4.07-.3L22.38,156.25"/></g></svg>