<svg id="Calque_1" data-name="Calque 1" xmlns="http://www.w3.org/2000/svg" viewBox="0 0 180 180"><defs><style>.cls-1,.cls-5{fill:none;stroke:#ea5621;stroke-miterlimit:10;}.cls-1{stroke-width:2.49px;}.cls-2,.cls-3{fill:#ea5621;}.cls-2{opacity:0.33;}.cls-4,.cls-7{fill:#702963;}.cls-4{opacity:0.1;}.cls-5{stroke-width:2.85px;}.cls-6{opacity:0.2;}</style></defs><title>19_BIBLE_ICONE</title><path class="cls-1" d="M40,117.25h100a0,0,0,0,1,0,0v6.61a5.78,5.78,0,0,1-5.78,5.78H45.74A5.78,5.78,0,0,1,40,123.86v-6.61a0,0,0,0,1,0,0Z"/><path class="cls-2" d="M40.58,117.25h100a0,0,0,0,1,0,0v6.56a5.83,5.83,0,0,1-5.83,5.83H46.41a5.83,5.83,0,0,1-5.83-5.83v-6.56a0,0,0,0,1,0,0Z"/><path class="cls-3" d="M77.35,118.1h25.19a0,0,0,0,1,0,0v3.51a2.68,2.68,0,0,1-2.68,2.68H80a2.68,2.68,0,0,1-2.68-2.68V118.1A0,0,0,0,1,77.35,118.1Z"/><path class="cls-4" d="M90.25,0A89.65,89.65,0,1,0,179.9,89.66,89.65,89.65,0,0,0,90.25,0Z"/><path class="cls-5" d="M49.57,56.13h79.26a3.77,3.77,0,0,1,3.77,3.77V117a0,0,0,0,1,0,0H45.8a0,0,0,0,1,0,0V59.89A3.77,3.77,0,0,1,49.57,56.13Z"/><g class="cls-6"><path id="Tracé_49200" data-name="Tracé 49200" class="cls-7" d="M52.06,29H44.21a1.07,1.07,0,0,1,0-2.13h7.85a1.07,1.07,0,1,1,0,2.13Z"/><path id="Tracé_49200-2" data-name="Tracé 49200" class="cls-7" d="M86.23,145.86H78.39a1.07,1.07,0,1,1,0-2.13h7.84a1.07,1.07,0,1,1,0,2.13Z"/><path id="Tracé_49200-3" data-name="Tracé 49200" class="cls-7" d="M42.46,135.56H34.61a1.07,1.07,0,0,1,0-2.13h7.85a1.07,1.07,0,1,1,0,2.13Z"/><path id="Tracé_49200-4" data-name="Tracé 49200" class="cls-7" d="M18.84,118.78H11a1.07,1.07,0,1,1,0-2.13h7.85a1.07,1.07,0,1,1,0,2.13Z"/><path id="Tracé_49200-5" data-name="Tracé 49200" class="cls-7" d="M94,43.68H86.15a1.07,1.07,0,0,1,0-2.14H94a1.07,1.07,0,0,1,0,2.14Z"/><path id="Tracé_49200-6" data-name="Tracé 49200" class="cls-7" d="M65.65,106.52H57.8a1.07,1.07,0,0,1,0-2.13h7.85a1.07,1.07,0,1,1,0,2.13Z"/><path id="Tracé_49200-7" data-name="Tracé 49200" class="cls-7" d="M111.45,91.07H103.6a1.07,1.07,0,0,1,0-2.14h7.85a1.07,1.07,0,0,1,0,2.14Z"/><path id="Tracé_49200-8" data-name="Tracé 49200" class="cls-7" d="M81.27,83.06H73.43a1.07,1.07,0,1,1,0-2.14h7.84a1.07,1.07,0,1,1,0,2.14Z"/><path id="Tracé_49200-9" data-name="Tracé 49200" class="cls-7" d="M122.84,73.11H115A1.07,1.07,0,0,1,115,71h7.84a1.07,1.07,0,0,1,0,2.14Z"/><path id="Tracé_49200-10" data-name="Tracé 49200" class="cls-7" d="M36.33,44.74H28.49a1.07,1.07,0,1,1,0-2.13h7.84a1.07,1.07,0,1,1,0,2.13Z"/><path id="Tracé_49200-11" data-name="Tracé 49200" class="cls-7" d="M159.85,63.65H152a1.07,1.07,0,1,1,0-2.13h7.85a1.07,1.07,0,1,1,0,2.13Z"/><path id="Tracé_49200-12" data-name="Tracé 49200" class="cls-7" d="M75.79,166.67H67.94a1.07,1.07,0,1,1,0-2.13h7.85a1.07,1.07,0,1,1,0,2.13Z"/><path id="Tracé_49200-13" data-name="Tracé 49200" class="cls-7" d="M18.84,66.26H11a1.07,1.07,0,1,1,0-2.13h7.85a1.07,1.07,0,1,1,0,2.13Z"/><path id="Tracé_49200-14" data-name="Tracé 49200" class="cls-7" d="M95.39,25.09H87.55a1.07,1.07,0,1,1,0-2.14h7.84a1.07,1.07,0,0,1,0,2.14Z"/><path id="Tracé_49200-15" data-name="Tracé 49200" class="cls-7" d="M117.85,18.3H110a1.07,1.07,0,1,1,0-2.13h7.84a1.07,1.07,0,1,1,0,2.13Z"/><path id="Tracé_49200-16" data-name="Tracé 49200" class="cls-7" d="M27.51,95.7H19.66a1.07,1.07,0,1,1,0-2.14h7.85a1.07,1.07,0,0,1,0,2.14Z"/><path id="Tracé_49200-17" data-name="Tracé 49200" class="cls-7" d="M151.43,38.79h-7.85a1.07,1.07,0,1,1,0-2.13h7.85a1.07,1.07,0,0,1,0,2.13Z"/><path id="Tracé_49200-18" data-name="Tracé 49200" class="cls-7" d="M166.4,82h-7.85a1.07,1.07,0,1,1,0-2.13h7.85a1.07,1.07,0,1,1,0,2.13Z"/><path id="Tracé_49200-19" data-name="Tracé 49200" class="cls-7" d="M169.83,107.59H162a1.07,1.07,0,0,1,0-2.13h7.85a1.07,1.07,0,1,1,0,2.13Z"/><path id="Tracé_49200-20" data-name="Tracé 49200" class="cls-7" d="M113.94,160.06H106.1a1.07,1.07,0,1,1,0-2.13h7.84a1.07,1.07,0,1,1,0,2.13Z"/><path id="Tracé_49200-21" data-name="Tracé 49200" class="cls-7" d="M141.15,143.16H133.3a1.07,1.07,0,0,1,0-2.14h7.85a1.07,1.07,0,0,1,0,2.14Z"/><circle class="cls-7" cx="118.92" cy="43.14" r="1.76"/><circle class="cls-7" cx="63.49" cy="68.02" r="1.76"/><circle class="cls-7" cx="99.51" cy="103.69" r="1.76"/><circle class="cls-7" cx="150.93" cy="93.49" r="1.76"/><circle class="cls-7" cx="115.69" cy="139.26" r="1.76"/><circle class="cls-7" cx="54.09" cy="144.79" r="1.76"/><circle class="cls-7" cx="157.48" cy="126.17" r="1.76"/><circle class="cls-7" cx="28.57" cy="78.68" r="1.76"/><circle class="cls-7" cx="65.25" cy="40.58" r="1.76"/><circle class="cls-7" cx="71.86" cy="14.41" r="1.76"/><circle class="cls-7" cx="129.87" cy="26.85" r="1.76"/></g></svg>