<svg id="Calque_1" data-name="Calque 1" xmlns="http://www.w3.org/2000/svg" viewBox="0 0 252 252"><defs><style>.cls-1{fill:#f2ebf2;}.cls-2{opacity:0.2;}.cls-3{fill:#702963;}</style></defs><path class="cls-1" d="M126,0A126,126,0,1,0,252,126,126,126,0,0,0,126,0Z"/><g class="cls-2"><path id="Tracé_49200" data-name="Tracé 49200" class="cls-3" d="M201.65,107.31h-11a1.5,1.5,0,0,1,0-3h11a1.5,1.5,0,1,1,0,3Z"/><path id="Tracé_49200-2" data-name="Tracé 49200" class="cls-3" d="M90.82,79.33h-11a1.5,1.5,0,0,1,0-3h11a1.5,1.5,0,0,1,0,3Z"/><path id="Tracé_49200-3" data-name="Tracé 49200" class="cls-3" d="M47.26,66.49h-11a1.5,1.5,0,0,1,0-3h11a1.5,1.5,0,1,1,0,3Z"/><path id="Tracé_49200-4" data-name="Tracé 49200" class="cls-3" d="M75.85,46.38h-11a1.5,1.5,0,1,1,0-3h11a1.5,1.5,0,0,1,0,3Z"/><path id="Tracé_49200-5" data-name="Tracé 49200" class="cls-3" d="M177.89,87.85h-11a1.5,1.5,0,0,1,0-3h11a1.5,1.5,0,0,1,0,3Z"/><path id="Tracé_49200-6" data-name="Tracé 49200" class="cls-3" d="M147.64,141.26h-11a1.5,1.5,0,0,1,0-3h11a1.5,1.5,0,0,1,0,3Z"/><path id="Tracé_49200-7" data-name="Tracé 49200" class="cls-3" d="M73.94,107.05h-11a1.5,1.5,0,1,1,0-3h11a1.5,1.5,0,0,1,0,3Z"/><path id="Tracé_49200-8" data-name="Tracé 49200" class="cls-3" d="M127.91,99h-11a1.5,1.5,0,0,1,0-3h11a1.5,1.5,0,0,1,0,3Z"/><path id="Tracé_49200-9" data-name="Tracé 49200" class="cls-3" d="M162.35,51.46h-11a1.5,1.5,0,0,1,0-3h11a1.5,1.5,0,0,1,0,3Z"/><path id="Tracé_49200-10" data-name="Tracé 49200" class="cls-3" d="M115.34,22.14h-11a1.5,1.5,0,0,1,0-3h11a1.5,1.5,0,0,1,0,3Z"/><path id="Tracé_49200-11" data-name="Tracé 49200" class="cls-3" d="M97.83,199.84h-11a1.5,1.5,0,1,1,0-3h11a1.5,1.5,0,1,1,0,3Z"/><path id="Tracé_49200-12" data-name="Tracé 49200" class="cls-3" d="M57.74,206.53h-11a1.5,1.5,0,0,1,0-3h11a1.5,1.5,0,0,1,0,3Z"/><path id="Tracé_49200-13" data-name="Tracé 49200" class="cls-3" d="M185.8,199.84h-11a1.5,1.5,0,0,1,0-3h11a1.5,1.5,0,0,1,0,3Z"/><path id="Tracé_49200-14" data-name="Tracé 49200" class="cls-3" d="M202.63,49.34h-11a1.5,1.5,0,0,1,0-3h11a1.5,1.5,0,0,1,0,3Z"/><path id="Tracé_49200-15" data-name="Tracé 49200" class="cls-3" d="M221.55,84.5h-11a1.5,1.5,0,1,1,0-3h11a1.5,1.5,0,0,1,0,3Z"/><path id="Tracé_49200-16" data-name="Tracé 49200" class="cls-3" d="M212.54,138.26h-11a1.5,1.5,0,0,1,0-3h11a1.5,1.5,0,0,1,0,3Z"/><path id="Tracé_49200-17" data-name="Tracé 49200" class="cls-3" d="M89.88,168.29h-11a1.5,1.5,0,0,1,0-3h11a1.5,1.5,0,0,1,0,3Z"/><path id="Tracé_49200-18" data-name="Tracé 49200" class="cls-3" d="M129.08,214.55h-11a1.5,1.5,0,0,1,0-3h11a1.5,1.5,0,0,1,0,3Z"/><path id="Tracé_49200-19" data-name="Tracé 49200" class="cls-3" d="M44.78,152.61h-11a1.5,1.5,0,0,1,0-3h11a1.5,1.5,0,0,1,0,3Z"/><path id="Tracé_49200-20" data-name="Tracé 49200" class="cls-3" d="M171.77,168.29h-11a1.5,1.5,0,0,1,0-3h11a1.5,1.5,0,0,1,0,3Z"/><path id="Tracé_49200-21" data-name="Tracé 49200" class="cls-3" d="M227.47,174.41h-11a1.5,1.5,0,0,1,0-3h11a1.5,1.5,0,0,1,0,3Z"/><path id="Tracé_49200-22" data-name="Tracé 49200" class="cls-3" d="M161.15,234.6h-11a1.5,1.5,0,0,1,0-3h11a1.5,1.5,0,0,1,0,3Z"/><circle class="cls-3" cx="182.77" cy="64.99" r="2.48"/><circle class="cls-3" cx="149.82" cy="113.87" r="2.48"/><circle class="cls-3" cx="130.58" cy="166.79" r="2.48"/><circle class="cls-3" cx="128.1" cy="75.35" r="2.48"/><circle class="cls-3" cx="221.96" cy="121.37" r="2.48"/><circle class="cls-3" cx="203.15" cy="209.09" r="2.48"/><circle class="cls-3" cx="118.9" cy="233.64" r="2.48"/><circle class="cls-3" cx="151.09" cy="199.84" r="2.48"/><circle class="cls-3" cx="89.84" cy="223.27" r="2.48"/><circle class="cls-3" cx="29.62" cy="184.54" r="2.48"/><circle class="cls-3" cx="237.1" cy="147" r="2.48"/><circle class="cls-3" cx="105.28" cy="126" r="2.48"/><circle class="cls-3" cx="19.46" cy="120.62" r="2.48"/><circle class="cls-3" cx="44.22" cy="88.97" r="2.48"/><circle class="cls-3" cx="48.74" cy="127.75" r="2.48"/><circle class="cls-3" cx="151.09" cy="22.14" r="2.48"/><circle class="cls-3" cx="100.82" cy="49.96" r="2.48"/></g></svg>