<svg id="Calque_1" data-name="Calque 1" xmlns="http://www.w3.org/2000/svg" viewBox="0 0 180 180"><defs><style>.cls-1,.cls-3{fill:#702963;}.cls-1{opacity:0.1;}.cls-2{opacity:0.2;}</style></defs><circle class="cls-1" cx="90.01" cy="90" r="89.99"/><g class="cls-2"><path id="Tracé_49200" data-name="Tracé 49200" class="cls-3" d="M159.19,77.85h-7.87a1.07,1.07,0,1,1,0-2.14h7.87a1.07,1.07,0,0,1,0,2.14Z"/><path id="Tracé_49200-2" data-name="Tracé 49200" class="cls-3" d="M145.65,103.41h-7.88a1.07,1.07,0,1,1,0-2.14h7.88a1.07,1.07,0,0,1,0,2.14Z"/><path id="Tracé_49200-3" data-name="Tracé 49200" class="cls-3" d="M66.75,50.05H58.87a1.07,1.07,0,0,1,0-2.14h7.88a1.07,1.07,0,0,1,0,2.14Z"/><path id="Tracé_49200-4" data-name="Tracé 49200" class="cls-3" d="M46,37.72H38.13a1.08,1.08,0,0,1,0-2.15H46a1.08,1.08,0,0,1,0,2.15Z"/><path id="Tracé_49200-5" data-name="Tracé 49200" class="cls-3" d="M125.08,43.37h-7.87a1.08,1.08,0,1,1,0-2.15h7.87a1.08,1.08,0,0,1,0,2.15Z"/><path id="Tracé_49200-6" data-name="Tracé 49200" class="cls-3" d="M60.73,73.65H52.85a1.07,1.07,0,1,1,0-2.14h7.88a1.07,1.07,0,1,1,0,2.14Z"/><path id="Tracé_49200-7" data-name="Tracé 49200" class="cls-3" d="M139.89,30.32H132a1.07,1.07,0,1,1,0-2.14h7.88a1.07,1.07,0,0,1,0,2.14Z"/><path id="Tracé_49200-8" data-name="Tracé 49200" class="cls-3" d="M66.75,19.45H58.87a1.07,1.07,0,0,1,0-2.14h7.88a1.07,1.07,0,0,1,0,2.14Z"/><path id="Tracé_49200-9" data-name="Tracé 49200" class="cls-3" d="M88,171.92H80.07a1.07,1.07,0,0,1,0-2.14H88a1.07,1.07,0,1,1,0,2.14Z"/><path id="Tracé_49200-10" data-name="Tracé 49200" class="cls-3" d="M55.72,161.5H47.84a1.07,1.07,0,0,1,0-2.14h7.88a1.07,1.07,0,1,1,0,2.14Z"/><path id="Tracé_49200-11" data-name="Tracé 49200" class="cls-3" d="M156.43,50.05h-7.88a1.07,1.07,0,1,1,0-2.14h7.88a1.07,1.07,0,0,1,0,2.14Z"/><path id="Tracé_49200-12" data-name="Tracé 49200" class="cls-3" d="M113.56,64.45h-7.88a1.08,1.08,0,0,1,0-2.15h7.88a1.08,1.08,0,0,1,0,2.15Z"/><path id="Tracé_49200-13" data-name="Tracé 49200" class="cls-3" d="M31,80.54H23.1a1.07,1.07,0,1,1,0-2.14H31a1.07,1.07,0,1,1,0,2.14Z"/><path id="Tracé_49200-14" data-name="Tracé 49200" class="cls-3" d="M107.26,151.21H99.39a1.07,1.07,0,1,1,0-2.14h7.87a1.07,1.07,0,1,1,0,2.14Z"/><path id="Tracé_49200-15" data-name="Tracé 49200" class="cls-3" d="M37.76,107.1H29.88a1.08,1.08,0,0,1,0-2.15h7.88a1.08,1.08,0,0,1,0,2.15Z"/><circle class="cls-3" cx="45.77" cy="87.3" r="1.77"/><circle class="cls-3" cx="32.05" cy="57.8" r="1.77"/><circle class="cls-3" cx="132.32" cy="83.81" r="1.77"/><circle class="cls-3" cx="98.32" cy="128.4" r="1.77"/><circle class="cls-3" cx="120.04" cy="157.47" r="1.77"/><circle class="cls-3" cx="77.23" cy="147.3" r="1.77"/><circle class="cls-3" cx="20.26" cy="132.29" r="1.77"/><circle class="cls-3" cx="12.19" cy="102.34" r="1.77"/><circle class="cls-3" cx="160.26" cy="121.96" r="1.77"/><circle class="cls-3" cx="168.88" cy="95.01" r="1.77"/><circle class="cls-3" cx="135.95" cy="62.22" r="1.77"/><circle class="cls-3" cx="119.44" cy="15.76" r="1.77"/><circle class="cls-3" cx="89.38" cy="77.48" r="1.77"/></g></svg>