<svg xmlns="http://www.w3.org/2000/svg" width="66.328" height="66.328" viewBox="0 0 66.328 66.328">
    <defs>
        <style>
            .cls-1{fill:#fff}.cls-2,.cls-3{fill:#702963}.cls-2{opacity:.66}
        </style>
    </defs>
    <g id="Groupe_14734" data-name="Groupe 14734" transform="translate(-2265.055 -515.292)">
        <circle id="Ellipse_3194" cx="33.164" cy="33.164" r="33.164" class="cls-1" data-name="Ellipse 3194" transform="translate(2265.055 515.292)"/>
        <g id="Corps_rouge_100_" data-name="Corps rouge 100%">
            <path id="Tracé_51820" d="M2289.041 564.343h20.81a.654.654 0 0 0 .654-.654v-6.044c0-5.39-4.951-9.76-11.059-9.76s-11.059 4.37-11.059 9.76v6.044a.654.654 0 0 0 .654.654z" class="cls-2" data-name="Tracé 51820"/>
            <path id="Tracé_51821" d="M2306.318 537.347c.174.025.348.038.52.049a6.621 6.621 0 0 0-5.609-7.477c-.174-.025-.347-.037-.52-.049a6.622 6.622 0 0 0 5.609 7.477z" class="cls-2" data-name="Tracé 51821"/>
            <path id="Tracé_51822" d="M2300.416 529.84c.025-.175.037-.348.049-.521a6.622 6.622 0 0 0-7.477 5.61 6.13 6.13 0 0 0-.049.52 6.622 6.622 0 0 0 7.477-5.609z" class="cls-2" data-name="Tracé 51822"/>
            <g id="Corps">
                <path id="Tracé_51823" d="M2289.445 565.318h20.811a1.686 1.686 0 0 0 1.684-1.685v-6.044c0-5.95-5.423-10.791-12.089-10.791s-12.09 4.841-12.09 10.791v6.044a1.687 1.687 0 0 0 1.684 1.685zm.378-7.729c0-4.813 4.5-8.729 10.028-8.729s10.027 3.916 10.027 8.729v5.667h-2.545v-6.192a.859.859 0 1 0-1.718 0v6.192h-11.529v-6.192a.859.859 0 1 0-1.718 0v6.192h-2.545z" class="cls-3" data-name="Tracé 51823"/>
                <g id="Tête">
                    <path id="Tracé_51824" d="M2300.251 542.17a5.833 5.833 0 0 0 5.358-3.576c-.053-.013-.1-.031-.155-.045s-.11-.031-.165-.048a7.744 7.744 0 0 1-.607-.208l-.023-.01a7.925 7.925 0 0 1-.563-.254l-.146-.073c-.187-.1-.371-.2-.549-.312l-.025-.016a8.9 8.9 0 0 1-.5-.346l-.126-.095a9.302 9.302 0 0 1-.479-.4l-.028-.027a7.25 7.25 0 0 1-.419-.422l-.1-.114a8.375 8.375 0 0 1-.4-.482l-.028-.04a7.629 7.629 0 0 1-.331-.483l-.084-.133a8.323 8.323 0 0 1-.306-.547l-.026-.057a7.386 7.386 0 0 1-.295-.679c-.019-.05-.033-.081-.048-.123-.114.14-.234.274-.357.4l-.082.086a7.663 7.663 0 0 1-.44.424l-.059.051q-.222.193-.459.37l-.058.045q-.248.18-.508.34l-.1.064c-.173.1-.349.2-.53.292l-.1.045c-.186.09-.375.175-.569.25l-.018.007c-.2.076-.4.142-.6.2l-.107.032q-.3.082-.6.142c-.038.008-.077.014-.115.021a7.96 7.96 0 0 1-.638.09h-.05c-.118.011-.236.02-.355.025a5.81 5.81 0 0 0 5.79 5.606z" class="cls-1" data-name="Tracé 51824"/>
                    <path id="Tracé_51825" d="M2296.943 536.049z" class="cls-3" data-name="Tracé 51825"/>
                    <path id="Tracé_51826" d="M2302.6 533.928z" class="cls-3" data-name="Tracé 51826"/>
                    <path id="Tracé_51827" d="M2295.611 536.432q.306-.06.6-.142-.294.082-.6.142z" class="cls-3" data-name="Tracé 51827"/>
                    <path id="Tracé_51828" d="M2298.242 535.4q.261-.16.508-.34-.25.178-.508.34z" class="cls-3" data-name="Tracé 51828"/>
                    <path id="Tracé_51829" d="M2296.322 536.258z" class="cls-3" data-name="Tracé 51829"/>
                    <path id="Tracé_51830" d="M2297.608 535.754z" class="cls-3" data-name="Tracé 51830"/>
                    <path id="Tracé_51831" d="M2298.808 535.013q.237-.177.459-.37-.222.193-.459.37z" class="cls-3" data-name="Tracé 51831"/>
                    <path id="Tracé_51832" d="M2300.253 533.8c-.016-.043-.029-.089-.045-.133a7.135 7.135 0 0 1-.36.415c.123-.131.243-.265.357-.4.015.037.033.077.048.118z" class="cls-3" data-name="Tracé 51832"/>
                    <path id="Tracé_51833" d="M2303.642 535.236z" class="cls-3" data-name="Tracé 51833"/>
                    <path id="Tracé_51834" d="M2303.293 534.884z" class="cls-3" data-name="Tracé 51834"/>
                    <path id="Tracé_51835" d="M2302.887 534.374a5.2 5.2 0 0 1-.189-.277c.059.095.124.186.189.277z" class="cls-3" data-name="Tracé 51835"/>
                    <path id="Tracé_51836" d="M2299.766 534.168z" class="cls-3" data-name="Tracé 51836"/>
                    <path id="Tracé_51837" d="M2302.246 536.757z" class="cls-3" data-name="Tracé 51837"/>
                    <path id="Tracé_51838" d="M2302.359 533.478q-.063-.134-.12-.27l.12.27z" class="cls-3" data-name="Tracé 51838"/>
                    <path id="Tracé_51839" d="M2300.313 533.95z" class="cls-3" data-name="Tracé 51839"/>
                    <path id="Tracé_51840" d="M2300.574 534.536z" class="cls-3" data-name="Tracé 51840"/>
                    <path id="Tracé_51841" d="M2300.964 535.216z" class="cls-3" data-name="Tracé 51841"/>
                    <path id="Tracé_51842" d="M2301.893 532.026z" class="cls-3" data-name="Tracé 51842"/>
                    <path id="Tracé_51843" d="M2301.323 535.739z" class="cls-3" data-name="Tracé 51843"/>
                    <path id="Tracé_51844" d="M2301.8 530.775v.209c0-.069.008-.138.011-.207z" class="cls-3" data-name="Tracé 51844"/>
                    <path id="Tracé_51845" d="M2301.823 531.512z" class="cls-3" data-name="Tracé 51845"/>
                    <path id="Tracé_51846" d="M2304.1 538.029z" class="cls-3" data-name="Tracé 51846"/>
                    <path id="Tracé_51847" d="M2294.858 536.543z" class="cls-3" data-name="Tracé 51847"/>
                    <path id="Tracé_51848" d="M2302.274 536.784z" class="cls-3" data-name="Tracé 51848"/>
                    <path id="Tracé_51849" d="M2302.162 533.01c-.034-.093-.065-.187-.1-.282.038.095.066.189.1.282z" class="cls-3" data-name="Tracé 51849"/>
                    <path id="Tracé_51850" d="M2303.4 537.644z" class="cls-3" data-name="Tracé 51850"/>
                    <path id="Tracé_51851" d="M2302.879 537.282z" class="cls-3" data-name="Tracé 51851"/>
                    <path id="Tracé_51852" d="M2305.328 536.323z" class="cls-3" data-name="Tracé 51852"/>
                    <path id="Tracé_51853" d="M2297.106 533.679q-.2.123-.416.229.21-.108.416-.229z" class="cls-3" data-name="Tracé 51853"/>
                    <path id="Tracé_51854" d="M2297.5 533.417z" class="cls-3" data-name="Tracé 51854"/>
                    <path id="Tracé_51855" d="M2297.878 533.117a6.114 6.114 0 0 1-.266.216c.088-.07.179-.141.266-.216z" class="cls-3" data-name="Tracé 51855"/>
                    <path id="Tracé_51856" d="M2298.276 532.744z" class="cls-3" data-name="Tracé 51856"/>
                    <path id="Tracé_51857" d="M2304.863 536.1c-.089-.047-.177-.1-.263-.148.086.053.174.103.263.148z" class="cls-3" data-name="Tracé 51857"/>
                    <path id="Tracé_51858" d="M2296.588 533.956z" class="cls-3" data-name="Tracé 51858"/>
                    <path id="Tracé_51859" d="M2296.114 534.156z" class="cls-3" data-name="Tracé 51859"/>
                    <path id="Tracé_51860" d="M2306.049 536.573l-.055-.013.055.017z" class="cls-3" data-name="Tracé 51860"/>
                    <path id="Tracé_51861" d="M2294.771 534.475a5.761 5.761 0 0 0 .882-.173 5.838 5.838 0 0 1-.882.173z" class="cls-3" data-name="Tracé 51861"/>
                    <path id="Tracé_51862" d="M2305.826 536.506z" class="cls-3" data-name="Tracé 51862"/>
                    <path id="Tracé_51863" d="M2298.633 532.34q-.149.186-.31.358.162-.172.31-.358z" class="cls-3" data-name="Tracé 51863"/>
                    <path id="Tracé_51864" d="M2298.914 531.958z" class="cls-3" data-name="Tracé 51864"/>
                    <path id="Tracé_51865" d="M2304.428 535.847z" class="cls-3" data-name="Tracé 51865"/>
                    <path id="Tracé_51866" d="M2299.172 531.536z" class="cls-3" data-name="Tracé 51866"/>
                    <path id="Tracé_51867" d="M2299.446 530.985z" class="cls-3" data-name="Tracé 51867"/>
                    <path id="Tracé_51868" d="M2302.007 532.526z" class="cls-3" data-name="Tracé 51868"/>
                    <path id="Tracé_51869" d="M2304.02 535.557z" class="cls-3" data-name="Tracé 51869"/>
                    <path id="Tracé_51870" d="M2299.588 530.6a5.324 5.324 0 0 1-.134.36c.05-.118.1-.238.139-.36z" class="cls-3" data-name="Tracé 51870"/>
                    <path id="Tracé_51871" d="M2300.253 533.8c.019.051.04.1.06.15l-.06-.15z" class="cls-3" data-name="Tracé 51871"/>
                    <path id="Tracé_51872" d="M2301.722 536.221l.1.114z" class="cls-3" data-name="Tracé 51872"/>
                    <path id="Tracé_51873" d="M2301.845 531.683c-.007-.057-.017-.114-.022-.171.005.057.015.114.022.171z" class="cls-3" data-name="Tracé 51873"/>
                    <path id="Tracé_51874" d="M2302.754 537.187l.125.095z" class="cls-3" data-name="Tracé 51874"/>
                    <path id="Tracé_51875" d="M2303.774 535.35c-.044-.038-.09-.075-.132-.114.042.039.088.076.132.114z" class="cls-3" data-name="Tracé 51875"/>
                    <path id="Tracé_51876" d="M2301.935 532.224c-.014-.066-.03-.131-.042-.2.012.069.028.134.042.2z" class="cls-3" data-name="Tracé 51876"/>
                    <path id="Tracé_51877" d="M2303.35 534.942c-.018-.02-.038-.038-.057-.058a.627.627 0 0 1 .057.058z" class="cls-3" data-name="Tracé 51877"/>
                    <path id="Tracé_51878" d="M2300.548 534.479l.026.057z" class="cls-3" data-name="Tracé 51878"/>
                    <path id="Tracé_51879" d="M2305.994 536.56c-.057-.016-.112-.036-.168-.054.056.018.111.038.168.054z" class="cls-3" data-name="Tracé 51879"/>
                    <path id="Tracé_51880" d="M2300.88 535.083l.084.133z" class="cls-3" data-name="Tracé 51880"/>
                    <path id="Tracé_51881" d="M2301.295 535.7l.028.04c-.009-.014-.023-.028-.028-.04z" class="cls-3" data-name="Tracé 51881"/>
                    <path id="Tracé_51882" d="M2304.178 535.673c-.053-.038-.106-.076-.158-.116.052.043.105.078.158.116z" class="cls-3" data-name="Tracé 51882"/>
                    <path id="Tracé_51883" d="M2302.239 533.208z" class="cls-3" data-name="Tracé 51883"/>
                    <path id="Tracé_51884" d="M2305.044 536.2a6.174 6.174 0 0 1-.181-.093c.06.027.12.058.181.093z" class="cls-3" data-name="Tracé 51884"/>
                    <path id="Tracé_51885" d="M2304.6 535.954c-.058-.035-.116-.07-.172-.107.056.037.114.072.172.107z" class="cls-3" data-name="Tracé 51885"/>
                    <path id="Tracé_51886" d="M2302.7 534.1c-.035-.055-.067-.112-.1-.169.031.054.063.111.1.169z" class="cls-3" data-name="Tracé 51886"/>
                    <path id="Tracé_51887" d="M2302.45 533.664c-.032-.061-.061-.124-.091-.186l.091.186z" class="cls-3" data-name="Tracé 51887"/>
                    <path id="Tracé_51888" d="M2302.274 536.784l-.028-.027z" class="cls-3" data-name="Tracé 51888"/>
                    <path id="Tracé_51889" d="M2303.95 537.956l.146.073z" class="cls-3" data-name="Tracé 51889"/>
                    <path id="Tracé_51890" d="M2305.509 536.4c-.062-.023-.121-.049-.181-.074.06.022.119.048.181.074z" class="cls-3" data-name="Tracé 51890"/>
                    <path id="Tracé_51891" d="M2302.067 532.728c-.021-.067-.042-.134-.06-.2.018.066.039.133.06.2z" class="cls-3" data-name="Tracé 51891"/>
                    <path id="Tracé_51892" d="M2303.376 537.628l.025.016z" class="cls-3" data-name="Tracé 51892"/>
                    <path id="Tracé_51893" d="M2302.98 534.505c-.033-.043-.062-.088-.093-.131.031.043.06.088.093.131z" class="cls-3" data-name="Tracé 51893"/>
                    <path id="Tracé_51894" d="M2301.048 528.546h-.028l-.077-.005h.038z" class="cls-3" data-name="Tracé 51894"/>
                    <path id="Tracé_51895" d="M2296.69 533.908l-.1.048.1-.048z" class="cls-3" data-name="Tracé 51895"/>
                    <path id="Tracé_51896" d="M2297.612 533.333c-.038.028-.075.057-.113.084.038-.027.075-.056.113-.084z" class="cls-3" data-name="Tracé 51896"/>
                    <path id="Tracé_51897" d="M2298.323 532.7l-.047.046c.015-.018.032-.032.047-.046z" class="cls-3" data-name="Tracé 51897"/>
                    <path id="Tracé_51898" d="M2297.985 533.025z" class="cls-3" data-name="Tracé 51898"/>
                    <path id="Tracé_51899" d="M2298.7 532.248c-.024.03-.046.062-.071.092a.632.632 0 0 0 .071-.092z" class="cls-3" data-name="Tracé 51899"/>
                    <path id="Tracé_51900" d="M2299.24 531.415c-.021.041-.045.08-.068.121.028-.041.047-.08.068-.121z" class="cls-3" data-name="Tracé 51900"/>
                    <path id="Tracé_51901" d="M2299 531.831l-.083.127z" class="cls-3" data-name="Tracé 51901"/>
                    <path id="Tracé_51902" d="M2297.166 533.641c-.02.012-.039.026-.06.038.021-.012.04-.026.06-.038z" class="cls-3" data-name="Tracé 51902"/>
                    <path id="Tracé_51903" d="M2299.454 530.963l-.008.022z" class="cls-3" data-name="Tracé 51903"/>
                    <path id="Tracé_51904" d="M2295.783 534.266c-.044.013-.087.028-.131.04.048-.012.087-.026.131-.04z" class="cls-3" data-name="Tracé 51904"/>
                    <path id="Tracé_51905" d="M2296.254 534.1l-.14.054z" class="cls-3" data-name="Tracé 51905"/>
                    <path id="Tracé_51906" d="M2298.138 535.462c.035-.021.07-.042.1-.064-.03.022-.065.043-.1.064z" class="cls-3" data-name="Tracé 51906"/>
                    <path id="Tracé_51907" d="M2297.512 535.8l.1-.045z" class="cls-3" data-name="Tracé 51907"/>
                    <path id="Tracé_51908" d="M2294.808 536.546h.05z" class="cls-3" data-name="Tracé 51908"/>
                    <path id="Tracé_51909" d="M2295.5 536.453c.038-.007.077-.013.115-.021l-.115.021z" class="cls-3" data-name="Tracé 51909"/>
                    <path id="Tracé_51910" d="M2298.75 535.058l.058-.045z" class="cls-3" data-name="Tracé 51910"/>
                    <path id="Tracé_51911" d="M2296.215 536.29l.107-.032z" class="cls-3" data-name="Tracé 51911"/>
                    <path id="Tracé_51912" d="M2296.925 536.056l.018-.007z" class="cls-3" data-name="Tracé 51912"/>
                    <path id="Tracé_51913" d="M2299.267 534.643l.059-.051z" class="cls-3" data-name="Tracé 51913"/>
                    <path id="Tracé_51914" d="M2299.848 534.082l-.082.086z" class="cls-3" data-name="Tracé 51914"/>
                    <path id="Tracé_51915" d="M2300.532 528.511l.411.026a7.82 7.82 0 0 0-.411-.026z" class="cls-3" data-name="Tracé 51915"/>
                    <path id="Tracé_51916" d="M2300.251 544.231a7.9 7.9 0 0 0 7.441-5.338 7.657 7.657 0 0 0 .252-.9 7.943 7.943 0 0 0 .153-1.135c.011-.165.018-.33.018-.494a7.821 7.821 0 0 0-6-7.632l-.087-.021a7.931 7.931 0 0 0-.982-.168l-.067-.006h-.038l-.411-.026c-.095 0-.19-.007-.281-.007-.055 0-.11.006-.165.007l-.109.005a7.923 7.923 0 0 0-7.523 6.872 7.782 7.782 0 0 0-.066.976v.084a7.872 7.872 0 0 0 7.865 7.783zm1.552-13.456h.007a5.772 5.772 0 0 1 4.243 5.59v.211c-.019-.006-.037-.013-.056-.018-.057-.016-.112-.036-.168-.054a5.634 5.634 0 0 1-.317-.109c-.061-.023-.121-.049-.181-.074a4.96 4.96 0 0 1-.465-.221c-.089-.047-.176-.1-.263-.148a5.555 5.555 0 0 1-.422-.281c-.053-.038-.106-.076-.158-.116a6.012 6.012 0 0 1-.247-.207c-.043-.038-.088-.075-.131-.115-.1-.094-.2-.192-.292-.293-.018-.02-.038-.038-.057-.058a6.309 6.309 0 0 1-.314-.379c-.032-.043-.061-.088-.092-.131a5.872 5.872 0 0 1-.189-.277c-.035-.055-.067-.112-.1-.169a7.477 7.477 0 0 1-.148-.264c-.032-.061-.061-.124-.09-.186a5.424 5.424 0 0 1-.197-.47c-.035-.092-.066-.187-.1-.282-.021-.067-.042-.134-.06-.2-.028-.1-.05-.2-.072-.3-.015-.066-.03-.131-.042-.2a5.547 5.547 0 0 1-.048-.343c-.007-.057-.016-.114-.022-.171a6.143 6.143 0 0 1-.024-.528c.002-.068.002-.137.002-.207zm-7.032 3.7a5.812 5.812 0 0 1 4.817-3.87h.005a5.84 5.84 0 0 1-.139.361l-.008.021a5.652 5.652 0 0 1-.206.43c-.021.04-.045.08-.068.121-.055.1-.114.2-.175.295l-.083.127c-.067.1-.137.2-.21.29l-.071.092q-.149.186-.31.357c-.015.017-.032.031-.047.047a4.803 4.803 0 0 1-.398.373 5.566 5.566 0 0 1-.266.216c-.038.028-.075.057-.113.084a5.378 5.378 0 0 1-.333.224l-.06.039a5.768 5.768 0 0 1-.416.228l-.1.048c-.11.052-.221.1-.334.146-.046.019-.093.036-.141.054-.108.04-.218.076-.33.11-.044.014-.087.028-.131.04a5.761 5.761 0 0 1-.882.173zm.037 2.072h.05a7.53 7.53 0 0 0 .638-.089c.038-.007.077-.013.115-.021.2-.04.405-.087.6-.143.036-.009.071-.02.107-.031.2-.06.406-.126.6-.2l.018-.007c.194-.075.383-.16.569-.25l.1-.045c.181-.091.357-.188.53-.291l.1-.065c.174-.107.343-.219.508-.34l.058-.045q.237-.177.459-.37l.059-.051c.153-.135.3-.278.441-.425l.081-.085q.188-.2.36-.415c.016.044.029.089.045.133s.039.1.06.15c.072.18.15.356.235.529l.026.057c.095.187.2.368.306.547.027.045.056.089.084.133.1.165.214.327.331.483l.028.04c.126.166.26.326.4.482l.1.115c.134.145.274.286.419.421l.027.027c.154.141.316.274.481.4l.125.095c.161.121.326.237.5.346l.025.016c.178.112.362.214.549.311l.146.074c.184.091.371.177.563.254l.023.01a7.888 7.888 0 0 0 .772.256c.056.015.1.032.155.045a5.8 5.8 0 0 1-11.156-2.023c.127-.009.245-.019.363-.029z" class="cls-3" data-name="Tracé 51916"/>
                </g>
            </g>
        </g>
    </g>
</svg>
