<svg id="Calque_1" data-name="Calque 1" xmlns="http://www.w3.org/2000/svg" viewBox="0 0 180 180"><defs><style>.cls-1{fill:#fff;}.cls-2,.cls-3{fill:#702963;}.cls-2,.cls-5,.cls-6{opacity:0.66;}.cls-4,.cls-5{fill:#0054ff;}</style></defs><circle id="Ellipse_2689" data-name="Ellipse 2689" class="cls-1" cx="89.54" cy="92.63" r="23.81"/><g id="Corps_rouge_100_" data-name="Corps rouge 100%"><path class="cls-2" d="M90.42,92.22c-4.39,0-7.94,3.14-7.94,7v4.34A.47.47,0,0,0,83,104H97.89a.47.47,0,0,0,.47-.47V99.23C98.36,95.36,94.8,92.22,90.42,92.22Z"/><path class="cls-2" d="M91.7,79.32a2.43,2.43,0,0,0-.38,0,4.75,4.75,0,0,0,4,5.36l.38,0A4.77,4.77,0,0,0,91.7,79.32Z"/><path class="cls-2" d="M85.78,82.92a2.31,2.31,0,0,0,0,.37,4.74,4.74,0,0,0,5.36-4c0-.12,0-.25,0-.37A4.76,4.76,0,0,0,85.78,82.92Z"/><g id="Corps"><path class="cls-3" d="M90.71,91.44c-4.79,0-8.68,3.47-8.68,7.75v4.34a1.21,1.21,0,0,0,1.21,1.21H98.18a1.21,1.21,0,0,0,1.21-1.21V99.19C99.39,94.91,95.49,91.44,90.71,91.44Zm7.2,11.81H96.08V98.81a.62.62,0,0,0-.62-.62.61.61,0,0,0-.61.62v4.44H86.57V98.81a.62.62,0,0,0-.62-.62.61.61,0,0,0-.61.62v4.44H83.51V99.19c0-3.46,3.23-6.27,7.2-6.27s7.2,2.81,7.2,6.27Z"/><g id="Tête"><path class="cls-1" d="M94.73,85.52l-.12,0a3.66,3.66,0,0,1-.43-.15h0l-.4-.19-.11,0-.39-.22h0l-.36-.25-.09-.07c-.12-.09-.23-.19-.34-.29l0,0q-.17-.15-.3-.3l-.08-.09c-.1-.11-.19-.22-.28-.34l0,0a2.71,2.71,0,0,1-.24-.35L91.45,83c-.08-.13-.15-.26-.22-.39l0,0c-.06-.12-.12-.25-.17-.38l0-.1L91,82l-.25.29-.06.06c-.1.11-.21.21-.32.31l0,0L90,83l0,0a2.92,2.92,0,0,1-.37.24l-.07,0c-.13.07-.25.15-.38.21l-.07,0a3,3,0,0,1-.41.18h0l-.43.14-.08,0-.44.11h-.08l-.46.07h0l-.26,0a4.17,4.17,0,0,0,8,1.45Z"/><path class="cls-3" d="M88.62,83.72a3,3,0,0,0,.41-.18A3,3,0,0,1,88.62,83.72Z"/><path class="cls-3" d="M92.68,82.2,92.57,82Z"/><path class="cls-3" d="M87.66,84l.44-.11Z"/><path class="cls-3" d="M89.55,83.25a2.92,2.92,0,0,0,.37-.24A2.92,2.92,0,0,1,89.55,83.25Z"/><path class="cls-3" d="M88.17,83.87l.44-.14Z"/><path class="cls-3" d="M89.1,83.51c.13-.06.25-.14.38-.21C89.35,83.37,89.23,83.45,89.1,83.51Z"/><path class="cls-3" d="M90,83l.33-.27Z"/><path class="cls-3" d="M91,82l-.26.3L91,82l0,.09Z"/><path class="cls-3" d="M93.43,83.14l-.21-.21Z"/><path class="cls-3" d="M93.18,82.89a3,3,0,0,1-.22-.28A3,3,0,0,0,93.18,82.89Z"/><path class="cls-3" d="M92.89,82.52l-.14-.2Z"/><path class="cls-3" d="M90.65,82.37c-.1.11-.21.21-.32.31C90.44,82.58,90.55,82.48,90.65,82.37Z"/><path class="cls-3" d="M92.43,84.23q-.17-.15-.3-.3Q92.27,84.08,92.43,84.23Z"/><path class="cls-3" d="M92.51,81.88l-.09-.2Z"/><path class="cls-3" d="M91,82.21c0,.13.11.26.17.38C91.15,82.47,91.09,82.34,91,82.21Z"/><path class="cls-3" d="M91.23,82.64c.07.13.14.26.22.39C91.37,82.9,91.3,82.77,91.23,82.64Z"/><path class="cls-3" d="M91.51,83.12a2.71,2.71,0,0,0,.24.35A2.71,2.71,0,0,1,91.51,83.12Z"/><path class="cls-3" d="M92.18,80.83a2,2,0,0,1,0-.24A2,2,0,0,0,92.18,80.83Z"/><path class="cls-3" d="M91.77,83.5c.09.12.18.23.28.34C92,83.73,91.86,83.62,91.77,83.5Z"/><path class="cls-3" d="M92.11,79.93v.16a.76.76,0,0,1,0-.15Z"/><path class="cls-3" d="M92.12,80.46c0-.12,0-.25,0-.37C92.11,80.21,92.11,80.34,92.12,80.46Z"/><path class="cls-3" d="M93.76,85.14l.4.19Z"/><path class="cls-3" d="M87.12,84.08l.46-.07Z"/><path class="cls-3" d="M92.45,84.25c.11.1.22.2.34.29C92.67,84.45,92.56,84.35,92.45,84.25Z"/><path class="cls-3" d="M92.37,81.54a1.59,1.59,0,0,1-.07-.2A1.59,1.59,0,0,0,92.37,81.54Z"/><path class="cls-3" d="M93.26,84.87l.39.22Z"/><path class="cls-3" d="M92.88,84.61l.36.25Z"/><path class="cls-3" d="M94.64,83.92l-.2-.09Z"/><path class="cls-3" d="M88.74,82l-.3.16Z"/><path class="cls-3" d="M89,81.83l-.24.16Z"/><path class="cls-3" d="M89.29,81.62l-.19.15Z"/><path class="cls-3" d="M89.58,81.35l-.21.2Z"/><path class="cls-3" d="M94.31,83.76a1.18,1.18,0,0,1-.19-.11A1.18,1.18,0,0,0,94.31,83.76Z"/><path class="cls-3" d="M88.37,82.22l-.24.1Z"/><path class="cls-3" d="M88,82.36l-.24.08Z"/><path class="cls-3" d="M95.12,84.09h0Z"/><path class="cls-3" d="M87.06,82.59a3.19,3.19,0,0,0,.63-.12,3.19,3.19,0,0,1-.63.12Z"/><path class="cls-3" d="M95,84.05,94.77,84Z"/><path class="cls-3" d="M89.83,81.06l-.22.26Z"/><path class="cls-3" d="M90,80.78l-.15.21Z"/><path class="cls-3" d="M94,83.58l-.17-.13Z"/><path class="cls-3" d="M90.22,80.48l-.12.21Z"/><path class="cls-3" d="M90.42,80.09l-.15.3Z"/><path class="cls-3" d="M92.26,81.19,92.2,81Z"/><path class="cls-3" d="M93.7,83.37l-.17-.15Z"/><path class="cls-3" d="M90.42,80.07a2,2,0,0,0,.1-.26h0A2,2,0,0,1,90.42,80.07Z"/><path class="cls-3" d="M91,82.11l0,.1Z"/><path class="cls-3" d="M92.05,83.84l.08.09Z"/><path class="cls-3" d="M92.14,80.59a.69.69,0,0,0,0-.13A.69.69,0,0,1,92.14,80.59Z"/><path class="cls-3" d="M92.79,84.54l.09.07Z"/><path class="cls-3" d="M93.53,83.22l-.1-.08Z"/><path class="cls-3" d="M92.2,81a.77.77,0,0,1,0-.15A.77.77,0,0,0,92.2,81Z"/><path class="cls-3" d="M93.22,82.93s0,0,0,0S93.21,82.91,93.22,82.93Z"/><path class="cls-3" d="M91.21,82.59l0,0Z"/><path class="cls-3" d="M95.12,84.09l-.12,0Z"/><path class="cls-3" d="M91.45,83l.06.09Z"/><path class="cls-3" d="M91.75,83.47l0,0Z"/><path class="cls-3" d="M93.82,83.45l-.12-.08Z"/><path class="cls-3" d="M92.42,81.68s0-.09,0-.14Z"/><path class="cls-3" d="M94.44,83.83l-.13-.07Z"/><path class="cls-3" d="M94.12,83.65,94,83.58Z"/><path class="cls-3" d="M92.75,82.32l-.07-.12Z"/><path class="cls-3" d="M92.57,82l-.06-.13Z"/><path class="cls-3" d="M92.45,84.25l0,0Z"/><path class="cls-3" d="M93.65,85.09l.11,0Z"/><path class="cls-3" d="M94.77,84l-.13,0Z"/><path class="cls-3" d="M92.3,81.34a.83.83,0,0,1,0-.15A.83.83,0,0,0,92.3,81.34Z"/><path class="cls-3" d="M93.24,84.86h0Z"/><path class="cls-3" d="M93,82.61l-.07-.09Z"/><path class="cls-3" d="M91.55,78.33h0Z"/><path class="cls-3" d="M88.44,82.18l-.07,0Z"/><path class="cls-3" d="M89.1,81.77l-.08.06Z"/><path class="cls-3" d="M89.61,81.32l0,0Z"/><path class="cls-3" d="M89.37,81.55l-.08.07Z"/><path class="cls-3" d="M89.89,81l-.06.07Z"/><path class="cls-3" d="M90.27,80.39l0,.09Z"/><path class="cls-3" d="M90.1,80.69l-.06.09Z"/><path class="cls-3" d="M88.78,82l0,0Z"/><path class="cls-3" d="M90.42,80.07v0Z"/><path class="cls-3" d="M87.79,82.44l-.1,0Z"/><path class="cls-3" d="M88.13,82.32l-.1,0Z"/><path class="cls-3" d="M89.48,83.3l.07,0Z"/><path class="cls-3" d="M89,83.54l.07,0Z"/><path class="cls-3" d="M87.09,84.08h0Z"/><path class="cls-3" d="M87.58,84h0Z"/><path class="cls-3" d="M89.92,83l0,0Z"/><path class="cls-3" d="M88.1,83.89l.07,0Z"/><path class="cls-3" d="M88.61,83.73h0Z"/><path class="cls-3" d="M90.29,82.71l0,0Z"/><path class="cls-3" d="M90.71,82.31l-.06.06Z"/><path class="cls-3" d="M91.2,78.31l.29,0Z"/><path class="cls-3" d="M92.34,78.47h-.07a5.4,5.4,0,0,0-.7-.13h-.08l-.29,0h-.4a5.65,5.65,0,0,0-5.26,4.23,5.57,5.57,0,0,0-.14.71h0a6.06,6.06,0,0,0-.05.7V84a5.64,5.64,0,0,0,11,1.75c.07-.21.13-.42.18-.64h0a5.58,5.58,0,0,0,.11-.82c0-.11,0-.23,0-.35A5.61,5.61,0,0,0,92.34,78.47ZM95.16,84v.15h0l-.12,0L94.77,84l-.13,0-.2-.09-.13-.07a1.18,1.18,0,0,1-.19-.11L94,83.58l-.17-.13-.12-.08-.17-.15-.1-.08-.21-.21s0,0,0,0L93,82.61l-.06-.09-.14-.2-.07-.12L92.57,82l-.06-.13-.09-.2,0-.14a1.59,1.59,0,0,1-.07-.2.83.83,0,0,1,0-.15L92.2,81a.77.77,0,0,1,0-.15,2,2,0,0,1,0-.24s0-.08,0-.13a2.3,2.3,0,0,1,0-.37v-.16h0A4.14,4.14,0,0,1,95.16,84Zm-4.64-4.14h0a2,2,0,0,1-.1.26v0l-.15.3,0,.09-.12.21-.06.09-.15.21-.06.07-.22.26,0,0-.21.2-.08.07-.19.15-.08.06-.24.16,0,0-.3.16-.07,0-.24.1-.1,0-.24.08-.1,0a3.19,3.19,0,0,1-.63.12h0A4.19,4.19,0,0,1,90.52,79.81ZM91,88.12a4.18,4.18,0,0,1-4.17-4l.26,0h0l.46-.07h.08l.44-.11.07,0,.44-.14h0a3,3,0,0,0,.41-.18l.07,0,.38-.21.07,0a2.92,2.92,0,0,0,.37-.24l0,0,.33-.27,0,0c.11-.1.22-.2.32-.31l.06-.06L91,82l0,.1,0,.1c0,.13.11.26.17.38l0,0c.07.13.14.26.22.39l.06.09a2.71,2.71,0,0,0,.24.35l0,0,.28.35.08.08q.14.15.3.3l0,0c.11.1.22.2.34.29l.09.07.36.25h0l.39.22.11,0,.4.19h0a3.66,3.66,0,0,0,.43.15l.12,0,.11,0A4.19,4.19,0,0,1,91,88.12Z"/></g></g></g><circle class="cls-1" cx="49.29" cy="131.26" r="19.77"/><path class="cls-4" d="M53.35,121.54H45.21a1.34,1.34,0,0,0-1.33,1.34v16.77A1.33,1.33,0,0,0,45.21,141h8.14a1.33,1.33,0,0,0,1.34-1.34V122.88A1.34,1.34,0,0,0,53.35,121.54Zm-4.06,18.61a1.19,1.19,0,1,1,1.19-1.2A1.19,1.19,0,0,1,49.29,140.15ZM53.5,137H45.07V122.88a.16.16,0,0,1,.14-.15h8.14a.15.15,0,0,1,.15.15Z"/><path class="cls-5" d="M53.35,121.54H45.21a1.34,1.34,0,0,0-1.33,1.34v16.77A1.33,1.33,0,0,0,45.21,141h8.14a1.33,1.33,0,0,0,1.34-1.34V122.88A1.34,1.34,0,0,0,53.35,121.54Zm-4.06,18.61a1.19,1.19,0,1,1,1.19-1.2A1.19,1.19,0,0,1,49.29,140.15ZM53.5,137H45.07V122.88a.16.16,0,0,1,.14-.15h8.14a.15.15,0,0,1,.15.15Z"/><path class="cls-5" d="M50.48,139a1.2,1.2,0,1,1-1.19-1.18A1.19,1.19,0,0,1,50.48,139Z"/><circle class="cls-1" cx="130.32" cy="131.26" r="19.77"/><path class="cls-4" d="M119.91,133.94v-2.83a1.07,1.07,0,0,1-.79-1v-6.33a1.08,1.08,0,0,1,1.09-1.08H132.4a1.08,1.08,0,0,1,1.08,1.08v3.78h-6.83a.52.52,0,0,0-.52.52v3.12h-2.48Zm.3-10.68a.47.47,0,0,0-.48.48v6.33a.47.47,0,0,0,.48.48h.3v2.19l2.94-2.19h2.08V128a1.12,1.12,0,0,1,1.12-1.12h6.23v-3.18a.48.48,0,0,0-.48-.48Z"/><path class="cls-4" d="M140.75,139.87l-3.67-2.72h-8.55a1.07,1.07,0,0,1-1.06-1.07v-6.19a1.06,1.06,0,0,1,1.06-1.06h11.92a1.06,1.06,0,0,1,1.06,1.06v6.19a1.06,1.06,0,0,1-.76,1Zm-12.22-10.44a.47.47,0,0,0-.46.46v6.19a.47.47,0,0,0,.46.47h8.75l2.87,2.12v-2.12h.3a.47.47,0,0,0,.46-.47v-6.19a.47.47,0,0,0-.46-.46Z"/><path class="cls-5" d="M133.18,127.22v-3.48a.78.78,0,0,0-.78-.78H120.21a.77.77,0,0,0-.78.78v6.33a.78.78,0,0,0,.78.79v2.48l3.34-2.48h2.28V128a.82.82,0,0,1,.82-.82Z"/><path class="cls-5" d="M141.21,129.89v6.19a.77.77,0,0,1-.76.77v2.42l-3.27-2.42h-8.65a.77.77,0,0,1-.76-.77v-6.19a.76.76,0,0,1,.76-.76h11.92A.76.76,0,0,1,141.21,129.89Z"/><circle class="cls-1" cx="89.48" cy="34.19" r="19.77"/><g class="cls-6"><path class="cls-4" d="M88.15,35A3.65,3.65,0,0,1,88,36.11a3.73,3.73,0,0,1-.43.9,3.59,3.59,0,1,1-3-5.58,3.53,3.53,0,0,1,2.11.69,4,4,0,0,1,.73.7A3.65,3.65,0,0,1,88.15,35Z"/></g><path class="cls-4" d="M95.56,36.22a4.08,4.08,0,0,0-3,1.38l-2.85-1.36A5.57,5.57,0,0,0,89.8,35a5.36,5.36,0,0,0-.87-2.9l2.23-2.28a3.14,3.14,0,0,0,1.18.23A3,3,0,1,0,89.28,27a2.91,2.91,0,0,0,.29,1.26l-2.24,2.3a5.11,5.11,0,0,0-2.77-.8,5.25,5.25,0,1,0,4.13,8.46l2.85,1.37a4,4,0,0,0-.06.7,4.09,4.09,0,1,0,4.08-4.09ZM92.34,25.36a1.66,1.66,0,0,1,0,3.32,1.62,1.62,0,0,1-.81-.2,1.78,1.78,0,0,1-.63-.62,1.62,1.62,0,0,1-.22-.84A1.66,1.66,0,0,1,92.34,25.36ZM88,36.11a3.73,3.73,0,0,1-.43.9,3.59,3.59,0,1,1-3-5.58,3.53,3.53,0,0,1,2.11.69,4,4,0,0,1,.73.7A3.59,3.59,0,0,1,88,36.11Zm7.58,6.78A2.59,2.59,0,0,1,93,40.31a3,3,0,0,1,.09-.67,2.81,2.81,0,0,1,.42-.85,2.55,2.55,0,0,1,2.07-1.06,2.58,2.58,0,0,1,0,5.16Z"/><g class="cls-6"><path class="cls-4" d="M94.53,27a2.19,2.19,0,0,1-2.2,2.2A2.25,2.25,0,0,1,91.27,29,2.2,2.2,0,1,1,94.53,27Z"/><path class="cls-4" d="M92.34,24.28A2.74,2.74,0,0,0,89.6,27a2.64,2.64,0,0,0,.39,1.4.41.41,0,0,0,.07.11,2.44,2.44,0,0,0,.35.43l0,.05a2,2,0,0,0,.44.33,1.25,1.25,0,0,0,.12.08,2.74,2.74,0,1,0,1.33-5.14Zm0,1.08a1.66,1.66,0,0,1,0,3.32,1.62,1.62,0,0,1-.81-.2,1.78,1.78,0,0,1-.63-.62,1.62,1.62,0,0,1-.22-.84A1.66,1.66,0,0,1,92.34,25.36Z"/></g><g class="cls-6"><path class="cls-4" d="M98.68,40.31a3.12,3.12,0,1,1-6.12-.81,2.91,2.91,0,0,1,.5-1,3.08,3.08,0,0,1,2.51-1.28A3.12,3.12,0,0,1,98.68,40.31Z"/><path class="cls-4" d="M95.56,36.65a3.65,3.65,0,0,0-2.93,1.49l-.07.1a4.92,4.92,0,0,0-.28.45l0,.07a3,3,0,0,0-.18.5l0,.1a3.81,3.81,0,0,0-.12,1,3.66,3.66,0,1,0,3.65-3.66Zm-2.49,3a2.81,2.81,0,0,1,.42-.85,2.55,2.55,0,0,1,2.07-1.06A2.58,2.58,0,1,1,93,40.31,3,3,0,0,1,93.07,39.64Z"/></g></svg>