<svg id="Calque_1" data-name="Calque 1" xmlns="http://www.w3.org/2000/svg" xmlns:xlink="http://www.w3.org/1999/xlink" viewBox="0 0 1496.5 502.17"><defs><style>.cls-1{fill:none;}.cls-2{clip-path:url(#clip-path);}.cls-3,.cls-5{fill:#702963;}.cls-3{opacity:0.1;isolation:isolate;}.cls-4{opacity:0.33;}</style><clipPath id="clip-path"><rect class="cls-1" x="-1.55" y="-1.5" width="1499.6" height="503.67"/></clipPath></defs><g class="cls-2"><g id="Fond_ecosystem" data-name="Fond ecosystem"><g id="Groupe_13140" data-name="Groupe 13140"><rect id="Rectangle_13012" data-name="Rectangle 13012" class="cls-3" x="-1.07" y="-70.24" width="1499.12" height="624.71"/><g id="tirets_points" data-name="tirets points" class="cls-4"><ellipse id="Ellipse_2702" data-name="Ellipse 2702" class="cls-5" cx="333.46" cy="179" rx="2.35" ry="1.93"/><ellipse id="Ellipse_2703" data-name="Ellipse 2703" class="cls-5" cx="214.04" cy="105.11" rx="2.35" ry="1.93"/><ellipse id="Ellipse_3324" data-name="Ellipse 3324" class="cls-5" cx="216.04" cy="49.11" rx="2.35" ry="1.93"/><ellipse id="Ellipse_2704" data-name="Ellipse 2704" class="cls-5" cx="125.69" cy="119.53" rx="2.35" ry="1.93"/><ellipse id="Ellipse_2705" data-name="Ellipse 2705" class="cls-5" cx="964.16" cy="146.5" rx="2.35" ry="1.93"/><ellipse id="Ellipse_2706" data-name="Ellipse 2706" class="cls-5" cx="648.81" cy="90.65" rx="2.35" ry="1.93"/><ellipse id="Ellipse_2707" data-name="Ellipse 2707" class="cls-5" cx="274.45" cy="408.35" rx="2.35" ry="1.93"/><ellipse id="Ellipse_2708" data-name="Ellipse 2708" class="cls-5" cx="467.31" cy="300.35" rx="2.35" ry="1.93"/><ellipse id="Ellipse_2709" data-name="Ellipse 2709" class="cls-5" cx="823.36" cy="128.1" rx="2.35" ry="1.93"/><ellipse id="Ellipse_2710" data-name="Ellipse 2710" class="cls-5" cx="512.65" cy="242.11" rx="2.35" ry="1.93"/><ellipse id="Ellipse_2711" data-name="Ellipse 2711" class="cls-5" cx="894.05" cy="126.17" rx="2.35" ry="1.93"/><ellipse id="Ellipse_2712" data-name="Ellipse 2712" class="cls-5" cx="264.41" cy="340.91" rx="2.35" ry="1.93"/><ellipse id="Ellipse_2713" data-name="Ellipse 2713" class="cls-5" cx="484.66" cy="347.42" rx="2.35" ry="1.93"/><ellipse id="Ellipse_2714" data-name="Ellipse 2714" class="cls-5" cx="634.12" cy="274.16" rx="2.35" ry="1.93"/><ellipse id="Ellipse_2715" data-name="Ellipse 2715" class="cls-5" cx="634.12" cy="187.18" rx="2.35" ry="1.93"/><ellipse id="Ellipse_2716" data-name="Ellipse 2716" class="cls-5" cx="633.81" cy="149.16" rx="2.35" ry="1.93"/><ellipse id="Ellipse_2717" data-name="Ellipse 2717" class="cls-5" cx="241.23" cy="467.17" rx="2.35" ry="1.93"/><ellipse id="Ellipse_2718" data-name="Ellipse 2718" class="cls-5" cx="181.6" cy="409.5" rx="2.35" ry="1.93"/><ellipse id="Ellipse_3325" data-name="Ellipse 3325" class="cls-5" cx="77.6" cy="380.5" rx="2.35" ry="1.93"/><ellipse id="Ellipse_3326" data-name="Ellipse 3326" class="cls-5" cx="92.6" cy="305.5" rx="2.35" ry="1.93"/><ellipse id="Ellipse_2719" data-name="Ellipse 2719" class="cls-5" cx="353.32" cy="482.3" rx="2.35" ry="1.93"/><ellipse id="Ellipse_2720" data-name="Ellipse 2720" class="cls-5" cx="400.04" cy="3.32" rx="2.35" ry="1.93"/><ellipse id="Ellipse_2721" data-name="Ellipse 2721" class="cls-5" cx="488.66" cy="1.39" rx="2.35" ry="1.93"/><ellipse id="Ellipse_2722" data-name="Ellipse 2722" class="cls-5" cx="286.45" cy="51.46" rx="2.35" ry="1.93"/><ellipse id="Ellipse_2724" data-name="Ellipse 2724" class="cls-5" cx="207.88" cy="264.77" rx="2.35" ry="1.93"/><ellipse id="Ellipse_2725" data-name="Ellipse 2725" class="cls-5" cx="161.53" cy="214.72" rx="2.35" ry="1.93"/><ellipse id="Ellipse_3319" data-name="Ellipse 3319" class="cls-5" cx="59.53" cy="166.72" rx="2.35" ry="1.93"/><ellipse id="Ellipse_3322" data-name="Ellipse 3322" class="cls-5" cx="24.53" cy="125.72" rx="2.35" ry="1.93"/><ellipse id="Ellipse_3323" data-name="Ellipse 3323" class="cls-5" cx="114.53" cy="27.72" rx="2.35" ry="1.93"/><ellipse id="Ellipse_3320" data-name="Ellipse 3320" class="cls-5" cx="26.53" cy="254.72" rx="2.35" ry="1.93"/><ellipse id="Ellipse_3321" data-name="Ellipse 3321" class="cls-5" cx="57.53" cy="224.72" rx="2.35" ry="1.93"/><ellipse id="Ellipse_2726" data-name="Ellipse 2726" class="cls-5" cx="560.12" cy="139.81" rx="2.35" ry="1.93"/><ellipse id="Ellipse_2727" data-name="Ellipse 2727" class="cls-5" cx="467.96" cy="195.49" rx="2.35" ry="1.93"/><ellipse id="Ellipse_2728" data-name="Ellipse 2728" class="cls-5" cx="252.47" cy="178.02" rx="2.35" ry="1.93"/><ellipse id="Ellipse_2729" data-name="Ellipse 2729" class="cls-5" cx="353" cy="148.4" rx="2.35" ry="1.93"/><ellipse id="Ellipse_2730" data-name="Ellipse 2730" class="cls-5" cx="407.8" cy="354.32" rx="2.35" ry="1.93"/><ellipse id="Ellipse_2731" data-name="Ellipse 2731" class="cls-5" cx="378.1" cy="297.56" rx="2.35" ry="1.93"/><ellipse id="Ellipse_2732" data-name="Ellipse 2732" class="cls-5" cx="842.88" cy="59.9" rx="2.35" ry="1.93"/><ellipse id="Ellipse_2733" data-name="Ellipse 2733" class="cls-5" cx="220.01" cy="315.32" rx="2.35" ry="1.93"/><ellipse id="Ellipse_2734" data-name="Ellipse 2734" class="cls-5" cx="1154.19" cy="375.34" rx="2.35" ry="1.93"/><ellipse id="Ellipse_2735" data-name="Ellipse 2735" class="cls-5" cx="1217.43" cy="406.65" rx="2.35" ry="1.93"/><ellipse id="Ellipse_2736" data-name="Ellipse 2736" class="cls-5" cx="1134.8" cy="428.94" rx="2.35" ry="1.93"/><ellipse id="Ellipse_2737" data-name="Ellipse 2737" class="cls-5" cx="1254.66" cy="304.32" rx="2.35" ry="1.93"/><ellipse id="Ellipse_2738" data-name="Ellipse 2738" class="cls-5" cx="1365.48" cy="332.44" rx="2.35" ry="1.93"/><ellipse id="Ellipse_3329" data-name="Ellipse 3329" class="cls-5" cx="1420.48" cy="318.44" rx="2.35" ry="1.93"/><ellipse id="Ellipse_3330" data-name="Ellipse 3330" class="cls-5" cx="1473.48" cy="462.44" rx="2.35" ry="1.93"/><ellipse id="Ellipse_2739" data-name="Ellipse 2739" class="cls-5" cx="1406.68" cy="130.03" rx="2.35" ry="1.93"/><ellipse id="Ellipse_3327" data-name="Ellipse 3327" class="cls-5" cx="1384.68" cy="232.03" rx="2.35" ry="1.93"/><ellipse id="Ellipse_3328" data-name="Ellipse 3328" class="cls-5" cx="1475.68" cy="300.03" rx="2.35" ry="1.93"/><ellipse id="Ellipse_2740" data-name="Ellipse 2740" class="cls-5" cx="1277.38" cy="380.29" rx="2.35" ry="1.93"/><ellipse id="Ellipse_2741" data-name="Ellipse 2741" class="cls-5" cx="1369.82" cy="387.86" rx="2.35" ry="1.93"/><ellipse id="Ellipse_2742" data-name="Ellipse 2742" class="cls-5" cx="1088.4" cy="279.27" rx="2.35" ry="1.93"/><path id="Tracé_47298" data-name="Tracé 47298" class="cls-5" d="M1291.83,265.17a2.88,2.88,0,0,1,3.36.48,1.66,1.66,0,0,1-.8,2.59,2.87,2.87,0,0,1-3.36-.48A1.67,1.67,0,0,1,1291.83,265.17Z"/><path id="Tracé_47299" data-name="Tracé 47299" class="cls-5" d="M1413.66,76.74a2.86,2.86,0,0,1,3.35.48,1.66,1.66,0,0,1-.8,2.59,2.85,2.85,0,0,1-3.35-.48A1.66,1.66,0,0,1,1413.66,76.74Z"/><path id="Tracé_55140" data-name="Tracé 55140" class="cls-5" d="M1461.66,76.74a2.86,2.86,0,0,1,3.35.48,1.66,1.66,0,0,1-.8,2.59,2.85,2.85,0,0,1-3.35-.48A1.66,1.66,0,0,1,1461.66,76.74Z"/><path id="Tracé_55139" data-name="Tracé 55139" class="cls-5" d="M1471.66,15.74a2.86,2.86,0,0,1,3.35.48,1.66,1.66,0,0,1-.8,2.59,2.85,2.85,0,0,1-3.35-.48A1.66,1.66,0,0,1,1471.66,15.74Z"/><path id="Tracé_47300" data-name="Tracé 47300" class="cls-5" d="M1156.87,255.94a2.88,2.88,0,0,1,3.36.48,1.66,1.66,0,0,1-.8,2.59,2.87,2.87,0,0,1-3.36-.48A1.67,1.67,0,0,1,1156.87,255.94Z"/><path id="Tracé_47301" data-name="Tracé 47301" class="cls-5" d="M752.7,180.12a2.86,2.86,0,0,1,3.36.48,1.66,1.66,0,0,1-.8,2.59,2.88,2.88,0,0,1-3.36-.48A1.67,1.67,0,0,1,752.7,180.12Z"/><path id="Tracé_47302" data-name="Tracé 47302" class="cls-5" d="M1015.43,250.64a2.88,2.88,0,0,1,3.36.48,1.66,1.66,0,0,1-.8,2.59,2.86,2.86,0,0,1-3.36-.48A1.67,1.67,0,0,1,1015.43,250.64Z"/><path id="Tracé_47303" data-name="Tracé 47303" class="cls-5" d="M988.86,54.13a2.86,2.86,0,0,1,3.35.48,1.66,1.66,0,0,1-.8,2.59,2.85,2.85,0,0,1-3.35-.48A1.66,1.66,0,0,1,988.86,54.13Z"/><path id="Tracé_47304" data-name="Tracé 47304" class="cls-5" d="M687.84,103.58a2.87,2.87,0,0,1,3.36.48,1.67,1.67,0,0,1-.8,2.59,2.88,2.88,0,0,1-3.36-.48A1.66,1.66,0,0,1,687.84,103.58Z"/><path id="Tracé_47305" data-name="Tracé 47305" class="cls-5" d="M897.54,81.67a2.85,2.85,0,0,1,3.35.48,1.66,1.66,0,0,1-.8,2.59,2.86,2.86,0,0,1-3.35-.48A1.66,1.66,0,0,1,897.54,81.67Z"/><path id="Tracé_47306" data-name="Tracé 47306" class="cls-5" d="M1351.39,29.25a2.87,2.87,0,0,1,3.36.49,1.66,1.66,0,0,1-.81,2.58,2.85,2.85,0,0,1-3.35-.48C1349.88,31,1350.24,29.84,1351.39,29.25Z"/><path id="Tracé_47307" data-name="Tracé 47307" class="cls-5" d="M1030.41,10a2.86,2.86,0,0,1,3.36.48,1.66,1.66,0,0,1-.8,2.59,2.88,2.88,0,0,1-3.36-.48A1.67,1.67,0,0,1,1030.41,10Z"/><path id="Tracé_47308" data-name="Tracé 47308" class="cls-5" d="M1228.66,184.69a2.86,2.86,0,0,1,3.36.49c.71.85.35,2-.8,2.59a2.87,2.87,0,0,1-3.36-.49A1.67,1.67,0,0,1,1228.66,184.69Z"/><path id="Tracé_47309" data-name="Tracé 47309" class="cls-5" d="M1276.91,148.76a2.86,2.86,0,0,1,3.36.48c.71.85.35,2-.8,2.59a2.88,2.88,0,0,1-3.36-.48A1.66,1.66,0,0,1,1276.91,148.76Z"/><path id="Tracé_47310" data-name="Tracé 47310" class="cls-5" d="M1336.15,434.14a2.86,2.86,0,0,1,3.35.48,1.66,1.66,0,0,1-.8,2.59,2.87,2.87,0,0,1-3.36-.48A1.67,1.67,0,0,1,1336.15,434.14Z"/><path id="Tracé_47311" data-name="Tracé 47311" class="cls-5" d="M1022.51,138.68a2.87,2.87,0,0,1,3.36.49c.71.85.35,2-.8,2.59a2.86,2.86,0,0,1-3.36-.49C1021,140.43,1021.36,139.27,1022.51,138.68Z"/><path id="Tracé_47131" data-name="Tracé 47131" class="cls-5" d="M613.19,40.37H602.05a1.22,1.22,0,1,1,0-2.36h11.14a1.22,1.22,0,1,1,0,2.36Z"/><path id="Tracé_47133" data-name="Tracé 47133" class="cls-5" d="M513,44.54H501.83a1.22,1.22,0,1,1,0-2.36H513a1.22,1.22,0,1,1,0,2.36Z"/><path id="Tracé_47134" data-name="Tracé 47134" class="cls-5" d="M399.7,50H388.56a1.22,1.22,0,1,1,0-2.37H399.7a1.22,1.22,0,1,1,0,2.37Z"/><path id="Tracé_47135" data-name="Tracé 47135" class="cls-5" d="M297.93,23.08H286.8a1.38,1.38,0,0,1-1.52-1.19,1.38,1.38,0,0,1,1.52-1.18h11.13a1.37,1.37,0,0,1,1.51,1.18A1.39,1.39,0,0,1,297.93,23.08Z"/><path id="Tracé_47136" data-name="Tracé 47136" class="cls-5" d="M494.23,116.59H483.09a1.22,1.22,0,1,1,0-2.37h11.14a1.22,1.22,0,1,1,0,2.37Z"/><path id="Tracé_47137" data-name="Tracé 47137" class="cls-5" d="M286.81,120.12H275.68a1.22,1.22,0,1,1,0-2.36h11.13a1.22,1.22,0,1,1,0,2.36Z"/><path id="Tracé_47138" data-name="Tracé 47138" class="cls-5" d="M167.09,164.44H156a1.22,1.22,0,1,1,0-2.36h11.13a1.22,1.22,0,1,1,0,2.36Z"/><path id="Tracé_47139" data-name="Tracé 47139" class="cls-5" d="M245,221.21H233.86a1.22,1.22,0,1,1,0-2.36H245a1.22,1.22,0,1,1,0,2.36Z"/><path id="Tracé_47140" data-name="Tracé 47140" class="cls-5" d="M430.88,151.52H419.75a1.22,1.22,0,1,1,0-2.36h11.13a1.22,1.22,0,1,1,0,2.36Z"/><path id="Tracé_47141" data-name="Tracé 47141" class="cls-5" d="M288.48,302.11H277.34a1.22,1.22,0,1,1,0-2.37h11.14a1.22,1.22,0,1,1,0,2.37Z"/><path id="Tracé_47142" data-name="Tracé 47142" class="cls-5" d="M356.54,237H345.41a1.22,1.22,0,1,1,0-2.36h11.13a1.22,1.22,0,1,1,0,2.36Z"/><path id="Tracé_47143" data-name="Tracé 47143" class="cls-5" d="M189.68,480H178.55a1.22,1.22,0,1,1,0-2.36h11.13a1.22,1.22,0,1,1,0,2.36Z"/><path id="Tracé_47145" data-name="Tracé 47145" class="cls-5" d="M150.93,365.77H139.8a1.22,1.22,0,1,1,0-2.36h11.13a1.22,1.22,0,1,1,0,2.36Z"/><path id="Tracé_55136" data-name="Tracé 55136" class="cls-5" d="M132.93,435.77H121.8a1.22,1.22,0,1,1,0-2.36h11.13a1.22,1.22,0,1,1,0,2.36Z"/><path id="Tracé_55134" data-name="Tracé 55134" class="cls-5" d="M61.93,461.77H50.8a1.22,1.22,0,1,1,0-2.36H61.93a1.22,1.22,0,1,1,0,2.36Z"/><path id="Tracé_47146" data-name="Tracé 47146" class="cls-5" d="M225.63,374.81H214.5a1.22,1.22,0,1,1,0-2.36h11.13a1.22,1.22,0,1,1,0,2.36Z"/><path id="Tracé_47147" data-name="Tracé 47147" class="cls-5" d="M158,308.07H146.88a1.22,1.22,0,1,1,0-2.37H158a1.22,1.22,0,1,1,0,2.37Z"/><path id="Tracé_47148" data-name="Tracé 47148" class="cls-5" d="M463.25,250.06H452.12a1.22,1.22,0,1,1,0-2.37h11.13a1.22,1.22,0,1,1,0,2.37Z"/><path id="Tracé_47149" data-name="Tracé 47149" class="cls-5" d="M562.57,198.61H551.43a1.22,1.22,0,1,1,0-2.37h11.14a1.22,1.22,0,1,1,0,2.37Z"/><path id="Tracé_47150" data-name="Tracé 47150" class="cls-5" d="M107.35,258.66H96.21a1.22,1.22,0,1,1,0-2.36h11.14a1.22,1.22,0,1,1,0,2.36Z"/><path id="Tracé_55127" data-name="Tracé 55127" class="cls-5" d="M58.35,275.66H47.21a1.22,1.22,0,1,1,0-2.36H58.35a1.22,1.22,0,1,1,0,2.36Z"/><path id="Tracé_55128" data-name="Tracé 55128" class="cls-5" d="M32.35,206.66H21.21a1.22,1.22,0,1,1,0-2.36H32.35a1.22,1.22,0,1,1,0,2.36Z"/><path id="Tracé_55131" data-name="Tracé 55131" class="cls-5" d="M121.35,195.66H110.21a1.22,1.22,0,1,1,0-2.36h11.14a1.22,1.22,0,1,1,0,2.36Z"/><path id="Tracé_55130" data-name="Tracé 55130" class="cls-5" d="M90.35,115.66H79.21a1.22,1.22,0,1,1,0-2.36H90.35a1.22,1.22,0,1,1,0,2.36Z"/><path id="Tracé_55132" data-name="Tracé 55132" class="cls-5" d="M78.35,60.66H67.21a1.22,1.22,0,1,1,0-2.36H78.35a1.22,1.22,0,1,1,0,2.36Z"/><path id="Tracé_55129" data-name="Tracé 55129" class="cls-5" d="M34.35,338.66H23.21a1.22,1.22,0,1,1,0-2.36H34.35a1.22,1.22,0,1,1,0,2.36Z"/><path id="Tracé_55135" data-name="Tracé 55135" class="cls-5" d="M17.35,417.66H6.21a1.22,1.22,0,1,1,0-2.36H17.35a1.22,1.22,0,1,1,0,2.36Z"/><path id="Tracé_47151" data-name="Tracé 47151" class="cls-5" d="M140.46,56.85H129.33a1.22,1.22,0,1,1,0-2.37h11.13a1.22,1.22,0,1,1,0,2.37Z"/><path id="Tracé_55133" data-name="Tracé 55133" class="cls-5" d="M39.46,17.85H28.33a1.39,1.39,0,0,1-1.52-1.18,1.39,1.39,0,0,1,1.52-1.19H39.46A1.4,1.4,0,0,1,41,16.67,1.4,1.4,0,0,1,39.46,17.85Z"/><path id="Tracé_47154" data-name="Tracé 47154" class="cls-5" d="M952.81,183.65H941.67a1.22,1.22,0,1,1,0-2.36h11.14a1.22,1.22,0,1,1,0,2.36Z"/><path id="Tracé_47155" data-name="Tracé 47155" class="cls-5" d="M555.49,91.83H544.35a1.22,1.22,0,1,1,0-2.36h11.14a1.22,1.22,0,1,1,0,2.36Z"/><path id="Tracé_47156" data-name="Tracé 47156" class="cls-5" d="M1116.43,64.19h-11.14a1.22,1.22,0,1,1,0-2.36h11.14a1.22,1.22,0,1,1,0,2.36Z"/><ellipse id="Ellipse_2757" data-name="Ellipse 2757" class="cls-5" cx="894.05" cy="293.83" rx="2.35" ry="1.93"/><path id="Tracé_47312" data-name="Tracé 47312" class="cls-5" d="M821.08,265.2a2.86,2.86,0,0,1,3.36.48,1.66,1.66,0,0,1-.8,2.59,2.88,2.88,0,0,1-3.36-.48A1.67,1.67,0,0,1,821.08,265.2Z"/><path id="Tracé_47313" data-name="Tracé 47313" class="cls-5" d="M800.07,177.46a2.85,2.85,0,0,1,3.35.48,1.66,1.66,0,0,1-.8,2.59,2.86,2.86,0,0,1-3.35-.48A1.66,1.66,0,0,1,800.07,177.46Z"/><path id="Tracé_47157" data-name="Tracé 47157" class="cls-5" d="M939.54,269.53H928.41a1.22,1.22,0,1,1,0-2.37h11.13a1.22,1.22,0,1,1,0,2.37Z"/><ellipse id="Ellipse_2760" data-name="Ellipse 2760" class="cls-5" cx="888.06" cy="408.58" rx="2.35" ry="1.93"/><path id="Tracé_47314" data-name="Tracé 47314" class="cls-5" d="M958.47,434.14a2.86,2.86,0,0,1,3.35.48,1.66,1.66,0,0,1-.8,2.59,2.85,2.85,0,0,1-3.35-.48A1.66,1.66,0,0,1,958.47,434.14Z"/><path id="Tracé_47315" data-name="Tracé 47315" class="cls-5" d="M1018.84,305.34a2.87,2.87,0,0,1,3.36.49,1.66,1.66,0,0,1-.8,2.58,2.86,2.86,0,0,1-3.36-.48C1017.33,307.09,1017.69,305.93,1018.84,305.34Z"/><path id="Tracé_47158" data-name="Tracé 47158" class="cls-5" d="M846.26,448H857.4a1.22,1.22,0,1,1,0,2.36H846.26a1.22,1.22,0,1,1,0-2.36Z"/><path id="Tracé_47159" data-name="Tracé 47159" class="cls-5" d="M1042.12,458.12h11.14a1.22,1.22,0,1,1,0,2.37h-11.14a1.22,1.22,0,1,1,0-2.37Z"/><path id="Tracé_47160" data-name="Tracé 47160" class="cls-5" d="M1036.7,368.51h-11.14a1.22,1.22,0,1,1,0-2.37h11.14a1.22,1.22,0,1,1,0,2.37Z"/><path id="Tracé_47161" data-name="Tracé 47161" class="cls-5" d="M1213.75,128h-11.13a1.22,1.22,0,1,1,0-2.37h11.13a1.22,1.22,0,1,1,0,2.37Z"/><path id="Tracé_47162" data-name="Tracé 47162" class="cls-5" d="M1167.72,322.51h-11.13a1.22,1.22,0,1,1,0-2.36h11.13a1.22,1.22,0,1,1,0,2.36Z"/><path id="Tracé_47163" data-name="Tracé 47163" class="cls-5" d="M1244.35,238.2h-11.13a1.22,1.22,0,1,1,0-2.37h11.13a1.22,1.22,0,1,1,0,2.37Z"/><path id="Tracé_47164" data-name="Tracé 47164" class="cls-5" d="M1197.06,459.31h-11.13a1.22,1.22,0,1,1,0-2.37h11.13a1.22,1.22,0,1,1,0,2.37Z"/><path id="Tracé_47167" data-name="Tracé 47167" class="cls-5" d="M969.72,490.43H958.59a1.22,1.22,0,1,1,0-2.36h11.13a1.22,1.22,0,1,1,0,2.36Z"/><path id="Tracé_47168" data-name="Tracé 47168" class="cls-5" d="M1410,435.51h-11.13a1.22,1.22,0,1,1,0-2.36H1410a1.22,1.22,0,1,1,0,2.36Z"/><path id="Tracé_55143" data-name="Tracé 55143" class="cls-5" d="M1491,403.51h-11.13a1.22,1.22,0,1,1,0-2.36H1491a1.22,1.22,0,1,1,0,2.36Z"/><path id="Tracé_55142" data-name="Tracé 55142" class="cls-5" d="M1440,357.51h-11.13a1.22,1.22,0,1,1,0-2.36H1440a1.22,1.22,0,1,1,0,2.36Z"/><path id="Tracé_47169" data-name="Tracé 47169" class="cls-5" d="M1346.6,478.53h-11.13a1.22,1.22,0,1,1,0-2.37h11.13a1.22,1.22,0,1,1,0,2.37Z"/><path id="Tracé_47170" data-name="Tracé 47170" class="cls-5" d="M1159.76,194.74h-11.14a1.22,1.22,0,1,1,0-2.36h11.14a1.22,1.22,0,1,1,0,2.36Z"/><path id="Tracé_47171" data-name="Tracé 47171" class="cls-5" d="M1360.76,282.26h-11.13a1.22,1.22,0,1,1,0-2.37h11.13a1.22,1.22,0,1,1,0,2.37Z"/><path id="Tracé_47172" data-name="Tracé 47172" class="cls-5" d="M1341.77,214h-11.14a1.22,1.22,0,1,1,0-2.36h11.13a1.22,1.22,0,1,1,0,2.36Z"/><path id="Tracé_47173" data-name="Tracé 47173" class="cls-5" d="M1327.89,126.78h-11.14a1.22,1.22,0,1,1,0-2.37h11.14a1.22,1.22,0,1,1,0,2.37Z"/><path id="Tracé_47174" data-name="Tracé 47174" class="cls-5" d="M1426.65,198.61h-11.13a1.22,1.22,0,1,1,0-2.37h11.13a1.22,1.22,0,1,1,0,2.37Z"/><path id="Tracé_55138" data-name="Tracé 55138" class="cls-5" d="M1485.65,164.61h-11.13a1.22,1.22,0,1,1,0-2.37h11.13a1.22,1.22,0,1,1,0,2.37Z"/><path id="Tracé_55137" data-name="Tracé 55137" class="cls-5" d="M1447.65,259.61h-11.13a1.22,1.22,0,1,1,0-2.37h11.13a1.22,1.22,0,1,1,0,2.37Z"/><path id="Tracé_55141" data-name="Tracé 55141" class="cls-5" d="M1492.65,213.61h-11.13a1.22,1.22,0,1,1,0-2.37h11.13a1.22,1.22,0,1,1,0,2.37Z"/><path id="Tracé_47175" data-name="Tracé 47175" class="cls-5" d="M678.33,55.67H667.2a1.22,1.22,0,1,1,0-2.37h11.13a1.22,1.22,0,1,1,0,2.37Z"/><path id="Tracé_47176" data-name="Tracé 47176" class="cls-5" d="M649.08,217.09H638a1.22,1.22,0,1,1,0-2.37h11.13a1.22,1.22,0,1,1,0,2.37Z"/><path id="Tracé_47177" data-name="Tracé 47177" class="cls-5" d="M806.91,23.08H795.78a1.39,1.39,0,0,1-1.52-1.19,1.38,1.38,0,0,1,1.52-1.18h11.13a1.39,1.39,0,0,1,1.52,1.18A1.4,1.4,0,0,1,806.91,23.08Z"/><path id="Tracé_47178" data-name="Tracé 47178" class="cls-5" d="M947.59,35.91H936.46a1.39,1.39,0,0,1-1.52-1.19,1.38,1.38,0,0,1,1.52-1.18h11.13a1.37,1.37,0,0,1,1.51,1.18A1.38,1.38,0,0,1,947.59,35.91Z"/><path id="Tracé_47179" data-name="Tracé 47179" class="cls-5" d="M1237.27,56.85h-11.13a1.22,1.22,0,1,1,0-2.37h11.13a1.22,1.22,0,1,1,0,2.37Z"/><path id="Tracé_47180" data-name="Tracé 47180" class="cls-5" d="M1400.67,5.51h-11.14A1.38,1.38,0,0,1,1388,4.32a1.38,1.38,0,0,1,1.51-1.18h11.14a1.38,1.38,0,0,1,1.51,1.18A1.38,1.38,0,0,1,1400.67,5.51Z"/><path id="Tracé_47182" data-name="Tracé 47182" class="cls-5" d="M1129.78,136.67h-11.13a1.22,1.22,0,1,1,0-2.36h11.13a1.22,1.22,0,1,1,0,2.36Z"/><path id="Tracé_47183" data-name="Tracé 47183" class="cls-5" d="M828.92,223.49H817.79a1.22,1.22,0,1,1,0-2.36h11.13a1.22,1.22,0,1,1,0,2.36Z"/><path id="Tracé_47184" data-name="Tracé 47184" class="cls-5" d="M768.66,283.85H757.53a1.22,1.22,0,1,1,0-2.37h11.13a1.22,1.22,0,1,1,0,2.37Z"/><path id="Tracé_47185" data-name="Tracé 47185" class="cls-5" d="M523.43,336.4H512.3a1.22,1.22,0,1,1,0-2.36h11.13a1.22,1.22,0,1,1,0,2.36Z"/><path id="Tracé_47186" data-name="Tracé 47186" class="cls-5" d="M557.83,298.94H546.7a1.22,1.22,0,1,1,0-2.37h11.13a1.22,1.22,0,1,1,0,2.37Z"/><path id="Tracé_47187" data-name="Tracé 47187" class="cls-5" d="M357.22,388.22H346.08a1.22,1.22,0,1,1,0-2.36h11.14a1.22,1.22,0,1,1,0,2.36Z"/><path id="Tracé_47188" data-name="Tracé 47188" class="cls-5" d="M402.63,428.18H391.49a1.22,1.22,0,1,1,0-2.36h11.14a1.22,1.22,0,1,1,0,2.36Z"/><ellipse id="Ellipse_2763" data-name="Ellipse 2763" class="cls-5" cx="701.28" cy="348.57" rx="2.35" ry="1.93"/><ellipse id="Ellipse_2764" data-name="Ellipse 2764" class="cls-5" cx="569.94" cy="483.45" rx="2.35" ry="1.93"/><ellipse id="Ellipse_2765" data-name="Ellipse 2765" class="cls-5" cx="477.27" cy="398.92" rx="2.35" ry="1.93"/><ellipse id="Ellipse_2766" data-name="Ellipse 2766" class="cls-5" cx="490.05" cy="436.86" rx="2.35" ry="1.93"/><ellipse id="Ellipse_2767" data-name="Ellipse 2767" class="cls-5" cx="760.44" cy="430.87" rx="2.35" ry="1.93"/><ellipse id="Ellipse_2768" data-name="Ellipse 2768" class="cls-5" cx="679.85" cy="487.31" rx="2.35" ry="1.93"/><ellipse id="Ellipse_2770" data-name="Ellipse 2770" class="cls-5" cx="624.41" cy="355.47" rx="2.35" ry="1.93"/><ellipse id="Ellipse_2771" data-name="Ellipse 2771" class="cls-5" cx="727.53" cy="238.2" rx="2.35" ry="1.93"/><ellipse id="Ellipse_2772" data-name="Ellipse 2772" class="cls-5" cx="709.41" cy="153.45" rx="2.35" ry="1.93"/><path id="Tracé_47189" data-name="Tracé 47189" class="cls-5" d="M678.33,306.23H667.2a1.22,1.22,0,1,1,0-2.36h11.13a1.22,1.22,0,1,1,0,2.36Z"/><path id="Tracé_47190" data-name="Tracé 47190" class="cls-5" d="M870.32,193.48H859.19a1.22,1.22,0,1,1,0-2.37h11.13a1.22,1.22,0,1,1,0,2.37Z"/><path id="Tracé_47191" data-name="Tracé 47191" class="cls-5" d="M784.14,115.41H773a1.22,1.22,0,1,1,0-2.37h11.13a1.38,1.38,0,0,1,1.52,1.18A1.39,1.39,0,0,1,784.14,115.41Z"/><path id="Tracé_47192" data-name="Tracé 47192" class="cls-5" d="M573.83,389.37H562.7a1.22,1.22,0,1,1,0-2.36h11.13a1.22,1.22,0,1,1,0,2.36Z"/><path id="Tracé_47193" data-name="Tracé 47193" class="cls-5" d="M606.1,436.86H595a1.22,1.22,0,1,1,0-2.36H606.1a1.22,1.22,0,1,1,0,2.36Z"/><ellipse id="Ellipse_2773" data-name="Ellipse 2773" class="cls-5" cx="907.58" cy="348.57" rx="2.35" ry="1.93"/><ellipse id="Ellipse_2774" data-name="Ellipse 2774" class="cls-5" cx="776.23" cy="483.45" rx="2.35" ry="1.93"/><ellipse id="Ellipse_2775" data-name="Ellipse 2775" class="cls-5" cx="704.72" cy="402.78" rx="2.35" ry="1.93"/><ellipse id="Ellipse_2776" data-name="Ellipse 2776" class="cls-5" cx="830.71" cy="355.47" rx="2.35" ry="1.93"/><path id="Tracé_47194" data-name="Tracé 47194" class="cls-5" d="M1084.22,207.31h-11.13a1.22,1.22,0,1,1,0-2.36h11.13a1.22,1.22,0,1,1,0,2.36Z"/><path id="Tracé_47195" data-name="Tracé 47195" class="cls-5" d="M780.13,389.37H769a1.22,1.22,0,1,1,0-2.36h11.13a1.22,1.22,0,1,1,0,2.36Z"/></g></g></g></g></svg>