<svg id="Calque_1" data-name="Calque 1" xmlns="http://www.w3.org/2000/svg" viewBox="0 0 123.67 105.57"><defs><style>.cls-1{fill:#701663;}.cls-2{fill:none;stroke:#701663;stroke-linecap:round;stroke-width:3px;}.cls-3{fill:#f2ebf2;}.cls-4{fill:#996594;}.cls-4,.cls-5,.cls-6{isolation:isolate;}.cls-6{font-size:33px;fill:#702963;font-family:Montserrat-SemiBold, Montserrat;font-weight:600;}</style></defs><g id="Enveloppe"><g id="Ventilateur_2" data-name="Ventilateur 2"><rect id="Rectangle_13019" data-name="Rectangle 13019" class="cls-1" x="59.88" y="74.19" width="3.36" height="31.38"/></g><path id="Support" class="cls-2" d="M1.59,75.43H122"/><g id="Enveloppe_v4" data-name="Enveloppe v4"><path id="lettre" class="cls-3" d="M74.75,42.82,95.06,28.36V2.57H29.5V28.24L50,42.82Z"/><path id="devant_gauche" data-name="devant gauche" class="cls-3" d="M47.43,44.13,45.8,42.82,29.5,29.66l-2.61-2.12L13.09,16.39v55.5L45.8,45.44Z"/><path id="devant_centre" data-name="devant centre" class="cls-3" d="M50,45.44,15.5,73.31h93.71L74.75,45.44Z"/><path id="devant_droite" data-name="devant droite" class="cls-3" d="M95.06,29.76,78.91,42.82l-1.62,1.31,1.62,1.31L111.62,71.9V16.39l-14,11.28Z"/><path id="derrière_gauche" data-name="derrière gauche" class="cls-4" d="M26.88,15H15.47l11.41,9.21Z"/><path id="derrière_droite" data-name="derrière droite" class="cls-4" d="M97.67,24.29,109.24,15H97.67Z"/><path id="contour" class="cls-1" d="M97.67,0H26.88V12.33H10.47V75.92H114.24V12.33H97.67ZM29.5,2.62H95.06V26.41L74.75,42.82H50L29.5,26.28ZM26.88,15v9.21L15.47,15ZM13.09,16.39,26.88,27.54l2.62,2.12L45.8,42.82l1.62,1.31L45.8,45.44,13.09,71.89ZM15.5,73.31,50,45.44H74.75l34.46,27.87Zm96.12-1.42L78.91,45.44l-1.62-1.31,1.62-1.31L95.06,29.76l2.61-2.09,14-11.28ZM109.24,15,97.67,24.29V15Z"/></g><g id="_" data-name=" " class="cls-5"><text class="cls-6" transform="translate(45.02 31.08)">@</text></g></g></svg>