<svg xmlns="http://www.w3.org/2000/svg" width="1366" height="254.601" viewBox="0 0 1366 254.601">
    <defs>
        <style>
            .cls-1{fill:#701663}.cls-1,.cls-3{opacity:.1}.cls-2,.cls-4{opacity:.66}.cls-2{clip-path:url(#clip-path)}.cls-3,.cls-5{fill:#702963}
        </style>
        <clipPath id="clip-path">
            <path id="Rectangle_13025" d="M0 0h1366v254.601H0z" class="cls-1" data-name="Rectangle 13025" transform="translate(0 3230)"/>
        </clipPath>
    </defs>
    <g id="Fond_ecosystem" class="cls-2" data-name="Fond ecosystem" transform="translate(0 -3230)">
        <g id="Groupe_13229" data-name="Groupe 13229" transform="translate(.441 3206.942)">
            <path id="Tracé_47278" d="M0 0h1365.559v673H0z" class="cls-3" data-name="Tracé 47278"/>
            <g id="tirets_points" class="cls-4" data-name="tirets / points" transform="translate(87.238 53.53)">
                <ellipse id="Ellipse_2781" cx="2.137" cy="2.082" class="cls-5" data-name="Ellipse 2781" rx="2.137" ry="2.082" transform="translate(215.346 212.892)"/>
                <ellipse id="Ellipse_2782" cx="2.137" cy="2.082" class="cls-5" data-name="Ellipse 2782" rx="2.137" ry="2.082" transform="translate(106.571 133.298)"/>
                <ellipse id="Ellipse_2783" cx="2.137" cy="2.082" class="cls-5" data-name="Ellipse 2783" rx="2.137" ry="2.082" transform="translate(26.086 148.83)"/>
                <ellipse id="Ellipse_2784" cx="2.137" cy="2.082" class="cls-5" data-name="Ellipse 2784" rx="2.137" ry="2.082" transform="translate(789.857 177.882)"/>
                <ellipse id="Ellipse_2785" cx="2.137" cy="2.082" class="cls-5" data-name="Ellipse 2785" rx="2.137" ry="2.082" transform="translate(502.607 117.72)"/>
                <ellipse id="Ellipse_2786" cx="2.137" cy="2.082" class="cls-5" data-name="Ellipse 2786" rx="2.137" ry="2.082" transform="translate(161.598 459.979)"/>
                <ellipse id="Ellipse_2787" cx="2.137" cy="2.082" class="cls-5" data-name="Ellipse 2787" rx="2.137" ry="2.082" transform="translate(337.272 343.628)"/>
                <ellipse id="Ellipse_2788" cx="2.137" cy="2.082" class="cls-5" data-name="Ellipse 2788" rx="2.137" ry="2.082" transform="translate(661.601 158.063)"/>
                <ellipse id="Ellipse_2789" cx="2.137" cy="2.082" class="cls-5" data-name="Ellipse 2789" rx="2.137" ry="2.082" transform="translate(378.572 280.889)"/>
                <ellipse id="Ellipse_2790" cx="2.137" cy="2.082" class="cls-5" data-name="Ellipse 2790" rx="2.137" ry="2.082" transform="translate(725.995 155.981)"/>
                <ellipse id="Ellipse_2791" cx="2.137" cy="2.082" class="cls-5" data-name="Ellipse 2791" rx="2.137" ry="2.082" transform="translate(152.449 387.32)"/>
                <ellipse id="Ellipse_2792" cx="2.137" cy="2.082" class="cls-5" data-name="Ellipse 2792" rx="2.137" ry="2.082" transform="translate(353.082 394.333)"/>
                <ellipse id="Ellipse_2793" cx="2.137" cy="2.082" class="cls-5" data-name="Ellipse 2793" rx="2.137" ry="2.082" transform="translate(489.225 315.413)"/>
                <ellipse id="Ellipse_2794" cx="2.137" cy="2.082" class="cls-5" data-name="Ellipse 2794" rx="2.137" ry="2.082" transform="translate(489.225 221.709)"/>
                <ellipse id="Ellipse_2795" cx="2.137" cy="2.082" class="cls-5" data-name="Ellipse 2795" rx="2.137" ry="2.082" transform="translate(488.939 180.747)"/>
                <ellipse id="Ellipse_2796" cx="2.137" cy="2.082" class="cls-5" data-name="Ellipse 2796" rx="2.137" ry="2.082" transform="translate(131.336 523.343)"/>
                <ellipse id="Ellipse_2797" cx="2.137" cy="2.082" class="cls-5" data-name="Ellipse 2797" rx="2.137" ry="2.082" transform="translate(24.186 488.143)"/>
                <ellipse id="Ellipse_2798" cx="2.137" cy="2.082" class="cls-5" data-name="Ellipse 2798" rx="2.137" ry="2.082" transform="translate(233.439 539.641)"/>
                <ellipse id="Ellipse_2799" cx="2.137" cy="2.082" class="cls-5" data-name="Ellipse 2799" rx="2.137" ry="2.082" transform="translate(275.997 23.64)"/>
                <ellipse id="Ellipse_2800" cx="2.137" cy="2.082" class="cls-5" data-name="Ellipse 2800" rx="2.137" ry="2.082" transform="translate(356.725 21.558)"/>
                <ellipse id="Ellipse_2801" cx="2.137" cy="2.082" class="cls-5" data-name="Ellipse 2801" rx="2.137" ry="2.082" transform="translate(172.527 75.499)"/>
                <ellipse id="Ellipse_2802" cx="2.137" cy="2.082" class="cls-5" data-name="Ellipse 2802" rx="2.137" ry="2.082" transform="translate(12.816 15.817)"/>
                <ellipse id="Ellipse_2803" cx="2.137" cy="2.082" class="cls-5" data-name="Ellipse 2803" rx="2.137" ry="2.082" transform="translate(100.962 305.301)"/>
                <ellipse id="Ellipse_2804" cx="2.137" cy="2.082" class="cls-5" data-name="Ellipse 2804" rx="2.137" ry="2.082" transform="translate(58.735 251.383)"/>
                <ellipse id="Ellipse_2805" cx="2.137" cy="2.082" class="cls-5" data-name="Ellipse 2805" rx="2.137" ry="2.082" transform="translate(421.816 170.679)"/>
                <ellipse id="Ellipse_2806" cx="2.137" cy="2.082" class="cls-5" data-name="Ellipse 2806" rx="2.137" ry="2.082" transform="translate(337.87 230.667)"/>
                <ellipse id="Ellipse_2807" cx="2.137" cy="2.082" class="cls-5" data-name="Ellipse 2807" rx="2.137" ry="2.082" transform="translate(141.578 211.841)"/>
                <ellipse id="Ellipse_2808" cx="2.137" cy="2.082" class="cls-5" data-name="Ellipse 2808" rx="2.137" ry="2.082" transform="translate(233.147 179.937)"/>
                <ellipse id="Ellipse_2809" cx="2.137" cy="2.082" class="cls-5" data-name="Ellipse 2809" rx="2.137" ry="2.082" transform="translate(283.064 401.774)"/>
                <ellipse id="Ellipse_2810" cx="2.137" cy="2.082" class="cls-5" data-name="Ellipse 2810" rx="2.137" ry="2.082" transform="translate(256.015 340.623)"/>
                <ellipse id="Ellipse_2811" cx="2.137" cy="2.082" class="cls-5" data-name="Ellipse 2811" rx="2.137" ry="2.082" transform="translate(704.382 28.587)"/>
                <ellipse id="Ellipse_2812" cx="2.137" cy="2.082" class="cls-5" data-name="Ellipse 2812" rx="2.137" ry="2.082" transform="translate(112.007 359.757)"/>
                <ellipse id="Ellipse_2813" cx="2.137" cy="2.082" class="cls-5" data-name="Ellipse 2813" rx="2.137" ry="2.082" transform="translate(962.96 424.414)"/>
                <ellipse id="Ellipse_2814" cx="2.137" cy="2.082" class="cls-5" data-name="Ellipse 2814" rx="2.137" ry="2.082" transform="translate(1020.565 458.143)"/>
                <ellipse id="Ellipse_2815" cx="2.137" cy="2.082" class="cls-5" data-name="Ellipse 2815" rx="2.137" ry="2.082" transform="translate(945.302 482.155)"/>
                <ellipse id="Ellipse_2816" cx="2.137" cy="2.082" class="cls-5" data-name="Ellipse 2816" rx="2.137" ry="2.082" transform="translate(1054.476 347.905)"/>
                <ellipse id="Ellipse_2817" cx="2.137" cy="2.082" class="cls-5" data-name="Ellipse 2817" rx="2.137" ry="2.082" transform="translate(1155.427 378.204)"/>
                <ellipse id="Ellipse_2818" cx="2.137" cy="2.082" class="cls-5" data-name="Ellipse 2818" rx="2.137" ry="2.082" transform="translate(1192.954 160.146)"/>
                <ellipse id="Ellipse_2819" cx="2.137" cy="2.082" class="cls-5" data-name="Ellipse 2819" rx="2.137" ry="2.082" transform="translate(1075.178 429.744)"/>
                <ellipse id="Ellipse_2820" cx="2.137" cy="2.082" class="cls-5" data-name="Ellipse 2820" rx="2.137" ry="2.082" transform="translate(1192.173 435.746)"/>
                <ellipse id="Ellipse_2821" cx="2.137" cy="2.082" class="cls-5" data-name="Ellipse 2821" rx="2.137" ry="2.082" transform="translate(903.029 320.92)"/>
                <path id="Tracé_47279" d="M2.2.08a2.316 2.316 0 0 1 2.28 2.1 1.941 1.941 0 0 1-2.13 1.941 2.316 2.316 0 0 1-2.28-2.1A1.941 1.941 0 0 1 2.2.08z" class="cls-5" data-name="Tracé 47279" transform="rotate(-33 1065.165 -1681.816)"/>
                <path id="Tracé_47280" d="M2.2.08a2.316 2.316 0 0 1 2.28 2.1 1.941 1.941 0 0 1-2.13 1.941 2.316 2.316 0 0 1-2.28-2.1A1.941 1.941 0 0 1 2.2.08z" class="cls-5" data-name="Tracé 47280" transform="rotate(-33 778.21 -1970.45)"/>
                <path id="Tracé_47281" d="M2.2.08a2.316 2.316 0 0 1 2.28 2.1 1.941 1.941 0 0 1-2.13 1.941 2.316 2.316 0 0 1-2.28-2.1A1.941 1.941 0 0 1 2.2.08z" class="cls-5" data-name="Tracé 47281" transform="rotate(-33 986.957 -1479.415)"/>
                <path id="Tracé_47282" d="M2.2.08a2.316 2.316 0 0 1 2.28 2.1 1.941 1.941 0 0 1-2.13 1.941 2.316 2.316 0 0 1-2.28-2.1A1.941 1.941 0 0 1 2.2.08z" class="cls-5" data-name="Tracé 47282" transform="rotate(-33 665.173 -899.223)"/>
                <path id="Tracé_47283" d="M2.2.08a2.316 2.316 0 0 1 2.28 2.1 1.941 1.941 0 0 1-2.13 1.941 2.316 2.316 0 0 1-2.28-2.1A1.941 1.941 0 0 1 2.2.08z" class="cls-5" data-name="Tracé 47283" transform="rotate(-33 912.93 -1264.942)"/>
                <path id="Tracé_47284" d="M2.2.08a2.316 2.316 0 0 1 2.28 2.1 1.941 1.941 0 0 1-2.13 1.941 2.316 2.316 0 0 1-2.28-2.1A1.941 1.941 0 0 1 2.2.08z" class="cls-5" data-name="Tracé 47284" transform="rotate(-33 543.74 -1329.91)"/>
                <path id="Tracé_47285" d="M2.2.08a2.316 2.316 0 0 1 2.28 2.1 1.941 1.941 0 0 1-2.13 1.941 2.316 2.316 0 0 1-2.28-2.1A1.941 1.941 0 0 1 2.2.08z" class="cls-5" data-name="Tracé 47285" transform="rotate(-33 496.556 -840.772)"/>
                <path id="Tracé_47286" d="M2.2.08a2.316 2.316 0 0 1 2.28 2.1 1.941 1.941 0 0 1-2.13 1.941 2.316 2.316 0 0 1-2.28-2.1A1.941 1.941 0 0 1 2.2.08z" class="cls-5" data-name="Tracé 47286" transform="rotate(-33 552.206 -1174.77)"/>
                <path id="Tracé_47287" d="M2.2.08a2.316 2.316 0 0 1 2.28 2.1 1.941 1.941 0 0 1-2.13 1.941 2.316 2.316 0 0 1-2.28-2.1A1.941 1.941 0 0 1 2.2.08z" class="cls-5" data-name="Tracé 47287" transform="rotate(-33 663.573 -1900.338)"/>
                <path id="Tracé_47288" d="M2.2.08a2.316 2.316 0 0 1 2.28 2.1 1.941 1.941 0 0 1-2.13 1.941 2.316 2.316 0 0 1-2.28-2.1A1.941 1.941 0 0 1 2.2.08z" class="cls-5" data-name="Tracé 47288" transform="rotate(-33 482.442 -1417.53)"/>
                <path id="Tracé_47289" d="M2.2.08a2.316 2.316 0 0 1 2.28 2.1 1.941 1.941 0 0 1-2.13 1.941 2.316 2.316 0 0 1-2.28-2.1A1.941 1.941 0 0 1 2.2.08z" class="cls-5" data-name="Tracé 47289" transform="rotate(-33 890.168 -1628.079)"/>
                <path id="Tracé_47290" d="M2.2.08a2.316 2.316 0 0 1 2.28 2.1 1.941 1.941 0 0 1-2.13 1.941 2.316 2.316 0 0 1-2.28-2.1A1.941 1.941 0 0 1 2.2.08z" class="cls-5" data-name="Tracé 47290" transform="rotate(-33 846.824 -1721.565)"/>
                <path id="Tracé_47291" d="M2.2.08a2.316 2.316 0 0 1 2.28 2.1 1.941 1.941 0 0 1-2.13 1.941 2.316 2.316 0 0 1-2.28-2.1A1.941 1.941 0 0 1 2.2.08z" class="cls-5" data-name="Tracé 47291" transform="rotate(-33 1392.388 -1658.927)"/>
                <path id="Tracé_47292" d="M2.2.08a2.316 2.316 0 0 1 2.28 2.1 1.941 1.941 0 0 1-2.13 1.941 2.316 2.316 0 0 1-2.28-2.1A1.941 1.941 0 0 1 2.2.08z" class="cls-5" data-name="Tracé 47292" transform="rotate(-33 712.71 -1336.095)"/>
                <path id="Tracé_47213" d="M-3008.54-1039.977h-10.142a1.33 1.33 0 0 1-1.38-1.273 1.33 1.33 0 0 1 1.38-1.273h10.142a1.329 1.329 0 0 1 1.38 1.273 1.33 1.33 0 0 1-1.38 1.273z" class="cls-5" data-name="Tracé 47213" transform="translate(3480.831 1105.612)"/>
                <path id="Tracé_47214" d="M-2989.62-1094.222h-10.141a1.331 1.331 0 0 1-1.38-1.273 1.33 1.33 0 0 1 1.38-1.273h10.141a1.33 1.33 0 0 1 1.38 1.273 1.33 1.33 0 0 1-1.38 1.273z" class="cls-5" data-name="Tracé 47214" transform="translate(3479.316 1113.809)"/>
                <path id="Tracé_47215" d="M-3107.778-1034.683h-10.142a1.33 1.33 0 0 1-1.38-1.273 1.331 1.331 0 0 1 1.38-1.273h10.142a1.33 1.33 0 0 1 1.38 1.273 1.33 1.33 0 0 1-1.38 1.273z" class="cls-5" data-name="Tracé 47215" transform="translate(3488.778 1104.812)"/>
                <path id="Tracé_47216" d="M-3219.938-1027.784h-10.142a1.33 1.33 0 0 1-1.38-1.273 1.33 1.33 0 0 1 1.38-1.273h10.142a1.33 1.33 0 0 1 1.38 1.273 1.33 1.33 0 0 1-1.38 1.273z" class="cls-5" data-name="Tracé 47216" transform="translate(3497.761 1103.769)"/>
                <path id="Tracé_47217" d="M-3320.71-1061.926h-10.142a1.33 1.33 0 0 1-1.38-1.273 1.33 1.33 0 0 1 1.38-1.273h10.142a1.33 1.33 0 0 1 1.38 1.273 1.33 1.33 0 0 1-1.38 1.273z" class="cls-5" data-name="Tracé 47217" transform="translate(3505.831 1108.928)"/>
                <path id="Tracé_47218" d="M-3126.332-943.252h-10.142a1.33 1.33 0 0 1-1.38-1.273 1.33 1.33 0 0 1 1.38-1.273h10.142a1.33 1.33 0 0 1 1.38 1.273 1.33 1.33 0 0 1-1.38 1.273z" class="cls-5" data-name="Tracé 47218" transform="translate(3490.264 1090.996)"/>
                <path id="Tracé_47219" d="M-3331.719-938.769h-10.141a1.33 1.33 0 0 1-1.38-1.273 1.33 1.33 0 0 1 1.38-1.273h10.141a1.33 1.33 0 0 1 1.38 1.273 1.33 1.33 0 0 1-1.38 1.273z" class="cls-5" data-name="Tracé 47219" transform="translate(3506.713 1090.318)"/>
                <path id="Tracé_47220" d="M-3450.265-882.514h-10.14a1.33 1.33 0 0 1-1.38-1.273 1.33 1.33 0 0 1 1.38-1.273h10.14a1.33 1.33 0 0 1 1.38 1.273 1.33 1.33 0 0 1-1.38 1.273z" class="cls-5" data-name="Tracé 47220" transform="translate(3516.206 1081.817)"/>
                <path id="Tracé_47221" d="M-3373.124-810.476h-10.141a1.33 1.33 0 0 1-1.38-1.273 1.33 1.33 0 0 1 1.38-1.273h10.141a1.33 1.33 0 0 1 1.38 1.273 1.33 1.33 0 0 1-1.38 1.273z" class="cls-5" data-name="Tracé 47221" transform="translate(3510.029 1070.932)"/>
                <path id="Tracé_47222" d="M-3189.056-898.92h-10.144a1.33 1.33 0 0 1-1.38-1.273 1.33 1.33 0 0 1 1.38-1.273h10.141a1.33 1.33 0 0 1 1.38 1.273 1.33 1.33 0 0 1-1.377 1.273z" class="cls-5" data-name="Tracé 47222" transform="translate(3495.288 1084.296)"/>
                <path id="Tracé_47223" d="M-3330.071-707.82h-10.14a1.33 1.33 0 0 1-1.38-1.273 1.33 1.33 0 0 1 1.38-1.273h10.14a1.33 1.33 0 0 1 1.38 1.273 1.33 1.33 0 0 1-1.38 1.273z" class="cls-5" data-name="Tracé 47223" transform="translate(3506.581 1055.419)"/>
                <path id="Tracé_47224" d="M-3262.674-790.422h-10.141a1.33 1.33 0 0 1-1.38-1.273 1.33 1.33 0 0 1 1.38-1.273h10.141a1.33 1.33 0 0 1 1.38 1.273 1.33 1.33 0 0 1-1.38 1.273z" class="cls-5" data-name="Tracé 47224" transform="translate(3501.183 1067.901)"/>
                <path id="Tracé_47225" d="M-3427.9-482.079h-10.14a1.33 1.33 0 0 1-1.38-1.273 1.33 1.33 0 0 1 1.38-1.273h10.14a1.33 1.33 0 0 1 1.38 1.273 1.33 1.33 0 0 1-1.38 1.273z" class="cls-5" data-name="Tracé 47225" transform="translate(3514.415 1021.307)"/>
                <path id="Tracé_47226" d="M-3130.292-446.27h-10.141a1.33 1.33 0 0 1-1.38-1.273 1.33 1.33 0 0 1 1.38-1.273h10.141a1.33 1.33 0 0 1 1.38 1.273 1.33 1.33 0 0 1-1.38 1.273z" class="cls-5" data-name="Tracé 47226" transform="translate(3490.582 1015.896)"/>
                <path id="Tracé_47227" d="M-3466.27-627.016h-10.14a1.33 1.33 0 0 1-1.38-1.273 1.33 1.33 0 0 1 1.38-1.273h10.14a1.33 1.33 0 0 1 1.38 1.273 1.33 1.33 0 0 1-1.38 1.273z" class="cls-5" data-name="Tracé 47227" transform="translate(3517.488 1043.208)"/>
                <path id="Tracé_47228" d="M-3392.3-615.55h-10.14a1.33 1.33 0 0 1-1.38-1.273 1.33 1.33 0 0 1 1.38-1.273h10.14a1.33 1.33 0 0 1 1.38 1.273 1.33 1.33 0 0 1-1.38 1.273z" class="cls-5" data-name="Tracé 47228" transform="translate(3511.564 1041.476)"/>
                <path id="Tracé_47229" d="M-3459.257-700.249h-10.143a1.33 1.33 0 0 1-1.38-1.273 1.33 1.33 0 0 1 1.38-1.273h10.142a1.33 1.33 0 0 1 1.38 1.273 1.33 1.33 0 0 1-1.379 1.273z" class="cls-5" data-name="Tracé 47229" transform="translate(3516.927 1054.275)"/>
                <path id="Tracé_47230" d="M-3157.005-773.87h-10.142a1.33 1.33 0 0 1-1.38-1.273 1.33 1.33 0 0 1 1.38-1.273h10.142a1.33 1.33 0 0 1 1.38 1.273 1.33 1.33 0 0 1-1.38 1.273z" class="cls-5" data-name="Tracé 47230" transform="translate(3492.721 1065.4)"/>
                <path id="Tracé_47231" d="M-3058.661-839.161h-10.139a1.33 1.33 0 0 1-1.38-1.273 1.33 1.33 0 0 1 1.38-1.273h10.142a1.33 1.33 0 0 1 1.38 1.273 1.33 1.33 0 0 1-1.383 1.273z" class="cls-5" data-name="Tracé 47231" transform="translate(3484.845 1075.266)"/>
                <path id="Tracé_47232" d="M-3509.422-762.951h-10.142a1.33 1.33 0 0 1-1.38-1.273 1.33 1.33 0 0 1 1.38-1.273h10.142a1.331 1.331 0 0 1 1.38 1.273 1.331 1.331 0 0 1-1.38 1.273z" class="cls-5" data-name="Tracé 47232" transform="translate(3520.944 1063.75)"/>
                <path id="Tracé_47233" d="M-3476.637-1019.065h-10.142a1.33 1.33 0 0 1-1.38-1.273 1.33 1.33 0 0 1 1.38-1.273h10.142a1.33 1.33 0 0 1 1.38 1.273 1.33 1.33 0 0 1-1.38 1.273z" class="cls-5" data-name="Tracé 47233" transform="translate(3518.319 1102.452)"/>
                <path id="Tracé_47234" d="M-3426.592-1097.162h-10.141a1.33 1.33 0 0 1-1.38-1.273 1.33 1.33 0 0 1 1.38-1.273h10.141a1.33 1.33 0 0 1 1.38 1.273 1.33 1.33 0 0 1-1.38 1.273z" class="cls-5" data-name="Tracé 47234" transform="translate(3514.311 1114.253)"/>
                <path id="Tracé_47235" d="M-3323.673-1114.3h-10.141a1.33 1.33 0 0 1-1.38-1.273 1.33 1.33 0 0 1 1.38-1.273h10.141a1.33 1.33 0 0 1 1.38 1.273 1.33 1.33 0 0 1-1.38 1.273z" class="cls-5" data-name="Tracé 47235" transform="translate(3506.068 1116.842)"/>
                <path id="Tracé_47236" d="M-2672.245-858.143h-10.142a1.33 1.33 0 0 1-1.38-1.273 1.33 1.33 0 0 1 1.38-1.273h10.142a1.33 1.33 0 0 1 1.38 1.273 1.33 1.33 0 0 1-1.38 1.273z" class="cls-5" data-name="Tracé 47236" transform="translate(3453.899 1078.135)"/>
                <path id="Tracé_47237" d="M-3065.673-974.666h-10.142a1.33 1.33 0 0 1-1.38-1.273 1.33 1.33 0 0 1 1.38-1.273h10.142a1.33 1.33 0 0 1 1.38 1.273 1.33 1.33 0 0 1-1.38 1.273z" class="cls-5" data-name="Tracé 47237" transform="translate(3485.406 1095.742)"/>
                <path id="Tracé_47238" d="M-2510.227-1009.744h-10.141a1.33 1.33 0 0 1-1.38-1.273 1.33 1.33 0 0 1 1.38-1.273h10.141a1.33 1.33 0 0 1 1.38 1.273 1.33 1.33 0 0 1-1.38 1.273z" class="cls-5" data-name="Tracé 47238" transform="translate(3440.924 1101.043)"/>
                <ellipse id="Ellipse_2836" cx="2.137" cy="2.082" class="cls-5" data-name="Ellipse 2836" rx="2.137" ry="2.082" transform="translate(725.995 336.603)"/>
                <path id="Tracé_47293" d="M2.2.08a2.316 2.316 0 0 1 2.28 2.1 1.941 1.941 0 0 1-2.13 1.941 2.316 2.316 0 0 1-2.28-2.1A1.941 1.941 0 0 1 2.2.08z" class="cls-5" data-name="Tracé 47293" transform="rotate(-33 850.91 -958.484)"/>
                <path id="Tracé_47294" d="M2.2.08a2.316 2.316 0 0 1 2.28 2.1 1.941 1.941 0 0 1-2.13 1.941 2.316 2.316 0 0 1-2.28-2.1A1.941 1.941 0 0 1 2.2.08z" class="cls-5" data-name="Tracé 47294" transform="rotate(-33 681.906 -973.43)"/>
                <path id="Tracé_47239" d="M-2685.38-749.161h-10.142a1.33 1.33 0 0 1-1.38-1.273 1.33 1.33 0 0 1 1.38-1.273h10.142a1.33 1.33 0 0 1 1.38 1.273 1.33 1.33 0 0 1-1.38 1.273z" class="cls-5" data-name="Tracé 47239" transform="translate(3454.951 1061.666)"/>
                <ellipse id="Ellipse_2839" cx="2.137" cy="2.082" class="cls-5" data-name="Ellipse 2839" rx="2.137" ry="2.082" transform="translate(720.536 460.226)"/>
                <path id="Tracé_47295" d="M2.2.08a2.316 2.316 0 0 1 2.28 2.1 1.941 1.941 0 0 1-2.13 1.941 2.316 2.316 0 0 1-2.28-2.1A1.941 1.941 0 0 1 2.2.08z" class="cls-5" data-name="Tracé 47295" transform="rotate(-33 1220.455 -1078.62)"/>
                <path id="Tracé_47296" d="M2.2.08a2.316 2.316 0 0 1 2.28 2.1 1.941 1.941 0 0 1-2.13 1.941 2.316 2.316 0 0 1-2.28-2.1A1.941 1.941 0 0 1 2.2.08z" class="cls-5" data-name="Tracé 47296" transform="rotate(-33 1013.89 -1240.727)"/>
                <path id="Tracé_47240" d="M-2776.862-522.256h10.141a1.33 1.33 0 0 1 1.38 1.273 1.33 1.33 0 0 1-1.38 1.273h-10.141a1.33 1.33 0 0 1-1.38-1.273 1.33 1.33 0 0 1 1.38-1.273z" class="cls-5" data-name="Tracé 47240" transform="translate(3461.465 1026.993)"/>
                <path id="Tracé_47241" d="M-2582.918-509.365h10.143a1.33 1.33 0 0 1 1.38 1.273 1.33 1.33 0 0 1-1.38 1.273h-10.143a1.33 1.33 0 0 1-1.38-1.273 1.33 1.33 0 0 1 1.38-1.273z" class="cls-5" data-name="Tracé 47241" transform="translate(3445.933 1025.045)"/>
                <path id="Tracé_47242" d="M-2589.174-623.549h-10.141a1.331 1.331 0 0 1-1.38-1.273 1.33 1.33 0 0 1 1.38-1.273h10.141a1.33 1.33 0 0 1 1.38 1.273 1.33 1.33 0 0 1-1.38 1.273z" class="cls-5" data-name="Tracé 47242" transform="translate(3447.246 1042.685)"/>
                <path id="Tracé_47243" d="M-2413.858-928.822H-2424a1.33 1.33 0 0 1-1.38-1.273 1.33 1.33 0 0 1 1.38-1.273h10.14a1.33 1.33 0 0 1 1.38 1.273 1.33 1.33 0 0 1-1.378 1.273z" class="cls-5" data-name="Tracé 47243" transform="translate(3433.206 1088.815)"/>
                <path id="Tracé_47244" d="M-2459.432-681.915h-10.141a1.33 1.33 0 0 1-1.38-1.273 1.33 1.33 0 0 1 1.38-1.273h10.141a1.33 1.33 0 0 1 1.38 1.273 1.33 1.33 0 0 1-1.38 1.273z" class="cls-5" data-name="Tracé 47244" transform="translate(3436.855 1051.504)"/>
                <path id="Tracé_47245" d="M-2383.551-788.922h-10.142a1.33 1.33 0 0 1-1.38-1.273 1.33 1.33 0 0 1 1.38-1.273h10.142a1.33 1.33 0 0 1 1.38 1.273 1.33 1.33 0 0 1-1.38 1.273z" class="cls-5" data-name="Tracé 47245" transform="translate(3430.779 1067.674)"/>
                <path id="Tracé_47246" d="M-2430.377-508.318h-10.142a1.33 1.33 0 0 1-1.38-1.273 1.33 1.33 0 0 1 1.38-1.273h10.142a1.33 1.33 0 0 1 1.38 1.273 1.33 1.33 0 0 1-1.38 1.273z" class="cls-5" data-name="Tracé 47246" transform="translate(3434.529 1025.272)"/>
                <path id="Tracé_47247" d="M-2594.177-417.332h-10.142a1.33 1.33 0 0 1-1.38-1.273 1.33 1.33 0 0 1 1.38-1.273h10.142a1.33 1.33 0 0 1 1.38 1.273 1.33 1.33 0 0 1-1.38 1.273z" class="cls-5" data-name="Tracé 47247" transform="translate(3447.647 1011.523)"/>
                <path id="Tracé_47248" d="M-2408.506-444.77h-10.141a1.33 1.33 0 0 1-1.38-1.273 1.33 1.33 0 0 1 1.38-1.273h10.141a1.33 1.33 0 0 1 1.38 1.273 1.33 1.33 0 0 1-1.38 1.273z" class="cls-5" data-name="Tracé 47248" transform="translate(3432.777 1015.669)"/>
                <path id="Tracé_47249" d="M-2655.493-468.819h-10.141a1.33 1.33 0 0 1-1.38-1.273 1.33 1.33 0 0 1 1.38-1.273h10.141a1.33 1.33 0 0 1 1.38 1.273 1.33 1.33 0 0 1-1.38 1.273z" class="cls-5" data-name="Tracé 47249" transform="translate(3452.557 1019.303)"/>
                <path id="Tracé_47250" d="M-2225.515-518.209h-10.141a1.33 1.33 0 0 1-1.38-1.273 1.33 1.33 0 0 1 1.38-1.273h10.141a1.33 1.33 0 0 1 1.38 1.273 1.33 1.33 0 0 1-1.38 1.273z" class="cls-5" data-name="Tracé 47250" transform="translate(3418.122 1026.767)"/>
                <path id="Tracé_47251" d="M-2282.3-483.925h-10.141a1.33 1.33 0 0 1-1.38-1.273 1.33 1.33 0 0 1 1.38-1.273h10.141a1.33 1.33 0 0 1 1.38 1.273 1.33 1.33 0 0 1-1.38 1.273z" class="cls-5" data-name="Tracé 47251" transform="translate(3422.67 1021.586)"/>
                <path id="Tracé_47252" d="M-2467.32-844.067h-10.141a1.33 1.33 0 0 1-1.38-1.273 1.33 1.33 0 0 1 1.38-1.273h10.141a1.33 1.33 0 0 1 1.38 1.273 1.33 1.33 0 0 1-1.38 1.273z" class="cls-5" data-name="Tracé 47252" transform="translate(3437.487 1076.007)"/>
                <path id="Tracé_47253" d="M-2268.283-733.008h-10.141a1.33 1.33 0 0 1-1.38-1.273 1.33 1.33 0 0 1 1.38-1.273h10.141a1.33 1.33 0 0 1 1.38 1.273 1.33 1.33 0 0 1-1.38 1.273z" class="cls-5" data-name="Tracé 47253" transform="translate(3421.547 1059.225)"/>
                <path id="Tracé_47254" d="M-2287.088-819.663h-10.142a1.33 1.33 0 0 1-1.38-1.273 1.33 1.33 0 0 1 1.38-1.273h10.142a1.33 1.33 0 0 1 1.38 1.273 1.33 1.33 0 0 1-1.38 1.273z" class="cls-5" data-name="Tracé 47254" transform="translate(3423.053 1072.32)"/>
                <path id="Tracé_47255" d="M-2300.836-930.322h-10.142a1.33 1.33 0 0 1-1.38-1.273 1.33 1.33 0 0 1 1.38-1.273h10.142a1.33 1.33 0 0 1 1.38 1.273 1.33 1.33 0 0 1-1.38 1.273z" class="cls-5" data-name="Tracé 47255" transform="translate(3424.155 1089.042)"/>
                <path id="Tracé_47256" d="M-2203.039-839.161h-10.142a1.33 1.33 0 0 1-1.38-1.273 1.331 1.331 0 0 1 1.38-1.273h10.142a1.331 1.331 0 0 1 1.38 1.273 1.33 1.33 0 0 1-1.38 1.273z" class="cls-5" data-name="Tracé 47256" transform="translate(3416.323 1075.266)"/>
                <path id="Tracé_47257" d="M-2944.033-1020.565h-10.14a1.33 1.33 0 0 1-1.38-1.273 1.33 1.33 0 0 1 1.38-1.273h10.14a1.33 1.33 0 0 1 1.38 1.273 1.33 1.33 0 0 1-1.38 1.273z" class="cls-5" data-name="Tracé 47257" transform="translate(3457.665 1098.678)"/>
                <path id="Tracé_47258" d="M-2973-815.709h-10.141a1.33 1.33 0 0 1-1.38-1.273 1.33 1.33 0 0 1 1.38-1.273H-2973a1.33 1.33 0 0 1 1.38 1.273 1.33 1.33 0 0 1-1.38 1.273z" class="cls-5" data-name="Tracé 47258" transform="translate(3477.985 1071.722)"/>
                <path id="Tracé_47259" d="M-2816.712-1061.926h-10.142a1.33 1.33 0 0 1-1.38-1.273 1.33 1.33 0 0 1 1.38-1.273h10.142a1.33 1.33 0 0 1 1.38 1.273 1.331 1.331 0 0 1-1.38 1.273z" class="cls-5" data-name="Tracé 47259" transform="translate(3524.469 1155.928)"/>
                <path id="Tracé_47260" d="M-2677.411-1045.643h-10.141a1.33 1.33 0 0 1-1.38-1.273 1.33 1.33 0 0 1 1.38-1.273h10.141a1.331 1.331 0 0 1 1.38 1.273 1.331 1.331 0 0 1-1.38 1.273z" class="cls-5" data-name="Tracé 47260" transform="translate(3454.313 1106.468)"/>
                <path id="Tracé_47261" d="M-2390.563-1019.065h-10.142a1.33 1.33 0 0 1-1.38-1.273 1.33 1.33 0 0 1 1.38-1.273h10.142a1.33 1.33 0 0 1 1.38 1.273 1.33 1.33 0 0 1-1.38 1.273z" class="cls-5" data-name="Tracé 47261" transform="translate(3431.34 1102.452)"/>
                <path id="Tracé_47262" d="M-2228.767-1084.222h-10.141a1.33 1.33 0 0 1-1.38-1.273 1.33 1.33 0 0 1 1.38-1.273h10.141a1.33 1.33 0 0 1 1.38 1.273 1.329 1.329 0 0 1-1.38 1.273z" class="cls-5" data-name="Tracé 47262" transform="translate(3418.383 1112.298)"/>
                <path id="Tracé_47263" d="M-2455.1-1094.222h-10.141a1.33 1.33 0 0 1-1.38-1.273 1.33 1.33 0 0 1 1.38-1.273h10.141a1.33 1.33 0 0 1 1.38 1.273 1.33 1.33 0 0 1-1.38 1.273z" class="cls-5" data-name="Tracé 47263" transform="translate(3436.509 1113.809)"/>
                <path id="Tracé_47264" d="M-2497-917.767h-10.14a1.33 1.33 0 0 1-1.38-1.273 1.33 1.33 0 0 1 1.38-1.273h10.14a1.331 1.331 0 0 1 1.38 1.273 1.331 1.331 0 0 1-1.38 1.273z" class="cls-5" data-name="Tracé 47264" transform="translate(3439.865 1087.144)"/>
                <path id="Tracé_47265" d="M-2794.914-807.584h-10.142a1.33 1.33 0 0 1-1.38-1.273 1.33 1.33 0 0 1 1.38-1.273h10.142a1.33 1.33 0 0 1 1.38 1.273 1.33 1.33 0 0 1-1.38 1.273z" class="cls-5" data-name="Tracé 47265" transform="translate(3463.723 1070.494)"/>
                <path id="Tracé_47266" d="M-2854.586-730.987h-10.141a1.329 1.329 0 0 1-1.38-1.273 1.33 1.33 0 0 1 1.38-1.273h10.141a1.33 1.33 0 0 1 1.38 1.273 1.33 1.33 0 0 1-1.38 1.273z" class="cls-5" data-name="Tracé 47266" transform="translate(3468.501 1058.92)"/>
                <path id="Tracé_47267" d="M-3097.413-664.293h-10.141a1.331 1.331 0 0 1-1.38-1.273 1.331 1.331 0 0 1 1.38-1.273h10.141a1.331 1.331 0 0 1 1.38 1.273 1.331 1.331 0 0 1-1.38 1.273z" class="cls-5" data-name="Tracé 47267" transform="translate(3487.948 1048.842)"/>
                <path id="Tracé_47268" d="M-3063.351-711.835h-10.141a1.33 1.33 0 0 1-1.38-1.273 1.331 1.331 0 0 1 1.38-1.273h10.141a1.33 1.33 0 0 1 1.38 1.273 1.33 1.33 0 0 1-1.38 1.273z" class="cls-5" data-name="Tracé 47268" transform="translate(3485.22 1056.026)"/>
                <path id="Tracé_47269" d="M-3262-598.528h-10.141a1.33 1.33 0 0 1-1.38-1.273 1.33 1.33 0 0 1 1.38-1.273H-3262a1.33 1.33 0 0 1 1.38 1.273 1.33 1.33 0 0 1-1.38 1.273z" class="cls-5" data-name="Tracé 47269" transform="translate(3501.129 1038.904)"/>
                <path id="Tracé_47270" d="M-3217.038-547.812h-10.142a1.33 1.33 0 0 1-1.38-1.273 1.33 1.33 0 0 1 1.38-1.273h10.142a1.33 1.33 0 0 1 1.38 1.273 1.33 1.33 0 0 1-1.38 1.273z" class="cls-5" data-name="Tracé 47270" transform="translate(3497.528 1031.24)"/>
                <ellipse id="Ellipse_2842" cx="2.137" cy="2.082" class="cls-5" data-name="Ellipse 2842" rx="2.137" ry="2.082" transform="translate(550.4 395.573)"/>
                <ellipse id="Ellipse_2843" cx="2.137" cy="2.082" class="cls-5" data-name="Ellipse 2843" rx="2.137" ry="2.082" transform="translate(430.757 540.881)"/>
                <ellipse id="Ellipse_2844" cx="2.137" cy="2.082" class="cls-5" data-name="Ellipse 2844" rx="2.137" ry="2.082" transform="translate(346.345 449.814)"/>
                <ellipse id="Ellipse_2845" cx="2.137" cy="2.082" class="cls-5" data-name="Ellipse 2845" rx="2.137" ry="2.082" transform="translate(357.989 490.689)"/>
                <ellipse id="Ellipse_2846" cx="2.137" cy="2.082" class="cls-5" data-name="Ellipse 2846" rx="2.137" ry="2.082" transform="translate(604.286 484.237)"/>
                <ellipse id="Ellipse_2847" cx="2.137" cy="2.082" class="cls-5" data-name="Ellipse 2847" rx="2.137" ry="2.082" transform="translate(530.876 545.046)"/>
                <ellipse id="Ellipse_2848" cx="2.137" cy="2.082" class="cls-5" data-name="Ellipse 2848" rx="2.137" ry="2.082" transform="translate(731.987 567.543)"/>
                <ellipse id="Ellipse_2849" cx="2.137" cy="2.082" class="cls-5" data-name="Ellipse 2849" rx="2.137" ry="2.082" transform="translate(480.382 403.013)"/>
                <ellipse id="Ellipse_2850" cx="2.137" cy="2.082" class="cls-5" data-name="Ellipse 2850" rx="2.137" ry="2.082" transform="translate(574.312 276.669)"/>
                <ellipse id="Ellipse_2851" cx="2.137" cy="2.082" class="cls-5" data-name="Ellipse 2851" rx="2.137" ry="2.082" transform="translate(557.808 185.376)"/>
                <path id="Tracé_47271" d="M-2944.032-702.578h-10.141a1.33 1.33 0 0 1-1.38-1.273 1.33 1.33 0 0 1 1.38-1.273h10.141a1.33 1.33 0 0 1 1.38 1.273 1.33 1.33 0 0 1-1.38 1.273z" class="cls-5" data-name="Tracé 47271" transform="translate(3475.665 1054.627)"/>
                <path id="Tracé_47272" d="M-2753.921-845.674h-10.141a1.33 1.33 0 0 1-1.38-1.273 1.33 1.33 0 0 1 1.38-1.273h10.141a1.33 1.33 0 0 1 1.38 1.273 1.33 1.33 0 0 1-1.38 1.273z" class="cls-5" data-name="Tracé 47272" transform="translate(3460.44 1076.25)"/>
                <path id="Tracé_47273" d="M-2839.254-944.752h-10.141a1.33 1.33 0 0 1-1.38-1.273 1.33 1.33 0 0 1 1.38-1.273h10.141a1.33 1.33 0 0 1 1.38 1.273 1.331 1.331 0 0 1-1.38 1.273z" class="cls-5" data-name="Tracé 47273" transform="translate(3491.274 1082.222)"/>
                <path id="Tracé_47274" d="M-3047.507-597.068h-10.141a1.33 1.33 0 0 1-1.38-1.273 1.33 1.33 0 0 1 1.38-1.273h10.141a1.33 1.33 0 0 1 1.38 1.273 1.33 1.33 0 0 1-1.38 1.273z" class="cls-5" data-name="Tracé 47274" transform="translate(3483.952 1038.683)"/>
                <path id="Tracé_47275" d="M-3015.553-536.8h-10.141a1.33 1.33 0 0 1-1.38-1.273 1.33 1.33 0 0 1 1.38-1.273h10.141a1.33 1.33 0 0 1 1.38 1.273 1.33 1.33 0 0 1-1.38 1.273z" class="cls-5" data-name="Tracé 47275" transform="translate(3481.392 1029.577)"/>
                <ellipse id="Ellipse_2852" cx="2.137" cy="2.082" class="cls-5" data-name="Ellipse 2852" rx="2.137" ry="2.082" transform="translate(738.319 395.573)"/>
                <ellipse id="Ellipse_2853" cx="2.137" cy="2.082" class="cls-5" data-name="Ellipse 2853" rx="2.137" ry="2.082" transform="translate(618.676 540.881)"/>
                <ellipse id="Ellipse_2854" cx="2.137" cy="2.082" class="cls-5" data-name="Ellipse 2854" rx="2.137" ry="2.082" transform="translate(553.535 453.978)"/>
                <ellipse id="Ellipse_2855" cx="2.137" cy="2.082" class="cls-5" data-name="Ellipse 2855" rx="2.137" ry="2.082" transform="translate(668.301 403.013)"/>
                <path id="Tracé_47276" d="M-2542.114-828.121h-10.141a1.33 1.33 0 0 1-1.38-1.273 1.33 1.33 0 0 1 1.38-1.273h10.141a1.33 1.33 0 0 1 1.38 1.273 1.33 1.33 0 0 1-1.38 1.273z" class="cls-5" data-name="Tracé 47276" transform="translate(3443.477 1073.598)"/>
                <path id="Tracé_47277" d="M-2843.228-597.068h-10.142a1.33 1.33 0 0 1-1.38-1.273 1.33 1.33 0 0 1 1.38-1.273h10.142a1.33 1.33 0 0 1 1.38 1.273 1.33 1.33 0 0 1-1.38 1.273z" class="cls-5" data-name="Tracé 47277" transform="translate(3467.592 1038.683)"/>
            </g>
        </g>
    </g>
</svg>
