<svg xmlns="http://www.w3.org/2000/svg" id="linkedin" width="18.055" height="17.259" viewBox="0 0 18.055 17.259">
    <defs>
        <style>
            .cls-1{fill:#701663}
        </style>
    </defs>
    <path id="Tracé_30314" d="M226.713 737.853a1.861 1.861 0 0 1-.592 1.436 2.216 2.216 0 0 1-1.592.577h-.029a2.126 2.126 0 0 1-1.553-.577 1.932 1.932 0 0 1-.586-1.436 1.9 1.9 0 0 1 .6-1.439 2.218 2.218 0 0 1 1.58-.571 2.161 2.161 0 0 1 1.565.571 1.958 1.958 0 0 1 .607 1.439zm-.246 3.6V753.1h-3.878v-11.65zm13.954 4.972v6.675h-3.866v-6.231a3.393 3.393 0 0 0-.478-1.935 1.669 1.669 0 0 0-1.487-.7 1.909 1.909 0 0 0-1.241.405 2.534 2.534 0 0 0-.745 1.006 2.818 2.818 0 0 0-.129.952v6.5h-3.869q.027-4.691.024-7.606t-.012-3.479l-.012-.565h3.869v1.691h-.024a5.157 5.157 0 0 1 .484-.658 4.886 4.886 0 0 1 .664-.61 3.018 3.018 0 0 1 1.021-.511 4.6 4.6 0 0 1 1.346-.183 4.174 4.174 0 0 1 3.232 1.334 5.587 5.587 0 0 1 1.223 3.914z" class="cls-1" data-name="Tracé 30314" transform="translate(-222.366 -735.844)"/>
</svg>
