<svg xmlns="http://www.w3.org/2000/svg" width="17.394" height="17.394" viewBox="0 0 17.394 17.394">
    <defs>
        <style>
            .cls-1{fill:#701663}
        </style>
    </defs>
    <path id="telegram" d="M433.986 514.878a.621.621 0 0 1 .613.729l-2.485 14.909a.617.617 0 0 1-.613.514.669.669 0 0 1-.233-.05l-4.4-1.8-2.349 2.865a.573.573 0 0 1-.476.223.5.5 0 0 1-.213-.04.623.623 0 0 1-.407-.583v-3.385l8.386-10.278-10.378 8.976-3.832-1.573a.568.568 0 0 1-.389-.533.581.581 0 0 1 .31-.573l16.152-9.316a.583.583 0 0 1 .31-.089z" class="cls-1" transform="translate(-417.214 -514.878)"/>
</svg>
