<svg xmlns="http://www.w3.org/2000/svg" id="twitter" width="17.523" height="14.231" viewBox="0 0 17.523 14.231">
    <defs>
        <style>
            .cls-1{fill:#701663}
        </style>
    </defs>
    <path id="Tracé_30318" d="M237.742 277.661a7.2 7.2 0 0 0 2.068-.554 7.607 7.607 0 0 1-1.8 1.855c.006.105.011.261.011.469a10.209 10.209 0 0 1-.423 2.884 10.4 10.4 0 0 1-1.284 2.762 10.847 10.847 0 0 1-2.051 2.341 9.107 9.107 0 0 1-2.869 1.622 10.442 10.442 0 0 1-3.591.608 9.957 9.957 0 0 1-5.514-1.614 7.321 7.321 0 0 0 .869.045 7.029 7.029 0 0 0 4.458-1.534 3.593 3.593 0 0 1-3.358-2.492 4.23 4.23 0 0 0 .679.057 3.659 3.659 0 0 0 .943-.122 3.535 3.535 0 0 1-2.063-1.239 3.482 3.482 0 0 1-.815-2.287v-.043a3.569 3.569 0 0 0 1.622.455 3.586 3.586 0 0 1-1.168-1.279 3.6 3.6 0 0 1 .057-3.523 10.143 10.143 0 0 0 3.273 2.651 10.025 10.025 0 0 0 4.131 1.105 3.939 3.939 0 0 1-.088-.821 3.594 3.594 0 0 1 6.213-2.457 7.094 7.094 0 0 0 2.279-.866 3.47 3.47 0 0 1-1.577 1.977z" class="cls-1" data-name="Tracé 30318" transform="translate(-222.287 -275.417)"/>
</svg>
