<svg xmlns="http://www.w3.org/2000/svg" id="youtube" width="14.626" height="17.688" viewBox="0 0 14.626 17.688">
    <defs>
        <style>
            .cls-1{fill:#701663}
        </style>
    </defs>
    <path id="Tracé_30319" d="M41.491 523.985a16.7 16.7 0 0 1 .257 3.453 17.065 17.065 0 0 1-.257 3.455 1.867 1.867 0 0 1-.57.976 1.709 1.709 0 0 1-1.009.454 52.469 52.469 0 0 1-5.476.209 52.491 52.491 0 0 1-5.478-.209 1.723 1.723 0 0 1-1.011-.454 1.769 1.769 0 0 1-.567-.976 16.712 16.712 0 0 1-.257-3.455 17.052 17.052 0 0 1 .257-3.453 1.885 1.885 0 0 1 .57-.979 1.816 1.816 0 0 1 1.019-.464q1.8-.2 5.468-.2t5.476.2a1.817 1.817 0 0 1 1.011.464 1.785 1.785 0 0 1 .567.979zm-11.252 1H31.3v-.928h-3.08v.928h1.037v5.615h.986zm1.66-10.136h1.006l-1.2 3.94v2.674h-.986v-2.674a16.239 16.239 0 0 0-.6-2.093q-.363-1.018-.641-1.846h1.047l.7 2.6zm1.183 15.751h.88v-4.88h-.88v3.733c-.2.275-.383.414-.562.414-.119 0-.187-.068-.207-.207a3.107 3.107 0 0 1-.01-.346v-3.594h-.878v3.861a2.425 2.425 0 0 0 .078.719.532.532 0 0 0 .573.366 1.444 1.444 0 0 0 1.006-.6zm2.192-13.622a1.927 1.927 0 0 1 .277 1.155v1.728a1.947 1.947 0 0 1-.277 1.165 1.332 1.332 0 0 1-2.083 0 1.974 1.974 0 0 1-.275-1.165v-1.728a1.929 1.929 0 0 1 .275-1.155 1.332 1.332 0 0 1 2.083 0zm-.62 3.049v-2.071c0-.454-.144-.681-.426-.681s-.424.227-.424.681v2.071c0 .461.141.691.424.691s.425-.232.425-.693zm2.575 10.1a3.7 3.7 0 0 0 .088-.989v-1.942a3.572 3.572 0 0 0-.088-.978.685.685 0 0 0-.7-.552 1.188 1.188 0 0 0-.918.532v-2.141h-.878v6.543h.878v-.474a1.232 1.232 0 0 0 .918.542.684.684 0 0 0 .7-.542zm-1.175-3.662c.257 0 .386.222.386.661v2.083c0 .441-.129.661-.386.661a.639.639 0 0 1-.444-.217v-2.971a.64.64 0 0 1 .444-.217zm2.8-9.93v4.926h-.9v-.542a1.42 1.42 0 0 1-1.019.61.544.544 0 0 1-.58-.363 2.523 2.523 0 0 1-.081-.741v-3.889h.9v3.622a2.913 2.913 0 0 0 .01.346c.02.146.091.217.207.217.179 0 .366-.141.565-.424v-3.761zm1.776 13.078a4.4 4.4 0 0 0 .02-.573v-.129h-.9a4.986 4.986 0 0 1-.02.6.379.379 0 0 1-.4.356q-.454 0-.454-.681v-.858h1.768v-1.017a1.945 1.945 0 0 0-.267-1.145 1.346 1.346 0 0 0-2.1 0 1.9 1.9 0 0 0-.277 1.145v1.708a1.838 1.838 0 0 0 .288 1.143 1.256 1.256 0 0 0 1.064.5 1.219 1.219 0 0 0 1.274-1.057zm-.858-2.477v.454h-.89v-.454c0-.446.149-.671.444-.671s.45.221.45.667z" class="cls-1" data-name="Tracé 30319" transform="translate(-27.122 -514.844)"/>
</svg>
