<svg id="Calque_1" data-name="Calque 1" xmlns="http://www.w3.org/2000/svg" viewBox="0 0 57.79 29.2"><defs><style>.cls-1{fill:#636362;}.cls-2{fill:#702963;}.cls-3{fill:#fff;}</style></defs><path class="cls-1" d="M16.92,14.94a2.31,2.31,0,0,0,2.48,2.44c2,0,2-1.32,3.1-1.32a1.11,1.11,0,0,1,1.1,1.05c0,1.61-2.59,2.36-4.2,2.36-3.75,0-5.16-2.53-5.16-4.86,0-3.12,1.89-5.21,5.07-5.21a4.51,4.51,0,0,1,4.84,4.38c0,.92-.27,1.16-1.17,1.16Zm4.7-1.54a2.3,2.3,0,0,0-2.26-2.13,2.41,2.41,0,0,0-2.44,2.13Z"/><path class="cls-1" d="M29.14,9.37c2.53,0,3.91,1.58,3.91,2.52a.9.9,0,0,1-1,1c-1.27,0-.89-1.74-2.91-1.74-1.38,0-2.52,1.19-2.52,3.28,0,1.76.7,3.29,2.6,3.29,1.73,0,1.69-1.85,2.75-1.85a1,1,0,0,1,1.08.85c0,1.39-1.69,2.77-3.83,2.77-3,0-4.8-1.73-4.8-5.06C24.42,11.7,26,9.37,29.14,9.37Z"/><path class="cls-1" d="M33.32,10.53a1.1,1.1,0,1,1,2.2,0v7.85a1.1,1.1,0,1,1-2.2,0Z"/><path class="cls-1" d="M33.8,17.65h6.06c1.14,0,1.77-.34,1.77-1,0-.39-.19-.82-.94-1L38.21,15c-2-.51-2.36-1.61-2.36-2.64,0-2.15,2-3,3.85-3,1.71,0,3.74,1,3.74,2.25a.91.91,0,0,1-1,.87c-1,0-.83-1.43-2.88-1.43-1,0-1.58.47-1.58,1.14s.8.88,1.5,1l1.84.42c2,.46,2.52,1.65,2.52,2.78,0,1.74-1.32,3-4,3H34.42"/><path class="cls-1" d="M44.93,6.16s0-.1,0-.09,0,.25.09.3V6.3c0,.09,0,.21.07.31l.17.33V6.87a1.35,1.35,0,0,1,.09.22h0v0l0,0c.13-.54.24-1,.32-1.46a2.36,2.36,0,0,1,0-.3A1.26,1.26,0,0,1,45.91,5c-.09-.13-.07-.33-.19-.4s.05-.07,0-.09l-.13-.13s-.09-.06-.08-.14.08-.09.07-.12-.1,0-.12,0c-.14.22-.08.12-.09.16v0a.43.43,0,0,1,0,.16.11.11,0,0,1,0-.07h0s0,0-.05,0a.16.16,0,0,1-.1,0l0,.08s0,0,0,0-.1.07-.15.17-.07.07-.08.14l0-.06s.07.06,0,.09,0,0,0-.07,0,.11,0,.15,0-.14,0-.09,0,0,0,0-.15-.09-.14.06a.52.52,0,0,0-.06-.13h0a.49.49,0,0,0,0,.07l0-.06v0a.14.14,0,0,0,0,.06l0,0s0,0,0,.08,0,.18,0,.21C44.65,5.38,44.79,5.82,44.93,6.16Z"/><path class="cls-1" d="M49.67,12.4c0-.05,0-.13,0-.12s.06.33.11.39l0-.09c0,.12.06.28.1.41a4.1,4.1,0,0,0,.21.42c0-.05,0-.09,0-.09a1.46,1.46,0,0,1,.11.28v0a.25.25,0,0,0,0-.09l0,.1h0c.15-.7.27-1.38.36-1.94,0-.16,0-.3,0-.4a2.57,2.57,0,0,1,.15-.29c-.11-.19-.09-.47-.22-.59s0-.09,0-.13a2,2,0,0,1-.27-.4s.06,0,0,0-.1,0-.14-.06a.19.19,0,0,0-.07.12.45.45,0,0,0,0,.08v0a.67.67,0,0,1,0,.2s0,0,0-.09h0s0,0-.06,0a.27.27,0,0,1-.12.07l0,.11s0-.06-.06,0-.13.09-.19.22-.09.09-.1.18l-.05-.09s.09.09,0,.13-.06-.06-.08-.1.06.15,0,.2,0-.18-.06-.12,0,.05,0,.07-.2-.13-.19.07c0-.05,0-.14-.07-.18h0s0,.07,0,.1l0-.09,0,0s0,.05,0,.07l0-.05,0,.1a1.16,1.16,0,0,0,0,.28C49.3,11.4,49.48,12,49.67,12.4Z"/><path class="cls-1" d="M50.18,7.76s0,.06,0,0-.12-.14-.22-.15l0,0a1.18,1.18,0,0,0-.19-.11,1.07,1.07,0,0,0-.4,0s0,0,0,0a1,1,0,0,1-.2,0l0,0a.06.06,0,0,0,0,0H49a1.22,1.22,0,0,0-.58.89h0l0,.32h0l.19.06c.08,0,.16.12.24.16.06-.14.25-.15.26-.31,0,0,.09,0,.1,0a1,1,0,0,1,.16-.35s.08,0,.09,0,0-.09,0-.13c-.16,0-.22,0-.28-.09,0,.25.07.5.11.75l0,0a.1.1,0,0,1,.05-.12c.06,0,.16,0,.15,0h.08a.2.2,0,0,1,.11,0,.18.18,0,0,1,.07-.05s0,0,0,.05.11,0,.21-.05.1,0,.16-.07,0,.05,0,.08,0-.1.06-.09,0,.07,0,.11,0-.14.1-.15-.09.13,0,.13,0-.05,0-.07,0,.2.16.06c0,.05-.06.12-.06.16h0a.73.73,0,0,0,0-.09l0,.09,0,0a.21.21,0,0,0,0-.06l0,.06.09-.06a.45.45,0,0,0,.14-.21A1,1,0,0,0,50.18,7.76Z"/><path class="cls-1" d="M48.52,9.14s0,0,.07,0,0,.19.11.24l0,0a1.24,1.24,0,0,0,.1.2,1.2,1.2,0,0,0,.34.21s0,0,0,0,.11.06.19.09h0l0,0,.09,0a1.16,1.16,0,0,0,1-.45h0l.14-.28v0a1,1,0,0,1-.14-.15c-.05-.08-.07-.19-.12-.26-.12.08-.29,0-.38.13,0,0-.07-.08-.1,0a.77.77,0,0,1-.32.21s0-.06-.06,0,0,.1,0,.13.17.15.2.22c.09-.23.19-.46.29-.69l0,0a.1.1,0,0,1-.1.08c-.07,0-.14-.08-.12-.09h0s0,0-.07-.05l-.1-.05h-.08s0,0,0-.05-.09-.07-.21-.07-.09-.05-.17,0l.06-.07s0,.09-.1.05,0-.06.07-.09-.11.09-.17.07.15-.06.09-.09-.05,0-.06,0,.06-.2-.11-.14c0,0,.11-.06.14-.1h0l-.09,0L49,8h0l-.06,0,0,0h-.1c-.1,0-.21.07-.23.11A1,1,0,0,0,48.52,9.14Z"/><path class="cls-1" d="M45.46,2.08s0,0,0,0S45.32,2,45.24,2l0,0-.16-.1a.92.92,0,0,0-.33,0s0,0,0,0l-.17,0h0s0,0,0,0h-.08a1,1,0,0,0-.48.74h0l0,.26h0l.17.05.19.14c.05-.12.21-.13.22-.26s.08,0,.09,0a.71.71,0,0,1,.13-.29s.06,0,.07,0,0-.08,0-.11a1.7,1.7,0,0,1-.23-.07c0,.2.06.41.1.61,0,0,0,0,0,0a.09.09,0,0,1,0-.1.13.13,0,0,1,.13,0h.15l.06,0s0,0,0,0,.09,0,.17,0,.09,0,.14-.06l0,.07s0-.08.05-.08,0,.06,0,.09,0-.11.09-.12-.08.11,0,.11,0,0,0-.06.05.17.14,0c0,0,0,.1-.06.14h0s0-.06,0-.08l0,.07h0l0-.05v.05L45.76,3c.05-.06.12-.14.12-.17A.84.84,0,0,0,45.46,2.08Z"/><path class="cls-1" d="M44.09,3.22s0,0,0,0,0,.16.09.2h0a1.19,1.19,0,0,0,.08.16,1.05,1.05,0,0,0,.29.17s0,0,0,0l.15.07h0s0,0,0,0l.07,0a1,1,0,0,0,.79-.38h0l.11-.23h0L45.72,3c0-.06-.06-.16-.1-.22s-.24,0-.32.11,0-.06-.08,0a.81.81,0,0,1-.26.18s0-.06-.06,0,0,.09,0,.11.14.12.17.18l.24-.57,0,0a.06.06,0,0,1-.08.06s-.11-.06-.1-.07h0s0,0,0,0a.2.2,0,0,1-.08,0h-.07s0,0,0,0-.07,0-.17-.06-.08,0-.14,0l.05,0s0,.07-.09,0,0,0,.06-.07-.09.08-.13.06.12,0,.06-.08,0,0,0,0,0-.16-.09-.11c0,0,.09-.05.11-.09h0l-.07.05.06-.05h0l-.06,0,0,0h-.08c-.09,0-.18,0-.2.09A.84.84,0,0,0,44.09,3.22Z"/><path class="cls-2" d="M51.69,2.45l0,0a.76.76,0,0,0-.1.29,1.22,1.22,0,0,0,.87.9s0-.07,0-.07.18.11.3.09V3.63A1,1,0,0,0,53,3.7a1.37,1.37,0,0,0,.45-.13s0,0,0,0l.23-.09,0,0s0,0,0,0l.1-.05a1.27,1.27,0,0,0,.3-.51h0a1.38,1.38,0,0,0,.06-.66h0l-.13-.35h0a.9.9,0,0,0-.14-.2s0,.06-.06,0-.1-.19-.2-.23l0,0a1.12,1.12,0,0,0-.18-.2,1.66,1.66,0,0,0-.45-.12s0,0,0,0-.14,0-.23,0h0a.06.06,0,0,0,0,0l-.11,0a1.41,1.41,0,0,0-.93.81V2l-.06.36h0Z"/><path class="cls-2" d="M55.32,5.52a3.71,3.71,0,0,0-1.14-.82s0,0-.06,0a9.74,9.74,0,0,0-1.29-.47l-.21,0a.23.23,0,0,0-.09,0l-.6-.13c-.59-.1-1.21-.16-1.82-.22s-1.23,0-1.85,0S47,3.92,46.37,4s-1.27.18-1.92.31-1.08.25-1.61.36c-.77.16-1.76.36-2.51.55.07,0-.35.19-.73.33s-.73.3-.53.3a7.94,7.94,0,0,0-1.25.42c-.07.15-.43.34-1.6,1a13.44,13.44,0,0,0-1.31.72c-.23.17.61-.29.38-.11a20,20,0,0,1,5.34-2,43.82,43.82,0,0,1,5.73-1.06,19.5,19.5,0,0,1,4.72,0l0,0A.46.46,0,0,1,51,4.9s0,.09,0,.11c0,.37,0,.94,0,1.39,0,0,.06-.1.07-.08s-.07.31,0,.38l0-.07c0,.12,0,.27-.07.4s0,.32,0,.46l0-.08a.22.22,0,0,1,0,.09s.06,0,.1-.06l0,0a.63.63,0,0,0,0-.09l.08,0a17,17,0,0,0,1.09-1.34,2,2,0,0,1,.17-.28,1.81,1.81,0,0,1,.29-.19.57.57,0,0,1,0-.29A5.37,5.37,0,0,1,54,5.67a1.63,1.63,0,0,1,.9,1.15,1.35,1.35,0,0,1-.58,1,5.65,5.65,0,0,1-.9.62l-.18.11A13.75,13.75,0,0,1,49.77,10a5.65,5.65,0,0,1-.71.17,6.1,6.1,0,0,1-.72.14,4.23,4.23,0,0,0,.63,0c-.5.09-1,.09-1.19.13-1.07,0-.47.11-.05.19s-.11.09.37.09a4.92,4.92,0,0,1-.86,0,1.92,1.92,0,0,0,.49,0c.24,0,.45,0,.33,0a9.15,9.15,0,0,1-1.05,0,4.74,4.74,0,0,0,.64,0c.28,0,.54,0,.51,0H47.6a1.4,1.4,0,0,0-.48,0s.33,0,.51,0c-1.07,0-1.68-.05-.69.1-.35,0-.83-.13-1.2-.16h0l.66.11-.62-.09.1,0,.47.08L46,10.84l.34.1.36.08.34,0,.54,0a12.77,12.77,0,0,0,6.18-1.67s-.11,0,0-.08a6.61,6.61,0,0,0,1.34-.91v0A2.21,2.21,0,0,0,55.88,7,2.08,2.08,0,0,0,55.32,5.52Zm-4.21-.71Zm.06,0h0l0,0Zm.19,0h0A0,0,0,0,1,51.36,4.85Zm0,0h0s0,.06,0,.07S51.4,4.89,51.4,4.86Zm.09,0Z"/><path class="cls-3" d="M9.05,8c.07,0,.14,0,.15.07,0,.29-.29.45-.3.75l.09,0c-.1.2-.25.41-.38.62-.14.44-.29.87-.44,1.31,0,0,.08,0,.07.06a4.05,4.05,0,0,1-.32.69l0,.12a.17.17,0,0,0,.06.08l-.17.31c-.4,1.38-.8,2.84-1.15,4.42a8.13,8.13,0,0,1-.11,1c-.12.48-.37,1-.5,1.5.36,0,.29,1.18.71,1-.08.3-.15.74,0,.78.3.11.61.4.74,1.12,0,.28-.09.7,0,.79s.22-.36.32-.2a19.14,19.14,0,0,1,1.53-6.19A24.44,24.44,0,0,1,10.52,13a34.31,34.31,0,0,0,1.54-4.08l0-.15a6.62,6.62,0,0,0,.19-2.67,9.22,9.22,0,0,0-.34-1,2.52,2.52,0,0,1-.16.44,1.75,1.75,0,0,0-.12-.8c-.25-.69-.38-.24-.6,0s-.29,0-.36.27l0-.51c-.11,0,.13.61-.06.49a2,2,0,0,0-.11-.59c-.11.09,0,.69-.1.67s.13-.57-.06-.58c0,0,0,.19,0,.29-.14-.58-.41-.83-.47-.29a4.58,4.58,0,0,0-.08-.62h0c0,.09,0,.26,0,.34l-.06-.31L9.68,4a.69.69,0,0,0,0,.25l0-.21-.12.21a5.81,5.81,0,0,0-.16.64A10.08,10.08,0,0,1,9.05,8Z"/><path class="cls-3" d="M9.55,9.05c.06,0,.09-.13.17,0,.23.43.16.87.34,1.23h.11c.05.37.11.77.17,1.17.22.73.45,1.45.71,2.16,0,0,.06,0,.09,0,.12.3.21.72.34,1.16l.08.18a.12.12,0,0,0,.1,0c.06.19.1.37.14.53A57.91,57.91,0,0,0,15,21.76c.31.42.63.84.89,1.27s.38.68.57,1,.39.74.57,1.05c.25-.27,1.35,1.07,1.47.57.24.4.67.95.77.92a.9.9,0,0,1,.63.05,3.46,3.46,0,0,1,1.08.71c.33.31.72.92.87,1s-.24-.59,0-.47a31.93,31.93,0,0,1-5.39-8.63,34.74,34.74,0,0,1-2-5c-.4-1.18-.76-2.4-1.06-3.46-.07-.27-.14-.52-.21-.76l-.09-.35-.12-.39c-.15-.48-.28-.83-.37-1.1L12.49,8c-.42-1.14-.94-2.4-1.34-3.25-.2-.38-.42-.77-.59-1.15,0,.19,0,.39-.07.56a7.38,7.38,0,0,0-.24-1c-.13-.43-.19-.52-.29-.46s-.2.28-.31.48-.3-.07-.34.39a5.42,5.42,0,0,1-.07-.81c-.13,0,.15,1,0,.79,0-.32-.11-.66-.1-1-.17.13,0,1.17-.1,1.13s.08-1-.07-1,0,.34,0,.5c-.08-.52-.1-1-.14-1.14s-.18-.1-.3.45a3.1,3.1,0,0,1,.11-.67c.05-.23.17-.49.22-.7h0a3,3,0,0,0-.26.77,3.78,3.78,0,0,1,.21-.74l-.12.11a2.47,2.47,0,0,0-.19.56,2.71,2.71,0,0,1,.14-.5,2,2,0,0,0-.28.4A7.9,7.9,0,0,0,8,2.51,1.91,1.91,0,0,0,8,3.12a13.1,13.1,0,0,0,.62,3.17C8.87,7.26,9.22,8.18,9.55,9.05Z"/><path class="cls-3" d="M11.42,15.38c0,.06.05.13,0,.16s-.39-.14-.59-.07l0,.11-.51-.13c-.32,0-.63.07-.95.12,0,0,0,.08,0,.09a2,2,0,0,1-.5,0l-.08,0a.16.16,0,0,0,0,.09l-.23,0c-.91.26-1.8.58-2.78.88a2.76,2.76,0,0,1-.61.28,4.49,4.49,0,0,1-1,0c.06.37-.65.58-.49.95-.2,0-.5,0-.51.11a1,1,0,0,1-.72.89c-.2.05-.53-.07-.6,0s.27.21.16.32A38.65,38.65,0,0,0,6.55,19a15.7,15.7,0,0,1,2.3-.32c1-.08,2.11-.14,2.55-.12h.08a4,4,0,0,0,1.44-.13c.18-.08.37-.19.56-.29l-.23-.18c.19,0,.38,0,.46,0,.41-.15.19-.34,0-.6-.11-.11.06-.28-.12-.39l.33,0c0-.11-.41.05-.31-.13.12.05.27,0,.4,0,0-.14-.45-.06-.43-.2s.37.2.4,0c0,0-.13,0-.19,0,.41-.05.65-.22.28-.41a2.22,2.22,0,0,0,.45.06h0a2.21,2.21,0,0,0-.25-.05h.24l0-.07-.18,0h.16l-.12-.16c-.18-.12-.36-.29-.46-.29C13.09,15.47,12.25,15.4,11.42,15.38Z"/><path class="cls-2" d="M21.46,27.9a31.69,31.69,0,0,1-5.39-8.63,33.57,33.57,0,0,1-2-5c-.4-1.18-.76-2.4-1.06-3.46-.07-.27-.14-.52-.21-.76l-.1-.35c0-.14-.07-.26-.11-.39-.15-.48-.28-.83-.37-1.1L12.12,8l-.18-.48a6.16,6.16,0,0,0,0-1.44,9.22,9.22,0,0,0-.34-1,2.52,2.52,0,0,1-.16.44,1.9,1.9,0,0,0-.12-.8c-.23-.63-.36-.31-.55,0-.19-.36-.39-.72-.55-1.08,0,.19,0,.39-.07.56a7.38,7.38,0,0,0-.24-1c-.13-.43-.19-.52-.29-.46s-.2.28-.31.48-.3-.07-.34.39a5.42,5.42,0,0,1-.07-.81c-.13,0,.15,1,0,.79,0-.32-.11-.66-.09-1-.17.13,0,1.17-.1,1.13s.08-1-.08-1,0,.34,0,.5c-.08-.52-.1-1-.14-1.14s-.18-.1-.3.45a3.1,3.1,0,0,1,.11-.67c0-.23.16-.49.22-.7h0a3,3,0,0,0-.26.77,3.78,3.78,0,0,1,.21-.74l-.12.11c0,.12-.11.26-.15.39a2.07,2.07,0,0,1,.1-.33,2.58,2.58,0,0,0-.29.4,7.68,7.68,0,0,0-.26.83,1.91,1.91,0,0,0-.08.61A13.1,13.1,0,0,0,8.2,6.29c.16.53.34,1,.52,1.53,0,0,0,.11,0,.17h.1l0,.1c0,.27-.28.43-.29.71l.09,0c-.11.2-.26.41-.38.62-.14.44-.29.87-.44,1.31,0,0,.08,0,.07.06a5,5,0,0,1-.32.69l0,.12a.17.17,0,0,0,.06.08l-.17.31C7,13.39,6.62,14.8,6.28,16.34l-1,.3a3,3,0,0,1-.61.28,4.59,4.59,0,0,1-1,0c.07.37-.64.58-.49.95-.19,0-.49,0-.5.11a1,1,0,0,1-.72.89c-.21.05-.53-.07-.6,0s.27.21.15.32A34,34,0,0,0,5.64,19h0c.36,0,.29,1.18.71,1-.08.3-.15.74-.06.78.31.11.62.4.75,1.12,0,.28-.09.7,0,.79s.22-.36.32-.2A16.68,16.68,0,0,1,8,18.67l.45,0c1-.08,2.11-.14,2.55-.12h.08a4,4,0,0,0,1.43-.13l.17-.08c.57,1.14,1.19,2.29,1.88,3.47.32.42.63.84.9,1.27s.38.68.57,1,.39.74.57,1.05c.25-.27,1.35,1.07,1.47.57.24.4.66.95.76.92a.92.92,0,0,1,.64.05,3.44,3.44,0,0,1,1.07.71c.34.31.73.92.88,1S21.21,27.78,21.46,27.9ZM11,15.54c-.21.06-.39-.14-.6-.07v.11l-.51-.13c-.27,0-.54.06-.82.11.24-.66.63-1.6,1.06-2.59.06-.13.12-.26.17-.39.12.34.23.69.36,1,0,0,.06,0,.09,0,.12.3.21.72.34,1.16l.08.18a.1.1,0,0,0,.1,0c0,.13.07.26.1.38l-.34,0C11.05,15.44,11.1,15.51,11,15.54Z"/></svg>