<svg id="Calque_1" data-name="Calque 1" xmlns="http://www.w3.org/2000/svg" viewBox="0 0 55.39 24.46"><defs><style>.cls-1{fill:#702963;}.cls-2{fill:#636566;}.cls-3{fill:#636362;}</style></defs><path class="cls-1" d="M6.66,11.25a2.22,2.22,0,0,1-.74,1.59,2.62,2.62,0,0,1-1.78.59,2.36,2.36,0,0,1-1.89-.82,3.27,3.27,0,0,1-.7-2.22V10a3.79,3.79,0,0,1,.32-1.59,2.41,2.41,0,0,1,.91-1A2.55,2.55,0,0,1,4.16,7a2.52,2.52,0,0,1,1.74.58A2.36,2.36,0,0,1,6.67,9.2H5.38A1.28,1.28,0,0,0,5,8.32a1.25,1.25,0,0,0-.88-.27,1.11,1.11,0,0,0-1,.46,2.67,2.67,0,0,0-.33,1.43v.48a2.81,2.81,0,0,0,.31,1.48,1.09,1.09,0,0,0,1,.47A1.26,1.26,0,0,0,5,12.1a1.24,1.24,0,0,0,.34-.85Z"/><path class="cls-1" d="M7.23,11A2.76,2.76,0,0,1,7.5,9.73a2,2,0,0,1,.77-.84A2.29,2.29,0,0,1,9.43,8.6,2.14,2.14,0,0,1,11,9.17a2.35,2.35,0,0,1,.67,1.57v.32a2.44,2.44,0,0,1-.6,1.72,2.1,2.1,0,0,1-1.61.65,2.12,2.12,0,0,1-1.61-.65A2.49,2.49,0,0,1,7.23,11Zm1.25.09a1.69,1.69,0,0,0,.25,1,.79.79,0,0,0,.71.35.83.83,0,0,0,.71-.34A1.94,1.94,0,0,0,10.4,11a1.71,1.71,0,0,0-.25-1,.83.83,0,0,0-.72-.36.8.8,0,0,0-.7.36A1.88,1.88,0,0,0,8.48,11.06Z"/><path class="cls-1" d="M13.56,8.68l0,.54a1.65,1.65,0,0,1,1.34-.62A1.33,1.33,0,0,1,16,9a1.94,1.94,0,0,1,.37,1.3v3H15.16v-3A.83.83,0,0,0,15,9.79a.78.78,0,0,0-.57-.18.85.85,0,0,0-.79.45v3.28H12.39V8.68Z"/><path class="cls-1" d="M19.87,12.05a.41.41,0,0,0-.23-.36,2.89,2.89,0,0,0-.72-.23c-1.11-.23-1.66-.7-1.66-1.41a1.29,1.29,0,0,1,.51-1,2.11,2.11,0,0,1,1.35-.41A2.25,2.25,0,0,1,20.53,9a1.3,1.3,0,0,1,.53,1.09H19.82a.6.6,0,0,0-.17-.44.89.89,0,0,0-1,0,.45.45,0,0,0-.17.36.39.39,0,0,0,.2.33,1.85,1.85,0,0,0,.66.22,4.77,4.77,0,0,1,.78.21,1.29,1.29,0,0,1,1,1.25,1.19,1.19,0,0,1-.55,1,2.36,2.36,0,0,1-1.41.4,2.44,2.44,0,0,1-1-.21,1.7,1.7,0,0,1-.71-.58,1.33,1.33,0,0,1-.26-.78h1.18a.66.66,0,0,0,.24.51,1.06,1.06,0,0,0,.62.17.94.94,0,0,0,.54-.13A.43.43,0,0,0,19.87,12.05Z"/><path class="cls-1" d="M24.67,12.87a1.59,1.59,0,0,1-1.28.56A1.48,1.48,0,0,1,22.25,13a1.84,1.84,0,0,1-.4-1.27V8.68h1.24v3c0,.49.22.73.66.73a.87.87,0,0,0,.87-.44V8.68h1.25v4.66H24.7Z"/><path class="cls-1" d="M28.12,13.34H26.87V6.73h1.25Z"/><path class="cls-1" d="M30.63,7.54V8.68h.8V9.6h-.8v2.32a.61.61,0,0,0,.1.37.54.54,0,0,0,.38.11,2.05,2.05,0,0,0,.37,0v.94a2.46,2.46,0,0,1-.76.12,1.19,1.19,0,0,1-1.33-1.33V9.6h-.68V8.68h.68V7.54Z"/><path class="cls-1" d="M34.82,13.34a1.16,1.16,0,0,1-.12-.42,1.51,1.51,0,0,1-1.18.51,1.68,1.68,0,0,1-1.13-.4,1.27,1.27,0,0,1-.45-1,1.3,1.3,0,0,1,.55-1.13,2.61,2.61,0,0,1,1.58-.4h.57v-.27a.77.77,0,0,0-.16-.52A.65.65,0,0,0,34,9.52a.76.76,0,0,0-.5.15.51.51,0,0,0-.18.41H32a1.23,1.23,0,0,1,.25-.75A1.64,1.64,0,0,1,33,8.79a2.54,2.54,0,0,1,1-.19A2,2,0,0,1,35.39,9a1.53,1.53,0,0,1,.5,1.22v2a2.35,2.35,0,0,0,.19,1v.07Zm-1-.87a1.07,1.07,0,0,0,.51-.12.73.73,0,0,0,.34-.33v-.8h-.46c-.62,0-1,.22-1,.65v.07a.49.49,0,0,0,.17.38A.6.6,0,0,0,33.79,12.47Z"/><path class="cls-1" d="M38,8.68l0,.54a1.64,1.64,0,0,1,1.34-.62,1.35,1.35,0,0,1,1.1.43,2,2,0,0,1,.37,1.3v3H39.6v-3a.83.83,0,0,0-.17-.57.79.79,0,0,0-.58-.18.84.84,0,0,0-.78.45v3.28H36.82V8.68Z"/><path class="cls-1" d="M43.27,7.54V8.68h.8V9.6h-.8v2.32a.61.61,0,0,0,.1.37.52.52,0,0,0,.38.11,2.05,2.05,0,0,0,.37,0v.94a2.46,2.46,0,0,1-.76.12A1.19,1.19,0,0,1,42,12.1V9.6h-.68V8.68H42V7.54Z"/><path class="cls-2" d="M3.66,21.5a2,2,0,0,1-1.07-.29,2,2,0,0,1-.75-.81,2.53,2.53,0,0,1-.27-1.18V19a2.79,2.79,0,0,1,.26-1.21A2.17,2.17,0,0,1,2.56,17a1.8,1.8,0,0,1,1-.3,1.7,1.7,0,0,1,1.35.57,2.38,2.38,0,0,1,.5,1.59v.28H2.08v.1a2,2,0,0,0,.46,1.32,1.44,1.44,0,0,0,1.14.53,1.67,1.67,0,0,0,.73-.15A1.59,1.59,0,0,0,5,20.44l.33.24A1.88,1.88,0,0,1,3.66,21.5Zm-.1-4.39a1.29,1.29,0,0,0-1,.43,2,2,0,0,0-.49,1.15H4.89v-.06a1.67,1.67,0,0,0-.38-1.09A1.2,1.2,0,0,0,3.56,17.11Z"/><path class="cls-2" d="M6.9,16.76l0,.8a1.79,1.79,0,0,1,.65-.66,1.71,1.71,0,0,1,.87-.22,1.4,1.4,0,0,1,1.11.42,1.89,1.89,0,0,1,.37,1.26v3.06H9.41V18.36a1.41,1.41,0,0,0-.27-.93,1,1,0,0,0-.83-.31,1.32,1.32,0,0,0-.85.3,1.81,1.81,0,0,0-.54.81v3.19H6.41V16.76Z"/><path class="cls-2" d="M12.05,15.57v1.19h1v.42h-1v3.11a1,1,0,0,0,.14.58.56.56,0,0,0,.47.19l.41,0,0,.42a1.7,1.7,0,0,1-.56.07.93.93,0,0,1-.77-.3,1.47,1.47,0,0,1-.24-.91V17.18h-.85v-.42h.85V15.57Z"/><path class="cls-2" d="M16.23,17.2a1.9,1.9,0,0,0-.35,0,1.24,1.24,0,0,0-.81.27,1.53,1.53,0,0,0-.48.78v3.2h-.51V16.76h.5v.74a1.38,1.38,0,0,1,1.32-.82.84.84,0,0,1,.34.05Z"/><path class="cls-2" d="M18.85,21.5A2,2,0,0,1,17,20.4a2.53,2.53,0,0,1-.27-1.18V19A2.79,2.79,0,0,1,17,17.83a2.17,2.17,0,0,1,.73-.85,1.8,1.8,0,0,1,1-.3,1.7,1.7,0,0,1,1.35.57,2.38,2.38,0,0,1,.5,1.59v.28H17.27v.1a1.91,1.91,0,0,0,.46,1.32,1.44,1.44,0,0,0,1.14.53,1.67,1.67,0,0,0,.73-.15,1.59,1.59,0,0,0,.57-.48l.33.24A1.88,1.88,0,0,1,18.85,21.5Zm-.1-4.39a1.33,1.33,0,0,0-1,.43,2,2,0,0,0-.48,1.15h2.79v-.06a1.67,1.67,0,0,0-.38-1.09A1.2,1.2,0,0,0,18.75,17.11Z"/><path class="cls-2" d="M25.34,19.14a2.79,2.79,0,0,1-.48,1.72,1.52,1.52,0,0,1-1.29.64,1.7,1.7,0,0,1-1.46-.67v2.38h-.52V16.76h.48l0,.66a1.63,1.63,0,0,1,1.46-.74,1.56,1.56,0,0,1,1.31.63,2.91,2.91,0,0,1,.47,1.75Zm-.51-.09a2.41,2.41,0,0,0-.37-1.41,1.18,1.18,0,0,0-1-.52,1.41,1.41,0,0,0-.81.23,1.39,1.39,0,0,0-.52.66v2.24a1.38,1.38,0,0,0,.53.61,1.5,1.5,0,0,0,.81.21,1.16,1.16,0,0,0,1-.52A2.63,2.63,0,0,0,24.83,19.05Z"/><path class="cls-2" d="M28.63,17.2a1.9,1.9,0,0,0-.35,0,1.24,1.24,0,0,0-.81.27,1.53,1.53,0,0,0-.48.78v3.2h-.51V16.76H27v.74a1.38,1.38,0,0,1,1.32-.82.84.84,0,0,1,.34.05Z"/><path class="cls-2" d="M31.25,21.5a2,2,0,0,1-1.07-.29,2,2,0,0,1-.75-.81,2.53,2.53,0,0,1-.27-1.18V19a2.79,2.79,0,0,1,.26-1.21,2.17,2.17,0,0,1,.73-.85,1.8,1.8,0,0,1,1-.3,1.7,1.7,0,0,1,1.35.57,2.38,2.38,0,0,1,.5,1.59v.28H29.67v.1a2,2,0,0,0,.46,1.32,1.44,1.44,0,0,0,1.14.53,1.67,1.67,0,0,0,.73-.15,1.59,1.59,0,0,0,.57-.48l.33.24A1.88,1.88,0,0,1,31.25,21.5Zm-.1-4.39a1.29,1.29,0,0,0-1,.43,2,2,0,0,0-.49,1.15h2.79v-.06a1.67,1.67,0,0,0-.38-1.09A1.19,1.19,0,0,0,31.15,17.11Z"/><path class="cls-2" d="M34.49,16.76l0,.8a1.79,1.79,0,0,1,.65-.66,1.71,1.71,0,0,1,.87-.22,1.38,1.38,0,0,1,1.11.42,1.89,1.89,0,0,1,.37,1.26v3.06H37V18.36a1.36,1.36,0,0,0-.27-.93,1,1,0,0,0-.83-.31,1.27,1.27,0,0,0-.84.3,1.75,1.75,0,0,0-.55.81v3.19H34V16.76Z"/><path class="cls-2" d="M40.64,21.5a2,2,0,0,1-1.07-.29,2,2,0,0,1-.75-.81,2.66,2.66,0,0,1-.26-1.18V19a2.65,2.65,0,0,1,.26-1.21,2.07,2.07,0,0,1,.72-.85,1.84,1.84,0,0,1,1-.3,1.69,1.69,0,0,1,1.34.57,2.38,2.38,0,0,1,.5,1.59v.28H39.07v.1a2,2,0,0,0,.45,1.32,1.46,1.46,0,0,0,1.14.53,1.67,1.67,0,0,0,.73-.15,1.62,1.62,0,0,0,.58-.48l.32.24A1.88,1.88,0,0,1,40.64,21.5Zm-.09-4.39a1.29,1.29,0,0,0-1,.43,1.89,1.89,0,0,0-.48,1.15h2.79v-.06a1.73,1.73,0,0,0-.38-1.09A1.22,1.22,0,0,0,40.55,17.11Z"/><path class="cls-2" d="M46.39,20.83a1.68,1.68,0,0,1-1.49.67,1.44,1.44,0,0,1-1.13-.43,1.85,1.85,0,0,1-.39-1.28v-3h.51v3c0,.88.36,1.33,1.07,1.33a1.32,1.32,0,0,0,1.42-.93V16.76h.52v4.66h-.5Z"/><path class="cls-2" d="M50.39,17.2a2,2,0,0,0-.35,0,1.26,1.26,0,0,0-.82.27,1.46,1.46,0,0,0-.47.78v3.2h-.52V16.76h.51v.74a1.36,1.36,0,0,1,1.31-.82.84.84,0,0,1,.34.05Z"/><path class="cls-3" d="M43.27,6.12s0-.1,0-.09.05.25.09.3V6.26l.07.32.17.32s0-.07,0-.07a1.59,1.59,0,0,1,.08.22h0V7l0,0c.13-.53.24-1,.32-1.46,0-.11,0-.22,0-.29A1.36,1.36,0,0,1,44.24,5c-.09-.13-.07-.33-.19-.4s.05-.07,0-.09l-.14-.12a.19.19,0,0,1-.08-.15c0-.05.08-.09.07-.12s-.1,0-.12,0c-.13.22-.08.13-.09.16v0a.38.38,0,0,1,0,.15s0,0,0-.07h0s0,0,0,0a.25.25,0,0,1-.09,0l0,.09s0,0,0,0-.1.06-.15.16-.07.08-.08.15l0-.07s.06.06,0,.1-.05,0-.06-.08,0,.11,0,.15,0-.13,0-.09,0,0,0,0S43,4.75,43,4.9a.52.52,0,0,0-.06-.13h0l0,.08,0-.07,0,0a.14.14,0,0,0,0,.06l0,0,0,.07a1.43,1.43,0,0,0,0,.21C43,5.34,43.12,5.78,43.27,6.12Z"/><path class="cls-3" d="M48,12.36s0-.12,0-.11.06.32.12.38v-.09l.1.41c.07.16.14.3.21.43,0-.05,0-.1,0-.1a1.8,1.8,0,0,1,.11.28l0,0v-.09l0,.11v0c.15-.7.27-1.38.36-1.94a3.67,3.67,0,0,1,0-.4,1.57,1.57,0,0,1,.14-.29c-.11-.19-.08-.46-.22-.58,0,0,.05-.1,0-.14a3.1,3.1,0,0,1-.27-.39s.06,0,0-.05-.1,0-.14-.07a.27.27,0,0,0-.07.13.24.24,0,0,0,0,.08h0a.34.34,0,0,1,0,.2s0-.05,0-.09h0s0,0-.07,0-.07,0-.12.07l0,.11s0-.06-.06-.05-.13.09-.19.22-.09.09-.1.19l0-.09s.09.08,0,.12-.06-.06-.08-.1.06.15,0,.2,0-.18-.07-.12,0,.05,0,.07-.2-.12-.19.07a.51.51,0,0,0-.07-.17h0s0,.08,0,.1l0-.09,0,0a.26.26,0,0,0,0,.08l0-.06,0,.1a1.13,1.13,0,0,0,0,.28C47.63,11.36,47.81,11.91,48,12.36Z"/><path class="cls-3" d="M48.51,7.72s0,.06,0,0-.12-.13-.22-.14l0,0A1.22,1.22,0,0,0,48,7.55a1.08,1.08,0,0,0-.4,0s0,0,0,0-.12,0-.2,0h0a.06.06,0,0,0,0,0l-.09,0a1.18,1.18,0,0,0-.57.88h0l0,.32h0L47,9c.08,0,.16.13.24.17.06-.14.25-.15.26-.32,0,0,.09,0,.11,0a.86.86,0,0,1,.15-.35s.08,0,.09,0,0-.09,0-.13a1,1,0,0,1-.28-.08c0,.24.07.49.11.74l0-.05a.08.08,0,0,1,0-.11c.06,0,.16,0,.15,0H48l.07-.05s0,.05,0,.05.11,0,.21-.05.1,0,.16-.07,0,0,0,.09,0-.1.06-.1,0,.07,0,.11,0-.13.1-.14-.09.12,0,.12,0,0,0-.06,0,.2.16,0c0,.05-.06.12-.06.17h0a.73.73,0,0,1,0-.09l0,.08h0a.25.25,0,0,0,0-.07l0,.06.09,0A.57.57,0,0,0,49,8.67,1,1,0,0,0,48.51,7.72Z"/><path class="cls-3" d="M46.86,9.11s0,0,.06,0,0,.18.11.24l0,0a1.24,1.24,0,0,0,.1.2,1.25,1.25,0,0,0,.35.21s0,0,0,0,.11.06.19.09h0s0,0,0,0l.09,0a1.23,1.23,0,0,0,1-.45v0L49,9V9a1,1,0,0,1-.14-.15c0-.07-.07-.19-.11-.26-.13.09-.3,0-.39.13,0,0-.06-.08-.1,0a.89.89,0,0,1-.32.21s0-.07-.06-.06,0,.1-.05.13.17.15.2.22l.29-.69,0,0a.09.09,0,0,1-.1.07c-.07,0-.14-.08-.12-.09h0l-.07,0s-.07,0-.09-.06h-.09s0,0,0-.05-.09-.07-.21-.07-.09,0-.17,0l.06-.06s0,.08-.1,0,0-.06.07-.08-.11.09-.16.07.14-.06.08-.1,0,0-.06,0,.06-.2-.11-.13c0,0,.11-.07.14-.11h0l-.09,0,.07,0h0l-.06,0,0,0h-.1c-.09,0-.21.07-.23.11A1,1,0,0,0,46.86,9.11Z"/><path class="cls-3" d="M43.79,2s0,0,0,0S43.65,2,43.57,2l0,0-.16-.1a1.22,1.22,0,0,0-.33,0,0,0,0,0,1,0,0l-.17,0h0V2l-.08,0a1,1,0,0,0-.48.73h0l0,.26h0l.16,0a2.31,2.31,0,0,0,.19.14c0-.12.21-.12.22-.26,0,0,.08,0,.09,0a.78.78,0,0,1,.13-.29s.06,0,.07,0,0-.08,0-.11-.19,0-.24-.07c0,.2.07.41.1.62a.05.05,0,0,1,0,0,.07.07,0,0,1,0-.1.13.13,0,0,1,.13,0h0s0,0,.06,0h.1l0,0s0,0,0,0,.09,0,.18,0,.08,0,.13-.06,0,.05,0,.08,0-.09,0-.08,0,.06,0,.09,0-.11.09-.12-.08.1,0,.1,0,0,0-.05.05.16.14.05,0,.09,0,.13h0S44,3,44,3l0,.07,0,0a.09.09,0,0,0,0,0V3l.07,0c0-.06.12-.13.12-.17A.84.84,0,0,0,43.79,2Z"/><path class="cls-3" d="M42.42,3.18s0,0,0,0,0,.15.1.2l0,0a1.19,1.19,0,0,0,.08.16.85.85,0,0,0,.29.17s0,0,0,0l.15.07h0s0,0,0,0l.07,0a1,1,0,0,0,.79-.37h0l.11-.24h0L44.05,3c0-.06-.06-.15-.1-.22-.1.08-.24,0-.32.11s-.05-.06-.08,0a.68.68,0,0,1-.26.18s0-.06,0,0,0,.08,0,.1a1.57,1.57,0,0,1,.16.18l.24-.57,0,0a.1.1,0,0,1-.09.07s-.11-.07-.1-.08h0s0,0-.05,0l-.08,0h-.07s0,0,0-.05-.07,0-.17,0-.08,0-.14,0,0,0,0,0,0,.07-.08,0,0,0,0-.07-.09.08-.13.06.12-.05.07-.08a.07.07,0,0,0-.05,0c.05-.09.05-.17-.09-.12,0,0,.09-.05.11-.08h0l-.07,0,.06,0h0a.09.09,0,0,0-.06,0l0,0h-.08a.63.63,0,0,0-.2.09A.84.84,0,0,0,42.42,3.18Z"/><path class="cls-1" d="M50,2.41l0,0c0,.11-.11.24-.09.29a1.19,1.19,0,0,0,.86.9s0-.07,0-.07.19.11.3.09V3.59l.25.08a1.69,1.69,0,0,0,.45-.14s0,0,0,0S52,3.44,52,3.4l0,0s0,0,0,0l.1-.05a1.43,1.43,0,0,0,.31-.51h0a1.37,1.37,0,0,0,.06-.66h0l-.13-.35h0a1.49,1.49,0,0,0-.15-.2s0,.06-.06.05-.1-.2-.2-.24l0,0c0-.07-.11-.13-.17-.2a1.83,1.83,0,0,0-.46-.12s0,0,0,0-.14,0-.23,0h0a0,0,0,0,0,0,0h-.11a1.38,1.38,0,0,0-.93.8v0l-.07.37h0Z"/><path class="cls-1" d="M53.65,5.48a3.48,3.48,0,0,0-1.13-.81s0,0-.07,0a7.55,7.55,0,0,0-1.29-.47l-.21,0a.23.23,0,0,0-.09,0L50.26,4c-.59-.1-1.21-.16-1.82-.21s-1.23-.06-1.85,0-1.25.1-1.89.15-1.27.18-1.92.31-1.08.25-1.6.36c-.78.17-1.77.36-2.52.55.07,0-.35.19-.73.34s-.73.29-.53.29a7.94,7.94,0,0,0-1.25.42c-.07.15-.43.34-1.6,1a14.78,14.78,0,0,0-1.31.72c-.23.17.61-.28.38-.11a19.89,19.89,0,0,1,5.35-2,41.78,41.78,0,0,1,5.72-1,18.48,18.48,0,0,1,4.72,0l0,0-.07.07s0,.08,0,.1c0,.37,0,1,0,1.4,0,0,.06-.11.08-.09s-.08.31,0,.39l0-.07c0,.11,0,.26-.07.39s0,.32,0,.46l0-.08a.25.25,0,0,1,0,.1.46.46,0,0,0,.1-.07l0,0a.36.36,0,0,0,0-.09l.08,0A17,17,0,0,0,50.7,5.88c.07-.11.12-.21.17-.28a1.27,1.27,0,0,1,.29-.18.75.75,0,0,1,0-.29,5.35,5.35,0,0,1,1.25.5,1.65,1.65,0,0,1,.9,1.15,1.29,1.29,0,0,1-.58,1,5.24,5.24,0,0,1-.9.62l-.18.11a13.75,13.75,0,0,1-3.51,1.4,5.68,5.68,0,0,1-.71.18c-.24,0-.48.11-.72.14.23,0,.44,0,.63,0-.5.09-1,.08-1.19.12-1.07,0-.47.11,0,.19s-.1.09.37.1a6.15,6.15,0,0,1-.86,0,2.22,2.22,0,0,0,.49,0c.24,0,.45,0,.33,0a9,9,0,0,1-1,0,2.58,2.58,0,0,0,.63.05,2.3,2.3,0,0,1,.51,0h-.56a2.32,2.32,0,0,0-.48,0,3.8,3.8,0,0,0,.51,0c-1.07,0-1.68,0-.69.11a10,10,0,0,1-1.19-.17h0l.66.12-.62-.1.1,0,.47.08-.41-.06.34.1L45,11l.34,0a4.31,4.31,0,0,0,.54.05A12.67,12.67,0,0,0,52,9.4s-.11,0,0-.08a6.61,6.61,0,0,0,1.34-.91V8.36A2.2,2.2,0,0,0,54.22,7,2.13,2.13,0,0,0,53.65,5.48Zm-4.21-.71Zm.06,0h0v0S49.5,4.79,49.5,4.78Zm.19,0h0v0S49.69,4.82,49.69,4.81Zm0,0h0s0,.06,0,.07A.56.56,0,0,0,49.73,4.82Zm.09,0Z"/></svg>