<svg id="Calque_1" data-name="Calque 1" xmlns="http://www.w3.org/2000/svg" viewBox="0 0 66.27 19.41"><defs><style>.cls-1{fill:#702963;}.cls-2{fill:#636566;}.cls-3{fill:#636362;}</style></defs><path class="cls-1" d="M8.53,12.76a3,3,0,0,1-1,2.17,3.63,3.63,0,0,1-2.42.79,3.18,3.18,0,0,1-2.58-1.11,4.5,4.5,0,0,1-.94-3v-.52A5.13,5.13,0,0,1,2,8.89,3.3,3.3,0,0,1,3.25,7.45,3.51,3.51,0,0,1,5.12,7a3.46,3.46,0,0,1,2.38.79,3.24,3.24,0,0,1,1,2.22H6.79a1.85,1.85,0,0,0-.46-1.2,1.77,1.77,0,0,0-1.21-.37A1.49,1.49,0,0,0,3.81,9a3.56,3.56,0,0,0-.45,2v.64a3.76,3.76,0,0,0,.42,2,1.46,1.46,0,0,0,1.32.64,1.7,1.7,0,0,0,1.21-.37,1.63,1.63,0,0,0,.46-1.15Z"/><path class="cls-1" d="M9.31,12.37a3.77,3.77,0,0,1,.36-1.68,2.76,2.76,0,0,1,1.05-1.14,3.06,3.06,0,0,1,1.59-.41,2.86,2.86,0,0,1,2.09.79,3.18,3.18,0,0,1,.91,2.13v.43a3.26,3.26,0,0,1-.82,2.34,2.82,2.82,0,0,1-2.18.89,2.85,2.85,0,0,1-2.19-.88,3.37,3.37,0,0,1-.82-2.39Zm1.69.12a2.42,2.42,0,0,0,.34,1.38,1.23,1.23,0,0,0,1.94,0,2.61,2.61,0,0,0,.34-1.51A2.39,2.39,0,0,0,13.28,11a1.13,1.13,0,0,0-1-.48,1.12,1.12,0,0,0-1,.48A2.68,2.68,0,0,0,11,12.49Z"/><path class="cls-1" d="M16.11,12.38a3.75,3.75,0,0,1,.7-2.35,2.26,2.26,0,0,1,1.87-.89,2,2,0,0,1,1.62.72l.07-.6h1.54v6.13a2.75,2.75,0,0,1-.38,1.45,2.4,2.4,0,0,1-1.06.93,3.67,3.67,0,0,1-1.61.33,3.6,3.6,0,0,1-1.36-.28,2.51,2.51,0,0,1-1-.72l.75-1a2,2,0,0,0,1.54.71,1.45,1.45,0,0,0,1.05-.36,1.35,1.35,0,0,0,.37-1v-.34a1.93,1.93,0,0,1-1.54.67,2.24,2.24,0,0,1-1.85-.9,3.7,3.7,0,0,1-.71-2.37Zm1.7.13a2.33,2.33,0,0,0,.34,1.35,1.1,1.1,0,0,0,1,.49,1.17,1.17,0,0,0,1.11-.58V11.1a1.17,1.17,0,0,0-1.1-.58,1.1,1.1,0,0,0-.95.5A2.54,2.54,0,0,0,17.81,12.51Z"/><path class="cls-1" d="M24.77,9.26l.05.73a2.23,2.23,0,0,1,1.82-.85,1.83,1.83,0,0,1,1.5.59,2.79,2.79,0,0,1,.51,1.77v4.1H27V11.54a1.07,1.07,0,0,0-.23-.78,1.07,1.07,0,0,0-.78-.24,1.15,1.15,0,0,0-1.07.61V15.6h-1.7V9.26Z"/><path class="cls-1" d="M29.92,7.62A.84.84,0,0,1,30.17,7a1,1,0,0,1,.7-.24,1,1,0,0,1,.69.24.84.84,0,0,1,.26.63.83.83,0,0,1-.26.63,1,1,0,0,1-.69.25.93.93,0,0,1-.69-.25A.83.83,0,0,1,29.92,7.62Zm1.8,8H30V9.26h1.7Z"/><path class="cls-2" d="M35.14,7.7V9.26h1.08V10.5H35.14v3.17a.75.75,0,0,0,.13.5.7.7,0,0,0,.52.15,2.53,2.53,0,0,0,.5,0v1.28a3.26,3.26,0,0,1-1,.16,1.61,1.61,0,0,1-1.81-1.8V10.5h-.93V9.26h.93V7.7Z"/><path class="cls-2" d="M41,15a2.1,2.1,0,0,1-1.73.77,2,2,0,0,1-1.56-.59,2.49,2.49,0,0,1-.54-1.72V9.26h1.69v4.1q0,1,.9,1a1.23,1.23,0,0,0,1.19-.6V9.26H42.6V15.6H41Z"/><path class="cls-2" d="M45.47,9.26l.05.71a2.24,2.24,0,0,1,1.82-.83,1.7,1.7,0,0,1,1.69,1,2.16,2.16,0,0,1,1.9-1,1.9,1.9,0,0,1,1.54.6,2.81,2.81,0,0,1,.5,1.81v4h-1.7v-4a1.2,1.2,0,0,0-.21-.79.92.92,0,0,0-.74-.25,1.06,1.06,0,0,0-1.06.73V15.6h-1.7v-4a1.19,1.19,0,0,0-.21-.79.93.93,0,0,0-.74-.25,1.09,1.09,0,0,0-1,.6V15.6h-1.7V9.26Z"/><path class="cls-3" d="M53.61,6.58s0-.1,0-.09,0,.25.09.3l0-.07c0,.09,0,.21.07.32a3.17,3.17,0,0,0,.16.32s0-.07,0-.07a1.59,1.59,0,0,1,.08.22h0s0,0,0-.07v0l0,0c.14-.54.24-1,.32-1.46a2.16,2.16,0,0,1,0-.3.84.84,0,0,1,.12-.23c-.09-.13-.07-.33-.18-.4s0-.07,0-.09a1.49,1.49,0,0,0-.14-.12.19.19,0,0,1-.08-.15c0-.05.08-.09.07-.12s-.1,0-.12,0c-.13.22-.08.12-.09.16v0a.43.43,0,0,1,0,.16s0,0,0-.07h0s0,0-.05,0-.06,0-.09,0l0,.09s0,0-.05,0-.1.06-.14.16-.08.08-.08.15l0-.07s.06.06,0,.1,0,0-.06-.08,0,.11,0,.15,0-.14,0-.09,0,0,0,0-.15-.09-.14.06c0,0,0-.1,0-.13h0a.14.14,0,0,0,0,.07l0-.06,0,0,0,.06,0,0,0,.08a1.43,1.43,0,0,0,0,.21C53.33,5.8,53.47,6.24,53.61,6.58Z"/><path class="cls-3" d="M58.34,12.82c0-.05,0-.13,0-.12s.06.33.12.39V13l.1.41a4,4,0,0,0,.22.42s0-.09,0-.09a1.8,1.8,0,0,1,.11.28l0,0V14l0,.11v0c.15-.7.28-1.38.36-1.94a3.67,3.67,0,0,1,0-.4,1.13,1.13,0,0,1,.15-.29c-.12-.19-.09-.47-.23-.58,0,0,.06-.1,0-.14a2.92,2.92,0,0,1-.26-.39s.06,0,0-.06-.1,0-.13-.06-.06.07-.08.13a.64.64,0,0,1,0,.07v0a.67.67,0,0,1,0,.2s0,0,0-.09h0s0,0-.06,0a.47.47,0,0,1-.12.07l0,.11s0-.06-.07-.05-.13.09-.18.22-.1.09-.11.18L58.22,11s.09.08,0,.12-.06-.06-.08-.1.07.15,0,.2,0-.18-.07-.12,0,.05,0,.07-.19-.12-.19.07c0-.05,0-.14-.07-.17h0l0,.1,0-.09,0,0,0,.08,0-.06a.17.17,0,0,0,0,.1,1.28,1.28,0,0,0,0,.28C58,11.82,58.15,12.37,58.34,12.82Z"/><path class="cls-3" d="M58.85,8.18s0,.06-.05.05-.12-.14-.22-.14l0,0A.88.88,0,0,0,58.37,8,1.08,1.08,0,0,0,58,8s0,0,0,0-.13,0-.21,0h0a0,0,0,0,0,0,0h-.1a1.2,1.2,0,0,0-.57.89h0l0,.32h0l.19.06c.08,0,.16.12.24.17.06-.15.25-.16.26-.32,0,0,.1,0,.11,0a.76.76,0,0,1,.16-.35s.07,0,.08,0,0-.09,0-.13c-.15,0-.22,0-.28-.09l.12.75a.08.08,0,0,1,0,0,.08.08,0,0,1,0-.11c.06,0,.16,0,.15,0h.08a.2.2,0,0,1,.11,0l.07-.05s0,0,0,.05.11,0,.21-.05.11,0,.16-.07a.37.37,0,0,1,0,.09c.05,0,0-.1.06-.1s0,.07,0,.11,0-.14.1-.15-.09.13,0,.13,0,0,0-.07,0,.2.17.06c0,.05-.07.12-.07.17h0a.73.73,0,0,1,.05-.09l0,.08h0s0-.05,0-.07l0,.06.09-.05c.07-.08.15-.17.14-.22A1,1,0,0,0,58.85,8.18Z"/><path class="cls-3" d="M57.2,9.57s0-.05.06,0,0,.18.11.24l0,0a1.24,1.24,0,0,0,.1.2,1.25,1.25,0,0,0,.35.21s0,0,0,0a1.54,1.54,0,0,1,.19.09h0l0,0,.08,0a1.23,1.23,0,0,0,1-.46h0l.14-.28v0l-.14-.15c0-.07-.07-.19-.11-.26-.13.09-.29,0-.39.13,0,0-.06-.08-.1,0a.77.77,0,0,1-.31.22s0-.07-.07-.06,0,.1,0,.13c.12.12.17.15.2.22.1-.23.2-.46.29-.69l0,0a.09.09,0,0,1-.1.08c-.07,0-.13-.08-.12-.09h0s0,0-.07-.05l-.09-.05h-.09s0,0,0-.05-.09-.07-.2-.07-.1,0-.18,0l.07-.07s0,.09-.11.05,0-.06.07-.09-.11.09-.16.08.14-.07.08-.1,0,0-.06,0,.06-.2-.11-.14c0,0,.12-.06.14-.1h0l-.08.05.07-.06h0l-.07,0,.05,0h-.1c-.1,0-.22.07-.24.11A1,1,0,0,0,57.2,9.57Z"/><path class="cls-3" d="M54.13,2.5s0,0,0,0-.1-.12-.18-.12l0,0-.15-.1a1.28,1.28,0,0,0-.34,0,0,0,0,0,1,0,0l-.17,0h0v0h-.08a1,1,0,0,0-.47.74h0l0,.26h0l.16,0a1.43,1.43,0,0,0,.2.14c.05-.12.2-.13.21-.26s.08,0,.09,0a.71.71,0,0,1,.13-.29s.06,0,.07,0,0-.08,0-.11a.89.89,0,0,1-.24-.07c0,.2.07.41.1.62l0,0a.07.07,0,0,1,0-.1c.05,0,.14,0,.13,0h0s0,0,.07,0h.09l.05,0s0,0,0,0,.1,0,.18,0,.08,0,.13-.06a.14.14,0,0,1,0,.07s0-.08.05-.07,0,.05,0,.09,0-.12.09-.12-.08.1,0,.1,0,0,0-.06,0,.17.14,0c0,0-.05.1-.05.14h0l0-.08,0,.07h0a.05.05,0,0,0,0,0v0l.07,0c.06-.06.12-.13.12-.17A.84.84,0,0,0,54.13,2.5Z"/><path class="cls-3" d="M52.76,3.64s0,0,.06,0,0,.15.09.19h0L53,4a1.22,1.22,0,0,0,.29.17l0,0,.15.07h0a0,0,0,0,0,0,0l.07,0a1,1,0,0,0,.79-.38h0l.11-.23h0l-.11-.13a2,2,0,0,1-.09-.22c-.11.07-.25,0-.33.11s0-.06-.08,0a.61.61,0,0,1-.26.18s0-.06-.05-.05,0,.09,0,.11.14.13.16.18l.24-.57,0,0a.06.06,0,0,1-.08.06c-.06,0-.12-.06-.1-.07h0s0,0,0,0a.2.2,0,0,1-.08,0h-.07s0,0,0,0-.07,0-.16-.06-.08,0-.15,0l.06-.06s-.05.08-.09,0,0,0,.05-.07-.09.08-.13.06.12-.05.07-.08l0,0c0-.08,0-.16-.09-.11,0,0,.09,0,.12-.09h0l-.08,0,.06,0h0l-.06,0,0,0H53a.63.63,0,0,0-.2.09A.86.86,0,0,0,52.76,3.64Z"/><path class="cls-1" d="M60.36,2.87l0,0c-.05.11-.11.24-.09.29a1.19,1.19,0,0,0,.86.9s0-.07,0-.07.18.11.29.09v0a1,1,0,0,0,.25.07A1.37,1.37,0,0,0,62.15,4s0,0,0,0a.91.91,0,0,1,.22-.09l0,0s0,0,0,0l.1,0a1.43,1.43,0,0,0,.31-.51h0a1.26,1.26,0,0,0,.06-.66h0l-.14-.35h0a1.43,1.43,0,0,0-.14-.2s0,.06-.07,0-.09-.19-.2-.23l0,0a1.63,1.63,0,0,0-.17-.2,1.83,1.83,0,0,0-.46-.12s0,0,0,0-.15,0-.24,0h0a.08.08,0,0,0,0,0h-.11a1.38,1.38,0,0,0-.93.8v0l-.07.36,0,0Z"/><path class="cls-1" d="M64,5.94a3.67,3.67,0,0,0-1.13-.82s0,0-.06,0a8.85,8.85,0,0,0-1.29-.48l-.22,0a.23.23,0,0,0-.09,0l-.59-.13c-.6-.1-1.21-.16-1.82-.21s-1.24-.06-1.86,0-1.25.09-1.89.15-1.27.18-1.91.31S52,5,51.52,5.07c-.78.16-1.77.36-2.52.55.07,0-.34.19-.73.33s-.73.3-.53.3a8.36,8.36,0,0,0-1.25.42c-.07.15-.43.34-1.6,1a14.78,14.78,0,0,0-1.31.72c-.23.17.61-.29.38-.11a19.89,19.89,0,0,1,5.35-2,41.78,41.78,0,0,1,5.72-1,18.49,18.49,0,0,1,4.72,0l0,0-.07.06a.3.3,0,0,0,0,.11c0,.37,0,.94,0,1.39,0,0,.06-.1.08-.08s-.07.31,0,.38l0-.06c0,.11,0,.26-.07.39a3.15,3.15,0,0,0,0,.46s0-.08,0-.08v.09a.22.22,0,0,0,.1-.06l0,0,.05-.09L60,7.68c.43-.48.8-.94,1.1-1.34a1.72,1.72,0,0,1,.17-.28,1.21,1.21,0,0,1,.28-.18.78.78,0,0,1,0-.3,5.84,5.84,0,0,1,1.25.51,1.63,1.63,0,0,1,.9,1.15,1.3,1.3,0,0,1-.58,1,5.24,5.24,0,0,1-.9.62L62,9a13.75,13.75,0,0,1-3.51,1.4c-.24.07-.47.13-.71.18s-.48.11-.73.13a4.23,4.23,0,0,0,.63,0c-.5.1-1,.09-1.19.13-1.06,0-.47.11-.05.19s-.1.09.37.09a4.92,4.92,0,0,1-.86,0,1.92,1.92,0,0,0,.49,0c.24,0,.45,0,.34,0a9.17,9.17,0,0,1-1.05,0,4.74,4.74,0,0,0,.64,0,2.22,2.22,0,0,1,.5,0h-.56a1.76,1.76,0,0,0-.48,0,3.94,3.94,0,0,0,.51,0c-1.07,0-1.68-.05-.69.1-.35,0-.83-.13-1.19-.16h0l.66.11-.62-.09.1,0,.47.08-.41-.06.35.1.36.08.34,0,.53,0a12.74,12.74,0,0,0,6.18-1.67s-.11,0,0-.08a6.84,6.84,0,0,0,1.33-.91v0a2.2,2.2,0,0,0,.8-1.41A2.09,2.09,0,0,0,64,5.94Zm-4.21-.71h0Zm.06,0h0l0,0Zm.19,0h0Zm0,0h0a.08.08,0,0,1,0,.07S60.07,5.31,60.08,5.28Zm.08,0Z"/></svg>